<?xml version="1.0" encoding="UTF-8"?>
<svg width="74px" height="74px" viewBox="0 0 74 74" version="1.1" xmlns="http://www.w3.org/2000/svg" xmlns:xlink="http://www.w3.org/1999/xlink">
    <!-- Generator: Sketch 55.2 (78181) - https://sketchapp.com -->
    <title>icIgnoreProspect</title>
    <desc>Created with Sketch.</desc>
    <defs>
        <path d="M155.531234,178.657052 C158.420348,175.553753 162.218994,174 166.022786,174 C169.826579,174 173.64434,175.553759 176.533514,178.657052 L179.998759,182.390554 L183.464065,178.676702 C189.242352,172.469984 198.688058,172.470123 204.466285,178.676702 C210.244572,184.883289 210.244572,194.851465 204.466285,201.058058 C196.602797,209.504481 188.742862,217.960336 180.879437,226.406571 C180.647981,226.657711 180.326016,226.8 179.989202,226.8 C179.652387,226.8 179.330422,226.657711 179.098967,226.406571 L155.531234,201.038376 C149.759564,194.82698 149.752947,184.863538 155.531234,178.657052 Z M199.645305,155.316842 C201.009609,153.906251 202.803414,153.2 204.599649,153.2 C206.395885,153.2 208.198716,153.906254 209.563048,155.316842 L211.199414,157.013888 L212.835808,155.325774 C215.564444,152.504538 220.024916,152.504601 222.753523,155.325774 C225.482159,158.146949 225.482159,162.677939 222.753523,165.499117 C219.04021,169.338401 215.328574,173.181971 211.61529,177.021169 C211.505991,177.135323 211.353952,177.2 211.194901,177.2 C211.03585,177.2 210.88381,177.135323 210.774512,177.021169 L199.645305,165.490171 C196.919794,162.666809 196.91667,158.137972 199.645305,155.316842 Z" id="path-1"></path>
    </defs>
    <g id="Page-1" stroke="none" stroke-width="1" fill="none" fill-rule="evenodd">
        <g id="Views-Non-display-Copy-3" transform="translate(-151.000000, -153.000000)">
            <mask id="mask-2" fill="white">
                <use xlink:href="#path-1"></use>
            </mask>
            <use id="icIgnoreProspect" fill-opacity="0.6" fill="#666666" xlink:href="#path-1"></use>
        </g>
    </g>
</svg>