<?xml version="1.0" encoding="UTF-8"?>
<svg width="74px" height="75px" viewBox="0 0 74 75" version="1.1" xmlns="http://www.w3.org/2000/svg" xmlns:xlink="http://www.w3.org/1999/xlink">
    <!-- Generator: Sketch 52.4 (67378) - http://www.bohemiancoding.com/sketch -->
    <title>icNoMatchesYet</title>
    <desc>Created with Sketch.</desc>
    <defs>
        <path d="M4.5312345,26.0422894 C-1.24705264,32.248775 -1.24043607,42.2122168 4.5312345,48.4236134 L28.0989666,73.7918081 C28.3304221,74.0429481 28.6523875,74.185237 28.9892016,74.185237 C29.3260158,74.185237 29.6479811,74.0429481 29.8794366,73.7918081 C37.7428624,65.3455734 45.6027974,56.8897181 53.4662845,48.4432948 C59.2445718,42.2367023 59.2445718,32.2685256 53.4662845,26.0619394 C47.6880585,19.8553595 38.2423522,19.8552211 32.4640649,26.0619394 L28.9987589,29.7757913 L25.5335142,26.0422894 C22.6443399,22.9389963 18.826579,21.385237 15.0227864,21.385237 C11.2189939,21.385237 7.42034753,22.93899 4.5312345,26.0422894 Z" id="path-1"></path>
        <path d="M48.6453052,2.70207897 C45.9166696,5.5232088 45.9197941,10.052046 48.6453052,12.8754081 L59.774512,24.4064056 C59.8838104,24.5205602 60.0358496,24.585237 60.1949008,24.585237 C60.3539519,24.585237 60.5059911,24.5205602 60.6152895,24.4064056 C64.3285739,20.5672081 68.0402099,16.7236375 71.7535232,12.8843542 C74.4821589,10.0631758 74.4821589,5.53218635 71.7535232,2.7110108 C69.0249165,-0.110161901 64.5644441,-0.110224781 61.8358084,2.7110108 L60.1994139,4.39912531 L58.5630484,2.70207897 C57.198716,1.2914912 55.3958845,0.585236957 53.5996491,0.585236957 C51.8034138,0.585236957 50.0096086,1.29148834 48.6453052,2.70207897 Z" id="path-3"></path>
    </defs>
    <g id="Page-1" stroke="none" stroke-width="1" fill="none" fill-rule="evenodd">
        <g id="icNoMatchesYet">
            <mask id="mask-2" fill="white">
                <use xlink:href="#path-1"></use>
            </mask>
            <use id="Mask" fill="#ACACAC" fill-rule="nonzero" opacity="0.5" xlink:href="#path-1"></use>
            <mask id="mask-4" fill="white">
                <use xlink:href="#path-3"></use>
            </mask>
            <use id="Mask" fill="#ACACAC" fill-rule="nonzero" opacity="0.5" xlink:href="#path-3"></use>
        </g>
    </g>
</svg>