<?xml version="1.0" encoding="UTF-8"?>
<svg width="108px" height="80px" viewBox="0 0 108 80" version="1.1" xmlns="http://www.w3.org/2000/svg" xmlns:xlink="http://www.w3.org/1999/xlink">
    <!-- Generator: Sketch 55.2 (78181) - https://sketchapp.com -->
    <title>icNoProfileView</title>
    <desc>Created with Sketch.</desc>
    <defs>
        <path d="M186.608247,208.731959 C196.629084,208.731959 204.752577,200.79309 204.752577,191 C204.752577,181.20691 196.629084,173.268041 186.608247,173.268041 C176.587411,173.268041 168.463918,181.20691 168.463918,191 C168.463918,200.79309 176.587411,208.731959 186.608247,208.731959 Z M240.934065,190.320731 C233.278039,166.800792 211.611112,151 187.0205,151 C162.429887,151 140.763171,166.800792 133.107146,190.320731 C132.964285,190.761355 132.964285,191.238645 133.107146,191.679269 C140.763171,215.199208 162.430098,231 187.020711,231 C211.611323,231 233.278039,215.199208 240.934276,191.679269 C241.076926,191.238645 241.076926,190.761355 240.934065,190.320731 Z M186.608247,221.927835 C169.326883,221.927835 155.268041,208.053771 155.268041,191 C155.268041,173.946229 169.327093,160.072165 186.608247,160.072165 C203.889402,160.072165 217.948454,173.946229 217.948454,191 C217.948454,208.053771 203.889611,221.927835 186.608247,221.927835 Z" id="path-1"></path>
    </defs>
    <g id="Page-1" stroke="none" stroke-width="1" fill="none" fill-rule="evenodd">
        <g id="Views-Non-display-Copy" transform="translate(-133.000000, -151.000000)">
            <mask id="mask-2" fill="white">
                <use xlink:href="#path-1"></use>
            </mask>
            <use id="icNoProfileView" fill-opacity="0.6" fill="#666666" fill-rule="nonzero" xlink:href="#path-1"></use>
        </g>
    </g>
</svg>