<?xml version="1.0" encoding="UTF-8"?>
<svg width="80px" height="78px" viewBox="0 0 80 78" version="1.1" xmlns="http://www.w3.org/2000/svg" xmlns:xlink="http://www.w3.org/1999/xlink">
    <!-- Generator: Sketch 55.2 (78181) - https://sketchapp.com -->
    <title>icNoFavouritesYet</title>
    <desc>Created with Sketch.</desc>
    <defs>
        <path d="M226.170868,187.2928 C227.743668,185.76 228.298868,183.5104 227.620468,181.4192 C226.940468,179.328 225.169268,177.8352 222.993268,177.5184 L203.646068,174.7072 C202.822068,174.5872 202.110068,174.0704 201.742068,173.3232 L193.092468,155.7936 C192.121268,153.824 190.150068,152.6 187.953268,152.6 C185.758068,152.6 183.786868,153.824 182.815668,155.7936 L174.164468,173.3248 C173.796468,174.072 173.082868,174.5888 172.258868,174.7088 L152.911668,177.52 C150.737268,177.8352 148.964468,179.3296 148.284468,181.4208 C147.606068,183.512 148.161268,185.7616 149.734068,187.2944 L163.732468,200.9392 C164.329268,201.5216 164.602868,202.36 164.462068,203.1792 L161.159668,222.4464 C160.866868,224.1424 161.311668,225.792 162.409268,227.0928 C164.114868,229.12 167.092468,229.7376 169.473268,228.4864 L186.775668,219.3888 C187.498868,219.0096 188.409268,219.0128 189.130868,219.3888 L206.434868,228.4864 C207.276468,228.9296 208.174068,229.1536 209.100468,229.1536 C210.791668,229.1536 212.394868,228.4016 213.497268,227.0928 C214.596468,225.792 215.039668,224.1392 214.746868,222.4464 L211.442868,203.1792 C211.302068,202.3584 211.575668,201.5216 212.172468,200.9392 L226.170868,187.2928 Z" id="path-1"></path>
    </defs>
    <g id="Page-1" stroke="none" stroke-width="1" fill="none" fill-rule="evenodd">
        <g id="Views-Non-display-Copy-2" transform="translate(-148.000000, -152.000000)">
            <mask id="mask-2" fill="white">
                <use xlink:href="#path-1"></use>
            </mask>
            <use id="icNoFavouritesYet" fill-opacity="0.6" fill="#666666" fill-rule="nonzero" xlink:href="#path-1"></use>
        </g>
    </g>
</svg>