<?xml version="1.0" encoding="UTF-8"?>
<svg width="15px" height="15px" viewBox="0 0 15 15" version="1.1" xmlns="http://www.w3.org/2000/svg" xmlns:xlink="http://www.w3.org/1999/xlink">
    <!-- Generator: Sketch 52.4 (67378) - http://www.bohemiancoding.com/sketch -->
    <title>icAddPhotoGroupChat</title>
    <desc>Created with Sketch.</desc>
    <g id="Page-1" stroke="none" stroke-width="1" fill="none" fill-rule="evenodd">
        <g id="iPhone-8-Copy-4" transform="translate(-213.000000, -364.000000)" fill="#74CD2D" fill-rule="nonzero">
            <g id="Group-13" transform="translate(206.000000, 357.000000)">
                <path d="M20.2353571,12.7142857 L16.2857143,12.7142857 L16.2857143,8.76464286 C16.2857143,7.79428571 15.4707143,7 14.5,7 C13.5292857,7 12.7142857,7.79428571 12.7142857,8.76464286 L12.7142857,12.7142857 L8.76464286,12.7142857 C7.79428571,12.7142857 7,13.5292857 7,14.5 C7,15.4707143 7.79428571,16.2857143 8.76464286,16.2857143 L12.7142857,16.2857143 L12.7142857,20.2353571 C12.7142857,21.2057143 13.5292857,22 14.5,22 C15.4707143,22 16.2857143,21.2057143 16.2857143,20.2353571 L16.2857143,16.2857143 L20.2353571,16.2857143 C21.2057143,16.2857143 22,15.4707143 22,14.5 C22,13.5292857 21.2057143,12.7142857 20.2353571,12.7142857 Z" id="icAddPhotoGroupChat"></path>
            </g>
        </g>
    </g>
</svg>