<?xml version="1.0" encoding="UTF-8"?>
<svg width="54px" height="43px" viewBox="0 0 54 43" version="1.1" xmlns="http://www.w3.org/2000/svg" xmlns:xlink="http://www.w3.org/1999/xlink">
    <!-- Generator: Sketch 52.4 (67378) - http://www.bohemiancoding.com/sketch -->
    <title>icPhotoGroupChat</title>
    <desc>Created with Sketch.</desc>
    <g id="Page-1" stroke="none" stroke-width="1" fill="none" fill-rule="evenodd">
        <g id="iPhone-8-Copy-4" transform="translate(-162.000000, -322.000000)" fill="#FFFFFF" fill-rule="nonzero">
            <path d="M189,338.125 C184.5261,338.125 180.9,341.735925 180.9,346.1875 C180.9,350.640688 184.5261,354.25 189,354.25 C193.47282,354.25 197.1,350.640688 197.1,346.1875 C197.1,341.735925 193.47282,338.125 189,338.125 Z M210.6,330.0625 L204.12,330.0625 C203.229,330.0625 202.26888,329.3745 201.98754,328.532775 L200.31246,323.529187 C200.03004,322.688 199.071,322 198.18,322 L179.82,322 C178.929,322 177.96888,322.688 177.68754,323.529725 L176.01246,328.533313 C175.73004,329.3745 174.771,330.0625 173.88,330.0625 L167.4,330.0625 C164.43,330.0625 162,332.48125 162,335.4375 L162,359.625 C162,362.58125 164.43,365 167.4,365 L210.6,365 C213.57,365 216,362.58125 216,359.625 L216,335.4375 C216,332.48125 213.57,330.0625 210.6,330.0625 Z M189,359.625 C181.54422,359.625 175.5,353.608763 175.5,346.1875 C175.5,338.766775 181.54422,332.75 189,332.75 C196.4547,332.75 202.5,338.766775 202.5,346.1875 C202.5,353.608763 196.4547,359.625 189,359.625 Z M208.71,339.196237 C207.66672,339.196237 206.82,338.354512 206.82,337.314988 C206.82,336.276538 207.66672,335.433738 208.71,335.433738 C209.75436,335.433738 210.6,336.276538 210.6,337.314988 C210.6,338.354512 209.75382,339.196237 208.71,339.196237 Z" id="icPhotoGroupChat"></path>
        </g>
    </g>
</svg>