<?xml version="1.0" encoding="UTF-8"?>
<svg width="37px" height="37px" viewBox="0 0 37 37" version="1.1" xmlns="http://www.w3.org/2000/svg" xmlns:xlink="http://www.w3.org/1999/xlink">
    <!-- Generator: Sketch 52.6 (67491) - http://www.bohemiancoding.com/sketch -->
    <title>icSettingSetting</title>
    <desc>Created with Sketch.</desc>
    <g id="Page-1" stroke="none" stroke-width="1" fill="none" fill-rule="evenodd">
        <g id="Menu-Edit-Info" transform="translate(-57.000000, -294.000000)" fill="#C8C8C8" fill-rule="nonzero">
            <g id="Group-14" transform="translate(40.000000, 276.000000)">
                <g id="Group-11">
                    <g id="Group-2-Copy-2">
                        <g id="Group-10">
                            <path d="M49.1008724,31.6651834 L48.9248744,31.6024926 L48.2374917,29.9628346 L48.3120332,29.7943595 C50.3943926,25.0749559 50.2508126,24.9341767 49.9054203,24.5920272 L47.1277738,21.8842268 C47.0142106,21.7716434 46.8147996,21.6924551 46.6429039,21.6924551 C46.4866169,21.6924551 46.0132533,21.6924551 41.9108693,23.5491811 L41.7463777,23.6229702 L40.0538354,22.9418707 L39.9858976,22.7734956 C38.0567235,18 37.8591135,18 37.3790462,18 L33.4563622,18 C32.9780959,18 32.7602746,18 30.9713787,22.7817943 L30.9040412,22.9558686 L29.2203037,23.6417674 L29.0593141,23.5748773 C26.2825681,22.4050499 24.6612655,21.8118375 24.2386302,21.8118375 C24.0671347,21.8118375 23.8670233,21.8887261 23.7529598,22.0010096 L20.9727118,24.7166088 C20.6200155,25.0642575 20.473734,25.209836 22.6651541,29.8307541 L22.745699,30.0021288 L22.0572156,31.6399871 L21.8887218,31.7050775 C17,33.5929989 17,33.7770717 17,34.2687992 L17,38.1100323 C17,38.6030595 17,38.8078293 21.8984272,40.5620704 L22.0735247,40.6238613 L22.7621081,42.2569203 L22.6881669,42.4237957 C20.6058076,47.1453989 20.7378811,47.2731801 21.0923785,47.6255281 L23.8658226,50.3370279 C23.9820873,50.4487114 24.1832994,50.5284997 24.3548949,50.5284997 C24.5101813,50.5284997 24.9824443,50.5284997 29.0875298,48.6726735 L29.2519213,48.5957849 L30.9455643,49.2802839 L31.0114009,49.4495589 C32.9417757,54.2214547 33.1400861,54.2214547 33.6204535,54.2214547 L37.5443382,54.2214547 C38.0370125,54.2214547 38.2413263,54.2214547 40.031623,49.4364608 L40.0983602,49.2622865 L41.7847991,48.5809871 L41.9452885,48.6463774 C44.7197331,49.8195043 46.3402354,50.4115169 46.7601692,50.4115169 C46.9301638,50.4115169 47.1320762,50.3370279 47.2480408,50.2222449 L50.0327912,47.5007465 C50.3830863,47.151298 50.5290675,47.0084191 48.3337453,42.3919004 L48.2520998,42.218526 L48.9393825,40.5877666 L49.1034738,40.5234761 C54,38.6256562 54,38.4406835 54,37.9483562 L54,34.1094227 C53.9998999,33.6164954 53.9998999,33.4129255 49.1008724,31.6651834 Z M35.4998999,42.340508 C31.9941481,42.340508 29.1421602,39.5450205 29.1421602,36.1114272 C29.1421602,32.677734 31.9942481,29.885946 35.4998999,29.885946 C39.004151,29.885946 41.8556385,32.6783339 41.8556385,36.1114272 C41.8557386,39.5444206 39.004251,42.340508 35.4998999,42.340508 Z" id="icSettingSetting"></path>
                        </g>
                    </g>
                </g>
            </g>
        </g>
    </g>
</svg>