<?xml version="1.0" encoding="UTF-8"?>
<svg width="18px" height="13px" viewBox="0 0 18 13" version="1.1" xmlns="http://www.w3.org/2000/svg" xmlns:xlink="http://www.w3.org/1999/xlink">
    <!-- Generator: Sketch 51.3 (57544) - http://www.bohemiancoding.com/sketch -->
    <title>ic-arrow-up--msg</title>
    <desc>Created with Sketch.</desc>
    <defs>
        <filter x="-1.3%" y="-12.9%" width="102.7%" height="125.7%" filterUnits="objectBoundingBox" id="filter-1">
            <feOffset dx="0" dy="0" in="SourceAlpha" result="shadowOffsetOuter1"></feOffset>
            <feGaussianBlur stdDeviation="1.5" in="shadowOffsetOuter1" result="shadowBlurOuter1"></feGaussianBlur>
            <feColorMatrix values="0 0 0 0 0   0 0 0 0 0   0 0 0 0 0  0 0 0 0.2 0" type="matrix" in="shadowBlurOuter1" result="shadowMatrixOuter1"></feColorMatrix>
            <feMerge>
                <feMergeNode in="shadowMatrixOuter1"></feMergeNode>
                <feMergeNode in="SourceGraphic"></feMergeNode>
            </feMerge>
        </filter>
        <path d="M311.906912,17.335729 L316.152136,13.0957724 C316.269029,12.9793062 316.333333,12.8235881 316.333333,12.6575501 C316.333333,12.4914201 316.269029,12.335794 316.152136,12.2191436 L315.780146,11.8478157 C315.663438,11.730981 315.507427,11.6666667 315.341176,11.6666667 C315.174924,11.6666667 315.019098,11.730981 314.902298,11.8478157 L309.847682,16.8958482 C309.73042,17.0128672 309.666208,17.1692304 309.666669,17.3354526 C309.666208,17.5024119 309.730328,17.6585908 309.847682,17.7757019 L314.897593,22.8188509 C315.014393,22.9356856 315.170219,23 315.336563,23 C315.502814,23 315.65864,22.9356856 315.775533,22.8188509 L316.147431,22.447523 C316.389427,22.2058374 316.389427,21.8123957 316.147431,21.5708022 L311.906912,17.335729 Z" id="path-2"></path>
    </defs>
    <g id="Page-1" stroke="none" stroke-width="1" fill="none" fill-rule="evenodd">
        <g id="Messenger-Inbox---5-pin" transform="translate(-323.000000, -660.000000)">
            <g id="Group-8" transform="translate(19.000000, 649.000000)">
                <g id="Group-12">
                    <g id="Group-4" filter="url(#filter-1)">
                        <g id="Group-9">
                            <mask id="mask-3" fill="white">
                                <use xlink:href="#path-2"></use>
                            </mask>
                            <use id="ic-arrow-up--msg" fill="#646464" fill-rule="nonzero" transform="translate(313.000000, 17.333333) rotate(90.000000) translate(-313.000000, -17.333333) " xlink:href="#path-2"></use>
                        </g>
                    </g>
                </g>
            </g>
        </g>
    </g>
</svg>