<?xml version="1.0" encoding="UTF-8"?>
<svg width="21px" height="22px" viewBox="0 0 21 22" version="1.1" xmlns="http://www.w3.org/2000/svg" xmlns:xlink="http://www.w3.org/1999/xlink">
    <!-- Generator: Sketch 51.3 (57544) - http://www.bohemiancoding.com/sketch -->
    <title>ic-earch--msg</title>
    <desc>Created with Sketch.</desc>
    <defs>
        <path d="M355,86.625 C355,86.9701778 355.25708,87.25 355.577693,87.25 L360.422307,87.25 C360.741358,87.25 361,86.9725844 361,86.625 C361,86.2798222 360.74292,86 360.422307,86 L355.577693,86 C355.258642,86 355,86.2774156 355,86.625 Z M350,90.25 C350,90.5951778 350.271912,90.875 350.611022,90.875 L360.388978,90.875 C360.726436,90.875 361,90.5975844 361,90.25 C361,89.9048222 360.728088,89.625 360.388978,89.625 L350.611022,89.625 C350.273564,89.625 350,89.9024156 350,90.25 Z M346.63208,93.875 C346.63208,93.5274156 346.873041,93.25 347.333211,93.25 L360.311646,93.25 C360.774068,93.25 361.025024,93.5298222 361.025024,93.875 C361.025024,94.2225844 360.771816,94.5 360.311646,94.5 L347.333211,94.5 C346.870789,94.5 346.63208,94.2201778 346.63208,93.875 Z M353.735225,82.3743879 C352.440106,85.7373764 348.748872,87.5087073 345.315103,86.4149945 L342.328677,94.1954304 C342.25146,94.3954573 341.927072,94.7767912 341.329066,94.6404858 C340.73106,94.5041804 340.764527,93.7445474 340.84098,93.5442275 L343.827405,85.7638054 C341.258216,84.3212235 339.682551,80.5288395 341.134078,77.2586714 C342.585606,73.9885033 346.510479,72.2410372 349.943969,73.6349393 C353.37746,75.0288413 355.063265,78.9148923 353.735225,82.3743879 Z M343.297941,76.0575811 C341.729051,77.7108757 341.310569,80.1464993 342.237633,82.2287199 C343.164697,84.3109404 345.254738,85.629698 347.533167,85.5700555 C349.811597,85.5104129 351.829716,84.0841159 352.646474,81.9562473 C353.186941,80.561305 353.148694,79.0083863 352.540211,77.6417148 C351.931728,76.2750432 350.803275,75.2075169 349.404987,74.6757659 C347.277161,73.8589109 344.866831,74.4042866 343.297941,76.0575811 Z" id="path-1"></path>
    </defs>
    <g id="Page-1" stroke="none" stroke-width="1" fill="none" fill-rule="evenodd">
        <g id="Messenger-Inbox---5-pin" transform="translate(-340.000000, -73.000000)">
            <mask id="mask-2" fill="white">
                <use xlink:href="#path-1"></use>
            </mask>
            <use id="ic-earch--msg" fill="#646464" fill-rule="nonzero" xlink:href="#path-1"></use>
        </g>
    </g>
</svg>