<?xml version="1.0" encoding="UTF-8"?>
<svg width="14px" height="14px" viewBox="0 0 14 14" version="1.1" xmlns="http://www.w3.org/2000/svg" xmlns:xlink="http://www.w3.org/1999/xlink">
    <!-- Generator: Sketch 52.2 (67145) - http://www.bohemiancoding.com/sketch -->
    <title>icCloseRed</title>
    <desc>Created with Sketch.</desc>
    <defs>
        <path d="M404.252138,1573.00003 L408.887115,1568.36505 C409.313771,1567.93839 409.313771,1567.24665 408.887115,1566.82005 C408.46046,1566.3934 407.768778,1566.3934 407.342123,1566.82005 L402.707084,1571.4551 L398.072045,1566.81999 C397.64539,1566.39334 396.953708,1566.39334 396.527052,1566.81999 C396.100458,1567.24665 396.100458,1567.93839 396.527052,1568.36499 L401.162091,1572.99997 L396.527052,1577.63501 C396.100458,1578.06167 396.100458,1578.75341 396.527052,1579.18001 C396.953708,1579.60666 397.64539,1579.60666 398.072045,1579.18001 L402.707084,1574.54496 L407.342123,1579.18001 C407.768717,1579.60666 408.46046,1579.60666 408.887115,1579.18001 C409.313771,1578.75335 409.313771,1578.06167 408.887115,1577.63501 L404.252138,1573.00003 Z" id="path-1"></path>
    </defs>
    <g id="Page-1" stroke="none" stroke-width="1" fill="none" fill-rule="evenodd">
        <g id="A4-Copy" transform="translate(-396.000000, -1566.000000)">
            <mask id="mask-2" fill="white">
                <use xlink:href="#path-1"></use>
            </mask>
            <use id="icCloseRed" fill="#FF0400" fill-rule="nonzero" transform="translate(402.707107, 1573.000000) rotate(-89.000000) translate(-402.707107, -1573.000000) " xlink:href="#path-1"></use>
        </g>
    </g>
</svg>