<?xml version="1.0" encoding="UTF-8"?>
<svg width="211px" height="35px" viewBox="0 0 211 35" version="1.1" xmlns="http://www.w3.org/2000/svg" xmlns:xlink="http://www.w3.org/1999/xlink">
    <!-- Generator: Sketch 55.2 (78181) - https://sketchapp.com -->
    <title>Everybodysdoingit</title>
    <desc>Created with Sketch.</desc>
    <g id="Page-1" stroke="none" stroke-width="1" fill="none" fill-rule="evenodd">
        <path d="M204.8,4.4 L204.8,1.3 L203.6,1.3 L203.6,0.9 L206.4,0.9 L206.4,1.3 L205.2,1.3 L205.2,4.4 L204.8,4.4 Z M207.1,4.4 L207.1,0.9 L207.8,0.9 L208.6,3.4 C208.7,3.6 208.7,3.8 208.8,3.9 C208.8,3.8 208.9,3.6 209,3.3 L209.9,0.8 L210.5,0.8 L210.5,4.4 L210,4.4 L210,1.4 L209,4.4 L208.6,4.4 L207.6,1.4 L207.6,4.4 L207.1,4.4 Z M139,21 C139,21 139.1,21 139.8,21 L139.8,21.1 C139.8,21.1 139.7,21.1 139.7,21.1 C139.7,21.1 139.6,21.2 139.5,21.3 C139.3,21.5 139.2,21.5 139.2,21.6 C139.2,21.7 139.3,21.7 139.3,21.7 L139.4,21.8 L139.3,21.8 C138.9,21.9 138.4,22.2 137.9,22.6 C137.7,22.7 137.5,22.7 137.3,22.7 L137,22.9 C136.6,22.9 136,22.9 135.4,22.8 L135.1,22.6 C135,22.6 135,22.5 134.9,22.5 C134.8,22.4 134.7,22.4 134.6,22.3 L134.5,22.3 L134.7,22.2 C134.6,22.1 134.6,22.1 134.5,22.1 C134.3,22.1 134,22 133.7,21.8 C133.4,21.6 133.1,21.3 132.8,20.9 C132.3,20.2 132,19.7 131.9,19.2 C131.8,19 131.8,18.9 131.8,18.7 C131.7,18.6 131.7,18.6 131.7,18.5 C131.7,18.5 131.6,18.4 131.6,18.4 C131.5,17.8 131.4,16.8 131.4,15.3 C131.4,15.3 131.3,15.3 131.3,15.3 C131.2,15.3 131.1,15.4 131,15.4 L131.1,15.4 L131.2,15.4 L131.3,15.5 C131.2,15.6 131,15.8 130.9,16 C130.8,16.2 130.6,16.5 130.4,16.9 C130.2,17.4 129.7,17.8 129.2,18.1 L129.4,18.3 C129,18.8 128.5,19.4 128,20 C127.7,20.3 127.4,20.6 127.2,20.8 C126.9,21.1 126.8,21.2 126.6,21.3 C126.5,21.4 126.4,21.4 126.3,21.4 C126.2,21.4 126.1,21.4 126.1,21.4 C126.1,21.4 126,21.3 126,21.3 C126,21.3 125.9,21.3 125.9,21.3 C125.7,21.3 125.5,21.3 125.3,21.2 C125.2,21.1 125,21 124.9,20.9 C124.6,20.6 124.5,20.3 124.5,20 C124.5,19.8 124.5,19.5 124.7,19.2 C124.9,18.9 125.1,18.5 125.4,18 C125.9,17.2 126.3,16.5 126.8,16 C127.4,15.2 128.1,14.4 128.8,13.6 C129.5,12.8 130.5,12.2 131.6,11.7 C132.8,9.1 133.4,7.7 133.6,7.3 C134,6.2 134.6,5.4 135.4,4.8 L135.5,4.8 L135.6,4.8 C135.7,4.9 135.8,5 136,5.2 L135.9,5.3 L135.7,5.2 L135.7,5.7 C135.7,5.8 135.7,5.8 135.7,5.9 C135.7,6.2 135.7,6.6 135.6,7 C135.6,7.1 135.5,7.2 135.3,7.4 L135.5,7.5 L135.5,7.6 C135.4,7.7 135.4,7.8 135.3,7.9 C135.2,8 135.1,8.2 135,8.4 C134.7,8.8 134.5,9.4 134.1,10.2 C133.9,10.6 133.8,10.9 133.7,11.1 C133.6,11.3 133.5,11.4 133.5,11.5 C133.4,11.5 133.4,11.6 133.4,11.8 C133.4,12 133.4,12.2 133.4,12.4 C133.4,12.7 133.3,12.9 133.2,13.1 C133.2,13.3 133.3,13.4 133.3,13.7 C133,14.1 132.9,14.4 132.8,14.5 C132.8,14.6 132.8,14.6 132.8,14.6 C132.8,14.7 132.8,14.7 132.9,14.8 C132.8,14.9 132.7,15 132.7,15.2 C132.7,15.3 132.7,15.4 132.7,15.5 C132.7,15.6 132.7,15.7 132.7,15.8 C132.7,15.9 132.7,15.9 132.6,16 C132.5,16.1 132.5,16.1 132.5,16.2 C132.5,16.2 132.5,16.3 132.6,16.4 C132.7,16.5 132.7,16.6 132.7,16.7 C132.7,16.8 132.7,16.9 132.6,17 C132.5,17.1 132.5,17.2 132.5,17.3 C132.5,18.1 132.9,19 133.6,19.9 C134,20.4 134.4,20.8 134.8,21.1 C135.2,21.4 135.7,21.5 136.1,21.5 L136.5,21.5 C137.1,21.5 137.6,21.4 138.1,21.2 C138.5,21.1 138.7,21 138.9,21 C138.9,21 139,21 139,21 Z M128.7,16.6 C129.2,16.1 129.5,15.6 130,15 C129.5,15.4 129,15.9 128.3,16.6 L128.4,16.7 L128.3,16.7 C128.1,16.8 128,16.8 127.8,16.9 C127.6,17.1 127.5,17.4 127.3,17.7 C127.1,18.1 126.9,18.3 126.6,18.4 C126.6,18.6 126.7,18.8 126.7,19 C126.9,18.8 127.2,18.4 127.7,17.8 C128.1,17.3 128.5,17 128.8,16.7 C128.7,16.7 128.7,16.7 128.7,16.6 Z M143.1,11.4 C143.6,11.8 144,12.5 144.2,13.6 C144.4,14.3 144.5,15 144.5,15.5 C144.5,15.7 144.5,15.8 144.5,16 C144.5,16.2 144.5,16.3 144.4,16.4 C144.3,16.5 144.3,16.6 144.2,16.6 C144.1,16.8 144.1,16.9 144.1,17 C143.9,18.6 143,20 141.4,21.2 C141.3,21.2 141.2,21.1 141,21.1 C140.8,21.1 140.5,21.1 140.2,21 C139.7,20.9 139.4,20.6 139.2,20.2 C139.2,20.1 139.2,20.1 139.2,20 C139.2,19.9 139.2,19.8 139.2,19.7 C139.1,19.4 139.1,19.1 139.1,18.6 C139.1,18.2 139.1,17.8 139.1,17.5 C139.1,17.2 139.1,17 139.1,16.9 C139.2,16 139.7,14.9 140.4,13.6 C141,12.5 141.7,11.8 142.3,11.5 C142.5,11.4 142.7,11.4 142.9,11.4 C143,11.4 143,11.4 143.1,11.4 Z M141.1,19.4 L141.3,19.3 L141.1,19.2 C141.1,19.3 141.1,19.4 141.1,19.4 Z M143,15.5 C143,15.3 143,15.1 143,14.9 C143,14.6 143,14.3 142.9,14 C142.8,13.9 142.7,13.7 142.5,13.5 C142.1,14.4 141.7,15 141.2,15.3 L141,16.8 C141,16.9 141,17.1 141,17.4 C141,17.6 141,17.8 141,18.1 C141.1,18.4 141.1,18.7 141.1,18.9 C141.1,19 141.1,19 141.1,19.1 C141.1,19.1 141.2,19.1 141.2,19.1 C141.7,18.8 142,18.2 142.3,17.5 C142.3,17.2 142.5,16.6 142.8,15.6 L143,15.5 Z M153.7,7.3 C153.6,7.3 153.6,7.3 153.5,7.3 C153.4,7.3 153.3,7.3 153.3,7.3 C153.2,7.3 153.2,7.2 153.2,7.2 C153.2,7.2 153.1,7.2 153.1,7.2 C153,7.2 153,7.2 153,7.2 C153,7.2 153,7.2 152.9,7.2 C152.8,7.2 152.6,7.2 152.4,7.2 C152.4,7.2 152.3,7.2 152.3,7.2 C152.2,7.3 152.2,7.3 152.1,7.3 C151.9,7.4 151.8,7.4 151.7,7.4 C151.6,7.4 151.6,7.4 151.5,7.4 C151.4,7.4 151.3,7.5 151.2,7.5 C150.9,7.6 150.6,7.7 150.2,7.8 C149.6,8 149.2,8.1 149,8.2 C149,8.3 148.9,8.3 148.9,8.3 C148.6,8.6 148.3,8.8 148.1,9.1 C148.1,9.2 148.2,9.3 148.2,9.3 L148.3,9.3 L148.3,10.2 L147.9,10 C147.8,10.1 147.7,10.1 147.6,10.1 C147.5,10.1 147.2,10 146.9,9.9 C146.6,9.8 146.2,9.6 145.7,9.4 L145.6,9.4 L145.7,9.3 C145.8,9.2 145.9,9.1 145.9,9 C146,8.7 146.3,8.4 146.7,8.1 C147.2,7.8 147.7,7.5 148.5,7.2 C149.9,6.7 151.1,6.4 152,6.4 C152.1,6.4 152.2,6.5 152.3,6.5 C152.5,6.5 152.6,6.5 152.6,6.5 C152.7,6.5 152.8,6.5 153,6.4 C153.1,6.3 153.3,6.3 153.4,6.3 C153.9,6.3 154.6,6.5 155.6,6.8 C155.5,6.8 155.5,6.9 155.5,6.9 C155.5,7 155.4,7.1 155.3,7.2 L155.2,7.2 C155.1,7.2 155,7.2 154.8,7.2 C154.7,7.2 154.7,7.2 154.6,7.2 C154.2,7.2 154,7.2 153.9,7.2 C153.8,7.2 153.8,7.2 153.8,7.2 L153.8,7.3 C153.8,7.3 153.8,7.3 153.7,7.3 Z M151.3,17.3 C151.4,17.4 151.4,17.4 151.3,17.3 C151.3,17.4 151.3,17.4 151.1,17.4 C151.1,17.4 151.1,17.5 151,17.6 C150.9,17.8 150.7,18 150.5,18.3 C150,18.9 149.8,19.2 149.6,19.4 C149.6,19.4 149.5,19.5 149.5,19.5 C149.5,19.6 149.3,19.7 149.2,19.8 C148.9,20.1 148.5,20.5 147.9,21 L147.8,21 C147.5,20.8 147.2,20.6 146.7,20.3 L146.7,13.3 C146.7,13 146.9,12.8 147.1,12.7 C147.3,12.6 147.7,12.5 148.1,12.5 C148.2,12.5 148.3,12.6 148.3,12.6 C148.3,12.6 148.4,12.6 148.4,12.7 C148.5,12.8 148.5,13 148.5,13.2 C148.5,13.5 148.4,13.8 148.3,14.3 C148.2,14.7 148.2,15.1 148.2,15.3 C148.2,16.1 148.2,16.7 148.3,17.2 C148.4,17.7 148.5,18.1 148.6,18.3 C148.7,18.5 148.7,18.6 148.8,18.6 C149.1,18.5 149.5,18.2 149.9,17.8 C150.3,17.3 150.7,17.1 151.1,16.9 L151.2,16.9 L151.2,17 C151.2,17.1 151.3,17.2 151.3,17.3 Z M158.4,16.3 C158.3,16.4 158.2,16.7 158.1,17.2 C157.8,17.6 157.4,18.2 156.9,19 C156.5,19.6 156.1,20.1 155.8,20.5 C155.5,20.9 155.2,21.1 154.9,21.2 L154.8,21.1 C154.8,21 154.8,21 154.8,21 C154.8,21 154.7,21 154.6,21 L154.5,21.1 C154.4,21 154.2,21 153.9,21 L153.8,21 L153.8,20.9 C153.8,20.8 153.7,20.7 153.7,20.6 C153.6,20.5 153.6,20.4 153.6,20.3 C153.6,19.8 153.8,19.1 154,18.1 C154.3,17.1 154.4,16.3 154.4,15.9 C154.4,15.6 154.3,15 154.2,14.2 C154.2,14.1 154.2,14 154.1,13.8 C154,13.6 154,13.5 154,13.4 C154,13.4 154.1,13.3 154.1,13.2 C154.1,13.1 154.2,13 154.3,12.9 L154.4,12.9 C154.6,13 155,13 155.5,13.1 L155.6,13.1 C155.9,14.9 156.1,16.2 156.1,17 C156.1,17.1 156.1,17.2 156,17.3 C156.1,17.4 156.1,17.4 156.2,17.4 C156.2,17.3 156.2,17.2 156.3,17.1 C156.4,16.9 156.4,16.8 156.4,16.8 C156.4,16.7 156.4,16.7 156.4,16.7 C156.4,16.6 156.5,16.6 156.5,16.5 C156.6,16.4 156.7,16.2 156.9,16 C157.3,15.5 157.5,15.3 157.6,15.2 C158.4,14.1 159,13.3 159.6,13 C159.8,12.9 160,12.8 160.2,12.8 C160.2,12.8 160.3,12.8 160.3,12.8 C160.3,12.8 160.4,12.9 160.4,12.9 C160.4,13 160.5,13.1 160.6,13.3 C160.7,13.5 160.8,13.6 160.8,13.7 C160.9,13.8 160.9,13.8 160.9,13.9 C160.9,14.2 160.8,14.7 160.6,15.4 C160.6,15.8 160.5,16.1 160.4,16.3 C160.3,16.5 160.3,16.7 160.2,16.8 L160.2,19.2 C160.2,19.2 160.2,19.2 160.2,19.3 C160.2,19.4 160.2,19.5 160.3,19.6 C160.4,19.8 160.5,19.9 160.5,20 L160.8,20 C160.8,20 160.9,20 160.9,20 C161,20 161,19.9 161.1,19.9 C161.2,19.8 161.4,19.7 161.6,19.6 C162,19.3 162.6,18.9 163.4,18.3 C164.6,17.3 165.4,16.6 165.9,16.2 L166,16.1 L166.1,16.2 C166.1,16.2 166.2,16.3 166.2,16.3 C166.3,16.3 166.3,16.4 166.3,16.5 C166.3,16.8 166.2,17.1 165.8,17.5 C165.4,17.9 164.9,18.4 164.2,19 C162.9,20.2 161.9,20.9 161.2,21.2 L160.4,21.2 C159.5,20.9 158.9,20.6 158.7,20.1 C158.5,19.6 158.4,19.1 158.2,18.6 C158.3,17.9 158.4,17.3 158.4,16.6 C158.4,16.5 158.4,16.4 158.4,16.3 Z M175.4,10.4 C175.4,10.5 175.5,10.6 174.8,11 L174.7,11 C174.7,11 174.6,11.1 174.5,11.2 C174.4,11.3 174.3,11.5 174.2,11.7 C174,12.1 173.8,12.7 173.6,13.4 C173.2,14.7 173,15.6 172.8,16.1 C172.8,16.2 172.7,16.3 172.7,16.4 C172.7,16.5 172.7,16.6 172.6,16.8 C172.5,17 172.5,17.1 172.5,17.2 C172.5,17.3 172.6,17.4 172.6,17.6 C172.7,17.8 172.7,17.9 172.7,18 C172.7,18.1 172.7,18.3 172.6,18.5 C172.5,18.7 172.5,18.9 172.5,19 L172.5,19.2 C172.5,19.3 172.5,19.4 172.5,19.4 C172.5,19.5 172.5,19.6 172.4,19.7 C172.3,19.8 172.3,19.9 172.3,20 C172.3,20.1 172.3,20.4 172.3,20.9 C172.3,21.1 172.3,21.2 172.3,21.4 C172.3,21.5 172.3,21.7 172.3,21.8 C172.3,21.8 172.3,21.9 172.3,21.9 C172.3,22 172.3,22 172.3,22.1 C172.3,22.3 172.3,22.5 172.3,22.7 C172.3,23 172.2,23.3 172.1,23.4 C172.2,23.4 172.2,23.5 172.2,23.5 C172.2,23.6 172.2,23.6 172.2,23.7 C172.2,23.9 172.2,24.2 172.1,24.6 C172,25 172,25.3 172,25.5 C172,25.6 172.1,25.7 172.1,25.8 C172,26.3 171.9,26.8 171.8,27.1 C171.7,27.4 171.6,27.7 171.5,27.8 L171.6,27.9 C171.5,28.1 171.4,28.4 171.3,28.6 C171.2,28.8 171.1,29 171,29.1 C170.9,29.1 170.9,29.1 170.9,29.1 C170.9,29.2 170.9,29.4 170.8,29.7 C170.7,30 170.6,30.4 170.4,30.8 C170.1,31.4 169.9,31.8 169.7,32 C169.6,32.1 169.6,32.2 169.5,32.2 C169.5,32.2 169.4,32.2 169.4,32.2 C169.4,32.2 169.3,32.2 169.3,32.2 C169.1,32.5 169,32.7 168.8,32.9 C168.7,32.9 168.6,32.9 168.6,32.9 C168.6,32.9 168.5,32.9 168.5,33 C168.4,33.1 168.3,33.3 168.3,33.5 C168.2,33.7 168,33.8 167.7,34 L167.6,34.1 L167.6,34 C167.5,34.1 167.4,34.2 167.2,34.3 C167,34.4 166.8,34.5 166.6,34.5 L166.4,34.4 C166.2,34.4 166,34.6 165.8,34.7 C165.7,34.7 165.6,34.7 165.4,34.7 C165.3,34.7 165.2,34.7 165,34.7 C164.8,34.7 164.7,34.7 164.6,34.7 C164.6,34.7 164.5,34.7 164.5,34.7 C164.4,34.7 164.4,34.7 164.4,34.7 L164.4,34.6 C164.4,34.6 164.3,34.6 164.3,34.6 L164.1,34.7 L164,34.6 C163.9,34.5 163.9,34.5 163.8,34.5 L163.6,34.3 C163.6,34.4 163.6,34.4 163.6,34.4 C163.6,34.4 163.5,34.5 163.5,34.5 C163.4,34.5 163.4,34.5 163.3,34.5 C163.1,34.5 163,34.5 162.9,34.4 C162.8,34.4 162.7,34.3 162.7,34.2 C162.7,34.2 162.6,34.2 162.5,34.2 C161.8,34.2 161,33.9 160.2,33.5 C159.5,33.2 158.9,32.7 158.4,32.2 C158.4,32.1 158.2,31.9 158.1,31.7 C158,31.5 157.8,31.2 157.6,30.8 C157.4,30.6 157.2,30.3 157,29.9 C156.7,29.3 156.6,28.7 156.6,28.3 C156.6,28.2 156.7,28.2 156.7,28.1 C156.8,28 156.8,28 156.8,28 C156.8,27.9 156.9,27.8 156.9,27.6 C157.1,26.9 157.4,26.3 157.8,25.8 C158,25.5 158.4,25.3 158.9,25 C159.3,24.8 159.8,24.6 160.2,24.4 L160.3,24.4 L160.5,24.7 L160.4,24.7 C159.9,25 159.5,25.4 159.1,25.9 C158.8,26.4 158.6,26.7 158.4,26.9 C158.4,26.9 158.3,27 158.3,27 L158.3,28.9 L158.6,29 C159.2,30.2 159.7,31.1 160.1,31.6 C160.2,31.7 160.3,31.8 160.5,31.9 C160.7,32 161,32.2 161.3,32.4 C161.8,32.7 162.1,32.9 162.3,33 C162.3,33 162.4,33 162.4,33 C162.6,33 163,33.1 163.5,33.3 C164,33.4 164.4,33.5 164.6,33.5 C164.8,33.5 164.9,33.5 165.2,33.5 C165.5,33.5 165.7,33.5 165.8,33.5 C166.4,33.5 167.1,33.2 168,32.6 C168.7,32.1 169.2,31.6 169.7,31.1 C169.7,31 169.7,30.9 169.8,30.7 C169.9,30.5 170,30.3 170.2,30.1 C170.5,29.5 170.7,29.2 170.8,29 C170.9,28.7 171,28.3 171.2,27.7 C171.4,26.2 171.6,25.2 171.8,24.7 C171.8,24.6 171.9,24.5 171.9,24.4 L171.7,24.3 C171.8,23.3 171.9,22.2 172,21.1 C172.1,21.1 172.1,21.1 172.2,21 L172.2,16.6 C172.2,16.6 172.1,16.6 172.1,16.6 C172,16.6 172,16.7 172,16.7 C171.7,17.4 171.3,18 170.6,18.7 L170.7,18.7 L170.7,18.8 C170.6,19 170.3,19.4 169.8,19.8 C169.4,20.2 168.8,20.7 168,21.4 L167.4,21.4 C167.3,21.4 167.3,21.4 167.3,21.4 C167.2,21.4 167.2,21.4 167.2,21.4 C167.2,21.3 167.2,21.3 167.2,21.3 L167.2,21.2 C167.1,21.2 167.1,21.2 167.1,21.2 C167.1,21.2 167,21.3 167,21.3 C167,21.3 166.9,21.3 166.9,21.3 C166.9,21.3 166.8,21.3 166.8,21.3 C166.8,21.3 166.8,21.2 166.7,21.2 C166.6,21.1 166.5,21 166.3,20.8 C166.1,20.5 166,20.3 165.9,20.2 C165.9,20.2 165.9,20.1 165.9,20.1 C165.9,20.1 166,20 166,19.9 C166.1,19.8 166.1,19.7 166.1,19.7 C166.3,18.6 167.1,17.3 168.6,15.8 C169.9,14.5 171.3,13.5 172.8,12.7 C173.3,11.3 174,10.4 175,9.9 C175.2,10 175.2,10 175.3,10.1 C175.4,10.2 175.4,10.2 175.4,10.3 L175.4,10.4 Z M172.5,15.1 C172.6,15 172.6,15 172.5,15.1 C172.6,15 172.5,14.9 172.4,14.8 C172.3,14.7 172.3,14.7 172.3,14.6 C172,14.7 171.6,15 171.1,15.3 C170.9,15.5 170.6,15.9 170.1,16.3 C170,16.4 169.8,16.6 169.6,16.8 C169.4,17 169.2,17.2 169.1,17.3 C168.8,17.6 168.5,17.9 168.2,18.4 C167.9,18.9 167.7,19.3 167.5,19.5 L167.5,19.8 C167.6,19.9 167.8,19.9 168,20 C168.6,19.6 169.4,18.9 170.3,18 C170.5,17.8 170.9,17.3 171.5,16.5 C171.8,16.2 172,15.8 172.2,15.6 C172.4,15.3 172.5,15.2 172.5,15.1 Z M191.4,6.8 C191.3,6.8 191.3,6.8 191.4,6.8 C191.3,6.9 191.2,6.9 191.2,6.8 C191.1,6.8 190.9,6.8 190.7,6.8 C190.7,6.8 190.6,6.8 190.6,6.8 C190.5,6.9 190.5,6.9 190.4,6.9 C190.2,7 190.1,7 190,7 C189.9,7 189.9,7 189.8,7 C189.7,7 189.6,7.1 189.5,7.1 C189.2,7.2 188.9,7.3 188.5,7.4 C187.9,7.6 187.5,7.7 187.3,7.8 C187.3,7.9 187.2,7.9 187.2,7.9 C186.9,8.2 186.6,8.4 186.4,8.7 C186.4,8.8 186.5,8.9 186.5,8.9 L186.6,8.9 L186.6,9.8 L186.2,9.6 C186.1,9.7 186,9.7 185.9,9.7 C185.8,9.7 185.5,9.6 185.2,9.5 C184.9,9.4 184.5,9.2 184,9 L183.9,9 L184,8.9 C184.1,8.8 184.2,8.7 184.2,8.6 C184.3,8.3 184.6,8 185,7.7 C185.5,7.4 186,7.1 186.8,6.8 C188.2,6.3 189.3,6 190.3,6 C190.4,6 190.5,6.1 190.6,6.1 C190.8,6.1 190.9,6.1 190.9,6.1 C191,6.1 191.1,6.1 191.3,6 C191.4,5.9 191.6,5.9 191.7,5.9 C192.2,5.9 192.9,6.1 193.9,6.4 C193.8,6.4 193.8,6.5 193.8,6.5 C193.8,6.6 193.7,6.7 193.6,6.8 L193.5,6.8 C193.4,6.8 193.3,6.8 193.1,6.8 C193,6.8 193,6.8 192.9,6.8 C192.5,6.8 192.3,6.8 192.2,6.8 C192.1,6.8 192.1,6.8 192.1,6.8 L192.1,6.9 C192,6.9 192,6.9 192,6.9 C192,6.9 191.9,6.9 191.9,6.9 C191.8,6.9 191.7,6.9 191.7,6.9 C191.7,6.9 191.6,6.8 191.6,6.8 C191.5,6.8 191.5,6.8 191.4,6.8 Z M189.5,17 C189.6,17 189.6,17 189.5,17 C189.6,17 189.5,17.1 189.3,17.1 C189.3,17.1 189.3,17.2 189.2,17.3 C189.1,17.5 188.9,17.7 188.7,18 C188.2,18.6 188,18.9 187.8,19.1 C187.8,19.1 187.7,19.2 187.7,19.2 C187.7,19.3 187.5,19.4 187.4,19.5 C187.1,19.8 186.7,20.2 186.1,20.7 L186,20.7 C185.7,20.5 185.4,20.3 184.9,20 L184.9,13 C184.9,12.7 185.1,12.5 185.3,12.4 C185.5,12.3 185.9,12.2 186.3,12.2 C186.4,12.2 186.5,12.3 186.5,12.3 C186.5,12.3 186.6,12.3 186.6,12.4 C186.7,12.5 186.7,12.7 186.7,12.9 C186.7,13.2 186.6,13.5 186.5,14 C186.4,14.4 186.4,14.8 186.4,15 C186.4,15.8 186.4,16.4 186.5,16.9 C186.6,17.4 186.7,17.8 186.8,18 C186.9,18.2 186.9,18.3 187,18.3 C187.3,18.2 187.7,17.9 188.1,17.5 C188.5,17 188.9,16.8 189.3,16.6 L189.4,16.6 L189.4,16.7 C189.4,16.8 189.5,16.9 189.5,17 C189.5,16.9 189.5,17 189.5,17 Z M203.2,12.3 L203.2,12.6 L203.7,12.6 L203.7,13.1 C203.3,13.4 202.6,13.8 201.5,14.3 C201,14.6 200.5,14.8 200.1,14.9 C199.7,15 199.4,15.1 199.2,15.1 C198.9,15.1 198.7,15.2 198.6,15.3 C198.6,15.4 198.5,15.5 198.4,15.5 C198.4,15.6 198.3,15.6 198.2,15.6 C198,15.6 197.7,15.7 197.2,15.8 C196.9,15.9 196.7,15.9 196.6,16 C196.4,16 196.3,16.1 196.3,16.1 C196.3,16.3 196.2,16.5 196.2,16.6 C196.2,16.8 196.2,16.9 196.2,16.9 C196.2,17.1 196.3,17.5 196.4,18 C196.5,18.5 196.7,19.2 196.9,20 C197,20 197,20.1 197.1,20.2 C197.1,20.3 197.2,20.4 197.2,20.5 C197.2,20.6 197.1,20.7 197,20.8 C196.9,20.8 196.8,20.9 196.8,20.9 C196.7,21 196.7,21 196.7,21 L196.7,21.1 L196.6,21 C196.4,20.9 196.2,20.8 196,20.8 C196,20.8 195.9,20.8 195.9,20.8 C195.8,20.8 195.7,20.8 195.7,20.8 C195.6,20.8 195.6,20.8 195.6,20.8 C195.6,20.8 195.5,20.8 195.5,20.7 C195.5,20.6 195.4,20.4 195.3,20.2 C195.1,19.7 194.9,18.8 194.5,17.7 C194.4,17.3 194.1,16.8 193.8,16.2 C193.8,16.1 193.7,16.1 193.7,16.1 C193.6,16 193.5,16 193.4,15.9 C193.1,15.8 192.8,15.6 192.4,15.3 C191.9,15 191.6,14.7 191.4,14.6 C191.4,14.6 191.3,14.5 191.3,14.5 C191.3,14.4 191.3,14.4 191.3,14.4 C191.3,14.2 191.4,14 191.6,13.9 C191.7,13.8 192,13.7 192.2,13.7 C192.6,13.7 193,13.8 193.4,14.1 C193.8,14.3 194.1,14.4 194.3,14.4 C194.3,14.4 194.4,14.4 194.4,14.4 L194.6,14.6 L194.7,14.5 C194.8,13.2 194.9,11.9 195,10.5 C195.2,8.9 195.4,7.6 195.7,6.4 C195.8,6.1 195.8,5.7 195.9,5.4 C195.9,5.2 196,5 196.2,4.9 C196.4,4.8 196.6,4.7 196.8,4.7 C196.9,4.7 197,4.8 197.1,4.8 C197.2,4.9 197.3,4.9 197.4,5 C197.6,5.2 197.7,5.4 197.7,5.5 C197.7,5.6 197.7,5.9 197.5,6.3 C197.4,6.6 197.3,6.9 197.3,7.1 C197.3,7.2 197.2,7.4 197.1,7.7 C197,8 196.9,8.2 196.9,8.3 C196.8,8.8 196.6,10.4 196.5,13 L196.5,13.1 L196.4,13.1 C196.4,13.1 196.4,13.1 196.4,13.2 C196.4,13.2 196.4,13.2 196.4,13.3 C196.4,13.4 196.4,13.5 196.4,13.5 C196.4,13.5 196.4,13.6 196.4,13.6 C196.4,13.8 196.4,14 196.5,14.3 C196.7,14.3 196.9,14.2 197.1,14.2 C197.2,14.2 197.3,14.2 197.3,14.2 C197.3,14.2 197.4,14.3 197.4,14.3 C197.5,14.3 197.5,14.3 197.5,14.3 C197.5,14.3 197.6,14.3 197.6,14.3 C197.6,14.3 197.7,14.3 197.7,14.3 C197.8,14.3 197.9,14.2 198,14.2 C198.3,14.1 198.6,14 199.1,13.8 C200,13.5 201.4,13 203.2,12.3 Z M18.4,15.6 C18.5,15.5 18.6,15.5 18.8,15.3 L18.9,15.3 L18.8,15.4 C17.7,16.6 17.1,17.3 16.9,17.5 C16.8,17.6 16.8,17.6 16.8,17.6 C16.8,17.6 16.7,17.6 16.7,17.6 C16.7,17.6 16.6,17.6 16.6,17.6 C16.4,17.9 16,18.2 15.6,18.5 C15.1,18.9 14.3,19.3 13.4,19.8 C11.6,20.4 10.5,20.8 9.8,20.9 C9.6,21 9.4,21 9.3,21 L9.4,21.1 C9.4,21.2 9.3,21.2 9.3,21.2 C9.3,21.2 9.2,21.2 9.2,21.2 C9.2,21.2 9.1,21.2 9.1,21.2 C9.1,21.2 9,21.2 9,21.2 C9,21.2 9,21.1 9,21.1 C8.9,21.1 8.9,21.1 8.8,21.2 C8.7,21.3 8.6,21.3 8.5,21.3 C8.4,21.3 8.3,21.3 8.1,21.3 C7.9,21.3 7.8,21.3 7.7,21.3 C7.6,21.3 7.6,21.3 7.5,21.3 C7.4,21.3 7.3,21.2 7.2,21.2 C7,21.1 6.7,21 6.4,20.9 C5.9,20.7 5.6,20.6 5.4,20.5 C5.2,20.4 5,20.3 5,20.3 C5,20.2 5,20.2 5.1,20.1 C4.7,19.6 4.3,19.1 4,18.6 L4,18.2 C3.8,17.7 3.6,17.3 3.5,17 C3.4,16.6 3.3,16.4 3.3,16.2 C3.3,16.1 3.4,16 3.5,15.8 C3.7,15.6 3.7,15.4 3.7,15.3 C3.7,15.2 3.6,15.1 3.6,14.9 C3.5,14.7 3.5,14.6 3.5,14.5 C3.5,14.3 3.5,14.1 3.6,13.9 C3.7,13.7 3.7,13.5 3.7,13.4 C3.7,13.3 3.6,13.2 3.6,13.1 C3.5,13 3.5,12.9 3.5,12.8 C3.5,12.8 3.4,12.8 3.4,12.8 C3.3,12.8 3.2,12.8 3.2,12.8 C3.1,12.8 3.1,12.8 3.1,12.8 L2.9,13 C2.9,13.1 2.9,13.1 2.9,13.1 C2.9,13.1 2.8,13.1 2.8,13.1 C2.8,13.1 2.7,13.1 2.6,13.1 C2.5,13.1 2.3,13.1 2.2,13.2 C2.1,13.3 2,13.4 2,13.5 L2,13.6 L1.8,13.6 C1.5,13.6 1.3,13.6 1,13.6 C0.9,13.7 0.8,13.7 0.7,13.7 C0.7,13.7 0.6,13.7 0.6,13.7 C0.5,13.7 0.5,13.6 0.4,13.6 C0.3,13.5 0.2,13.4 0.1,13.2 C0.3,12.8 0.9,12.4 1.9,12 C2.6,11.7 3.3,11.4 4,11.1 C4.1,10.9 4.2,10.6 4.4,10.1 C4.6,9.8 4.7,9.4 4.7,9.2 C4.7,9.2 4.7,9.1 4.7,9.1 C4.8,9 4.9,8.6 5.1,8.1 C5.3,7.7 5.4,7.3 5.6,7.1 C5.5,7.1 5.5,7 5.4,7 C5.3,6.9 5.2,6.9 5.1,6.9 C5.1,6.9 5,7 5,7 C4.9,7 4.9,7.1 4.8,7.2 C4.7,7.3 4.7,7.4 4.6,7.4 C4.6,7.5 4.5,7.5 4.4,7.5 C4.3,7.5 4.2,7.5 4.1,7.6 C3.9,7.7 3.8,7.7 3.7,7.7 C3.6,7.7 3.6,7.7 3.5,7.7 C3.4,7.7 3.4,7.7 3.3,7.6 C3.2,7.6 3.1,7.5 3.1,7.5 C3.1,7.5 3,7.5 3,7.5 L2.9,7.5 C2.8,7.4 2.8,7.3 2.8,7.2 C2.8,7 3,6.8 3.2,6.6 C3.5,6.4 3.8,6.2 4.3,6 C4.9,5.8 5.3,5.6 5.6,5.4 C5.9,5.3 6.1,5.1 6.2,5 C6.3,5 6.4,5 6.5,5 C6.6,5 6.7,5 6.8,5 C6.8,5 6.8,5 6.9,5 C7,4.9 7.1,4.9 7.2,4.9 C7.4,4.9 7.8,4.8 8.3,4.7 C11.7,4.1 13.6,3.7 14.1,3.6 C14.1,3.6 14.2,3.6 14.2,3.6 C14.3,3.6 14.6,3.7 14.9,3.7 C15.2,3.8 15.5,3.8 15.6,3.8 C15.7,3.8 15.7,3.8 15.7,3.8 L15.5,3.6 L15.7,3.6 C15.8,3.6 15.9,3.6 16.2,3.5 C16.4,3.4 16.6,3.4 16.8,3.4 C16.9,3.4 17,3.5 17.1,3.5 C17.2,3.5 17.3,3.5 17.4,3.5 C17.5,3.5 17.8,3.5 18.3,3.5 C18.5,3.5 18.7,3.5 18.8,3.5 C19,3.5 19.1,3.5 19.2,3.5 C19.2,3.5 19.3,3.5 19.3,3.5 C19.3,3.6 19.4,3.6 19.4,3.6 C19.4,3.6 19.5,3.6 19.5,3.6 C19.5,3.6 19.5,3.6 19.6,3.6 C19.8,3.5 20,3.4 20.1,3.4 C20.1,3.4 20.2,3.5 20.3,3.5 C20.4,3.6 20.5,3.6 20.6,3.7 C20.7,3.8 20.8,3.9 20.9,3.9 C21,3.9 21.1,3.9 21.1,3.9 C21.2,3.9 21.2,3.9 21.2,3.9 C21.3,3.9 21.3,3.9 21.3,3.9 C21.4,3.9 21.4,3.9 21.4,3.9 C21.5,3.9 21.6,3.9 21.8,4 C22,4 22.1,4.1 22.1,4.1 L22.1,4.2 C22.1,4.2 22.1,4.3 22,4.3 C21.9,4.4 21.7,4.4 21.6,4.4 C21.5,4.4 21.4,4.3 21.2,4.3 C21,4.2 20.9,4.2 20.8,4.2 C20.6,4.2 20.3,4.1 20,4.1 C19.6,4 19.4,4 19.2,4 C19.1,4 19.1,4 19,4.1 C18.9,4.2 18.8,4.2 18.7,4.2 C18.7,4.2 18.5,4.2 18.4,4.2 C18.3,4.2 18.2,4.2 18.1,4.2 C18,4.2 17.9,4.2 17.9,4.2 L17.8,4.3 C17.8,4.2 17.7,4.2 17.6,4.2 C17.5,4.2 17.4,4.2 17.2,4.2 C17.2,4.2 17,4.2 16.8,4.2 C16.6,4.2 16.3,4.2 16,4.3 C15.7,4.3 15.4,4.4 15.2,4.4 C15,4.4 14.8,4.4 14.7,4.4 C14.7,4.4 14.6,4.4 14.6,4.4 C14.6,4.4 14.6,4.4 14.5,4.4 C14.4,4.4 14.3,4.4 14.3,4.4 C14.1,4.4 13.9,4.4 13.8,4.5 C13.7,4.6 13.6,4.7 13.5,4.8 L13.5,4.9 L13.2,4.7 C13.1,4.8 12.9,4.9 12.8,4.9 L12.5,5.1 C12.5,5.1 12.4,5 12.3,5 C12.2,5 12.2,5 12.1,5 C12,5 12,5 12,5 L12.1,5.1 L12,5.2 L11.9,5.1 C11.9,5.2 11.8,5.2 11.7,5.3 C11.6,5.4 11.5,5.4 11.4,5.4 C11.4,5.4 11.3,5.4 11.3,5.4 C11.3,5.4 11.2,5.4 11.2,5.4 C11.2,5.3 11.2,5.3 11.2,5.3 C11.2,5.3 11.1,5.3 11.1,5.3 L11,5.4 C11,5.4 10.9,5.4 10.9,5.4 C10.7,5.4 10.5,5.5 10.2,5.6 C9.9,5.7 9.7,5.8 9.5,5.8 L9.3,6 L9.1,6 C9.1,6 9,6 9,6 C8.8,6 8.6,6 8.5,6.1 C8.3,6.2 8,6.3 7.7,6.5 C7.6,6.5 7.5,6.6 7.3,6.6 C7.1,6.7 7,6.7 7,6.8 C6.9,6.9 6.7,7.6 6.3,8.7 C5.9,9.7 5.7,10.3 5.7,10.5 L5.7,10.9 C5.7,10.9 5.8,10.9 5.8,10.9 C5.9,10.9 6,10.9 6.2,10.9 C6.3,10.9 6.4,10.9 6.5,10.9 C6.6,10.9 6.7,10.9 6.7,10.9 L6.9,10.7 C7,10.7 7.2,10.7 7.4,10.6 C7.6,10.5 7.8,10.5 7.9,10.5 C8.4,10.5 9.3,10.3 10.5,9.9 L10.7,10.1 C10.7,10 10.7,10 10.8,10 C10.9,10 11,10 11.1,10 L11.4,9.8 L12.2,9.7 C12.3,9.7 12.4,9.8 12.4,9.8 C12.4,9.8 12.4,9.9 12.4,9.9 C12.4,9.9 12.5,9.9 12.5,9.9 C12.6,9.9 12.8,9.9 13.1,9.9 C13.4,9.9 13.6,9.9 13.8,9.9 L13.9,9.9 L13.9,10 C13.9,10.1 13.9,10.2 13.8,10.3 C13.7,10.4 13.6,10.4 13.4,10.4 C13.3,10.4 13.2,10.4 13.1,10.4 C13,10.4 12.9,10.5 12.7,10.5 C12.4,10.5 12.2,10.6 12,10.6 L11.6,10.9 C11.5,10.9 11.2,11 10.6,11.2 C10.2,11.3 9.7,11.4 9.3,11.4 C9.3,11.4 9.2,11.4 9.2,11.4 C9.1,11.4 9.1,11.4 9.1,11.4 C8.9,11.5 8.6,11.7 8.3,11.8 C7.8,12 7.3,12.1 6.6,12.2 L6.3,12.4 C6.2,12.4 6.2,12.4 6.1,12.4 C5.9,12.4 5.8,12.5 5.7,12.5 C5.6,12.5 5.5,12.6 5.4,12.7 C5.2,12.9 5.1,13.3 5,13.7 C4.9,13.9 4.9,14.3 4.9,14.9 C4.9,15.1 4.9,15.3 4.9,15.5 C4.8,15.7 4.8,15.8 4.8,15.9 C4.8,16.7 4.9,17.4 5.1,17.9 C5.2,18.2 5.5,18.7 6,19.2 C6.3,19.5 6.6,19.8 6.8,19.9 C7.1,20 7.2,20.1 7.4,20.1 L7.9,20.1 C8.3,20.1 8.9,20 9.7,19.8 C10.5,19.6 11.6,19.3 12.8,18.9 C13.9,18.5 15,17.9 16.1,17 C16.8,16.4 17.3,16 17.6,15.8 C17.7,15.8 17.7,15.7 17.8,15.7 C17.9,15.7 17.9,15.7 17.9,15.7 C17.9,15.7 17.9,15.7 18,15.7 C18,15.7 18.1,15.7 18.1,15.7 C18.2,15.7 18.3,15.6 18.4,15.6 Z M28.1,14.1 C28.1,14.2 28.1,14.2 28.1,14.1 C28.1,14.3 28.1,14.5 27.9,14.8 C27.9,14.9 27.8,15 27.6,15 C27.6,15 27.5,15 27.3,15 C27.1,15 26.9,15 26.6,15 C26.2,15 26,15.1 25.8,15.2 C25.6,15.3 25.5,15.5 25.5,15.8 L25.5,16.7 L25.4,16.7 C25.4,16.7 25.3,16.7 25.3,16.7 C25.3,16.7 25.2,16.7 25.2,16.8 C25,17.5 24.7,18.5 24.2,19.9 C23.9,20.1 23.6,20.5 23.3,21 L23.2,21 C22.9,20.9 22.5,20.8 22,20.7 C21.6,20.5 21.3,20.4 21.1,20.3 C21,20.3 21,20.2 21,20.2 L20.9,20.3 C20.8,20.2 20.6,20 20.5,19.8 C20.3,19.5 20.2,19.2 20.1,18.8 C19.9,18.2 19.8,17.6 19.8,17.1 C19.8,16.8 19.6,16.2 19.3,15.4 C19.1,15 19,14.6 18.9,14.4 C18.8,14.2 18.8,14 18.8,13.9 C18.8,13.6 19,13.4 19.3,13.2 C19.7,13 20,12.9 20.3,12.9 C20.4,12.9 20.6,12.9 20.7,13 C20.8,13.1 20.9,13.2 21,13.4 C21.2,13.7 21.4,14.2 21.5,14.8 C21.6,15.6 21.7,16.4 21.8,17.2 C21.9,18 22,18.6 22.2,19 C22.3,18.9 22.5,18.8 22.6,18.6 C22.7,18.4 22.9,18.1 23,17.7 C23.2,17.2 23.3,16.7 23.5,16.1 L23.5,16 C23.5,15.8 23.5,15.7 23.6,15.4 C23.7,15.1 23.7,14.9 23.7,14.8 C23.7,14.7 23.7,14.5 23.7,14.2 C23.7,13.9 23.7,13.7 23.7,13.5 L23.7,13.4 L23.8,13.4 C23.8,13.4 23.8,13.4 23.9,13.4 C24,13.4 24,13.3 24.1,13.3 C24.2,13.2 24.4,13.1 24.5,13.1 C24.6,13.1 24.7,13.2 24.8,13.2 C24.9,13.2 25.1,13.2 25.3,13.3 C25.5,13.3 25.7,13.4 25.8,13.4 C26,13.4 26.1,13.4 26.1,13.4 C26.3,13.4 26.6,13.5 26.9,13.6 C27.2,13.7 27.6,13.9 28.1,14.1 Z M37.6,20 C37.4,20.2 37.1,20.3 36.6,20.7 C36,21 35.7,21.2 35.4,21.3 C35.3,21.3 35.3,21.3 35.2,21.3 C35.1,21.3 35.1,21.3 35.1,21.3 L34.9,21.5 L34.8,21.4 L34.8,21.3 C34.8,21.3 34.7,21.3 34.7,21.3 C34.6,21.3 34.6,21.3 34.5,21.4 C34.4,21.5 34.3,21.5 34.2,21.5 C34.2,21.5 34.1,21.5 34.1,21.5 C34,21.5 34,21.5 34,21.5 L33.8,21.6 L33.8,21.5 L33.2,21.5 C31.7,20.8 30.8,20.2 30.3,19.7 C30.1,19.5 29.9,19.3 29.6,19 C29.3,18.7 29.1,18.3 29.1,17.8 C29.1,17.5 29.1,17.2 29.1,17 C29.1,16.8 29.1,16.7 29.1,16.6 C29,16.4 28.9,16.2 28.9,16 C28.9,15.4 29,14.7 29.2,13.9 C29.3,13.3 29.7,12.7 30.4,12 C30.8,11.6 31.1,11.3 31.5,11.1 C31.8,10.9 32.2,10.8 32.5,10.8 C32.7,10.8 32.9,10.9 33.1,11 C33.3,11.1 33.5,11.2 33.7,11.4 C34.1,11.8 34.3,12.2 34.3,12.5 L34.2,12.6 C34.2,13 34.1,13.5 33.9,14.1 C33.9,14.2 33.7,14.4 33.4,14.8 C33.1,15.1 32.7,15.6 32.2,16.2 C32.2,16.2 32.1,16.3 32,16.4 C31.9,16.5 31.7,16.7 31.5,16.9 C31.3,17.1 31.2,17.2 31.1,17.3 C31,17.4 31,17.5 31,17.5 C31,17.6 31.1,17.8 31.2,18 C31.4,18.2 31.5,18.5 31.8,18.8 C32.1,19.3 32.5,19.6 32.7,19.7 C32.8,19.8 32.8,19.8 32.9,19.8 C32.9,19.8 33,19.8 33,19.8 C33,19.9 33.1,19.9 33.1,19.9 C33.2,19.9 33.2,19.9 33.2,19.9 C33.3,19.9 33.3,19.9 33.3,19.9 C33.3,19.9 33.4,19.9 33.4,19.9 C33.6,19.9 33.7,19.9 34,20 C34.3,20.1 34.5,20.1 34.6,20.1 C35.4,20.1 35.9,20 36.2,19.9 C36.2,19.9 36.4,19.8 36.6,19.7 C36.8,19.6 37.1,19.4 37.4,19.2 L37.5,19.2 L38,19.7 C37.9,19.8 37.8,19.9 37.6,20 Z M30.8,16 C31.4,15.6 31.9,15.3 32,15 C32.5,14.6 32.8,14.2 32.9,13.8 L33,13.8 C33,13.8 33.1,13.8 33.1,13.8 C33.1,13.8 33.2,13.7 33.2,13.7 C33.3,13.6 33.3,13.5 33.3,13.3 L33.3,12.4 C33.1,12.4 32.9,12.3 32.8,12.2 C32.1,12.7 31.5,13.2 31.1,13.7 C30.7,14.2 30.5,14.7 30.5,15.1 C30.5,15.4 30.6,15.7 30.8,16 Z M38.2,15.3 C38.2,15.3 38.1,15.3 38.2,15.3 C38.1,15.2 38.1,15.2 38,15 C38,14.8 38,14.6 38.1,14.4 C38.1,14.2 38.2,14.1 38.3,14 C38.3,13.9 38.4,13.7 38.5,13.5 C38.6,13.3 38.8,13 39,12.6 C39.5,11.8 39.8,11.3 39.9,11 C40,11 40,10.9 40.1,10.8 C40.1,10.7 40.2,10.7 40.2,10.7 C40.2,10.7 40.2,10.7 40.3,10.7 C40.4,10.7 40.5,10.7 40.7,10.7 C40.7,10.7 40.8,10.7 40.8,10.7 C40.8,10.7 40.9,10.8 40.9,10.8 C40.9,10.9 41,11 41.1,11.1 C41.2,11.3 41.4,11.8 41.6,12.3 C41.9,13.3 42.1,14 42.1,14.3 C42.1,15.4 41.8,16.6 41.3,18 C41.1,18.4 41,18.8 40.9,19.1 C40.9,19.3 40.8,19.5 40.8,19.6 L40.9,19.5 C40.9,19.4 41,19.4 41,19.4 C41.1,19.4 41.1,19.4 41.2,19.4 C41.2,19.4 41.3,19.4 41.3,19.4 C41.3,19.3 41.4,19.3 41.4,19.3 C41.5,19.3 41.6,19.2 41.8,19.1 C42.1,18.9 42.6,18.6 43.1,18.2 C43.7,17.8 44.1,17.4 44.4,17.2 C44.7,17 44.9,16.8 45,16.7 L45.1,16.7 L45.3,16.7 C45.3,16.7 45.4,16.7 45.4,16.7 L45.5,16.8 L45.4,16.9 L45.7,17.1 C45.6,17.4 45.3,17.7 44.9,18.2 C44.3,18.8 44,19.1 43.9,19.2 C43.8,19.2 43.7,19.3 43.5,19.5 C43.4,19.6 43.3,19.7 43.2,19.7 C43.1,19.8 43.1,19.8 43,19.8 C42.9,19.8 42.9,19.8 42.9,19.8 C42.6,20 42.5,20.1 42.4,20.2 C42.4,20.3 42.4,20.3 42.4,20.3 L42.4,20.4 L42.3,20.4 C42.2,20.4 42.1,20.5 42,20.5 C41.9,20.6 41.8,20.6 41.6,20.7 C41.5,20.8 41.4,20.9 41.3,20.9 C41.2,21 41.1,21 41.1,21 C41.1,21 41,21 41,21 C40.9,21 40.9,20.9 40.8,20.9 C40.7,20.8 40.6,20.8 40.6,20.8 C40.6,20.8 40.6,20.8 40.5,20.8 C40.5,20.8 40.4,20.8 40.4,20.8 C40.3,20.8 40.2,20.8 40.2,20.8 C40.1,20.8 40.1,20.7 40.1,20.7 C40.1,20.7 40,20.7 40,20.7 C39.9,20.7 39.8,20.7 39.7,20.6 C39.6,20.5 39.6,20.4 39.5,20.3 C39.4,20.1 39.3,19.9 39.3,19.7 C39.3,19.5 39.4,19.3 39.5,19 C39.6,18.7 39.8,18.4 40,17.9 C40.4,16.9 40.7,16.3 40.7,16 C40.7,15.8 40.8,15.5 40.9,15.1 C41,14.7 41.1,14.4 41.1,14.3 C41.1,14.2 41.1,14 41,13.8 C41,13.6 40.8,13.3 40.7,13 C40.6,13 40.6,13.1 40.5,13.2 C40.4,13.4 40.3,13.6 40.1,13.9 C39.7,14.5 39.3,14.9 38.8,15.1 C38.6,15.2 38.5,15.3 38.4,15.3 C38.4,15.3 38.3,15.3 38.3,15.3 C38.3,15.3 38.2,15.3 38.2,15.3 Z M55.8,8.2 C55.9,8.3 56,8.4 55,8.7 C55,8.8 55,8.8 55,8.8 C55,9 54.9,9.2 54.7,9.5 C54.6,9.7 54.6,9.8 54.5,9.9 C54.4,10 54.4,10.1 54.4,10.1 L54.5,10.2 C53.6,12 53,13.4 52.8,14.5 C52.8,14.8 52.7,15.3 52.6,15.9 L52.6,16 C52.6,16 52.6,16.1 52.6,16.2 C52.6,16.6 52.6,16.9 52.4,17.1 C52.5,17.5 52.5,17.7 52.5,17.9 L52.5,18.2 C52.3,22.1 51.7,25.2 50.7,27.8 C50.7,27.9 50.6,27.9 50.6,28 L50.7,28.1 C50.6,28.3 50.3,28.6 50.1,29 C49.9,29.4 49.7,29.7 49.5,29.9 C49.4,30 49.4,30 49.4,30 C49.5,30.1 49.5,30.1 49.5,30.1 L49.4,30.2 L49.2,30.1 C49,30.5 48.6,30.8 48.1,31.1 C47.8,31.4 47.5,31.6 47.3,31.7 C47.1,31.8 47,31.9 46.9,32 C46.9,32 46.8,32 46.7,32 C46.6,32 46.4,32 46.3,32.1 C46.1,32.1 46,32.2 45.9,32.2 C45.8,32.2 45.7,32.2 45.6,32.2 L43.8,32.2 C43.8,32.2 43.7,32.2 43.7,32.2 L43.6,32.2 C43.4,32.1 43.2,32 43,32 C42.8,31.9 42.7,31.9 42.6,31.9 C42.5,31.9 42.3,31.9 42.2,31.9 C42.1,31.9 42,31.9 41.9,31.9 C41.8,31.9 41.8,31.9 41.8,31.9 C41.7,31.9 41.7,31.9 41.7,31.9 C41.7,31.8 41.7,31.8 41.7,31.8 C41.4,31.8 41,31.7 40.6,31.5 C40.2,31.3 39.7,31 39.2,30.6 C38.2,29.9 37.6,29.3 37.3,28.8 C37,28.4 36.7,28 36.4,27.4 C36.2,26.9 36.1,26.3 36.1,25.8 C36.1,24.6 36.9,23.3 38.3,21.7 L38.4,21.7 C38.6,21.8 38.7,21.8 38.8,21.8 C38.9,21.8 38.9,21.8 39,21.8 L39.1,21.7 L39.1,21.8 C39,22 38.9,22.4 38.8,22.8 C38.8,23 38.6,23.2 38.4,23.5 C38.1,23.8 38,24.1 37.9,24.2 C37.6,24.8 37.5,25.3 37.5,25.9 C37.5,26 37.5,26 37.5,26 C37.5,26 37.6,26.1 37.6,26.2 C37.7,26.3 37.7,26.5 37.7,26.7 C37.9,27.4 38.1,28 38.5,28.4 C39.2,29.2 40,29.9 40.8,30.3 C41.6,30.7 42.5,30.9 43.3,30.9 C43.5,30.9 43.9,30.9 44.3,30.9 C44.7,30.9 45.1,30.9 45.3,30.9 C45.5,30.9 45.6,30.9 45.9,30.8 C46.2,30.7 46.5,30.6 46.9,30.4 C47.7,30 48.2,29.7 48.4,29.5 C50,28.1 51,25.5 51.4,21.9 C51.4,21.5 51.5,20.9 51.6,20.1 C51.6,20.1 51.6,20 51.6,19.9 C51.6,19.8 51.7,19.7 51.7,19.5 C51.8,19.3 51.8,19 51.8,18.9 L51.8,17.3 C51.6,17.6 51.2,18 50.7,18.7 C50.7,18.7 50.7,18.7 50.7,18.8 C50.7,18.8 50.7,18.9 50.6,19 C50.5,19.2 50.3,19.4 50.1,19.7 C49.9,19.9 49.7,20.1 49.6,20.2 C49.5,20.4 49.4,20.4 49.3,20.5 C49.2,20.6 49.2,20.6 49.1,20.6 C49.1,20.6 49,20.6 49,20.6 C49,20.6 48.9,20.6 48.9,20.6 C48.8,20.6 48.8,20.6 48.8,20.6 L48.1,20.6 C48,20.6 48,20.5 47.9,20.5 C47.8,20.5 47.8,20.5 47.7,20.4 C47.7,20.4 47.6,20.3 47.6,20.3 C47.5,20.3 47.5,20.3 47.5,20.3 C47.3,19.9 47.1,19.5 47.1,19.2 L47.1,15.1 C47,14.9 47,14.8 47,14.6 C47,14.6 47,14.5 47,14.5 C47,14.3 47,14 47.4,13.4 C47.4,13.3 47.6,13.1 47.8,13 C48,12.9 48.3,12.7 48.7,12.6 C48.9,12.7 49.1,12.8 49.2,12.9 C49.3,13 49.4,13.2 49.4,13.3 C49.4,13.3 49.3,13.4 49.3,13.5 C49.2,13.6 49.2,13.8 49.1,13.9 C49,14.1 48.9,14.2 48.9,14.3 C48.8,14.4 48.8,14.5 48.8,14.5 C48.7,14.7 48.6,15 48.6,15.4 C48.6,15.8 48.6,16.1 48.5,16.3 C48.5,16.5 48.5,16.8 48.5,17 C48.5,17.3 48.4,17.6 48.4,17.9 L48.4,18 L48.3,17.9 C48.3,18 48.3,18 48.3,18 C48.3,18.1 48.3,18.1 48.3,18.1 C48.3,18.2 48.4,18.2 48.4,18.2 C48.4,18.2 48.4,18.2 48.4,18.3 C48.4,18.4 48.4,18.6 48.4,18.8 C48.4,18.9 48.4,19 48.5,19.1 C48.6,19.2 48.6,19.2 48.6,19.3 L48.8,19.5 C49,19.5 49.2,19.3 49.4,19 C51.3,16.6 52.4,14.5 52.6,12.7 C52.7,11.7 53,10.8 53.3,10 C53.6,9.3 53.9,8.9 54.2,8.5 C54.5,8.2 54.9,7.9 55.3,7.8 C55.5,8 55.7,8.1 55.8,8.2 Z M65.9,13 C65.9,13.1 66,13.1 65.9,13.5 C65.9,13.8 65.9,14.2 65.8,14.6 C65.7,15.1 65.6,15.5 65.6,15.6 C65.6,15.8 65.5,15.9 65.3,16.1 C65.2,16.3 65.1,16.6 64.9,17.1 C64.7,17.5 64.6,17.9 64.6,18.1 C64.2,18.5 63.7,19.1 63,19.8 C62.9,19.8 62.8,19.9 62.6,20 C62.4,20.1 62.2,20.3 62,20.5 C61.7,20.7 61.5,20.9 61.3,21 C61,21.1 60.8,21.2 60.6,21.2 C60.5,21.2 60.5,21.2 60.4,21.3 C60.3,21.4 60.2,21.4 60.1,21.4 C60.1,21.4 60,21.4 60,21.4 C59.9,21.4 59.8,21.3 59.7,21.3 C59.6,21.2 59.5,21.2 59.3,21.1 C58.9,20.9 58.7,20.8 58.6,20.8 L58,19.7 C58,19.6 58,19.5 58,19.5 C58.1,19.5 58.1,19.4 58.1,19.4 C58.1,19.3 58.1,19.3 58.1,19.3 C58.3,18.4 58.8,17.6 59.7,16.6 C60.1,16.1 60.6,15.7 61.1,15.4 C61.6,15.1 62,14.9 62.5,14.9 L62.7,14.9 L62.6,15 C62.2,15.4 61.6,16 60.9,16.8 C60.8,16.9 60.6,17.2 60.5,17.5 C60.3,17.8 60.2,18.1 60.1,18.2 C60.1,18.3 60.1,18.3 60.1,18.4 C60.1,18.5 60,18.7 59.9,19 C59.9,19.1 59.8,19.2 59.8,19.3 C59.8,19.4 59.8,19.5 59.8,19.5 C59.8,19.6 59.9,19.7 60,19.9 L60.3,19.9 C60.8,19.7 61.3,19.3 61.7,18.8 C62.2,18.2 62.6,17.8 62.9,17.6 C63.1,17.1 63.2,16.8 63.3,16.6 C63.4,16.3 63.5,16.2 63.5,16.2 C63.7,15.7 63.9,15.2 64.2,14.9 L64.2,14.8 C64.3,14.6 64.3,14.3 64.3,13.8 C64.5,13.5 64.6,13.3 64.6,13.1 C64.6,13.1 64.6,13 64.6,13 C64.6,12.9 64.5,12.9 64.5,12.8 C64.5,12.6 64.4,12.5 64.4,12.4 C64.4,12.4 64.4,12.3 64.5,12.2 C64.5,12.2 64.5,12.1 64.4,12.1 C64.3,12 64.2,11.9 64,11.7 C63.9,11.7 63.9,11.7 63.9,11.7 L63.8,11.7 C63.8,11.7 63.7,11.7 63.7,11.7 C63.6,11.8 63.6,11.8 63.6,11.9 L63.6,12 L63.4,12 C63.2,12 63,12 62.9,12 C62.7,12.1 62.5,12.2 62.3,12.4 C61.9,12.8 61.4,13.3 60.9,14.1 C60.4,14.9 59.6,15.7 58.6,16.4 L58.5,16.4 C58.5,16.4 58.4,16.4 58.4,16.4 C58.3,16.4 58.3,16.3 58.2,16.3 C58,16.2 57.8,16.1 57.5,16 L57.5,14.1 C57.5,14 57.6,13.9 57.6,13.8 C57.7,13.7 57.7,13.6 57.7,13.6 L57.7,12.6 C57.7,12.4 57.8,12.2 57.9,11.9 C57.9,11.8 58,11.7 58,11.6 C58,11.6 58,11.5 58,11.5 C58,11.5 58,11.4 58,11.4 C58,11.4 57.9,11.4 57.9,11.3 C57.8,11.2 57.8,11.1 57.8,11 C57.8,10.8 57.9,10.6 57.9,10.3 C58,9.9 58,9.7 58,9.6 C58.1,8.4 58.1,7.6 58.2,7.2 C58.4,6.2 58.8,5.5 59.5,5.1 C59.7,5.1 59.8,5.2 60,5.3 C60,5.4 60,5.4 60.1,5.5 C60.2,5.6 60.3,5.7 60.4,5.8 C60.7,6.1 60.8,6.3 60.8,6.7 C60.8,6.8 60.7,6.9 60.7,6.9 C60.6,6.9 60.6,7 60.5,7 C60.3,7.1 60.2,7.2 60.1,7.3 C60.1,7.3 60.1,7.4 60.1,7.4 C60.1,7.5 60,7.6 60,7.8 C59.9,8 59.9,8.1 59.8,8.2 C59.7,8.2 59.7,8.3 59.6,8.3 L59.8,8.3 L59.8,8.7 C59.7,8.7 59.7,8.8 59.7,8.8 C59.7,8.9 59.7,8.9 59.7,9 C59.7,9.1 59.7,9.3 59.7,9.6 C59.7,9.8 59.6,9.9 59.5,10.1 C59.4,10.3 59.3,10.4 59.3,10.5 C59.3,10.7 59.4,10.9 59.6,11 L59.7,11 L59.6,11 C59.4,11.1 59.3,11.3 59.3,11.4 C59.2,11.5 59.2,11.6 59.2,11.7 C59.2,11.7 59.2,11.8 59.2,11.8 C59.3,12 59.4,12.2 59.4,12.3 C59.4,12.4 59.4,12.5 59.3,12.6 C59.3,12.6 59.2,12.7 59.1,12.7 C59.1,12.7 59.1,12.8 59.1,12.8 C59.2,12.8 59.2,12.9 59.2,13 C59.2,13 59.1,13.1 59.1,13.2 C59.1,13.2 59.1,13.3 59.1,13.3 C59.1,13.3 59.1,13.4 59.1,13.4 C59.1,13.5 59.1,13.5 59.1,13.5 C59.1,13.6 59.1,13.6 59.1,13.7 C59.1,13.7 59.1,13.7 59.1,13.8 C59.1,13.8 59.2,13.9 59.3,13.9 C59.8,13.2 60.4,12.5 61.2,11.9 C61.7,11.4 62.2,11.1 62.6,10.9 C63,10.7 63.4,10.6 63.8,10.6 C64.1,10.6 64.3,10.7 64.5,10.8 C64.7,10.9 65,11.1 65.2,11.3 C65.6,11.7 65.8,12.1 65.8,12.4 C65.8,12.5 65.8,12.5 65.8,12.5 C65.8,12.6 65.8,12.6 65.8,12.7 C65.8,12.7 65.8,12.8 65.8,12.8 C65.8,12.9 65.9,13 65.9,13 Z M72.2,11.1 C72.7,11.5 73.1,12.2 73.3,13.3 C73.5,14 73.6,14.7 73.6,15.2 C73.6,15.4 73.6,15.5 73.6,15.7 C73.6,15.9 73.6,16 73.5,16.1 C73.4,16.2 73.4,16.2 73.3,16.3 C73.2,16.5 73.2,16.6 73.2,16.7 C73,18.3 72.1,19.7 70.5,20.9 C70.4,20.9 70.3,20.8 70.1,20.8 C69.9,20.8 69.6,20.8 69.3,20.7 C68.8,20.6 68.5,20.3 68.3,19.9 C68.3,19.8 68.3,19.8 68.3,19.7 C68.3,19.6 68.3,19.5 68.3,19.4 C68.2,19.1 68.2,18.8 68.2,18.3 C68.2,17.9 68.2,17.5 68.2,17.2 C68.2,16.9 68.2,16.7 68.2,16.6 C68.3,15.7 68.8,14.6 69.5,13.3 C70.1,12.2 70.8,11.5 71.4,11.2 C71.6,11.1 71.8,11.1 72,11.1 C72.1,11.1 72.1,11.1 72.2,11.1 Z M70.2,19.1 L70.4,19 L70.2,18.9 C70.2,19 70.2,19.1 70.2,19.1 Z M72.1,15.2 C72.1,15 72.2,14.9 72.2,14.7 C72.2,14.4 72.2,14.1 72.1,13.8 C72,13.7 71.9,13.5 71.7,13.3 C71.3,14.2 70.9,14.8 70.4,15.1 L70.2,16.6 C70.2,16.7 70.2,16.9 70.2,17.2 C70.2,17.4 70.2,17.6 70.2,17.9 C70.3,18.2 70.3,18.5 70.3,18.7 C70.3,18.8 70.3,18.8 70.3,18.9 C70.3,18.9 70.4,18.9 70.4,18.9 C70.9,18.6 71.2,18 71.5,17.3 C71.5,17 71.7,16.4 72,15.4 L72.1,15.2 Z M80.2,18.1 C79.7,18.7 79.3,19.2 79,19.7 C78.7,20 78.4,20.3 78.2,20.5 C77.9,20.8 77.8,20.9 77.6,21 C77.5,21.1 77.4,21.1 77.3,21.1 C77.2,21.1 77.2,21.1 77.1,21.1 C77.1,21.1 77,21 77,21 C77,21 76.9,21 76.9,21 C76.7,21 76.5,21 76.3,20.9 C76.2,20.8 76,20.7 75.9,20.6 C75.6,20.3 75.5,20 75.5,19.7 C75.5,19.5 75.5,19.2 75.7,18.9 C75.9,18.6 76.1,18.2 76.4,17.7 C76.9,16.9 77.3,16.2 77.8,15.7 C78.4,14.9 79.1,14.1 79.8,13.3 C80.5,12.5 81.5,11.9 82.6,11.4 C83.8,8.8 84.4,7.4 84.6,7 C85,6 85.6,5.2 86.8,4.6 L86.9,4.6 L87,4.6 C87.1,4.7 87.2,4.8 87.4,5 L87.3,5.1 L87.1,5 L87.1,5.5 C87.1,5.6 87.1,5.6 87.1,5.7 C87.1,6 87.1,6.4 87,6.8 C87,6.9 86.9,7 86.7,7.2 L86.9,7.3 L86.8,7.4 C86.7,7.5 86.7,7.6 86.6,7.7 C86.5,7.8 86.4,8 86.3,8.2 C86,8.6 85.8,9.2 85.4,10 C85.2,10.4 85.1,10.7 85,10.9 C84.9,11.1 84.8,11.2 84.8,11.3 C84.7,11.3 84.7,11.4 84.7,11.6 C84.7,11.8 84.7,12 84.7,12.2 C84.7,12.5 84.6,12.7 84.5,12.9 C84.5,13.1 84.6,13.2 84.6,13.5 C84.3,13.9 84.2,14.2 84.1,14.3 C84.1,14.4 84.1,14.4 84.1,14.4 C84.1,14.5 84.1,14.5 84.2,14.6 C84.1,14.7 84,14.8 84,15 C84,15.1 84,15.2 84,15.3 C84,15.4 84,15.5 84,15.6 C84,15.7 84,15.7 83.9,15.8 C83.8,15.9 83.8,15.9 83.8,16 C83.8,16 83.8,16.1 83.9,16.2 C84,16.3 84,16.4 84,16.5 C84,16.6 84,16.7 83.9,16.8 C83.8,16.9 83.8,17 83.8,17.1 C83.8,17.9 84.2,18.8 84.9,19.7 C85.3,20.2 85.7,20.6 86.1,20.9 C86.5,21.2 87,21.3 87.4,21.3 L87.8,21.3 C88.4,21.3 88.9,21.2 89.4,21 C89.8,20.9 90,20.8 90.2,20.8 C90.2,20.8 90.3,20.8 90.3,20.8 C90.4,20.8 90.5,20.8 90.6,20.8 L90.6,20.9 C90.6,20.9 90.5,20.9 90.5,20.9 C90.5,20.9 90.4,21 90.3,21.1 C90.1,21.3 90,21.3 90,21.4 C90,21.5 90.1,21.5 90.1,21.5 L90.2,21.6 L90.1,21.6 C89.7,21.7 89.2,22 88.7,22.4 C88.5,22.5 88.3,22.5 88.1,22.5 L87.8,22.7 C87.4,22.7 86.8,22.7 86.2,22.6 L85.9,22.4 C85.8,22.4 85.8,22.3 85.7,22.3 C85.6,22.2 85.5,22.2 85.4,22.1 L85.3,22.1 L85.5,22 C85.4,21.9 85.4,21.9 85.3,21.9 C85.1,21.9 84.8,21.8 84.5,21.6 C84.2,21.4 83.9,21.1 83.6,20.7 C83.1,20 82.8,19.5 82.7,19 C82.6,18.8 82.6,18.7 82.6,18.5 C82.5,18.4 82.5,18.4 82.5,18.3 C82.5,18.3 82.4,18.2 82.4,18.2 C82.3,17.6 82.2,16.6 82.2,15.1 C82.2,15.1 82.1,15.1 82.1,15.1 C82,15.1 81.9,15.2 81.8,15.2 L81.9,15.2 L82,15.2 L82.1,15.3 C82,15.4 81.8,15.6 81.7,15.8 C81.6,16 81.4,16.3 81.2,16.7 C81,17.2 80.5,17.6 80,17.9 L80.2,18.1 Z M77.8,18.9 C78.1,18.6 78.4,18.2 79.1,17.7 C79.5,17.2 79.9,16.9 80.2,16.6 C80.1,16.6 80.1,16.5 80.1,16.5 C80.5,16 80.9,15.4 81.1,14.9 C80.6,15.3 80.1,15.8 79.4,16.5 L79.5,16.6 L79.4,16.6 C79.2,16.7 79.1,16.7 78.9,16.8 C78.7,17 78.6,17.3 78.4,17.6 C78.2,18 78,18.2 77.7,18.3 C77.7,18.5 77.8,18.7 77.8,18.9 Z M99.3,8.2 C99.4,8.3 99.5,8.4 98.8,8.5 C98.8,8.6 98.8,8.6 98.8,8.6 C98.8,8.8 98.7,9 98.5,9.3 C98.4,9.5 98.4,9.6 98.3,9.7 C98.2,9.8 98.2,9.9 98.2,9.9 L98.3,10 C97.4,11.8 96.8,13.2 96.6,14.3 C96.6,14.6 96.5,15.1 96.4,15.7 L96.4,15.8 C96.4,15.8 96.4,15.9 96.4,16 C96.4,16.4 96.4,16.7 96.2,16.9 C96.3,17.3 96.3,17.5 96.3,17.7 L96.3,18 C96.1,21.9 95.5,25 94.5,27.6 C94.5,27.7 94.4,27.7 94.4,27.8 L94.5,27.9 C94.4,28.1 94.1,28.4 93.9,28.8 C93.7,29.2 93.5,29.5 93.3,29.7 C93.2,29.8 93.2,29.8 93.2,29.8 C93.3,29.9 93.3,29.9 93.3,29.9 L93.2,30 L93,29.9 C92.8,30.3 92.4,30.6 91.9,30.9 C91.6,31.2 91.3,31.4 91.1,31.5 C90.9,31.6 90.8,31.7 90.7,31.8 C90.7,31.8 90.6,31.8 90.5,31.8 C90.4,31.8 90.2,31.8 90.1,31.9 C89.9,31.9 89.8,32 89.7,32 C89.6,32 89.5,32 89.4,32 L87.6,32 C87.6,32 87.5,32 87.5,32 L87.4,32 C87.2,31.9 87,31.8 86.8,31.8 C86.6,31.7 86.5,31.7 86.4,31.7 C86.3,31.7 86.2,31.7 86,31.7 C85.9,31.7 85.8,31.7 85.7,31.7 C85.6,31.7 85.6,31.7 85.6,31.7 C85.5,31.7 85.5,31.7 85.5,31.7 C85.5,31.6 85.5,31.6 85.5,31.6 C85.2,31.6 84.8,31.5 84.4,31.3 C84,31.1 83.5,30.8 83,30.4 C82,29.7 81.4,29.1 81.1,28.6 C80.8,28.2 80.5,27.8 80.2,27.2 C80,26.7 79.9,26.1 79.9,25.6 C79.9,24.4 80.7,23.1 82.1,21.5 L82.2,21.5 C82.4,21.6 82.5,21.6 82.6,21.6 C82.7,21.6 82.7,21.6 82.8,21.6 L82.9,21.5 L82.9,21.6 C82.8,21.8 82.7,22.2 82.6,22.6 C82.6,22.8 82.4,23 82.2,23.3 C81.9,23.6 81.8,23.9 81.7,24 C81.4,24.6 81.3,25.1 81.3,25.7 C81.3,25.8 81.3,25.8 81.3,25.8 C81.3,25.8 81.4,25.9 81.4,26 C81.5,26.1 81.5,26.3 81.5,26.5 C81.7,27.2 81.9,27.8 82.3,28.2 C83,29 83.8,29.7 84.6,30.1 C85.4,30.5 86.3,30.7 87.1,30.7 C87.3,30.7 87.7,30.7 88.1,30.7 C88.5,30.7 88.9,30.7 89.1,30.7 C89.3,30.7 89.4,30.7 89.7,30.6 C90,30.5 90.3,30.4 90.7,30.2 C91.5,29.8 92,29.5 92.2,29.3 C93.8,27.9 94.8,25.3 95.2,21.7 C95.2,21.3 95.3,20.7 95.4,19.9 C95.4,19.9 95.4,19.8 95.4,19.7 C95.4,19.6 95.5,19.5 95.5,19.3 C95.6,19.1 95.6,18.8 95.6,18.7 L95.6,17.1 C95.4,17.4 95,17.8 94.5,18.5 C94.5,18.5 94.5,18.5 94.5,18.6 C94.5,18.6 94.5,18.7 94.4,18.8 C94.3,19 94.1,19.2 93.9,19.5 C93.7,19.7 93.5,19.9 93.4,20 C93.3,20.2 93.2,20.2 93.1,20.3 C93,20.4 93,20.4 92.9,20.4 C92.9,20.4 92.8,20.4 92.8,20.4 C92.8,20.4 92.7,20.4 92.7,20.4 C92.6,20.4 92.6,20.4 92.6,20.4 L91.9,20.4 C91.8,20.4 91.8,20.3 91.7,20.3 C91.6,20.3 91.6,20.3 91.5,20.2 C91.5,20.2 91.4,20.1 91.4,20.1 C91.3,20.1 91.3,20.1 91.3,20.1 C91.1,19.7 90.9,19.3 90.9,19 L90.9,14.9 C90.8,14.7 90.8,14.6 90.8,14.4 C90.8,14.4 90.8,14.3 90.8,14.3 C90.8,14.1 90.8,13.8 90.9,13.4 C90.9,13.3 91.1,13.1 91.3,13 C91.5,12.9 91.8,12.7 92.2,12.6 C92.4,12.7 92.6,12.8 92.7,12.9 C92.8,13 92.9,13.2 92.9,13.3 C92.9,13.3 92.8,13.4 92.8,13.5 C92.7,13.6 92.7,13.8 92.6,13.9 C92.5,14.1 92.4,14.2 92.4,14.3 C92.3,14.4 92.3,14.5 92.3,14.5 C92.2,14.7 92.1,15 92.1,15.4 C92.1,15.8 92.1,16.1 92,16.3 C92,16.5 92,16.8 92,17 C92,17.3 91.9,17.6 91.9,17.9 L91.9,18 L91.8,17.9 C91.8,18 91.8,18 91.8,18 C91.8,18.1 91.8,18.1 91.8,18.1 C91.8,18.2 91.9,18.2 91.9,18.2 C91.9,18.2 91.9,18.2 91.9,18.3 C91.9,18.4 91.9,18.6 91.9,18.8 C91.9,18.9 91.9,19 92,19.1 C92.1,19.2 92.1,19.2 92.1,19.3 L92.3,19.5 C92.5,19.5 92.7,19.3 92.9,19 C94.8,16.6 95.9,14.5 96.1,12.7 C96.2,11.7 96.5,10.8 96.8,10 C97.1,9.3 97.4,8.9 97.7,8.5 C98,8.2 98.4,7.9 98.8,7.8 C99,8 99.2,8.1 99.3,8.2 Z M108,4.6 C107.7,5 107.4,5.6 107.1,6.4 C106.4,7.5 105.9,8.2 105.6,8.6 C105.5,8.8 105.4,8.9 105.3,8.9 C105.2,9 105,9.1 104.7,9.1 C104.5,9.3 104.3,9.6 104,9.9 C103.7,10.2 103.5,10.5 103.4,10.7 L103.3,10.7 C103.1,10.7 103,10.6 102.9,10.5 C102.8,10.4 102.8,10.2 102.8,10.1 C102.8,10 102.9,9.9 102.9,9.9 C103,9.9 103,9.8 103.1,9.8 C103.1,9.7 103.2,9.7 103.2,9.7 C103.2,9.3 103.4,8.8 103.9,8.2 C104.2,7.8 104.4,7.5 104.6,7.3 C104.8,7.1 104.9,6.9 104.9,6.8 C105,6.6 105.1,6.3 105.2,5.9 C105.2,5.8 105.3,5.5 105.5,5.2 C105.7,4.9 105.9,4.4 106.2,3.8 C106.3,3.6 106.4,3.4 106.6,3.1 C106.7,3 106.8,3 106.9,2.9 C107,2.8 107.2,2.8 107.4,2.8 C107.6,2.8 107.7,2.8 107.8,2.9 C107.9,3 108,3.1 108.1,3.2 C108.3,3.4 108.4,3.6 108.4,3.8 C108.4,3.9 108.4,4 108.3,4.1 C108.2,4.2 108.1,4.4 108,4.6 Z M114.2,13.3 C114.3,13.3 114.4,13.3 114.5,13.8 L114.6,13.8 L114.5,13.8 C113.7,14.2 113.2,14.5 112.9,14.8 C112.5,15.1 112.2,15.4 111.8,15.7 C111.5,16 111.3,16.3 111.3,16.6 C111.3,16.8 111.3,16.9 111.3,17.2 C111.3,17.5 111.3,17.7 111.3,17.8 C111.3,18.2 111.3,18.7 111.2,19.2 C111.2,19.3 111.1,19.6 111,19.9 C110.9,20.1 110.9,20.3 110.9,20.5 C110.9,20.6 111,20.7 111,20.8 C110.9,20.8 110.8,20.9 110.7,21 C110.6,21.1 110.4,21.2 110.3,21.4 C110.1,21.6 110,21.8 109.9,21.9 C109.8,22 109.7,22.1 109.6,22.1 C109.4,22.1 109.1,22.1 108.7,22 C108.3,21.9 108,21.9 107.8,21.9 C107.7,21.9 107.5,21.8 107.4,21.7 C107.2,21.6 107.1,21.4 106.9,21.2 C106.7,21 106.6,20.8 106.5,20.7 C106.4,20.5 106.4,20.4 106.4,20.3 L106.5,20.1 C106.5,20 106.5,20 106.5,19.9 C106.5,19.2 107,18.3 108,17.2 C108.7,16.5 109.2,15.9 109.4,15.7 C109.4,15.6 109.5,15.5 109.5,15.5 C109.5,15.4 109.5,15.4 109.5,15.4 L109.4,15.3 C109.4,14.7 109.2,13.9 108.9,12.8 L108.8,12.8 L108.8,12.7 C108.8,12.6 108.7,12.5 108.7,12.5 C108.6,12.5 108.6,12.5 108.5,12.5 C108.4,12.5 108.3,12.5 108.2,12.5 C107.6,13.1 107.1,13.5 106.7,13.8 C106.3,14.1 106.1,14.2 106,14.3 L105.9,14.4 L105.9,14.3 C105.8,14.2 105.8,14 105.8,13.9 C105.8,13.5 106,13 106.5,12.4 C107,11.8 107.7,11 108.6,10.2 C108.7,10.2 108.8,10.2 109,10.2 C109.2,10.2 109.3,10.2 109.4,10.2 C109.7,10.4 109.9,10.5 110,10.6 C110.3,11.1 110.6,12 110.8,13.1 C110.9,13.3 110.9,13.6 110.9,13.8 C111,14 111,14.2 111.1,14.4 C111.3,14.3 111.8,14.1 112.5,13.7 C112.9,13.6 113.2,13.5 113.5,13.4 C113.8,13.3 114,13.3 114.2,13.3 Z M109.4,19.2 C109.4,18.8 109.4,18.3 109.6,17.7 C109.4,17.9 109.2,18.1 109,18.4 C108.6,18.8 108.5,19.2 108.5,19.4 C108.5,19.5 108.5,19.6 108.5,19.6 C108.4,19.6 108.4,19.6 108.4,19.6 C108.4,19.6 108.4,19.7 108.4,19.7 C108.4,19.9 108.5,20.1 108.7,20.5 C108.8,20.4 108.9,20.3 109,20.3 C109.1,20.1 109.2,19.7 109.4,19.2 Z" id="Everybodysdoingit" fill="#575757" fill-rule="nonzero"></path>
    </g>
</svg>