<?xml version="1.0" encoding="UTF-8"?>
<svg width="40px" height="40px" viewBox="0 0 40 40" version="1.1" xmlns="http://www.w3.org/2000/svg" xmlns:xlink="http://www.w3.org/1999/xlink">
    <!-- Generator: Sketch 49 (51002) - http://www.bohemiancoding.com/sketch -->
    <title>Artboard Copy 5</title>
    <desc>Created with Sketch.</desc>
    <defs></defs>
    <g id="Artboard-Copy-5" stroke="none" stroke-width="1" fill="none" fill-rule="evenodd">
        <g id="filter-tool-black-shape-(3)" transform="translate(20.000000, 20.000000) scale(-1, 1) translate(-20.000000, -20.000000) translate(8.000000, 8.000000)" fill="#535453" fill-rule="nonzero">
            <path d="M23.897488,0.664845744 C23.704273,0.221794355 23.3698878,0.000238809534 22.8927226,0 L1.10671077,0 C0.630201376,0 0.295339214,0.221794355 0.102422362,0.664845744 C-0.0903752582,1.13058404 -0.0110265778,1.52856013 0.340826098,1.85799788 L8.73217261,10.2612875 L8.73217261,18.5452917 C8.73217261,18.841117 8.84001766,19.0964641 9.05552892,19.3127062 L13.4125524,23.6759355 C13.6169751,23.8916999 13.8721906,24 14.1786756,24 C14.3147189,24 14.4564854,23.9714026 14.6040346,23.9146256 C15.0467418,23.7213093 15.268155,23.3861998 15.268155,22.9089389 L15.268155,10.2613472 L23.6592034,1.85805758 C24.0111754,1.52861983 24.0903452,1.13076315 23.897488,0.664845744 Z" id="Shape"></path>
        </g>
    </g>
</svg>