<?xml version="1.0" encoding="UTF-8"?>
<svg width="27px" height="20px" viewBox="0 0 27 20" version="1.1" xmlns="http://www.w3.org/2000/svg" xmlns:xlink="http://www.w3.org/1999/xlink">
    <!-- Generator: Sketch 47 (45396) - http://www.bohemiancoding.com/sketch -->
    <title>footerIcMenu</title>
    <desc>Created with Sketch.</desc>
    <defs></defs>
    <g id="Symbols" stroke="none" stroke-width="1" fill="none" fill-rule="evenodd">
        <g id="Footer" transform="translate(-328.000000, -21.000000)" fill="#666666">
            <g id="footerIcMenu" transform="translate(328.000000, 21.000000)">
                <path d="M1.92857143,9 C0.864,9 0,9.448 0,10 C0,10.552 0.864,11 1.92857143,11 L25.0714286,11 C26.136,11 27,10.552 27,10 C27,9.448 26.136,9 25.0714286,9 L1.92857143,9 Z" id="Page-1"></path>
                <path d="M1.92857143,18 C0.864,18 0,18.448 0,19 C0,19.552 0.864,20 1.92857143,20 L25.0714286,20 C26.136,20 27,19.552 27,19 C27,18.448 26.136,18 25.0714286,18 L1.92857143,18 Z" id="Page-1"></path>
                <path d="M1.92857143,0 C0.864,0 0,0.448 0,1 C0,1.552 0.864,2 1.92857143,2 L25.0714286,2 C26.136,2 27,1.552 27,1 C27,0.448 26.136,0 25.0714286,0 L1.92857143,0 Z" id="Page-1"></path>
            </g>
        </g>
    </g>
</svg>