<?xml version="1.0" encoding="UTF-8"?>
<svg width="45px" height="46px" viewBox="0 0 45 46" version="1.1" xmlns="http://www.w3.org/2000/svg" xmlns:xlink="http://www.w3.org/1999/xlink">
    <!-- Generator: Sketch 47 (45396) - http://www.bohemiancoding.com/sketch -->
    <title>footerIcSearch</title>
    <desc>Created with Sketch.</desc>
    <defs></defs>
    <g id="Symbols" stroke="none" stroke-width="1" fill="none" fill-rule="evenodd">
        <g id="Footer" transform="translate(-165.000000, -8.000000)">
            <g id="footerIcSearch" transform="translate(166.000000, 9.000000)">
                <path d="M21.6942149,0 C9.76239669,0 0,9.92786104 0,22.0619134 C0,34.1959658 9.76239669,44.1238269 21.6942149,44.1238269 C33.6260331,44.1238269 43.3884298,34.1959658 43.3884298,22.0619134 C43.3884298,9.92786104 33.6260331,0 21.6942149,0 Z" id="Shape" stroke="#666666" fill-rule="nonzero"></path>
                <g id="Page-1" transform="translate(9.204545, 9.204545)" fill="#666666">
                    <g id="Group-4">
                        <g id="Group">
                            <path d="M15.4958678,17.0462293 C11.2174587,17.0462293 7.74793388,13.5759298 7.74793388,9.29829545 C7.74793388,5.01988636 11.2174587,1.55036157 15.4958678,1.55036157 C19.7735021,1.55036157 23.2438017,5.01988636 23.2438017,9.29829545 C23.2438017,13.5759298 19.7735021,17.0462293 15.4958678,17.0462293 L15.4958678,17.0462293 Z M3.7151343,23.0051653 C3.46565083,23.2639463 3.12009298,23.4258781 2.73424587,23.4258781 C1.97882231,23.4258781 1.36673554,22.8145661 1.36673554,22.0591426 C1.36673554,21.6732955 1.52944215,21.3285124 1.78744835,21.0782541 L1.78047521,21.0720558 L8.02995868,14.8225723 C8.57618802,15.5594008 9.22701446,16.2102273 9.96229339,16.7580062 L3.7151343,23.0051653 Z M15.4958678,0 C10.361312,0 6.19834711,4.16296488 6.19834711,9.29752066 C6.19834711,10.8672521 6.59116736,12.3447831 7.27918388,13.642562 L0.814307851,20.1058884 L0.819731405,20.1105372 C0.314566116,20.6071798 0,21.2951963 0,22.0599174 C0,23.5699897 1.22417355,24.7941632 2.73424587,24.7941632 C3.49741736,24.7941632 4.18620868,24.4795971 4.68285124,23.973657 L4.68130165,23.9721074 L11.1438533,17.5103306 C12.442407,18.2006715 13.9222624,18.5950413 15.4958678,18.5950413 C20.6304236,18.5950413 24.7933884,14.4320764 24.7933884,9.29752066 C24.7933884,4.16296488 20.6304236,0 15.4958678,0 L15.4958678,0 Z" id="Fill-1"></path>
                            <path d="M15.4958678,3.87396694 C12.4997417,3.87396694 10.072314,6.30216942 10.072314,9.29752066 C10.072314,9.51136364 10.2458678,9.68491736 10.4597107,9.68491736 C10.6735537,9.68491736 10.8471074,9.51136364 10.8471074,9.29752066 C10.8471074,6.73063017 12.9282025,4.64876033 15.4958678,4.64876033 C15.708936,4.64876033 15.8832645,4.47520661 15.8832645,4.26136364 C15.8832645,4.04752066 15.708936,3.87396694 15.4958678,3.87396694" id="Fill-3"></path>
                        </g>
                    </g>
                </g>
            </g>
        </g>
    </g>
</svg>