<?xml version="1.0" encoding="UTF-8"?>
<svg width="27px" height="26px" viewBox="0 0 27 26" version="1.1" xmlns="http://www.w3.org/2000/svg" xmlns:xlink="http://www.w3.org/1999/xlink">
    <!-- Generator: Sketch 47 (45396) - http://www.bohemiancoding.com/sketch -->
    <title>footerIcGroup</title>
    <desc>Created with Sketch.</desc>
    <defs></defs>
    <g id="Symbols" stroke="none" stroke-width="1" fill="none" fill-rule="evenodd">
        <g id="Footer" transform="translate(-256.000000, -18.000000)" stroke="#666666">
            <g id="footerIcGroup" transform="translate(257.000000, 19.000000)">
                <path d="M20.3111671,19.047619 C23.1031378,18.9470823 25,18.4119048 25,16.0062606 C25,13.215842 22.4485857,10.3480503 18.9105836,9.30761522 C20.2751885,8.39506292 21.1736852,6.8437401 21.1736852,5.08281818 C21.1736852,2.27518768 18.8917069,0 16.0766648,0 C14.3521126,0 12.8274594,0.853517098 11.9047619,2.16081703" id="Stroke-1" stroke-width="1.4"></path>
                <g id="Group-5" transform="translate(0.000000, 3.571429)" stroke-width="0.7" fill="#666666">
                    <path d="M9.6223092,0.0864970646 C6.5859426,0.0864970646 4.12524462,2.54784736 4.12524462,5.58405088 C4.12524462,7.48979126 5.09491194,9.16624266 6.56686236,10.154501 C2.75048924,11.2803979 0,14.3821592 0,17.3999348 C0,20.4048271 2.72896282,20.7110894 6.52201566,20.7110894 C7.49543379,20.7110894 8.53832355,20.6913568 9.62328767,20.6913568 C10.7077626,20.6913568 11.7516308,20.7110894 12.7243966,20.7110894 C16.5177756,20.7110894 19.2464123,20.4048271 19.2464123,17.3999348 C19.2464123,14.3815068 16.4952707,11.2797456 12.6787345,10.1538487 C14.1500326,9.16624266 15.1193738,7.48979126 15.1193738,5.58405088 C15.1193738,2.54784736 12.6586758,0.0864970646 9.6223092,0.0864970646 M9.6223092,0.941519896 C12.1821592,0.941519896 14.264514,3.02452707 14.264514,5.58405088 C14.264514,7.13411611 13.4934768,8.57671233 12.2022179,9.44396608 L10.6898239,10.4588063 L12.4367254,10.9741357 C15.8310502,11.9754403 18.3912264,14.7376712 18.3912264,17.3999348 C18.3912264,19.3055121 17.1200261,19.8560665 12.7243966,19.8560665 C12.2534247,19.8560665 11.7666341,19.8518265 11.266471,19.8469341 C10.7322244,19.8418787 10.1824853,19.8369863 9.62328767,19.8369863 C9.0634377,19.8369863 8.51435095,19.842531 7.98010437,19.8469341 C7.48010437,19.8518265 6.99282453,19.8560665 6.52201566,19.8560665 C2.12589693,19.8560665 0.854859752,19.3055121 0.854859752,17.3999348 C0.854859752,14.7376712 3.41438356,11.9754403 6.80838226,10.9741357 L8.55593607,10.4594586 L7.04272668,9.44396608 C5.75146771,8.57801696 4.98010437,7.13476843 4.98010437,5.58405088 C4.98010437,3.02420091 7.06278539,0.941519896 9.6223092,0.941519896" id="Fill-3"></path>
                </g>
            </g>
        </g>
    </g>
</svg>