<?xml version="1.0" encoding="UTF-8"?>
<svg width="26px" height="24px" viewBox="0 0 26 24" version="1.1" xmlns="http://www.w3.org/2000/svg" xmlns:xlink="http://www.w3.org/1999/xlink">
    <!-- Generator: Sketch 54 (76480) - https://sketchapp.com -->
    <title>icAbusive</title>
    <desc>Created with Sketch.</desc>
    <g id="Page-1" stroke="none" stroke-width="1" fill="none" fill-rule="evenodd">
        <g id="Messenger-Inbox---Report-Options" transform="translate(-25.000000, -505.000000)" fill="#333333" fill-rule="nonzero">
            <path d="M34.0001076,519 C31.2195553,519 28.9747056,516.778641 29.0002153,514.07767 L29.0002153,510.947573 C29.0002153,508.221359 31.2450649,506 34.0001076,506 C36.7551504,506 39,508.221359 39,510.947573 L39,514.052427 C39,516.778641 36.7551504,519 34.0001076,519 Z M29.9647253,510.844568 L29.9647253,514.15377 C29.9647253,516.19848 31.9130302,517.893437 33.9793627,517.893437 C36.0456952,517.893437 38.1222665,516.19848 38.1222665,514.15377 L38.1222665,510.817664 C38.1222665,508.772954 36.0456952,507.131805 33.9793627,507.131805 C31.9130302,507.131805 29.9647253,508.799858 29.9647253,510.844568 Z M42,528.239067 C42,528.658892 41.6874116,529 41.3267327,529 L25.6973126,529 C25.3125884,529 25,528.658892 25,528.239067 L25,526.48105 C25,525.011662 25.6732673,523.673469 26.8274399,522.886297 L30.1216407,520.655977 C30.7468175,520.209913 31.4681754,520 32.1895332,520 L34.7142857,520 C35.4356436,520 36.1329562,520.209913 36.758133,520.629738 L40.1485149,522.886297 C41.2786421,523.64723 42,525.037901 42,526.507289 L42,528.239067 Z M26.5014063,527.859501 L40.5420521,527.763846 L40.5420521,526.467146 C40.5420521,525.557397 40.1886172,524.392476 39.3127935,523.828866 L36.0708868,521.622025 C35.6659534,521.362097 35.1271355,521.231719 34.6745628,521.231719 L32.1735032,521.231719 C31.7209305,521.231719 31.2541367,521.362097 30.8492032,521.622025 L27.6911816,523.828866 C26.9527735,524.32273 26.5014063,525.093255 26.5014063,526.028997 L26.5014063,527.859501 Z M50.5708503,513.5 C50.5708503,513.744754 50.372438,513.943166 50.127684,513.943166 L43.6584155,513.943166 C43.4136615,513.943166 43.2152492,513.744754 43.2152492,513.5 C43.2152492,513.255246 43.4136615,513.056834 43.6584155,513.056834 L50.127684,513.056834 C50.372438,513.056834 50.5708503,513.255246 50.5708503,513.5 Z M45.5509568,505.60677 C45.6766111,505.82441 45.6020422,506.102705 45.3844026,506.228359 L41.5347336,508.450966 C41.3170939,508.576621 41.0387992,508.502052 40.9131449,508.284412 C40.7874905,508.066772 40.8620594,507.788478 41.0796991,507.662823 L44.929368,505.440216 C45.1470077,505.314562 45.4253024,505.389131 45.5509568,505.60677 Z M46.5509568,521.070872 C46.4253024,521.288511 46.1470077,521.36308 45.929368,521.237426 L42.0796991,519.014819 C41.8620594,518.889164 41.7874905,518.610869 41.9131449,518.39323 C42.0387992,518.17559 42.3170939,518.101021 42.5347336,518.226676 L46.3844026,520.449283 C46.6020422,520.574937 46.6766111,520.853232 46.5509568,521.070872 Z" id="icAbusive"></path>
        </g>
    </g>
</svg>