<?xml version="1.0" encoding="UTF-8"?>
<svg width="13px" height="16px" viewBox="0 0 13 16" version="1.1" xmlns="http://www.w3.org/2000/svg" xmlns:xlink="http://www.w3.org/1999/xlink">
    <!-- Generator: Sketch 47 (45396) - http://www.bohemiancoding.com/sketch -->
    <title>icAccess</title>
    <desc>Created with Sketch.</desc>
    <defs>
        <path d="M1.595,4.241 C1.595,2.063 3.503,0.292 5.849,0.292 C8.194,0.292 10.103,2.063 10.103,4.241 L10.103,5.77 C11.007,5.929 11.698,6.737 11.698,7.708 L11.698,13.031 C11.698,14.117 10.835,15 9.776,15 L1.922,15 C0.863,15 0,14.117 0,13.031 L0,7.709 C0,6.737 0.691,5.929 1.595,5.77 L1.595,4.241 Z M2.127,4.241 L2.127,5.739 L9.571,5.739 L9.571,4.241 C9.571,2.364 7.902,0.836 5.849,0.836 C3.797,0.836 2.127,2.364 2.127,4.241 Z M0.531,13.031 C0.531,13.816 1.155,14.455 1.922,14.455 L9.776,14.455 C10.542,14.455 11.166,13.816 11.166,13.031 L11.166,7.708 C11.166,6.923 10.542,6.284 9.776,6.284 L1.922,6.284 C1.155,6.284 0.531,6.923 0.531,7.708 L0.531,13.031 Z" id="path-1"></path>
        <path d="M0.786,2.007 C0.786,1.407 1.263,0.918 1.849,0.918 C2.435,0.918 2.912,1.407 2.912,2.007 L2.912,3.642 C2.912,4.243 2.435,4.732 1.849,4.732 C1.263,4.732 0.786,4.243 0.786,3.642 L0.786,2.007 Z M1.318,3.642 C1.318,3.942 1.556,4.186 1.849,4.186 C2.142,4.186 2.38,3.942 2.38,3.642 L2.38,2.007 C2.38,1.707 2.142,1.463 1.849,1.463 C1.556,1.463 1.318,1.707 1.318,2.007 L1.318,3.642 Z" id="path-3"></path>
    </defs>
    <g id="Page-1" stroke="none" stroke-width="1" fill="none" fill-rule="evenodd">
        <g id="MessengerInboxChatScreen-with-images" transform="translate(-78.000000, -1373.000000)">
            <g id="Group" transform="translate(48.000000, 1367.000000)">
                <g id="Page-1">
                    <g id="Group-7">
                        <g id="Group-5" transform="translate(31.000000, 7.000000)">
                            <g id="access">
                                <g id="Page-1" transform="translate(0.000000, -1.000000)">
                                    <g id="Group-3" transform="translate(0.000000, 0.708700)">
                                        <mask id="mask-2" fill="white">
                                            <use xlink:href="#path-1"></use>
                                        </mask>
                                        <g id="Clip-2"></g>
                                        <path d="M3.5669,5.7352 L1.7099,5.7352 C1.6059,5.7502 1.5029,5.7632 1.3989,5.8052 C1.2869,5.8502 1.1989,5.8102 1.1489,5.7352 L0.8789,5.7352 C0.6749,5.7352 0.6169,5.5392 0.6729,5.3912 L0.1609,5.3912 C-0.1611,5.3912 -0.1581,4.8912 0.1649,4.8912 L0.5109,4.8912 C0.4399,4.8382 0.4119,4.7542 0.4099,4.6732 L-0.8391,4.6732 C-1.1611,4.6732 -1.1581,4.1722 -0.8351,4.1722 L0.2849,4.1722 C0.2949,4.1642 0.3119,4.1642 0.3229,4.1562 C0.2789,4.0112 0.3419,3.8282 0.5399,3.8292 C1.4619,3.8302 2.3829,3.8442 3.3049,3.8602 C3.5589,3.8642 3.6029,4.1672 3.4549,4.2972 C3.5339,4.4442 3.4739,4.6712 3.2549,4.6732 C3.1139,4.6732 2.9739,4.6802 2.8339,4.6842 C2.8669,4.7552 2.8669,4.8312 2.8359,4.9032 C2.9979,4.9342 3.0469,5.1012 2.9959,5.2352 L3.5709,5.2352 C3.8929,5.2352 3.8889,5.7352 3.5669,5.7352 L3.5669,5.7352 Z M-5.0001,20.0002 L16.6979,20.0002 L16.6979,-4.7088 L-5.0001,-4.7088 L-5.0001,20.0002 Z" id="Fill-1" fill="#666666" mask="url(#mask-2)"></path>
                                    </g>
                                    <path d="M11.166,13.7396535 C11.166,14.5246322 10.542,15.1636148 9.776,15.1636148 L1.922,15.1636148 C1.156,15.1636148 0.532,14.5246322 0.532,13.7396535 L0.532,8.4167983 C0.532,7.63181965 1.156,6.99283702 1.922,6.99283702 L9.776,6.99283702 C10.542,6.99283702 11.166,7.63181965 11.166,8.4167983 L11.166,13.7396535 Z M10.103,6.478851 L10.103,4.94989258 C10.103,2.77195181 8.194,1 5.849,1 C3.652,1 1.868,2.5629575 1.649,4.54990346 C1.827,4.55190341 2.005,4.55390335 2.182,4.5559033 C2.399,2.86694923 3.945,1.54498518 5.849,1.54498518 C7.901,1.54498518 9.571,3.07194365 9.571,4.94989258 L9.571,6.44785185 L2.127,6.44785185 L2.127,6.44385195 L1.71,6.44385195 C1.671,6.44985179 1.633,6.46085149 1.595,6.46985125 L1.595,6.478851 C0.691,6.63784668 0,7.44582471 0,8.4167983 L0,13.7396535 C0,14.825624 0.862,15.7086 1.922,15.7086 L9.776,15.7086 C10.836,15.7086 11.698,14.825624 11.698,13.7396535 L11.698,8.4167983 C11.698,7.44582471 11.007,6.63784668 10.103,6.478851 Z" id="Stroke-4" stroke="#666666" stroke-width="0.3"></path>
                                    <g id="Group-8" transform="translate(4.000000, 7.708700)">
                                        <mask id="mask-4" fill="white">
                                            <use xlink:href="#path-3"></use>
                                        </mask>
                                        <g id="Clip-7"></g>
                                        <path d="M-4.2144,-4.0819 L-4.2144,-2.8279 L-3.7154,-2.8279 C-3.7054,-2.8359 -3.6884,-2.8359 -3.6774,-2.8439 C-3.7204,-2.9889 -3.6584,-3.1719 -3.4604,-3.1709 C-2.5384,-3.1699 -1.6164,-3.1559 -0.6944,-3.1399 C-0.4414,-3.1359 -0.3974,-2.8319 -0.5454,-2.7029 C-0.4664,-2.5559 -0.5264,-2.3289 -0.7454,-2.3269 C-0.8864,-2.3269 -1.0264,-2.3199 -1.1664,-2.3159 C-1.1324,-2.2449 -1.1324,-2.1689 -1.1644,-2.0969 C-1.0024,-2.0659 -0.9524,-1.8989 -1.0044,-1.7649 L-0.4294,-1.7649 C-0.1074,-1.7649 -0.1104,-1.2649 -0.4334,-1.2649 L-2.2904,-1.2649 C-2.3944,-1.2499 -2.4974,-1.2369 -2.6004,-1.1949 C-2.7134,-1.1499 -2.8004,-1.1899 -2.8504,-1.2649 L-3.1204,-1.2649 C-3.3254,-1.2649 -3.3834,-1.4609 -3.3264,-1.6089 L-3.8394,-1.6089 C-4.1614,-1.6089 -4.1574,-2.1089 -3.8354,-2.1089 L-3.4894,-2.1089 C-3.5604,-2.1619 -3.5884,-2.2459 -3.5894,-2.3269 L-4.2144,-2.3269 L-4.2144,9.7311 L7.9126,9.7311 L7.9126,-4.0819 L-4.2144,-4.0819 Z" id="Fill-6" fill="#666666" mask="url(#mask-4)"></path>
                                    </g>
                                </g>
                            </g>
                        </g>
                    </g>
                </g>
            </g>
        </g>
    </g>
</svg>