<?xml version="1.0" encoding="UTF-8"?>
<svg width="11px" height="13px" viewBox="0 0 11 13" version="1.1" xmlns="http://www.w3.org/2000/svg" xmlns:xlink="http://www.w3.org/1999/xlink">
    <!-- Generator: Sketch 52.1 (67048) - http://www.bohemiancoding.com/sketch -->
    <title>access</title>
    <desc>Created with Sketch.</desc>
    <defs>
        <path d="M1.32916667,3.3928 C1.32916667,1.6504 2.91916667,0.2336 4.87416667,0.2336 C6.82833333,0.2336 8.41916667,1.6504 8.41916667,3.3928 L8.41916667,4.616 C9.1725,4.7432 9.74833333,5.3896 9.74833333,6.1664 L9.74833333,10.4248 C9.74833333,11.2936 9.02916667,12 8.14666667,12 L1.60166667,12 C0.719166667,12 0,11.2936 0,10.4248 L0,6.1672 C0,5.3896 0.575833333,4.7432 1.32916667,4.616 L1.32916667,3.3928 Z M1.7725,3.3928 L1.7725,4.5912 L7.97583333,4.5912 L7.97583333,3.3928 C7.97583333,1.8912 6.585,0.6688 4.87416667,0.6688 C3.16416667,0.6688 1.7725,1.8912 1.7725,3.3928 Z M0.4425,10.4248 C0.4425,11.0528 0.9625,11.564 1.60166667,11.564 L8.14666667,11.564 C8.785,11.564 9.305,11.0528 9.305,10.4248 L9.305,6.1664 C9.305,5.5384 8.785,5.0272 8.14666667,5.0272 L1.60166667,5.0272 C0.9625,5.0272 0.4425,5.5384 0.4425,6.1664 L0.4425,10.4248 Z" id="path-1"></path>
        <path d="M0.655,1.6056 C0.655,1.1256 1.0525,0.7344 1.54083333,0.7344 C2.02916667,0.7344 2.42666667,1.1256 2.42666667,1.6056 L2.42666667,2.9136 C2.42666667,3.3944 2.02916667,3.7856 1.54083333,3.7856 C1.0525,3.7856 0.655,3.3944 0.655,2.9136 L0.655,1.6056 Z M1.09833333,2.9136 C1.09833333,3.1536 1.29666667,3.3488 1.54083333,3.3488 C1.785,3.3488 1.98333333,3.1536 1.98333333,2.9136 L1.98333333,1.6056 C1.98333333,1.3656 1.785,1.1704 1.54083333,1.1704 C1.29666667,1.1704 1.09833333,1.3656 1.09833333,1.6056 L1.09833333,2.9136 Z" id="path-3"></path>
    </defs>
    <g id="Symbols" stroke="none" stroke-width="1" fill="none" fill-rule="evenodd">
        <g id="UI/chat/album-access-user" transform="translate(-31.000000, -8.000000)">
            <g id="access_white" transform="translate(32.000000, 9.000000)">
                <g id="Page-1" transform="translate(0.000000, -0.800000)">
                    <g id="Group-3" transform="translate(0.000000, 0.566960)">
                        <mask id="mask-2" fill="white">
                            <use xlink:href="#path-1"></use>
                        </mask>
                        <g id="Clip-2"></g>
                        <path d="M2.97241667,4.58816 L1.42491667,4.58816 C1.33825,4.60016 1.25241667,4.61056 1.16575,4.64416 C1.07241667,4.68016 0.999083333,4.64816 0.957416667,4.58816 L0.732416667,4.58816 C0.562416667,4.58816 0.514083333,4.43136 0.56075,4.31296 L0.134083333,4.31296 C-0.13425,4.31296 -0.13175,3.91296 0.137416667,3.91296 L0.42575,3.91296 C0.366583333,3.87056 0.34325,3.80336 0.341583333,3.73856 L-0.69925,3.73856 C-0.967583333,3.73856 -0.965083333,3.33776 -0.695916667,3.33776 L0.237416667,3.33776 C0.24575,3.33136 0.259916667,3.33136 0.269083333,3.32496 C0.232416667,3.20896 0.284916667,3.06256 0.449916667,3.06336 C1.21825,3.06416 1.98575,3.07536 2.75408333,3.08816 C2.96575,3.09136 3.00241667,3.33376 2.87908333,3.43776 C2.94491667,3.55536 2.89491667,3.73696 2.71241667,3.73856 C2.59491667,3.73856 2.47825,3.74416 2.36158333,3.74736 C2.38908333,3.80416 2.38908333,3.86496 2.36325,3.92256 C2.49825,3.94736 2.53908333,4.08096 2.49658333,4.18816 L2.97575,4.18816 C3.24408333,4.18816 3.24075,4.58816 2.97241667,4.58816 Z M-4.16675,16.00016 L13.9149167,16.00016 L13.9149167,-3.76704 L-4.16675,-3.76704 L-4.16675,16.00016 Z" id="Fill-1" fill="#FFFFFF" mask="url(#mask-2)"></path>
                    </g>
                    <path d="M9.305,10.9917228 C9.305,11.6197058 8.785,12.1308919 8.14666667,12.1308919 L1.60166667,12.1308919 C0.963333333,12.1308919 0.443333333,11.6197058 0.443333333,10.9917228 L0.443333333,6.73343864 C0.443333333,6.10545572 0.963333333,5.59426962 1.60166667,5.59426962 L8.14666667,5.59426962 C8.785,5.59426962 9.305,6.10545572 9.305,6.73343864 L9.305,10.9917228 Z M8.41916667,5.1830808 L8.41916667,3.95991407 C8.41916667,2.21756145 6.82833333,0.8 4.87416667,0.8 C3.04333333,0.8 1.55666667,2.050366 1.37416667,3.63992277 C1.5225,3.64152272 1.67083333,3.64312268 1.81833333,3.64472264 C1.99916667,2.29355938 3.2875,1.23598814 4.87416667,1.23598814 C6.58416667,1.23598814 7.97583333,2.45755492 7.97583333,3.95991407 L7.97583333,5.15828148 L1.7725,5.15828148 L1.7725,5.15508156 L1.425,5.15508156 C1.3925,5.15988143 1.36083333,5.16868119 1.32916667,5.175881 L1.32916667,5.1830808 C0.575833333,5.31027734 0,5.95665976 0,6.73343864 L0,10.9917228 C0,11.8604992 0.718333333,12.56688 1.60166667,12.56688 L8.14666667,12.56688 C9.03,12.56688 9.74833333,11.8604992 9.74833333,10.9917228 L9.74833333,6.73343864 C9.74833333,5.95665976 9.1725,5.31027734 8.41916667,5.1830808 Z" id="Stroke-4" stroke="#FFFFFF" stroke-width="0.3"></path>
                    <g id="Group-8" transform="translate(3.333333, 6.166960)">
                        <mask id="mask-4" fill="white">
                            <use xlink:href="#path-3"></use>
                        </mask>
                        <g id="Clip-7"></g>
                        <path d="M-3.512,-3.26552 L-3.512,-2.26232 L-3.09616667,-2.26232 C-3.08783333,-2.26872 -3.07366667,-2.26872 -3.0645,-2.27512 C-3.10033333,-2.39112 -3.04866667,-2.53752 -2.88366667,-2.53672 C-2.11533333,-2.53592 -1.347,-2.52472 -0.578666667,-2.51192 C-0.367833333,-2.50872 -0.331166667,-2.26552 -0.4545,-2.16232 C-0.388666667,-2.04472 -0.438666667,-1.86312 -0.621166667,-1.86152 C-0.738666667,-1.86152 -0.855333333,-1.85592 -0.972,-1.85272 C-0.943666667,-1.79592 -0.943666667,-1.73512 -0.970333333,-1.67752 C-0.835333333,-1.65272 -0.793666667,-1.51912 -0.837,-1.41192 L-0.357833333,-1.41192 C-0.0895,-1.41192 -0.092,-1.01192 -0.361166667,-1.01192 L-1.90866667,-1.01192 C-1.99533333,-0.99992 -2.08116667,-0.98952 -2.167,-0.95592 C-2.26116667,-0.91992 -2.33366667,-0.95192 -2.37533333,-1.01192 L-2.60033333,-1.01192 C-2.77116667,-1.01192 -2.8195,-1.16872 -2.772,-1.28712 L-3.1995,-1.28712 C-3.46783333,-1.28712 -3.4645,-1.68712 -3.19616667,-1.68712 L-2.90783333,-1.68712 C-2.967,-1.72952 -2.99033333,-1.79672 -2.99116667,-1.86152 L-3.512,-1.86152 L-3.512,7.78488 L6.59383333,7.78488 L6.59383333,-3.26552 L-3.512,-3.26552 Z" id="Fill-6" fill="#FFFFFF" mask="url(#mask-4)"></path>
                    </g>
                </g>
            </g>
        </g>
    </g>
</svg>