<?xml version="1.0" encoding="UTF-8"?>
<svg width="14px" height="24px" viewBox="0 0 14 24" version="1.1" xmlns="http://www.w3.org/2000/svg" xmlns:xlink="http://www.w3.org/1999/xlink">
    <!-- Generator: Sketch 49.2 (51160) - http://www.bohemiancoding.com/sketch -->
    <title>icArrowPrevious</title>
    <desc>Created with Sketch.</desc>
    <defs>
        <path d="M1098.70451,493.905031 L1107.61949,485.001122 C1107.86496,484.756543 1108,484.429535 1108,484.080855 C1108,483.731982 1107.86496,483.405167 1107.61949,483.160202 L1106.83831,482.380413 C1106.59322,482.13506 1106.2656,482 1105.91647,482 C1105.56734,482 1105.24011,482.13506 1104.99483,482.380413 L1094.38013,492.981281 C1094.13388,493.227021 1093.99904,493.555384 1094.00001,493.90445 C1093.99904,494.255065 1094.13369,494.583041 1094.38013,494.828974 L1104.98494,505.419587 C1105.23023,505.66494 1105.55746,505.8 1105.90678,505.8 C1106.25591,505.8 1106.58314,505.66494 1106.82862,505.419587 L1107.6096,504.639798 C1108.1178,504.132259 1108.1178,503.306031 1107.6096,502.798685 L1098.70451,493.905031 Z" id="path-1"></path>
    </defs>
    <g id="Page-1" stroke="none" stroke-width="1" fill="none" fill-rule="evenodd">
        <g id="popup---add-private-album---view-shared-images" transform="translate(-1094.000000, -482.000000)">
            <mask id="mask-2" fill="white">
                <use xlink:href="#path-1"></use>
            </mask>
            <use id="icArrowPrevious" fill="#FFFFFF" fill-rule="nonzero" xlink:href="#path-1"></use>
        </g>
    </g>
</svg>