<?xml version="1.0" encoding="UTF-8"?>
<svg width="21px" height="25px" viewBox="0 0 21 25" version="1.1" xmlns="http://www.w3.org/2000/svg" xmlns:xlink="http://www.w3.org/1999/xlink">
    <!-- Generator: Sketch 52.1 (67048) - http://www.bohemiancoding.com/sketch -->
    <title>Bin</title>
    <desc>Created with Sketch.</desc>
    <g id="Page-1" stroke="none" stroke-width="1" fill="none" fill-rule="evenodd">
        <g id="Messenger-Inbox---chating---Menu-Copy-2" transform="translate(-27.000000, -506.000000)" fill="#333333" fill-rule="nonzero">
            <g id="Group-13" transform="translate(8.000000, 440.000000)">
                <g id="Group">
                    <g id="Group-5" transform="translate(1.000000, 0.000000)">
                        <g id="Bin" transform="translate(18.000000, 66.000000)">
                            <path d="M18.6080593,5.44435711 L17.8896995,22.6360119 C17.8668965,23.1817296 17.394036,23.6328125 16.8447194,23.6328125 L4.3091268,23.6328125 C3.75975346,23.6328125 3.28690796,23.1807318 3.26414662,22.6360119 L2.54578688,5.44435711 C2.53227666,5.12103328 2.25847201,4.86984863 1.93422707,4.88332047 C1.60998209,4.8967923 1.35808182,5.1698191 1.37159204,5.49314289 L2.08995178,22.6847977 C2.13894569,23.8573107 3.12983713,24.8046875 4.3091268,24.8046875 L16.8447194,24.8046875 C18.023373,24.8046875 19.0148346,23.8588878 19.0638944,22.6847977 L19.7822541,5.49314289 C19.7957643,5.1698191 19.5438641,4.8967923 19.2196191,4.88332047 C18.8953741,4.86984863 18.6215695,5.12103328 18.6080593,5.44435711 Z" id="Shape"></path>
                            <path d="M10.1851852,7.8125 L10.1851852,21.09375 C10.1851852,21.4173543 10.4482657,21.6796875 10.772792,21.6796875 C11.0973183,21.6796875 11.3603989,21.4173543 11.3603989,21.09375 L11.3603989,7.8125 C11.3603989,7.48889566 11.0973183,7.2265625 10.772792,7.2265625 C10.4482657,7.2265625 10.1851852,7.48889566 10.1851852,7.8125 Z" id="Shape"></path>
                            <path d="M5.68045343,7.82972602 L6.07219132,21.110976 C6.08173206,21.4344405 6.35243321,21.6889479 6.67681925,21.6794342 C7.00120526,21.6699206 7.25643777,21.3999885 7.24689699,21.076524 L6.8551591,7.79527398 C6.84561837,7.47180953 6.57491722,7.21730211 6.25053118,7.22681578 C5.92614517,7.23632941 5.67091266,7.50626152 5.68045343,7.82972602 Z" id="Shape"></path>
                            <path d="M14.2986871,7.79527398 L13.9069492,21.076524 C13.8974084,21.3999885 14.1526409,21.6699206 14.4770269,21.6794342 C14.8014129,21.6889479 15.0721141,21.4344405 15.0816548,21.110976 L15.4733927,7.82972602 C15.4829335,7.50626152 15.227701,7.23632941 14.903315,7.22681578 C14.5789289,7.21730211 14.3082278,7.47180953 14.2986871,7.79527398 Z" id="Shape"></path>
                            <path d="M0.783475783,3.515625 L20.3703704,3.515625 C20.6948967,3.515625 20.9579772,3.25329184 20.9579772,2.9296875 C20.9579772,2.60608316 20.6948967,2.34375 20.3703704,2.34375 L0.783475783,2.34375 C0.458949498,2.34375 0.195868946,2.60608316 0.195868946,2.9296875 C0.195868946,3.25329184 0.458949498,3.515625 0.783475783,3.515625 Z" id="Shape"></path>
                            <path d="M7.2051234,2.95198672 L7.62438519,1.90680996 C7.73600059,1.62856422 8.12323111,1.3671875 8.42236467,1.3671875 L12.7314815,1.3671875 C13.0327618,1.3671875 13.4170715,1.62663449 13.529461,1.90680996 L13.9487228,2.95198672 L15.0398812,2.51676328 L14.6206194,1.47158652 C14.3297568,0.746495703 13.5133086,0.1953125 12.7314815,0.1953125 L8.42236467,0.1953125 C7.64271907,0.1953125 6.82332817,0.748393203 6.53322671,1.47158652 L6.11396492,2.51676328 L7.2051234,2.95198672 Z" id="Shape"></path>
                        </g>
                    </g>
                </g>
            </g>
        </g>
    </g>
</svg>