<?xml version="1.0" encoding="UTF-8"?>
<svg width="40px" height="40px" viewBox="0 0 40 40" version="1.1" xmlns="http://www.w3.org/2000/svg" xmlns:xlink="http://www.w3.org/1999/xlink">
    <!-- Generator: Sketch 49 (51002) - http://www.bohemiancoding.com/sketch -->
    <title>Artboard Copy 4</title>
    <desc>Created with Sketch.</desc>
    <defs></defs>
    <g id="Artboard-Copy-4" stroke="none" stroke-width="1" fill="none" fill-rule="evenodd">
        <g id="ice-cream" transform="translate(11.000000, 5.000000)">
            <path d="M18.4469777,8.33350304 C17.9474606,7.54050911 17.156332,6.96782177 16.2384946,6.73475374 L16.2329188,6.73475374 C16.2329188,6.70182095 16.2329188,6.66339938 16.2329188,6.63046659 C16.2329188,2.96854717 13.2173465,0 9.49741809,0 C5.77748969,0 2.76191736,2.96854717 2.76191736,6.63046659 L2.76191736,6.73475374 C0.793888241,7.23437147 -0.390051649,9.20992667 0.117480598,11.1472661 C0.354171001,12.0507907 0.935930361,12.8295824 1.74155591,13.32131 L2.66712969,15.401564 L8.99002524,29.6724358 C9.11429467,29.9498258 9.44340306,30.0755193 9.7251873,29.9531877 C9.85252339,29.8978881 9.95428075,29.7977862 10.0103867,29.6724358 L17.258856,13.32131 C18.9861523,12.2669121 19.5180785,10.0337951 18.4469777,8.33350304 Z M9.49741809,28.0806847 L8.00311826,24.7050746 C8.84421949,25.0691191 9.71779944,25.3557715 10.6125672,25.5613269 L9.49741809,28.0806847 Z M11.0642026,24.5404107 C9.75439027,24.2525919 8.49148388,23.7870733 7.3117258,23.1572339 L4.60748917,17.0646694 C6.43633374,18.3545367 9.47511511,20.0286197 13.0101378,20.1438844 L11.0642026,24.5404107 Z M13.5008035,19.0516139 C8.44360217,19.0955242 4.23948996,15.4290079 3.64288517,14.8801283 L3.18009828,13.8427457 C3.34444339,13.8664161 3.51025212,13.8792462 3.67633965,13.8811672 C4.62686488,13.8837744 5.54093868,13.5214452 6.2244554,12.8712286 C7.15651098,14.6491185 9.37628502,15.3466074 11.1823387,14.4290178 C11.8613252,14.0840469 12.4144391,13.5396268 12.764805,12.8712286 C13.4483218,13.5214452 14.3623956,13.8837744 15.3129208,13.8811672 C15.4790083,13.8793148 15.6448171,13.8664847 15.8091622,13.8427457 L13.5008035,19.0516139 Z M17.9765939,10.4801715 C17.8533699,11.7930231 16.7246299,12.7915724 15.3854055,12.7724303 L15.3129208,12.7779191 C14.4196863,12.7803204 13.5904336,12.3222117 13.1272285,11.5703838 C12.9664379,11.3136453 12.625272,11.2327541 12.3633514,11.3892535 L12.2518364,11.4606078 C12.1180882,11.5347066 12.0212794,11.6597825 11.9842006,11.806402 C11.6435226,13.1599393 10.2527922,13.9853172 8.87781336,13.6499517 C7.95460927,13.4247738 7.23380476,12.7152096 7.00505979,11.806402 C6.96798108,11.6597825 6.8711722,11.5347066 6.737424,11.4606078 L6.62590909,11.3892535 C6.36398844,11.2327541 6.0228225,11.3136453 5.86203194,11.5703838 C5.11446384,12.7548661 3.53311268,13.1184989 2.32986677,12.3825885 C1.12662086,11.646678 0.757227713,10.0899866 1.50479581,8.90550428 C1.92039795,8.24698588 2.62029342,7.81295927 3.40312811,7.72822596 C3.71035169,7.7077802 3.9425815,7.4460332 3.92188154,7.14360049 C3.92181185,7.14270856 3.92174215,7.14181663 3.92167245,7.1409247 C3.92167245,6.9762608 3.92167245,6.80610809 3.92167245,6.63595539 C3.92167245,3.58034219 6.43800646,1.10324817 9.54202406,1.10324817 C12.6460417,1.10324817 15.1623757,3.58034219 15.1623757,6.63595539 L15.1623757,7.1409247 C15.1363787,7.43855471 15.3568995,7.70194835 15.658617,7.73371476 C17.0691413,7.86201539 18.1069269,9.0916431 17.9765939,10.4801715 Z" id="Shape" fill="#535453" fill-rule="nonzero"></path>
            <path d="M17.9765939,10.4801715 C17.8533699,11.7930231 16.7246299,12.7915724 15.3854055,12.7724303 L15.3129208,12.7779191 C14.4196863,12.7803204 13.5904336,12.3222117 13.1272285,11.5703838 C12.9664379,11.3136453 12.625272,11.2327541 12.3633514,11.3892535 L12.2518364,11.4606078 C12.1180882,11.5347066 12.0212794,11.6597825 11.9842006,11.806402 C11.6435226,13.1599393 10.2527922,13.9853172 8.87781336,13.6499517 C7.95460927,13.4247738 7.23380476,12.7152096 7.00505979,11.806402 C6.96798108,11.6597825 6.8711722,11.5347066 6.737424,11.4606078 L6.62590909,11.3892535 C6.36398844,11.2327541 6.0228225,11.3136453 5.86203194,11.5703838 C5.11446384,12.7548661 3.53311268,13.1184989 2.32986677,12.3825885 C1.12662086,11.646678 0.757227713,10.0899866 1.50479581,8.90550428 C1.92039795,8.24698588 2.62029342,7.81295927 3.40312811,7.72822596 C3.71035169,7.7077802 3.9425815,7.4460332 3.92188154,7.14360049 C3.92181185,7.14270856 3.92174215,7.14181663 3.92167245,7.1409247 C3.92167245,6.9762608 3.92167245,6.80610809 3.92167245,6.63595539 C3.92167245,3.58034219 6.43800646,1.10324817 9.54202406,1.10324817 C12.6460417,1.10324817 15.1623757,3.58034219 15.1623757,6.63595539 L15.1623757,7.1409247 C15.1363787,7.43855471 15.3568995,7.70194835 15.658617,7.73371476 C17.0691413,7.86201539 18.1069269,9.0916431 17.9765939,10.4801715 Z" id="Path" fill="#FFFFFF"></path>
            <path d="M8.53051643,2 C6.58174883,2.00258216 5.00258216,3.58174883 5,5.53051643 C5,5.78978873 5.21021127,6 5.46948357,6 C5.72875587,6 5.93896714,5.78978873 5.93896714,5.53051643 C5.9415493,4.10029343 7.10029343,2.9415493 8.53051643,2.93896714 C8.78978873,2.93896714 9,2.72875587 9,2.46948357 C9,2.21021127 8.78978873,2 8.53051643,2 Z" id="Shape" fill="#535453" fill-rule="nonzero"></path>
        </g>
    </g>
</svg>