<?xml version="1.0" encoding="UTF-8"?>
<svg width="24px" height="23px" viewBox="0 0 24 23" version="1.1" xmlns="http://www.w3.org/2000/svg" xmlns:xlink="http://www.w3.org/1999/xlink">
    <!-- Generator: Sketch 54 (76480) - https://sketchapp.com -->
    <title>icEditReport</title>
    <desc>Created with Sketch.</desc>
    <defs>
        <path d="M43.1284762,566 L39.4080317,562.5 L40.5,561.351821 C41.975746,560.1695 43.7290355,560.352376 44.5,561.351821 C45,562 45.5,563.457464 44.5,564.5 L43.1284762,566 Z M30.5,578.505393 L25.5,579.78575 L26.7010741,574.792857 L38,563.5 L42,567.165714 L30.5,578.505393 Z M39.3061649,560.164304 L25.5304373,573.940032 C25.399295,574.071174 25.3047954,574.237031 25.2604385,574.416387 L23.8101589,580.223291 C23.7233735,580.572361 23.8255874,580.942645 24.0801577,581.199144 C24.2749426,581.393929 24.5372272,581.5 24.8052975,581.5 C24.8882257,581.5 24.971154,581.490357 25.0540822,581.469143 L30.8629148,580.016935 C31.0441998,579.972578 31.2081277,579.878078 31.33927,579.746936 L45.1149976,565.971208 C45.89028,565.195926 46.3184211,564.164145 46.3184211,563.066792 C46.3184211,561.96944 45.8922086,560.939587 45.1149976,560.164304 C43.5644327,558.611811 40.8586584,558.611811 39.3061649,560.164304 Z" id="path-1"></path>
    </defs>
    <g id="Page-1" stroke="none" stroke-width="1" fill="none" fill-rule="evenodd">
        <g id="Messenger-Inbox---Report-Options" transform="translate(-23.000000, -559.000000)">
            <mask id="mask-2" fill="white">
                <use xlink:href="#path-1"></use>
            </mask>
            <use id="icEditReport" fill="#333333" xlink:href="#path-1"></use>
        </g>
    </g>
</svg>