<?xml version="1.0" encoding="UTF-8"?>
<svg width="21px" height="20px" viewBox="0 0 21 20" version="1.1" xmlns="http://www.w3.org/2000/svg" xmlns:xlink="http://www.w3.org/1999/xlink">
    <!-- Generator: Sketch 47 (45396) - http://www.bohemiancoding.com/sketch -->
    <title>icFavouriteActive</title>
    <desc>Created with Sketch.</desc>
    <defs></defs>
    <g id="Page-1" stroke="none" stroke-width="1" fill="none" fill-rule="evenodd">
        <g id="Messenger-Inbox---profile-popup-1" transform="translate(-20.000000, -458.000000)" fill="#4A90E2">
            <g id="Group-4" transform="translate(10.000000, 254.000000)">
                <path d="M29.4069206,210.35566 L24.2838733,209.987588 C24.1768757,209.979028 24.0827177,209.91483 24.0441986,209.812112 L22.0925615,205.061417 C21.8229275,204.406591 21.2151808,204 20.5047165,204 C19.7942521,204 19.1907854,204.406591 18.9168714,205.065697 L16.9609544,209.820672 C16.9181554,209.91911 16.8282773,209.987588 16.7212797,209.996148 L11.6067922,210.36422 C10.9134475,210.402739 10.3228205,210.856409 10.0959854,211.524074 C9.86487053,212.2003 10.0574663,212.910764 10.6052942,213.377274 L14.5642071,216.647122 C14.6455254,216.7156 14.6840445,216.826878 14.6583651,216.929596 L13.4514316,221.868607 C13.3101947,222.382196 13.4086326,222.912904 13.7210657,223.328055 C14.0420586,223.747486 14.5428076,224 15.069236,224 C15.3945089,224 15.7112219,223.901562 15.9722962,223.726086 L20.299281,221.034025 C20.389159,220.978386 20.5047165,220.978386 20.5945945,221.034025 L24.9643783,223.717526 C25.2382923,223.901562 25.5550053,224 25.8759983,224 C26.3681875,224 26.8560967,223.764605 27.1728098,223.366574 C27.5023625,222.955703 27.6221999,222.420715 27.5023625,221.885727 L26.2911492,216.933875 C26.2654697,216.826878 26.3039889,216.7156 26.3853071,216.647122 L30.4041387,213.368714 C30.9434068,212.906484 31.1360026,212.19602 30.9091676,211.519795 C30.6866125,210.852129 30.0917055,210.394179 29.4069206,210.35566" id="icFavouriteActive"></path>
            </g>
        </g>
    </g>
</svg>