<?xml version="1.0" encoding="UTF-8"?>
<svg width="21px" height="20px" viewBox="0 0 21 20" version="1.1" xmlns="http://www.w3.org/2000/svg" xmlns:xlink="http://www.w3.org/1999/xlink">
    <!-- Generator: Sketch 47 (45396) - http://www.bohemiancoding.com/sketch -->
    <title>icFavourite</title>
    <desc>Created with Sketch.</desc>
    <defs></defs>
    <g id="Page-1" stroke="none" stroke-width="1" fill="none" fill-rule="evenodd">
        <g id="Messenger-Inbox---profile-popup-1" transform="translate(-20.000000, -458.000000)" fill="#666666">
            <g id="Group-4" transform="translate(10.000000, 254.000000)">
                <path d="M29.7364734,212.559812 L25.7262016,215.83394 C25.3324502,216.154933 25.1526942,216.685641 25.2768115,217.18211 L26.4880248,222.125401 C26.5522234,222.416435 26.436666,222.61759 26.3596276,222.711748 C26.2397903,222.861545 26.0600342,222.955703 25.8802782,222.955703 C25.7690006,222.955703 25.6577231,222.921464 25.5378857,222.840146 L21.1509822,220.143805 C20.9412669,220.015408 20.7015921,219.946929 20.4533576,219.946929 C20.205123,219.946929 19.9611684,220.015408 19.751453,220.148085 L15.4073486,222.848705 C15.1291547,223.032741 14.7568029,222.951423 14.5599272,222.694629 C14.478609,222.587631 14.3930109,222.403595 14.4700492,222.133961 L15.6812626,217.17783 C15.8010999,216.685641 15.6256238,216.159212 15.2361524,215.83822 L11.2857993,212.572651 C10.9733661,212.303017 11.0589643,211.956345 11.0932035,211.857907 C11.1274428,211.759469 11.2686796,211.429917 11.6795506,211.408517 L16.8025979,211.040445 C17.3076268,211.001926 17.7441772,210.689493 17.9367729,210.218703 L19.8926899,205.463728 C20.0510464,205.078536 20.4062786,205.048577 20.5089964,205.048577 C20.6117141,205.048577 20.9669463,205.078536 21.1253028,205.463728 L23.0812198,210.218703 C23.2738155,210.689493 23.7103659,211.001926 24.2153948,211.040445 L29.3470019,211.412797 C29.7493131,211.434196 29.89055,211.763749 29.9247892,211.862187 C29.9504686,211.952065 30.0360668,212.298737 29.7364734,212.559812 M29.4069206,210.35566 L24.2838733,209.987588 C24.1768757,209.979028 24.0827177,209.91483 24.0441986,209.812112 L22.0925615,205.061417 C21.8229275,204.406591 21.2151808,204 20.5047165,204 C19.7942521,204 19.1907854,204.406591 18.9168714,205.065697 L16.9609544,209.820672 C16.9181554,209.91911 16.8282773,209.987588 16.7212797,209.996148 L11.6067922,210.36422 C10.9134475,210.402739 10.3228205,210.856409 10.0959854,211.524074 C9.86487053,212.2003 10.0574663,212.910764 10.6052942,213.377274 L14.5642071,216.647122 C14.6455254,216.7156 14.6840445,216.826878 14.6583651,216.929596 L13.4514316,221.868607 C13.3101947,222.382196 13.4086326,222.912904 13.7210657,223.328055 C14.0420586,223.747486 14.5428076,224 15.069236,224 C15.3945089,224 15.7112219,223.901562 15.9722962,223.726086 L20.299281,221.034025 C20.389159,220.978386 20.5047165,220.978386 20.5945945,221.034025 L24.9643783,223.717526 C25.2382923,223.901562 25.5550053,224 25.8759983,224 C26.3681875,224 26.8560967,223.764605 27.1728098,223.366574 C27.5023625,222.955703 27.6221999,222.420715 27.5023625,221.885727 L26.2911492,216.933875 C26.2654697,216.826878 26.3039889,216.7156 26.3853071,216.647122 L30.4041387,213.368714 C30.9434068,212.906484 31.1360026,212.19602 30.9091676,211.519795 C30.6866125,210.852129 30.0917055,210.394179 29.4069206,210.35566" id="icFavourite"></path>
            </g>
        </g>
    </g>
</svg>