<?xml version="1.0" encoding="UTF-8"?>
<svg width="25px" height="25px" viewBox="0 0 25 25" version="1.1" xmlns="http://www.w3.org/2000/svg" xmlns:xlink="http://www.w3.org/1999/xlink">
    <!-- Generator: Sketch 54 (76480) - https://sketchapp.com -->
    <title>icFeelsLike</title>
    <desc>Created with Sketch.</desc>
    <defs>
        <path d="M30.8696947,454.355319 C28.343733,454.355319 26.2960364,456.409094 26.2960364,458.942553 L26.2960364,471.557447 C26.2960364,474.090906 28.343733,476.144681 30.8696947,476.144681 L44.0189623,476.144681 C46.544924,476.144681 48.5926206,474.090906 48.5926206,471.557447 L48.5926206,458.942553 C48.5926206,456.409094 46.544924,454.355319 44.0189623,454.355319 L30.8696947,454.355319 Z M30.8696947,453.208511 L44.0189623,453.208511 C47.1764144,453.208511 49.7360352,455.775729 49.7360352,458.942553 L49.7360352,471.557447 C49.7360352,474.724271 47.1764144,477.291489 44.0189623,477.291489 L30.8696947,477.291489 C27.7122426,477.291489 25.1526219,474.724271 25.1526219,471.557447 L25.1526219,458.942553 C25.1526219,455.775729 27.7122426,453.208511 30.8696947,453.208511 Z M37.7584722,458.369149 C38.1612457,458.369149 38.7837138,458.878797 38.7837138,459.279235 L38.4175561,467.652025 C38.4175561,468.052463 38.0880142,468.380094 37.6852407,468.380094 C37.2824672,468.380094 36.9529253,468.052463 36.9529253,467.652025 L36.7698464,459.315638 C36.7698464,458.9152 37.3923145,458.369149 37.7584722,458.369149 Z M37.6852407,470.200266 C38.3077088,470.200266 38.7837138,470.673511 38.7837138,471.292369 C38.7837138,471.911227 38.3077088,472.384472 37.6852407,472.384472 C37.0627726,472.384472 36.5867676,471.911227 36.5867676,471.292369 C36.5867676,470.673511 37.0627726,470.200266 37.6852407,470.200266 Z" id="path-1"></path>
    </defs>
    <g id="Page-1" stroke="none" stroke-width="1" fill="none" fill-rule="evenodd">
        <g id="Messenger-Inbox---Report-Options" transform="translate(-25.000000, -453.000000)">
            <mask id="mask-2" fill="white">
                <use xlink:href="#path-1"></use>
            </mask>
            <use id="icFeelsLike" fill="#333333" fill-rule="nonzero" xlink:href="#path-1"></use>
        </g>
    </g>
</svg>