<?xml version="1.0" encoding="UTF-8"?>
<svg width="40px" height="40px" viewBox="0 0 40 40" version="1.1" xmlns="http://www.w3.org/2000/svg" xmlns:xlink="http://www.w3.org/1999/xlink">
    <!-- Generator: Sketch 47 (45396) - http://www.bohemiancoding.com/sketch -->
    <title>icFullImage</title>
    <desc>Created with Sketch.</desc>
    <defs></defs>
    <g id="Page-1" stroke="none" stroke-width="1" fill="none" fill-rule="evenodd">
        <g id="Open-image1" transform="translate(-324.000000, -30.000000)">
            <g id="Group-7" transform="translate(9.000000, 30.000000)">
                <g id="Group-16">
                    <g id="icFullImage" transform="translate(315.000000, 0.000000)">
                        <rect id="Rectangle-8" fill="#FFFFFF" opacity="0.2" x="0" y="0" width="40" height="40" rx="20"></rect>
                        <g id="Full-screen-white" transform="translate(10.000000, 10.000000)" stroke="#FFFFFF">
                            <g id="Group-2">
                                <g id="Group">
                                    <path d="M0,12.1742629 L0,17.3730134 L4.4408921e-16,17.3730134 C5.7935996e-16,18.4775829 0.8954305,19.3730134 2,19.3730134 L7.61904762,19.3730134" id="Path-17"></path>
                                    <path d="M0,0.745691459 L0,5.94444197 L4.4408921e-16,5.94444197 C5.7935996e-16,7.04901147 0.8954305,7.94444197 2,7.94444197 L7.61904762,7.94444197" id="Path-17" transform="translate(3.809524, 4.345067) scale(1, -1) translate(-3.809524, -4.345067) "></path>
                                </g>
                                <g id="Group" transform="translate(16.000000, 10.000000) scale(-1, 1) translate(-16.000000, -10.000000) translate(12.000000, 1.000000)">
                                    <path d="M0,11 L0,16 L4.4408921e-16,16 C8.88325637e-17,17.1045695 0.8954305,18 2,18 L8,18" id="Path-17"></path>
                                    <path d="M0,0 L0,5 L4.4408921e-16,5 C8.88325637e-17,6.1045695 0.8954305,7 2,7 L8,7" id="Path-17" transform="translate(4.000000, 3.500000) scale(1, -1) translate(-4.000000, -3.500000) "></path>
                                </g>
                            </g>
                        </g>
                    </g>
                </g>
            </g>
        </g>
    </g>
</svg>