<?xml version="1.0" encoding="UTF-8"?>
<svg width="16px" height="20px" viewBox="0 0 16 20" version="1.1" xmlns="http://www.w3.org/2000/svg" xmlns:xlink="http://www.w3.org/1999/xlink">
    <!-- Generator: Sketch 47 (45396) - http://www.bohemiancoding.com/sketch -->
    <title>icGarbage</title>
    <desc>Created with Sketch.</desc>
    <defs></defs>
    <g id="Page-1" stroke="none" stroke-width="1" fill="none" fill-rule="evenodd">
        <g id="Save-/-delete-our-message" transform="translate(-20.000000, -518.000000)" fill="#666666">
            <g id="icGarbage" transform="translate(20.000000, 518.000000)">
                <path d="M12.7856086,18.3585566 L13.5675278,3.20001933 L1.61983019,3.20001933 L2.41647983,18.3578318 L2.41724244,18.378891 L2.41724244,18.3999903 C2.41724244,18.8406211 2.77551001,19.1999952 3.21469483,19.1999952 L11.9865909,19.1999952 C12.4265784,19.1999952 12.7840432,18.8406211 12.7840432,18.3999903 L12.7840432,18.378891 L12.7856086,18.3585566 Z M4.78467421,1.60000966 L4.78467421,2.4000145 L10.3668008,2.4000145 L10.3668008,1.60000966 C10.3668008,1.1586138 10.009336,0.800004832 9.56934842,0.800004832 L5.5821266,0.800004832 C5.14294178,0.800004832 4.78467421,1.1586138 4.78467421,1.60000966 Z M15.151475,2.4000145 L15.1515152,2.4000145 L15.1515152,3.20001933 L14.3657428,3.20001933 L13.5815358,18.3999903 C13.5815358,19.2835874 12.8674089,20 11.986631,20 L3.21473497,20 C2.33395707,20 1.61983019,19.2835874 1.61983019,18.3999903 L0.821615182,3.20001933 L0,3.20001933 L0,2.4000145 L3.98722182,2.4000145 L3.98722182,1.60000966 C3.98722182,0.716452888 4.7013487,0 5.5821266,0 L9.56934842,0 C10.4501263,0 11.1642532,0.716452888 11.1642532,1.60000966 L11.1642532,2.4000145 L15.151475,2.4000145 Z" id="Fill-1"></path>
                <polygon id="Fill-3" stroke="#666666" stroke-width="0.3" points="7.27272727 17.5757576 7.87878788 17.5757576 7.87878788 4.84848485 7.27272727 4.84848485"></polygon>
                <polygon id="Fill-5" points="6.06060606 17.5254117 5.14010681 4.84848485 4.24242424 4.89883071 5.16296876 17.5757576"></polygon>
                <polygon id="Fill-6" points="11.5151515 4.89797798 10.6109399 4.84848485 9.6969697 17.5262644 10.6011814 17.5757576"></polygon>
            </g>
        </g>
    </g>
</svg>