<?xml version="1.0" encoding="UTF-8"?>
<svg width="17px" height="21px" viewBox="0 0 17 21" version="1.1" xmlns="http://www.w3.org/2000/svg" xmlns:xlink="http://www.w3.org/1999/xlink">
    <!-- Generator: Sketch 47 (45396) - http://www.bohemiancoding.com/sketch -->
    <title>icLockSelected</title>
    <desc>Created with Sketch.</desc>
    <defs></defs>
    <g id="Page-1" stroke="none" stroke-width="1" fill="none" fill-rule="evenodd">
        <g id="Messenger-Inbox---photo-upload---album-1-selected" transform="translate(-19.000000, -516.000000)" stroke="#7EC34D" fill="#7EC34D">
            <g id="lock---selected" transform="translate(20.000000, 517.000000)">
                <g id="Group-8">
                    <path d="M14.8880504,16.9861638 C14.8880504,18.0332039 14.0564465,18.8852177 13.0344881,18.8852177 L2.56251706,18.8852177 C1.54055874,18.8852177 0.708954782,18.0332039 0.708954782,16.9861638 L0.708954782,9.88895373 C0.708954782,8.84191367 1.54055874,7.98989981 2.56251706,7.98989981 L13.0344881,7.98989981 C14.0564465,7.98989981 14.8880504,8.84191367 14.8880504,9.88895373 L14.8880504,16.9861638 Z M2.83581913,5.26607033 C2.83581913,2.76268945 5.06193714,0.726354528 7.7985026,0.726354528 C10.5350681,0.726354528 12.7611861,2.76268945 12.7611861,5.26607033 L12.7611861,7.26354528 L2.83581913,7.26354528 L2.83581913,5.26607033 Z M13.4701409,7.30458431 L13.4701409,5.26607033 C13.4701409,2.3624681 10.9257021,0 7.7985026,0 C4.67130306,0 2.12686435,2.3624681 2.12686435,5.26607033 L2.12686435,7.30458431 C0.921286739,7.51740619 0,8.5938636 0,9.8893169 L0,16.986527 C0,18.4337884 1.14957018,19.6115723 2.56251706,19.6115723 L13.0344881,19.6115723 C14.447435,19.6115723 15.5970052,18.4337884 15.5970052,16.9861638 L15.5970052,9.88895373 C15.5970052,8.5938636 14.6757185,7.51740619 13.4701409,7.30458431 L13.4701409,7.30458431 Z" id="Fill-1" stroke-width="0.3"></path>
                    <path d="M8.79353101,14.2984393 C8.79353101,14.6990238 8.47556479,15.0247938 8.08457623,15.0247938 C7.69358767,15.0247938 7.37562145,14.6990238 7.37562145,14.2984393 L7.37562145,12.1193757 C7.37562145,11.7187912 7.69358767,11.3930212 8.08457623,11.3930212 C8.47556479,11.3930212 8.79353101,11.7187912 8.79353101,12.1193757 L8.79353101,14.2984393 Z M8.08457623,10.6666667 C7.30259911,10.6666667 6.66666667,11.3182067 6.66666667,12.1193757 L6.66666667,14.2984393 C6.66666667,15.0996084 7.30259911,15.7511484 8.08457623,15.7511484 C8.86655336,15.7511484 9.5024858,15.0996084 9.5024858,14.2984393 L9.5024858,12.1193757 C9.5024858,11.3182067 8.86655336,10.6666667 8.08457623,10.6666667 L8.08457623,10.6666667 Z" id="Fill-3" stroke-width="0.3"></path>
                </g>
            </g>
        </g>
    </g>
</svg>