<?xml version="1.0" encoding="UTF-8"?>
<svg width="17px" height="20px" viewBox="0 0 17 20" version="1.1" xmlns="http://www.w3.org/2000/svg" xmlns:xlink="http://www.w3.org/1999/xlink">
    <!-- Generator: Sketch 47 (45396) - http://www.bohemiancoding.com/sketch -->
    <title>icLockModal</title>
    <desc>Created with Sketch.</desc>
    <defs></defs>
    <g id="Page-1" stroke="none" stroke-width="1" fill="none" fill-rule="evenodd">
        <g id="Messenger-Inbox---photo-upload" transform="translate(-20.000000, -517.000000)" stroke="#666666" stroke-width="0.3" fill="#666666">
            <g id="lock" transform="translate(20.000000, 517.000000)">
                <path d="M15.2818456,17.1795639 C15.2818456,18.2266039 14.4394504,19.0786178 13.4042308,19.0786178 L2.79637145,19.0786178 C1.76115182,19.0786178 0.918756658,18.2266039 0.918756658,17.1795639 L0.918756658,10.0823538 C0.918756658,9.03531374 1.76115182,8.18329988 2.79637145,8.18329988 L13.4042308,8.18329988 C14.4394504,8.18329988 15.2818456,9.03531374 15.2818456,10.0823538 L15.2818456,17.1795639 Z M3.07321999,5.4594704 C3.07321999,2.95608951 5.32822495,0.919754593 8.10030111,0.919754593 C10.8723773,0.919754593 13.1273822,2.95608951 13.1273822,5.4594704 L13.1273822,7.45694535 L3.07321999,7.45694535 L3.07321999,5.4594704 Z M13.8455367,7.49798438 L13.8455367,5.4594704 C13.8455367,2.55586817 11.2680804,0.193400065 8.10030111,0.193400065 C4.93252185,0.193400065 2.35506555,2.55586817 2.35506555,5.4594704 L2.35506555,7.49798438 C1.13384391,7.71080626 0.200602214,8.78726367 0.200602214,10.082717 L0.200602214,17.1799271 C0.200602214,18.6271885 1.36508965,19.8049723 2.79637145,19.8049723 L13.4042308,19.8049723 C14.8355126,19.8049723 16,18.6271885 16,17.1795639 L16,10.0823538 C16,8.78726367 15.0667583,7.71080626 13.8455367,7.49798438 L13.8455367,7.49798438 Z" id="Fill-1"></path>
                <path d="M8.7080596,13.9941361 C8.7080596,14.3947206 8.39009338,14.7204906 7.99910482,14.7204906 C7.60811626,14.7204906 7.29015004,14.3947206 7.29015004,13.9941361 L7.29015004,11.8150725 C7.29015004,11.414488 7.60811626,11.088718 7.99910482,11.088718 C8.39009338,11.088718 8.7080596,11.414488 8.7080596,11.8150725 L8.7080596,13.9941361 Z M7.99910482,10.3623635 C7.21712769,10.3623635 6.58119525,11.0139035 6.58119525,11.8150725 L6.58119525,13.9941361 C6.58119525,14.7953051 7.21712769,15.4468452 7.99910482,15.4468452 C8.78108194,15.4468452 9.41701438,14.7953051 9.41701438,13.9941361 L9.41701438,11.8150725 C9.41701438,11.0139035 8.78108194,10.3623635 7.99910482,10.3623635 L7.99910482,10.3623635 Z" id="Fill-3"></path>
                <path d="M8.7080596,13.9941361 C8.7080596,14.3947206 8.39009338,14.7204906 7.99910482,14.7204906 C7.60811626,14.7204906 7.29015004,14.3947206 7.29015004,13.9941361 L7.29015004,11.8150725 C7.29015004,11.414488 7.60811626,11.088718 7.99910482,11.088718 C8.39009338,11.088718 8.7080596,11.414488 8.7080596,11.8150725 L8.7080596,13.9941361 Z M7.99910482,10.3623635 C7.21712769,10.3623635 6.58119525,11.0139035 6.58119525,11.8150725 L6.58119525,13.9941361 C6.58119525,14.7953051 7.21712769,15.4468452 7.99910482,15.4468452 C8.78108194,15.4468452 9.41701438,14.7953051 9.41701438,13.9941361 L9.41701438,11.8150725 C9.41701438,11.0139035 8.78108194,10.3623635 7.99910482,10.3623635 L7.99910482,10.3623635 Z" id="Fill-3"></path>
            </g>
        </g>
    </g>
</svg>