<?xml version="1.0" encoding="UTF-8"?>
<svg width="6px" height="20px" viewBox="0 0 6 20" version="1.1" xmlns="http://www.w3.org/2000/svg" xmlns:xlink="http://www.w3.org/1999/xlink">
    <!-- Generator: Sketch 48.1 (47250) - http://www.bohemiancoding.com/sketch -->
    <title>icMenu</title>
    <desc>Created with Sketch.</desc>
    <defs></defs>
    <g id="Conversation--UP-(Guset)" stroke="none" stroke-width="1" fill="none" fill-rule="evenodd" transform="translate(-350.000000, -81.000000)">
        <g id="Menu" transform="translate(350.000000, 81.000000)" fill="#CCCCCC">
            <g transform="translate(3.000000, 10.000000) scale(-1, -1) rotate(90.000000) translate(-3.000000, -10.000000) translate(-7.000000, 7.500000)">
                <path d="M5,2.5 C5,3.88025 3.88075,5 2.5,5 C1.11925,5 0,3.88025 0,2.5 C0,1.11925 1.11925,0 2.5,0 C3.88075,0 5,1.11925 5,2.5 Z" id="Fill-1"></path>
                <path d="M12.5,2.5 C12.5,3.88025 11.38075,5 10,5 C8.61975,5 7.5,3.88025 7.5,2.5 C7.5,1.11925 8.61975,0 10,0 C11.38075,0 12.5,1.11925 12.5,2.5 Z" id="Fill-3"></path>
                <path d="M17.5,0 C18.88075,0 20,1.11925 20,2.5 C20,3.88025 18.88075,5 17.5,5 C16.11975,5 15,3.88025 15,2.5 C15,1.11925 16.11975,0 17.5,0" id="Fill-5"></path>
            </g>
        </g>
    </g>
</svg>