<?xml version="1.0" encoding="UTF-8"?>
<svg width="24px" height="24px" viewBox="0 0 24 24" version="1.1" xmlns="http://www.w3.org/2000/svg" xmlns:xlink="http://www.w3.org/1999/xlink">
    <!-- Generator: Sketch 52.2 (67145) - http://www.bohemiancoding.com/sketch -->
    <title>icOffMic</title>
    <desc>Created with Sketch.</desc>
    <g id="Page-1" stroke="none" stroke-width="1" fill="none" fill-rule="evenodd">
        <g id="buttons-states" transform="translate(-211.000000, -340.000000)" fill="#FFFFFF">
            <g id="Group-12-Copy" transform="translate(57.000000, 326.000000)">
                <g id="Group-7">
                    <g id="Group-6">
                        <g id="icOffMic" transform="translate(140.000000, 0.000000)">
                            <g id="Group-5">
                                <g id="Group-21">
                                    <g id="Group-8">
                                        <g id="icOffMic" transform="translate(14.000000, 14.000000)">
                                            <g id="turn-microphone-off-button" transform="translate(4.000000, 1.000000)" fill-rule="nonzero">
                                                <path d="M11.3333043,10.3029014 L4.66665214,3.58361787 L4.66665214,3.35964175 C4.66665214,1.45584476 6.11109344,0 7.99997821,0 C9.88886299,0 11.3333043,1.45584476 11.3333043,3.35964175 L11.3333043,10.0789252 C11.3333043,10.1909133 11.3333043,10.1909133 11.3333043,10.3029014 Z M4.66665214,8.80932617 L12.2458496,16.3855794 C11.4680735,16.8334877 10.1111283,17.4701371 9.11113048,17.5821252 L9.11113048,21.2777311 L6.8889131,21.2777311 L6.8889131,17.5821252 C3.22225442,17.0221849 0.222260954,13.8865192 0.222260954,10.0789252 L2.2222566,10.0789252 C2.2222566,13.438567 5.00002832,15.7903162 8.11113266,15.7903162 C9.00001961,15.7903162 10.0793581,15.3794928 10.8571777,15.0435286 L9.11113048,13.2057292 C8.77779787,13.3177172 8.22219995,13.438567 7.99997821,13.438567 C6.11109344,13.438567 4.66665214,11.9827222 4.66665214,10.0789252 L4.66665214,8.80932617 Z" id="Combined-Shape"></path>
                                            </g>
                                            <path d="M12.0208153,-3.97918472 L12.0208153,-3.97918472 C12.5731,-3.97918472 13.0208153,-3.53146947 13.0208153,-2.97918472 L13.0208153,27.0208153 C13.0208153,27.5731 12.5731,28.0208153 12.0208153,28.0208153 L12.0208153,28.0208153 C11.4685305,28.0208153 11.0208153,27.5731 11.0208153,27.0208153 L11.0208153,-2.97918472 C11.0208153,-3.53146947 11.4685305,-3.97918472 12.0208153,-3.97918472 Z" id="Rectangle-10" transform="translate(12.020815, 12.020815) rotate(-45.000000) translate(-12.020815, -12.020815) "></path>
                                        </g>
                                    </g>
                                </g>
                            </g>
                        </g>
                    </g>
                </g>
            </g>
        </g>
    </g>
</svg>