<?xml version="1.0" encoding="UTF-8"?>
<svg width="24px" height="23px" viewBox="0 0 24 23" version="1.1" xmlns="http://www.w3.org/2000/svg" xmlns:xlink="http://www.w3.org/1999/xlink">
    <!-- Generator: Sketch 52.1 (67048) - http://www.bohemiancoding.com/sketch -->
    <title>Icons/Edit 2</title>
    <desc>Created with Sketch.</desc>
    <defs>
        <path d="M20.1627894,5.51900021 L19.4376496,6.24414001 L16.5332333,3.33972369 L17.2583731,2.61458389 C18.0336555,1.83930145 19.387507,1.83930145 20.1627894,2.61458389 C20.5504306,3.00222512 20.7645011,3.51715151 20.7645011,4.06679205 C20.7645011,4.61643259 20.5504306,5.13135899 20.1627894,5.51900021 Z M6.58956095,19.0941572 L2.71700586,20.062296 L3.68514463,16.1897409 L15.0810251,4.79386041 L17.9854414,7.69827673 L6.58956095,19.0941572 Z M21.6149976,1.1643043 C20.0644327,-0.388189152 17.3586584,-0.388189152 15.8061649,1.1643043 L2.03043733,14.9400319 C1.89929502,15.0711742 1.80479542,15.2370306 1.76043846,15.416387 L0.310158869,21.2232911 C0.223373521,21.5723611 0.325587376,21.9426452 0.58015773,22.1991441 C0.774942623,22.393929 1.03722723,22.5 1.30529753,22.5 C1.38822575,22.5 1.47115397,22.4903572 1.55408219,22.469143 L7.36291483,21.0169348 C7.54419978,20.9725779 7.70812766,20.8780783 7.83926996,20.746936 L21.6149976,6.97120837 C22.39028,6.19592593 22.8184211,5.16414457 22.8184211,4.06679205 C22.8184211,2.96943954 22.3922086,1.93958674 21.6149976,1.1643043 Z" id="path-1"></path>
    </defs>
    <g id="Page-1" stroke="none" stroke-width="1" fill="none" fill-rule="evenodd">
        <g id="Messenger-Inbox---Report-Options" transform="translate(-23.000000, -559.000000)">
            <g id="Icons/Edit-2" transform="translate(22.000000, 558.000000)">
                <g id="Icons/Edit">
                    <g id="colour/light-green" transform="translate(1.500000, 1.000000)">
                        <mask id="mask-2" fill="white">
                            <use xlink:href="#path-1"></use>
                        </mask>
                        <use id="Mask" fill="#CCCCCC" xlink:href="#path-1"></use>
                        <g id="colour/black" mask="url(#mask-2)" fill="#333333">
                            <g transform="translate(-2.000000, -1.500000)">
                                <polygon points="0 0 26 0 26 26 0 26"></polygon>
                            </g>
                        </g>
                    </g>
                </g>
            </g>
        </g>
    </g>
</svg>