<?xml version="1.0" encoding="UTF-8"?>
<svg width="17px" height="17px" viewBox="0 0 17 17" version="1.1" xmlns="http://www.w3.org/2000/svg" xmlns:xlink="http://www.w3.org/1999/xlink">
    <!-- Generator: Sketch 48.1 (47250) - http://www.bohemiancoding.com/sketch -->
    <title>icPhotoWeb</title>
    <desc>Created with Sketch.</desc>
    <defs></defs>
    <g id="1---USER-STARTS-CALL" stroke="none" stroke-width="1" fill="none" fill-rule="evenodd">
        <g id="icPhotoWeb" transform="translate(0.000000, 1.000000)" stroke="#666666" stroke-width="0.8">
            <path d="M4.68269428,1.91579022 C4.83643565,1.88737906 4.95743122,1.85334278 5.045681,1.81368138 C5.53279562,1.59476133 5.8742971,0.997982599 6.07018545,0.0233451797 C10.7615485,1.31197774 11.2522974,1.95629403 11.8554082,1.95629403 C11.8554082,1.95629403 11.8554082,1.95629403 11.8554082,1.95629403 L11.8554082,1.95629403 C14.1417574,1.95629403 15.9952097,3.80974628 15.9952097,6.0960955 C15.9952097,6.10127196 15.9952,6.10644841 15.9951806,6.11162482 L15.9813062,9.81022713 C15.9709749,12.5643096 13.7354432,14.791471 10.9813414,14.791471 L5.59130076,14.791471 C2.82987701,14.791471 0.591300761,12.5528948 0.591300761,9.79147101 L0.591307652,6.83253359 C0.591307652,4.42154174 2.31184537,2.35391939 4.68269428,1.91579022 Z" id="Rectangle" fill="#FFFFFF"></path>
            <ellipse id="Oval-6" cx="8.2962963" cy="8.38095238" rx="1.52400897" ry="1.55491485"></ellipse>
            <ellipse id="Oval-6" cx="8.2962963" cy="8.38095238" rx="3.04801794" ry="3.1098297"></ellipse>
        </g>
    </g>
</svg>