<?xml version="1.0" encoding="UTF-8"?>
<svg width="14px" height="17px" viewBox="0 0 14 17" version="1.1" xmlns="http://www.w3.org/2000/svg" xmlns:xlink="http://www.w3.org/1999/xlink">
    <!-- Generator: Sketch 47 (45396) - http://www.bohemiancoding.com/sketch -->
    <title>icPrivate</title>
    <desc>Created with Sketch.</desc>
    <defs></defs>
    <g id="Page-1" stroke="none" stroke-width="1" fill="none" fill-rule="evenodd">
        <g id="Open-image1" transform="translate(-220.000000, -42.000000)" stroke-width="0.3" stroke="#FFFFFF" fill="#FFFFFF">
            <g id="Group-7" transform="translate(9.000000, 30.000000)">
                <g id="Group-16">
                    <g id="Group-5" transform="translate(89.000000, 0.000000)">
                        <g id="Group-9" transform="translate(29.000000, 0.000000)">
                            <g id="Group-6">
                                <g id="Group-4" transform="translate(11.000000, 13.000000)">
                                    <g id="Group-8">
                                        <path d="M94.5349574,12.9919444 C94.5349574,13.7927778 93.8906476,14.4444444 93.0988552,14.4444444 L84.9853859,14.4444444 C84.1935934,14.4444444 83.5492837,13.7927778 83.5492837,12.9919444 L83.5492837,7.56361111 C83.5492837,6.76277778 84.1935934,6.11111111 84.9853859,6.11111111 L93.0988552,6.11111111 C93.8906476,6.11111111 94.5349574,6.76277778 94.5349574,7.56361111 L94.5349574,12.9919444 Z M85.1971347,4.02777778 C85.1971347,2.11305556 86.9218855,0.555555556 89.0421205,0.555555556 C91.1623556,0.555555556 92.8871063,2.11305556 92.8871063,4.02777778 L92.8871063,5.55555556 L85.1971347,5.55555556 L85.1971347,4.02777778 Z M93.43639,4.02777778 C93.43639,1.80694444 91.4650109,0 89.0421205,0 C86.6192302,0 84.6478511,1.80694444 84.6478511,4.02777778 L84.6478511,5.58694444 C83.7137941,5.74972222 83,6.57305556 83,7.56388889 L83,12.9922222 C83,14.0991667 83.8906635,15 84.9853859,15 L93.43639,15 C94.5311124,15 95.0842411,14.0991667 95.0842411,12.9919444 L95.0842411,7.56361111 C95.0842411,6.57305556 94.3704469,5.74972222 93.43639,5.58694444 L93.43639,4.02777778 Z" id="icPrivate"></path>
                                    </g>
                                </g>
                            </g>
                        </g>
                    </g>
                </g>
            </g>
        </g>
    </g>
</svg>