<?xml version="1.0" encoding="UTF-8"?>
<svg width="25px" height="25px" viewBox="0 0 25 25" version="1.1" xmlns="http://www.w3.org/2000/svg" xmlns:xlink="http://www.w3.org/1999/xlink">
    <!-- Generator: Sketch 51.3 (57544) - http://www.bohemiancoding.com/sketch -->
    <title>Interaction field</title>
    <desc>Created with Sketch.</desc>
    <defs>
        <path d="M5.86969472,1.35531915 C3.34373299,1.35531915 1.29603643,3.40909379 1.29603643,5.94255319 L1.29603643,18.5574468 C1.29603643,21.0909062 3.34373299,23.1446809 5.86969472,23.1446809 L19.0189623,23.1446809 C21.544924,23.1446809 23.5926206,21.0909062 23.5926206,18.5574468 L23.5926206,5.94255319 C23.5926206,3.40909379 21.544924,1.35531915 19.0189623,1.35531915 L5.86969472,1.35531915 Z M5.86969472,0.208510638 L19.0189623,0.208510638 C22.1764144,0.208510638 24.7360352,2.77572893 24.7360352,5.94255319 L24.7360352,18.5574468 C24.7360352,21.7242711 22.1764144,24.2914894 19.0189623,24.2914894 L5.86969472,24.2914894 C2.71224256,24.2914894 0.152621858,21.7242711 0.152621858,18.5574468 L0.152621858,5.94255319 C0.152621858,2.77572893 2.71224256,0.208510638 5.86969472,0.208510638 Z" id="path-1"></path>
        <path d="M12.7584722,5.36914894 C13.1612457,5.36914894 13.7837138,5.87879705 13.7837138,6.27923486 L13.4175561,14.6520254 C13.4175561,15.0524632 13.0880142,15.3800941 12.6852407,15.3800941 C12.2824672,15.3800941 11.9529253,15.0524632 11.9529253,14.6520254 L11.7698464,6.3156383 C11.7698464,5.91520049 12.3923145,5.36914894 12.7584722,5.36914894 Z M12.6852407,17.200266 C13.3077088,17.200266 13.7837138,17.6735106 13.7837138,18.2923691 C13.7837138,18.9112275 13.3077088,19.3844722 12.6852407,19.3844722 C12.0627726,19.3844722 11.5867676,18.9112275 11.5867676,18.2923691 C11.5867676,17.6735106 12.0627726,17.200266 12.6852407,17.200266 Z" id="path-3"></path>
    </defs>
    <g id="Page-1" stroke="none" stroke-width="1" fill="none" fill-rule="evenodd">
        <g id="Messenger-Inbox---chating---Menu" transform="translate(-24.000000, -556.000000)">
            <g id="Group-13" transform="translate(8.000000, 440.000000)">
                <g id="Group">
                    <g id="Group-5" transform="translate(1.000000, 0.000000)">
                        <g id="Interaction-field" transform="translate(15.000000, 116.000000)">
                            <g id="Icons/Messages">
                                <mask id="mask-2" fill="white">
                                    <use xlink:href="#path-1"></use>
                                </mask>
                                <use id="Mask" fill="#333333" fill-rule="nonzero" xlink:href="#path-1"></use>
                                <mask id="mask-4" fill="white">
                                    <use xlink:href="#path-3"></use>
                                </mask>
                                <use id="Mask" fill="#333333" fill-rule="nonzero" xlink:href="#path-3"></use>
                            </g>
                        </g>
                    </g>
                </g>
            </g>
        </g>
    </g>
</svg>