<?xml version="1.0" encoding="UTF-8"?>
<svg width="25px" height="25px" viewBox="0 0 25 25" version="1.1" xmlns="http://www.w3.org/2000/svg" xmlns:xlink="http://www.w3.org/1999/xlink">
    <!-- Generator: Sketch 51.3 (57544) - http://www.bohemiancoding.com/sketch -->
    <title>Interaction field</title>
    <desc>Created with Sketch.</desc>
    <defs>
        <path d="M5.71707286,1.14680851 C3.19111114,1.14680851 1.14341457,3.20058315 1.14341457,5.73404255 L1.14341457,18.3489362 C1.14341457,20.8823956 3.19111114,22.9361702 5.71707286,22.9361702 L18.8663404,22.9361702 C21.3923022,22.9361702 23.4399987,20.8823956 23.4399987,18.3489362 L23.4399987,5.73404255 C23.4399987,3.20058315 21.3923022,1.14680851 18.8663404,1.14680851 L5.71707286,1.14680851 Z M5.71707286,0 L18.8663404,0 C22.0237926,-5.09285285e-16 24.5834133,2.5672183 24.5834133,5.73404255 L24.5834133,18.3489362 C24.5834133,21.5157604 22.0237926,24.0829787 18.8663404,24.0829787 L5.71707286,24.0829787 C2.55962071,24.0829787 5.07778074e-16,21.5157604 0,18.3489362 L1.01555615e-15,5.73404255 C5.07778074e-16,2.5672183 2.55962071,5.09285285e-16 5.71707286,0 Z" id="path-1"></path>
        <path d="M1.17170465,0 C1.57447812,0 2.19694621,0.509648118 2.19694621,0.910085925 L1.83078851,9.28287643 C1.83078851,9.68331424 1.50124658,10.0109452 1.09847311,10.0109452 C0.695699634,10.0109452 0.366157702,9.68331424 0.366157702,9.28287643 L0.183078851,0.946489362 C0.183078851,0.546051555 0.805546945,0 1.17170465,0 Z M1.09847311,11.831117 C1.7209412,11.831117 2.19694621,12.3043617 2.19694621,12.9232201 C2.19694621,13.5420786 1.7209412,14.0153232 1.09847311,14.0153232 C0.476005013,14.0153232 0,13.5420786 0,12.9232201 C0,12.3043617 0.476005013,11.831117 1.09847311,11.831117 Z" id="path-3"></path>
    </defs>
    <g id="Page-1" stroke="none" stroke-width="1" fill="none" fill-rule="evenodd">
        <g id="Messenger-Inbox---chating-profile-1" transform="translate(-29.000000, -554.000000)">
            <g id="Interaction-field" transform="translate(29.000000, 554.000000)">
                <g id="Icons/Messages">
                    <g id="colour/dark-grey-copy" transform="translate(0.152622, 0.208511)">
                        <mask id="mask-2" fill="white">
                            <use xlink:href="#path-1"></use>
                        </mask>
                        <use id="Mask" fill="#979797" fill-rule="nonzero" xlink:href="#path-1"></use>
                        <g mask="url(#mask-2)" fill="#646464" id="colour/dark-grey">
                            <g transform="translate(-1.715122, -2.293617)">
                                <rect x="0" y="0" width="28.5853643" height="28.6702128"></rect>
                            </g>
                        </g>
                    </g>
                    <g id="colour/dark-grey" transform="translate(11.586768, 5.369149)">
                        <mask id="mask-4" fill="white">
                            <use xlink:href="#path-3"></use>
                        </mask>
                        <use id="Mask" fill="#000000" fill-rule="nonzero" xlink:href="#path-3"></use>
                        <g mask="url(#mask-4)" fill="#646464">
                            <g transform="translate(-13.149268, -7.454255)">
                                <rect x="0" y="0" width="28.5853643" height="28.6702128"></rect>
                            </g>
                        </g>
                    </g>
                </g>
            </g>
        </g>
    </g>
</svg>