<?xml version="1.0" encoding="UTF-8"?>
<svg width="25px" height="25px" viewBox="0 0 25 25" version="1.1" xmlns="http://www.w3.org/2000/svg" xmlns:xlink="http://www.w3.org/1999/xlink">
    <!-- Generator: Sketch 51.3 (57544) - http://www.bohemiancoding.com/sketch -->
    <title>icSettings</title>
    <desc>Created with Sketch.</desc>
    <defs></defs>
    <g id="Page-1" stroke="none" stroke-width="1" fill="none" fill-rule="evenodd">
        <g id="Messenger-Inbox" transform="translate(-15.000000, -72.000000)" fill="#000000" fill-rule="nonzero">
            <g id="Header" transform="translate(0.000000, 64.000000)">
                <g id="Group-3">
                    <g id="icSettings" transform="translate(15.000000, 8.000000)">
                        <path d="M1.3253012,15.060241 L2.74096386,15.060241 C3.04216867,15.060241 3.31325301,15.2710843 3.43373494,15.5421687 C3.52409639,15.8433735 3.64457831,16.1144578 3.79518072,16.3855422 C3.91566265,16.6566265 3.88554217,16.9879518 3.6746988,17.2289157 L2.68072289,18.2228916 C2.1686747,18.7349398 2.1686747,19.5783133 2.68072289,20.0903614 L4.63855422,22.0481928 C5.15060241,22.560241 5.9939759,22.560241 6.5060241,22.0481928 L7.5,21.0542169 C7.71084337,20.8433735 8.04216867,20.7831325 8.34337349,20.9337349 C8.61445783,21.0542169 8.91566265,21.1746988 9.18674699,21.2951807 C9.48795181,21.4156627 9.6686747,21.686747 9.6686747,21.9879518 L9.6686747,23.4036145 C9.6686747,24.126506 10.2710843,24.7289157 10.9939759,24.7289157 L13.7650602,24.7289157 C14.4879518,24.7289157 15.0903614,24.126506 15.0903614,23.4036145 L15.0903614,21.9879518 C15.0903614,21.686747 15.3012048,21.4156627 15.5722892,21.2951807 C15.873494,21.2048193 16.1445783,21.0843373 16.4156627,20.9337349 C16.686747,20.813253 17.0481928,20.8433735 17.2590361,21.0542169 L18.253012,22.0481928 C18.7650602,22.560241 19.6084337,22.560241 20.1204819,22.0481928 L22.0783133,20.0903614 C22.5903614,19.5783133 22.5903614,18.7349398 22.0783133,18.2228916 L21.0843373,17.2289157 C20.873494,17.0180723 20.813253,16.686747 20.9638554,16.3855422 C21.0843373,16.1144578 21.2048193,15.813253 21.3253012,15.5421687 C21.4457831,15.2409639 21.7168675,15.060241 22.0180723,15.060241 L23.4337349,15.060241 C24.1566265,15.060241 24.7590361,14.4578313 24.7590361,13.7349398 L24.7590361,10.9638554 C24.7590361,10.2409639 24.1566265,9.63855422 23.4337349,9.63855422 L22.0180723,9.63855422 C21.7168675,9.63855422 21.4457831,9.42771084 21.3253012,9.15662651 C21.2349398,8.85542169 21.1144578,8.58433735 20.9638554,8.31325301 C20.8433735,8.04216867 20.873494,7.71084337 21.0843373,7.46987952 L22.0783133,6.47590361 C22.5903614,5.96385542 22.5903614,5.12048193 22.0783133,4.60843373 L20.1204819,2.65060241 C19.6084337,2.13855422 18.7650602,2.13855422 18.253012,2.65060241 L17.2590361,3.64457831 C17.0481928,3.85542169 16.7168675,3.91566265 16.4156627,3.76506024 C16.1445783,3.64457831 15.8433735,3.52409639 15.5722892,3.40361446 C15.2710843,3.28313253 15.0903614,3.01204819 15.0903614,2.71084337 L15.0903614,1.29518072 C15.060241,0.602409639 14.4578313,0 13.7349398,0 L10.9638554,0 C10.2409639,0 9.63855422,0.602409639 9.63855422,1.3253012 L9.63855422,2.74096386 C9.63855422,3.04216867 9.42771084,3.31325301 9.15662651,3.43373494 C8.85542169,3.52409639 8.58433735,3.64457831 8.31325301,3.79518072 C8.04216867,3.91566265 7.68072289,3.88554217 7.46987952,3.6746988 L6.47590361,2.68072289 C5.96385542,2.1686747 5.12048193,2.1686747 4.60843373,2.68072289 L2.65060241,4.63855422 C2.13855422,5.15060241 2.13855422,5.9939759 2.65060241,6.5060241 L3.64457831,7.5 C3.85542169,7.71084337 3.91566265,8.04216867 3.76506024,8.34337349 C3.64457831,8.61445783 3.52409639,8.91566265 3.40361446,9.18674699 C3.28313253,9.48795181 3.01204819,9.6686747 2.71084337,9.6686747 L1.29518072,9.6686747 C0.602409639,9.63855422 0,10.2409639 0,10.9638554 L0,13.7349398 C0,14.4578313 0.602409639,15.060241 1.3253012,15.060241 Z M0.602409639,10.9638554 C0.602409639,10.5722892 0.93373494,10.2409639 1.3253012,10.2409639 L2.74096386,10.2409639 C3.28313253,10.2409639 3.79518072,9.87951807 3.97590361,9.3373494 C4.06626506,9.06626506 4.18674699,8.79518072 4.30722892,8.55421687 C4.54819277,8.04216867 4.45783133,7.43975904 4.06626506,7.04819277 L3.07228916,6.05421687 C2.80120482,5.78313253 2.80120482,5.3313253 3.07228916,5.03012048 L5.03012048,3.07228916 C5.30120482,2.80120482 5.75301205,2.80120482 6.05421687,3.07228916 L7.04819277,4.06626506 C7.43975904,4.45783133 8.04216867,4.54819277 8.55421687,4.30722892 C8.8253012,4.18674699 9.06626506,4.06626506 9.3373494,3.97590361 C9.87951807,3.79518072 10.2409639,3.28313253 10.2409639,2.74096386 L10.2409639,1.3253012 C10.2409639,0.93373494 10.5722892,0.602409639 10.9638554,0.602409639 L13.7349398,0.602409639 C14.126506,0.602409639 14.4578313,0.93373494 14.4578313,1.3253012 L14.4578313,2.74096386 C14.4578313,3.28313253 14.8192771,3.79518072 15.3614458,3.97590361 C15.6325301,4.06626506 15.9036145,4.18674699 16.1445783,4.30722892 C16.6566265,4.54819277 17.2590361,4.45783133 17.6506024,4.06626506 L18.6445783,3.07228916 C18.9156627,2.80120482 19.3674699,2.80120482 19.6686747,3.07228916 L21.626506,5.03012048 C21.8975904,5.30120482 21.8975904,5.75301205 21.626506,6.05421687 L20.6325301,7.04819277 C20.2409639,7.43975904 20.1506024,8.04216867 20.3915663,8.55421687 C20.5120482,8.8253012 20.6325301,9.06626506 20.7228916,9.3373494 C20.9036145,9.87951807 21.4156627,10.2409639 21.9578313,10.2409639 L23.373494,10.2409639 C23.7650602,10.2409639 24.0963855,10.5722892 24.0963855,10.9638554 L24.0963855,13.7349398 C24.0963855,14.126506 23.7650602,14.4578313 23.373494,14.4578313 L21.9578313,14.4578313 C21.4156627,14.4578313 20.9036145,14.8192771 20.7228916,15.3614458 C20.6325301,15.6325301 20.5120482,15.9036145 20.3915663,16.1445783 C20.1506024,16.6566265 20.2409639,17.2590361 20.6325301,17.6506024 L21.626506,18.6445783 C21.8975904,18.9156627 21.8975904,19.3674699 21.626506,19.6686747 L19.6686747,21.626506 C19.3975904,21.8975904 18.9457831,21.8975904 18.6445783,21.626506 L17.6506024,20.6325301 C17.2590361,20.2409639 16.6566265,20.1506024 16.1445783,20.3915663 C15.873494,20.5120482 15.6325301,20.6325301 15.3614458,20.7228916 C14.8192771,20.9036145 14.4578313,21.4156627 14.4578313,21.9578313 L14.4578313,23.373494 C14.4578313,23.7650602 14.126506,24.0963855 13.7349398,24.0963855 L10.9638554,24.0963855 C10.5722892,24.0963855 10.2409639,23.7650602 10.2409639,23.373494 L10.2409639,21.9578313 C10.2409639,21.4156627 9.87951807,20.9036145 9.3373494,20.7228916 C9.06626506,20.6325301 8.79518072,20.5120482 8.55421687,20.3915663 C8.37349398,20.3012048 8.1626506,20.2710843 7.98192771,20.2710843 C7.65060241,20.2710843 7.28915663,20.3915663 7.04819277,20.6626506 L6.05421687,21.6566265 C5.78313253,21.9277108 5.3313253,21.9277108 5.03012048,21.6566265 L3.07228916,19.6987952 C2.80120482,19.4277108 2.80120482,18.9759036 3.07228916,18.6746988 L4.06626506,17.6807229 C4.45783133,17.2891566 4.54819277,16.686747 4.30722892,16.1746988 C4.18674699,15.9036145 4.06626506,15.6626506 3.97590361,15.3915663 C3.79518072,14.8493976 3.28313253,14.4879518 2.74096386,14.4879518 L1.3253012,14.4879518 C0.93373494,14.4879518 0.602409639,14.1566265 0.602409639,13.7650602 L0.602409639,10.9638554 Z" id="Shape"></path>
                        <path d="M12.3493976,17.9216867 C15.4216867,17.9216867 17.9216867,15.4216867 17.9216867,12.3493976 C17.9216867,9.27710843 15.4216867,6.77710843 12.3493976,6.77710843 C9.27710843,6.77710843 6.77710843,9.27710843 6.77710843,12.3493976 C6.77710843,15.4216867 9.27710843,17.9216867 12.3493976,17.9216867 Z M12.3493976,7.37951807 C15.0903614,7.37951807 17.3192771,9.60843373 17.3192771,12.3493976 C17.3192771,15.0903614 15.0903614,17.3192771 12.3493976,17.3192771 C9.60843373,17.3192771 7.37951807,15.0903614 7.37951807,12.3493976 C7.37951807,9.60843373 9.60843373,7.37951807 12.3493976,7.37951807 Z" id="Shape"></path>
                    </g>
                </g>
            </g>
        </g>
    </g>
</svg>