<?xml version="1.0" encoding="UTF-8"?>
<svg width="17px" height="17px" viewBox="0 0 17 17" version="1.1" xmlns="http://www.w3.org/2000/svg" xmlns:xlink="http://www.w3.org/1999/xlink">
    <!-- Generator: Sketch 47 (45396) - http://www.bohemiancoding.com/sketch -->
    <title>icSearch</title>
    <desc>Created with Sketch.</desc>
    <defs></defs>
    <g id="Page-1" stroke="none" stroke-width="1" fill="none" fill-rule="evenodd">
        <g id="Messenger-Inbox" transform="translate(-338.000000, -251.000000)" stroke="#666666">
            <g id="search" transform="translate(339.000000, 251.000000)">
                <path d="M6.37321137,12.4104854 C3.33853132,12.4104854 0.86954813,9.9667039 0.86954813,6.96182199 C0.86954813,3.95772815 3.33853132,1.51394667 6.37321137,1.51394667 C9.40789142,1.51394667 11.8768746,3.95772815 11.8768746,6.96182199 C11.8768746,9.9667039 9.40789142,12.4104854 6.37321137,12.4104854 M10.6780265,11.2118425 C11.7756931,10.1219522 12.456369,8.61911721 12.456369,6.96182199 C12.456369,3.64171513 9.72753314,0.940237242 6.37321137,0.940237242 C3.01888959,0.940237242 0.290053784,3.64171513 0.290053784,6.96182199 C0.290053784,10.2827169 3.01888959,12.9841948 6.37321137,12.9841948 C7.84570957,12.9841948 9.19709652,12.4632856 10.2503045,11.5987811 L14.564318,16.0403008 C14.621041,16.0994055 14.6969271,16.1285638 14.7735798,16.1285638 C14.8456333,16.1285638 14.9176869,16.1017696 14.9744099,16.0481814 C15.0893889,15.9386407 15.0932215,15.7573864 14.9820751,15.6431173 L10.6780265,11.2118425 Z" id="Stroke-6"></path>
            </g>
        </g>
    </g>
</svg>