<?xml version="1.0" encoding="UTF-8"?>
<svg width="21px" height="20px" viewBox="0 0 21 20" version="1.1" xmlns="http://www.w3.org/2000/svg" xmlns:xlink="http://www.w3.org/1999/xlink">
    <!-- Generator: Sketch 48.1 (47250) - http://www.bohemiancoding.com/sketch -->
    <title>icSendWeb</title>
    <desc>Created with Sketch.</desc>
    <defs></defs>
    <g id="Symbols" stroke="none" stroke-width="1" fill="none" fill-rule="evenodd">
        <g id="UI/icon/send" fill="#FFFFFF">
            <g id="sent-mail">
                <path d="M20.8930804,0.0801649426 C20.7996007,-0.00420637311 20.6665695,-0.0237810352 20.5538162,0.0300331348 L0.181641862,9.77033329 C0.0719648559,9.8227908 0.00133713279,9.93539356 1.87486288e-05,10.0598186 C-0.00129963554,10.1842437 0.0670052203,10.2983969 0.175614963,10.3532448 L4.47579264,12.2647658 C4.58151449,12.3181923 4.70757713,12.3061116 4.80199855,12.233498 L15.2911751,4.92229174 L7.47205518,13.5801569 C7.40927498,13.6466332 7.37725708,13.7376586 7.3841629,13.8300407 L7.8223059,19.7017287 C7.83203683,19.8318388 7.9167901,19.9430849 8.0372653,19.9838493 C8.06947154,19.9947026 8.10255671,20 8.13526519,20 C8.2249781,20 8.31224257,19.9603985 8.37295102,19.8880433 L11.4329835,16.2391454 L15.2158043,18.0990613 C15.2979208,18.1394381 15.39297,18.1411177 15.4764049,18.1037773 C15.5598398,18.0663722 15.6233734,17.9936294 15.65062,17.9043483 L20.9855557,0.419782099 C21.0228471,0.297682722 20.9864974,0.164536258 20.8930804,0.0801649426 Z" id="Shape" fill-rule="nonzero"></path>
            </g>
        </g>
    </g>
</svg>