<?xml version="1.0" encoding="UTF-8"?>
<svg width="17px" height="16px" viewBox="0 0 17 16" version="1.1" xmlns="http://www.w3.org/2000/svg" xmlns:xlink="http://www.w3.org/1999/xlink">
    <!-- Generator: Sketch 55.2 (78181) - https://sketchapp.com -->
    <title>icSearchUserName</title>
    <desc>Created with Sketch.</desc>
    <defs>
        <path d="M16.1824037,13.8034516 L12.7271267,10.4465985 C12.7087635,10.428758 12.6872232,10.4162882 12.6680339,10.3996823 C13.3479189,9.39771313 13.7447302,8.19832556 13.7447302,6.90850086 C13.7447302,3.39984927 10.8170948,0.555555556 7.20569845,0.555555556 C3.59430209,0.555555556 0.666666667,3.39984927 0.666666667,6.90843913 C0.666666667,10.4169673 3.59423855,13.2613227 7.20563491,13.2613227 C8.53331678,13.2613227 9.76778451,12.8758075 10.7991128,12.215277 C10.8162052,12.2338582 10.8289769,12.2547853 10.8473401,12.2726258 L14.3026807,15.6296023 C14.8217442,16.1338279 15.6632766,16.1338279 16.1824037,15.6296023 C16.7014037,15.1253151 16.7014037,14.3077388 16.1824037,13.8034516 Z M7.20569845,11.0589782 C4.84617997,11.0589782 2.93347934,9.20072689 2.93347934,6.90843913 C2.93347934,4.61608964 4.84624351,2.75783832 7.20569845,2.75783832 C9.56508984,2.75783832 11.477854,4.61615137 11.477854,6.90843913 C11.477854,9.20072689 9.56508984,11.0589782 7.20569845,11.0589782 Z" id="path-1"></path>
    </defs>
    <g id="Main-screens-Stage-1" stroke="none" stroke-width="1" fill="none" fill-rule="evenodd">
        <mask id="mask-2" fill="white">
            <use xlink:href="#path-1"></use>
        </mask>
        <use id="icSearchUserName" fill="#646464" fill-rule="nonzero" opacity="0.4" xlink:href="#path-1"></use>
    </g>
</svg>