<?xml version="1.0" encoding="UTF-8"?>
<svg width="70px" height="59px" viewBox="0 0 70 59" version="1.1" xmlns="http://www.w3.org/2000/svg" xmlns:xlink="http://www.w3.org/1999/xlink">
    <!-- Generator: Sketch 55.2 (78181) - https://sketchapp.com -->
    <title>icWifi</title>
    <desc>Created with Sketch.</desc>
    <g id="Page-1" stroke="none" stroke-width="1" fill="none" fill-rule="evenodd" opacity="0.600000024">
        <g id="No-Connection-PopUP" transform="translate(-153.000000, -211.000000)" fill="#666666" fill-rule="nonzero">
            <g id="noInternet" transform="translate(188.500000, 232.207107) rotate(-45.000000) translate(-188.500000, -232.207107) translate(159.500000, 202.207107)">
                <path d="M8.28679656,59.627417 C4.14466094,59.627417 0.786796564,56.2695526 0.786796564,52.127417 C0.786796564,47.9852814 4.14466094,44.627417 8.28679656,44.627417 C12.4289322,44.627417 15.7867966,47.9852814 15.7867966,52.127417 C15.7867966,56.2695526 12.4289322,59.627417 8.28679656,59.627417 Z M8.28679656,48.377417 C6.21572875,48.377417 4.53679656,50.0563492 4.53679656,52.127417 C4.53679656,54.1984848 6.21572875,55.877417 8.28679656,55.877417 C10.3578644,55.877417 12.0367966,54.1984848 12.0367966,52.127417 C12.0367966,50.0563492 10.3578644,48.377417 8.28679656,48.377417 Z M55.7903025,51.1109127 C54.7298524,51.0939145 53.8693132,50.2305436 53.8352302,49.1492983 C52.8088685,24.6799267 33.5950181,5.08156404 9.60572597,4.03466252 C8.55640922,4.00391692 7.71284643,3.14347254 7.68270404,2.07315662 C7.66841053,1.54859915 7.86642054,1.04116655 8.23020184,0.670105166 C8.59398314,0.299043787 9.09146012,0.0970711497 9.60572597,0.11165071 C35.714662,1.17140328 56.6423134,22.517864 57.6812741,49.1492983 C57.6952423,49.6680718 57.5015651,50.170292 57.1448342,50.5403292 C56.7881032,50.9103664 56.2990607,51.1163317 55.7903025,51.1109127 Z M42.0341205,51.7406536 C40.9886154,51.6949909 40.1514246,50.8578001 40.1057619,49.812295 C39.1086866,33.5636633 26.1444956,20.613264 9.89481173,19.6334842 C8.83740727,19.5866983 7.9957561,18.7310196 7.96645321,17.6729863 C7.94238642,17.1545499 8.13781226,16.6499563 8.50479699,16.2829716 C8.87178172,15.9159869 9.37637527,15.720561 9.89481173,15.7446278 C28.2824897,16.7384487 42.9686581,31.4246171 43.962479,49.812295 C43.9865458,50.3307315 43.7911199,50.8353251 43.4241352,51.2023098 C43.0571505,51.5692945 42.5525569,51.7647204 42.0341205,51.7406536 Z M25.9572556,49.8644714 C25.0274503,41.3674467 18.3289731,34.6551018 9.84039071,33.7142402 C8.77021322,33.6292724 7.93335733,32.7554005 7.89390944,31.6816618 C7.88178257,31.1688141 8.08590036,30.674544 8.4562635,30.3199247 C8.82662665,29.9653054 9.32902363,29.783094 9.84039071,29.8179239 C20.4844925,30.7749888 28.922568,39.2121344 29.8891478,49.8644714 C29.9243452,50.3797594 29.7397155,50.8858401 29.381052,51.2571909 C29.0223885,51.6285417 28.5232907,51.8303748 28.0075492,51.8126296 C26.9259747,51.7858262 26.0401477,50.9441266 25.9572556,49.8644714 Z" id="icWifi"></path>
            </g>
        </g>
    </g>
</svg>