<?xml version="1.0" encoding="UTF-8"?>
<svg width="40px" height="40px" viewBox="0 0 40 40" version="1.1" xmlns="http://www.w3.org/2000/svg" xmlns:xlink="http://www.w3.org/1999/xlink">
    <!-- Generator: Sketch 49 (51002) - http://www.bohemiancoding.com/sketch -->
    <title>Artboard Copy 2</title>
    <desc>Created with Sketch.</desc>
    <defs>
        <path d="M5.86475579,3.40233628 C7.2036772,3.36669113 8.08695416,3.25277482 8.51458668,3.06058734 C8.86341379,2.90381674 9.16799074,2.63221921 9.42831752,2.24579475 L9.42831334,2.24579193 C10.3575758,0.866411148 11.9119,0.0393949908 13.5750957,0.0393949908 L14.3060435,0.0393876741 C15.9836644,0.0393876741 17.5494784,0.880715537 18.4754394,2.27964659 C18.9262413,2.96071298 19.4364287,3.30124617 20.0060014,3.30124617 C20.6704609,3.30124617 21.3349205,3.30124617 21.99938,3.30124617 L21.99938,3.30124617 C24.7608038,3.30124617 26.99938,5.53982242 26.99938,8.30124617 C26.99938,8.30749823 26.9993683,8.31375028 26.9993448,8.32000229 L26.9556076,19.9793635 C26.9452764,22.7334459 24.7097447,24.9606073 21.9556428,24.9606073 L5.99782003,24.9606073 C3.23639628,24.9606073 0.997820034,22.7220311 0.997820034,19.9606073 L0.99782125,8.40056414 C0.99782125,5.69096993 3.15612128,3.47444631 5.86475579,3.40233628 Z" id="path-1"></path>
    </defs>
    <g id="Artboard-Copy-2" stroke="none" stroke-width="1" fill="none" fill-rule="evenodd">
        <g id="Group-5" transform="translate(7.000000, 7.000000)">
            <g id="Rectangle">
                <use fill="#FFFFFF" fill-rule="evenodd" xlink:href="#path-1"></use>
                <path stroke="#666666" stroke-width="1" d="M5.87806222,3.90215919 C3.44029123,3.96705822 1.49782125,5.96192942 1.49782125,8.40056419 L1.49782003,19.9606073 C1.49782003,22.4458887 3.51253866,24.4606073 5.99782003,24.4606073 L21.9556428,24.4606073 C24.4343345,24.4606073 26.446313,22.4561621 26.4556112,19.9774878 L26.4993483,8.31812668 C26.4993747,8.30968644 26.4993747,8.30968644 26.49938,8.30124617 C26.49938,5.8159648 24.4846614,3.80124617 21.99938,3.80124617 C21.0026907,3.80124617 21.0026907,3.80124617 20.0060014,3.80124617 C19.2479273,3.80124617 18.5941467,3.36486921 18.0585004,2.55562103 C17.2251354,1.29658287 15.8159025,0.539387674 14.3060485,0.539387674 L13.5750957,0.539394991 C12.0782185,0.539394991 10.6793277,1.28371029 9.84299534,2.52515528 C9.53301643,2.98528248 9.15821447,3.3195011 8.7195498,3.51664667 C8.21175124,3.74486254 7.28189733,3.86478589 5.87806222,3.90215919 Z"></path>
            </g>
            <ellipse id="Oval-6" stroke="#666666" cx="14" cy="14.1428571" rx="2.57176514" ry="2.62391881"></ellipse>
            <ellipse id="Oval-6" stroke="#666666" cx="14" cy="14.1428571" rx="5.14353027" ry="5.24783761"></ellipse>
        </g>
    </g>
</svg>