<?xml version="1.0" encoding="UTF-8"?>
<svg width="31px" height="28px" viewBox="0 0 31 28" version="1.1" xmlns="http://www.w3.org/2000/svg" xmlns:xlink="http://www.w3.org/1999/xlink">
    <!-- Generator: Sketch 49 (51002) - http://www.bohemiancoding.com/sketch -->
    <title>plane-send</title>
    <desc>Created with Sketch.</desc>
    <defs></defs>
    <g id="Page-1" stroke="none" stroke-width="1" fill="none" fill-rule="evenodd">
        <g id="plane-send" fill="#FFFFFF" fill-rule="nonzero">
            <path d="M30.8421663,0.11223092 C30.7041725,-0.00588892 30.507793,-0.03329345 30.3413478,0.04204639 L0.26813799,13.6784666 C0.10623383,13.7519071 0.00197386,13.909551 2.768e-05,14.0837461 C-0.00191851,14.2579412 0.09891247,14.4177557 0.25924114,14.4945427 L6.6071225,17.1706721 C6.7631881,17.2454693 6.9492805,17.2285562 7.0886645,17.1268972 L22.572687,6.8912084 L11.0301767,19.0122196 C10.9375012,19.1052865 10.8902366,19.2327221 10.9004309,19.362057 L11.5472135,27.5824201 C11.5615782,27.7645743 11.6866902,27.9203189 11.8645345,27.977389 C11.912077,27.9925836 11.960917,28 12.009201,28 C12.1416343,28 12.2704533,27.9445578 12.3600706,27.8432606 L16.8772613,22.7348035 L22.4614254,25.3386858 C22.582645,25.3952133 22.7229557,25.3975648 22.8461215,25.3452882 C22.9692873,25.2929211 23.0630749,25.1910812 23.1032961,25.0660876 L30.9786774,0.58769494 C31.0337267,0.41675581 30.9800675,0.23035076 30.8421663,0.11223092 Z" id="Shape"></path>
        </g>
    </g>
</svg>