<?xml version="1.0" encoding="UTF-8"?>
<svg width="40px" height="40px" viewBox="0 0 40 40" version="1.1" xmlns="http://www.w3.org/2000/svg" xmlns:xlink="http://www.w3.org/1999/xlink">
    <!-- Generator: Sketch 49 (51002) - http://www.bohemiancoding.com/sketch -->
    <title>Artboard Copy</title>
    <desc>Created with Sketch.</desc>
    <defs></defs>
    <g id="Artboard-Copy" stroke="none" stroke-width="1" fill="none" fill-rule="evenodd">
        <g id="UI/icons/quick-msg" transform="translate(3.000000, 10.000000)" stroke="#666666">
            <g id="Page-1">
                <path d="M7.93333333,12.5714286 C8.42476895,15.4930001 10.2439937,16.9295803 13.1830425,18.3548366 L13.1830425,23.6299315 C13.1830425,23.7654356 13.2631852,23.8912308 13.3918772,23.9556762 C13.4507162,23.9853661 13.5156419,24 13.5801329,24 C13.6562177,24 13.7324475,23.9793156 13.7983877,23.9386502 L20.1557472,20.0171901 C20.4129864,20.0297134 20.6537044,20.0423773 20.8989149,20.0423773 C28.3681276,20.0423773 34,15.7342448 34,10.0215404 C34,4.30813248 28.3681276,0 20.8989149,0 C17.164526,0 13.8893996,1.07699794 11.5477256,2.86824223 L17.2310459,2.86824223 L11.9,12.5714286 L7.93333333,12.5714286 Z" id="Stroke-3" fill="#FFFFFF"></path>
                <path d="M3.4,5.71428571 L13.6,5.71428571" id="Stroke-5"></path>
                <path d="M0,8 L10.2,8" id="Stroke-7"></path>
                <path d="M3.4,10.2857143 L9.06666667,10.2857143" id="Stroke-9"></path>
            </g>
            <ellipse id="Oval-10" fill="#FFFFFF" cx="18.1333333" cy="10.2857143" rx="1.13333333" ry="1.14285714"></ellipse>
            <ellipse id="Oval-10" fill="#FFFFFF" cx="22.6666667" cy="10.2857143" rx="1.13333333" ry="1.14285714"></ellipse>
            <ellipse id="Oval-10" fill="#FFFFFF" cx="27.2" cy="10.2857143" rx="1.13333333" ry="1.14285714"></ellipse>
        </g>
    </g>
</svg>