<?xml version="1.0" encoding="UTF-8"?>
<svg width="141px" height="34px" viewBox="0 0 141 34" version="1.1" xmlns="http://www.w3.org/2000/svg" xmlns:xlink="http://www.w3.org/1999/xlink">
    <!-- Generator: Sketch 55.2 (78181) - https://sketchapp.com -->
    <title>RHPLogoBorder</title>
    <desc>Created with Sketch.</desc>
    <defs>
        <path d="M47.7529449,0.462678301 L52.794899,0.462678301 L52.794899,7.46430744 C53.1384311,7.26082623 53.4866149,7.08361706 53.8403888,6.93199971 C54.7705785,6.53334695 55.7101302,6.33290925 56.6667315,6.33290925 C58.5244196,6.33290925 60.1322044,6.99569289 61.4416042,8.30525041 C61.7038171,8.57553134 61.9350422,8.87194089 62.1356255,9.19389965 C62.157741,9.11992669 62.1824691,9.04547273 62.2096146,8.97038081 C62.868264,7.45548713 63.8668029,6.16350009 65.1781533,5.16815794 C66.4992199,4.17735801 68.0360748,3.56261605 69.7381605,3.34163601 C70.3001759,3.30857627 70.8488179,3.40278753 71.346412,3.73451687 L71.4945254,3.85594085 C71.3937892,3.77424243 71.3505304,3.73915901 71.3218617,3.71956114 L71.3350179,3.72571547 C71.370568,3.74873996 71.4179362,3.78727192 71.5379015,3.88485824 C71.7584263,4.10538309 71.8106046,4.16302361 71.9573539,4.39368373 C72.0747016,4.57813052 72.1729037,4.78099428 72.2476574,5.00270913 L73.0195177,5.00270913 C74.9672744,5.00270913 76.8099352,5.49514436 78.5349874,6.4763755 C79.9471006,7.28703312 81.1074685,8.32586481 82.0097289,9.59526467 L82.0097289,6.73775277 L84.10624,6.73775277 L84.10624,0.75185224 L90.1272545,0.75185224 L90.1272545,6.73775277 L92.5418569,6.73775277 L97.8048226,6.73775277 L97.8048226,7.49344796 C98.1399013,7.28778438 98.4848354,7.10964475 98.8395176,6.95935567 C99.8180694,6.54471507 100.872946,6.33290925 101.965829,6.33290925 C104.364312,6.33290925 106.414426,7.2426986 108.085762,9.04384667 C108.777673,9.78949847 109.324491,10.6217459 109.727051,11.538171 L109.727051,6.73775277 L110.869885,6.73775277 C110.638235,6.58945579 110.42067,6.41123157 110.218964,6.2037629 C109.534645,5.4998911 109.17762,4.61990178 109.17762,3.63223122 C109.17762,2.66569174 109.540473,1.79688928 110.218964,1.11853433 C110.905083,0.412812559 111.762101,0.0578347877 112.752017,0.0578347877 C113.72691,0.0578347877 114.598783,0.42709884 115.285069,1.13299303 C115.970988,1.83850988 116.326413,2.70454515 116.326413,3.69006601 C116.326413,4.6823134 115.970086,5.55277118 115.27546,6.22796749 C115.078488,6.42493952 114.86805,6.59512264 114.645438,6.73775277 L115.748065,6.73775277 L115.748065,11.5625967 C116.179931,10.6563189 116.761558,9.82855268 117.492117,9.08483646 C119.270052,7.25841199 121.532845,6.33290925 124.203305,6.33290925 C127.019748,6.33290925 129.351577,7.24377982 131.142758,9.06723449 C132.932004,10.8887189 133.820771,13.2873699 133.820771,16.2472666 L133.757192,17.9638982 L121.024179,17.9638982 C121.227793,18.3824441 121.507294,18.737784 121.865263,19.0392313 C122.49816,19.5721969 123.31331,19.8373322 124.376809,19.8373322 C125.646008,19.8373322 126.711934,19.3985948 127.607928,18.5026008 L128.091736,18.0187925 L133.180299,20.4235142 L132.517092,21.3677417 C131.568936,22.717658 130.416438,23.7357655 129.078496,24.3884081 C127.723642,25.0413499 126.172034,25.366751 124.405727,25.366751 C121.616822,25.366751 119.298172,24.4643795 117.501299,22.6675059 C116.766436,21.9326433 116.181742,21.1158176 115.748065,20.222504 L115.748065,24.9619075 L109.727051,24.9619075 L109.727051,20.0536684 C109.309184,20.9860566 108.736583,21.8415901 108.009879,22.616284 C106.300566,24.4384766 104.225357,25.366751 101.850159,25.366751 C100.795509,25.366751 99.8014626,25.1728913 98.8639183,24.7878285 C98.5074562,24.6414244 98.1548474,24.4599229 97.8048226,24.2434649 L97.8048226,30.9044319 L91.7838081,30.9044319 L91.7838081,12.1948781 L90.1272545,12.1948781 L90.1272545,24.9619075 L84.10624,24.9619075 L84.10624,12.1948781 L83.373883,12.1948781 C83.797723,13.35842 84.0188731,14.5865978 84.0401431,15.8787475 C84.0401431,17.823166 83.5493593,19.6665978 82.5842978,21.3593949 C81.6253698,23.0571692 80.2931669,24.389372 78.5937073,25.3673629 C76.9185649,26.33136 75.0611373,26.8126207 73.0484351,26.8126207 C70.0779049,26.8126207 67.5157745,25.7453994 65.4066136,23.6362386 C64.4168971,22.646522 63.6585001,21.5493656 63.1328673,20.3501442 L63.1328673,24.9619075 L57.1552289,24.9619075 L57.1552289,16.8619389 C57.1552289,15.0447243 57.0705045,13.8518045 56.9119842,13.2901543 C56.7896034,12.821028 56.6008865,12.510993 56.3501541,12.3268484 C56.0999784,12.135047 55.7758775,12.0358324 55.3509901,12.0358324 C54.7713519,12.0358324 54.303722,12.2180882 53.9006367,12.6009174 C53.4616427,13.0077899 53.1452584,13.5873612 52.9570281,14.3518327 C52.8649677,14.7430895 52.8093577,15.8135806 52.8093577,17.4692042 L52.8093577,24.9619075 L47.6765203,24.9619075 L41.6555058,24.9619075 L41.6555058,24.2434649 C41.305481,24.4599229 40.9528722,24.6414244 40.59641,24.7878285 C39.6607117,25.1721332 38.6669188,25.366751 37.6246277,25.366751 C35.2494301,25.366751 33.1742211,24.4384766 31.4649077,22.616284 C30.221612,21.2908839 29.4311421,19.7383866 29.0928255,17.9638982 L16.9215613,17.9638982 C17.1251748,18.3824441 17.4046766,18.737784 17.7626452,19.0392313 C18.3955419,19.5721969 19.2106919,19.8373322 20.2741914,19.8373322 C21.5433903,19.8373322 22.609316,19.3985948 23.50531,18.5026008 L23.9891183,18.0187925 L29.0776813,20.4235142 L28.4144738,21.3677417 C27.4663184,22.717658 26.3138206,23.7357655 24.9758782,24.3884081 C23.6250522,25.0394086 22.0601958,25.366751 20.3031088,25.366751 C17.514204,25.366751 15.1955544,24.4643795 13.3986808,22.6675059 C11.6128786,20.8817036 10.7138944,18.6118704 10.7138944,15.9365823 C10.7138944,14.7262676 10.8900604,13.5982956 11.2416144,12.5593747 L10.9671026,12.4125428 C10.4807006,12.1523742 9.94276226,12.0213737 9.32895781,12.0213737 C8.30109927,12.0213737 7.49893652,12.3515155 6.83012225,13.0429953 C6.45584688,13.4276672 6.18612461,13.8916521 6.0210145,14.4383381 L6.0210145,24.7739444 L0,24.7739444 L0,6.73775277 L6.0354732,6.73775277 L6.0354732,7.49344796 C6.37055194,7.28778438 6.71548606,7.10964475 7.07016829,6.95935567 C8.04872009,6.54471507 9.10359614,6.33290925 10.1964796,6.33290925 C11.641264,6.33290925 12.9775963,6.6752413 14.1858428,7.35384552 L14.9612149,7.78932845 C16.4447035,6.82032838 18.162658,6.33290925 20.100687,6.33290925 C22.9171305,6.33290925 25.2489592,7.24377982 27.0401403,9.06723449 C28.0978904,10.1440431 28.8411711,11.4225617 29.2719893,12.899501 C29.6639692,11.4311624 30.3687563,10.14336 31.3890255,9.04384667 C33.0603611,7.2426986 35.1104747,6.33290925 37.5089581,6.33290925 C38.6111611,6.33290925 39.6520295,6.54272857 40.6352694,6.95935567 C40.9855752,7.10779032 41.3258948,7.28319653 41.6555058,7.48500322 L41.6555058,0.462678301 L42.6201075,0.462678301 L47.7529449,0.462678301 Z M136.969363,6.22343626 C136.298744,6.93591812 135.3483,7.38013201 134.295475,7.38013201 C132.255043,7.38013201 130.605409,5.73049792 130.605409,3.69006601 C130.605409,1.64963409 132.255043,0 134.295475,0 C136.298893,0 137.931589,1.60850766 137.970896,3.61317937 L137.971083,3.63223122 L137.970896,3.76695264 C137.955226,4.56610731 137.686337,5.30230409 137.241688,5.89873814 L136.969363,6.22343626 Z M69.0276021,14.7391391 C68.9532636,15.1108314 68.9163461,15.4953889 68.9163461,15.9076649 C68.9163461,17.3014936 69.3196006,18.4037224 70.1116534,19.2312756 C70.8904775,20.0565966 71.8609473,20.4590561 73.0918112,20.4590561 C74.3034394,20.4590561 75.2928687,20.0453474 76.0913814,19.2116062 C76.8933005,18.3743084 77.2961937,17.2870891 77.2961937,15.9076649 C77.2961937,14.5349429 76.8973801,13.4596231 76.1096882,12.636636 C75.3868402,11.8904703 74.5168172,11.498107 73.4189501,11.426507 L73.323781,11.4203003 L73.8900388,14.920109 C74.0044166,15.3776202 73.8141529,15.8396892 73.4580294,16.1067818 C73.1485245,16.3389105 72.8251709,16.3769521 72.496376,16.3111931 L72.3822742,16.2883728 L72.2767854,16.2392599 L69.0299674,14.7273127 L69.0276021,14.7391391 Z M27.7736901,16.0202362 C27.7374889,13.6758179 27.0311186,11.8316774 25.6535478,10.4292855 C24.2406597,8.99093993 22.4118758,8.27657122 20.100687,8.27657122 C17.9520222,8.27657122 16.2046877,8.99253682 14.7791653,10.4437442 C13.3627489,11.8856817 12.6575564,13.7045041 12.6575564,15.9365823 C12.6575564,18.106855 13.3597549,19.8798269 14.7730574,21.2931293 C16.1942353,22.7143072 18.0154548,23.423089 20.3031088,23.423089 C21.7791274,23.423089 23.0562295,23.1559401 24.127892,22.6394885 C24.8436309,22.2903475 25.4992337,21.7970523 26.089945,21.1613574 L24.3631866,20.3453366 C23.2010227,21.2973899 21.8213157,21.7809941 20.2741914,21.7809941 C18.7743485,21.7809941 17.5143452,21.3711661 16.5106631,20.5259601 C15.5019869,19.6765486 14.882574,18.5394834 14.6589396,17.1460692 L14.4782503,16.0202362 L27.7736901,16.0202362 Z M25.5843556,13.5264054 L25.9694364,14.7829848 L14.2844936,14.7829848 L14.9248204,13.4022803 C15.4477054,12.2748095 16.0457929,11.4486743 16.7377638,10.9437227 C17.7641502,10.1956785 18.9640308,9.81745521 20.3031088,9.81745521 C21.5484488,9.81745521 22.6687244,10.1557345 23.6268549,10.8351361 C24.5917291,11.5193197 25.2448152,12.4184313 25.5843556,13.5264054 Z M22.9940633,12.8393229 C22.8491198,12.6896 22.6856539,12.5504577 22.5025849,12.4206451 C21.881818,11.980465 21.1554064,11.7611172 20.3031088,11.7611172 C19.3691798,11.7611172 18.5710327,12.012707 17.8830228,12.5141378 C17.768937,12.5973896 17.6525203,12.7058252 17.5348943,12.8393229 L22.9940633,12.8393229 Z M38.3186451,10.0777118 C39.8914933,10.0777118 41.2167078,10.623915 42.2270203,11.7041015 C43.2615251,12.7736743 43.7726722,14.1585772 43.7726722,15.8209127 C43.7726722,17.5074476 43.2648731,18.9049802 42.2327644,19.9895688 C41.2064967,21.0689194 39.8801261,21.6219485 38.3331038,21.6219485 C36.8160146,21.6219485 35.5053413,21.0589445 34.47177,19.9553005 C33.4465187,18.8605407 32.9369116,17.4667434 32.9369116,15.8209127 C32.9369116,14.1941986 33.4438334,12.8132738 34.4569488,11.7302883 C35.4830121,10.633462 36.7827506,10.0777118 38.3186451,10.0777118 Z M38.3186451,12.0213737 C37.3170384,12.0213737 36.5323147,12.3569107 35.8763496,13.0581148 C35.2122562,13.7680077 34.8805736,14.671557 34.8805736,15.8209127 C34.8805736,16.9899555 35.2155006,17.9059952 35.8904458,18.6266994 C36.5549045,19.3362062 37.3512675,19.6782865 38.3331038,19.6782865 C39.3546749,19.6782865 40.1699261,19.3383682 40.8244662,18.6499727 C41.4966068,17.9436554 41.8290102,17.0288359 41.8290102,15.8209127 C41.8290102,14.6431648 41.4978651,13.7459596 40.8187755,13.0436561 C40.174042,12.3544582 39.3659025,12.0213737 38.3186451,12.0213737 Z M10.1964796,8.27657122 C9.36267086,8.27657122 8.56576316,8.43658025 7.82848613,8.74898577 C7.09418449,9.06013053 6.40236835,9.5381126 5.75083049,10.1896504 L4.09181123,11.8486697 L4.09181123,8.68141474 L1.94366197,8.68141474 L1.94366197,22.8302824 L4.07735253,22.8302824 L4.07735253,14.1742146 L4.1107682,14.0500993 C4.35653926,13.1372353 4.80147265,12.3408046 5.43504138,11.6896429 C6.47333398,10.6161539 7.78161488,10.0777118 9.32895781,10.0777118 C9.9433817,10.0777118 10.5245155,10.1685357 11.0710574,10.3495102 L12.2563017,8.60915151 C11.6131097,8.38770599 10.9277068,8.27657122 10.1964796,8.27657122 Z M86.049902,2.69551421 L86.049902,8.68141474 L83.9533909,8.68141474 L83.9533909,10.2512161 L86.049902,10.2512161 L86.049902,23.0182455 L88.1835925,23.0182455 L88.1835925,10.2512161 L90.5981949,10.2512161 L90.5981949,8.68141474 L88.1835925,8.68141474 L88.1835925,2.69551421 L86.049902,2.69551421 Z M93.72747,8.68141474 L93.72747,28.9607699 L95.8611606,28.9607699 L95.8611606,19.9987919 L97.5006505,21.5488551 C98.2258847,22.2345311 98.9231557,22.710947 99.6023522,22.9899027 C100.304209,23.2781651 101.047329,23.423089 101.850159,23.423089 C103.679679,23.423089 105.244822,22.7229756 106.592297,21.2865164 C107.952278,19.8367249 108.62819,18.051298 108.62819,15.8787475 C108.62819,13.5958767 107.974471,11.7814073 106.661002,10.3659212 C105.354487,8.95792956 103.819118,8.27657122 101.965829,8.27657122 C101.13202,8.27657122 100.335113,8.43658025 99.5978355,8.74898577 C98.8635339,9.06013053 98.1717177,9.5381126 97.5201799,10.1896504 L95.8611606,11.8486697 L95.8611606,8.68141474 L93.72747,8.68141474 Z M101.112766,10.0777118 C102.644794,10.0777118 103.956951,10.6304354 104.988921,11.7158296 C106.002036,12.7988151 106.508958,14.1797399 106.508958,15.806454 C106.508958,17.4522847 105.999351,18.846082 104.9741,19.9408418 C103.940528,21.0444858 102.629855,21.6074898 101.112766,21.6074898 C99.5587532,21.6074898 98.2494862,21.0641885 97.2188494,19.9811 C96.1847515,18.9119479 95.6731975,17.4997092 95.6731975,15.806454 C95.6731975,14.1441185 96.1843446,12.7592156 97.2131053,11.6956327 C98.2352247,10.620645 99.558905,10.0777118 101.112766,10.0777118 Z M101.112766,12.0213737 C100.080551,12.0213737 99.2688266,12.3543185 98.6159382,13.0409255 C97.9480046,13.7315009 97.6168595,14.6287061 97.6168595,15.806454 C97.6168595,17.0185319 97.9517822,17.9431475 98.6214035,18.635514 C99.2847765,19.3326178 100.082938,19.6638278 101.112766,19.6638278 C102.094602,19.6638278 102.890965,19.3217475 103.555424,18.6122407 C104.230369,17.8915365 104.565296,16.9754968 104.565296,15.806454 C104.565296,14.6570983 104.233613,13.753549 103.574932,13.0493943 C102.918548,12.3590597 102.116887,12.0213737 101.112766,12.0213737 Z M112.752017,2.00149676 C112.282224,2.00149676 111.929221,2.14771137 111.602951,2.48316499 C111.27792,2.80819526 111.121282,3.18324391 111.121282,3.63223122 C111.121282,4.11405301 111.281085,4.50793184 111.61256,4.84887813 C111.934086,5.17959047 112.303799,5.33525916 112.766476,5.33525916 C113.210386,5.33525916 113.572415,5.18225885 113.910829,4.84398133 C114.233017,4.53074311 114.382751,4.16496325 114.382751,3.69006601 C114.382751,3.21322204 114.226485,2.83246151 113.891474,2.48787779 C113.570711,2.15795093 113.201306,2.00149676 112.752017,2.00149676 Z M111.670713,8.68141474 L111.670713,23.0182455 L113.804403,23.0182455 L113.804403,8.68141474 L111.670713,8.68141474 Z M129.756166,10.4292855 C128.343277,8.99093993 126.514494,8.27657122 124.203305,8.27657122 C122.049783,8.27657122 120.29129,8.99581048 118.881783,10.4437442 C117.465367,11.8856817 116.760174,13.7045041 116.760174,15.9365823 C116.760174,18.106855 117.462373,19.8798269 118.875675,21.2931293 C120.296853,22.7143072 122.118073,23.423089 124.405727,23.423089 C125.890686,23.423089 127.154469,23.1580502 128.23051,22.6394885 C128.946249,22.2903475 129.601851,21.7970523 130.192563,21.1613574 L128.465804,20.3453366 C127.303641,21.2973899 125.923934,21.7809941 124.376809,21.7809941 C122.876966,21.7809941 121.616963,21.3711661 120.613281,20.5259601 C119.604605,19.6765486 118.985192,18.5394834 118.761557,17.1460692 L118.580868,16.0202362 L131.876308,16.0202362 C131.840107,13.6758179 131.133736,11.8316774 129.756166,10.4292855 Z M129.686973,13.5264054 L130.072054,14.7829848 L118.387111,14.7829848 L119.027438,13.4022803 C119.550323,12.2748095 120.148411,11.4486743 120.840382,10.9437227 C121.866768,10.1956785 123.066649,9.81745521 124.405727,9.81745521 C125.651067,9.81745521 126.771342,10.1557345 127.736336,10.8400474 C128.69269,11.530748 129.35143,12.4314736 129.686973,13.5264054 Z M126.605203,12.4206451 C125.984436,11.980465 125.258024,11.7611172 124.405727,11.7611172 C123.471798,11.7611172 122.673651,12.012707 121.985641,12.5141378 C121.871555,12.5973896 121.755138,12.7058252 121.637512,12.8393229 L127.091081,12.8393229 C126.946949,12.6899553 126.785126,12.5506029 126.605203,12.4206451 Z M64.1883522,15.9221236 C64.1883522,18.4319645 65.0444195,20.5252914 66.7809902,22.261862 C68.5266185,24.0074903 70.5947879,24.8689587 73.0484351,24.8689587 C74.7258076,24.8689587 76.2485352,24.474419 77.6242508,23.6827336 C79.0240932,22.8771639 80.1056587,21.7955984 80.8938413,20.4001434 C81.6939964,18.9965926 82.0966138,17.4848207 82.0966138,15.8948086 C82.0700043,14.284932 81.6691229,12.8019967 80.8813386,11.4330601 C80.093436,10.0639178 78.9948645,8.98154945 77.5706512,8.1639367 C76.4030362,7.49978871 75.1811325,7.10857862 73.8963101,6.98728508 L74.323132,9.58169227 C75.55944,9.8062974 76.6232541,10.3733331 77.5097642,11.2884614 C78.6613793,12.4916413 79.2398557,14.051385 79.2398557,15.9076649 C79.2398557,17.7706035 78.6573727,19.3424511 77.4950939,20.5560069 C76.3262783,21.7763879 74.8283417,22.4027181 73.0918112,22.4027181 C71.3354673,22.4027181 69.8510708,21.7871301 68.7027756,20.5702445 C67.5531919,19.3691869 66.9726841,17.7824657 66.9726841,15.9076649 C66.9726841,15.6405001 66.9847916,15.3797928 67.0091896,15.1239264 L64.393257,13.9037431 C64.2571072,14.5456558 64.1883522,15.2183796 64.1883522,15.9221236 Z M43.5991678,2.40634027 L43.5991678,11.8819181 L41.9333787,10.1828133 C41.3021342,9.53894385 40.6138509,9.06123122 39.8769516,8.74898577 C39.1345138,8.43439349 38.3515916,8.27657122 37.5089581,8.27657122 C35.6556687,8.27657122 34.1203002,8.95792956 32.8137854,10.3659212 C31.5003163,11.7814073 30.8465971,13.5958767 30.8465971,15.8787475 C30.8465971,18.0601449 31.5189062,19.8328845 32.8824902,21.2865164 C34.2299651,22.7229756 35.7951076,23.423089 37.6246277,23.423089 C38.4145919,23.423089 39.1574788,23.277607 39.8579762,22.9899027 C40.5371727,22.710947 41.2344437,22.2345311 41.9596779,21.5488551 L43.5991678,19.9987919 L43.5991678,23.0182455 L45.7328584,23.0182455 L45.7328584,2.40634027 L43.5991678,2.40634027 Z M48.7320052,2.40634027 L48.7320052,23.0182455 L50.8656958,23.0182455 L50.8656958,17.4692042 C50.8656958,15.6547405 50.9257554,14.4985923 51.0673688,13.8969591 C51.344071,12.7728561 51.8440952,11.8568825 52.5706723,11.1835702 C53.3304999,10.461734 54.2787222,10.0921705 55.3509901,10.0921705 C56.1849732,10.0921705 56.9256447,10.3189066 57.5161523,10.7719078 C58.1415804,11.230555 58.5647768,11.9258064 58.7875468,12.7805467 C59.0052829,13.5509978 59.0988909,14.8689977 59.0988909,16.8619389 L59.0988909,23.0182455 L61.1892054,23.0182455 L61.1892054,13.2472647 C61.1892054,11.609511 60.796634,10.431797 60.0568958,9.66913736 C59.1231745,8.73541609 58.0101057,8.27657122 56.6667315,8.27657122 C55.978656,8.27657122 55.2988017,8.42160682 54.6060347,8.71850695 C53.8813208,9.02909864 53.1724677,9.48456083 52.4620802,10.1045353 L50.8512371,11.5103621 L50.8512371,2.40634027 L48.7320052,2.40634027 Z" id="path-1"></path>
        <filter x="-1.1%" y="-4.9%" width="102.9%" height="112.9%" filterUnits="objectBoundingBox" id="filter-2">
            <feMorphology radius="0.25" operator="dilate" in="SourceAlpha" result="shadowSpreadOuter1"></feMorphology>
            <feOffset dx="0.5" dy="0.5" in="shadowSpreadOuter1" result="shadowOffsetOuter1"></feOffset>
            <feGaussianBlur stdDeviation="0.5" in="shadowOffsetOuter1" result="shadowBlurOuter1"></feGaussianBlur>
            <feComposite in="shadowBlurOuter1" in2="SourceAlpha" operator="out" result="shadowBlurOuter1"></feComposite>
            <feColorMatrix values="0 0 0 0 0   0 0 0 0 0   0 0 0 0 0  0 0 0 0.5 0" type="matrix" in="shadowBlurOuter1"></feColorMatrix>
        </filter>
    </defs>
    <g id="Page-1" stroke="none" stroke-width="1" fill="none" fill-rule="evenodd">
        <g id="rhp-home-forgot-pwd-1" transform="translate(-486.000000, -626.000000)" fill-rule="nonzero">
            <g id="RHPLogoBorder" transform="translate(487.000000, 627.000000)">
                <g id="Combined-Shape">
                    <use fill="black" fill-opacity="1" filter="url(#filter-2)" xlink:href="#path-1"></use>
                    <use stroke="#FFFFFF" stroke-width="0.5" fill="#FFFFFF" xlink:href="#path-1"></use>
                </g>
                <path d="M28.7180704,16.9920672 L15.618491,16.9920672 C15.806454,18.1632216 16.3125084,19.0885782 17.1366541,19.7825957 C17.9607999,20.4766131 19.001826,20.8091632 20.2741914,20.8091632 C21.7923546,20.8091632 23.108096,20.2741914 24.1924982,19.1897891 L27.6192094,20.8091632 C26.7661463,22.0236937 25.7395788,22.9345916 24.5539657,23.5129395 C23.3538938,24.0912874 21.9369415,24.39492 20.3031088,24.39492 C17.7583781,24.39492 15.6907845,23.585233 14.0858691,21.9803176 C12.4809537,20.3754023 11.6857254,18.3511847 11.6857254,15.9365823 C11.6857254,13.4641451 12.4809537,11.3965515 14.0858691,9.76271871 C15.6907845,8.12888596 17.6860846,7.30474024 20.100687,7.30474024 C22.6598764,7.30474024 24.7419287,8.11442726 26.3468441,9.74826002 C27.9517594,11.3820928 28.7469878,13.5364386 28.7469878,16.2112975 L28.7180704,16.9920672 Z M24.6551765,13.8111539 C24.3804613,12.9147146 23.8599482,12.1917798 23.0647199,11.6278906 C22.2694916,11.0640014 21.3441349,10.7892862 20.3031088,10.7892862 C19.1608717,10.7892862 18.1632216,11.1073775 17.3101585,11.7291015 C16.7751867,12.1194863 16.2691323,12.8135038 15.806454,13.8111539 L24.6551765,13.8111539 Z M42.6128781,1.43450929 L46.7046893,1.43450929 L46.7046893,23.9900765 L42.6273368,23.9900765 L42.6273368,22.2550329 C41.8321085,23.0068851 41.0368802,23.5563156 40.2271931,23.8888656 C39.4175061,24.2214156 38.5499843,24.39492 37.6246277,24.39492 C35.5281166,24.39492 33.7063208,23.585233 32.1736989,21.9514002 C30.6410771,20.3175675 29.8747661,18.3078086 29.8747661,15.8787475 C29.8747661,13.3629342 30.6121597,11.3097993 32.1014055,9.70488393 C33.5906512,8.09996857 35.3835297,7.30474024 37.5089581,7.30474024 C38.4921495,7.30474024 39.4030474,7.4927033 40.2561105,7.85417072 C41.1091736,8.21563814 41.904402,8.76506863 42.6273368,9.50246217 L42.6273368,1.43450929 L42.6128781,1.43450929 Z M38.3186451,11.0495427 C37.0462798,11.0495427 36.0052536,11.4977623 35.1666492,12.3942016 C34.3280448,13.2906408 33.9087426,14.4328778 33.9087426,15.8209127 C33.9087426,17.2234063 34.3280448,18.3801021 35.1811079,19.291 C36.034171,20.2018979 37.0896559,20.6501175 38.3331038,20.6501175 C39.6199279,20.6501175 40.6898714,20.2018979 41.5284758,19.3199174 C42.381539,18.4234782 42.8008412,17.2667824 42.8008412,15.8209127 C42.8008412,14.4039604 42.381539,13.2617234 41.5284758,12.3797429 C40.6898714,11.4833036 39.6199279,11.0495427 38.3186451,11.0495427 Z M10.1964796,7.30474024 C11.4833036,7.30474024 12.6544581,7.60837287 13.709943,8.20117945 L11.4254689,11.5555971 C10.8037449,11.2230471 10.1097274,11.0495427 9.32895781,11.0495427 C8.04213378,11.0495427 6.98664891,11.4833036 6.13358579,12.3652842 C5.6130727,12.9002559 5.25160527,13.5508973 5.04918352,14.3027495 L5.04918352,23.8021134 L0.971830986,23.8021134 L0.971830986,7.70958375 L5.06364221,7.70958375 L5.06364221,9.50246217 C5.80103576,8.76506863 6.59626409,8.21563814 7.44932721,7.85417072 C8.30239032,7.4927033 9.22774693,7.30474024 10.1964796,7.30474024 Z" id="Combined-Shape-Copy" fill="#B82025"></path>
                <path d="M47.7457155,1.43450929 L51.8230681,1.43450929 L51.8230681,9.3723339 C52.6182964,8.67831644 53.4135247,8.17226205 54.2232117,7.82525333 C55.0328988,7.4782446 55.8425858,7.30474024 56.6667315,7.30474024 C58.2716469,7.30474024 59.6307644,7.86862942 60.7440841,8.98194908 C61.6838994,9.95068177 62.1610364,11.3676341 62.1610364,13.2472647 L62.1610364,23.9900765 L58.1270599,23.9900765 L58.1270599,16.8619389 C58.1270599,14.9823083 58.0403077,13.709943 57.8523447,13.0448429 C57.6788403,12.3797429 57.3752077,11.8736885 56.9414468,11.5555971 C56.5076859,11.2230471 55.9727141,11.0640014 55.3509901,11.0640014 C54.5268444,11.0640014 53.8183682,11.3387167 53.2400204,11.8881472 C52.6472138,12.4375776 52.2423703,13.1894299 52.0110311,14.1292452 C51.8953615,14.6208409 51.8375268,15.7341605 51.8375268,17.4692042 L51.8375268,23.9900765 L47.7601742,23.9900765 L47.7601742,1.43450929 L47.7457155,1.43450929 Z M85.078071,1.72368323 L89.1554235,1.72368323 L89.1554235,7.70958375 L91.5700259,7.70958375 L91.5700259,11.2230471 L89.1554235,11.2230471 L89.1554235,23.9900765 L85.078071,23.9900765 L85.078071,11.2230471 L82.9815599,11.2230471 L82.9815599,7.70958375 L85.078071,7.70958375 L85.078071,1.72368323 Z M96.8329916,7.70958375 L96.8329916,9.50246217 C97.5703851,8.76506863 98.3656134,8.21563814 99.2186766,7.85417072 C100.07174,7.4927033 100.997096,7.30474024 101.965829,7.30474024 C104.091257,7.30474024 105.884136,8.09996857 107.373382,9.70488393 C108.862627,11.3097993 109.600021,13.3629342 109.600021,15.8787475 C109.600021,18.2933499 108.83371,20.3175675 107.301088,21.9514002 C105.768466,23.585233 103.94667,24.39492 101.850159,24.39492 C100.910344,24.39492 100.042822,24.2214156 99.2331353,23.8888656 C98.4234482,23.5563156 97.6282199,23.0068851 96.8329916,22.2550329 L96.8329916,29.9326009 L92.755639,29.9326009 L92.755639,7.70958375 L96.8329916,7.70958375 Z M101.112766,11.0495427 C99.8259418,11.0495427 98.7559983,11.4833036 97.9173938,12.3652842 C97.0643307,13.2472647 96.6450285,14.3895017 96.6450285,15.806454 C96.6450285,17.2523237 97.0643307,18.4234782 97.9173938,19.3054587 C98.770457,20.2018979 99.8259418,20.6356588 101.112766,20.6356588 C102.356214,20.6356588 103.411699,20.1874392 104.264762,19.2765413 C105.117825,18.3656434 105.537127,17.2089476 105.537127,15.806454 C105.537127,14.4184191 105.117825,13.2761821 104.27922,12.3797429 C103.440616,11.4977623 102.385131,11.0495427 101.112766,11.0495427 Z M112.752017,1.02966577 C113.460493,1.02966577 114.082217,1.28992232 114.588271,1.81043541 C115.094326,2.3309485 115.354582,2.95267246 115.354582,3.69006601 C115.354582,4.41300085 115.108784,5.03472482 114.588271,5.54077921 C114.082217,6.04683361 113.474952,6.30709015 112.766476,6.30709015 C112.043541,6.30709015 111.421817,6.04683361 110.915762,5.52632052 C110.409708,5.00580743 110.149451,4.36962476 110.149451,3.63223122 C110.149451,2.92375507 110.409708,2.3020311 110.915762,1.79597671 C111.421817,1.27546362 112.029082,1.02966577 112.752017,1.02966577 Z M110.698882,7.70958375 L114.776234,7.70958375 L114.776234,23.9900765 L110.698882,23.9900765 L110.698882,7.70958375 Z M132.820688,16.9920672 L119.721109,16.9920672 C119.909072,18.1632216 120.415126,19.0885782 121.239272,19.7825957 C122.063418,20.4766131 123.104444,20.8091632 124.376809,20.8091632 C125.894972,20.8091632 127.210714,20.2741914 128.295116,19.1897891 L131.721827,20.8091632 C130.868764,22.0236937 129.842197,22.9345916 128.656583,23.5129395 C127.456512,24.0912874 126.054018,24.39492 124.405727,24.39492 C121.860996,24.39492 119.793402,23.585233 118.188487,21.9803176 C116.583572,20.3754023 115.788343,18.3511847 115.788343,15.9365823 C115.788343,13.4641451 116.583572,11.3965515 118.188487,9.76271871 C119.778944,8.12888596 121.788702,7.30474024 124.203305,7.30474024 C126.762494,7.30474024 128.844547,8.11442726 130.449462,9.74826002 C132.054377,11.3820928 132.849606,13.5364386 132.849606,16.2112975 L132.820688,16.9920672 Z M128.757794,13.8111539 C128.483079,12.9147146 127.948107,12.1917798 127.167338,11.6278906 C126.372109,11.0640014 125.446753,10.7892862 124.405727,10.7892862 C123.26349,10.7892862 122.265839,11.1073775 121.412776,11.7291015 C120.877805,12.1194863 120.37175,12.8135038 119.909072,13.8111539 L128.757794,13.8111539 Z M81.7236533,10.9483319 C82.6056338,12.4809537 83.0393947,14.1292452 83.0683121,15.8787475 C83.0683121,17.6571672 82.6200925,19.3343761 81.738112,20.8814566 C80.8561315,22.4429959 79.6416009,23.6430678 78.1089791,24.5250483 C76.5763572,25.4070288 74.8846896,25.8407897 73.0484351,25.8407897 C70.3302001,25.8407897 68.0168086,24.872057 66.0938019,22.9490503 C64.1707952,21.0260436 63.2165212,18.6837347 63.2165212,15.9221236 C63.2165212,14.7075931 63.4044843,13.5798147 63.7659517,12.5387885 L68.0746434,14.5485474 C67.9878912,14.9823083 67.9445151,15.4305279 67.9445151,15.9076649 C67.9445151,17.5414977 68.4361108,18.8861565 69.4048435,19.8982653 C70.3735762,20.9248327 71.6025654,21.4308871 73.0918112,21.4308871 C74.5665983,21.4308871 75.8100462,20.910374 76.7932376,19.8838066 C77.776429,18.8572391 78.2680247,17.527039 78.2680247,15.9076649 C78.2680247,14.2882909 77.776429,12.9725494 76.8076963,11.9604406 C75.9112571,11.035084 74.8123962,10.5434883 73.482196,10.4567362 L72.7448025,5.97454012 C72.8315547,5.97454012 72.9327656,5.97454012 73.0195177,5.97454012 C74.7979375,5.97454012 76.4751463,6.42275973 78.0511443,7.31919893 C79.6126835,8.21563814 80.8416728,9.41570999 81.7236533,10.9483319 Z" id="Combined-Shape-Copy-2" fill="#575757"></path>
                <path d="M71.385685,5.52632052 C71.2555567,4.93351394 70.9230067,4.64434 70.8507132,4.57204652 C70.8362545,4.55758782 70.8217958,4.55758782 70.8073371,4.54312913 C70.4603284,4.31178997 70.0410262,4.29733128 69.7952283,4.31178997 C68.3638173,4.49975303 66.9757824,5.03472482 65.7612519,5.94562273 C64.56118,6.85652063 63.6791995,8.02767508 63.1008517,9.3578752 C63.0285582,9.56029696 62.9273473,9.93622308 63.0140995,10.3121492 C63.0285582,10.3844427 63.0574756,10.4422775 63.086393,10.514571 C63.1586864,10.6591579 63.3900256,11.0061666 63.8671626,11.2519645 L72.6869677,15.3582344 C72.7592612,15.3726931 72.817096,15.3726931 72.8749308,15.329317 C72.9327656,15.2859409 72.961683,15.2136475 72.9472243,15.1558127 L71.385685,5.52632052 Z M69.7952283,6.14804448 C69.0289174,6.20587927 67.7999282,6.66855757 66.9324063,7.30474024 C66.0793432,7.9553816 65.2841149,9.06870126 65.0527757,9.71934262 C64.8214366,10.369984 64.4455105,9.89284699 64.4455105,9.89284699 C64.4021344,9.8060948 64.4021344,9.79163611 64.3876757,9.74826002 C64.3298409,9.47354478 64.4021344,9.21328823 64.4455105,9.06870126 C64.850354,8.12888596 65.472078,7.29028154 66.3251411,6.65409888 C67.1782042,6.00345751 68.1613956,5.62753139 69.1879631,5.49740312 C69.3614674,5.48294443 69.5638892,5.45402703 69.809687,5.62753139 C69.8386044,5.6130727 70.1856131,6.11912709 69.7952283,6.14804448 Z" id="Shape-Copy" fill="#B8D433"></path>
                <path d="M134.411145,3.83465298 L135.510006,5.25160527 L134.989493,5.25160527 L133.890632,3.83465298 L133.80388,3.83465298 L133.80388,5.25160527 L133.384577,5.25160527 L133.384577,2.09960935 L134.049677,2.09960935 C134.223182,2.09960935 134.367769,2.11406804 134.483438,2.11406804 C134.599108,2.11406804 134.68586,2.12852674 134.758154,2.14298544 C134.960575,2.18636153 135.119621,2.28757241 135.235291,2.43215937 C135.365419,2.57674634 135.423254,2.75025071 135.423254,2.96713116 C135.423254,3.14063552 135.379878,3.29968119 135.293125,3.42980946 C135.206373,3.55993773 135.090704,3.66114861 134.931658,3.7334421 C134.787071,3.79127689 134.628025,3.82019428 134.411145,3.83465298 Z M133.80388,2.50445286 L133.80388,3.42980946 L134.281017,3.42980946 C134.483438,3.42980946 134.628025,3.40089207 134.714778,3.37197467 C134.80153,3.34305728 134.873823,3.28522249 134.917199,3.21292901 C134.960575,3.12617683 134.989493,3.05388334 134.989493,2.95267246 C134.989493,2.86592028 134.975034,2.7791681 134.917199,2.70687462 C134.873823,2.63458113 134.815988,2.57674634 134.729236,2.54782895 C134.642484,2.51891156 134.497897,2.50445286 134.295475,2.50445286 L133.80388,2.50445286 Z M136.999252,3.63223122 L136.999252,3.74790079 C136.970334,5.22268788 135.770262,6.40830103 134.295475,6.40830103 C132.791771,6.40830103 131.57724,5.19377049 131.57724,3.69006601 C131.57724,2.18636153 132.791771,0.971830986 134.295475,0.971830986 C135.770262,0.971830986 136.970334,2.15744413 136.999252,3.63223122 Z M134.281017,1.3622158 C133.644834,1.3622158 133.066486,1.62247235 132.632725,2.04177456 C132.213423,2.47553547 131.953166,3.05388334 131.953166,3.69006601 C131.953166,4.34070737 132.213423,4.91905525 132.632725,5.33835746 C133.052027,5.75765967 133.644834,6.01791621 134.281017,6.01791621 C134.931658,6.01791621 135.510006,5.75765967 135.929308,5.33835746 C136.34861,4.91905525 136.608867,4.32624867 136.608867,3.69006601 C136.608867,3.03942465 136.34861,2.46107677 135.929308,2.04177456 C135.495547,1.62247235 134.917199,1.3622158 134.281017,1.3622158 Z" id="Combined-Shape-Copy-3" fill="#575757"></path>
            </g>
        </g>
    </g>
</svg>