<?xml version="1.0" encoding="UTF-8"?>
<svg width="942px" height="201px" viewBox="0 0 942 201" version="1.1" xmlns="http://www.w3.org/2000/svg" xmlns:xlink="http://www.w3.org/1999/xlink">
    <!-- Generator: Sketch 55.2 (78181) - https://sketchapp.com -->
    <title>RHPLogo</title>
    <desc>Created with Sketch.</desc>
    <g id="Page-1" stroke="none" stroke-width="1" fill="none" fill-rule="evenodd">
        <g id="RHPLogo" transform="translate(0.700000, 0.400000)" fill-rule="nonzero">
            <path d="M191.9,110.8 L101.3,110.8 C102.6,118.9 106.1,125.3 111.8,130.1 C117.5,134.9 124.7,137.2 133.5,137.2 C144,137.2 153.1,133.5 160.6,126 L184.3,137.2 C178.4,145.6 171.3,151.9 163.1,155.9 C154.8,159.9 145,162 133.7,162 C116.1,162 101.8,156.4 90.7,145.3 C79.6,134.2 74.1,120.2 74.1,103.5 C74.1,86.4 79.6,72.1 90.7,60.8 C101.8,49.5 115.6,43.8 132.3,43.8 C150,43.8 164.4,49.4 175.5,60.7 C186.6,72 192.1,86.9 192.1,105.4 L191.9,110.8 Z M163.8,88.8 C161.9,82.6 158.3,77.6 152.8,73.7 C147.3,69.8 140.9,67.9 133.7,67.9 C125.8,67.9 118.9,70.1 113,74.4 C109.3,77.1 105.8,81.9 102.6,88.8 L163.8,88.8 Z M288,3.2 L316.3,3.2 L316.3,159.2 L288.1,159.2 L288.1,147.2 C282.6,152.4 277.1,156.2 271.5,158.5 C265.9,160.8 259.9,162 253.5,162 C239,162 226.4,156.4 215.8,145.1 C205.2,133.8 199.9,119.9 199.9,103.1 C199.9,85.7 205,71.5 215.3,60.4 C225.6,49.3 238,43.8 252.7,43.8 C259.5,43.8 265.8,45.1 271.7,47.6 C277.6,50.1 283.1,53.9 288.1,59 L288.1,3.2 L288,3.2 Z M258.3,69.7 C249.5,69.7 242.3,72.8 236.5,79 C230.7,85.2 227.8,93.1 227.8,102.7 C227.8,112.4 230.7,120.4 236.6,126.7 C242.5,133 249.8,136.1 258.4,136.1 C267.3,136.1 274.7,133 280.5,126.9 C286.4,120.7 289.3,112.7 289.3,102.7 C289.3,92.9 286.4,85 280.5,78.9 C274.7,72.7 267.3,69.7 258.3,69.7 Z M63.8,43.8 C72.7,43.8 80.8,45.9 88.1,50 L72.3,73.2 C68,70.9 63.2,69.7 57.8,69.7 C48.9,69.7 41.6,72.7 35.7,78.8 C32.1,82.5 29.6,87 28.2,92.2 L28.2,157.9 L0,157.9 L0,46.6 L28.3,46.6 L28.3,59 C33.4,53.9 38.9,50.1 44.8,47.6 C50.7,45.1 57.1,43.8 63.8,43.8 Z" id="Combined-Shape" fill="#B82025"></path>
            <path d="M323.5,3.2 L351.7,3.2 L351.7,58.1 C357.2,53.3 362.7,49.8 368.3,47.4 C373.9,45 379.5,43.8 385.2,43.8 C396.3,43.8 405.7,47.7 413.4,55.4 C419.9,62.1 423.2,71.9 423.2,84.9 L423.2,159.2 L395.3,159.2 L395.3,109.9 C395.3,96.9 394.7,88.1 393.4,83.5 C392.2,78.9 390.1,75.4 387.1,73.2 C384.1,70.9 380.4,69.8 376.1,69.8 C370.4,69.8 365.5,71.7 361.5,75.5 C357.4,79.3 354.6,84.5 353,91 C352.2,94.4 351.8,102.1 351.8,114.1 L351.8,159.2 L323.6,159.2 L323.6,3.2 L323.5,3.2 Z M581.7,5.2 L609.9,5.2 L609.9,46.6 L626.6,46.6 L626.6,70.9 L609.9,70.9 L609.9,159.2 L581.7,159.2 L581.7,70.9 L567.2,70.9 L567.2,46.6 L581.7,46.6 L581.7,5.2 Z M663,46.6 L663,59 C668.1,53.9 673.6,50.1 679.5,47.6 C685.4,45.1 691.8,43.8 698.5,43.8 C713.2,43.8 725.6,49.3 735.9,60.4 C746.2,71.5 751.3,85.7 751.3,103.1 C751.3,119.8 746,133.8 735.4,145.1 C724.8,156.4 712.2,162 697.7,162 C691.2,162 685.2,160.8 679.6,158.5 C674,156.2 668.5,152.4 663,147.2 L663,200.3 L634.8,200.3 L634.8,46.6 L663,46.6 Z M692.6,69.7 C683.7,69.7 676.3,72.7 670.5,78.8 C664.6,84.9 661.7,92.8 661.7,102.6 C661.7,112.6 664.6,120.7 670.5,126.8 C676.4,133 683.7,136 692.6,136 C701.2,136 708.5,132.9 714.4,126.6 C720.3,120.3 723.2,112.3 723.2,102.6 C723.2,93 720.3,85.1 714.5,78.9 C708.7,72.8 701.4,69.7 692.6,69.7 Z M773.1,0.4 C778,0.4 782.3,2.2 785.8,5.8 C789.3,9.4 791.1,13.7 791.1,18.8 C791.1,23.8 789.4,28.1 785.8,31.6 C782.3,35.1 778.1,36.9 773.2,36.9 C768.2,36.9 763.9,35.1 760.4,31.5 C756.9,27.9 755.1,23.5 755.1,18.4 C755.1,13.5 756.9,9.2 760.4,5.7 C763.9,2.1 768.1,0.4 773.1,0.4 Z M758.9,46.6 L787.1,46.6 L787.1,159.2 L758.9,159.2 L758.9,46.6 Z M911.9,110.8 L821.3,110.8 C822.6,118.9 826.1,125.3 831.8,130.1 C837.5,134.9 844.7,137.2 853.5,137.2 C864,137.2 873.1,133.5 880.6,126 L904.3,137.2 C898.4,145.6 891.3,151.9 883.1,155.9 C874.8,159.9 865.1,162 853.7,162 C836.1,162 821.8,156.4 810.7,145.3 C799.6,134.2 794.1,120.2 794.1,103.5 C794.1,86.4 799.6,72.1 810.7,60.8 C821.7,49.5 835.6,43.8 852.3,43.8 C870,43.8 884.4,49.4 895.5,60.7 C906.6,72 912.1,86.9 912.1,105.4 L911.9,110.8 Z M883.8,88.8 C881.9,82.6 878.2,77.6 872.8,73.7 C867.3,69.8 860.9,67.9 853.7,67.9 C845.8,67.9 838.9,70.1 833,74.4 C829.3,77.1 825.8,81.9 822.6,88.8 L883.8,88.8 Z M558.5,69 C564.6,79.6 567.6,91 567.8,103.1 C567.8,115.4 564.7,127 558.6,137.7 C552.5,148.5 544.1,156.8 533.5,162.9 C522.9,169 511.2,172 498.5,172 C479.7,172 463.7,165.3 450.4,152 C437.1,138.7 430.5,122.5 430.5,103.4 C430.5,95 431.8,87.2 434.3,80 L464.1,93.9 C463.5,96.9 463.2,100 463.2,103.3 C463.2,114.6 466.6,123.9 473.3,130.9 C480,138 488.5,141.5 498.8,141.5 C509,141.5 517.6,137.9 524.4,130.8 C531.2,123.7 534.6,114.5 534.6,103.3 C534.6,92.1 531.2,83 524.5,76 C518.3,69.6 510.7,66.2 501.5,65.6 L496.4,34.6 C497,34.6 497.7,34.6 498.3,34.6 C510.6,34.6 522.2,37.7 533.1,43.9 C543.9,50.1 552.4,58.4 558.5,69 Z" id="Combined-Shape" fill="#575757"></path>
            <path d="M487,31.5 C486.1,27.4 483.8,25.4 483.3,24.9 C483.2,24.8 483.1,24.8 483,24.7 C480.6,23.1 477.7,23 476,23.1 C466.1,24.4 456.5,28.1 448.1,34.4 C439.8,40.7 433.7,48.8 429.7,58 C429.2,59.4 428.5,62 429.1,64.6 C429.2,65.1 429.4,65.5 429.6,66 C430.1,67 431.7,69.4 435,71.1 L496,99.5 C496.5,99.6 496.9,99.6 497.3,99.3 C497.7,99 497.9,98.5 497.8,98.1 L487,31.5 Z M476,35.8 C470.7,36.2 462.2,39.4 456.2,43.8 C450.3,48.3 444.8,56 443.2,60.5 C441.6,65 439,61.7 439,61.7 C438.7,61.1 438.7,61 438.6,60.7 C438.2,58.8 438.7,57 439,56 C441.8,49.5 446.1,43.7 452,39.3 C457.9,34.8 464.7,32.2 471.8,31.3 C473,31.2 474.4,31 476.1,32.2 C476.3,32.1 478.7,35.6 476,35.8 Z" id="Shape" fill="#B8D433"></path>
            <path d="M922.9,19.8 L930.5,29.6 L926.9,29.6 L919.3,19.8 L918.7,19.8 L918.7,29.6 L915.8,29.6 L915.8,7.8 L920.4,7.8 C921.6,7.8 922.6,7.9 923.4,7.9 C924.2,7.9 924.8,8 925.3,8.1 C926.7,8.4 927.8,9.1 928.6,10.1 C929.5,11.1 929.9,12.3 929.9,13.8 C929.9,15 929.6,16.1 929,17 C928.4,17.9 927.6,18.6 926.5,19.1 C925.5,19.5 924.4,19.7 922.9,19.8 Z M918.7,10.6 L918.7,17 L922,17 C923.4,17 924.4,16.8 925,16.6 C925.6,16.4 926.1,16 926.4,15.5 C926.7,14.9 926.9,14.4 926.9,13.7 C926.9,13.1 926.8,12.5 926.4,12 C926.1,11.5 925.7,11.1 925.1,10.9 C924.5,10.7 923.5,10.6 922.1,10.6 L918.7,10.6 Z M940.8,18.4 L940.8,19.2 C940.6,29.4 932.3,37.6 922.1,37.6 C911.7,37.6 903.3,29.2 903.3,18.8 C903.3,8.4 911.7,7.10542736e-15 922.1,7.10542736e-15 C932.3,7.10542736e-15 940.6,8.2 940.8,18.4 Z M922,2.7 C917.6,2.7 913.6,4.5 910.6,7.4 C907.7,10.4 905.9,14.4 905.9,18.8 C905.9,23.3 907.7,27.3 910.6,30.2 C913.5,33.1 917.6,34.9 922,34.9 C926.5,34.9 930.5,33.1 933.4,30.2 C936.3,27.3 938.1,23.2 938.1,18.8 C938.1,14.3 936.3,10.3 933.4,7.4 C930.4,4.5 926.4,2.7 922,2.7 Z" id="Combined-Shape" fill="#575757"></path>
        </g>
    </g>
</svg>