<?xml version="1.0" encoding="UTF-8"?>
<svg width="40px" height="40px" viewBox="0 0 40 40" version="1.1" xmlns="http://www.w3.org/2000/svg" xmlns:xlink="http://www.w3.org/1999/xlink">
    <!-- Generator: Sketch 49 (51002) - http://www.bohemiancoding.com/sketch -->
    <title>Artboard Copy 6</title>
    <desc>Created with Sketch.</desc>
    <defs>
        <path d="M19.7777778,14.5555556 C18.2436535,14.5555556 17,13.3119021 17,11.7777778 C17,10.2436535 18.2436535,9 19.7777778,9 C21.3119021,9 22.5555556,10.2436535 22.5555556,11.7777778 C22.5555556,13.3119021 21.3119021,14.5555556 19.7777778,14.5555556 Z M19.7777778,24.3333333 C18.2436535,24.3333333 17,23.0896799 17,21.5555556 C17,20.0214313 18.2436535,18.7777778 19.7777778,18.7777778 C21.3119021,18.7777778 22.5555556,20.0214313 22.5555556,21.5555556 C22.5555556,23.0896799 21.3119021,24.3333333 19.7777778,24.3333333 Z M19.7777778,34.1111111 C18.2436535,34.1111111 17,32.8674576 17,31.3333333 C17,29.799209 18.2436535,28.5555556 19.7777778,28.5555556 C21.3119021,28.5555556 22.5555556,29.799209 22.5555556,31.3333333 C22.5555556,32.8674576 21.3119021,34.1111111 19.7777778,34.1111111 Z" id="path-1"></path>
    </defs>
    <g id="Artboard-Copy-6" stroke="none" stroke-width="1" fill="none" fill-rule="evenodd">
        <mask id="mask-2" fill="white">
            <use xlink:href="#path-1"></use>
        </mask>
        <g id="Combined-Shape" transform="translate(19.777778, 21.555556) rotate(90.000000) translate(-19.777778, -21.555556) ">
            <use fill="#FFFFFF" fill-rule="evenodd" xlink:href="#path-1"></use>
            <path stroke="#666666" stroke-width="1" d="M19.7777778,15.0555556 C17.9675111,15.0555556 16.5,13.5880445 16.5,11.7777778 C16.5,9.9675111 17.9675111,8.5 19.7777778,8.5 C21.5880445,8.5 23.0555556,9.9675111 23.0555556,11.7777778 C23.0555556,13.5880445 21.5880445,15.0555556 19.7777778,15.0555556 Z M19.7777778,24.8333333 C17.9675111,24.8333333 16.5,23.3658222 16.5,21.5555556 C16.5,19.7452889 17.9675111,18.2777778 19.7777778,18.2777778 C21.5880445,18.2777778 23.0555556,19.7452889 23.0555556,21.5555556 C23.0555556,23.3658222 21.5880445,24.8333333 19.7777778,24.8333333 Z M19.7777778,34.6111111 C17.9675111,34.6111111 16.5,33.1436 16.5,31.3333333 C16.5,29.5230667 17.9675111,28.0555556 19.7777778,28.0555556 C21.5880445,28.0555556 23.0555556,29.5230667 23.0555556,31.3333333 C23.0555556,33.1436 21.5880445,34.6111111 19.7777778,34.6111111 Z"></path>
        </g>
    </g>
</svg>