<?xml version="1.0" encoding="UTF-8"?>
<svg width="28px" height="34px" viewBox="0 0 28 34" version="1.1" xmlns="http://www.w3.org/2000/svg" xmlns:xlink="http://www.w3.org/1999/xlink">
    <!-- Generator: Sketch 57.1 (83088) - https://sketch.com -->
    <title>icDeleteEp</title>
    <desc>Created with Sketch.</desc>
    <defs>
        <path d="M740.525041,962.711463 C740.923797,962.72803 741.240999,963.037199 741.277135,963.422726 L741.279872,963.529601 L740.316121,986.593925 C740.25274,988.110745 739.016952,989.343557 737.513488,989.432796 L737.338875,989.437969 L720.521125,989.437969 C718.997587,989.437969 717.708429,988.259373 717.556332,986.767415 L717.543879,986.593925 L716.580128,963.529601 C716.562003,963.095829 716.899952,962.729537 717.334959,962.711463 C717.733715,962.694895 718.07561,962.976679 718.143784,963.357872 L718.155428,963.464149 L719.119179,986.528474 C719.147807,987.213595 719.707148,987.789482 720.384255,987.858791 L720.521125,987.865781 L737.338875,987.865781 C738.029778,987.865781 738.630529,987.333891 738.728131,986.664144 L738.740821,986.528474 L739.704572,963.464149 C739.722698,963.030378 740.090034,962.693389 740.525041,962.711463 Z M729.192778,965.855156 C729.59188,965.855156 729.921714,966.150889 729.973915,966.534582 L729.981111,966.64125 L729.981111,984.459375 C729.981111,984.893523 729.628162,985.245469 729.192778,985.245469 C728.793675,985.245469 728.463842,984.949736 728.411641,984.566043 L728.404444,984.459375 L728.404444,966.64125 C728.404444,966.207102 728.757393,965.855156 729.192778,965.855156 Z M723.125713,965.855496 C723.524643,965.843796 723.863053,966.129732 723.926543,966.511728 L723.936881,966.61814 L724.462437,984.436265 C724.475237,984.870225 724.132817,985.232365 723.697621,985.245129 C723.298691,985.256829 722.960281,984.970893 722.89679,984.588897 L722.886452,984.482485 L722.360896,966.66436 C722.348096,966.2304 722.690516,965.86826 723.125713,965.855496 Z M734.734287,965.855496 C735.133217,965.867196 735.454189,966.17247 735.495055,966.557527 L735.499104,966.66436 L734.973548,984.482485 C734.960748,984.916445 734.597576,985.257892 734.162379,985.245129 C733.763449,985.233429 733.442477,984.928155 733.401612,984.543098 L733.397563,984.436265 L733.923119,966.61814 C733.935918,966.18418 734.299091,965.842733 734.734287,965.855496 Z M731.820556,956.422031 C732.869455,956.422031 733.964802,957.161499 734.355023,958.13428 L734.355023,958.13428 L734.823778,959.304031 L742.068889,959.304375 C742.504273,959.304375 742.857222,959.656321 742.857222,960.090469 C742.857222,960.488437 742.560647,960.817334 742.175861,960.869386 L742.068889,960.876562 L715.791111,960.876562 C715.355727,960.876562 715.002778,960.524616 715.002778,960.090469 C715.002778,959.6925 715.299353,959.363604 715.684139,959.311551 L715.791111,959.304375 L723.034778,959.304031 L723.504977,958.13428 C723.872555,957.217946 724.87352,956.505182 725.864753,956.428814 L726.039444,956.422031 Z M731.820556,957.994219 L726.039444,957.994219 C725.638127,957.994219 725.118618,958.344882 724.968875,958.718176 L724.968875,958.718176 L724.733778,959.304031 L733.125778,959.304031 L732.891125,958.718176 C732.754051,958.376464 732.315482,958.057735 731.933195,958.002608 L731.820556,957.994219 Z" id="path-1"></path>
    </defs>
    <g id="Desktop-Manage-Photos" stroke="none" stroke-width="1" fill="none" fill-rule="evenodd">
        <g id="Desktop-Edit-Profile/photos-album-not-mp-mouseover" transform="translate(-715.000000, -956.000000)">
            <mask id="mask-2" fill="white">
                <use xlink:href="#path-1"></use>
            </mask>
            <use id="icDeleteEp" fill="#FFFFFF" fill-rule="nonzero" xlink:href="#path-1"></use>
        </g>
    </g>
</svg>