<?xml version="1.0" encoding="UTF-8"?>
<svg width="16px" height="16px" viewBox="0 0 16 16" version="1.1" xmlns="http://www.w3.org/2000/svg" xmlns:xlink="http://www.w3.org/1999/xlink">
    <!-- Generator: Sketch 58 (84663) - https://sketch.com -->
    <title>icLegalEProfileActive</title>
    <desc>Created with Sketch.</desc>
    <defs>
        <path d="M79.5908505,717.416339 C80.7767256,717.416339 81.7381075,718.362846 81.7381075,719.530461 C81.7381075,720.64731 80.858543,721.56186 79.7442009,721.639275 L79.5908505,721.644583 L78.0661709,721.644583 L78.0661709,730.201148 C78.0644999,731.317287 77.1857709,732.230912 76.0721648,732.309767 L75.9189139,732.315287 L68.1557539,732.315287 C67.0568729,732.319453 66.1321389,731.506173 66.0128645,730.43066 C65.8897369,729.32043 66.6632842,728.317251 67.7624898,728.121201 L67.9143463,728.099536 L67.9143463,719.530461 C67.9160174,718.414322 68.7947464,717.500697 69.9083524,717.421856 L70.0616034,717.416339 L79.5908505,717.416339 Z M74.3974108,728.709379 L68.1557539,728.709379 C67.3198404,728.709379 66.6421918,729.37657 66.6421918,730.199585 C66.6421918,730.976876 67.2466377,731.615177 68.0179895,731.683701 L68.1557539,731.689791 L74.3974108,731.689791 C73.5634429,730.865955 73.5634429,729.533175 74.3974108,728.709379 Z M78.0566417,718.041819 L70.0616034,718.041819 C69.2810272,718.049876 68.6432117,718.638068 68.5694522,719.388046 L68.5623351,719.530461 L68.5623351,728.087026 L75.9220903,728.087026 C76.0975079,728.087026 76.2397319,728.227056 76.2397319,728.399766 C76.2397319,728.572477 76.0975079,728.712506 75.9220903,728.712506 C75.0870504,728.712506 74.4101165,729.378994 74.4101165,730.201148 C74.4101165,731.023303 75.0870504,731.689791 75.9220903,731.689791 C76.7080103,731.689791 77.3538779,731.099407 77.4271428,730.344515 L77.4340642,730.201148 L77.4340642,719.530343 C77.4333892,718.972611 77.6572471,718.437356 78.0566417,718.041819 Z M75.2164718,725.273309 C75.3955493,725.273309 75.5407407,725.459042 75.5407407,725.688124 C75.5407407,725.917205 75.3955493,726.102939 75.2164718,726.102939 L75.2164718,726.102939 L70.4724171,726.102939 C70.2933396,726.102939 70.1481481,725.917205 70.1481481,725.688124 C70.1481481,725.459042 70.2933396,725.273309 70.4724171,725.273309 L70.4724171,725.273309 Z M70.4724171,722.78442 L75.2164718,722.78442 C75.3955493,722.78442 75.5407407,722.970154 75.5407407,723.199235 C75.5407407,723.399681 75.4295786,723.566939 75.2818201,723.605622 L75.2164718,723.61405 L70.4724171,723.61405 C70.2933396,723.61405 70.1481481,723.428316 70.1481481,723.199235 C70.1481481,722.998789 70.2593103,722.831531 70.4070688,722.792848 L70.4724171,722.78442 L75.2164718,722.78442 Z M75.2164718,720.295531 C75.3955493,720.295531 75.5407407,720.481265 75.5407407,720.710346 C75.5407407,720.910792 75.4295786,721.07805 75.2818201,721.116733 L75.2164718,721.125161 L70.4724171,721.125161 C70.2933396,721.125161 70.1481481,720.939428 70.1481481,720.710346 C70.1481481,720.5099 70.2593103,720.342642 70.4070688,720.303959 L70.4724171,720.295531 L75.2164718,720.295531 Z M79.2732089,720.506209 L78.0693474,720.506209 L78.0693474,721.019103 L79.2732089,721.019103 L79.2732089,720.506209 Z M79.5853712,718.045801 C78.7994512,718.043745 78.1519658,718.632415 78.0766567,719.387113 L78.0693474,719.530461 L78.0693474,719.88073 L79.5908505,719.88073 C79.7412084,719.88073 79.8671792,719.983608 79.9001023,720.121764 L79.9084921,720.193469 L79.9084921,720.987829 C80.599164,720.837088 81.0913893,720.234986 81.0933006,719.538436 C81.0955186,718.716281 80.4204112,718.047995 79.5853712,718.045801 Z" id="path-1"></path>
    </defs>
    <g id="Legal" stroke="none" stroke-width="1" fill="none" fill-rule="evenodd">
        <g id="Desktop-Legal" transform="translate(-66.000000, -717.000000)">
            <mask id="mask-2" fill="white">
                <use xlink:href="#path-1"></use>
            </mask>
            <use id="icLegalEProfileActive" fill="#333333" fill-rule="nonzero" xlink:href="#path-1"></use>
        </g>
    </g>
</svg>