<?xml version="1.0" encoding="UTF-8"?>
<svg width="16px" height="16px" viewBox="0 0 16 16" version="1.1" xmlns="http://www.w3.org/2000/svg" xmlns:xlink="http://www.w3.org/1999/xlink">
    <!-- Generator: Sketch 58 (84663) - https://sketch.com -->
    <title>icLegalEProfile</title>
    <desc>Created with Sketch.</desc>
    <defs>
        <path d="M109.59085,717.416339 C110.776726,717.416339 111.738108,718.362846 111.738108,719.530461 C111.738108,720.64731 110.858543,721.56186 109.744201,721.639275 L109.59085,721.644583 L108.066171,721.644583 L108.066171,730.201148 C108.0645,731.317287 107.185771,732.230912 106.072165,732.309767 L105.918914,732.315287 L98.1557539,732.315287 C97.0568729,732.319453 96.1321389,731.506173 96.0128645,730.43066 C95.8897369,729.32043 96.6632842,728.317251 97.7624898,728.121201 L97.9143463,728.099536 L97.9143463,719.530461 C97.9160174,718.414322 98.7947464,717.500697 99.9083524,717.421856 L100.061603,717.416339 L109.59085,717.416339 Z M104.397411,728.709379 L98.1557539,728.709379 C97.3198404,728.709379 96.6421918,729.37657 96.6421918,730.199585 C96.6421918,730.976876 97.2466377,731.615177 98.0179895,731.683701 L98.1557539,731.689791 L104.397411,731.689791 C103.563443,730.865955 103.563443,729.533175 104.397411,728.709379 Z M108.056642,718.041819 L100.061603,718.041819 C99.2810272,718.049876 98.6432117,718.638068 98.5694522,719.388046 L98.5623351,719.530461 L98.5623351,728.087026 L105.92209,728.087026 C106.097508,728.087026 106.239732,728.227056 106.239732,728.399766 C106.239732,728.572477 106.097508,728.712506 105.92209,728.712506 C105.08705,728.712506 104.410116,729.378994 104.410116,730.201148 C104.410116,731.023303 105.08705,731.689791 105.92209,731.689791 C106.70801,731.689791 107.353878,731.099407 107.427143,730.344515 L107.434064,730.201148 L107.434064,719.530343 C107.433389,718.972611 107.657247,718.437356 108.056642,718.041819 Z M105.216472,725.273309 C105.395549,725.273309 105.540741,725.459042 105.540741,725.688124 C105.540741,725.917205 105.395549,726.102939 105.216472,726.102939 L105.216472,726.102939 L100.472417,726.102939 C100.29334,726.102939 100.148148,725.917205 100.148148,725.688124 C100.148148,725.459042 100.29334,725.273309 100.472417,725.273309 L100.472417,725.273309 Z M100.472417,722.78442 L105.216472,722.78442 C105.395549,722.78442 105.540741,722.970154 105.540741,723.199235 C105.540741,723.399681 105.429579,723.566939 105.28182,723.605622 L105.216472,723.61405 L100.472417,723.61405 C100.29334,723.61405 100.148148,723.428316 100.148148,723.199235 C100.148148,722.998789 100.25931,722.831531 100.407069,722.792848 L100.472417,722.78442 L105.216472,722.78442 Z M105.216472,720.295531 C105.395549,720.295531 105.540741,720.481265 105.540741,720.710346 C105.540741,720.910792 105.429579,721.07805 105.28182,721.116733 L105.216472,721.125161 L100.472417,721.125161 C100.29334,721.125161 100.148148,720.939428 100.148148,720.710346 C100.148148,720.5099 100.25931,720.342642 100.407069,720.303959 L100.472417,720.295531 L105.216472,720.295531 Z M109.273209,720.506209 L108.069347,720.506209 L108.069347,721.019103 L109.273209,721.019103 L109.273209,720.506209 Z M109.585371,718.045801 C108.799451,718.043745 108.151966,718.632415 108.076657,719.387113 L108.069347,719.530461 L108.069347,719.88073 L109.59085,719.88073 C109.741208,719.88073 109.867179,719.983608 109.900102,720.121764 L109.908492,720.193469 L109.908492,720.987829 C110.599164,720.837088 111.091389,720.234986 111.093301,719.538436 C111.095519,718.716281 110.420411,718.047995 109.585371,718.045801 Z" id="path-1"></path>
    </defs>
    <g id="Legal" stroke="none" stroke-width="1" fill="none" fill-rule="evenodd">
        <g id="Desktop-Legal" transform="translate(-96.000000, -717.000000)">
            <mask id="mask-2" fill="white">
                <use xlink:href="#path-1"></use>
            </mask>
            <use id="icLegalEProfile" fill="#666666" fill-rule="nonzero" xlink:href="#path-1"></use>
        </g>
    </g>
</svg>