<?xml version="1.0" encoding="UTF-8"?>
<svg width="40px" height="40px" viewBox="0 0 40 40" version="1.1" xmlns="http://www.w3.org/2000/svg" xmlns:xlink="http://www.w3.org/1999/xlink">
    <!-- Generator: Sketch 57.1 (83088) - https://sketch.com -->
    <title>icMakeMainEp</title>
    <desc>Created with Sketch.</desc>
    <defs>
        <path d="M681.976634,944.8 C683.075034,944.8 684.060634,945.412 684.546234,946.3968 L684.546234,946.3968 L688.871034,955.1616 C689.055034,955.5352 689.411034,955.7936 689.823034,955.8536 L689.823034,955.8536 L699.496634,957.2592 C700.584634,957.4176 701.470234,958.164 701.810234,959.2096 C702.149434,960.2552 701.871834,961.38 701.085434,962.1464 L701.085434,962.1464 L694.086234,968.9696 C693.787834,969.2608 693.651034,969.6792 693.721434,970.0896 L693.721434,970.0896 L695.373434,979.7232 C695.519834,980.5696 695.298234,981.396 694.748634,982.0464 C694.197434,982.7008 693.395834,983.0768 692.550234,983.0768 C692.087034,983.0768 691.638234,982.9648 691.217434,982.7432 L691.217434,982.7432 L682.565434,978.1944 C682.204634,978.0064 681.749434,978.0048 681.387834,978.1944 L681.387834,978.1944 L672.736634,982.7432 C671.546234,983.3688 670.057434,983.06 669.204634,982.0464 C668.655834,981.396 668.433434,980.5712 668.579834,979.7232 L668.579834,979.7232 L670.231034,970.0896 C670.301434,969.68 670.164634,969.2608 669.866234,968.9696 L669.866234,968.9696 L662.867034,962.1472 C662.080634,961.3808 661.803034,960.256 662.142234,959.2104 C662.482234,958.1648 663.368634,957.4176 664.455834,957.26 L664.455834,957.26 L674.129434,955.8544 C674.541434,955.7944 674.898234,955.536 675.082234,955.1624 L675.082234,955.1624 L679.407834,946.3968 C679.893434,945.412 680.879034,944.8 681.976634,944.8 Z M682,946.058691 C680.442676,946.058691 680.127053,947.490028 679.695921,948.364368 L675.855505,956.146767 C675.692143,956.478462 675.375364,956.707878 675.009577,956.761148 L666.421024,958.009088 C664.519287,958.119092 663.141797,958.664941 663.141797,960.043262 C663.141797,961.421582 665.420443,962.873861 665.595573,963.113802 L671.224562,968.405271 C671.489491,968.663809 671.610947,969.035989 671.548444,969.399646 L670.082452,977.952685 C669.951237,978.626758 669.212891,980.633945 670.082452,981.240972 C671.471574,982.210698 672.716123,981.189374 673.773001,980.633945 L681.453832,976.595364 C681.774873,976.427031 682.179015,976.428452 682.499346,976.595364 L689.514063,980.327083 C689.887663,980.523827 692.551562,982.348694 693.686719,981.491319 C694.821875,980.633945 694.215625,979.570703 693.870726,977.952685 L692.404024,969.399646 C692.341521,969.035279 692.462976,968.663809 692.727906,968.405271 L698.810938,963.113802 C699.878125,962.163021 701.045898,961.114648 700.814648,959.74072 C700.583398,958.366791 698.780221,958.149721 697.814258,958.009088 L688.942891,956.760438 C688.577104,956.707168 688.261035,956.477752 688.097673,956.146057 L684.257968,948.364368 C683.826836,947.490028 683.557324,946.058691 682,946.058691 Z" id="path-1"></path>
    </defs>
    <g id="Desktop-Manage-Photos" stroke="none" stroke-width="1" fill="none" fill-rule="evenodd">
        <g id="Desktop-Edit-Profile/photos-album-not-mp-mouseover" transform="translate(-662.000000, -944.000000)">
            <mask id="mask-2" fill="white">
                <use xlink:href="#path-1"></use>
            </mask>
            <use id="icMakeMainEp" fill="#FFFFFF" fill-rule="nonzero" xlink:href="#path-1"></use>
        </g>
    </g>
</svg>