<?xml version="1.0" encoding="UTF-8"?>
<svg width="36px" height="31px" viewBox="0 0 36 31" version="1.1" xmlns="http://www.w3.org/2000/svg" xmlns:xlink="http://www.w3.org/1999/xlink">
    <!-- Generator: Sketch 57.1 (83088) - https://sketch.com -->
    <title>icMoveEp</title>
    <desc>Created with Sketch.</desc>
    <defs>
        <path d="M609.659653,978.020833 L637.926875,978.020833 C639.717778,978.020833 641.169861,976.56875 641.169861,974.777847 L641.169861,957.546458 C641.169861,955.755556 639.717778,954.303472 637.926875,954.303472 L625.148542,954.303472 C624.712917,954.303472 624.325694,954.158264 624.035278,953.867847 L619.340208,949.802014 C618.710972,949.221181 617.984931,948.979167 617.210486,948.979167 L609.659653,948.979167 C607.86875,948.979167 606.416667,950.43125 606.416667,952.222153 L606.416667,974.777847 C606.416667,976.56875 607.86875,978.020833 609.659653,978.020833 Z M607.917153,952.222153 C607.917153,951.254097 608.691597,950.479653 609.659653,950.479653 L617.210486,950.479653 C617.646111,950.479653 618.033333,950.624861 618.32375,950.915278 L623.018819,954.981111 C623.599653,955.513542 624.374097,955.755556 625.148542,955.755556 L637.926875,955.755556 C638.894931,955.755556 639.669375,956.53 639.669375,957.498056 L639.669375,974.729444 C639.669375,975.6975 638.894931,976.471944 637.926875,976.471944 L609.659653,976.471944 C608.691597,976.471944 607.917153,975.6975 607.917153,974.729444 C607.917153,974.777847 607.917153,952.222153 607.917153,952.222153 Z" id="path-1"></path>
    </defs>
    <g id="Desktop-Manage-Photos" stroke="none" stroke-width="1" fill="none" fill-rule="evenodd">
        <g id="Desktop-Edit-Profile/photos-album-not-mp-mouseover" transform="translate(-606.000000, -948.000000)">
            <mask id="mask-2" fill="white">
                <use xlink:href="#path-1"></use>
            </mask>
            <use id="icMoveEp" fill="#FFFFFF" fill-rule="nonzero" xlink:href="#path-1"></use>
        </g>
    </g>
</svg>