<?xml version="1.0" encoding="UTF-8"?>
<svg width="35px" height="30px" viewBox="0 0 35 30" version="1.1" xmlns="http://www.w3.org/2000/svg" xmlns:xlink="http://www.w3.org/1999/xlink">
    <!-- Generator: Sketch 57.1 (83088) - https://sketch.com -->
    <title>icPhotoRejectedM</title>
    <desc>Created with Sketch.</desc>
    <defs>
        <path d="M33.7564217,26.3975017 L20.2563653,1.59004423 C19.8623553,0.963080387 19.1549141,0.579710145 18.3918104,0.579710145 C17.6287067,0.579710145 16.9212656,0.963013795 16.5272556,1.59004423 L0.937036951,26.3975017 C0.531575222,27.0427118 0.519568224,27.8474763 0.905735472,28.5034743 C1.29190272,29.1595388 2.01627863,29.5652174 2.80152238,29.5652174 L31.8918669,29.5652174 C32.6771106,29.5652174 33.4014865,29.1594722 33.7876538,28.5034743 C34.173821,27.8474097 34.1618834,27.0427118 33.7564217,26.3975017 Z" id="path-1"></path>
    </defs>
    <g id="Desktop-Manage-Photos" stroke="none" stroke-width="1" fill="none" fill-rule="evenodd">
        <g id="icPhotoRejectedM">
            <mask id="mask-2" fill="white">
                <use xlink:href="#path-1"></use>
            </mask>
            <use id="Mask" fill="#FF0000" fill-rule="nonzero" xlink:href="#path-1"></use>
            <path d="M17.9155955,9.49832776 C18.8151881,9.49832776 19.5763657,9.97553759 19.5763657,10.8213753 C19.5763657,13.4023605 19.2534439,17.111326 19.2534439,19.6923113 C19.2534439,20.3647194 18.4691856,20.6465998 17.9155955,20.6465998 C17.1775684,20.6465998 16.554736,20.3646539 16.554736,19.6923113 C16.554736,17.111326 16.2318841,13.4023605 16.2318841,10.8213753 C16.2318841,9.97553759 16.9699111,9.49832776 17.9155955,9.49832776 Z" id="Path" fill="#FFFFFF" fill-rule="nonzero"></path>
            <path d="M17.9150614,25.1059086 C16.9533024,25.1059086 16.2318841,24.3240851 16.2318841,23.4336678 C16.2318841,22.5215185 16.9532364,21.761427 17.9150614,21.761427 C18.811267,21.761427 19.5763657,22.5215185 19.5763657,23.4336678 C19.5763657,24.3240851 18.811267,25.1059086 17.9150614,25.1059086 Z" id="Path" fill="#FFFFFF" fill-rule="nonzero"></path>
        </g>
    </g>
</svg>