<?xml version="1.0" encoding="UTF-8"?>
<svg width="56px" height="49px" viewBox="0 0 56 49" version="1.1" xmlns="http://www.w3.org/2000/svg" xmlns:xlink="http://www.w3.org/1999/xlink">
    <!-- Generator: Sketch 57.1 (83088) - https://sketch.com -->
    <title>icPhotoRejectedL</title>
    <desc>Created with Sketch.</desc>
    <defs>
        <path d="M55.2201974,43.0296526 L32.7201034,1.68389014 C32.0634201,0.638950403 30.8843514,0 29.612512,0 C28.3406725,0 27.1616039,0.638839417 26.5049206,1.68389014 L0.521222863,43.0296526 C-0.154546686,44.1050027 -0.174558348,45.4462769 0.469053731,46.5396069 C1.11266581,47.6330478 2.31995899,48.3091787 3.62869858,48.3091787 L52.112606,48.3091787 C53.4213456,48.3091787 54.6286388,47.6329368 55.2722509,46.5396069 C55.915863,45.446166 55.895967,44.1050027 55.2201974,43.0296526 Z" id="path-1"></path>
    </defs>
    <g id="Desktop-Manage-Photos" stroke="none" stroke-width="1" fill="none" fill-rule="evenodd">
        <g id="icPhotoRejectedL">
            <mask id="mask-2" fill="white">
                <use xlink:href="#path-1"></use>
            </mask>
            <use id="Mask" fill="#FF0000" fill-rule="nonzero" xlink:href="#path-1"></use>
            <path d="M28.8593259,15.8305463 C30.3586468,15.8305463 31.6272761,16.625896 31.6272761,18.0356255 C31.6272761,22.3372675 31.0890732,28.5188767 31.0890732,32.8205188 C31.0890732,33.9411991 29.7819759,34.4109996 28.8593259,34.4109996 C27.6292807,34.4109996 26.5912267,33.9410898 26.5912267,32.8205188 C26.5912267,28.5188767 26.0531401,22.3372675 26.0531401,18.0356255 C26.0531401,16.625896 27.2831852,15.8305463 28.8593259,15.8305463 Z" id="Path" fill="#FFFFFF" fill-rule="nonzero"></path>
            <path d="M28.8584357,41.843181 C27.2555041,41.843181 26.0531401,40.5401419 26.0531401,39.056113 C26.0531401,37.5358642 27.2553939,36.269045 28.8584357,36.269045 C30.3521117,36.269045 31.6272761,37.5358642 31.6272761,39.056113 C31.6272761,40.5401419 30.3521117,41.843181 28.8584357,41.843181 Z" id="Path" fill="#FFFFFF" fill-rule="nonzero"></path>
        </g>
    </g>
</svg>