<?xml version="1.0" encoding="UTF-8"?>
<svg width="20px" height="17px" viewBox="0 0 20 17" version="1.1" xmlns="http://www.w3.org/2000/svg" xmlns:xlink="http://www.w3.org/1999/xlink">
    <!-- Generator: Sketch 57.1 (83088) - https://sketch.com -->
    <title>icPhotoRejectedS</title>
    <desc>Created with Sketch.</desc>
    <defs>
        <path d="M19.8130068,15.1421348 L11.7399731,0.592560939 C11.5043551,0.224846647 11.0813053,0 10.6249693,0 C10.1686333,0 9.74558347,0.224807591 9.50996551,0.592560939 L0.187014763,15.1421348 C-0.0554513508,15.5205505 -0.0626315353,15.9925449 0.168296479,16.3772877 C0.399224493,16.7620695 0.832401287,17 1.30197705,17 L18.698003,17 C19.1675788,17 19.6007556,16.7620305 19.8316836,16.3772877 C20.0626116,15.9925058 20.055473,15.5205505 19.8130068,15.1421348 Z" id="path-1"></path>
    </defs>
    <g id="Desktop-Manage-Photos" stroke="none" stroke-width="1" fill="none" fill-rule="evenodd">
        <g id="icPhotoRejectedS">
            <mask id="mask-2" fill="white">
                <use xlink:href="#path-1"></use>
            </mask>
            <use id="Mask" fill="#FF0000" fill-rule="nonzero" xlink:href="#path-1"></use>
            <path d="M10.5068595,5 C11.0448158,5 11.5,5.29964005 11.5,5.83074154 C11.5,7.45134216 11.3068928,9.78020162 11.3068928,11.4008022 C11.3068928,11.8230073 10.8379063,12 10.5068595,12 C10.0655193,12 9.69306549,11.8229662 9.69306549,11.4008022 C9.69306549,9.78020162 9.5,7.45134216 9.5,5.83074154 C9.5,5.29964005 9.9413402,5 10.5068595,5 Z" id="Path" fill="#FFFFFF" fill-rule="nonzero"></path>
            <path d="M10.5065401,14 C9.93140819,14 9.5,13.5324696 9.5,13 C9.5,12.4545347 9.93136867,12 10.5065401,12 C11.042471,12 11.5,12.4545347 11.5,13 C11.5,13.5324696 11.042471,14 10.5065401,14 Z" id="Path" fill="#FFFFFF" fill-rule="nonzero"></path>
        </g>
    </g>
</svg>