<?xml version="1.0" encoding="UTF-8"?>
<svg width="19px" height="23px" viewBox="0 0 19 23" version="1.1" xmlns="http://www.w3.org/2000/svg" xmlns:xlink="http://www.w3.org/1999/xlink">
    <!-- Generator: Sketch 55.2 (78181) - https://sketchapp.com -->
    <title>icProfilePrivacy</title>
    <desc>Created with Sketch.</desc>
    <g id="Desktop-Edit-profile" stroke="none" stroke-width="1" fill="none" fill-rule="evenodd">
        <path d="M17.9818182,19.7881026 L17.9818182,11.7708718 C17.9818182,10.5881026 17.0220909,9.62564103 15.8426818,9.62564103 L3.75731818,9.62564103 C2.57790909,9.62564103 1.61818182,10.5881026 1.61818182,11.7708718 L1.61818182,19.7881026 C1.61818182,20.9708718 2.57790909,21.9333333 3.75731818,21.9333333 L15.8426818,21.9333333 C17.0220909,21.9333333 17.9818182,20.9708718 17.9818182,19.7881026 Z M4.07272727,6.54871795 L4.07272727,8.80512821 L15.5272727,8.80512821 L15.5272727,6.54871795 C15.5272727,3.72082051 12.9581818,1.42051282 9.8,1.42051282 C6.64181818,1.42051282 4.07272727,3.72082051 4.07272727,6.54871795 Z M16.3454545,8.85148718 C17.7367727,9.09189744 18.8,10.3078974 18.8,11.7708718 L18.8,19.7881026 C18.8,21.4233846 17.4733182,22.7538462 15.8426818,22.7538462 L3.75731818,22.7538462 C2.12668182,22.7538462 0.8,21.4233846 0.8,19.7885128 L0.8,11.7712821 C0.8,10.3078974 1.86322727,9.09189744 3.25454545,8.85148718 L3.25454545,6.54871795 C3.25454545,3.26871795 6.191,0.6 9.8,0.6 C13.409,0.6 16.3454545,3.26871795 16.3454545,6.54871795 L16.3454545,8.85148718 Z M11.1846154,16.0285714 L11.1846154,14.2483516 C11.1846154,13.9210879 10.8741154,13.6549451 10.4923077,13.6549451 C10.1105,13.6549451 9.8,13.9210879 9.8,14.2483516 L9.8,16.0285714 C9.8,16.3558352 10.1105,16.621978 10.4923077,16.621978 C10.8741154,16.621978 11.1846154,16.3558352 11.1846154,16.0285714 Z M10.4923077,13.0615385 C11.2559231,13.0615385 11.8769231,13.5938242 11.8769231,14.2483516 L11.8769231,16.0285714 C11.8769231,16.6830989 11.2559231,17.2153846 10.4923077,17.2153846 C9.72869231,17.2153846 9.10769231,16.6830989 9.10769231,16.0285714 L9.10769231,14.2483516 C9.10769231,13.5938242 9.72869231,13.0615385 10.4923077,13.0615385 Z" id="icProfilePrivacy" fill="#666666"></path>
    </g>
</svg>