<?xml version="1.0" encoding="UTF-8"?>
<svg width="18px" height="19px" viewBox="0 0 18 19" version="1.1" xmlns="http://www.w3.org/2000/svg" xmlns:xlink="http://www.w3.org/1999/xlink">
    <!-- Generator: Sketch 55.2 (78181) - https://sketchapp.com -->
    <title>icProfileHelp</title>
    <desc>Created with Sketch.</desc>
    <g id="Desktop-Edit-profile" stroke="none" stroke-width="1" fill="none" fill-rule="evenodd">
        <path d="M16.9998274,4.57525828 C17.4255225,4.0626755 17.402512,3.25207947 16.9423011,2.77525828 L15.9068265,1.7024106 C15.4466155,1.2255894 14.664257,1.20174834 14.1695302,1.64280795 L12.3862128,3.24015894 L10.5798849,6.35141722 C10.5453691,6.41101987 10.4878428,6.45870199 10.4188111,6.48254305 L9.62494727,6.75671523 L10.3267689,7.48386755 L11.3622435,8.55671523 L12.0640652,9.28386755 L12.3286865,8.46135099 C12.351697,8.38982781 12.3977181,8.33022517 12.4552445,8.29446358 L15.4926366,6.38717881 L16.9998274,4.57525828 Z M17.3449856,2.34611921 C18.0237967,3.04943046 18.0698178,4.22956291 17.4370278,4.95671523 L15.8953212,6.80439735 C15.8723106,6.82823841 15.8493001,6.85207947 15.8262895,6.864 L12.8349185,8.73552318 L12.4552445,9.91565563 C12.4207287,10.0229404 12.351697,10.0944636 12.2481496,10.1183046 C12.225139,10.1302252 12.2021285,10.1302252 12.1791179,10.1302252 C12.098581,10.1302252 12.0295494,10.1063841 11.972023,10.0467815 L8.87710451,6.84015894 C8.80807287,6.76863576 8.77355705,6.66135099 8.79656759,6.55406623 C8.81957814,6.45870199 8.90011505,6.37525828 8.99215724,6.33949669 L10.1311793,5.94611921 L11.9029914,2.88254305 C11.9144966,2.85870199 11.9375072,2.83486093 11.9605177,2.81101987 L13.7783509,1.17790728 C14.5031831,0.534198675 15.6306999,0.569960265 16.309511,1.27327152 L17.3449856,2.34611921 Z M16.8272483,15.7567152 C16.9998274,14.874596 16.7352061,13.9567152 16.1024161,13.3130066 C15.3660786,12.5500927 14.2615724,12.3116821 13.2836242,12.7050596 C13.1800767,12.7408212 13.0535187,12.7169801 12.9729818,12.6335364 L6.50701822,5.93419868 C6.4264813,5.85075497 6.39196548,5.71962914 6.43798658,5.61234437 C6.81766059,4.59909934 6.58755513,3.45472848 5.85121764,2.69181457 C5.22993289,2.03618543 4.33252157,1.76201325 3.48113135,1.94082119 L5.19541707,3.71698013 C5.3104698,3.83618543 5.3104698,4.02691391 5.19541707,4.14611921 L3.53865772,5.8626755 C3.42360499,5.98188079 3.23952061,5.98188079 3.12446788,5.8626755 L1.41018217,4.08651656 C1.24910834,4.96863576 1.50222435,5.88651656 2.13501438,6.5421457 C2.87135187,7.3050596 3.9758581,7.5434702 4.95380633,7.15009272 C4.98832215,7.13817219 5.02283797,7.12625166 5.05735379,7.12625166 C5.1378907,7.12625166 5.20692234,7.15009272 5.26444871,7.20969536 L11.7304123,13.9090331 C11.8109492,13.9924768 11.845465,14.1236026 11.7994439,14.2308874 C11.4197699,15.2441325 11.6498754,16.3885033 12.3862128,17.1514172 C13.0074976,17.8070464 13.9049089,18.0812185 14.7562991,17.9024106 L13.0420134,16.1262517 C12.9959923,16.066649 12.9614765,15.9951258 12.9614765,15.9116821 C12.9614765,15.8282384 12.9844871,15.7567152 13.0420134,15.6971126 L14.6987728,13.9805563 C14.8138255,13.861351 14.9979099,13.861351 15.1129626,13.9805563 L16.8272483,15.7567152 Z M5.42552253,14.266649 L8.35936721,11.250755 L7.73808245,10.6070464 L4.81574305,13.6348609 C4.7927325,13.6467815 4.76972196,13.6706225 4.74671141,13.682543 L2.95188878,14.7196291 L2.26157239,16.1500927 L2.99790988,16.9130066 L4.37854267,16.1977748 L5.37950144,14.3381722 C5.39100671,14.3143311 5.40251198,14.2904901 5.42552253,14.266649 Z M16.5166059,12.871947 C17.4255225,13.8136689 17.7016491,15.2083709 17.2414382,16.4361854 C17.2069223,16.5315497 17.1263854,16.6030728 17.0343432,16.6269139 C16.9423011,16.650755 16.8387536,16.6149934 16.769722,16.5434702 L14.917373,14.6242649 L13.6748035,15.9116821 L15.5271524,17.8308874 C15.5961841,17.9024106 15.6306999,18.0096954 15.6076894,18.1050596 C15.5846788,18.2004238 15.5156472,18.2838675 15.423605,18.3196291 C15.043931,18.474596 14.6412464,18.5461192 14.2500671,18.5461192 C13.4216874,18.5461192 12.5933078,18.2004238 11.9835283,17.5686358 C11.1321381,16.6865166 10.833001,15.3752583 11.2011697,14.1951258 L8.76205177,11.6679735 L5.87422819,14.6600265 L4.85025887,16.5673113 C4.81574305,16.6149934 4.78122723,16.6626755 4.72370086,16.6865166 L3.06694151,17.5447947 C3.0324257,17.5686358 2.9864046,17.5805563 2.94038351,17.5805563 C2.8598466,17.5805563 2.79081496,17.5567152 2.73328859,17.4971126 L1.697814,16.4242649 C1.60577181,16.3408212 1.58276127,16.1977748 1.64028763,16.0785695 L2.48017258,14.3620132 C2.50318313,14.3024106 2.54920422,14.2547285 2.59522531,14.2308874 L4.43606903,13.1699603 L7.32389262,10.1779073 L4.99982742,7.76996026 C3.86080537,8.15141722 2.59522531,7.84148344 1.74383509,6.95936424 C0.834918504,6.02956291 0.558791946,4.6229404 1.01900288,3.39512583 C1.0535187,3.29976159 1.13405561,3.22823841 1.22609779,3.20439735 C1.31813998,3.18055629 1.42168744,3.21631788 1.49071908,3.28784106 L3.34306807,5.20704636 L4.58563758,3.91962914 L2.73328859,2.00042384 C2.66425695,1.92890066 2.62974113,1.82161589 2.65275168,1.72625166 C2.67576222,1.63088742 2.74479386,1.54744371 2.83683605,1.51168212 C4.02187919,1.03486093 5.37950144,1.33287417 6.27691275,2.2626755 C7.12830297,3.1447947 7.42744008,4.45605298 7.05927133,5.63618543 L13.2606136,12.061351 C14.3996357,11.679894 15.6652157,11.9898278 16.5166059,12.871947 Z" id="icProfileHelp" fill="#666666"></path>
    </g>
</svg>