<?xml version="1.0" encoding="UTF-8"?>
<svg width="20px" height="16px" viewBox="0 0 20 16" version="1.1" xmlns="http://www.w3.org/2000/svg" xmlns:xlink="http://www.w3.org/1999/xlink">
    <!-- Generator: Sketch 55.2 (78181) - https://sketchapp.com -->
    <title>icProfileSubscriptions</title>
    <desc>Created with Sketch.</desc>
    <g id="Desktop-Edit-profile" stroke="none" stroke-width="1" fill="none" fill-rule="evenodd">
        <path d="M12.5983784,8.22595533 C11.976688,7.06118115 11.4589126,5.51634706 11.060537,3.83843718 C11.588357,3.45003437 11.9152172,2.84808199 11.9152172,2.17505968 C11.9152172,1.03371113 10.9577489,0.1 9.79978242,0.1 C8.64212145,0.1 7.68434757,1.03383588 7.68434757,2.17505968 C7.68434757,2.84811299 8.01123792,3.45008981 8.53910069,3.83849083 C8.14149821,5.51458237 7.62313174,7.06064921 7.00085901,8.22600821 L4.05389967,5.29178037 C4.11428412,5.11293154 4.14615943,4.92338115 4.14615943,4.72519667 C4.14615943,3.68507797 3.29307114,2.83768455 2.22307971,2.83768455 C1.14201266,2.83768455 0.3,3.65865245 0.3,4.72519667 C0.3,5.63770115 0.957069284,6.40224709 1.84101099,6.57578802 L4.35966347,14.8824308 C4.45327381,15.2472319 4.81633779,15.5 5.2228621,15.5 L14.4149996,15.5 C14.7654062,15.5 15.0845604,15.2776226 15.2446192,14.9655057 L17.7602304,6.5374602 C18.633616,6.36443578 19.3,5.6118844 19.3,4.68743259 C19.2465989,3.64080282 18.4067599,2.83768455 17.3764851,2.83768455 L17.3764851,3.33768455 L17.3764851,2.83768455 C16.3223479,2.83768455 15.4534054,3.66928562 15.4534054,4.72519667 C15.4534054,4.92337303 15.4852781,5.11291602 15.5456577,5.29175841 L12.5983784,8.22595533 Z M17.3764851,3.33768455 L17.3764851,3.83768455 C17.8729984,3.83768455 18.2753105,4.22240613 18.3006658,4.71322768 C18.3,5.18086801 17.8880554,5.57494476 17.3764851,5.57494476 L17.0035656,5.57494476 L14.3486604,14.5 L5.28820863,14.5 L2.70156812,5.96762664 L2.5939537,5.61270884 L2.22307971,5.61270884 C1.70404881,5.61270884 1.3,5.21127319 1.3,4.72519667 C1.3,4.21668126 1.68871194,3.83768455 2.22307971,3.83768455 C2.74228021,3.83768455 3.14615943,4.23886764 3.14615943,4.72519667 C3.14615943,4.87599829 3.10552072,5.01170233 3.02788618,5.13795451 L2.82063058,5.47500128 L7.19563599,9.83110573 L7.52934817,9.30552725 C8.415042,7.9106078 9.10208825,5.90131333 9.59519652,3.70966502 L9.68204409,3.32366596 L9.3263502,3.15040421 C8.93042061,2.95754329 8.68434757,2.59067291 8.68434757,2.17505968 C8.68434757,1.59186468 9.18882073,1.1 9.79978242,1.1 C10.4110093,1.1 10.9152172,1.59169727 10.9152172,2.17505968 C10.9152172,2.59067291 10.6691442,2.95754329 10.2732146,3.15040422 L9.91742231,3.32371393 L10.0043979,3.7097964 C10.4987427,5.90418067 11.1847126,7.9109852 12.0697287,9.30544411 L12.4033843,9.83116227 L16.7789469,5.47502196 L16.5716787,5.13795458 C16.4940441,5.0117023 16.4534054,4.87599824 16.4534054,4.72519667 C16.4534054,4.23163507 16.8650455,3.83768455 17.3764851,3.83768455 L17.3764851,3.33768455 Z" id="icProfileSubscriptions" fill="#666666" fill-rule="nonzero"></path>
    </g>
</svg>