<?xml version="1.0" encoding="UTF-8"?>
<svg width="19px" height="21px" viewBox="0 0 19 21" version="1.1" xmlns="http://www.w3.org/2000/svg" xmlns:xlink="http://www.w3.org/1999/xlink">
    <!-- Generator: Sketch 55.2 (78181) - https://sketchapp.com -->
    <title>icProfileNotificationActive</title>
    <desc>Created with Sketch.</desc>
    <defs>
        <path d="M18.6902893,17.3988436 C18.7889619,17.4967636 18.8247075,17.6410473 18.782632,17.7730909 C18.7405565,17.9055055 18.6281069,18.0037964 18.4907099,18.0271636 L14.9571122,18.6350836 C14.3025217,18.74784 13.6993153,18.8401964 13.1247799,18.9162327 C12.4754022,20.1854836 11.1989878,21 9.80453854,21 C8.41046166,21 7.13441959,20.1862255 6.4842972,18.9177164 C5.90752768,18.8413091 5.30134253,18.7485818 4.64302845,18.6354545 L1.10905844,18.0275345 C0.971661439,18.0037964 0.858839512,17.9058764 0.817136357,17.7734618 C0.775433202,17.6410473 0.811178764,17.4967636 0.909851406,17.3988436 C2.56643476,15.7586836 3.40645544,13.7257309 3.40645544,11.3563636 L3.40645544,8.01818182 C3.42134943,5.67440727 5.07309223,3.87030545 6.70361111,3.12181091 C7.0841524,2.94674182 7.47623652,2.80690909 7.87502294,2.69971636 L7.87502294,2.45454545 C7.87502294,1.43194909 8.71020308,0.6 9.73677091,0.6 C10.7633387,0.6 11.5985189,1.43194909 11.5985189,2.45454545 L11.5985189,2.66744727 C12.0412426,2.77760727 12.4768916,2.92597091 12.8995084,3.11847273 C14.3747575,3.79018909 16.0916615,5.47708364 16.0756504,8.02040727 L16.0756504,11.3563636 C16.0756504,13.6482109 16.9551402,15.6811636 18.6902893,17.3988436 Z M8.61934978,2.45454545 L8.61934978,2.53948364 C9.35846373,2.42042182 10.1113546,2.41597091 10.8534474,2.52205091 L10.8534474,2.45454545 C10.8534474,1.84106182 10.3522648,1.34181818 9.73639856,1.34181818 C9.12053233,1.34181818 8.61934978,1.84106182 8.61934978,2.45454545 Z M9.80453854,20.2581818 C10.7473277,20.2581818 11.6286792,19.7912073 12.1946506,19.0275055 C11.3590981,19.1139273 10.5797704,19.1569527 9.8004427,19.1569527 C9.02409379,19.1569527 8.24737253,19.1139273 7.41517119,19.0286182 C7.98077022,19.7915782 8.86174937,20.2581818 9.80453854,20.2581818 Z M14.8305134,17.9040218 L17.6812219,17.4140509 C16.1404393,15.6752291 15.3305789,13.5944291 15.3305789,11.3567345 L15.3305789,8.01855273 C15.3436111,5.96705455 13.9633112,4.41888 12.5897135,3.79315636 C12.1291171,3.58359273 11.6510202,3.43077818 11.1654763,3.32989091 C11.1606358,3.32914909 11.1557952,3.33137455 11.1509547,3.33026182 C10.2226871,3.14072727 9.24601415,3.15 8.32854474,3.35548364 C8.32482125,3.35622545 8.3207254,3.35585455 8.31700191,3.35659636 C7.87278884,3.45785455 7.43602276,3.60213818 7.01489537,3.79538182 C5.59884986,4.44595636 4.16381452,6.00451636 4.15115463,8.02040727 L4.15115463,11.3563636 C4.15115463,13.6901236 3.4001255,15.7241891 1.91705706,17.4133091 L4.76962731,17.9043927 C5.48751733,18.0275345 6.14471437,18.1280509 6.76579349,18.2063127 C6.76691054,18.2063127 6.76802759,18.2063127 6.76914464,18.2063127 C7.0398428,18.2404364 7.30309396,18.27048 7.56075988,18.2960727 C7.56857922,18.2968145 7.57639856,18.2975564 7.58459025,18.2982982 C7.81581935,18.3209236 8.04183556,18.33984 8.26524531,18.3557891 C8.31178901,18.3591273 8.35796036,18.3620945 8.40413171,18.3650618 C8.60035995,18.3780436 8.79472644,18.3880582 8.98760353,18.3954764 C9.02856198,18.3973309 9.07026514,18.3991855 9.11122359,18.4006691 C9.57405414,18.4158764 10.0309271,18.4158764 10.49413,18.4002982 C10.5343437,18.3991855 10.5745575,18.39696 10.6147713,18.3954764 C10.8102548,18.3880582 11.0068554,18.3776727 11.2056901,18.3646909 C11.249255,18.3617236 11.2924475,18.3591273 11.3360124,18.3557891 C11.5653798,18.3390982 11.7973536,18.3201818 12.0345403,18.2964436 C12.0371467,18.2960727 12.0401255,18.2960727 12.042732,18.2957018 C12.3022596,18.2697382 12.5673725,18.2396945 12.8399324,18.2052 C12.8406771,18.2052 12.8414218,18.2052 12.8421665,18.2052 C13.4610116,18.1265673 14.1159745,18.0267927 14.8305134,17.9040218 Z M12.5787011,4.63522962 C12.7689224,4.71023815 12.8526652,4.90447422 12.765512,5.06923094 C12.6783589,5.23366012 12.4532763,5.30604827 12.2630551,5.23071219 C10.9925134,4.72858085 9.43322951,4.72727066 8.17102425,5.23071219 C7.50183947,5.49766394 6.3665747,6.27002252 6.35785938,7.47441712 C6.3567226,7.65489616 6.18696338,7.8 5.97893255,7.8 C5.9781747,7.8 5.97741685,7.8 5.97665899,7.8 C5.76711246,7.79868981 5.59886895,7.65129313 5.6,7.47048655 C5.61137353,5.93723358 7.02211811,4.96736346 7.8538625,4.63588472 C9.31235186,4.05448673 11.1103597,4.05514182 12.5787011,4.63522962 Z" id="path-1"></path>
    </defs>
    <g id="Desktop-Edit-profile" stroke="none" stroke-width="1" fill="none" fill-rule="evenodd">
        <mask id="mask-2" fill="white">
            <use xlink:href="#path-1"></use>
        </mask>
        <use id="icProfileNotificationActive" fill="#333333" fill-rule="nonzero" xlink:href="#path-1"></use>
    </g>
</svg>