<?xml version="1.0" encoding="UTF-8"?>
<svg width="21px" height="17px" viewBox="0 0 21 17" version="1.1" xmlns="http://www.w3.org/2000/svg" xmlns:xlink="http://www.w3.org/1999/xlink">
    <!-- Generator: Sketch 55.2 (78181) - https://sketchapp.com -->
    <title>icProfileManagePhotos</title>
    <desc>Created with Sketch.</desc>
    <g id="Desktop-Edit-profile" stroke="none" stroke-width="1" fill="none" fill-rule="evenodd">
        <path d="M18.4883009,16.6 L3.11133942,16.6 C1.83665919,16.6 0.8,15.5503471 0.8,14.2596897 L0.8,4.7685089 C0.8,3.47785153 1.83665919,2.42819861 3.11133942,2.42819861 L6.24900919,2.42819861 L6.52365345,1.49009597 C6.63574092,0.976770474 7.09919561,0.6 7.64428833,0.6 L13.9557716,0.6 C14.4854598,0.6 14.9542491,0.974828358 15.0783246,1.49476918 L15.0856372,1.5267534 L15.3360059,2.42813792 L18.4886606,2.42813792 C19.7633408,2.42813792 20.8,3.47779084 20.8,4.7684482 L20.8,14.2595683 C20.7996404,15.5503471 19.7626215,16.6 18.4883009,16.6 Z M3.11133942,3.20832227 C2.26151264,3.20832227 1.57046645,3.90809088 1.57046645,4.7685089 L1.57046645,14.259629 C1.57046645,15.1201077 2.26157258,15.8198157 3.11133942,15.8198157 L18.4883009,15.8198157 C19.3381277,15.8198157 20.0291739,15.120047 20.0291739,14.259629 L20.0291739,4.7685089 C20.0291739,3.90803019 19.3380678,3.20832227 18.4883009,3.20832227 L14.7524318,3.20832227 L14.3306352,1.68515723 C14.2917343,1.50806054 14.1341525,1.37975951 13.955412,1.37975951 L7.64386876,1.37975951 C7.46243092,1.37975951 7.30832564,1.50532944 7.26864548,1.68558207 L6.82335255,3.20832227 L3.11133942,3.20832227 Z M10.8004196,14.2420893 C8.10426652,14.2420893 5.91076879,12.0215226 5.91076879,9.29193946 C5.91076879,6.56199219 8.10420658,4.34142548 10.8004196,4.34142548 C13.4958534,4.34142548 15.6889315,6.56235633 15.6889315,9.29193946 C15.6889315,12.0211584 13.4957934,14.2420893 10.8004196,14.2420893 Z M10.8004196,5.1211243 C8.52911996,5.1211243 6.68123524,6.9918067 6.68123524,9.29157531 C6.68123524,11.5913439 8.5291799,13.4616015 10.8004196,13.4616015 C13.0712996,13.4616015 14.9184651,11.5909191 14.9184651,9.29157531 C14.9184651,6.9918067 13.07088,5.1211243 10.8004196,5.1211243 Z M17.9909803,4.65616963 C17.5980747,4.65616963 17.2802139,4.97874294 17.2802139,5.37584493 C17.2802139,5.77331108 17.5980148,6.09545955 17.9909803,6.09545955 C18.3835261,6.09545955 18.7013271,5.77325039 18.7013271,5.37584493 C18.7009674,4.97874294 18.3831066,4.65616963 17.9909803,4.65616963 Z" id="icProfileManagePhotos" fill="#666666" fill-rule="nonzero"></path>
    </g>
</svg>