<?xml version="1.0" encoding="UTF-8"?>
<svg width="19px" height="24px" viewBox="0 0 19 24" version="1.1" xmlns="http://www.w3.org/2000/svg" xmlns:xlink="http://www.w3.org/1999/xlink">
    <!-- Generator: Sketch 55.2 (78181) - https://sketchapp.com -->
    <title>icProfileMyListActive</title>
    <desc>Created with Sketch.</desc>
    <defs>
        <path d="M17.1396226,0.6 L2.42264151,0.6 C1.51698113,0.6 0.8,1.3125 0.8,2.2125 L0.8,21.4875 C0.8,22.3875 1.51698113,23.1 2.42264151,23.1 L17.1773585,23.1 C18.0830189,23.1 18.8,22.3875 18.8,21.4875 L18.8,2.2125 C18.7622642,1.3125 18.045283,0.6 17.1396226,0.6 Z M17.9425768,21.7934524 C17.9425768,22.0642857 17.7071288,22.2964286 17.4324395,22.2964286 L2.12831916,22.2964286 C1.85362982,22.2964286 1.61818182,22.0642857 1.61818182,21.7934524 L1.61818182,2.45635965 C1.61818182,1.95338346 2.16363636,1.40357143 2.67377371,1.40357143 L16.9262263,1.40357143 C17.4363636,1.40357143 17.9818182,1.95338346 17.9818182,2.45635965 L17.9818182,21.7934524 L17.9425768,21.7934524 Z M16.4981132,7.1625 C16.4981132,7.4625 16.2339623,7.725 15.9320755,7.725 L8.19622642,7.725 C7.89433962,7.725 7.63018868,7.4625 7.63018868,7.1625 C7.63018868,6.8625 7.89433962,6.6 8.19622642,6.6 L15.9698113,6.6 C16.2339623,6.6 16.4981132,6.8625 16.4981132,7.1625 Z M4.83773585,5.4 C3.85660377,5.4 3.06415094,6.1875 3.06415094,7.1625 C3.06415094,8.1375 3.85660377,8.925 4.83773585,8.925 C5.81886792,8.925 6.61132075,8.1375 6.61132075,7.1625 C6.61132075,6.1875 5.81886792,5.4 4.83773585,5.4 Z M4.83773585,7.8 C4.49811321,7.8 4.19622642,7.5 4.19622642,7.1625 C4.19622642,6.825 4.49811321,6.525 4.83773585,6.525 C5.17735849,6.525 5.47924528,6.825 5.47924528,7.1625 C5.47924528,7.5 5.17735849,7.8 4.83773585,7.8 Z M16.4981132,11.85 C16.4981132,12.15 16.2339623,12.4125 15.9320755,12.4125 L8.19622642,12.4125 C7.89433962,12.4125 7.63018868,12.15 7.63018868,11.85 C7.63018868,11.55 7.89433962,11.2875 8.19622642,11.2875 L15.9698113,11.2875 C16.2339623,11.2875 16.4981132,11.55 16.4981132,11.85 Z M4.83773585,10.0875 C3.85660377,10.0875 3.06415094,10.875 3.06415094,11.85 C3.06415094,12.825 3.85660377,13.6125 4.83773585,13.6125 C5.81886792,13.6125 6.61132075,12.825 6.61132075,11.85 C6.61132075,10.875 5.81886792,10.0875 4.83773585,10.0875 Z M4.83773585,12.4875 C4.49811321,12.4875 4.19622642,12.1875 4.19622642,11.85 C4.19622642,11.5125 4.49811321,11.2125 4.83773585,11.2125 C5.17735849,11.2125 5.47924528,11.5125 5.47924528,11.85 C5.47924528,12.1875 5.17735849,12.4875 4.83773585,12.4875 Z M16.4981132,16.5375 C16.4981132,16.8375 16.2339623,17.1 15.9320755,17.1 L8.19622642,17.1 C7.89433962,17.1 7.63018868,16.8375 7.63018868,16.5375 C7.63018868,16.2375 7.89433962,15.975 8.19622642,15.975 L15.9698113,15.975 C16.2339623,15.975 16.4981132,16.2375 16.4981132,16.5375 Z M4.83773585,14.775 C3.85660377,14.775 3.06415094,15.5625 3.06415094,16.5375 C3.06415094,17.5125 3.85660377,18.3 4.83773585,18.3 C5.81886792,18.3 6.61132075,17.5125 6.61132075,16.5375 C6.61132075,15.5625 5.81886792,14.775 4.83773585,14.775 Z M4.83773585,17.175 C4.49811321,17.175 4.19622642,16.875 4.19622642,16.5375 C4.19622642,16.2 4.49811321,15.9 4.83773585,15.9 C5.17735849,15.9 5.47924528,16.2 5.47924528,16.5375 C5.47924528,16.875 5.17735849,17.175 4.83773585,17.175 Z" id="path-1"></path>
    </defs>
    <g id="Desktop-Edit-profile" stroke="none" stroke-width="1" fill="none" fill-rule="evenodd">
        <mask id="mask-2" fill="white">
            <use xlink:href="#path-1"></use>
        </mask>
        <use id="icProfileMyListActive" fill="#333333" fill-rule="nonzero" xlink:href="#path-1"></use>
    </g>
</svg>