<?xml version="1.0" encoding="UTF-8"?>
<svg width="14px" height="19px" viewBox="0 0 14 19" version="1.1" xmlns="http://www.w3.org/2000/svg" xmlns:xlink="http://www.w3.org/1999/xlink">
    <!-- Generator: Sketch 55.2 (78181) - https://sketchapp.com -->
    <title>icProfileEditActive</title>
    <desc>Created with Sketch.</desc>
    <defs>
        <path d="M2.3375,0 C1.04987792,0 -2.27373675e-13,1.0658373 -2.27373675e-13,2.37303371 L-2.27373675e-13,16.611236 C-2.27373675e-13,17.9184324 1.04987792,18.9842697 2.3375,18.9842697 L11.2625,18.9842697 C12.5501221,18.9842697 13.6,17.9184324 13.6,16.611236 L13.6,2.37303371 C13.6,1.0658373 12.5501221,0 11.2625,0 L2.3375,0 Z M2.3375,0.862921348 L11.2625,0.862921348 C12.0939247,0.862921348 12.75,1.52896935 12.75,2.37303371 L12.75,16.611236 C12.75,17.4553025 12.0939247,18.1213483 11.2625,18.1213483 L2.3375,18.1213483 C1.50607526,18.1213483 0.85,17.4553025 0.85,16.611236 L0.85,2.37303371 C0.85,1.52896935 1.50607526,0.862921348 2.3375,0.862921348 Z M6.8,3.02022472 C5.98351125,3.02022472 5.3125,3.7014364 5.3125,4.53033708 C5.3125,5.35923775 5.98351125,6.04044944 6.8,6.04044944 C7.61648875,6.04044944 8.2875,5.35923775 8.2875,4.53033708 C8.2875,3.7014364 7.61648875,3.02022472 6.8,3.02022472 Z M6.8,3.88314607 C7.15711475,3.88314607 7.4375,4.16779362 7.4375,4.53033708 C7.4375,4.89288054 7.15711475,5.17752809 6.8,5.17752809 C6.44288525,5.17752809 6.1625,4.89288054 6.1625,4.53033708 C6.1625,4.16779362 6.44288525,3.88314607 6.8,3.88314607 Z M6.8,6.47191011 C5.95966216,6.47191011 5.19641656,6.6904773 4.61523437,7.07191011 C4.03405219,7.45334292 3.6125,8.02498948 3.6125,8.69662921 L3.6125,9.06067416 C3.6125,9.29895344 3.8027887,9.49213483 4.0375,9.49213483 L9.5625,9.49213483 C9.7972113,9.49213483 9.9875,9.29895344 9.9875,9.06067416 L9.9875,8.69662921 C9.9875,8.02498948 9.56594781,7.45334292 8.98476562,7.07191011 C8.40358344,6.6904773 7.64033784,6.47191011 6.8,6.47191011 Z M6.8,7.33483146 C7.49008716,7.33483146 8.10910094,7.52601816 8.5265625,7.8 C8.91368459,8.05406993 9.09108299,8.34620548 9.11757812,8.62921348 L4.48242187,8.62921348 C4.50891701,8.34620548 4.68631541,8.05406993 5.0734375,7.8 C5.49089906,7.52601816 6.10991284,7.33483146 6.8,7.33483146 Z M2.975,10.7865169 C2.74027887,10.7865169 2.55,10.9796818 2.55,11.2179775 C2.55,11.4562733 2.74027887,11.6494382 2.975,11.6494382 L10.625,11.6494382 C10.8597211,11.6494382 11.05,11.4562733 11.05,11.2179775 C11.05,10.9796818 10.8597211,10.7865169 10.625,10.7865169 L2.975,10.7865169 Z M2.975,12.9438202 C2.74027887,12.9438202 2.55,13.1369852 2.55,13.3752809 C2.55,13.6135766 2.74027887,13.8067416 2.975,13.8067416 L10.625,13.8067416 C10.8597211,13.8067416 11.05,13.6135766 11.05,13.3752809 C11.05,13.1369852 10.8597211,12.9438202 10.625,12.9438202 L2.975,12.9438202 Z M2.975,15.1011236 C2.74027887,15.1011236 2.55,15.2942885 2.55,15.5325843 C2.55,15.77088 2.74027887,15.9640449 2.975,15.9640449 L10.625,15.9640449 C10.8597211,15.9640449 11.05,15.77088 11.05,15.5325843 C11.05,15.2942885 10.8597211,15.1011236 10.625,15.1011236 L2.975,15.1011236 Z" id="path-1"></path>
    </defs>
    <g id="Desktop-Edit-profile" stroke="none" stroke-width="1" fill="none" fill-rule="evenodd">
        <mask id="mask-2" fill="white">
            <use xlink:href="#path-1"></use>
        </mask>
        <use id="icProfileEditActive" fill="#333333" fill-rule="nonzero" xlink:href="#path-1"></use>
    </g>
</svg>