<?xml version="1.0" encoding="UTF-8"?>
<svg width="18px" height="21px" viewBox="0 0 18 21" version="1.1" xmlns="http://www.w3.org/2000/svg" xmlns:xlink="http://www.w3.org/1999/xlink">
    <!-- Generator: Sketch 55.2 (78181) - https://sketchapp.com -->
    <title>icProfileAccountActive</title>
    <desc>Created with Sketch.</desc>
    <g id="Desktop-Edit-profile" stroke="none" stroke-width="1" fill="none" fill-rule="evenodd">
        <path d="M9.0848053,12.2223734 C6.58150787,12.2223734 4.5604971,10.2063734 4.58346313,7.75510071 L4.58346313,4.91437343 C4.58346313,2.44019162 6.6044739,0.424191617 9.0848053,0.424191617 C11.5651367,0.424191617 13.5861475,2.44019162 13.5861475,4.91437343 L13.5861475,7.73219162 C13.5861475,10.2063734 11.5651367,12.2223734 9.0848053,12.2223734 Z M5.34172472,4.775512 L5.34172472,7.86881335 C5.34172472,9.78012151 7.14833943,11.3644954 9.06439814,11.3644954 C10.9804569,11.3644954 12.9060097,9.78012151 12.9060097,7.86881335 L12.9060097,4.75036321 C12.9060097,2.83905505 10.9804569,1.30497877 9.06439814,1.30497877 C7.14833943,1.30497877 5.34172472,2.86420384 5.34172472,4.775512 Z M17.1458824,19.8511007 C17.1458824,20.2176462 16.8473239,20.5154643 16.5028335,20.5154643 L1.57491301,20.5154643 C1.2074565,20.5154643 0.908898094,20.2176462 0.908898094,19.8511007 L0.908898094,18.3161916 C0.908898094,17.0332825 1.55194698,15.8649189 2.65431649,15.1776462 L5.8006628,13.2303734 C6.39777962,12.8409189 7.08676056,12.6576462 7.77574151,12.6576462 L10.1871748,12.6576462 C10.8761558,12.6576462 11.5421707,12.8409189 12.1392875,13.2074643 L15.3774979,15.1776462 C16.4569014,15.8420098 17.1458824,17.0561916 17.1458824,18.3391007 L17.1458824,19.8511007 Z M1.82519336,19.7431039 L16.271095,19.6531402 L16.271095,18.4335891 C16.271095,17.5779665 15.9074588,16.4823536 15.0063562,15.9522762 L11.6708782,13.8767343 C11.2542571,13.6322707 10.6998874,13.5096494 10.2342521,13.5096494 L7.66100427,13.5096494 C7.19536895,13.5096494 6.71510198,13.6322707 6.2984809,13.8767343 L3.04930919,15.9522762 C2.2895884,16.4167571 1.82519336,17.1414394 1.82519336,18.0215084 L1.82519336,19.7431039 Z" id="icProfileAccountActive" fill="#333333" fill-rule="nonzero"></path>
    </g>
</svg>