<?xml version="1.0" encoding="UTF-8"?>
<svg width="23px" height="16px" viewBox="0 0 23 16" version="1.1" xmlns="http://www.w3.org/2000/svg" xmlns:xlink="http://www.w3.org/1999/xlink">
    <!-- Generator: Sketch 55 (78076) - https://sketchapp.com -->
    <title>icDiamondBlack</title>
    <desc>Created with Sketch.</desc>
    <g id="Page-1" stroke="none" stroke-width="1" fill="none" fill-rule="evenodd">
        <g id="Open-profile-Opnened-in-Jquery-enviroments" transform="translate(-248.000000, -453.000000)" fill="#333333" fill-rule="nonzero">
            <g id="Group-13" transform="translate(1.000000, 341.000000)">
                <g id="First-description">
                    <g id="Platinum-Diamond-" transform="translate(247.000000, 109.000000)">
                        <g id="Group-99" transform="translate(0.000000, 2.000000)">
                            <g id="Group-4">
                                <g id="PlatinumDiamond" transform="translate(0.000000, 1.500000)">
                                    <path d="M15.4861497,1 L17.3069061,4 L20.8633898,4 L17.8982301,1 L15.4861497,1 Z M14.3163846,1 L8.84068821,1 L6.89339276,4 L16.137141,4 L14.3163846,1 Z M7.64849324,1 L4.8384073,1 L2.08206165,4 L5.7011978,4 L7.64849324,1 Z M13.4821489,11.9218264 L20.6932064,5 L17.2732357,5 L13.4821489,11.9218264 Z M9.48649076,11.8645683 L5.72676431,5 L2.31014451,5 L9.48649076,11.8645683 Z M6.86692907,5 L11.5,13.4591345 L16.1330709,5 L6.86692907,5 Z M11.8813848,14.8445271 L11.5,15.5408655 L11.0784568,14.7712052 L0.30025838,4.461268 L4.39919061,9.66338121e-13 L18.3158691,9.66338121e-13 L22.7122719,4.44806002 L11.8813848,14.8445271 Z" id="icDiamondBlack"></path>
                                </g>
                            </g>
                        </g>
                    </g>
                </g>
            </g>
        </g>
    </g>
</svg>