<?xml version="1.0" encoding="UTF-8"?>
<svg width="19px" height="13px" viewBox="0 0 19 13" version="1.1" xmlns="http://www.w3.org/2000/svg" xmlns:xlink="http://www.w3.org/1999/xlink">
    <!-- Generator: Sketch 55 (78076) - https://sketchapp.com -->
    <title>icDiamondWhite</title>
    <desc>Created with Sketch.</desc>
    <g id="RHP-Search--Desktop-v2" stroke="none" stroke-width="1" fill="none" fill-rule="evenodd">
        <g id="Profile-user-info" transform="translate(-685.000000, -230.000000)" fill="#FFFFFF" fill-rule="nonzero">
            <g id="Platinum-Diamond-" transform="translate(670.000000, 226.000000)">
                <g id="Group-99" transform="translate(15.000000, 2.000000)">
                    <g id="Group-4">
                        <g id="PlatinumDiamond" transform="translate(0.000000, 2.000000)">
                            <path d="M12.9422972,1.53695652 L14.2665644,3.6026087 L16.7793938,3.6026087 L14.6487211,1.53695652 L12.9422972,1.53695652 Z M11.754444,1.53695652 L7.48689634,1.53695652 L6.07059522,3.6026087 L13.0787111,3.6026087 L11.754444,1.53695652 Z M6.27441661,1.53695652 L4.15502687,1.53695652 L2.17440154,3.6026087 L4.85811549,3.6026087 L6.27441661,1.53695652 Z M11.3193874,9.5549903 L16.7036354,4.6026087 L14.1845213,4.6026087 L11.3193874,9.5549903 Z M7.89072417,9.71375409 L4.93373956,4.6026087 L2.31448876,4.6026087 L7.89072417,9.71375409 Z M6.08903372,4.6026087 L9.55913043,10.6006679 L13.0292272,4.6026087 L6.08903372,4.6026087 Z M9.63932399,12.4589784 L9.55913043,12.5975929 L9.53464173,12.5552642 L9.52276254,12.5661906 L0.299964073,4.11262638 L3.72845139,0.536956522 L15.0538876,0.536956522 L18.7281853,4.09912776 L9.63932399,12.4589784 Z" id="icDiamondWhite"></path>
                        </g>
                    </g>
                </g>
            </g>
        </g>
    </g>
</svg>