<?xml version="1.0" encoding="UTF-8"?>
<svg width="23px" height="27px" viewBox="0 0 23 27" version="1.1" xmlns="http://www.w3.org/2000/svg" xmlns:xlink="http://www.w3.org/1999/xlink">
    <!-- Generator: Sketch 54 (76480) - https://sketchapp.com -->
    <title>icFriendsFavourites</title>
    <desc>Created with Sketch.</desc>
    <g id="Page-1" stroke="none" stroke-width="1" fill="none" fill-rule="evenodd">
        <g id="Friends-&amp;-Favourites" transform="translate(-25.000000, -453.000000)" fill="#333333" fill-rule="nonzero">
            <path d="M31.9487422,467.82 C30.0181058,467.82 28.420303,466.383072 28.42,464.596208 L28.42,463.243564 C28.42,461.456986 30.0180532,460.02 31.9487422,460.02 L32.6912578,460.02 C34.6221188,460.02 36.22,461.456915 36.22,463.243564 L36.22,464.596208 C36.22,466.382971 34.6219918,467.82 32.6912578,467.82 L31.9487422,467.82 Z M31.9487422,466.82 L32.6912578,466.82 C34.0919851,466.82 35.22,465.805618 35.22,464.596208 L35.22,463.243564 C35.22,462.034267 34.0921122,461.02 32.6912578,461.02 L31.9487422,461.02 C30.5480486,461.02 29.42,462.034353 29.42,463.243564 L29.42,464.596123 C29.4202051,465.805674 30.5480924,466.82 31.9487422,466.82 Z M35.6146516,469.54 C37.4641607,469.54 38.94,471.219453 38.94,473.255063 L38.94,477.89832 C38.94,478.703326 38.3453992,479.38 37.5773873,479.38 L27.0626127,479.38 C26.2946008,479.38 25.7,478.703326 25.7,477.89832 L25.7,473.255063 C25.7,471.219548 27.1757509,469.54 29.0248719,469.54 L35.6146516,469.54 Z M35.6146516,470.54 L29.0248719,470.54 C27.7588893,470.54 26.7,471.745119 26.7,473.255063 L26.7,477.89832 C26.7,478.177744 26.8777246,478.38 27.0626127,478.38 L37.5773873,478.38 C37.7622754,478.38 37.94,478.177744 37.94,477.89832 L37.94,473.255063 C37.94,471.745046 36.8810516,470.54 35.6146516,470.54 Z M47.7238862,458.650632 L45.8178388,460.590095 C45.7365775,460.672867 45.6993236,460.791795 45.7184952,460.90845 L46.1683738,463.646755 C46.2082419,463.88734 46.147895,464.122241 45.998226,464.307114 C45.8481212,464.493124 45.6298266,464.6 45.3995498,464.6 C45.2734095,464.6 45.1511906,464.568165 45.0365969,464.505176 L42.6804531,463.212201 C42.5821987,463.158763 42.458237,463.158308 42.3597648,463.212201 L40.0038388,464.505176 C39.6796648,464.683 39.2742294,464.595225 39.0419919,464.307114 C38.8925407,464.122241 38.8319759,463.887795 38.8718441,463.646755 L39.3215048,460.90845 C39.3406764,460.792023 39.3034225,460.672867 39.2221612,460.590095 L37.3161138,458.65086 C37.1019585,458.433014 37.0263615,458.113295 37.1187337,457.816088 C37.2113237,457.518881 37.4527113,457.306493 37.7487816,457.261696 L40.3831312,456.862161 C40.4953285,456.845106 40.5924935,456.771657 40.6426011,456.665463 L41.8205641,454.173883 C41.9528044,453.893958 42.2212065,453.72 42.5201089,453.72 C42.8192292,453.72 43.0876313,453.893958 43.2198717,454.173883 L44.3976168,456.665236 C44.4477243,456.77143 44.5446715,456.844879 44.6568688,456.861934 L47.2912184,457.261469 C47.5875065,457.306493 47.8286763,457.518654 47.9212663,457.815861 C48.0136385,458.113068 47.9380415,458.432787 47.7238862,458.650632 Z M46.1599322,458.982637 C46.3909054,458.765075 46.6436485,458.525181 46.5935987,458.210791 C46.5435489,457.896402 46.1532842,457.846731 45.9442191,457.814551 L44.0241743,457.528828 C43.9450063,457.516639 43.876599,457.464142 43.8412424,457.388242 L43.0102085,455.607597 C42.9168978,455.407526 42.858567,455.08 42.5215127,455.08 C42.1844584,455.08 42.1161476,455.407526 42.0228369,455.607597 L41.1916493,457.388405 C41.1562926,457.464305 41.0877316,457.516801 41.0085635,457.528991 L39.1497286,457.814551 C38.7381325,457.839722 38.44,457.964626 38.44,458.280021 C38.44,458.595415 38.9331712,458.927733 38.9710749,458.982637 L40.1893664,460.193458 C40.2467056,460.252618 40.2729925,460.337782 40.2594647,460.420996 L39.9421776,462.378146 C39.9137786,462.532391 39.753977,462.991685 39.9421776,463.130588 C40.2428277,463.352486 40.5121876,463.118781 40.7409294,462.991685 L42.4033047,462.067557 C42.4727881,462.029038 42.5602572,462.029363 42.6295869,462.067557 L44.1477939,462.921468 C44.2286529,462.966488 44.8052051,463.384063 45.0508889,463.187874 C45.2965727,462.991685 45.1653609,462.748389 45.090714,462.378146 L44.7732732,460.420996 C44.7597454,460.33762 44.7860323,460.252618 44.8433715,460.193458 L46.1599322,458.982637 Z" id="icFriendsFavourites"></path>
        </g>
    </g>
</svg>