<?xml version="1.0" encoding="UTF-8"?>
<svg width="24px" height="24px" viewBox="0 0 24 24" version="1.1" xmlns="http://www.w3.org/2000/svg" xmlns:xlink="http://www.w3.org/1999/xlink">
    <!-- Generator: Sketch 54 (76480) - https://sketchapp.com -->
    <title>icMutualMatches</title>
    <desc>Created with Sketch.</desc>
    <g id="Page-1" stroke="none" stroke-width="1" fill="none" fill-rule="evenodd">
        <g id="Friends-&amp;-Favourites" transform="translate(-21.000000, -507.000000)" fill="#333333" fill-rule="nonzero">
            <path d="M29.6538193,515.506834 L30.3405907,516.243847 L31.025963,515.51222 C32.9771263,513.424672 36.1789496,513.424686 38.1301186,515.512216 C40.0632938,517.580475 40.0632938,520.892075 38.1301201,522.960335 C37.1443189,524.01503 36.3459433,524.8697 34.5867023,526.753357 L34.5201394,526.824628 C32.7764444,528.691639 31.9613472,529.564204 30.9738838,530.620653 C30.8093234,530.798503 30.5787483,530.9 30.336723,530.9 C30.0946977,530.9 29.8641226,530.798503 29.7009207,530.622115 L22.5488016,522.954037 C20.617351,520.883651 20.6166712,517.573734 22.5491264,515.506279 C23.4975043,514.491619 24.7717386,513.94 26.0983039,513.94 C27.4261384,513.94 28.7056554,514.492426 29.6538193,515.506834 Z M23.28005,522.271926 L30.3368205,529.837783 C31.2842207,528.824154 32.1019521,527.948758 33.7893089,526.142069 L33.8558716,526.070798 C35.6152008,524.187046 36.4136363,523.332313 37.3995567,522.27749 C38.9734811,520.593583 38.9734811,517.878968 37.3995553,516.195061 C35.8436367,514.530404 33.3124411,514.530393 31.7561474,516.19547 L30.3386561,517.708625 L29.9738219,517.317101 L28.9227388,516.189125 C28.1646945,515.37812 27.1499305,514.94 26.0983039,514.94 C25.0482987,514.94 24.0387139,515.377051 23.2796874,516.189126 C21.7064373,517.872282 21.7069946,520.585715 23.28005,522.271926 Z M39.8556608,508.465112 L40.5848828,508.466075 L40.2207853,508.077033 L39.8556608,508.465112 Z M40.0819411,507.928677 L40.2207853,508.077033 L40.3582259,507.930952 C41.3943714,506.82718 43.0994036,506.827188 44.1355503,507.930948 C45.1548165,509.016717 45.1548165,510.751164 44.1355519,511.836932 C43.6641126,512.339135 43.2822965,512.746104 42.4409434,513.643059 L42.409109,513.676997 C41.5751446,514.566075 41.1852992,514.9816 40.7139043,515.483739 C40.5859638,515.621413 40.4066582,515.7 40.2184327,515.7 C40.0302072,515.7 39.8509017,515.621413 39.7243233,515.485199 L36.3037618,511.833751 C35.2855364,510.747006 35.2851788,509.013492 36.3040875,507.928122 C36.8070802,507.392305 37.485238,507.1 38.1913628,507.1 C38.8980036,507.1 39.5787137,507.392621 40.0819411,507.928677 Z M37.0335323,511.150059 L40.2186694,514.550196 C40.6007612,514.143103 40.9870149,513.731382 41.6797575,512.992858 L41.7115919,512.95892 C42.5530333,512.06187 42.9349095,511.654838 43.4064682,511.152507 C44.0645106,510.45153 44.0645106,509.316351 43.4064668,508.615373 C42.7653116,507.932379 41.7284652,507.932375 41.0869296,508.615781 L40.2188546,509.538429 L39.8547569,509.149388 L39.352339,508.612548 C39.0392797,508.279067 38.622725,508.1 38.1913628,508.1 C37.7608668,508.1 37.3467632,508.27849 37.0331688,508.612549 C36.3754383,509.313182 36.3756724,510.44793 37.0335323,511.150059 Z" id="icMutualMatches"></path>
        </g>
    </g>
</svg>