<?xml version="1.0" encoding="UTF-8"?>
<svg width="37px" height="30px" viewBox="0 0 37 30" version="1.1" xmlns="http://www.w3.org/2000/svg" xmlns:xlink="http://www.w3.org/1999/xlink">
    <!-- Generator: Sketch 50.2 (55047) - http://www.bohemiancoding.com/sketch -->
    <title>icHideModeWhite</title>
    <desc>Created with Sketch.</desc>
    <defs></defs>
    <g id="Page-1" stroke="none" stroke-width="1" fill="none" fill-rule="evenodd">
        <g id="New-Members" transform="translate(-78.000000, -1148.000000)" fill="#FFFFFF" fill-rule="nonzero">
            <g id="icHideModeWhite" transform="translate(78.000000, 1148.000000)">
                <path d="M31.91375,10.2009309 C30.60125,8.90194178 29.13,7.81883225 27.545,6.96273654 L33.513125,1.05604726 C33.7575,0.814187848 33.7575,0.423253968 33.513125,0.181394558 C33.26875,-0.0604648525 32.87375,-0.0604648525 32.629375,0.181394558 L26.36625,6.37942855 C23.91,5.26600927 21.220625,4.67651562 18.438125,4.67651562 C13.3475,4.67651562 8.561875,6.63798925 4.9625,10.2009309 L0,15.1123471 L5.08625,20.1462394 C6.350625,21.3975989 7.76375,22.4466873 9.2825,23.2873189 L3.566875,28.9441074 C3.3225,29.1859668 3.3225,29.5769007 3.566875,29.8187601 C3.68875,29.9393805 3.84875,30 4.00875,30 C4.16875,30 4.32875,29.9393805 4.450625,29.8187601 L10.44625,23.8848539 C12.9525,25.0533256 15.70875,25.6700361 18.56125,25.6700361 C23.651875,25.6700361 28.4375,23.7085625 32.036875,20.1456208 L37,15.2335861 L31.91375,10.2009309 Z M10.200625,22.3792636 C8.6625,21.5677047 7.2375,20.5260391 5.97,19.2715867 L1.7675,15.1123471 L5.846875,11.0749651 C9.21,7.74646 13.681875,5.91302958 18.438125,5.91302958 C20.8775,5.91302958 23.24,6.39798554 25.41875,7.31717501 L10.200625,22.3792636 Z M31.153125,19.2715867 C27.79,22.6000918 23.318125,24.4335222 18.561875,24.4335222 C16.0525,24.4335222 13.624375,23.9182565 11.394375,22.947726 L26.62,7.87883318 C28.22625,8.70338201 29.714375,9.77288309 31.03,11.0755836 L35.2325,15.2348232 L31.153125,19.2715867 Z" id="Shape"></path>
                <path d="M17.8328982,7 C13.5139586,7 10,10.5139586 10,14.8328982 C10,16.3651336 10.4488853,17.7913236 11.2122916,19 L22,8.21229162 C20.7913236,7.44888532 19.3651336,7 17.8328982,7 Z" id="Shape"></path>
                <path d="M14,21.7285835 C15.220703,22.5298563 16.6776712,23 18.2438224,23 C22.5204594,23 26,19.5204594 26,15.2438224 C26,13.6776712 25.5298563,12.220703 24.7285835,11 L14,21.7285835 Z" id="Shape"></path>
            </g>
        </g>
    </g>
</svg>