<?xml version="1.0" encoding="UTF-8"?>
<svg width="112px" height="91px" viewBox="0 0 112 91" version="1.1" xmlns="http://www.w3.org/2000/svg" xmlns:xlink="http://www.w3.org/1999/xlink">
    <!-- Generator: Sketch 50.2 (55047) - http://www.bohemiancoding.com/sketch -->
    <title>icHideMode</title>
    <desc>Created with Sketch.</desc>
    <defs></defs>
    <g id="Page-1" stroke="none" stroke-width="1" fill="none" fill-rule="evenodd">
        <g id="SafeMode-Show-sensitive-content" transform="translate(-132.000000, -325.000000)" fill="#7BCB45" fill-rule="nonzero">
            <g id="icHideMode" transform="translate(132.000000, 325.000000)">
                <path d="M96.6037838,30.9428239 C92.6308108,27.0025567 88.1772973,23.7171245 83.3794595,21.1203008 L101.445135,3.20334335 C102.184865,2.46970314 102.184865,1.28387037 101.445135,0.550230158 C100.705405,-0.183410053 99.5097297,-0.183410053 98.77,0.550230158 L79.8113514,19.3509333 C72.3762162,15.9735614 64.2354054,14.1854307 55.8127027,14.1854307 C40.4032432,14.1854307 25.917027,20.1352341 15.0216216,30.9428239 L0,45.8407862 L15.3962162,61.1102594 C19.2235135,64.9060501 23.5010811,68.0882849 28.0983784,70.6382006 L10.797027,87.7971257 C10.0572973,88.5307659 10.0572973,89.7165987 10.797027,90.4502389 C11.1659459,90.8161209 11.6502703,91 12.1345946,91 C12.6189189,91 13.1032432,90.8161209 13.4721622,90.4502389 L31.6210811,72.4507235 C39.2075676,75.9950876 47.5508108,77.8657763 56.1854054,77.8657763 C71.5948649,77.8657763 86.0810811,71.9159729 96.9764865,61.1083831 L112,46.2085445 L96.6037838,30.9428239 Z M31.8775676,67.8837662 C27.2216216,65.4220375 22.9081081,62.2623185 19.0713514,58.4571462 L6.35027027,45.8407862 L18.6986486,33.5940607 C28.8789189,23.4975953 42.4154054,17.9361897 56.8127027,17.9361897 C64.1967568,17.9361897 71.3481081,19.4072228 77.9432432,22.1954309 L31.8775676,67.8837662 Z M95.3013514,58.4571462 C85.1210811,68.5536117 71.5845946,74.1150172 57.1872973,74.1150172 C49.5913514,74.1150172 42.2413514,72.5520446 35.4910811,69.6081022 L81.5794595,23.8991273 C86.4416216,26.4002588 90.9462162,29.644412 94.9286486,33.5959371 L107.64973,46.2122971 L95.3013514,58.4571462 Z" id="Shape"></path>
                <path d="M54.4986945,21 C41.5418759,21 31,31.5418759 31,44.4986945 C31,49.0954007 32.346656,53.3739707 34.6368749,57 L67,24.6368749 C63.3739707,22.346656 59.0954007,21 54.4986945,21 Z" id="Shape"></path>
                <path d="M43,65.1857505 C46.6621091,67.5895689 51.0330135,69 55.7314672,69 C68.5613782,69 79,58.5613782 79,45.7314672 C79,41.0330135 77.5895689,36.6621091 75.1857505,33 L43,65.1857505 Z" id="Shape"></path>
            </g>
        </g>
    </g>
</svg>