<?xml version="1.0" encoding="UTF-8"?>
<svg width="85px" height="70px" viewBox="0 0 85 70" version="1.1" xmlns="http://www.w3.org/2000/svg" xmlns:xlink="http://www.w3.org/1999/xlink">
    <!-- Generator: Sketch 50.2 (55047) - http://www.bohemiancoding.com/sketch -->
    <title>icHideModeWhiteCarousel</title>
    <desc>Created with Sketch.</desc>
    <defs>
        <filter x="-1.5%" y="-0.9%" width="102.9%" height="102.3%" filterUnits="objectBoundingBox" id="filter-1">
            <feOffset dx="0" dy="1" in="SourceAlpha" result="shadowOffsetOuter1"></feOffset>
            <feGaussianBlur stdDeviation="1.5" in="shadowOffsetOuter1" result="shadowBlurOuter1"></feGaussianBlur>
            <feColorMatrix values="0 0 0 0 0   0 0 0 0 0   0 0 0 0 0  0 0 0 0.5 0" type="matrix" in="shadowBlurOuter1" result="shadowMatrixOuter1"></feColorMatrix>
            <feMerge>
                <feMergeNode in="shadowMatrixOuter1"></feMergeNode>
                <feMergeNode in="SourceGraphic"></feMergeNode>
            </feMerge>
        </filter>
    </defs>
    <g id="Page-1" stroke="none" stroke-width="1" fill="none" fill-rule="evenodd">
        <g id="New-Members-Grid-OFF-Copy-8" transform="translate(-147.000000, -1059.000000)" fill="#FFFFFF" fill-rule="nonzero">
            <g id="UI/UserProfile-Big-iphone6-Copy-2" filter="url(#filter-1)" transform="translate(16.000000, 1021.000000)">
                <g id="Group-14" transform="translate(74.000000, 40.000000)">
                    <g id="icHideModeWhiteCarousel" transform="translate(60.000000, 0.000000)">
                        <path d="M68.1401689,21.761986 C65.3378041,18.9908091 62.1964865,16.6801755 58.8122973,14.8538379 L71.5550507,2.25290082 C72.0768243,1.73693408 72.0768243,0.902941798 71.5550507,0.386975056 C71.033277,-0.128991685 70.1898986,-0.128991685 69.668125,0.386975056 L56.2955068,13.6094476 C51.0510811,11.2341531 45.308902,9.97656665 39.3678885,9.97656665 C28.4987162,9.97656665 18.2807601,14.1610437 10.5956081,21.761986 L0,32.2396738 L10.8598311,42.978644 C13.5594426,45.6482111 16.5766554,47.8862663 19.8193919,49.6796136 L7.61576014,61.7474291 C7.09398649,62.2633958 7.09398649,63.0973881 7.61576014,63.6133548 C7.87597973,63.8706784 8.21760135,64 8.55922297,64 C8.90084459,64 9.24246622,63.8706784 9.50268581,63.6133548 L22.3041554,50.954355 C27.6553378,53.4470945 33.5403041,54.7627438 39.630777,54.7627438 C50.4999493,54.7627438 60.7179054,50.5782667 68.4030574,42.9773244 L79,32.498317 L68.1401689,21.761986 Z M21.7797128,47.742429 C18.4956081,46.0111033 15.4530405,43.7888833 12.7467568,41.1127182 L3.77385135,32.2396738 L12.4838682,23.6265922 C19.6645946,16.5257813 29.212652,12.6144631 39.3678885,12.6144631 C44.5762838,12.6144631 49.6205405,13.6490358 54.2724662,15.6099734 L21.7797128,47.742429 Z M66.5161318,41.1127182 C59.3354054,48.2135291 49.787348,52.1248473 39.6321115,52.1248473 C34.2742568,52.1248473 29.0898818,51.0256138 24.3285304,48.9551488 L56.8372973,16.8081774 C60.2668581,18.567215 63.4442061,20.8488172 66.2532432,23.6279118 L75.2261486,32.5009562 L66.5161318,41.1127182 Z" id="Shape"></path>
                        <path d="M37.9712794,14 C28.613577,14 21,21.613577 21,30.9712794 C21,34.2911227 21.9725849,37.381201 23.6266319,40 L47,16.6266319 C44.381201,14.9725849 41.2911227,14 37.9712794,14 Z" id="Shape"></path>
                        <path d="M30,47.2452643 C32.6448566,48.9813553 35.8016208,50 39.1949485,50 C48.4609954,50 56,42.4609954 56,33.1949485 C56,29.8016208 54.9813553,26.6448566 53.2452643,24 L30,47.2452643 Z" id="Shape"></path>
                    </g>
                </g>
            </g>
        </g>
    </g>
</svg>