<?xml version="1.0" encoding="UTF-8"?>
<svg width="20px" height="14px" viewBox="0 0 20 14" version="1.1" xmlns="http://www.w3.org/2000/svg" xmlns:xlink="http://www.w3.org/1999/xlink">
    <!-- Generator: Sketch 47 (45396) - http://www.bohemiancoding.com/sketch -->
    <title>icAccMail</title>
    <desc>Created with Sketch.</desc>
    <defs>
        <polygon id="path-1" points="0 13.351059 19.9620779 13.351059 19.9620779 0.000105522365 0 0.000105522365"></polygon>
    </defs>
    <g id="Page-1" stroke="none" stroke-width="1" fill="none" fill-rule="evenodd">
        <g id="Password--ERROR" transform="translate(-40.000000, -315.000000)">
            <g id="Group-10" transform="translate(20.000000, 114.000000)">
                <g id="Group-7" transform="translate(0.000000, 188.000000)">
                    <g id="mail" transform="translate(20.000000, 13.000000)">
                        <g id="Page-1">
                            <mask id="mask-2" fill="white">
                                <use xlink:href="#path-1"></use>
                            </mask>
                            <g id="Clip-2"></g>
                            <path d="M1.67815584,12.6539255 C1.51815584,12.6539255 1.36984416,12.6114527 1.2365974,12.5433908 L7.06594805,6.59773312 L9.75945455,8.87675241 C9.82309091,8.93109642 9.90257143,8.95826843 9.98153247,8.95826843 C10.059974,8.95826843 10.1394545,8.93109642 10.2033506,8.87675241 L12.8965974,6.59773312 L18.7262078,12.5433908 C18.592961,12.6114527 18.4446494,12.6539255 18.2849091,12.6539255 L1.67815584,12.6539255 Z M0.765428571,12.0323987 C0.718675325,11.9171156 0.691922078,11.7912801 0.691922078,11.6593772 L0.691922078,1.69094314 C0.691922078,1.54479467 0.725428571,1.40708798 0.781792208,1.28204398 L6.534,6.14873546 L0.765428571,12.0323987 Z M18.2849091,0.697186267 C18.4295844,0.697186267 18.5664675,0.730689618 18.6903636,0.787671695 L9.98153247,8.15471562 L1.27244156,0.787671695 C1.3965974,0.730689618 1.53322078,0.697186267 1.67815584,0.697186267 L18.2849091,0.697186267 Z M13.4285455,6.14873546 L19.1812727,1.28204398 C19.2373766,1.40708798 19.2708831,1.54479467 19.2708831,1.69094314 L19.2708831,11.659641 C19.2708831,11.7912801 19.2443896,11.9171156 19.1973766,12.0326625 L13.4285455,6.14873546 Z M19.9617922,1.69094314 C19.9617922,1.2564548 19.7934805,0.863120186 19.5246494,0.562645251 C19.5204935,0.557105327 19.5194545,0.550246373 19.515039,0.544178837 C19.5101039,0.538638913 19.5038701,0.536528466 19.4991948,0.531779959 C19.1945195,0.205715851 18.7638701,-5.27611826e-05 18.2849091,-5.27611826e-05 L1.67815584,-5.27611826e-05 C1.19867532,-5.27611826e-05 0.768285714,0.205715851 0.462311688,0.531779959 C0.457896104,0.536528466 0.451922078,0.538638913 0.447506494,0.544178837 C0.442571429,0.550246373 0.441532468,0.557369133 0.436857143,0.563436669 C0.169064935,0.863120186 -2.5974026e-05,1.2564548 -2.5974026e-05,1.69094314 L-2.5974026e-05,11.659641 C-2.5974026e-05,12.1049454 0.176077922,12.507777 0.455558442,12.8103624 C0.461012987,12.8164299 0.46361039,12.8243441 0.469324675,12.8301478 C0.471662338,12.8325221 0.474,12.8327859 0.475818182,12.8348963 C0.781012987,13.1522548 1.20646753,13.3511645 1.67815584,13.3511645 L18.2849091,13.3511645 C18.7563377,13.3511645 19.1817922,13.1522548 19.486987,12.8346325 C19.4888052,12.8327859 19.4911429,12.8322583 19.4934805,12.8304116 C19.4991948,12.8246079 19.501013,12.8166937 19.5062078,12.8111538 C19.7867273,12.5085684 19.9623117,12.1052092 19.9623117,11.659641 L19.9623117,1.69094314 L19.9617922,1.69094314 Z" id="Fill-1" fill="#FFFFFF" mask="url(#mask-2)"></path>
                        </g>
                    </g>
                </g>
            </g>
        </g>
    </g>
</svg>