<?xml version="1.0" encoding="UTF-8"?>
<svg width="22px" height="22px" viewBox="0 0 22 22" version="1.1" xmlns="http://www.w3.org/2000/svg" xmlns:xlink="http://www.w3.org/1999/xlink">
    <!-- Generator: Sketch 47 (45396) - http://www.bohemiancoding.com/sketch -->
    <title>icAccUser</title>
    <desc>Created with Sketch.</desc>
    <defs></defs>
    <g id="Page-1" stroke="none" stroke-width="1" fill="none" fill-rule="evenodd">
        <g id="Password--ERROR" transform="translate(-43.000000, -175.000000)" stroke="#FFFFFF">
            <g id="Group-10" transform="translate(20.000000, 114.000000)">
                <g id="Group-9" transform="translate(3.000000, 51.000000)">
                    <g id="Group-2">
                        <g id="user" transform="translate(21.000000, 11.000000)">
                            <g id="Page-1">
                                <path d="M10.3124491,0 C13.1646596,0 15.4770807,2.31214035 15.4770807,5.16463158 C15.4770807,8.01740351 13.1646596,10.3292632 10.3124491,10.3292632 C7.4602386,10.3292632 5.14753684,8.01740351 5.14753684,5.16463158 C5.14753684,2.31214035 7.4602386,0 10.3124491,0 Z" id="Stroke-1" stroke-width="0.7"></path>
                                <path d="M20.5928702,16.9010526 C20.0028351,13.2117895 17.4445193,10.2113684 14.0502737,8.88364912 C13.0672561,9.86694737 11.4928,10.2113684 10.3124491,10.2113684 C9.08269474,10.2113684 7.5085193,9.86694737 6.52437895,8.88364912 C3.17981754,10.1619649 0.670905263,13.1138246 0.0317473684,16.6554386 C-0.16474386,17.7375439 0.572940351,18.6231579 1.65504561,18.9672982 C3.76985263,19.6067368 7.11469474,19.9997193 10.3124491,19.9997193 C14.5914667,19.9997193 17.2971509,19.6067368 19.215186,18.9181754 C20.1010807,18.573193 20.7402386,17.8357895 20.5928702,16.9010526 Z" id="Stroke-3" stroke-width="0.7"></path>
                            </g>
                        </g>
                    </g>
                </g>
            </g>
        </g>
    </g>
</svg>