<?xml version="1.0" encoding="UTF-8"?>
<svg width="22px" height="27px" viewBox="0 0 22 27" version="1.1" xmlns="http://www.w3.org/2000/svg" xmlns:xlink="http://www.w3.org/1999/xlink">
    <!-- Generator: Sketch 47 (45396) - http://www.bohemiancoding.com/sketch -->
    <title>icApple</title>
    <desc>Created with Sketch.</desc>
    <defs></defs>
    <g id="Page-1" stroke="none" stroke-width="1" fill="none" fill-rule="evenodd">
        <g id="Splash-screen" transform="translate(-203.000000, -530.000000)" fill="#FFFFFF">
            <g id="Group-8" transform="translate(203.000000, 530.000000)">
                <g id="Group-9">
                    <g id="icApple">
                        <g id="Group-3" transform="translate(0.000000, 6.000000)">
                            <path d="M11.3135229,1.31916472 C9.68208583,1.31916472 8.43795123,0.204329547 6.45972954,0.204329547 C4.52232358,0.204329547 2.45561818,1.42105505 1.14355669,3.49461272 C-0.698513294,6.41785236 -0.385990019,11.9241013 2.59862216,16.6149297 C3.66578934,18.2940347 5.09344571,20.1772184 6.96292479,20.1974773 C8.621473,20.1974773 9.10440935,19.102901 11.340932,19.0894944 C13.5774546,19.0894944 14.0192773,20.190625 15.6373077,20.190625 C17.5407502,20.1703661 19.0431858,18.0834018 20.110353,16.4108511 C20.8787014,15.2078302 21.1641135,14.6027446 21.7554945,13.2430151 C17.4388599,11.5570578 16.7452906,5.26220147 21.0145552,2.84871143 C19.709346,1.16960639 17.8806826,0.197477273 16.1539096,0.197477273 C13.869719,0.197477273 12.9044421,1.31916472 11.3135229,1.31916472 Z" id="Fill-1"></path>
                        </g>
                        <path d="M15.954124,0 C14.658535,0.0907797382 13.1494748,0.941661924 12.2620928,2.0520774 C11.4587368,3.05833808 10.7981681,4.5520774 11.0570588,6 L11.1609558,6 C12.5405707,6 13.9525469,5.14285714 14.7752062,4.04553216 C15.5720331,3 16.1744082,1.51935117 15.954124,0" id="Fill-4"></path>
                    </g>
                </g>
            </g>
        </g>
    </g>
</svg>