<?xml version="1.0" encoding="UTF-8"?>
<svg width="19px" height="49px" viewBox="0 0 19 49" version="1.1" xmlns="http://www.w3.org/2000/svg" xmlns:xlink="http://www.w3.org/1999/xlink">
    <!-- Generator: Sketch 48.1 (47250) - http://www.bohemiancoding.com/sketch -->
    <title>icBodyTypeThin</title>
    <desc>Created with Sketch.</desc>
    <defs>
        <polygon id="path-1" points="0.563314815 0.000597371565 8.24951852 0.000597371565 8.24951852 7.83554361 0.563314815 7.83554361 0.563314815 0.000597371565"></polygon>
        <polygon id="path-3" points="0 39.4264038 0 0.302747909 18.1788951 0.302747909 18.1788951 39.4264038 6.51048765e-16 39.4264038"></polygon>
        <polygon id="path-5" points="0.563314815 0.000597371565 8.24951852 0.000597371565 8.24951852 7.83554361 0.563314815 7.83554361 0.563314815 0.000597371565"></polygon>
        <polygon id="path-7" points="0 39.4264038 0 0.302747909 18.1788951 0.302747909 18.1788951 39.4264038 6.51048765e-16 39.4264038"></polygon>
    </defs>
    <g id="BodyType-4" stroke="none" stroke-width="1" fill="none" fill-rule="evenodd" transform="translate(-69.000000, -282.000000)">
        <g id="Thin" transform="translate(69.000000, 282.000000)">
            <g id="Group">
                <g id="Page-1">
                    <g id="Group-3" transform="translate(4.691358, 0.597073)">
                        <mask id="mask-2" fill="white">
                            <use xlink:href="#path-1"></use>
                        </mask>
                        <g id="Clip-2"></g>
                        <path d="M4.39498148,7.83554361 C5.44701852,7.83554361 6.37532099,7.48249701 7.12241975,6.74653524 C7.86951852,5.98966547 8.24951852,5.0541816 8.24951852,3.92753883 C8.24951852,2.85346476 7.86541358,1.9323178 7.11948765,1.1718638 C6.37004321,0.389904421 5.44408642,0.000418160096 4.39498148,0.000418160096 C3.29016667,0.000418160096 2.36069136,0.389904421 1.66109259,1.1718638 C0.915166667,1.9323178 0.563314815,2.85346476 0.563314815,3.92753883 C0.563314815,5.05716846 0.915166667,5.99205496 1.66109259,6.74653524 C2.3647963,7.48249701 3.2942716,7.83554361 4.39498148,7.83554361" id="Fill-1" fill="#010002" mask="url(#mask-2)"></path>
                    </g>
                    <g id="Group-6" transform="translate(0.000000, 8.960275)">
                        <mask id="mask-4" fill="white">
                            <use xlink:href="#path-3"></use>
                        </mask>
                        <g id="Clip-5"></g>
                        <path d="M13.3456235,0.302747909 L4.69124074,0.302747909 L4.69124074,0.48255675 C3.51840123,0.48255675 2.32210494,0.990919952 1.34630247,1.97180406 C0.367567901,2.99808841 -0.000117283951,4.19044205 -0.000117283951,5.51959379 L-0.000117283951,17.8021505 C-0.000117283951,18.2621266 0.0632160494,18.6784946 0.412135802,19.0148148 C0.735253086,19.3469534 1.09120988,19.497491 1.54685802,19.497491 C2.07053086,19.497491 2.32738272,19.3469534 2.64991358,19.0148148 C2.93022222,18.6784946 2.93198148,18.2621266 2.93198148,17.8021505 L2.93198148,6.87383513 L4.10482099,6.87383513 L4.10482099,37.225687 C4.10482099,37.8111111 4.32883333,38.3517324 4.80559259,38.7681004 C5.2542037,39.2286738 5.76380247,39.4264038 6.36664198,39.4264038 C7.01932716,39.4264038 7.62803086,39.2304659 8.05494444,38.7681004 C8.50707407,38.3517324 8.79617901,37.8117085 8.79617901,37.225687 L8.79617901,19.418638 L9.38259877,19.418638 L9.38259877,37.225687 C9.38259877,37.8111111 9.71158025,38.3517324 10.1361481,38.7681004 C10.5630617,39.2286738 11.1664877,39.4264038 11.8420432,39.4264038 C12.4149753,39.4264038 12.9615185,39.2304659 13.4136481,38.7681004 C13.8370432,38.3517324 14.0739568,37.8117085 14.0739568,37.225687 L14.0739568,6.87383513 L14.6603765,6.87383513 L14.6603765,17.8021505 C14.6603765,18.2621266 14.9488951,18.6784946 15.2503148,19.0148148 C15.6092037,19.3469534 16.0976914,19.497491 16.549821,19.497491 C17.0805309,19.497491 17.4570123,19.3469534 17.7590185,19.0148148 C18.0311173,18.6784946 18.1788951,18.2621266 18.1788951,17.8021505 L18.1788951,5.52019116 C18.1788951,4.19522103 17.7660556,2.90549582 16.7867346,1.88458781 C15.8320432,0.898924731 14.7495123,0.302747909 13.3456235,0.302747909" id="Fill-4" fill="#010002" mask="url(#mask-4)"></path>
                    </g>
                    <g id="Group-9" transform="translate(4.691358, 0.597073)">
                        <mask id="mask-6" fill="white">
                            <use xlink:href="#path-5"></use>
                        </mask>
                        <g id="Clip-8"></g>
                        <path d="M4.39498148,7.83554361 C5.44701852,7.83554361 6.37532099,7.48249701 7.12241975,6.74653524 C7.86951852,5.98966547 8.24951852,5.0541816 8.24951852,3.92753883 C8.24951852,2.85346476 7.86541358,1.9323178 7.11948765,1.1718638 C6.37004321,0.389904421 5.44408642,0.000418160096 4.39498148,0.000418160096 C3.29016667,0.000418160096 2.36069136,0.389904421 1.66109259,1.1718638 C0.915166667,1.9323178 0.563314815,2.85346476 0.563314815,3.92753883 C0.563314815,5.05716846 0.915166667,5.99205496 1.66109259,6.74653524 C2.3647963,7.48249701 3.2942716,7.83554361 4.39498148,7.83554361" id="Fill-7" fill="#FFFFFF" mask="url(#mask-6)"></path>
                    </g>
                    <g id="Group-12" transform="translate(0.000000, 8.960275)">
                        <mask id="mask-8" fill="white">
                            <use xlink:href="#path-7"></use>
                        </mask>
                        <g id="Clip-11"></g>
                        <path d="M13.3456235,0.302747909 L4.69124074,0.302747909 L4.69124074,0.48255675 C3.51840123,0.48255675 2.32210494,0.990919952 1.34630247,1.97180406 C0.367567901,2.99808841 -0.000117283951,4.19044205 -0.000117283951,5.51959379 L-0.000117283951,17.8021505 C-0.000117283951,18.2621266 0.0632160494,18.6784946 0.412135802,19.0148148 C0.735253086,19.3469534 1.09120988,19.497491 1.54685802,19.497491 C2.07053086,19.497491 2.32738272,19.3469534 2.64991358,19.0148148 C2.93022222,18.6784946 2.93198148,18.2621266 2.93198148,17.8021505 L2.93198148,6.87383513 L4.10482099,6.87383513 L4.10482099,37.225687 C4.10482099,37.8111111 4.32883333,38.3517324 4.80559259,38.7681004 C5.2542037,39.2286738 5.76380247,39.4264038 6.36664198,39.4264038 C7.01932716,39.4264038 7.62803086,39.2304659 8.05494444,38.7681004 C8.50707407,38.3517324 8.79617901,37.8117085 8.79617901,37.225687 L8.79617901,19.418638 L9.38259877,19.418638 L9.38259877,37.225687 C9.38259877,37.8111111 9.71158025,38.3517324 10.1361481,38.7681004 C10.5630617,39.2286738 11.1664877,39.4264038 11.8420432,39.4264038 C12.4149753,39.4264038 12.9615185,39.2304659 13.4136481,38.7681004 C13.8370432,38.3517324 14.0739568,37.8117085 14.0739568,37.225687 L14.0739568,6.87383513 L14.6603765,6.87383513 L14.6603765,17.8021505 C14.6603765,18.2621266 14.9488951,18.6784946 15.2503148,19.0148148 C15.6092037,19.3469534 16.0976914,19.497491 16.549821,19.497491 C17.0805309,19.497491 17.4570123,19.3469534 17.7590185,19.0148148 C18.0311173,18.6784946 18.1788951,18.2621266 18.1788951,17.8021505 L18.1788951,5.52019116 C18.1788951,4.19522103 17.7660556,2.90549582 16.7867346,1.88458781 C15.8320432,0.898924731 14.7495123,0.302747909 13.3456235,0.302747909" id="Fill-10" fill="#FFFFFF" mask="url(#mask-8)"></path>
                    </g>
                </g>
            </g>
        </g>
    </g>
</svg>