<?xml version="1.0" encoding="UTF-8"?>
<svg width="34px" height="50px" viewBox="0 0 34 50" version="1.1" xmlns="http://www.w3.org/2000/svg" xmlns:xlink="http://www.w3.org/1999/xlink">
    <!-- Generator: Sketch 48.1 (47250) - http://www.bohemiancoding.com/sketch -->
    <title>icBodyTypeAthletic</title>
    <desc>Created with Sketch.</desc>
    <defs></defs>
    <g id="BodyType-4" stroke="none" stroke-width="1" fill="none" fill-rule="evenodd" transform="translate(-283.000000, -286.000000)">
        <g id="Athletic" transform="translate(283.000000, 286.000000)" fill="#FFFFFF">
            <g id="Group-4">
                <g id="Athletic">
                    <path d="M16.6375821,10.7009877 C17.7699826,10.7009877 18.7263978,10.2941975 19.5074495,9.48 C20.2885011,8.66641975 20.679027,7.69728395 20.679027,6.57320988 C20.679027,5.4491358 20.2885011,4.48 19.5074495,3.66641975 C18.7263978,2.85283951 17.7699826,2.44604938 16.6375821,2.44604938 C15.5058034,2.44604938 14.5493882,2.85283951 13.7683365,3.66641975 C12.9872849,4.48 12.596759,5.4491358 12.596759,6.57320988 C12.596759,7.69728395 12.9872849,8.66641975 13.7683365,9.48 C14.5493882,10.2941975 15.5058034,10.7009877 16.6375821,10.7009877" id="Fill-1"></path>
                    <path d="M11.190866,14.8997531 L8.32783905,49.8151852 L12.7641628,49.8151852 L15.7590233,31.2966667 L17.6332986,31.2966667 L21.8787124,49.8151852 L25.6328596,49.8151852 L22.200834,14.8997531 L32.7425441,4.13802469 C33.1336918,3.75098765 33.3295766,3.2917284 33.3295766,2.7108642 C33.3295766,2.12938272 33.1144143,1.63864198 32.6847115,1.21209877 C32.2550087,0.78617284 31.7475738,0.598518519 31.1611632,0.637407407 C30.5766182,0.676296296 30.0890828,0.849135802 29.6979351,1.23617284 L19.6251047,11.5435802 L13.7684609,11.5435802 L3.57747782,1.23925926 C3.18757385,0.850987654 2.69941655,0.65962963 2.1136278,0.621975309 C1.52783905,0.583703704 1.03968176,0.788641975 0.649155921,1.21395062 C0.258630087,1.64049383 0.0440896205,2.14975309 0.00553452218,2.73123457 C-0.0336424326,3.31209877 0.141721079,3.74790123 0.532246914,4.13555556 L11.190866,14.8997531 Z" id="Fill-3"></path>
                </g>
            </g>
        </g>
    </g>
</svg>