<?xml version="1.0" encoding="UTF-8"?>
<svg width="29px" height="49px" viewBox="0 0 29 49" version="1.1" xmlns="http://www.w3.org/2000/svg" xmlns:xlink="http://www.w3.org/1999/xlink">
    <!-- Generator: Sketch 48.1 (47250) - http://www.bohemiancoding.com/sketch -->
    <title>icBodyTypeLarge</title>
    <desc>Created with Sketch.</desc>
    <defs></defs>
    <g id="BodyType-4" stroke="none" stroke-width="1" fill="none" fill-rule="evenodd" transform="translate(-285.000000, -375.000000)">
        <g id="Large" transform="translate(285.000000, 375.000000)" fill="#FFFFFF">
            <path d="M14.6825792,10.9128049 C16.1615792,10.9128049 17.4665792,10.4213415 18.517225,9.39573171 C19.5678708,8.34207317 20.1025583,7.03902439 20.1025583,5.47012195 C20.1025583,3.97378049 19.561225,2.6902439 18.5129958,1.63170732 C17.4593292,0.542073171 16.15735,0 14.6825792,0 C13.1298708,0 11.8230583,0.542073171 10.8388708,1.63170732 C9.79064167,2.6902439 9.29643333,3.97378049 9.29643333,5.47012195 C9.29643333,7.04329268 9.79064167,8.34573171 10.8388708,9.39573171 C11.8291,10.4213415 13.1353083,10.9128049 14.6825792,10.9128049 L14.6825792,16.2672855 C14.6825792,16.2672855 14.6825792,21.2438523 14.6825792,19.2748087" id="Fill-1"></path>
            <g id="Group-5" stroke-width="1" transform="translate(0.000000, 11.585366)">
                <path d="M21.4564958,0.594573171 L7.8542875,0.594573171 L7.8542875,0.310426829 C6.0417875,0.310426829 3.89035,0.792134146 2.3515375,1.72140244 C0.808495833,2.6927439 0.000120833333,3.82262195 0.000120833333,5.08115854 L0.000120833333,16.7134756 C0.000120833333,17.1494512 0.307641667,17.5439634 0.857433333,17.8622561 C1.36674583,18.1768902 2.03132917,18.3195732 2.7502875,18.3195732 C3.57557917,18.3195732 4.23170417,18.1768902 4.7404125,17.8622561 C5.18205833,17.5439634 5.43762083,17.1494512 5.43762083,16.7134756 L5.43762083,6.08237805 L6.64595417,6.08237805 L6.64595417,35.1098171 C6.64595417,35.6640854 7.11962083,36.1775 7.8706,36.5714024 C8.57868333,37.0067683 9.4420375,37.1951829 10.3917875,37.1951829 C11.4218917,37.1951829 12.2181833,37.0085976 12.8906208,36.5714024 C13.6029333,36.1775 13.8959542,35.6646951 13.8959542,35.1098171 L13.8959542,18.2775 L15.7084542,18.2775 L15.7084542,35.1098171 C15.7084542,35.6640854 15.9767042,36.1775 16.6455167,36.5714024 C17.3179542,37.0067683 18.1462667,37.1951829 19.2108083,37.1951829 C20.1146417,37.1951829 20.7870792,37.0085976 21.4999958,36.5714024 C22.1688083,36.1775 22.3542875,35.6646951 22.3542875,35.1098171 L22.3542875,6.08237805 L24.1667875,6.08237805 L24.1667875,16.7134756 C24.1667875,17.1494512 24.302725,17.5439634 24.7769958,17.8622561 C25.3443083,18.1768902 25.9545167,18.3195732 26.6680375,18.3195732 C27.5042042,18.3195732 27.9796833,18.1768902 28.4563708,17.8622561 C28.884725,17.5439634 29.0001208,17.1494512 29.0001208,16.7134756 L29.0001208,5.08176829 C29.0001208,3.82628049 28.3874958,2.83237805 26.8432458,1.86469512 C25.3388708,0.931768293 23.6695583,0.594573171 21.4564958,0.594573171" id="Fill-3"></path>
            </g>
        </g>
    </g>
</svg>