<?xml version="1.0" encoding="UTF-8"?>
<svg width="16px" height="49px" viewBox="0 0 16 49" version="1.1" xmlns="http://www.w3.org/2000/svg" xmlns:xlink="http://www.w3.org/1999/xlink">
    <!-- Generator: Sketch 48.1 (47250) - http://www.bohemiancoding.com/sketch -->
    <title>icBodyTypeSlim</title>
    <desc>Created with Sketch.</desc>
    <defs>
        <polygon id="path-1" points="0 39.6746667 0 0.0174308943 15.0971077 0.0174308943 15.0971077 39.6746667 2.9148692e-16 39.6746667"></polygon>
    </defs>
    <g id="BodyType-4" stroke="none" stroke-width="1" fill="none" fill-rule="evenodd" transform="translate(-180.000000, -286.000000)">
        <g id="Slim" transform="translate(180.000000, 286.000000)">
            <g id="Page-1">
                <path d="M7.73815795,7.86803252 C8.82386051,7.86803252 9.7828759,7.51356098 10.5535015,6.77404878 C11.3247836,6.01437398 11.7173169,5.07518699 11.7173169,3.94413008 C11.7173169,2.86510569 11.3208451,1.94022764 10.5508759,1.176 C9.77696821,0.39095935 8.82123487,6.50406504e-05 7.73815795,6.50406504e-05 C6.59731692,6.50406504e-05 5.63830154,0.39095935 4.91559385,1.176 C4.14562462,1.94022764 3.78262974,2.86510569 3.78262974,3.94413008 C3.78262974,5.07778862 4.14562462,6.01697561 4.91559385,6.77404878 C5.64224,7.51356098 6.60125538,7.86803252 7.73815795,7.86803252" id="Fill-1" fill="#FFFFFF"></path>
                <g id="Group-5" transform="translate(0.000000, 8.922732)">
                    <mask id="mask-2" fill="white">
                        <use xlink:href="#path-1"></use>
                    </mask>
                    <g id="Clip-4"></g>
                    <path d="M10.9400615,0.317918699 L3.93813333,0.317918699 L3.93813333,0.0174308943 C3.28172308,0.0174308943 1.95052308,0.535154472 1.17070769,1.53417886 C0.389579487,2.57938211 -0.000328205128,3.79369106 -0.000328205128,5.14653659 L-0.000328205128,17.6538537 C-0.000328205128,18.1221463 0.192,18.5468618 0.470974359,18.889626 C0.72894359,19.2278374 1.08340513,19.3813333 1.44771282,19.3813333 C1.86584615,19.3813333 2.10674872,19.2278374 2.36406154,18.889626 C2.58789744,18.5468618 2.62531282,18.1221463 2.62531282,17.6538537 L2.62531282,6.17157724 L3.28172308,6.17157724 L3.28172308,37.4327154 C3.28172308,38.0297886 3.60008205,38.5813333 3.9808,39.0040976 C4.3392,39.4730407 4.81641026,39.6746667 5.29690256,39.6746667 C5.81874872,39.6746667 6.29595897,39.4743415 6.6366359,39.0040976 C6.99766154,38.5813333 7.22018462,38.0297886 7.22018462,37.4327154 L7.22018462,19.1797073 L7.87659487,19.1797073 L7.87659487,37.4327154 C7.87659487,38.0297886 8.08861538,38.5813333 8.42732308,39.0040976 C8.76865641,39.4730407 9.22551795,39.6746667 9.76443077,39.6746667 C10.2226051,39.6746667 10.7923692,39.4743415 11.1533949,39.0040976 C11.4921026,38.5813333 11.8150564,38.0297886 11.8150564,37.4327154 L11.8150564,6.17157724 L12.4714667,6.17157724 L12.4714667,17.6538537 C12.4714667,18.1221463 12.4609641,18.5468618 12.7018667,18.889626 C12.9887179,19.2278374 13.2585026,19.3813333 13.6195282,19.3813333 C14.0429128,19.3813333 14.4321641,19.2278374 14.6730667,18.889626 C14.8903385,18.5468618 15.0971077,18.1221463 15.0971077,17.6538537 L15.0971077,5.14718699 C15.0971077,3.7982439 14.6185846,2.72702439 13.8368,1.68702439 C13.0740513,0.683447154 12.0612103,0.317918699 10.9400615,0.317918699" id="Fill-3" fill="#FFFFFF" mask="url(#mask-2)"></path>
                </g>
            </g>
        </g>
    </g>
</svg>