<?xml version="1.0" encoding="UTF-8"?>
<svg width="22px" height="22px" viewBox="0 0 22 22" version="1.1" xmlns="http://www.w3.org/2000/svg" xmlns:xlink="http://www.w3.org/1999/xlink">
    <!-- Generator: Sketch 47 (45396) - http://www.bohemiancoding.com/sketch -->
    <title>icCloseWarning</title>
    <desc>Created with Sketch.</desc>
    <defs></defs>
    <g id="Page-1" stroke="none" stroke-width="1" fill="none" fill-rule="evenodd">
        <g id="Login---Setup-pwd---email-Error" transform="translate(-323.000000, -264.000000)" stroke="#FF0000" stroke-width="0.5" fill="#FF0000">
            <g id="icCloseWarning" transform="translate(324.000000, 265.000000)">
                <path d="M10,19.2 C4.92728571,19.2 0.8,15.0727143 0.8,10 C0.8,4.92728571 4.92728571,0.8 10,0.8 C15.0727143,0.8 19.2,4.92728571 19.2,10 C19.2,15.0727143 15.0727143,19.2 10,19.2 M10,0 C4.47657143,0 0,4.47657143 0,10 C0,15.5234286 4.47657143,20 10,20 C15.5234286,20 20,15.5234286 20,10 C20,4.47657143 15.5234286,0 10,0" id="Fill-1"></path>
                <polygon id="Fill-3" points="13.5462 6.64874286 13.1313429 6.23474286 9.96777143 9.39231429 6.8042 6.23474286 6.3892 6.64874286 9.55277143 9.80631429 6.3892 12.9636 6.8042 13.3776 9.96777143 10.2203143 13.1313429 13.3776 13.5462 12.9636 10.3823429 9.80631429"></polygon>
            </g>
        </g>
    </g>
</svg>