<?xml version="1.0" encoding="UTF-8"?>
<svg width="31px" height="20px" viewBox="0 0 31 20" version="1.1" xmlns="http://www.w3.org/2000/svg" xmlns:xlink="http://www.w3.org/1999/xlink">
    <!-- Generator: Sketch 47 (45396) - http://www.bohemiancoding.com/sketch -->
    <title>icEmail</title>
    <desc>Created with Sketch.</desc>
    <defs>
        <polygon id="path-1" points="0.138157209 8.66666667 29.1232662 8.66666667 29.1232662 0.0481962963 0.138157209 0.0481962963"></polygon>
        <polygon id="path-3" points="10.6646423 16.02055 10.6646423 0.159827778 0.183133537 0.159827778 0.183133537 16.02055 10.6646423 16.02055"></polygon>
    </defs>
    <g id="Page-1" stroke="none" stroke-width="1" fill="none" fill-rule="evenodd">
        <g id="Splash-screen" transform="translate(-53.000000, -533.000000)">
            <g id="Group-7" transform="translate(53.000000, 533.000000)">
                <g id="icEmail">
                    <g id="Group-3" transform="translate(0.547157, 10.417526)">
                        <mask id="mask-2" fill="white">
                            <use xlink:href="#path-1"></use>
                        </mask>
                        <g id="Clip-2"></g>
                        <path d="M14.6339946,2.94141852 L10.87776,0.0481962963 L0.138157209,8.1496037 C0.528553918,8.4681037 1.05546636,8.66671481 1.63682096,8.66671481 L27.6311683,8.66671481 C28.2103343,8.66671481 28.7350581,8.4681037 29.1232662,8.1496037 L18.3902293,0.0481962963 L14.6339946,2.94141852 Z" id="Fill-1" fill="#FFFFFF" mask="url(#mask-2)"></path>
                    </g>
                    <path d="M29.676962,0.517183333 C29.2865653,0.196516667 28.7618414,7.22222222e-05 28.1782982,7.22222222e-05 L2.18395087,7.22222222e-05 C1.6047849,7.22222222e-05 1.08006108,0.198442593 0.689664375,0.521035185 L15.1811245,11.4504241 L29.676962,0.517183333 Z" id="Fill-4" fill="#FFFFFF"></path>
                    <polygon id="Fill-6" fill="#FFFFFF" points="0 1.6756037 0 17.5307889 10.4816181 9.69275185"></polygon>
                    <g id="Group-10" transform="translate(19.697662, 1.510119)">
                        <mask id="mask-4" fill="white">
                            <use xlink:href="#path-3"></use>
                        </mask>
                        <g id="Clip-9"></g>
                        <polygon id="Fill-8" fill="#FFFFFF" mask="url(#mask-4)" points="0.183133537 8.1827537 10.6647517 16.02055 10.6647517 0.159827778"></polygon>
                    </g>
                </g>
            </g>
        </g>
    </g>
</svg>