<?xml version="1.0" encoding="UTF-8"?>
<svg width="14px" height="20px" viewBox="0 0 14 20" version="1.1" xmlns="http://www.w3.org/2000/svg" xmlns:xlink="http://www.w3.org/1999/xlink">
    <!-- Generator: Sketch 47 (45396) - http://www.bohemiancoding.com/sketch -->
    <title>icPinLocation</title>
    <desc>Created with Sketch.</desc>
    <defs></defs>
    <g id="Symbols" stroke="none" stroke-width="1" fill="none" fill-rule="evenodd">
        <g id="location-icon" transform="translate(-13.000000, -10.000000)" fill-rule="nonzero" fill="#FFFFFF">
            <g id="Group">
                <path d="M19.9439809,10 L19.9111402,10 C16.0979715,10 13,12.8097033 13,16.2616244 C13,18.5239828 14.1384772,21.5124854 16.3789418,25.1395569 C17.4060259,26.7946797 18.5306781,28.3872262 19.7469368,29.9087545 C19.7969148,29.9675277 19.8704864,30.0009693 19.9476299,29.9999786 L19.9476299,29.9999786 C20.0267409,29.9988422 20.1008596,29.9611091 20.1483229,29.8978076 C20.1483229,29.8759138 21.8377939,27.5843636 23.4907751,24.7892562 C25.7202929,21.0052792 26.8514721,18.1408415 26.8514721,16.2689223 C26.8551211,12.8242991 23.7535006,10 19.9439809,10 Z M23.1368255,16.4148809 C23.1368255,18.0167767 21.6991332,19.3340531 19.929385,19.3340531 C18.1596369,19.3340531 16.7219446,18.0313725 16.7219446,16.4148809 C16.7219446,14.7983893 18.1596369,13.4957087 19.929385,13.4957087 C21.6991332,13.4957087 23.1368255,14.8129852 23.1368255,16.4148809 Z" id="icPinLocation"></path>
            </g>
        </g>
    </g>
</svg>