<?xml version="1.0" encoding="UTF-8"?>
<svg width="23px" height="23px" viewBox="0 0 23 23" version="1.1" xmlns="http://www.w3.org/2000/svg" xmlns:xlink="http://www.w3.org/1999/xlink">
    <!-- Generator: Sketch 48.1 (47250) - http://www.bohemiancoding.com/sketch -->
    <title>icPlace</title>
    <desc>Created with Sketch.</desc>
    <defs></defs>
    <g id="last-step" stroke="none" stroke-width="1" fill="none" fill-rule="evenodd" transform="translate(-572.000000, -630.000000)">
        <g id="icPlace" transform="translate(572.000000, 630.000000)" fill="#FFFFFF" fill-rule="nonzero">
            <path d="M11.5,9 C12.8785714,9 14,7.87821429 14,6.5 C14,5.12178571 12.8785714,4 11.5,4 C10.1214286,4 9,5.12178571 9,6.5 C9,7.87821429 10.1214286,9 11.5,9 Z M11.5,4.71428571 C12.4846429,4.71428571 13.2857143,5.51535714 13.2857143,6.5 C13.2857143,7.48464286 12.4846429,8.28571429 11.5,8.28571429 C10.5153571,8.28571429 9.71428571,7.48464286 9.71428571,6.5 C9.71428571,5.51535714 10.5153571,4.71428571 11.5,4.71428571 Z" id="Shape"></path>
            <path d="M11.5007589,21 L17.5011195,12.5025111 C19.7516947,9.56058586 19.4262726,4.72487536 16.8045128,2.15457384 C15.3878317,0.765107657 13.5041385,0 11.5007589,0 C9.49737924,0 7.61368608,0.765107657 6.1970049,2.15419033 C3.5752451,4.72449185 3.24982302,9.56020235 5.49140223,12.4906222 L11.5007589,21 Z M6.75006597,2.69647716 C8.01929028,1.45236226 9.70624388,0.767025221 11.5007589,0.767025221 C13.2952739,0.767025221 14.9822275,1.45236226 16.2514518,2.69647716 C18.6178022,5.01634494 18.9091957,9.38378655 16.8667029,12.0538013 L11.5007589,19.6523367 L6.12620995,12.042296 C4.092322,9.38378655 4.38410669,5.01634494 6.75006597,2.69647716 Z" id="Shape"></path>
            <path d="M16.14485,17.0027569 C15.9340167,16.9791109 15.7438833,17.1181631 15.71935,17.3119186 C15.6948167,17.505674 15.8450833,17.6810774 16.05515,17.7036646 C20.0862833,18.1405849 22.2333333,19.3179405 22.2333333,20.0001432 C22.2333333,20.9579798 18.1500667,22.2941513 11.5,22.2941513 C4.84993333,22.2941513 0.766666667,20.9579798 0.766666667,20.0001432 C0.766666667,19.3179405 2.91371667,18.1405849 6.94485,17.7036646 C7.15491667,17.6810774 7.30518333,17.5053211 7.28065,17.3119186 C7.25573333,17.1181631 7.0656,16.9784051 6.85515,17.0027569 C2.81903333,17.440383 0,18.6727948 0,20.0001432 C0,21.4908956 3.95025,23 11.5,23 C19.04975,23 23,21.4908956 23,20.0001432 C23,18.6727948 20.1809667,17.440383 16.14485,17.0027569 Z" id="Shape"></path>
        </g>
    </g>
</svg>