<?xml version="1.0" encoding="UTF-8"?>
<svg width="18px" height="21px" viewBox="0 0 18 21" version="1.1" xmlns="http://www.w3.org/2000/svg" xmlns:xlink="http://www.w3.org/1999/xlink">
    <!-- Generator: Sketch 55.2 (78181) - https://sketchapp.com -->
    <title>icUserPassword</title>
    <desc>Created with Sketch.</desc>
    <g id="Page-1" stroke="none" stroke-width="1" fill="none" fill-rule="evenodd">
        <g id="RHP-Splash-screen--" transform="translate(-33.000000, -189.000000)" fill="#FFFFFF" stroke="#FFFFFF" stroke-width="0.3">
            <g id="Page-1" transform="translate(34.000000, 188.666667)">
                <path d="M15.8185,18.3195381 L15.8185,11.2223977 C15.8185,10.1757595 14.9345,9.3237827 13.8493333,9.3237827 L2.72283333,9.3237827 C1.63766667,9.3237827 0.753666667,10.1757595 0.753666667,11.2223977 L0.753666667,18.3195381 C0.753666667,19.3661763 1.63766667,20.2181531 2.72283333,20.2181531 L13.8493333,20.2181531 C14.9345,20.2181531 15.8185,19.3661763 15.8185,18.3195381 Z M14.3125833,8.638468 C15.59325,8.85046224 16.5721667,9.92776627 16.5721667,11.2223977 L16.5721667,18.3195381 C16.5721667,19.7674987 15.351,20.9448 13.8493333,20.9448 L2.72283333,20.9448 C1.22116667,20.9448 7.28306304e-14,19.7674987 7.28306304e-14,18.3195381 L7.28306304e-14,11.2223977 C7.28306304e-14,9.92776627 0.978916667,8.85046224 2.25958333,8.638468 L2.25958333,8.62646833 C2.31341667,8.61446866 2.36725,8.59980239 2.4225,8.59180261 L3.01325,8.59180261 L3.01325,8.59713579 L13.5589167,8.59713579 L13.5589167,6.59985678 C13.5589167,4.09592487 11.1930833,2.05998024 8.28608333,2.05998024 C5.58875,2.05998024 3.39858333,3.82259897 3.09116667,6.07453773 C2.84041667,6.07187114 2.58825,6.06920454 2.33608333,6.06653795 C2.64633333,3.41727666 5.17366667,1.33333333 8.28608333,1.33333333 C11.6081667,1.33333333 14.3125833,3.69593575 14.3125833,6.59985678 L14.3125833,8.638468 Z M6.78016667,12.9542667 C6.78016667,12.1542667 7.45591667,11.5022667 8.28608333,11.5022667 C9.11625,11.5022667 9.792,12.1542667 9.792,12.9542667 L9.792,15.1342667 C9.792,15.9356 9.11625,16.5876 8.28608333,16.5876 C7.45591667,16.5876 6.78016667,15.9356 6.78016667,15.1342667 L6.78016667,12.9542667 Z M7.53383333,15.1342667 C7.53383333,15.5342667 7.871,15.8596 8.28608333,15.8596 C8.70116667,15.8596 9.03833333,15.5342667 9.03833333,15.1342667 L9.03833333,12.9542667 C9.03833333,12.5542667 8.70116667,12.2289333 8.28608333,12.2289333 C7.871,12.2289333 7.53383333,12.5542667 7.53383333,12.9542667 L7.53383333,15.1342667 Z" id="icUserPassword"></path>
            </g>
        </g>
    </g>
</svg>