<?xml version="1.0" encoding="UTF-8"?>
<svg width="17px" height="21px" viewBox="0 0 17 21" version="1.1" xmlns="http://www.w3.org/2000/svg" xmlns:xlink="http://www.w3.org/1999/xlink">
    <!-- Generator: Sketch 55.2 (78181) - https://sketchapp.com -->
    <title>icUserProfile</title>
    <desc>Created with Sketch.</desc>
    <g id="Page-1" stroke="none" stroke-width="1" fill="none" fill-rule="evenodd">
        <g id="RHP-Splash-screen--" transform="translate(-35.000000, -128.000000)" fill="#FFFFFF" fill-rule="nonzero">
            <g id="userProfile" transform="translate(35.000000, 128.800000)">
                <path d="M8.2448053,11.7981818 C5.74150787,11.7981818 3.7204971,9.78218182 3.74346313,7.33090909 L3.74346313,4.49018182 C3.74346313,2.016 5.7644739,1.05693232e-13 8.2448053,1.05693232e-13 C10.7251367,1.05693232e-13 12.7461475,2.016 12.7461475,4.49018182 L12.7461475,7.308 C12.7461475,9.78218182 10.7251367,11.7981818 8.2448053,11.7981818 Z M4.50172472,4.35132038 L4.50172472,7.44462174 C4.50172472,9.35592989 6.30833943,10.9403038 8.22439814,10.9403038 C10.1404569,10.9403038 12.0660097,9.35592989 12.0660097,7.44462174 L12.0660097,4.32617159 C12.0660097,2.41486344 10.1404569,0.880787153 8.22439814,0.880787153 C6.30833943,0.880787153 4.50172472,2.44001223 4.50172472,4.35132038 Z M16.3058824,19.4269091 C16.3058824,19.7934545 16.0073239,20.0912727 15.6628335,20.0912727 L0.734913007,20.0912727 C0.367456504,20.0912727 0.0688980944,19.7934545 0.0688980944,19.4269091 L0.0688980944,17.892 C0.0688980944,16.6090909 0.711946976,15.4407273 1.81431649,14.7534545 L4.9606628,12.8061818 C5.55777962,12.4167273 6.24676056,12.2334545 6.93574151,12.2334545 L9.34717481,12.2334545 C10.0361558,12.2334545 10.7021707,12.4167273 11.2992875,12.7832727 L14.5374979,14.7534545 C15.6169014,15.4178182 16.3058824,16.632 16.3058824,17.9149091 L16.3058824,19.4269091 Z M0.98519336,19.3189123 L15.431095,19.2289486 L15.431095,18.0093975 C15.431095,17.1537749 15.0674588,16.058162 14.1663562,15.5280846 L10.8308782,13.4525427 C10.4142571,13.2080791 9.8598874,13.0854577 9.39425208,13.0854577 L6.82100427,13.0854577 C6.35536895,13.0854577 5.87510198,13.2080791 5.4584809,13.4525427 L2.20930919,15.5280846 C1.4495884,15.9925655 0.98519336,16.7172478 0.98519336,17.5973168 L0.98519336,19.3189123 Z" id="icUserProfile"></path>
            </g>
        </g>
    </g>
</svg>