<?xml version="1.0" encoding="UTF-8"?>
<svg width="14px" height="12px" viewBox="0 0 14 12" version="1.1" xmlns="http://www.w3.org/2000/svg" xmlns:xlink="http://www.w3.org/1999/xlink">
    <!-- Generator: Sketch 47 (45396) - http://www.bohemiancoding.com/sketch -->
    <title>icWarning</title>
    <desc>Created with Sketch.</desc>
    <defs></defs>
    <g id="Page-1" stroke="none" stroke-width="1" fill="none" fill-rule="evenodd">
        <g id="Login---Setup-pwd---email-Error" transform="translate(-60.000000, -298.000000)" fill="#FFFFFF">
            <g id="Group-3" transform="translate(60.000000, 295.000000)">
                <g id="Group-4">
                    <path d="M7.5916582,9.80191185 C7.5916582,10.2792371 7.20329152,10.6676038 6.72596629,10.6676038 C6.24864106,10.6676038 5.86027438,10.2792371 5.86027438,9.80191185 L5.86027438,5.82873975 C5.86027438,5.60226998 6.04387783,5.41866653 6.27034761,5.41866653 L7.18163965,5.41866653 C7.4081641,5.41866653 7.59171288,5.60226998 7.59171288,5.82873975 L7.59171288,9.80191185 L7.5916582,9.80191185 Z M6.72596629,13.4775895 C6.2518123,13.4775895 5.86607009,13.0918473 5.86607009,12.6176933 C5.86607009,12.143594 6.2518123,11.7578518 6.72596629,11.7578518 C7.20012029,11.7578518 7.5858625,12.143594 7.5858625,12.6176933 C7.58580782,13.091902 7.20006561,13.4775895 6.72596629,13.4775895 L6.72596629,13.4775895 Z M13.2727579,13.0184168 L7.86996123,3.66054594 C7.63118926,3.24697343 7.20351023,3 6.72591162,3 C6.248313,3 5.82063397,3.24691876 5.58186201,3.66054594 L0.179119983,13.0184168 C-0.059706661,13.4319894 -0.059706661,13.9258269 0.179119983,14.3394541 C0.417946627,14.7530812 0.845570981,15 1.32316959,15 L12.1288177,15 C12.6063616,15 13.0340406,14.7530812 13.2728126,14.3395087 C13.5115846,13.9258815 13.5115299,13.432044 13.2727579,13.0184168 L13.2727579,13.0184168 Z" id="icWarning"></path>
                </g>
            </g>
        </g>
    </g>
</svg>