<?xml version="1.0" encoding="UTF-8"?>
<svg width="74px" height="50px" viewBox="0 0 74 50" version="1.1" xmlns="http://www.w3.org/2000/svg" xmlns:xlink="http://www.w3.org/1999/xlink">
    <!-- Generator: Sketch 48.1 (47250) - http://www.bohemiancoding.com/sketch -->
    <title>icWhoTransWoman</title>
    <desc>Created with Sketch.</desc>
    <defs>
        <polygon id="path-1" points="0.6142 0 9.00171724 0 9.00171724 8.1979375 0.6142 8.1979375 0.6142 8.8817842e-15"></polygon>
    </defs>
    <g id="Layout--1" stroke="none" stroke-width="1" fill="none" fill-rule="evenodd" transform="translate(-684.000000, -670.000000)">
        <g id="Trans-Woman" transform="translate(684.000000, 670.000000)">
            <g id="Group-10">
                <g id="Page-1" transform="translate(49.758621, 0.000000)">
                    <g id="Group-3" transform="translate(7.017241, 0.000000)">
                        <mask id="mask-2" fill="white">
                            <use xlink:href="#path-1"></use>
                        </mask>
                        <g id="Clip-2"></g>
                        <path d="M4.91002759,8.1979375 C6.05766552,8.1979375 7.04071724,7.8285625 7.80432069,7.0585625 C8.59025172,6.2704375 9.00171724,5.2910625 9.00171724,4.1091875 C9.00171724,2.9854375 8.59025172,2.0216875 7.80432069,1.2260625 C7.04518276,0.4079375 6.05766552,-0.0001875 4.91002759,-0.0001875 C3.68775172,-0.0001875 2.67471724,0.4079375 1.83201034,1.2260625 C1.01545862,2.0179375 0.6142,2.9854375 0.6142,4.1091875 C0.6142,5.2910625 1.01545862,6.2691875 1.83583793,7.0585625 C2.67918276,7.8285625 3.69157931,8.1979375 4.91002759,8.1979375" id="Fill-1" fill="#FFFFFF" mask="url(#mask-2)"></path>
                    </g>
                    <path d="M23.0982069,23.8411875 C22.8845,23.0449375 22.579569,22.0543125 22.2325345,20.9011875 C21.904,19.7305625 21.4963621,18.4636875 21.1078621,17.1030625 C20.728931,15.7361875 20.3455345,14.4211875 19.9697931,13.1530625 C19.618931,12.1805625 18.990569,11.1449375 18.1159655,10.3755625 C17.2164828,9.5830625 16.2098276,9.0661875 15.1731897,9.0661875 L8.47108621,9.0661875 C7.46825862,9.0661875 6.50817241,9.5830625 5.58444828,10.3755625 C4.65753448,11.1411875 4.05787931,12.1043125 3.78484483,13.0755625 C3.32234483,14.3436875 2.94532759,15.6974375 2.53322414,17.0643125 C2.13132759,18.4249375 1.74665517,19.7111875 1.39196552,20.8818125 C1.03536207,22.0336875 0.739362069,23.0349375 0.519275862,23.8311875 C0.327896552,24.6355625 0.164586207,25.1136875 0.107810345,25.2511875 C0.0280689655,25.4124375 0,25.5755625 0,25.7705625 C0,26.4836875 0.385310345,26.9855625 1.17506897,27.2724375 L1.60631034,27.3749375 C2.45348276,27.3749375 2.99444828,26.9880625 3.24196552,26.1874375 C3.26939655,25.9261875 3.54243103,25.1593125 3.9487931,23.9486875 C4.30539655,22.7230625 4.71813793,21.3218125 5.08877586,19.9793125 C5.50087931,18.6311875 6.02717241,17.1911875 6.6517069,14.6911875 L7.63156897,14.6911875 L1.9342069,34.0661875 L7.20925862,34.0661875 L7.20925862,48.1143125 C7.20925862,48.6768125 7.49696552,49.1430625 7.90524138,49.4805625 C8.28544828,49.8311875 8.82768966,49.9993125 9.40374138,49.9993125 C9.97341379,49.9993125 10.6062414,49.8311875 10.961569,49.4805625 C11.3168966,49.1430625 11.6747759,48.6768125 11.6747759,48.1143125 L11.6747759,34.0661875 L12.3127069,34.0661875 L12.3127069,48.1149375 C12.3127069,48.6774375 12.5047241,49.1449375 12.8594138,49.4805625 C13.2345172,49.8311875 13.6912759,49.9999375 14.290931,49.9999375 C14.8580517,49.9999375 15.2388966,49.8330625 15.622931,49.4805625 C16.0586379,49.1449375 16.1402931,48.6774375 16.1402931,48.1149375 L16.1402931,34.0661875 L21.7087931,34.0661875 L16.0197241,14.6911875 L17.0034138,14.6911875 C17.6279483,17.1911875 18.138931,18.6374375 18.5746379,19.9811875 C19.0097069,21.3243125 19.397569,22.6605625 19.7784138,23.8861875 C20.100569,25.0961875 20.3448966,25.8949375 20.4048621,26.1561875 C20.6217586,26.9555625 21.1684655,27.3599375 22.0366897,27.3599375 L22.4385862,27.2599375 C23.227069,27.0380625 23.6385345,26.5380625 23.6385345,25.6749375 L23.532,25.2543125 C23.4560862,25.1161875 23.3157414,24.6449375 23.0982069,23.8411875" id="Fill-4" fill="#FFFFFF"></path>
                </g>
                <path d="M13.514569,7.058125 C14.3272931,6.26625 14.7406724,5.2875 14.7406724,4.10875 C14.7406724,2.985 14.3228276,2.02125 13.5113793,1.225625 C12.6961034,0.4075 11.6888103,0 10.5475517,0 C9.34568966,0 8.33456897,0.4075 7.57351724,1.225625 C6.76206897,2.02125 6.37931034,2.985 6.37931034,4.10875 C6.37931034,5.290625 6.76206897,6.269375 7.57351724,7.058125 C8.33903448,7.828125 9.35015517,8.1975 10.5475517,8.1975 C11.692,8.1975 12.7018448,7.828125 13.514569,7.058125 Z" id="Fill-10" fill="#FFFFFF"></path>
                <path d="M5.10344828,8.75 L5.10344828,8.938125 C3.82758621,8.938125 2.5262069,9.47 1.46468966,10.49625 C0.399982759,11.57 0,12.8175 0,14.208125 L0,27.05875 C0,27.54 0.0688965517,27.975625 0.448465517,28.3275 C0.799965517,28.675 1.18718966,28.8325 1.68286207,28.8325 C2.25253448,28.8325 2.53194828,28.675 2.88217241,28.3275 C3.18774138,27.975625 3.18965517,27.54 3.18965517,27.05875 L3.18965517,15.625 L4.46551724,15.625 L4.46551724,47.380625 C4.46551724,47.993125 4.7092069,48.55875 5.22784483,48.994375 C5.71586207,49.47625 6.27022414,49.683125 6.92601724,49.683125 C7.63603448,49.683125 8.2982069,49.478125 8.76262069,48.994375 C9.25446552,48.55875 9.56896552,47.99375 9.56896552,47.380625 L9.56896552,28.75 L10.2068966,28.75 L10.2068966,47.380625 C10.2068966,47.993125 10.5647759,48.55875 11.0266379,48.994375 C11.4910517,49.47625 12.1474828,49.683125 12.8823793,49.683125 C13.5056379,49.683125 14.1001897,49.478125 14.5920345,48.994375 C15.0526207,48.55875 15.3103448,47.99375 15.3103448,47.380625 L15.3103448,15.625 L15.9482759,15.625 L15.9482759,27.05875 C15.9482759,27.54 16.2621379,27.975625 16.5900345,28.3275 C16.9804483,28.675 17.5118448,28.8325 18.0036897,28.8325 C18.5810172,28.8325 18.990569,28.675 19.3191034,28.3275 C19.6151034,27.975625 19.7758621,27.54 19.7758621,27.05875 L19.7758621,14.20875 C19.7758621,12.8225 19.3267586,11.473125 18.2614138,10.404375 C17.2228621,9.37375 16.0452414,8.75 14.5180345,8.75 L5.10344828,8.75 Z" id="Fill-12" fill="#FFFFFF"></path>
                <g id="Group-4" transform="translate(25.517241, 25.000000)" stroke="#FFFFFF" stroke-width="2">
                    <polyline id="Path-3" points="12.7586207 0 19.137931 5.00834873 13.0833629 9.76174475"></polyline>
                    <path d="M18.4922137,5 L0.127087823,5" id="Path-4"></path>
                </g>
            </g>
        </g>
    </g>
</svg>