<?xml version="1.0" encoding="UTF-8"?>
<svg width="24px" height="50px" viewBox="0 0 24 50" version="1.1" xmlns="http://www.w3.org/2000/svg" xmlns:xlink="http://www.w3.org/1999/xlink">
    <!-- Generator: Sketch 48.1 (47250) - http://www.bohemiancoding.com/sketch -->
    <title>icWhoWoman</title>
    <desc>Created with Sketch.</desc>
    <defs>
        <polygon id="path-1" points="0.608084211 0 8.91208421 0 8.91208421 8.1979375 0.608084211 8.1979375 0.608084211 8.8817842e-15"></polygon>
    </defs>
    <g id="Layout--1" stroke="none" stroke-width="1" fill="none" fill-rule="evenodd" transform="translate(-709.000000, -451.000000)">
        <g id="Woman" transform="translate(709.000000, 451.000000)">
            <g id="Page-1">
                <g id="Group-3" transform="translate(6.947368, 0.000000)">
                    <mask id="mask-2" fill="white">
                        <use xlink:href="#path-1"></use>
                    </mask>
                    <g id="Clip-2"></g>
                    <path d="M4.86113684,8.1979375 C5.99734737,8.1979375 6.97061053,7.8285625 7.72661053,7.0585625 C8.50471579,6.2704375 8.91208421,5.2910625 8.91208421,4.1091875 C8.91208421,2.9854375 8.50471579,2.0216875 7.72661053,1.2260625 C6.97503158,0.4079375 5.99734737,-0.0001875 4.86113684,-0.0001875 C3.65103158,-0.0001875 2.64808421,0.4079375 1.81376842,1.2260625 C1.00534737,2.0179375 0.608084211,2.9854375 0.608084211,4.1091875 C0.608084211,5.2910625 1.00534737,6.2691875 1.81755789,7.0585625 C2.65250526,7.8285625 3.65482105,8.1979375 4.86113684,8.1979375" id="Fill-1" fill="#FFFFFF" mask="url(#mask-2)"></path>
                </g>
                <path d="M22.0111579,20.9011875 C21.6858947,19.7305625 21.2823158,18.4636875 20.8976842,17.1030625 C20.5225263,15.7361875 20.1429474,14.4211875 19.7709474,13.1530625 C19.4235789,12.1805625 18.8014737,11.1449375 17.9355789,10.3755625 C17.0450526,9.5830625 16.0484211,9.0661875 15.0221053,9.0661875 L8.38673684,9.0661875 C7.39389474,9.0661875 6.44336842,9.5830625 5.52884211,10.3755625 C4.61115789,11.1411875 4.01747368,12.1043125 3.74715789,13.0755625 C3.28926316,14.3436875 2.916,15.6974375 2.508,17.0643125 C2.11010526,18.4249375 1.72926316,19.7111875 1.37810526,20.8818125 C1.02505263,22.0336875 0.732,23.0349375 0.514105263,23.8311875 C0.324631579,24.6355625 0.162947368,25.1136875 0.106736842,25.2511875 C0.0277894737,25.4124375 0,25.5755625 0,25.7705625 C0,26.4836875 0.381473684,26.9855625 1.16336842,27.2724375 L1.59031579,27.3749375 C2.42905263,27.3749375 2.96463158,26.9880625 3.20968421,26.1874375 C3.23684211,25.9261875 3.50715789,25.1593125 3.90947368,23.9486875 C4.26252632,22.7230625 4.67115789,21.3218125 5.03810526,19.9793125 C5.44610526,18.6311875 5.96715789,17.1911875 6.58547368,14.6911875 L7.55557895,14.6911875 L1.91494737,34.0661875 L7.13747368,34.0661875 L7.13747368,48.1143125 C7.13747368,48.6768125 7.42231579,49.1430625 7.82652632,49.4805625 C8.20294737,49.8311875 8.73978947,49.9993125 9.31010526,49.9993125 C9.87410526,49.9993125 10.5006316,49.8311875 10.8524211,49.4805625 C11.2042105,49.1430625 11.5585263,48.6768125 11.5585263,48.1143125 L11.5585263,34.0661875 L12.1901053,34.0661875 L12.1901053,48.1149375 C12.1901053,48.6774375 12.3802105,49.1449375 12.7313684,49.4805625 C13.1027368,49.8311875 13.5549474,49.9999375 14.1486316,49.9999375 C14.7101053,49.9999375 15.0871579,49.8330625 15.4673684,49.4805625 C15.8987368,49.1449375 15.9795789,48.6774375 15.9795789,48.1149375 L15.9795789,34.0661875 L21.4926316,34.0661875 L15.8602105,14.6911875 L16.8341053,14.6911875 C17.4524211,17.1911875 17.9583158,18.6374375 18.3896842,19.9811875 C18.8204211,21.3243125 19.2044211,22.6605625 19.5814737,23.8861875 C19.9004211,25.0961875 20.1423158,25.8949375 20.2016842,26.1561875 C20.4164211,26.9555625 20.9576842,27.3599375 21.8172632,27.3599375 L22.2151579,27.2599375 C22.9957895,27.0380625 23.4031579,26.5380625 23.4031579,25.6749375 L23.2976842,25.2543125 C23.2225263,25.1161875 23.0835789,24.6449375 22.8682105,23.8411875 C22.6566316,23.0449375 22.3547368,22.0543125 22.0111579,20.9011875 Z" id="Fill-4" fill="#FFFFFF"></path>
            </g>
        </g>
    </g>
</svg>