<?xml version="1.0" encoding="UTF-8"?>
<svg width="66px" height="49px" viewBox="0 0 66 49" version="1.1" xmlns="http://www.w3.org/2000/svg" xmlns:xlink="http://www.w3.org/1999/xlink">
    <!-- Generator: Sketch 48.1 (47250) - http://www.bohemiancoding.com/sketch -->
    <title>icWhoGroup</title>
    <desc>Created with Sketch.</desc>
    <defs>
        <polygon id="path-1" points="0.588377778 0 8.62326667 0 8.62326667 7.9979878 0.588377778 7.9979878 0.588377778 8.66515531e-15"></polygon>
        <polygon id="path-3" points="0.588377778 0 8.62326667 0 8.62326667 7.9979878 0.588377778 7.9979878 0.588377778 8.66515531e-15"></polygon>
        <polygon id="path-5" points="0.579786008 0.000602228245 8.49073251 0.000602228245 8.49073251 7.89924721 0.579786008 7.89924721 0.579786008 0.000602228245"></polygon>
        <polygon id="path-7" points="0 39.7469437 0 0.305209274 18.7104417 0.305209274 18.7104417 39.7469437 6.70085278e-16 39.7469437"></polygon>
        <polygon id="path-9" points="0.579786008 0.000602228245 8.49073251 0.000602228245 8.49073251 7.89924721 0.579786008 7.89924721 0.579786008 0.000602228245"></polygon>
        <polygon id="path-11" points="0 39.7469437 0 0.305209274 18.7104417 0.305209274 18.7104417 39.7469437 6.70085278e-16 39.7469437"></polygon>
        <polygon id="path-13" points="0.579786008 0.000602228245 8.49073251 0.000602228245 8.49073251 7.89924721 0.579786008 7.89924721 0.579786008 0.000602228245"></polygon>
        <polygon id="path-15" points="0 39.7469437 0 0.305209274 18.7104417 0.305209274 18.7104417 39.7469437 6.70085278e-16 39.7469437"></polygon>
        <polygon id="path-17" points="0.579786008 0.000602228245 8.49073251 0.000602228245 8.49073251 7.89924721 0.579786008 7.89924721 0.579786008 0.000602228245"></polygon>
        <polygon id="path-19" points="0 39.7469437 0 0.305209274 18.7104417 0.305209274 18.7104417 39.7469437 6.70085278e-16 39.7469437"></polygon>
    </defs>
    <g id="Layout--1" stroke="none" stroke-width="1" fill="none" fill-rule="evenodd" transform="translate(-832.000000, -561.000000)">
        <g id="Group" transform="translate(832.000000, 561.000000)">
            <g id="Group-5">
                <g id="Page-1" transform="translate(14.666667, 0.000000)">
                    <g id="Group-3" transform="translate(6.722222, 0.000000)">
                        <mask id="mask-2" fill="white">
                            <use xlink:href="#path-1"></use>
                        </mask>
                        <g id="Clip-2"></g>
                        <path d="M4.7036,7.9979878 C5.80298889,7.9979878 6.74471111,7.63762195 7.47621111,6.88640244 C8.2291,6.1175 8.62326667,5.1620122 8.62326667,4.00896341 C8.62326667,2.91262195 8.2291,1.97237805 7.47621111,1.19615854 C6.74898889,0.397987805 5.80298889,-0.000182926829 4.7036,-0.000182926829 C3.53271111,-0.000182926829 2.56226667,0.397987805 1.75498889,1.19615854 C0.972766667,1.96871951 0.588377778,2.91262195 0.588377778,4.00896341 C0.588377778,5.1620122 0.972766667,6.11628049 1.75865556,6.88640244 C2.56654444,7.63762195 3.53637778,7.9979878 4.7036,7.9979878" id="Fill-1" fill="#FFFFFF" mask="url(#mask-2)"></path>
                    </g>
                    <path d="M22.1271111,23.2596951 C21.9223889,22.4828659 21.6302778,21.5164024 21.2978333,20.3914024 C20.9831111,19.2493293 20.5926111,18.0133537 20.2204444,16.6859146 C19.8574444,15.352378 19.4901667,14.0694512 19.1302222,12.8322561 C18.7941111,11.8834756 18.1921667,10.8731098 17.3543333,10.1225 C16.4926667,9.34932927 15.5283333,8.84506098 14.5352778,8.84506098 L8.11494444,8.84506098 C7.15427778,8.84506098 6.23455556,9.34932927 5.34966667,10.1225 C4.46172222,10.8694512 3.88727778,11.8090854 3.62572222,12.7566463 C3.18266667,13.9938415 2.8215,15.3145732 2.42672222,16.6481098 C2.04172222,17.9755488 1.67322222,19.2304268 1.33344444,20.3725 C0.991833333,21.4962805 0.708277778,22.4731098 0.497444444,23.249939 C0.314111111,24.0346951 0.157666667,24.5011585 0.103277778,24.6353049 C0.0268888889,24.792622 0,24.9517683 0,25.1420122 C0,25.8377439 0.369111111,26.327378 1.12566667,26.6072561 L1.53877778,26.7072561 C2.35033333,26.7072561 2.86855556,26.3298171 3.10566667,25.5487195 C3.13194444,25.2938415 3.3935,24.5456707 3.78277778,23.3645732 C4.12438889,22.1688415 4.51977778,20.8017683 4.87483333,19.4920122 C5.26961111,18.1767683 5.77377778,16.7718902 6.37205556,14.3328659 L7.31072222,14.3328659 L1.85288889,33.2353049 L6.90616667,33.2353049 L6.90616667,46.9407927 C6.90616667,47.4895732 7.18177778,47.9444512 7.57288889,48.2737195 C7.93711111,48.6157927 8.45655556,48.7798171 9.00838889,48.7798171 C9.55411111,48.7798171 10.1603333,48.6157927 10.5007222,48.2737195 C10.8411111,47.9444512 11.1839444,47.4895732 11.1839444,46.9407927 L11.1839444,33.2353049 L11.7950556,33.2353049 L11.7950556,46.9414024 C11.7950556,47.4901829 11.979,47.9462805 12.3187778,48.2737195 C12.6781111,48.6157927 13.1156667,48.7804268 13.6901111,48.7804268 C14.2333889,48.7804268 14.5982222,48.617622 14.9661111,48.2737195 C15.3835,47.9462805 15.4617222,47.4901829 15.4617222,46.9414024 L15.4617222,33.2353049 L20.7961111,33.2353049 L15.3462222,14.3328659 L16.2885556,14.3328659 C16.8868333,16.7718902 17.3763333,18.1828659 17.7937222,19.4938415 C18.2105,20.8042073 18.5820556,22.1078659 18.9468889,23.3035976 C19.2555,24.4840854 19.4895556,25.2633537 19.547,25.5182317 C19.7547778,26.2981098 20.2785,26.692622 21.1102222,26.692622 L21.4952222,26.595061 C22.2505556,26.3785976 22.6447222,25.8907927 22.6447222,25.0487195 L22.5426667,24.6383537 C22.4699444,24.5035976 22.3355,24.0438415 22.1271111,23.2596951" id="Fill-4" fill="#FFFFFF"></path>
                </g>
                <g id="Page-1" transform="translate(26.888889, 0.000000)">
                    <g id="Group-3" transform="translate(6.722222, 0.000000)">
                        <mask id="mask-4" fill="white">
                            <use xlink:href="#path-3"></use>
                        </mask>
                        <g id="Clip-2"></g>
                        <path d="M4.7036,7.9979878 C5.80298889,7.9979878 6.74471111,7.63762195 7.47621111,6.88640244 C8.2291,6.1175 8.62326667,5.1620122 8.62326667,4.00896341 C8.62326667,2.91262195 8.2291,1.97237805 7.47621111,1.19615854 C6.74898889,0.397987805 5.80298889,-0.000182926829 4.7036,-0.000182926829 C3.53271111,-0.000182926829 2.56226667,0.397987805 1.75498889,1.19615854 C0.972766667,1.96871951 0.588377778,2.91262195 0.588377778,4.00896341 C0.588377778,5.1620122 0.972766667,6.11628049 1.75865556,6.88640244 C2.56654444,7.63762195 3.53637778,7.9979878 4.7036,7.9979878" id="Fill-1" fill="#FFFFFF" mask="url(#mask-4)"></path>
                    </g>
                    <path d="M22.1271111,23.2596951 C21.9223889,22.4828659 21.6302778,21.5164024 21.2978333,20.3914024 C20.9831111,19.2493293 20.5926111,18.0133537 20.2204444,16.6859146 C19.8574444,15.352378 19.4901667,14.0694512 19.1302222,12.8322561 C18.7941111,11.8834756 18.1921667,10.8731098 17.3543333,10.1225 C16.4926667,9.34932927 15.5283333,8.84506098 14.5352778,8.84506098 L8.11494444,8.84506098 C7.15427778,8.84506098 6.23455556,9.34932927 5.34966667,10.1225 C4.46172222,10.8694512 3.88727778,11.8090854 3.62572222,12.7566463 C3.18266667,13.9938415 2.8215,15.3145732 2.42672222,16.6481098 C2.04172222,17.9755488 1.67322222,19.2304268 1.33344444,20.3725 C0.991833333,21.4962805 0.708277778,22.4731098 0.497444444,23.249939 C0.314111111,24.0346951 0.157666667,24.5011585 0.103277778,24.6353049 C0.0268888889,24.792622 0,24.9517683 0,25.1420122 C0,25.8377439 0.369111111,26.327378 1.12566667,26.6072561 L1.53877778,26.7072561 C2.35033333,26.7072561 2.86855556,26.3298171 3.10566667,25.5487195 C3.13194444,25.2938415 3.3935,24.5456707 3.78277778,23.3645732 C4.12438889,22.1688415 4.51977778,20.8017683 4.87483333,19.4920122 C5.26961111,18.1767683 5.77377778,16.7718902 6.37205556,14.3328659 L7.31072222,14.3328659 L1.85288889,33.2353049 L6.90616667,33.2353049 L6.90616667,46.9407927 C6.90616667,47.4895732 7.18177778,47.9444512 7.57288889,48.2737195 C7.93711111,48.6157927 8.45655556,48.7798171 9.00838889,48.7798171 C9.55411111,48.7798171 10.1603333,48.6157927 10.5007222,48.2737195 C10.8411111,47.9444512 11.1839444,47.4895732 11.1839444,46.9407927 L11.1839444,33.2353049 L11.7950556,33.2353049 L11.7950556,46.9414024 C11.7950556,47.4901829 11.979,47.9462805 12.3187778,48.2737195 C12.6781111,48.6157927 13.1156667,48.7804268 13.6901111,48.7804268 C14.2333889,48.7804268 14.5982222,48.617622 14.9661111,48.2737195 C15.3835,47.9462805 15.4617222,47.4901829 15.4617222,46.9414024 L15.4617222,33.2353049 L20.7961111,33.2353049 L15.3462222,14.3328659 L16.2885556,14.3328659 C16.8868333,16.7718902 17.3763333,18.1828659 17.7937222,19.4938415 C18.2105,20.8042073 18.5820556,22.1078659 18.9468889,23.3035976 C19.2555,24.4840854 19.4895556,25.2633537 19.547,25.5182317 C19.7547778,26.2981098 20.2785,26.692622 21.1102222,26.692622 L21.4952222,26.595061 C22.2505556,26.3785976 22.6447222,25.8907927 22.6447222,25.0487195 L22.5426667,24.6383537 C22.4699444,24.5035976 22.3355,24.0438415 22.1271111,23.2596951" id="Fill-4" fill="#FFFFFF"></path>
                </g>
                <g id="Page-1">
                    <g id="Group-3" transform="translate(4.828532, 0.601927)">
                        <mask id="mask-6" fill="white">
                            <use xlink:href="#path-5"></use>
                        </mask>
                        <g id="Clip-2"></g>
                        <path d="M4.52348971,7.89924721 C5.60628807,7.89924721 6.56173388,7.54333032 7.33067764,6.80138512 C8.0996214,6.03836194 8.49073251,5.09527251 8.49073251,3.95947004 C8.49073251,2.87666366 8.09539643,1.9480277 7.32765981,1.18139115 C6.55630178,0.393074375 5.60327023,0.000421559771 4.52348971,0.000421559771 C3.38637037,0.000421559771 2.42971742,0.393074375 1.70966255,1.18139115 C0.941925926,1.9480277 0.579786008,2.87666366 0.579786008,3.95947004 C0.579786008,5.09828365 0.941925926,6.04077085 1.70966255,6.80138512 C2.43394239,7.54333032 3.39059534,7.89924721 4.52348971,7.89924721" id="Fill-1" fill="#010002" mask="url(#mask-6)"></path>
                    </g>
                    <g id="Group-6" transform="translate(0.000000, 9.033123)">
                        <mask id="mask-8" fill="white">
                            <use xlink:href="#path-7"></use>
                        </mask>
                        <g id="Clip-5"></g>
                        <path d="M13.7358464,0.305209274 L4.82841152,0.305209274 L4.82841152,0.486479976 C3.62127846,0.486479976 2.39000274,0.998976212 1.38566804,1.98783499 C0.378315501,3.02246311 -0.000120713306,4.22451069 -0.000120713306,5.56446853 L-0.000120713306,17.9468835 C-0.000120713306,18.4105992 0.0650644719,18.8303523 0.424186557,19.1694068 C0.756751715,19.5042457 1.1231166,19.6560072 1.59208779,19.6560072 C2.1310727,19.6560072 2.39543484,19.5042457 2.72739643,19.1694068 C3.01590123,18.8303523 3.01771193,18.4105992 3.01771193,17.9468835 L3.01771193,6.92971996 L4.22484499,6.92971996 L4.22484499,37.5283348 C4.22484499,38.1185185 4.45540741,38.6635351 4.946107,39.0832882 C5.40783539,39.5476061 5.93233471,39.7469437 6.5528011,39.7469437 C7.22457064,39.7469437 7.8510727,39.5494128 8.29046914,39.0832882 C8.75581893,38.6635351 9.05337723,38.1191207 9.05337723,37.5283348 L9.05337723,19.5765131 L9.65694376,19.5765131 L9.65694376,37.5283348 C9.65694376,38.1185185 9.99554458,38.6635351 10.4325267,39.0832882 C10.8719232,39.5476061 11.4929931,39.7469437 12.1883018,39.7469437 C12.7779863,39.7469437 13.3405103,39.5494128 13.8058601,39.0832882 C14.2416351,38.6635351 14.485476,38.1191207 14.485476,37.5283348 L14.485476,6.92971996 L15.0890425,6.92971996 L15.0890425,17.9468835 C15.0890425,18.4105992 15.3859973,18.8303523 15.6962305,19.1694068 C16.0656132,19.5042457 16.5683841,19.6560072 17.0337339,19.6560072 C17.5799616,19.6560072 17.9674513,19.5042457 18.2782881,19.1694068 C18.5583429,18.8303523 18.7104417,18.4105992 18.7104417,17.9468835 L18.7104417,5.56507076 C18.7104417,4.22932852 18.2855309,2.92911774 17.2775748,1.89990967 C16.2949684,0.906233062 15.1807846,0.305209274 13.7358464,0.305209274" id="Fill-4" fill="#010002" mask="url(#mask-8)"></path>
                    </g>
                    <g id="Group-9" transform="translate(4.828532, 0.601927)">
                        <mask id="mask-10" fill="white">
                            <use xlink:href="#path-9"></use>
                        </mask>
                        <g id="Clip-8"></g>
                        <path d="M4.52348971,7.89924721 C5.60628807,7.89924721 6.56173388,7.54333032 7.33067764,6.80138512 C8.0996214,6.03836194 8.49073251,5.09527251 8.49073251,3.95947004 C8.49073251,2.87666366 8.09539643,1.9480277 7.32765981,1.18139115 C6.55630178,0.393074375 5.60327023,0.000421559771 4.52348971,0.000421559771 C3.38637037,0.000421559771 2.42971742,0.393074375 1.70966255,1.18139115 C0.941925926,1.9480277 0.579786008,2.87666366 0.579786008,3.95947004 C0.579786008,5.09828365 0.941925926,6.04077085 1.70966255,6.80138512 C2.43394239,7.54333032 3.39059534,7.89924721 4.52348971,7.89924721" id="Fill-7" fill="#FFFFFF" mask="url(#mask-10)"></path>
                    </g>
                    <g id="Group-12" transform="translate(0.000000, 9.033123)">
                        <mask id="mask-12" fill="white">
                            <use xlink:href="#path-11"></use>
                        </mask>
                        <g id="Clip-11"></g>
                        <path d="M13.7358464,0.305209274 L4.82841152,0.305209274 L4.82841152,0.486479976 C3.62127846,0.486479976 2.39000274,0.998976212 1.38566804,1.98783499 C0.378315501,3.02246311 -0.000120713306,4.22451069 -0.000120713306,5.56446853 L-0.000120713306,17.9468835 C-0.000120713306,18.4105992 0.0650644719,18.8303523 0.424186557,19.1694068 C0.756751715,19.5042457 1.1231166,19.6560072 1.59208779,19.6560072 C2.1310727,19.6560072 2.39543484,19.5042457 2.72739643,19.1694068 C3.01590123,18.8303523 3.01771193,18.4105992 3.01771193,17.9468835 L3.01771193,6.92971996 L4.22484499,6.92971996 L4.22484499,37.5283348 C4.22484499,38.1185185 4.45540741,38.6635351 4.946107,39.0832882 C5.40783539,39.5476061 5.93233471,39.7469437 6.5528011,39.7469437 C7.22457064,39.7469437 7.8510727,39.5494128 8.29046914,39.0832882 C8.75581893,38.6635351 9.05337723,38.1191207 9.05337723,37.5283348 L9.05337723,19.5765131 L9.65694376,19.5765131 L9.65694376,37.5283348 C9.65694376,38.1185185 9.99554458,38.6635351 10.4325267,39.0832882 C10.8719232,39.5476061 11.4929931,39.7469437 12.1883018,39.7469437 C12.7779863,39.7469437 13.3405103,39.5494128 13.8058601,39.0832882 C14.2416351,38.6635351 14.485476,38.1191207 14.485476,37.5283348 L14.485476,6.92971996 L15.0890425,6.92971996 L15.0890425,17.9468835 C15.0890425,18.4105992 15.3859973,18.8303523 15.6962305,19.1694068 C16.0656132,19.5042457 16.5683841,19.6560072 17.0337339,19.6560072 C17.5799616,19.6560072 17.9674513,19.5042457 18.2782881,19.1694068 C18.5583429,18.8303523 18.7104417,18.4105992 18.7104417,17.9468835 L18.7104417,5.56507076 C18.7104417,4.22932852 18.2855309,2.92911774 17.2775748,1.89990967 C16.2949684,0.906233062 15.1807846,0.305209274 13.7358464,0.305209274" id="Fill-10" fill="#FFFFFF" mask="url(#mask-12)"></path>
                    </g>
                </g>
                <g id="Page-1" transform="translate(46.444444, 0.000000)">
                    <g id="Group-3" transform="translate(4.828532, 0.601927)">
                        <mask id="mask-14" fill="white">
                            <use xlink:href="#path-13"></use>
                        </mask>
                        <g id="Clip-2"></g>
                        <path d="M4.52348971,7.89924721 C5.60628807,7.89924721 6.56173388,7.54333032 7.33067764,6.80138512 C8.0996214,6.03836194 8.49073251,5.09527251 8.49073251,3.95947004 C8.49073251,2.87666366 8.09539643,1.9480277 7.32765981,1.18139115 C6.55630178,0.393074375 5.60327023,0.000421559771 4.52348971,0.000421559771 C3.38637037,0.000421559771 2.42971742,0.393074375 1.70966255,1.18139115 C0.941925926,1.9480277 0.579786008,2.87666366 0.579786008,3.95947004 C0.579786008,5.09828365 0.941925926,6.04077085 1.70966255,6.80138512 C2.43394239,7.54333032 3.39059534,7.89924721 4.52348971,7.89924721" id="Fill-1" fill="#010002" mask="url(#mask-14)"></path>
                    </g>
                    <g id="Group-6" transform="translate(0.000000, 9.033123)">
                        <mask id="mask-16" fill="white">
                            <use xlink:href="#path-15"></use>
                        </mask>
                        <g id="Clip-5"></g>
                        <path d="M13.7358464,0.305209274 L4.82841152,0.305209274 L4.82841152,0.486479976 C3.62127846,0.486479976 2.39000274,0.998976212 1.38566804,1.98783499 C0.378315501,3.02246311 -0.000120713306,4.22451069 -0.000120713306,5.56446853 L-0.000120713306,17.9468835 C-0.000120713306,18.4105992 0.0650644719,18.8303523 0.424186557,19.1694068 C0.756751715,19.5042457 1.1231166,19.6560072 1.59208779,19.6560072 C2.1310727,19.6560072 2.39543484,19.5042457 2.72739643,19.1694068 C3.01590123,18.8303523 3.01771193,18.4105992 3.01771193,17.9468835 L3.01771193,6.92971996 L4.22484499,6.92971996 L4.22484499,37.5283348 C4.22484499,38.1185185 4.45540741,38.6635351 4.946107,39.0832882 C5.40783539,39.5476061 5.93233471,39.7469437 6.5528011,39.7469437 C7.22457064,39.7469437 7.8510727,39.5494128 8.29046914,39.0832882 C8.75581893,38.6635351 9.05337723,38.1191207 9.05337723,37.5283348 L9.05337723,19.5765131 L9.65694376,19.5765131 L9.65694376,37.5283348 C9.65694376,38.1185185 9.99554458,38.6635351 10.4325267,39.0832882 C10.8719232,39.5476061 11.4929931,39.7469437 12.1883018,39.7469437 C12.7779863,39.7469437 13.3405103,39.5494128 13.8058601,39.0832882 C14.2416351,38.6635351 14.485476,38.1191207 14.485476,37.5283348 L14.485476,6.92971996 L15.0890425,6.92971996 L15.0890425,17.9468835 C15.0890425,18.4105992 15.3859973,18.8303523 15.6962305,19.1694068 C16.0656132,19.5042457 16.5683841,19.6560072 17.0337339,19.6560072 C17.5799616,19.6560072 17.9674513,19.5042457 18.2782881,19.1694068 C18.5583429,18.8303523 18.7104417,18.4105992 18.7104417,17.9468835 L18.7104417,5.56507076 C18.7104417,4.22932852 18.2855309,2.92911774 17.2775748,1.89990967 C16.2949684,0.906233062 15.1807846,0.305209274 13.7358464,0.305209274" id="Fill-4" fill="#010002" mask="url(#mask-16)"></path>
                    </g>
                    <g id="Group-9" transform="translate(4.828532, 0.601927)">
                        <mask id="mask-18" fill="white">
                            <use xlink:href="#path-17"></use>
                        </mask>
                        <g id="Clip-8"></g>
                        <path d="M4.52348971,7.89924721 C5.60628807,7.89924721 6.56173388,7.54333032 7.33067764,6.80138512 C8.0996214,6.03836194 8.49073251,5.09527251 8.49073251,3.95947004 C8.49073251,2.87666366 8.09539643,1.9480277 7.32765981,1.18139115 C6.55630178,0.393074375 5.60327023,0.000421559771 4.52348971,0.000421559771 C3.38637037,0.000421559771 2.42971742,0.393074375 1.70966255,1.18139115 C0.941925926,1.9480277 0.579786008,2.87666366 0.579786008,3.95947004 C0.579786008,5.09828365 0.941925926,6.04077085 1.70966255,6.80138512 C2.43394239,7.54333032 3.39059534,7.89924721 4.52348971,7.89924721" id="Fill-7" fill="#FFFFFF" mask="url(#mask-18)"></path>
                    </g>
                    <g id="Group-12" transform="translate(0.000000, 9.033123)">
                        <mask id="mask-20" fill="white">
                            <use xlink:href="#path-19"></use>
                        </mask>
                        <g id="Clip-11"></g>
                        <path d="M13.7358464,0.305209274 L4.82841152,0.305209274 L4.82841152,0.486479976 C3.62127846,0.486479976 2.39000274,0.998976212 1.38566804,1.98783499 C0.378315501,3.02246311 -0.000120713306,4.22451069 -0.000120713306,5.56446853 L-0.000120713306,17.9468835 C-0.000120713306,18.4105992 0.0650644719,18.8303523 0.424186557,19.1694068 C0.756751715,19.5042457 1.1231166,19.6560072 1.59208779,19.6560072 C2.1310727,19.6560072 2.39543484,19.5042457 2.72739643,19.1694068 C3.01590123,18.8303523 3.01771193,18.4105992 3.01771193,17.9468835 L3.01771193,6.92971996 L4.22484499,6.92971996 L4.22484499,37.5283348 C4.22484499,38.1185185 4.45540741,38.6635351 4.946107,39.0832882 C5.40783539,39.5476061 5.93233471,39.7469437 6.5528011,39.7469437 C7.22457064,39.7469437 7.8510727,39.5494128 8.29046914,39.0832882 C8.75581893,38.6635351 9.05337723,38.1191207 9.05337723,37.5283348 L9.05337723,19.5765131 L9.65694376,19.5765131 L9.65694376,37.5283348 C9.65694376,38.1185185 9.99554458,38.6635351 10.4325267,39.0832882 C10.8719232,39.5476061 11.4929931,39.7469437 12.1883018,39.7469437 C12.7779863,39.7469437 13.3405103,39.5494128 13.8058601,39.0832882 C14.2416351,38.6635351 14.485476,38.1191207 14.485476,37.5283348 L14.485476,6.92971996 L15.0890425,6.92971996 L15.0890425,17.9468835 C15.0890425,18.4105992 15.3859973,18.8303523 15.6962305,19.1694068 C16.0656132,19.5042457 16.5683841,19.6560072 17.0337339,19.6560072 C17.5799616,19.6560072 17.9674513,19.5042457 18.2782881,19.1694068 C18.5583429,18.8303523 18.7104417,18.4105992 18.7104417,17.9468835 L18.7104417,5.56507076 C18.7104417,4.22932852 18.2855309,2.92911774 17.2775748,1.89990967 C16.2949684,0.906233062 15.1807846,0.305209274 13.7358464,0.305209274" id="Fill-10" fill="#FFFFFF" mask="url(#mask-20)"></path>
                    </g>
                </g>
            </g>
        </g>
    </g>
</svg>