<?xml version="1.0" encoding="UTF-8"?>
<svg width="76px" height="50px" viewBox="0 0 76 50" version="1.1" xmlns="http://www.w3.org/2000/svg" xmlns:xlink="http://www.w3.org/1999/xlink">
    <!-- Generator: Sketch 48.1 (47250) - http://www.bohemiancoding.com/sketch -->
    <title>icWhoTransMan@1.5x</title>
    <desc>Created with Sketch.</desc>
    <defs></defs>
    <g id="Layout--1" stroke="none" stroke-width="1" fill="none" fill-rule="evenodd" transform="translate(-826.000000, -671.000000)">
        <g id="icWhoTransMan" transform="translate(826.000000, 671.000000)">
            <path d="M11.6855,8.1979375 C12.809875,8.1979375 13.773,7.8285625 14.521125,7.0585625 C15.291125,6.2704375 15.69425,5.2910625 15.69425,4.1091875 C15.69425,2.9854375 15.291125,2.0216875 14.521125,1.2260625 C13.777375,0.4079375 12.809875,-0.0001875 11.6855,-0.0001875 C10.488,-0.0001875 9.4955,0.4079375 8.669875,1.2260625 C7.869875,2.0179375 7.47675,2.9854375 7.47675,4.1091875 C7.47675,5.2910625 7.869875,6.2691875 8.673625,7.0585625 C9.499875,7.8285625 10.49175,8.1979375 11.6855,8.1979375" id="Fill-1" fill="#FFFFFF"></path>
            <path d="M22.63,23.8411875 C22.420625,23.0449375 22.121875,22.0543125 21.781875,20.9011875 C21.46,19.7305625 21.060625,18.4636875 20.68,17.1030625 C20.30875,15.7361875 19.933125,14.4211875 19.565,13.1530625 C19.22125,12.1805625 18.605625,11.1449375 17.74875,10.3755625 C16.8675,9.5830625 15.88125,9.0661875 14.865625,9.0661875 L8.299375,9.0661875 C7.316875,9.0661875 6.37625,9.5830625 5.47125,10.3755625 C4.563125,11.1411875 3.975625,12.1043125 3.708125,13.0755625 C3.255,14.3436875 2.885625,15.6974375 2.481875,17.0643125 C2.088125,18.4249375 1.71125,19.7111875 1.36375,20.8818125 C1.014375,22.0336875 0.724375,23.0349375 0.50875,23.8311875 C0.32125,24.6355625 0.16125,25.1136875 0.105625,25.2511875 C0.0275,25.4124375 0,25.5755625 0,25.7705625 C0,26.4836875 0.3775,26.9855625 1.15125,27.2724375 L1.57375,27.3749375 C2.40375,27.3749375 2.93375,26.9880625 3.17625,26.1874375 C3.203125,25.9261875 3.470625,25.1593125 3.86875,23.9486875 C4.218125,22.7230625 4.6225,21.3218125 4.985625,19.9793125 C5.389375,18.6311875 5.905,17.1911875 6.516875,14.6911875 L7.476875,14.6911875 L1.895,34.0661875 L7.063125,34.0661875 L7.063125,48.1143125 C7.063125,48.6768125 7.345,49.1430625 7.745,49.4805625 C8.1175,49.8311875 8.64875,49.9993125 9.213125,49.9993125 C9.77125,49.9993125 10.39125,49.8311875 10.739375,49.4805625 C11.0875,49.1430625 11.438125,48.6768125 11.438125,48.1143125 L11.438125,34.0661875 L12.063125,34.0661875 L12.063125,48.1149375 C12.063125,48.6774375 12.25125,49.1449375 12.59875,49.4805625 C12.96625,49.8311875 13.41375,49.9999375 14.00125,49.9999375 C14.556875,49.9999375 14.93,49.8330625 15.30625,49.4805625 C15.733125,49.1449375 15.813125,48.6774375 15.813125,48.1149375 L15.813125,34.0661875 L21.26875,34.0661875 L15.695,14.6911875 L16.65875,14.6911875 C17.270625,17.1911875 17.77125,18.6374375 18.198125,19.9811875 C18.624375,21.3243125 19.004375,22.6605625 19.3775,23.8861875 C19.693125,25.0961875 19.9325,25.8949375 19.99125,26.1561875 C20.20375,26.9555625 20.739375,27.3599375 21.59,27.3599375 L21.98375,27.2599375 C22.75625,27.0380625 23.159375,26.5380625 23.159375,25.6749375 L23.055,25.2543125 C22.980625,25.1161875 22.843125,24.6449375 22.63,23.8411875" id="Fill-4" fill="#FFFFFF"></path>
            <path d="M69.490625,7.058125 C70.286875,6.26625 70.691875,5.2875 70.691875,4.10875 C70.691875,2.985 70.2825,2.02125 69.4875,1.225625 C68.68875,0.4075 67.701875,0 66.58375,0 C65.40625,0 64.415625,0.4075 63.67,1.225625 C62.875,2.02125 62.5,2.985 62.5,4.10875 C62.5,5.290625 62.875,6.269375 63.67,7.058125 C64.42,7.828125 65.410625,8.1975 66.58375,8.1975 C67.705,8.1975 68.694375,7.828125 69.490625,7.058125 Z" id="Fill-10" fill="#FFFFFF"></path>
            <path d="M61.25,8.75 L61.25,8.938125 C60,8.938125 58.725,9.47 57.685,10.49625 C56.641875,11.57 56.25,12.8175 56.25,14.208125 L56.25,27.05875 C56.25,27.54 56.3175,27.975625 56.689375,28.3275 C57.03375,28.675 57.413125,28.8325 57.89875,28.8325 C58.456875,28.8325 58.730625,28.675 59.07375,28.3275 C59.373125,27.975625 59.375,27.54 59.375,27.05875 L59.375,15.625 L60.625,15.625 L60.625,47.380625 C60.625,47.993125 60.86375,48.55875 61.371875,48.994375 C61.85,49.47625 62.393125,49.683125 63.035625,49.683125 C63.73125,49.683125 64.38,49.478125 64.835,48.994375 C65.316875,48.55875 65.625,47.99375 65.625,47.380625 L65.625,28.75 L66.25,28.75 L66.25,47.380625 C66.25,47.993125 66.600625,48.55875 67.053125,48.994375 C67.508125,49.47625 68.15125,49.683125 68.87125,49.683125 C69.481875,49.683125 70.064375,49.478125 70.54625,48.994375 C70.9975,48.55875 71.25,47.99375 71.25,47.380625 L71.25,15.625 L71.875,15.625 L71.875,27.05875 C71.875,27.54 72.1825,27.975625 72.50375,28.3275 C72.88625,28.675 73.406875,28.8325 73.88875,28.8325 C74.454375,28.8325 74.855625,28.675 75.1775,28.3275 C75.4675,27.975625 75.625,27.54 75.625,27.05875 L75.625,14.20875 C75.625,12.8225 75.185,11.473125 74.14125,10.404375 C73.12375,9.37375 71.97,8.75 70.47375,8.75 L61.25,8.75 Z" id="Fill-12" fill="#FFFFFF"></path>
            <polyline id="Path-3" stroke="#FFFFFF" stroke-width="2" points="42.5 25 48.75 30.0083487 42.8181596 34.7617447"></polyline>
            <path d="M48.1173715,30 L30.1245117,30" id="Path-4" stroke="#FFFFFF" stroke-width="2"></path>
        </g>
    </g>
</svg>