<?xml version="1.0" encoding="UTF-8"?>
<svg width="61px" height="40px" viewBox="0 0 61 40" version="1.1" xmlns="http://www.w3.org/2000/svg" xmlns:xlink="http://www.w3.org/1999/xlink">
    <!-- Generator: Sketch 48.1 (47250) - http://www.bohemiancoding.com/sketch -->
    <title>icWhoTransMan</title>
    <desc>Created with Sketch.</desc>
    <defs>
        <polygon id="path-1" points="0.4814 0 7.0554 0 7.0554 6.55835 0.4814 6.55835 0.4814 7.10542736e-15"></polygon>
    </defs>
    <g id="Looking-for" stroke="none" stroke-width="1" fill="none" fill-rule="evenodd" transform="translate(-266.000000, -465.000000)">
        <g id="icWhoTransMan" transform="translate(266.000000, 465.000000)">
            <g id="Page-1">
                <g id="Group-3" transform="translate(5.500000, 0.000000)">
                    <mask id="mask-2" fill="white">
                        <use xlink:href="#path-1"></use>
                    </mask>
                    <g id="Clip-2"></g>
                    <path d="M3.8484,6.55835 C4.7479,6.55835 5.5184,6.26285 6.1169,5.64685 C6.7329,5.01635 7.0554,4.23285 7.0554,3.28735 C7.0554,2.38835 6.7329,1.61735 6.1169,0.98085 C5.5219,0.32635 4.7479,-0.00015 3.8484,-0.00015 C2.8904,-0.00015 2.0964,0.32635 1.4359,0.98085 C0.7959,1.61435 0.4814,2.38835 0.4814,3.28735 C0.4814,4.23285 0.7959,5.01535 1.4389,5.64685 C2.0999,6.26285 2.8934,6.55835 3.8484,6.55835" id="Fill-1" fill="#FFFFFF" mask="url(#mask-2)"></path>
                </g>
                <path d="M18.104,19.07295 C17.9365,18.43595 17.6975,17.64345 17.4255,16.72095 C17.168,15.78445 16.8485,14.77095 16.544,13.68245 C16.247,12.58895 15.9465,11.53695 15.652,10.52245 C15.377,9.74445 14.8845,8.91595 14.199,8.30045 C13.494,7.66645 12.705,7.25295 11.8925,7.25295 L6.6395,7.25295 C5.8535,7.25295 5.101,7.66645 4.377,8.30045 C3.6505,8.91295 3.1805,9.68345 2.9665,10.46045 C2.604,11.47495 2.3085,12.55795 1.9855,13.65145 C1.6705,14.73995 1.369,15.76895 1.091,16.70545 C0.8115,17.62695 0.5795,18.42795 0.407,19.06495 C0.257,19.70845 0.129,20.09095 0.0845,20.20095 C0.022,20.32995 0,20.46045 0,20.61645 C0,21.18695 0.302,21.58845 0.921,21.81795 L1.259,21.89995 C1.923,21.89995 2.347,21.59045 2.541,20.94995 C2.5625,20.74095 2.7765,20.12745 3.095,19.15895 C3.3745,18.17845 3.698,17.05745 3.9885,15.98345 C4.3115,14.90495 4.724,13.75295 5.2135,11.75295 L5.9815,11.75295 L1.516,27.25295 L5.6505,27.25295 L5.6505,38.49145 C5.6505,38.94145 5.876,39.31445 6.196,39.58445 C6.494,39.86495 6.919,39.99945 7.3705,39.99945 C7.817,39.99945 8.313,39.86495 8.5915,39.58445 C8.87,39.31445 9.1505,38.94145 9.1505,38.49145 L9.1505,27.25295 L9.6505,27.25295 L9.6505,38.49195 C9.6505,38.94195 9.801,39.31595 10.079,39.58445 C10.373,39.86495 10.731,39.99995 11.201,39.99995 C11.6455,39.99995 11.944,39.86645 12.245,39.58445 C12.5865,39.31595 12.6505,38.94195 12.6505,38.49195 L12.6505,27.25295 L17.015,27.25295 L12.556,11.75295 L13.327,11.75295 C13.8165,13.75295 14.217,14.90995 14.5585,15.98495 C14.8995,17.05945 15.2035,18.12845 15.502,19.10895 C15.7545,20.07695 15.946,20.71595 15.993,20.92495 C16.163,21.56445 16.5915,21.88795 17.272,21.88795 L17.587,21.80795 C18.205,21.63045 18.5275,21.23045 18.5275,20.53995 L18.444,20.20345 C18.3845,20.09295 18.2745,19.71595 18.104,19.07295" id="Fill-4" fill="#FFFFFF"></path>
            </g>
            <path d="M55.5925,5.6465 C56.2295,5.013 56.5535,4.23 56.5535,3.287 C56.5535,2.388 56.226,1.617 55.59,0.9805 C54.951,0.326 54.1615,0 53.267,0 C52.325,0 51.5325,0.326 50.936,0.9805 C50.3,1.617 50,2.388 50,3.287 C50,4.2325 50.3,5.0155 50.936,5.6465 C51.536,6.2625 52.3285,6.558 53.267,6.558 C54.164,6.558 54.9555,6.2625 55.5925,5.6465 Z" id="Fill-10" fill="#FFFFFF"></path>
            <path d="M49,7 L49,7.1505 C48,7.1505 46.98,7.576 46.148,8.397 C45.3135,9.256 45,10.254 45,11.3665 L45,21.647 C45,22.032 45.054,22.3805 45.3515,22.662 C45.627,22.94 45.9305,23.066 46.319,23.066 C46.7655,23.066 46.9845,22.94 47.259,22.662 C47.4985,22.3805 47.5,22.032 47.5,21.647 L47.5,12.5 L48.5,12.5 L48.5,37.9045 C48.5,38.3945 48.691,38.847 49.0975,39.1955 C49.48,39.581 49.9145,39.7465 50.4285,39.7465 C50.985,39.7465 51.504,39.5825 51.868,39.1955 C52.2535,38.847 52.5,38.395 52.5,37.9045 L52.5,23 L53,23 L53,37.9045 C53,38.3945 53.2805,38.847 53.6425,39.1955 C54.0065,39.581 54.521,39.7465 55.097,39.7465 C55.5855,39.7465 56.0515,39.5825 56.437,39.1955 C56.798,38.847 57,38.395 57,37.9045 L57,12.5 L57.5,12.5 L57.5,21.647 C57.5,22.032 57.746,22.3805 58.003,22.662 C58.309,22.94 58.7255,23.066 59.111,23.066 C59.5635,23.066 59.8845,22.94 60.142,22.662 C60.374,22.3805 60.5,22.032 60.5,21.647 L60.5,11.367 C60.5,10.258 60.148,9.1785 59.313,8.3235 C58.499,7.499 57.576,7 56.379,7 L49,7 Z" id="Fill-12" fill="#FFFFFF"></path>
            <g id="Group-4" transform="translate(24.000000, 20.000000)" stroke="#FFFFFF" stroke-width="2">
                <polyline id="Path-3" points="10 0 15 4.00667898 10.2545277 7.8093958"></polyline>
                <path d="M14.4938972,4 L0.099609375,4" id="Path-4"></path>
            </g>
        </g>
    </g>
</svg>