<?xml version="1.0" encoding="UTF-8"?>
<svg width="22px" height="50px" viewBox="0 0 22 50" version="1.1" xmlns="http://www.w3.org/2000/svg" xmlns:xlink="http://www.w3.org/1999/xlink">
    <!-- Generator: Sketch 48.1 (47250) - http://www.bohemiancoding.com/sketch -->
    <title>icWhoTVCD</title>
    <desc>Created with Sketch.</desc>
    <defs>
        <polygon id="path-1" points="0 41.249625 0 0.3165 14.5262889 0.3165 14.5262889 41.249625 2.75229615e-16 41.249625"></polygon>
    </defs>
    <g id="Layout--1" stroke="none" stroke-width="1" fill="none" fill-rule="evenodd" transform="translate(-564.000000, -671.000000)">
        <g id="TVCD" transform="translate(564.000000, 671.000000)">
            <g id="Page-1">
                <path d="M9.89932778,8.197625 C11.0454944,8.197625 12.0568556,7.82825 12.8708,7.05825 C13.6847444,6.266375 14.0987444,5.287625 14.0987444,4.108875 C14.0987444,2.985125 13.6802722,2.021375 12.8676056,1.22575 C12.0511056,0.407625 11.0423,0.000125 9.89932778,0.000125 C8.69566111,0.000125 7.68302222,0.407625 6.92082778,1.22575 C6.10816111,2.021375 5.72482778,2.985125 5.72482778,4.108875 C5.72482778,5.29075 6.10816111,6.2695 6.92082778,7.05825 C7.68749444,7.82825 8.70013333,8.197625 9.89932778,8.197625" id="Fill-1" fill="#010002"></path>
                <path d="M21.6232583,25.2541875 C21.5472306,25.1160625 21.406675,24.6448125 21.1888139,23.8410625 C20.9747861,23.0448125 20.6693972,22.0541875 20.3218417,20.9010625 C19.9934528,19.7304375 19.5852028,18.4635625 19.1961194,17.1029375 C18.8166194,15.7360625 18.4320083,14.4210625 18.0563417,13.1529375 C17.7049528,12.1804375 17.0750083,11.1448125 16.1997306,10.3754375 C15.2988972,9.5829375 14.2900917,9.0660625 13.2518972,9.0660625 L9.61661944,9.0660625 C9.49523056,17.3960625 9.77059167,25.7341875 9.96353611,34.0660625 L10.3871194,34.0660625 L10.3871194,48.1148125 C10.3871194,48.6773125 10.579425,49.1448125 10.9352861,49.4804375 C11.3103139,49.8310625 11.7677583,49.9998125 12.3683139,49.9998125 C12.9362861,49.9998125 13.3177028,49.8323125 13.7029528,49.4804375 C14.1393139,49.1448125 14.2204528,48.6773125 14.2204528,48.1148125 L14.2204528,34.0660625 L19.7979528,34.0660625 L14.0997028,14.6910625 L15.0855083,14.6910625 C15.7103417,17.1910625 16.2220917,18.6373125 16.6584528,19.9810625 C17.094175,21.3241875 17.4832583,22.6598125 17.864675,23.8860625 C18.186675,25.0960625 18.4313694,25.8948125 18.491425,26.1560625 C18.7086472,26.9554375 19.256175,27.3598125 20.1257028,27.3598125 L20.5288417,27.2598125 C21.3185083,27.0379375 21.7299528,26.5373125 21.7299528,25.6748125 L21.6232583,25.2541875 Z" id="Fill-3" fill="#FFFFFF"></path>
                <path d="M9.89932778,8.197625 C11.0454944,8.197625 12.0568556,7.82825 12.8708,7.05825 C13.6847444,6.266375 14.0987444,5.287625 14.0987444,4.108875 C14.0987444,2.985125 13.6802722,2.021375 12.8676056,1.22575 C12.0511056,0.407625 11.0423,0.000125 9.89932778,0.000125 C8.69566111,0.000125 7.68302222,0.407625 6.92082778,1.22575 C6.10816111,2.021375 5.72482778,2.985125 5.72482778,4.108875 C5.72482778,5.29075 6.10816111,6.2695 6.92082778,7.05825 C7.68749444,7.82825 8.70013333,8.197625 9.89932778,8.197625" id="Fill-8" fill="#FFFFFF"></path>
                <g id="Group-12" transform="translate(0.000000, 8.749875)">
                    <mask id="mask-2" fill="white">
                        <use xlink:href="#path-1"></use>
                    </mask>
                    <g id="Clip-11"></g>
                    <path d="M13.6657056,7.214 C13.5839278,7.038375 13.5123722,6.86025 13.4267611,6.68525 C12.7974556,5.402125 13.0894278,4.177125 13.8037056,3.290875 C13.8152056,2.924625 13.8318167,2.558375 13.8426778,2.1915 C13.8650389,1.438375 14.1257056,0.808375 14.5262889,0.3165 L5.11098333,0.3165 C3.83320556,0.504625 2.52987222,1.0365 1.46676111,2.06275 C0.400455556,3.1365 -0.000127777778,4.384 -0.000127777778,5.774625 L-0.000127777778,18.62525 C-0.000127777778,19.1065 0.0688722222,19.542125 0.449011111,19.894 C0.801038889,20.2415 1.18884444,20.399 1.68526111,20.399 C2.25578889,20.399 2.53562222,20.2415 2.88637222,19.894 C3.1924,19.542125 3.19431667,19.1065 3.19431667,18.62525 L3.19431667,7.1915 L4.47209444,7.1915 L4.47209444,38.947125 C4.47209444,39.559625 4.71615,40.12525 5.23556667,40.560875 C5.72431667,41.04275 6.27951111,41.249625 6.93628889,41.249625 C7.64737222,41.249625 8.31053889,41.044625 8.77565,40.560875 C9.26823333,40.12525 9.58320556,39.56025 9.58320556,38.947125 L9.58320556,20.3165 L10.2220944,20.3165 L10.2220944,38.947125 C10.2220944,39.559625 10.5805111,40.12525 11.0430667,40.560875 C11.3312056,40.859625 11.6992056,41.0415 12.1080944,41.14525 C12.7150389,29.839 13.2734278,18.529625 13.6657056,7.214 L71.2985026,96.6920195" id="Fill-10" fill="#FFFFFF" mask="url(#mask-2)"></path>
                </g>
            </g>
        </g>
    </g>
</svg>