<?xml version="1.0" encoding="UTF-8"?>
<svg width="36px" height="40px" viewBox="0 0 36 40" version="1.1" xmlns="http://www.w3.org/2000/svg" xmlns:xlink="http://www.w3.org/1999/xlink">
    <!-- Generator: Sketch 47 (45396) - http://www.bohemiancoding.com/sketch -->
    <title>icWhoCouple</title>
    <desc>Created with Sketch.</desc>
    <defs>
        <polygon id="path-1" points="0.4814 0 7.0554 0 7.0554 6.55835 0.4814 6.55835 0.4814 7.10542736e-15"></polygon>
    </defs>
    <g id="Page-1" stroke="none" stroke-width="1" fill="none" fill-rule="evenodd">
        <g id="Looking-for---stage-1" transform="translate(-280.000000, -286.000000)">
            <g id="Group-20" transform="translate(248.000000, 276.000000)">
                <g id="Group-28">
                    <g id="Group-13" transform="translate(25.000000, 10.000000)">
                        <g id="Couple" transform="translate(7.000000, 0.000000)">
                            <g id="Page-1">
                                <g id="Group-3" transform="translate(5.500000, 0.000000)">
                                    <mask id="mask-2" fill="white">
                                        <use xlink:href="#path-1"></use>
                                    </mask>
                                    <g id="Clip-2"></g>
                                    <path d="M3.8484,6.55835 C4.7479,6.55835 5.5184,6.26285 6.1169,5.64685 C6.7329,5.01635 7.0554,4.23285 7.0554,3.28735 C7.0554,2.38835 6.7329,1.61735 6.1169,0.98085 C5.5219,0.32635 4.7479,-0.00015 3.8484,-0.00015 C2.8904,-0.00015 2.0964,0.32635 1.4359,0.98085 C0.7959,1.61435 0.4814,2.38835 0.4814,3.28735 C0.4814,4.23285 0.7959,5.01535 1.4389,5.64685 C2.0999,6.26285 2.8934,6.55835 3.8484,6.55835" id="Fill-1" fill="#FFFFFF" mask="url(#mask-2)"></path>
                                </g>
                                <path d="M18.104,19.07295 C17.9365,18.43595 17.6975,17.64345 17.4255,16.72095 C17.168,15.78445 16.8485,14.77095 16.544,13.68245 C16.247,12.58895 15.9465,11.53695 15.652,10.52245 C15.377,9.74445 14.8845,8.91595 14.199,8.30045 C13.494,7.66645 12.705,7.25295 11.8925,7.25295 L6.6395,7.25295 C5.8535,7.25295 5.101,7.66645 4.377,8.30045 C3.6505,8.91295 3.1805,9.68345 2.9665,10.46045 C2.604,11.47495 2.3085,12.55795 1.9855,13.65145 C1.6705,14.73995 1.369,15.76895 1.091,16.70545 C0.8115,17.62695 0.5795,18.42795 0.407,19.06495 C0.257,19.70845 0.129,20.09095 0.0845,20.20095 C0.022,20.32995 0,20.46045 0,20.61645 C0,21.18695 0.302,21.58845 0.921,21.81795 L1.259,21.89995 C1.923,21.89995 2.347,21.59045 2.541,20.94995 C2.5625,20.74095 2.7765,20.12745 3.095,19.15895 C3.3745,18.17845 3.698,17.05745 3.9885,15.98345 C4.3115,14.90495 4.724,13.75295 5.2135,11.75295 L5.9815,11.75295 L1.516,27.25295 L5.6505,27.25295 L5.6505,38.49145 C5.6505,38.94145 5.876,39.31445 6.196,39.58445 C6.494,39.86495 6.919,39.99945 7.3705,39.99945 C7.817,39.99945 8.313,39.86495 8.5915,39.58445 C8.87,39.31445 9.1505,38.94145 9.1505,38.49145 L9.1505,27.25295 L9.6505,27.25295 L9.6505,38.49195 C9.6505,38.94195 9.801,39.31595 10.079,39.58445 C10.373,39.86495 10.731,39.99995 11.201,39.99995 C11.6455,39.99995 11.944,39.86645 12.245,39.58445 C12.5865,39.31595 12.6505,38.94195 12.6505,38.49195 L12.6505,27.25295 L17.015,27.25295 L12.556,11.75295 L13.327,11.75295 C13.8165,13.75295 14.217,14.90995 14.5585,15.98495 C14.8995,17.05945 15.2035,18.12845 15.502,19.10895 C15.7545,20.07695 15.946,20.71595 15.993,20.92495 C16.163,21.56445 16.5915,21.88795 17.272,21.88795 L17.587,21.80795 C18.205,21.63045 18.5275,21.23045 18.5275,20.53995 L18.444,20.20345 C18.3845,20.09295 18.2745,19.71595 18.104,19.07295" id="Fill-6" fill="#FFFFFF"></path>
                                <path d="M31.0293,7.25315 L23.6503,7.25315 L23.6503,7.40365 C22.6503,7.40365 21.6303,7.82915 20.7983,8.65015 C19.9638,9.50915 19.6503,10.50715 19.6503,11.61965 L19.6503,21.90015 C19.6503,22.28515 19.7043,22.63365 20.0018,22.91515 C20.2773,23.19315 20.5808,23.31915 20.9693,23.31915 C21.4158,23.31915 21.6348,23.19315 21.9093,22.91515 C22.1488,22.63365 22.1503,22.28515 22.1503,21.90015 L22.1503,12.75315 L23.1503,12.75315 L23.1503,38.15765 C23.1503,38.64765 23.3413,39.10015 23.7478,39.44865 C24.1303,39.83415 24.5648,39.99965 25.0788,39.99965 C25.6353,39.99965 26.1543,39.83565 26.5183,39.44865 C26.9038,39.10015 27.1503,38.64815 27.1503,38.15765 L27.1503,23.25315 L27.6503,23.25315 L27.6503,38.15765 C27.6503,38.64765 27.9308,39.10015 28.2928,39.44865 C28.6568,39.83415 29.1713,39.99965 29.7473,39.99965 C30.2358,39.99965 30.7018,39.83565 31.0873,39.44865 C31.4483,39.10015 31.6503,38.64815 31.6503,38.15765 L31.6503,12.75315 L32.1503,12.75315 L32.1503,21.90015 C32.1503,22.28515 32.3963,22.63365 32.6533,22.91515 C32.9593,23.19315 33.3758,23.31915 33.7613,23.31915 C34.2138,23.31915 34.5348,23.19315 34.7923,22.91515 C35.0243,22.63365 35.1503,22.28515 35.1503,21.90015 L35.1503,11.62015 C35.1503,10.51115 34.7983,9.43165 33.9633,8.57665 C33.1493,7.75215 32.2263,7.25315 31.0293,7.25315" id="Fill-8" fill="#010002"></path>
                                <path d="M27.267,6.558 C28.164,6.558 28.9555,6.2625 29.5925,5.6465 C30.2295,5.013 30.5535,4.23 30.5535,3.287 C30.5535,2.388 30.226,1.617 29.59,0.9805 C28.951,0.326 28.1615,0 27.267,0 C26.325,0 25.5325,0.326 24.936,0.9805 C24.3,1.617 24,2.388 24,3.287 C24,4.2325 24.3,5.0155 24.936,5.6465 C25.536,6.2625 26.3285,6.558 27.267,6.558" id="Fill-10" fill="#FFFFFF"></path>
                                <path d="M31.0293,7.25315 L23.6503,7.25315 L23.6503,7.40365 C22.6503,7.40365 21.6303,7.82915 20.7983,8.65015 C19.9638,9.50915 19.6503,10.50715 19.6503,11.61965 L19.6503,21.90015 C19.6503,22.28515 19.7043,22.63365 20.0018,22.91515 C20.2773,23.19315 20.5808,23.31915 20.9693,23.31915 C21.4158,23.31915 21.6348,23.19315 21.9093,22.91515 C22.1488,22.63365 22.1503,22.28515 22.1503,21.90015 L22.1503,12.75315 L23.1503,12.75315 L23.1503,38.15765 C23.1503,38.64765 23.3413,39.10015 23.7478,39.44865 C24.1303,39.83415 24.5648,39.99965 25.0788,39.99965 C25.6353,39.99965 26.1543,39.83565 26.5183,39.44865 C26.9038,39.10015 27.1503,38.64815 27.1503,38.15765 L27.1503,23.25315 L27.6503,23.25315 L27.6503,38.15765 C27.6503,38.64765 27.9308,39.10015 28.2928,39.44865 C28.6568,39.83415 29.1713,39.99965 29.7473,39.99965 C30.2358,39.99965 30.7018,39.83565 31.0873,39.44865 C31.4483,39.10015 31.6503,38.64815 31.6503,38.15765 L31.6503,12.75315 L32.1503,12.75315 L32.1503,21.90015 C32.1503,22.28515 32.3963,22.63365 32.6533,22.91515 C32.9593,23.19315 33.3758,23.31915 33.7613,23.31915 C34.2138,23.31915 34.5348,23.19315 34.7923,22.91515 C35.0243,22.63365 35.1503,22.28515 35.1503,21.90015 L35.1503,11.62015 C35.1503,10.51115 34.7983,9.43165 33.9633,8.57665 C33.1493,7.75215 32.2263,7.25315 31.0293,7.25315" id="Fill-12" fill="#FFFFFF"></path>
                            </g>
                        </g>
                    </g>
                </g>
            </g>
        </g>
    </g>
</svg>