<?xml version="1.0" encoding="UTF-8"?>
<svg width="40px" height="49px" viewBox="0 0 40 49" version="1.1" xmlns="http://www.w3.org/2000/svg" xmlns:xlink="http://www.w3.org/1999/xlink">
    <!-- Generator: Sketch 48.1 (47250) - http://www.bohemiancoding.com/sketch -->
    <title>icWhoCoupleMM</title>
    <desc>Created with Sketch.</desc>
    <defs>
        <polygon id="path-1" points="0.574994388 0.000602228245 8.42056117 0.000602228245 8.42056117 7.89924721 0.574994388 7.89924721 0.574994388 0.000602228245"></polygon>
        <polygon id="path-3" points="0 39.7469437 0 0.305209274 18.55581 0.305209274 18.55581 39.7469437 6.64547383e-16 39.7469437"></polygon>
        <polygon id="path-5" points="0.574994388 0.000602228245 8.42056117 0.000602228245 8.42056117 7.89924721 0.574994388 7.89924721 0.574994388 0.000602228245"></polygon>
        <polygon id="path-7" points="0 39.7469437 0 0.305209274 18.55581 0.305209274 18.55581 39.7469437 6.64547383e-16 39.7469437"></polygon>
        <polygon id="path-9" points="0.574994388 0.000602228245 8.42056117 0.000602228245 8.42056117 7.89924721 0.574994388 7.89924721 0.574994388 0.000602228245"></polygon>
        <polygon id="path-11" points="0 39.7469437 0 0.305209274 18.55581 0.305209274 18.55581 39.7469437 6.64547383e-16 39.7469437"></polygon>
        <polygon id="path-13" points="0.574994388 0.000602228245 8.42056117 0.000602228245 8.42056117 7.89924721 0.574994388 7.89924721 0.574994388 0.000602228245"></polygon>
        <polygon id="path-15" points="0 39.7469437 0 0.305209274 18.55581 0.305209274 18.55581 39.7469437 6.64547383e-16 39.7469437"></polygon>
    </defs>
    <g id="Layout--1" stroke="none" stroke-width="1" fill="none" fill-rule="evenodd" transform="translate(-701.000000, -561.000000)">
        <g id="Couple-MM" transform="translate(701.000000, 561.000000)">
            <g id="Group-8">
                <g id="Page-1">
                    <g id="Group-3" transform="translate(4.788627, 0.601927)">
                        <mask id="mask-2" fill="white">
                            <use xlink:href="#path-1"></use>
                        </mask>
                        <g id="Clip-2"></g>
                        <path d="M4.4861055,7.89924721 C5.55995511,7.89924721 6.50750468,7.54333032 7.27009353,6.80138512 C8.03268238,6.03836194 8.42056117,5.09527251 8.42056117,3.95947004 C8.42056117,2.87666366 8.02849233,1.9480277 7.26710064,1.18139115 C6.50211747,0.393074375 5.55696221,0.000421559771 4.4861055,0.000421559771 C3.35838384,0.000421559771 2.40963711,0.393074375 1.69553311,1.18139115 C0.934141414,1.9480277 0.574994388,2.87666366 0.574994388,3.95947004 C0.574994388,5.09828365 0.934141414,6.04077085 1.69553311,6.80138512 C2.41382716,7.54333032 3.36257389,7.89924721 4.4861055,7.89924721" id="Fill-1" fill="#010002" mask="url(#mask-2)"></path>
                    </g>
                    <g id="Group-6" transform="translate(0.000000, 9.033123)">
                        <mask id="mask-4" fill="white">
                            <use xlink:href="#path-3"></use>
                        </mask>
                        <g id="Clip-5"></g>
                        <path d="M13.622327,0.305209274 L4.7885073,0.305209274 L4.7885073,0.486479976 C3.59135054,0.486479976 2.37025065,0.998976212 1.37421624,1.98783499 C0.375188926,3.02246311 -0.000119715675,4.22451069 -0.000119715675,5.56446853 L-0.000119715675,17.9468835 C-0.000119715675,18.4105992 0.064526749,18.8303523 0.420680883,19.1694068 C0.750497568,19.5042457 1.11383464,19.6560072 1.57893004,19.6560072 C2.11346053,19.6560072 2.37563786,19.5042457 2.70485597,19.1694068 C2.99097643,18.8303523 2.99277217,18.4105992 2.99277217,17.9468835 L2.99277217,6.92971996 L4.18992892,6.92971996 L4.18992892,37.5283348 C4.18992892,38.1185185 4.41858586,38.6635351 4.90523008,39.0832882 C5.36314254,39.5476061 5.88330715,39.7469437 6.49864572,39.7469437 C7.16486345,39.7469437 7.7861878,39.5494128 8.22195286,39.0832882 C8.68345679,38.6635351 8.97855593,38.1191207 8.97855593,37.5283348 L8.97855593,19.5765131 L9.57713431,19.5765131 L9.57713431,37.5283348 C9.57713431,38.1185185 9.91293678,38.6635351 10.3463075,39.0832882 C10.7820726,39.5476061 11.3980097,39.7469437 12.087572,39.7469437 C12.6723831,39.7469437 13.2302581,39.5494128 13.6917621,39.0832882 C14.1239357,38.6635351 14.3657613,38.1191207 14.3657613,37.5283348 L14.3657613,6.92971996 L14.9643397,6.92971996 L14.9643397,17.9468835 C14.9643397,18.4105992 15.2588403,18.8303523 15.5665095,19.1694068 C15.9328395,19.5042457 16.4314553,19.6560072 16.8929592,19.6560072 C17.4346727,19.6560072 17.81896,19.5042457 18.1272278,19.1694068 C18.4049682,18.8303523 18.55581,18.4105992 18.55581,17.9468835 L18.55581,5.56507076 C18.55581,4.22932852 18.1344108,2.92911774 17.1347849,1.89990967 C16.1602993,0.906233062 15.0553236,0.305209274 13.622327,0.305209274" id="Fill-4" fill="#010002" mask="url(#mask-4)"></path>
                    </g>
                    <g id="Group-9" transform="translate(4.788627, 0.601927)">
                        <mask id="mask-6" fill="white">
                            <use xlink:href="#path-5"></use>
                        </mask>
                        <g id="Clip-8"></g>
                        <path d="M4.4861055,7.89924721 C5.55995511,7.89924721 6.50750468,7.54333032 7.27009353,6.80138512 C8.03268238,6.03836194 8.42056117,5.09527251 8.42056117,3.95947004 C8.42056117,2.87666366 8.02849233,1.9480277 7.26710064,1.18139115 C6.50211747,0.393074375 5.55696221,0.000421559771 4.4861055,0.000421559771 C3.35838384,0.000421559771 2.40963711,0.393074375 1.69553311,1.18139115 C0.934141414,1.9480277 0.574994388,2.87666366 0.574994388,3.95947004 C0.574994388,5.09828365 0.934141414,6.04077085 1.69553311,6.80138512 C2.41382716,7.54333032 3.36257389,7.89924721 4.4861055,7.89924721" id="Fill-7" fill="#FFFFFF" mask="url(#mask-6)"></path>
                    </g>
                    <g id="Group-12" transform="translate(0.000000, 9.033123)">
                        <mask id="mask-8" fill="white">
                            <use xlink:href="#path-7"></use>
                        </mask>
                        <g id="Clip-11"></g>
                        <path d="M13.622327,0.305209274 L4.7885073,0.305209274 L4.7885073,0.486479976 C3.59135054,0.486479976 2.37025065,0.998976212 1.37421624,1.98783499 C0.375188926,3.02246311 -0.000119715675,4.22451069 -0.000119715675,5.56446853 L-0.000119715675,17.9468835 C-0.000119715675,18.4105992 0.064526749,18.8303523 0.420680883,19.1694068 C0.750497568,19.5042457 1.11383464,19.6560072 1.57893004,19.6560072 C2.11346053,19.6560072 2.37563786,19.5042457 2.70485597,19.1694068 C2.99097643,18.8303523 2.99277217,18.4105992 2.99277217,17.9468835 L2.99277217,6.92971996 L4.18992892,6.92971996 L4.18992892,37.5283348 C4.18992892,38.1185185 4.41858586,38.6635351 4.90523008,39.0832882 C5.36314254,39.5476061 5.88330715,39.7469437 6.49864572,39.7469437 C7.16486345,39.7469437 7.7861878,39.5494128 8.22195286,39.0832882 C8.68345679,38.6635351 8.97855593,38.1191207 8.97855593,37.5283348 L8.97855593,19.5765131 L9.57713431,19.5765131 L9.57713431,37.5283348 C9.57713431,38.1185185 9.91293678,38.6635351 10.3463075,39.0832882 C10.7820726,39.5476061 11.3980097,39.7469437 12.087572,39.7469437 C12.6723831,39.7469437 13.2302581,39.5494128 13.6917621,39.0832882 C14.1239357,38.6635351 14.3657613,38.1191207 14.3657613,37.5283348 L14.3657613,6.92971996 L14.9643397,6.92971996 L14.9643397,17.9468835 C14.9643397,18.4105992 15.2588403,18.8303523 15.5665095,19.1694068 C15.9328395,19.5042457 16.4314553,19.6560072 16.8929592,19.6560072 C17.4346727,19.6560072 17.81896,19.5042457 18.1272278,19.1694068 C18.4049682,18.8303523 18.55581,18.4105992 18.55581,17.9468835 L18.55581,5.56507076 C18.55581,4.22932852 18.1344108,2.92911774 17.1347849,1.89990967 C16.1602993,0.906233062 15.0553236,0.305209274 13.622327,0.305209274" id="Fill-10" fill="#FFFFFF" mask="url(#mask-8)"></path>
                    </g>
                </g>
                <g id="Page-1" transform="translate(20.606061, 0.000000)">
                    <g id="Group-3" transform="translate(4.788627, 0.601927)">
                        <mask id="mask-10" fill="white">
                            <use xlink:href="#path-9"></use>
                        </mask>
                        <g id="Clip-2"></g>
                        <path d="M4.4861055,7.89924721 C5.55995511,7.89924721 6.50750468,7.54333032 7.27009353,6.80138512 C8.03268238,6.03836194 8.42056117,5.09527251 8.42056117,3.95947004 C8.42056117,2.87666366 8.02849233,1.9480277 7.26710064,1.18139115 C6.50211747,0.393074375 5.55696221,0.000421559771 4.4861055,0.000421559771 C3.35838384,0.000421559771 2.40963711,0.393074375 1.69553311,1.18139115 C0.934141414,1.9480277 0.574994388,2.87666366 0.574994388,3.95947004 C0.574994388,5.09828365 0.934141414,6.04077085 1.69553311,6.80138512 C2.41382716,7.54333032 3.36257389,7.89924721 4.4861055,7.89924721" id="Fill-1" fill="#010002" mask="url(#mask-10)"></path>
                    </g>
                    <g id="Group-6" transform="translate(0.000000, 9.033123)">
                        <mask id="mask-12" fill="white">
                            <use xlink:href="#path-11"></use>
                        </mask>
                        <g id="Clip-5"></g>
                        <path d="M13.622327,0.305209274 L4.7885073,0.305209274 L4.7885073,0.486479976 C3.59135054,0.486479976 2.37025065,0.998976212 1.37421624,1.98783499 C0.375188926,3.02246311 -0.000119715675,4.22451069 -0.000119715675,5.56446853 L-0.000119715675,17.9468835 C-0.000119715675,18.4105992 0.064526749,18.8303523 0.420680883,19.1694068 C0.750497568,19.5042457 1.11383464,19.6560072 1.57893004,19.6560072 C2.11346053,19.6560072 2.37563786,19.5042457 2.70485597,19.1694068 C2.99097643,18.8303523 2.99277217,18.4105992 2.99277217,17.9468835 L2.99277217,6.92971996 L4.18992892,6.92971996 L4.18992892,37.5283348 C4.18992892,38.1185185 4.41858586,38.6635351 4.90523008,39.0832882 C5.36314254,39.5476061 5.88330715,39.7469437 6.49864572,39.7469437 C7.16486345,39.7469437 7.7861878,39.5494128 8.22195286,39.0832882 C8.68345679,38.6635351 8.97855593,38.1191207 8.97855593,37.5283348 L8.97855593,19.5765131 L9.57713431,19.5765131 L9.57713431,37.5283348 C9.57713431,38.1185185 9.91293678,38.6635351 10.3463075,39.0832882 C10.7820726,39.5476061 11.3980097,39.7469437 12.087572,39.7469437 C12.6723831,39.7469437 13.2302581,39.5494128 13.6917621,39.0832882 C14.1239357,38.6635351 14.3657613,38.1191207 14.3657613,37.5283348 L14.3657613,6.92971996 L14.9643397,6.92971996 L14.9643397,17.9468835 C14.9643397,18.4105992 15.2588403,18.8303523 15.5665095,19.1694068 C15.9328395,19.5042457 16.4314553,19.6560072 16.8929592,19.6560072 C17.4346727,19.6560072 17.81896,19.5042457 18.1272278,19.1694068 C18.4049682,18.8303523 18.55581,18.4105992 18.55581,17.9468835 L18.55581,5.56507076 C18.55581,4.22932852 18.1344108,2.92911774 17.1347849,1.89990967 C16.1602993,0.906233062 15.0553236,0.305209274 13.622327,0.305209274" id="Fill-4" fill="#010002" mask="url(#mask-12)"></path>
                    </g>
                    <g id="Group-9" transform="translate(4.788627, 0.601927)">
                        <mask id="mask-14" fill="white">
                            <use xlink:href="#path-13"></use>
                        </mask>
                        <g id="Clip-8"></g>
                        <path d="M4.4861055,7.89924721 C5.55995511,7.89924721 6.50750468,7.54333032 7.27009353,6.80138512 C8.03268238,6.03836194 8.42056117,5.09527251 8.42056117,3.95947004 C8.42056117,2.87666366 8.02849233,1.9480277 7.26710064,1.18139115 C6.50211747,0.393074375 5.55696221,0.000421559771 4.4861055,0.000421559771 C3.35838384,0.000421559771 2.40963711,0.393074375 1.69553311,1.18139115 C0.934141414,1.9480277 0.574994388,2.87666366 0.574994388,3.95947004 C0.574994388,5.09828365 0.934141414,6.04077085 1.69553311,6.80138512 C2.41382716,7.54333032 3.36257389,7.89924721 4.4861055,7.89924721" id="Fill-7" fill="#FFFFFF" mask="url(#mask-14)"></path>
                    </g>
                    <g id="Group-12" transform="translate(0.000000, 9.033123)">
                        <mask id="mask-16" fill="white">
                            <use xlink:href="#path-15"></use>
                        </mask>
                        <g id="Clip-11"></g>
                        <path d="M13.622327,0.305209274 L4.7885073,0.305209274 L4.7885073,0.486479976 C3.59135054,0.486479976 2.37025065,0.998976212 1.37421624,1.98783499 C0.375188926,3.02246311 -0.000119715675,4.22451069 -0.000119715675,5.56446853 L-0.000119715675,17.9468835 C-0.000119715675,18.4105992 0.064526749,18.8303523 0.420680883,19.1694068 C0.750497568,19.5042457 1.11383464,19.6560072 1.57893004,19.6560072 C2.11346053,19.6560072 2.37563786,19.5042457 2.70485597,19.1694068 C2.99097643,18.8303523 2.99277217,18.4105992 2.99277217,17.9468835 L2.99277217,6.92971996 L4.18992892,6.92971996 L4.18992892,37.5283348 C4.18992892,38.1185185 4.41858586,38.6635351 4.90523008,39.0832882 C5.36314254,39.5476061 5.88330715,39.7469437 6.49864572,39.7469437 C7.16486345,39.7469437 7.7861878,39.5494128 8.22195286,39.0832882 C8.68345679,38.6635351 8.97855593,38.1191207 8.97855593,37.5283348 L8.97855593,19.5765131 L9.57713431,19.5765131 L9.57713431,37.5283348 C9.57713431,38.1185185 9.91293678,38.6635351 10.3463075,39.0832882 C10.7820726,39.5476061 11.3980097,39.7469437 12.087572,39.7469437 C12.6723831,39.7469437 13.2302581,39.5494128 13.6917621,39.0832882 C14.1239357,38.6635351 14.3657613,38.1191207 14.3657613,37.5283348 L14.3657613,6.92971996 L14.9643397,6.92971996 L14.9643397,17.9468835 C14.9643397,18.4105992 15.2588403,18.8303523 15.5665095,19.1694068 C15.9328395,19.5042457 16.4314553,19.6560072 16.8929592,19.6560072 C17.4346727,19.6560072 17.81896,19.5042457 18.1272278,19.1694068 C18.4049682,18.8303523 18.55581,18.4105992 18.55581,17.9468835 L18.55581,5.56507076 C18.55581,4.22932852 18.1344108,2.92911774 17.1347849,1.89990967 C16.1602993,0.906233062 15.0553236,0.305209274 13.622327,0.305209274" id="Fill-10" fill="#FFFFFF" mask="url(#mask-16)"></path>
                    </g>
                </g>
            </g>
        </g>
    </g>
</svg>