<?xml version="1.0" encoding="UTF-8"?>
<svg width="44px" height="50px" viewBox="0 0 44 50" version="1.1" xmlns="http://www.w3.org/2000/svg" xmlns:xlink="http://www.w3.org/1999/xlink">
    <!-- Generator: Sketch 48.1 (47250) - http://www.bohemiancoding.com/sketch -->
    <title>icWhoCouple@1.5x</title>
    <desc>Created with Sketch.</desc>
    <defs>
        <polygon id="path-1" points="0.60175 0 8.81925 0 8.81925 8.1979375 0.60175 8.1979375 0.60175 8.8817842e-15"></polygon>
    </defs>
    <g id="Layout--1" stroke="none" stroke-width="1" fill="none" fill-rule="evenodd" transform="translate(-843.000000, -451.000000)">
        <g id="Couple" transform="translate(843.000000, 451.000000)">
            <g id="Page-1">
                <g id="Group-3" transform="translate(6.875000, 0.000000)">
                    <mask id="mask-2" fill="white">
                        <use xlink:href="#path-1"></use>
                    </mask>
                    <g id="Clip-2"></g>
                    <path d="M4.8105,8.1979375 C5.934875,8.1979375 6.898,7.8285625 7.646125,7.0585625 C8.416125,6.2704375 8.81925,5.2910625 8.81925,4.1091875 C8.81925,2.9854375 8.416125,2.0216875 7.646125,1.2260625 C6.902375,0.4079375 5.934875,-0.0001875 4.8105,-0.0001875 C3.613,-0.0001875 2.6205,0.4079375 1.794875,1.2260625 C0.994875,2.0179375 0.60175,2.9854375 0.60175,4.1091875 C0.60175,5.2910625 0.994875,6.2691875 1.798625,7.0585625 C2.624875,7.8285625 3.61675,8.1979375 4.8105,8.1979375" id="Fill-1" fill="#FFFFFF" mask="url(#mask-2)"></path>
                </g>
                <path d="M22.63,23.8411875 C22.420625,23.0449375 22.121875,22.0543125 21.781875,20.9011875 C21.46,19.7305625 21.060625,18.4636875 20.68,17.1030625 C20.30875,15.7361875 19.933125,14.4211875 19.565,13.1530625 C19.22125,12.1805625 18.605625,11.1449375 17.74875,10.3755625 C16.8675,9.5830625 15.88125,9.0661875 14.865625,9.0661875 L8.299375,9.0661875 C7.316875,9.0661875 6.37625,9.5830625 5.47125,10.3755625 C4.563125,11.1411875 3.975625,12.1043125 3.708125,13.0755625 C3.255,14.3436875 2.885625,15.6974375 2.481875,17.0643125 C2.088125,18.4249375 1.71125,19.7111875 1.36375,20.8818125 C1.014375,22.0336875 0.724375,23.0349375 0.50875,23.8311875 C0.32125,24.6355625 0.16125,25.1136875 0.105625,25.2511875 C0.0275,25.4124375 0,25.5755625 0,25.7705625 C0,26.4836875 0.3775,26.9855625 1.15125,27.2724375 L1.57375,27.3749375 C2.40375,27.3749375 2.93375,26.9880625 3.17625,26.1874375 C3.203125,25.9261875 3.470625,25.1593125 3.86875,23.9486875 C4.218125,22.7230625 4.6225,21.3218125 4.985625,19.9793125 C5.389375,18.6311875 5.905,17.1911875 6.516875,14.6911875 L7.476875,14.6911875 L1.895,34.0661875 L7.063125,34.0661875 L7.063125,48.1143125 C7.063125,48.6768125 7.345,49.1430625 7.745,49.4805625 C8.1175,49.8311875 8.64875,49.9993125 9.213125,49.9993125 C9.77125,49.9993125 10.39125,49.8311875 10.739375,49.4805625 C11.0875,49.1430625 11.438125,48.6768125 11.438125,48.1143125 L11.438125,34.0661875 L12.063125,34.0661875 L12.063125,48.1149375 C12.063125,48.6774375 12.25125,49.1449375 12.59875,49.4805625 C12.96625,49.8311875 13.41375,49.9999375 14.00125,49.9999375 C14.556875,49.9999375 14.93,49.8330625 15.30625,49.4805625 C15.733125,49.1449375 15.813125,48.6774375 15.813125,48.1149375 L15.813125,34.0661875 L21.26875,34.0661875 L15.695,14.6911875 L16.65875,14.6911875 C17.270625,17.1911875 17.77125,18.6374375 18.198125,19.9811875 C18.624375,21.3243125 19.004375,22.6605625 19.3775,23.8861875 C19.693125,25.0961875 19.9325,25.8949375 19.99125,26.1561875 C20.20375,26.9555625 20.739375,27.3599375 21.59,27.3599375 L21.98375,27.2599375 C22.75625,27.0380625 23.159375,26.5380625 23.159375,25.6749375 L23.055,25.2543125 C22.980625,25.1161875 22.843125,24.6449375 22.63,23.8411875" id="Fill-6" fill="#FFFFFF"></path>
                <path d="M38.786625,9.0664375 L29.562875,9.0664375 L29.562875,9.2545625 C28.312875,9.2545625 27.037875,9.7864375 25.997875,10.8126875 C24.95475,11.8864375 24.562875,13.1339375 24.562875,14.5245625 L24.562875,27.3751875 C24.562875,27.8564375 24.630375,28.2920625 25.00225,28.6439375 C25.346625,28.9914375 25.726,29.1489375 26.211625,29.1489375 C26.76975,29.1489375 27.0435,28.9914375 27.386625,28.6439375 C27.686,28.2920625 27.687875,27.8564375 27.687875,27.3751875 L27.687875,15.9414375 L28.937875,15.9414375 L28.937875,47.6970625 C28.937875,48.3095625 29.176625,48.8751875 29.68475,49.3108125 C30.162875,49.7926875 30.706,49.9995625 31.3485,49.9995625 C32.044125,49.9995625 32.692875,49.7945625 33.147875,49.3108125 C33.62975,48.8751875 33.937875,48.3101875 33.937875,47.6970625 L33.937875,29.0664375 L34.562875,29.0664375 L34.562875,47.6970625 C34.562875,48.3095625 34.9135,48.8751875 35.366,49.3108125 C35.821,49.7926875 36.464125,49.9995625 37.184125,49.9995625 C37.79475,49.9995625 38.37725,49.7945625 38.859125,49.3108125 C39.310375,48.8751875 39.562875,48.3101875 39.562875,47.6970625 L39.562875,15.9414375 L40.187875,15.9414375 L40.187875,27.3751875 C40.187875,27.8564375 40.495375,28.2920625 40.816625,28.6439375 C41.199125,28.9914375 41.71975,29.1489375 42.201625,29.1489375 C42.76725,29.1489375 43.1685,28.9914375 43.490375,28.6439375 C43.780375,28.2920625 43.937875,27.8564375 43.937875,27.3751875 L43.937875,14.5251875 C43.937875,13.1389375 43.497875,11.7895625 42.454125,10.7208125 C41.436625,9.6901875 40.282875,9.0664375 38.786625,9.0664375" id="Fill-8" fill="#010002"></path>
                <path d="M34.08375,8.1975 C35.205,8.1975 36.194375,7.828125 36.990625,7.058125 C37.786875,6.26625 38.191875,5.2875 38.191875,4.10875 C38.191875,2.985 37.7825,2.02125 36.9875,1.225625 C36.18875,0.4075 35.201875,0 34.08375,0 C32.90625,0 31.915625,0.4075 31.17,1.225625 C30.375,2.02125 30,2.985 30,4.10875 C30,5.290625 30.375,6.269375 31.17,7.058125 C31.92,7.828125 32.910625,8.1975 34.08375,8.1975" id="Fill-10" fill="#FFFFFF"></path>
                <path d="M38.786625,9.0664375 L29.562875,9.0664375 L29.562875,9.2545625 C28.312875,9.2545625 27.037875,9.7864375 25.997875,10.8126875 C24.95475,11.8864375 24.562875,13.1339375 24.562875,14.5245625 L24.562875,27.3751875 C24.562875,27.8564375 24.630375,28.2920625 25.00225,28.6439375 C25.346625,28.9914375 25.726,29.1489375 26.211625,29.1489375 C26.76975,29.1489375 27.0435,28.9914375 27.386625,28.6439375 C27.686,28.2920625 27.687875,27.8564375 27.687875,27.3751875 L27.687875,15.9414375 L28.937875,15.9414375 L28.937875,47.6970625 C28.937875,48.3095625 29.176625,48.8751875 29.68475,49.3108125 C30.162875,49.7926875 30.706,49.9995625 31.3485,49.9995625 C32.044125,49.9995625 32.692875,49.7945625 33.147875,49.3108125 C33.62975,48.8751875 33.937875,48.3101875 33.937875,47.6970625 L33.937875,29.0664375 L34.562875,29.0664375 L34.562875,47.6970625 C34.562875,48.3095625 34.9135,48.8751875 35.366,49.3108125 C35.821,49.7926875 36.464125,49.9995625 37.184125,49.9995625 C37.79475,49.9995625 38.37725,49.7945625 38.859125,49.3108125 C39.310375,48.8751875 39.562875,48.3101875 39.562875,47.6970625 L39.562875,15.9414375 L40.187875,15.9414375 L40.187875,27.3751875 C40.187875,27.8564375 40.495375,28.2920625 40.816625,28.6439375 C41.199125,28.9914375 41.71975,29.1489375 42.201625,29.1489375 C42.76725,29.1489375 43.1685,28.9914375 43.490375,28.6439375 C43.780375,28.2920625 43.937875,27.8564375 43.937875,27.3751875 L43.937875,14.5251875 C43.937875,13.1389375 43.497875,11.7895625 42.454125,10.7208125 C41.436625,9.6901875 40.282875,9.0664375 38.786625,9.0664375" id="Fill-12" fill="#FFFFFF"></path>
            </g>
        </g>
    </g>
</svg>