<?xml version="1.0" encoding="UTF-8"?>
<svg width="100px" height="100px" viewBox="0 0 100 100" version="1.1" xmlns="http://www.w3.org/2000/svg" xmlns:xlink="http://www.w3.org/1999/xlink">
    <!-- Generator: Sketch 55.2 (78181) - https://sketchapp.com -->
    <title>icEmptyStateHidden</title>
    <desc>Created with Sketch.</desc>
    <defs>
        <path d="M86.6725471,16.0166726 C97.848165,28.1076792 102.745949,45.4127928 98.4616451,62.2955033 C96.8759835,68.5455033 94.158345,74.329519 90.3880685,79.4899875 C81.0026055,92.3330502 65.9214997,100 50.0447694,100 C45.9068518,100 41.7566424,99.4792598 37.7092383,98.4523065 C24.7646969,95.1680672 13.8762636,87.0407205 7.04864382,75.5665564 C0.222141468,64.0935097 -1.72780887,50.6458967 1.55749428,37.7011443 C7.19167743,15.5037547 27.1001675,4.61852778e-13 49.9721351,4.61852778e-13 C54.1089352,4.61852778e-13 58.2580272,0.520740211 62.3043139,1.54769355 C64.3101367,2.05502414 66.304785,2.69421598 68.2312689,3.44738959 C75.4455264,6.25893975 81.6652534,10.6092437 86.6457283,15.9887359 C86.6513155,15.9943233 86.6580202,15.9987931 86.6636075,16.0043805 C86.6669598,16.0088503 86.6691947,16.0133202 86.6725471,16.0166726 Z M55.3727893,50.5000963 L69.9907962,35.8820722 C71.3364013,34.5364655 71.3364013,32.3548117 69.9907962,31.0093975 C68.6451911,29.6637908 66.4637323,29.6637908 65.1181272,31.0093975 L50.4999278,45.6276141 L35.8817284,31.009205 C34.5361233,29.6635983 32.3546645,29.6635983 31.0090594,31.009205 C29.6636469,32.3548117 29.6636469,34.5364655 31.0090594,35.8818797 L45.6272588,50.4999037 L31.0090594,65.1181203 C29.6636469,66.463727 29.6636469,68.6453808 31.0090594,69.990795 C32.3546645,71.3364017 34.5361233,71.3364017 35.8817284,69.990795 L50.4999278,55.3725784 L65.1181272,69.990795 C66.4635398,71.3364017 68.6451911,71.3364017 69.9907962,69.990795 C71.3364013,68.6451883 71.3364013,66.463727 69.9907962,65.1181203 L55.3727893,50.5000963 Z" id="path-1"></path>
    </defs>
    <g id="Page-1" stroke="none" stroke-width="1" fill="none" fill-rule="evenodd">
        <mask id="mask-2" fill="white">
            <use xlink:href="#path-1"></use>
        </mask>
        <use id="icEmptyStateHidden" fill="#666666" fill-rule="nonzero" opacity="0.600000024" xlink:href="#path-1"></use>
    </g>
</svg>