<?xml version="1.0" encoding="UTF-8"?>
<svg width="109px" height="98px" viewBox="0 0 109 98" version="1.1" xmlns="http://www.w3.org/2000/svg" xmlns:xlink="http://www.w3.org/1999/xlink">
    <!-- Generator: Sketch 53.2 (72643) - https://sketchapp.com -->
    <title>icEmptyStatePrivateAlbumAccess</title>
    <desc>Created with Sketch.</desc>
    <g id="Page-1" stroke="none" stroke-width="1" fill="none" fill-rule="evenodd" opacity="0.600000024">
        <g id="Private-access--Empty-state" transform="translate(-134.000000, -250.000000)" fill="#666666">
            <g id="Group" transform="translate(38.000000, 250.000000)">
                <g id="icEmptyStatePrivateAlbumAccess" transform="translate(96.500000, 0.000000)">
                    <path d="M23,0 L85,0 C97.7025492,-2.33342044e-15 108,10.2974508 108,23 L108,75 C108,87.7025492 97.7025492,98 85,98 L23,98 C10.2974508,98 1.55561363e-15,87.7025492 0,75 L0,23 C-1.55561363e-15,10.2974508 10.2974508,9.4388478e-15 23,7.10542736e-15 Z M37.125,34.0277778 C41.2257143,34.0277778 44.55,30.6761317 44.55,26.5416667 C44.55,22.4072017 41.2257143,19.0555556 37.125,19.0555556 C33.0242857,19.0555556 29.7,22.4072017 29.7,26.5416667 C29.7,30.6761317 33.0242857,34.0277778 37.125,34.0277778 Z M73.35495,39.4721224 C63.45495,39.4721224 58.50495,54.4443446 51.07995,54.4443446 C43.65495,54.4443446 43.6599,49.4536039 33.75495,49.4536039 C23.85495,49.4536039 18.9,69.4165669 18.9,69.4165669 L88.20495,69.4165669 C88.20495,69.4165669 83.25495,39.4721224 73.35495,39.4721224 Z" id="Combined-Shape"></path>
                </g>
            </g>
        </g>
    </g>
</svg>