<?xml version="1.0" encoding="UTF-8"?>
<svg width="100px" height="100px" viewBox="0 0 100 100" version="1.1" xmlns="http://www.w3.org/2000/svg" xmlns:xlink="http://www.w3.org/1999/xlink">
    <!-- Generator: Sketch 55.2 (78181) - https://sketchapp.com -->
    <title>icEmptyStateValidations</title>
    <desc>Created with Sketch.</desc>
    <defs>
        <path d="M10.6438201,67.604279 C10.5766748,66.7805058 10.2590259,66.0135445 9.72444605,65.3834484 L2.59929756,57.0217628 C-0.866432519,52.9519616 -0.866432519,47.0461016 2.59929756,42.9788827 L9.72444605,34.6171972 C10.2590259,33.9871011 10.5792573,33.2201398 10.6438201,32.3963666 L11.5167088,21.4471552 C11.9428232,16.1197441 16.1187439,11.9440661 21.4464645,11.5179765 L32.3963122,10.6451384 C33.2201333,10.5805794 33.9871391,10.2629489 34.6172718,9.7258178 L42.9768607,2.6010833 C47.0468984,-0.867027767 52.9505191,-0.867027767 57.0205568,2.6010833 L65.3827282,9.7258178 C66.0102784,10.2603666 66.7798667,10.5805794 67.6036878,10.6451384 L78.5535355,11.5179765 C83.8812561,11.9414837 88.0571768,16.1197441 88.4832912,21.4471552 L89.3561799,32.3963666 C89.4207427,33.2201398 89.7383916,33.9871011 90.2755539,34.6171972 L97.4007024,42.9788827 C100.866433,47.048684 100.866433,52.954544 97.4007024,57.0217628 L90.2755539,65.3834484 C89.7409741,66.0135445 89.4207427,66.7805058 89.3561799,67.604279 L88.4832912,78.5534904 C88.0571768,83.8809015 83.8812561,88.0565795 78.5535355,88.4826691 L67.6036878,89.3555072 C66.7798667,89.4200662 66.0128609,89.7376967 65.3827282,90.2748278 L57.0231393,97.3995623 C54.9881204,99.1323266 52.4959971,100 50.0012913,100 C47.5065854,100 45.0144621,99.1323266 42.9794432,97.3995623 L34.6172718,90.2748278 C33.9871391,89.740279 33.2201333,89.4200662 32.3963122,89.3555072 L21.4464645,88.4826691 C16.1187439,88.0565795 11.9428232,83.8809015 11.5167088,78.5534904 L10.6438201,67.604279 Z M30.5178506,50.8516746 L30.8152374,51.2866029 L42.4133235,63.4645933 C42.7107103,63.7545455 43.0080972,63.8995215 43.4541774,63.8995215 C43.9002576,63.8995215 44.1976445,63.7545455 44.4950313,63.4645933 L68.2859772,39.3985646 C68.8807508,38.8186603 68.8807508,37.9488038 68.2859772,37.3688995 L66.2042694,35.3392344 C65.6094958,34.7593301 64.7173353,34.7593301 64.1225616,35.3392344 L63.9738682,35.3392344 L44.048951,55.4909091 C43.7515642,55.7808612 43.305484,55.7808612 43.0080972,55.4909091 L34.8299595,46.9373206 L34.6812661,46.7923445 C34.0864925,46.2124402 33.194332,46.2124402 32.5995583,46.7923445 L30.5178506,48.8220096 C30.2204637,49.1119617 30.0717703,49.54689 30.0717703,49.8368421 C30.0717703,50.1267943 30.2204637,50.5617225 30.5178506,50.8516746 Z" id="path-1"></path>
    </defs>
    <g id="Page-1" stroke="none" stroke-width="1" fill="none" fill-rule="evenodd">
        <mask id="mask-2" fill="white">
            <use xlink:href="#path-1"></use>
        </mask>
        <use id="icEmptyStateValidations" fill="#666666" fill-rule="nonzero" opacity="0.600000024" xlink:href="#path-1"></use>
    </g>
</svg>