<?xml version="1.0" encoding="UTF-8"?>
<svg width="16px" height="12px" viewBox="0 0 16 12" version="1.1" xmlns="http://www.w3.org/2000/svg" xmlns:xlink="http://www.w3.org/1999/xlink">
    <!-- Generator: Sketch 52.2 (67145) - http://www.bohemiancoding.com/sketch -->
    <title>icArrowHome</title>
    <desc>Created with Sketch.</desc>
    <g id="Page-1" stroke="none" stroke-width="1" fill="none" fill-rule="evenodd">
        <g id="FOR-YOU_Options" transform="translate(-125.000000, -3336.000000)" fill="#FFFFFF" fill-rule="nonzero">
            <g id="Group-22-Copy-9" transform="translate(14.000000, 3069.000000)">
                <g id="Group-22-Copy-5">
                    <path d="M121.774214,267.180472 C121.55624,266.939843 121.193458,266.939843 120.967863,267.180472 C120.749889,267.412971 120.749889,267.799928 120.967863,268.031885 L125.056526,272.393009 L111.564497,272.393009 C111.249984,272.393551 111,272.660193 111,272.995664 C111,273.331135 111.249984,273.606449 111.564497,273.606449 L125.056526,273.606449 L120.967863,277.959444 C120.749889,278.200072 120.749889,278.587571 120.967863,278.819528 C121.193458,279.060157 121.556748,279.060157 121.774214,278.819528 L126.830803,273.425978 C127.056399,273.193478 127.056399,272.806522 126.830803,272.574564 L121.774214,267.180472 Z" id="icArrowHome"></path>
                </g>
            </g>
        </g>
    </g>
</svg>