<?xml version="1.0" encoding="UTF-8"?>
<svg width="40px" height="50px" viewBox="0 0 40 50" version="1.1" xmlns="http://www.w3.org/2000/svg" xmlns:xlink="http://www.w3.org/1999/xlink">
    <!-- Generator: Sketch 52.4 (67378) - http://www.bohemiancoding.com/sketch -->
    <title>icPlayButton</title>
    <desc>Created with Sketch.</desc>
    <defs>
        <filter x="-37.5%" y="-28.6%" width="175.0%" height="157.1%" filterUnits="objectBoundingBox" id="filter-1">
            <feOffset dx="0" dy="2" in="SourceAlpha" result="shadowOffsetOuter1"></feOffset>
            <feGaussianBlur stdDeviation="2" in="shadowOffsetOuter1" result="shadowBlurOuter1"></feGaussianBlur>
            <feColorMatrix values="0 0 0 0 0   0 0 0 0 0   0 0 0 0 0  0 0 0 0.5 0" type="matrix" in="shadowBlurOuter1" result="shadowMatrixOuter1"></feColorMatrix>
            <feMerge>
                <feMergeNode in="shadowMatrixOuter1"></feMergeNode>
                <feMergeNode in="SourceGraphic"></feMergeNode>
            </feMerge>
        </filter>
    </defs>
    <g id="Page-1" stroke="none" stroke-width="1" fill="none" fill-rule="evenodd">
        <g id="Videos" transform="translate(-168.000000, -255.000000)" fill="#FFFFFF" fill-rule="nonzero">
            <g id="icPlayButton" filter="url(#filter-1)" transform="translate(172.000000, 257.000000)">
                <path d="M31.068,20.176 L2.068,0.176 C1.761,-0.035 1.363,-0.057 1.035,0.114 C0.706,0.287 0.5,0.627 0.5,0.999 L0.5,40.999 C0.5,41.371 0.706,41.712 1.035,41.885 C1.181,41.961 1.341,41.999 1.5,41.999 C1.699,41.999 1.897,41.939 2.068,41.822 L31.068,21.822 C31.339,21.635 31.5,21.328 31.5,20.999 C31.5,20.67 31.338,20.363 31.068,20.176 Z" id="Shape"></path>
            </g>
        </g>
    </g>
</svg>