<?xml version="1.0" encoding="UTF-8"?>
<svg width="79px" height="79px" viewBox="0 0 79 79" version="1.1" xmlns="http://www.w3.org/2000/svg" xmlns:xlink="http://www.w3.org/1999/xlink">
    <!-- Generator: Sketch 55 (78076) - https://sketchapp.com -->
    <title>award</title>
    <desc>Created with Sketch.</desc>
    <g id="Page-1" stroke="none" stroke-width="1" fill="none" fill-rule="evenodd">
        <g id="Desktop-HD-header4--Prospects-Empty-state" transform="translate(-1455.000000, -1053.000000)">
            <g id="award" transform="translate(1494.665262, 1092.677602) rotate(44.000000) translate(-1494.665262, -1092.677602) translate(1457.665262, 1055.177602)">
                <circle id="Oval" fill="#FF0000" cx="36" cy="37" r="31"></circle>
                <path d="M36.944357,10.1185927 C21.8622977,10.1185927 9.6354541,22.3448741 9.6354541,37.4274955 C9.6354541,52.5089928 21.8622977,64.7363984 36.944357,64.7363984 C52.0269784,64.7363984 64.2526978,52.5089928 64.2526978,37.4274955 C64.2369604,22.3516187 52.0196718,10.1354541 36.944357,10.1185927 L36.944357,10.1185927 Z M36.944357,60.4243481 C24.243705,60.4243481 13.9475045,50.1281475 13.9475045,37.4274955 C13.9475045,24.7268435 24.243705,14.430643 36.944357,14.430643 C49.6455711,14.430643 59.9412095,24.7268435 59.9412095,37.4274955 C59.9260342,50.1219649 49.6393885,60.4086106 36.944357,60.4243481 Z" id="Shape" fill="#FF0000" fill-rule="nonzero"></path>
                <path d="M54.6537976,68.1205174 C53.6974758,68.8183462 52.9293502,69.7457641 52.3806789,70.8922629 C52.3362747,70.9677275 52.3362747,70.9677275 52.2914513,71.0438891 C51.3351338,72.668107 50.8995624,73.2497742 50.0865665,73.5396973 L49.9555325,73.5864255 L49.8167195,73.5956135 C48.6981283,73.6696525 47.5805833,73.4462461 46.6088075,72.9634889 C45.508584,72.4668469 44.3015964,72.2520185 43.0968511,72.337377 C41.9694641,72.6573504 40.9386315,73.2597647 40.0438372,74.1409992 C38.5016748,75.4310774 37.8619019,75.8549911 36.944357,75.8549911 C36.0273847,75.8549911 35.3896163,75.4324055 33.7828817,74.0845558 C32.9271017,73.237132 31.8662107,72.6265908 30.7899986,72.3323178 C30.5910942,72.2969084 30.3865418,72.2780403 30.2544187,72.2737171 C29.2231149,72.341252 28.2092386,72.578362 27.3133983,72.9478962 C26.3088189,73.4461836 25.1907129,73.6696679 24.0725174,73.5956109 L23.9337248,73.5864188 L23.8027096,73.5396973 C22.9897137,73.2497741 22.5541416,72.6681061 21.5978247,71.043889 C21.5530013,70.9677274 21.5530013,70.9677274 21.4672237,70.8142928 C20.9587454,69.7445197 20.1912279,68.8186646 19.2352683,68.1204229 C18.1426977,67.6302436 16.945189,67.4217715 15.7746909,67.5128563 C14.6565603,67.6277919 13.5276442,67.4525948 12.4983294,67.003596 L12.2311785,66.8870618 L12.0684742,66.6452413 C11.4379743,65.7081558 11.0674057,64.6198779 10.9971871,63.5226407 C10.8836741,62.3293117 10.4723014,61.185217 9.80088581,60.193835 C8.94501865,59.366364 7.89417047,58.7689711 6.76433133,58.4625845 C5.67071508,58.1906727 4.66585404,57.6415163 3.84665856,56.8680898 L3.63175443,56.6651925 L3.56167722,56.3780683 C3.29527087,55.2865335 3.31912583,54.1440513 3.62343482,53.0855952 C3.92644453,51.9240582 3.92959561,50.7059151 3.63295159,49.5455255 C3.1168672,48.4879048 2.34169898,47.5755976 1.31187595,46.8412364 C-0.253268411,45.5068506 -0.749714724,44.9846567 -0.906840243,44.0989002 L-0.932991444,43.9514792 L-0.914819308,43.8028636 C-0.780782373,42.7066808 -0.372561497,41.6622803 0.263600871,40.7791739 C0.956680654,39.7852782 1.38314652,38.6307029 1.50214001,37.4274764 C1.38317808,36.2240345 0.957045775,35.0702317 0.272403276,34.0882374 C-0.37256142,33.1927109 -0.780782354,32.1483102 -0.914819306,31.0521275 L-0.932982172,30.9035877 L-0.906866336,30.7562381 C-0.749786362,29.8699682 -0.25498177,29.3496014 1.38231141,27.9589379 C2.34376991,27.2773248 3.11711186,26.3666098 3.63295129,25.3094665 C3.92959434,24.149084 3.92659807,22.9310116 3.62990822,21.7930219 C3.3191304,20.7109556 3.29528002,19.5685223 3.56164401,18.4764969 L3.63089177,18.1925985 L3.84211194,17.9906589 C4.66049767,17.2082315 5.67063545,16.6563779 6.74369657,16.3977712 C7.89441903,16.0854665 8.94563869,15.4879907 9.80088872,14.6606305 C10.4722354,13.6698856 10.8836034,12.5265442 10.994762,11.3627584 C11.0674145,10.2349773 11.4380501,9.14616041 12.0684742,8.20918773 L12.2313425,7.96712357 L12.4988257,7.8506167 C13.5286205,7.40207208 14.6574103,7.22672442 15.7502687,7.33936441 C16.9450955,7.43264258 18.1430945,7.22450352 19.2351229,6.73463216 C20.1912434,6.03575996 20.9598494,5.10789781 21.5085972,3.96272804 C21.5530604,3.88716315 21.5530604,3.88716315 21.5979434,3.81090019 C22.5536871,2.18765753 22.9892727,1.60576341 23.801155,1.31472555 L23.9334552,1.2672995 L24.0737028,1.25817837 C25.1927771,1.18539835 26.3105063,1.4089784 27.280137,1.89135254 C28.3814163,2.38798896 29.587499,2.60285952 30.7916922,2.51762244 C31.9201698,2.19687658 32.9506316,1.59451968 33.8456977,0.712181615 C35.3940805,-0.580286618 36.0278339,-1 36.944357,-1 C37.8614527,-1 38.4972307,-0.578945789 40.106244,0.769719111 C40.9396704,1.59596485 41.9685902,2.19691633 43.097033,2.51762621 C44.3009528,2.60287986 45.5072632,2.38827666 46.5754006,1.90733174 C47.5788958,1.40891584 48.6960652,1.18541355 49.8155348,1.25817586 L49.9558024,1.26729285 L50.0881212,1.31472555 C50.9000034,1.60576339 51.3355883,2.18765657 52.2913326,3.81090012 C52.3362157,3.88716307 52.3362157,3.88716307 52.4221349,4.0408718 C52.9303347,5.11058929 53.6975107,6.03617492 54.6539391,6.73453627 C55.74601,7.22447772 56.9434932,7.43270378 58.1145852,7.34157259 C59.2320465,7.22670585 60.3609935,7.40213077 61.3897593,7.8508054 L61.6564661,7.96712398 L61.8191312,8.20837616 C62.4509852,9.14549291 62.8219541,10.2347861 62.891527,11.3323504 C63.0049777,12.5250246 63.4165856,13.6692802 64.0879411,14.6607428 C64.9431576,15.4880415 65.9938215,16.0853442 67.1238283,16.3922688 C68.2170429,16.6634178 69.2215536,17.2123056 70.0417618,17.9860621 L70.2571902,18.1892898 L70.327206,18.4770549 C70.5931235,19.5699759 70.5697885,20.7121994 70.2656195,21.7702441 C69.9621075,22.9295447 69.9587994,24.1479025 70.2552363,25.3094525 C70.7715759,26.3664507 71.5470803,27.2785619 72.5774001,28.0137546 C74.141998,29.3476748 74.6382371,29.8696559 74.7959951,30.7554087 L74.8223106,30.9031603 L74.8040954,31.0521275 C74.6701576,32.1474991 74.2617772,33.1918736 73.6254888,34.0760842 C72.9325954,35.0690231 72.5061992,36.2227788 72.386088,37.4274772 C72.5062222,38.6319479 72.9325601,39.7859217 73.6171576,40.7671493 C74.2617772,41.6631176 74.6701577,42.7074919 74.8040954,43.8028636 L74.8223199,43.951907 L74.7959688,44.0997302 C74.6381651,44.9849693 74.1402882,45.5087741 72.5066935,46.8962451 C71.5456608,47.5770767 70.7717373,48.4881276 70.2552367,49.5455353 C69.9587906,50.7070667 69.9619512,51.9243959 70.2593677,53.061969 C70.5697931,54.1428074 70.5931326,55.2850808 70.327173,56.37751 L70.258045,56.6614533 L70.0468959,56.8634892 C69.2292318,57.6458631 68.2191741,58.1978435 67.144642,58.4573216 C65.9950971,58.7688267 64.9438006,59.3663081 64.0879415,60.1937256 C63.4165214,61.1857885 63.0050275,62.3293167 62.8939898,63.4916453 C62.8219627,64.6200694 62.4510608,65.7088239 61.8191313,66.6460528 L61.6566305,66.8870614 L61.390256,67.0034069 C60.3619681,67.4525364 59.2328966,67.6278105 58.1390075,67.5150645 C56.9446201,67.4218206 55.7464397,67.6302717 54.6537976,68.1205174 Z M36.9437835,66.6107239 C53.0539167,66.5919377 66.1091087,53.5363868 66.1275855,37.4274955 C66.1275855,21.3099286 53.0619239,8.24426705 36.944357,8.24426705 C20.8271552,8.24426705 7.76112863,21.3101256 7.76112863,37.4274955 C7.76112863,53.5446742 20.8268453,66.610414 36.9437835,66.6107239 Z M36.9437835,66.6107239 C36.9439747,66.6107239 36.9441658,66.6107239 36.944357,66.6107239 L36.9432101,66.6107245 C36.9434012,66.6107243 36.9435924,66.6107241 36.9437835,66.6107239 Z" id="Shape" stroke="#FFFFFF" stroke-width="2" fill="#FF0000" fill-rule="nonzero"></path>
                <path d="M37.1225269,17 C48.2303282,17.0123652 57.2326888,26.0141637 57.2444919,37.1225271 C57.2444919,48.2353868 48.2359486,57.2444919 37.1225269,57.2444919 C26.0091052,57.2444919 17,48.2353868 17,37.1225271 C17,26.0091052 26.0091052,17 37.1225269,17 Z" id="Combined-Shape" fill="#FF0000" fill-rule="nonzero"></path>
                <path d="M33.452937,31.723722 L37.012937,31.723722 L31.912937,45.963722 L28.932937,45.963722 L25.952937,37.503722 L22.912937,45.963722 L19.932937,45.963722 L14.852937,31.723722 L18.672937,31.723722 L21.592937,40.703722 L24.772937,31.723722 L27.332937,31.723722 L30.392937,40.863722 L33.452937,31.723722 Z M38.495437,45.963722 L38.495437,31.723722 L42.255437,31.723722 L42.255437,45.963722 L38.495437,45.963722 Z M53.977937,31.723722 L57.517937,31.723722 L57.517937,45.963722 L54.737937,45.963722 L48.277937,37.883722 L48.277937,45.963722 L44.777937,45.963722 L44.777937,31.723722 L47.517937,31.723722 L53.977937,39.763722 L53.977937,31.723722 Z" id="WIN" fill="#FFFFFF" fill-rule="nonzero" transform="translate(36.185437, 38.843722) rotate(-30.000000) translate(-36.185437, -38.843722) "></path>
            </g>
        </g>
    </g>
</svg>