<?xml version="1.0" encoding="UTF-8"?>
<svg width="17px" height="14px" viewBox="0 0 17 14" version="1.1" xmlns="http://www.w3.org/2000/svg" xmlns:xlink="http://www.w3.org/1999/xlink">
    <!-- Generator: Sketch 55 (78076) - https://sketchapp.com -->
    <title>icAdultForums</title>
    <desc>Created with Sketch.</desc>
    <g id="Page-1" stroke="none" stroke-width="1" fill="none" fill-rule="evenodd">
        <g id="Desktop-HD-header4-Final" transform="translate(-706.000000, -1296.000000)" fill="#333333" fill-rule="nonzero">
            <path d="M721.8131,1299 C722.63095,1299 723,1299.6211 723,1300.47838 L723,1306.37032 C723,1307.22963 722.63095,1308.09297 721.8131,1308.09297 L721.71135,1308.09297 L722.0958,1310 L719.4448,1308.09297 L713.61535,1308.09297 C712.79695,1308.09297 712,1307.22761 712,1306.37032 L712,1306.07424 L719.96345,1306.07424 C720.88855,1306.07424 721.35,1305.19744 721.35,1304.22778 L721.35,1299 L721.8131,1299 Z M719.131923,1296 C720.102885,1296 721,1296.86043 721,1297.6898 L721,1298.96377 L721,1304.36158 C721,1305.19038 720.103462,1305.77761 719.131923,1305.77761 L711.053846,1305.77761 L707.264615,1308 L707.855962,1305.76208 C706.947308,1305.67696 706,1305.12538 706,1304.36158 L706,1297.6898 C706,1296.86043 707.118077,1296 708.089615,1296 L719.131923,1296 Z" id="icAdultForums"></path>
        </g>
    </g>
</svg>