<?xml version="1.0" encoding="UTF-8"?>
<svg width="26px" height="26px" viewBox="0 0 26 26" version="1.1" xmlns="http://www.w3.org/2000/svg" xmlns:xlink="http://www.w3.org/1999/xlink">
    <!-- Generator: Sketch 55 (78076) - https://sketchapp.com -->
    <title>icDateCalendar</title>
    <desc>Created with Sketch.</desc>
    <g id="Page-1" stroke="none" stroke-width="1" fill="none" fill-rule="evenodd">
        <g id="Desktop-HD-header4--Prospects-Empty-state" transform="translate(-1107.000000, -905.000000)" fill="#000000" fill-rule="nonzero">
            <g id="Activity" transform="translate(620.000000, 188.000000)">
                <g id="Date-Finder" transform="translate(27.000000, 641.000000)">
                    <g id="Group-43" transform="translate(47.000000, 51.000000)">
                        <g id="Group-21">
                            <g id="Group-19" transform="translate(0.000000, 1.000000)">
                                <g id="Group-13">
                                    <g id="Group-100" transform="translate(390.000000, 15.000000)">
                                        <g id="Group-98">
                                            <path d="M26.2499799,13.0625787 L26.2499799,9.81250502 C26.2499799,9.36335795 26.6133394,9 27.0625954,9 C27.5116372,9 27.8749967,9.36335795 27.8749967,9.81250502 L27.8749967,13.0625787 C27.8749967,13.5116186 27.5116372,13.8749766 27.0625954,13.8749766 C26.6133394,13.8750301 26.2499799,13.5116186 26.2499799,13.0625787 Z M40.0626758,13.8750301 C40.5116104,13.8750301 40.8751842,13.5116722 40.8751842,13.0626323 L40.8751842,9.81250502 C40.8751842,9.36335795 40.5116104,9 40.0626758,9 C39.6135269,9 39.2498995,9.36335795 39.2498995,9.81250502 L39.2498995,13.0625787 C39.2498995,13.5116186 39.6135269,13.8750301 40.0626758,13.8750301 Z M49,28.4997991 C49,32.0897606 46.089695,35 42.4999866,35 C38.9105461,35 36.0000268,32.0897606 36.0000268,28.4997991 C36.0000268,24.9103734 38.9104925,21.9999732 42.4999866,21.9999732 C46.089695,21.9999732 49,24.9103198 49,28.4997991 Z M47.3751976,28.4997991 C47.3751976,25.8119362 45.1883964,23.6248761 42.5000402,23.6248761 C39.8118983,23.6248761 37.6250971,25.8118826 37.6250971,28.4997991 C37.6250971,31.1881978 39.8118983,33.3749364 42.5000402,33.3749364 C45.1883964,33.3749364 47.3751976,31.1881978 47.3751976,28.4997991 Z M29.500067,18.7500067 L26.2499799,18.7500067 L26.2499799,21.9999732 L29.500067,21.9999732 L29.500067,18.7500067 Z M26.2499799,26.8750033 L29.500067,26.8750033 L29.500067,23.6248761 L26.2499799,23.6248761 L26.2499799,26.8750033 Z M31.1249766,21.9999732 L34.3751172,21.9999732 L34.3751172,18.7500067 L31.1249766,18.7500067 L31.1249766,21.9999732 Z M31.1249766,26.8750033 L34.3751172,26.8750033 L34.3751172,23.6248761 L31.1249766,23.6248761 L31.1249766,26.8750033 Z M24.6250703,28.3382411 L24.6250703,17.1249431 L42.5000402,17.1249431 L42.5000402,20.3750167 L44.1251105,20.3750167 L44.1251105,14.0369631 C44.1251105,13.0498791 43.3378407,12.2499665 42.3652205,12.2499665 L41.6875318,12.2499665 L41.6875318,13.0626323 C41.6875318,13.9575506 40.958991,14.6875887 40.0627294,14.6875887 C39.1661999,14.6875887 38.4377127,13.9575506 38.4377127,13.0626323 L38.4377127,12.2499665 L28.6874514,12.2499665 L28.6874514,13.0626323 C28.6874514,13.9575506 27.9590714,14.6875887 27.062649,14.6875887 C26.1660123,14.6875887 25.4375787,13.9575506 25.4375787,13.0626323 L25.4375787,12.2499665 L24.7606938,12.2499665 C23.7880201,12.2499665 23,13.0498791 23,14.0369631 L23,28.3382947 C23,29.3221101 23.7880201,30.1251306 24.7606938,30.1251306 L34.3751172,30.1251306 L34.3751172,28.4998526 L24.7606938,28.4998526 C24.6870681,28.4997991 24.6250703,28.4237623 24.6250703,28.3382411 Z M39.2498995,21.9999732 L39.2498995,18.7500067 L36.0000804,18.7500067 L36.0000804,21.9999732 L39.2498995,21.9999732 Z M44.9375653,28.4997991 L42.4999866,28.4997991 L42.4999866,26.0622304 C42.4999866,25.6133512 42.1366272,25.2499933 41.6874782,25.2499933 C41.2383293,25.2499933 40.8751842,25.6133512 40.8751842,26.0622304 L40.8751842,29.312572 C40.8751842,29.7615047 41.2383293,30.125077 41.6874782,30.125077 L44.9375653,30.125077 C45.3867142,30.125077 45.7500737,29.7615047 45.7500737,29.312572 C45.7500737,28.8634249 45.3867142,28.4997991 44.9375653,28.4997991 Z" id="icDateCalendar"></path>
                                        </g>
                                    </g>
                                </g>
                            </g>
                        </g>
                    </g>
                </g>
            </g>
        </g>
    </g>
</svg>