<?xml version="1.0" encoding="UTF-8"?>
<svg width="20px" height="20px" viewBox="0 0 20 20" version="1.1" xmlns="http://www.w3.org/2000/svg" xmlns:xlink="http://www.w3.org/1999/xlink">
    <!-- Generator: Sketch 54 (76480) - https://sketchapp.com -->
    <title>icEditHS</title>
    <desc>Created with Sketch.</desc>
    <g id="Page-1" stroke="none" stroke-width="1" fill="none" fill-rule="evenodd">
        <g id="Desktop-HD-header4-Final" transform="translate(-606.000000, -192.000000)" fill="#333333" fill-rule="nonzero">
            <g id="LeftSide-Bar" transform="translate(358.000000, 172.000000)">
                <g id="User-profile-v2">
                    <g id="Group-2" transform="translate(240.000000, 12.000000)">
                        <g id="pencil" transform="translate(8.000000, 8.000000)">
                            <path d="M0,14.1414584 L0,19.3939394 L5.45456076,19.3939394 L16.3636364,8.88893311 L10.9089838,3.63636364 L0,14.1414584 Z M4.75957741,17.7777302 L4.75957741,17.7777302 L3.35656799,17.777907 L3.35656799,16.1616978 L1.67832992,16.1616978 L1.67832992,14.8105228 L2.87150791,13.6615398 L5.9527554,16.6286145 L4.75957741,17.7777302 Z M11.3289221,5.78290674 C11.5209806,5.78290674 11.6171476,5.87555596 11.6171476,6.06063328 C11.6171476,6.14492416 11.5866534,6.21634588 11.5253435,6.27538488 L4.41863005,13.1188233 C4.35741199,13.1775527 4.28305938,13.2070501 4.19570999,13.2070501 C4.0035597,13.2070501 3.90734678,13.1142682 3.90734678,12.9293678 C3.90734678,12.8450769 3.93793284,12.7736552 3.99905905,12.7146162 L11.1058184,5.87126623 C11.1668527,5.8123599 11.2412054,5.78290674 11.3289221,5.78290674 Z M19.5288634,3.72824992 C19.8429842,4.08477997 19.9998217,4.50069968 20,4.975769 C20,5.46015246 19.8431179,5.87136709 19.5291755,6.2095089 L17.4162829,8.48484848 L12.1212121,2.78257631 L14.2341047,0.520823849 C14.5395321,0.173751983 14.9211046,0 15.3795355,0 C15.8293176,0 16.2154374,0.173751983 16.5378503,0.520823849 L19.5288634,3.72824992 Z" id="icEditHS"></path>
                        </g>
                    </g>
                </g>
            </g>
        </g>
    </g>
</svg>