<?xml version="1.0" encoding="UTF-8"?>
<svg width="21px" height="18px" viewBox="0 0 21 18" version="1.1" xmlns="http://www.w3.org/2000/svg" xmlns:xlink="http://www.w3.org/1999/xlink">
    <!-- Generator: Sketch 54 (76480) - https://sketchapp.com -->
    <title>icEroticStoriesHS</title>
    <desc>Created with Sketch.</desc>
    <g id="Page-1" stroke="none" stroke-width="1" fill="none" fill-rule="evenodd">
        <g id="Desktop-HD-header4-Final" transform="translate(-706.000000, -2771.000000)" fill="#333333" fill-rule="nonzero">
            <g id="Activity" transform="translate(670.000000, 173.000000)">
                <g id="Erotic-Story" transform="translate(28.000000, 2588.000000)">
                    <g id="Group-47">
                        <g id="Group-63">
                            <g id="Group-73">
                                <g id="Group-59" transform="translate(0.000000, 1.000000)">
                                    <g id="Group-51" transform="translate(8.000000, 9.000000)">
                                        <g id="book">
                                            <path d="M20.637931,15.6142241 C20.8378822,15.6142241 21,15.7763419 21,15.9762931 L21,17.424569 C21,17.6245201 20.8378822,17.7866379 20.637931,17.7866379 L0.362068966,17.7866379 C0.162117782,17.7866379 0,17.6245201 0,17.424569 L0,15.9762931 C0,15.7763419 0.162117782,15.6142241 0.362068966,15.6142241 L9.98589036,15.6142241 C9.13181067,14.7383991 7.3663709,14.1659483 5.43103448,14.1659483 C3.80172414,14.1659483 2.25179316,14.5759277 1.2893403,15.2624091 L0.86893017,14.6728095 C1.96574456,13.8905071 3.6282917,13.4418103 5.43103448,13.4418103 C6.12122845,13.4398656 6.8098313,13.5086375 7.48605873,13.6470652 C6.95815937,13.4301421 6.41169687,13.2613062 5.85321255,13.1428559 C4.25837656,12.8039467 2.66018152,12.8831492 1.57397462,13.353945 L1.28421336,12.6897393 C2.51927867,12.1547683 4.23910625,12.0612456 6.00277813,12.4363971 C8.00175948,12.8614039 9.68127861,13.8144868 10.5,14.9466595 C11.3187214,13.8144868 12.9982405,12.8624647 14.9982826,12.4381651 C16.7616009,12.0615992 18.4814285,12.1547683 19.7168474,12.6916841 L19.4270862,13.3557129 C18.3431775,12.8849171 16.7435682,12.8057146 15.1478482,13.1446239 C14.5895407,13.2630741 14.0429014,13.43191 13.515002,13.64901 C14.1906991,13.5100518 14.8789483,13.4405728 15.5689655,13.4418103 C17.3717083,13.4418103 19.0342554,13.8905071 20.1310698,14.6728095 L19.7106597,15.2618787 C18.7482068,14.5759277 17.1982759,14.1659483 15.5689655,14.1659483 C13.6336291,14.1659483 11.8681893,14.7383991 11.0141096,15.6142241 L20.637931,15.6142241 Z M10.3313409,11.5899195 C10.0422869,11.4378788 3.25862069,7.82355367 3.25862069,4.02801724 C3.26127257,1.82943831 5.04280038,0.0479104953 7.24137931,0.0452586207 C8.54079676,0.0401316789 9.75942047,0.674636315 10.5,1.74228012 C11.2405795,0.674636315 12.4592032,0.0401316789 13.7586207,0.0452586207 C15.9571996,0.0479104953 17.7387274,1.82943831 17.7413793,4.02801724 C17.7413793,7.82355367 10.9573596,11.4378788 10.6683055,11.5899195 C10.5629378,11.6454321 10.4367086,11.6454321 10.3313409,11.5899195 Z" id="icEroticStoriesHS"></path>
                                        </g>
                                    </g>
                                </g>
                            </g>
                        </g>
                    </g>
                </g>
            </g>
        </g>
    </g>
</svg>