<?xml version="1.0" encoding="UTF-8"?>
<svg width="16px" height="20px" viewBox="0 0 16 20" version="1.1" xmlns="http://www.w3.org/2000/svg" xmlns:xlink="http://www.w3.org/1999/xlink">
    <!-- Generator: Sketch 54 (76480) - https://sketchapp.com -->
    <title>icEnventSuggestions</title>
    <desc>Created with Sketch.</desc>
    <g id="Page-1" stroke="none" stroke-width="1" fill="none" fill-rule="evenodd">
        <g id="Desktop-HD-header4-Final" transform="translate(-705.000000, -460.000000)" fill="#333333" fill-rule="nonzero">
            <g id="Activity" transform="translate(670.000000, 173.000000)">
                <g id="Event-Suggestions" transform="translate(26.000000, 278.000000)">
                    <g id="Group-64">
                        <g id="Group-63">
                            <g id="Group-59" transform="translate(0.000000, 1.000000)">
                                <g id="Group" transform="translate(9.000000, 8.000000)">
                                    <path d="M3.15058592,6.33063492 L0.10996092,3.10236775 C-0.000195320001,2.98533443 -0.03066408,2.81352798 0.03222656,2.66516757 C0.0955078,2.51700419 0.24003908,2.4208556 0.39980468,2.4208556 L5.03464881,2.4208556 L3.43457032,0.807017544 L2.40019532,0.807017544 C2.17910156,0.807017544 2.00019532,0.626344918 2.00019532,0.403508772 C2.00019532,0.180672626 2.17910156,5.81756865e-14 2.40019532,5.81756865e-14 L3.60019532,5.81756865e-14 C3.70644532,5.81756865e-14 3.80800784,0.042557586 3.88300784,0.118215481 L6.16599659,2.4208556 L15.6001953,2.4208556 C15.759961,2.4208556 15.9044922,2.51700419 15.9677734,2.66516757 C16.0306641,2.81333095 16.0001953,2.98533443 15.8900391,3.10236775 L12.8498047,6.33063496 C12.8473511,6.33324481 12.8448664,6.33581771 12.8423515,6.33835332 L8.40019532,11.0559709 L8.40019532,16.607687 L12.4685547,17.318171 C12.6603516,17.3516653 12.8001954,17.5195313 12.8001954,17.715769 L12.8001954,18.9649123 C12.8001953,19.1877484 12.6212891,19.3684211 12.4001953,19.3684211 L3.60019532,19.3684211 C3.37910156,19.3684211 3.20019532,19.1877484 3.20019532,18.9649123 L3.20019532,17.754386 C3.20019532,17.5593305 3.33847656,17.3922526 3.52871096,17.3573791 L7.60019532,16.6106156 L7.60019532,11.0553584 L3.15059439,6.33064391 Z M3.61230468,5.64912281 L12.3880859,5.64912281 L14.6685547,3.22787314 L1.33144532,3.22787314 L3.61230468,5.64912281 Z" id="icEnventSuggestions"></path>
                                </g>
                            </g>
                        </g>
                    </g>
                </g>
            </g>
        </g>
    </g>
</svg>