<?xml version="1.0" encoding="UTF-8"?>
<svg width="46px" height="35px" viewBox="0 0 46 35" version="1.1" xmlns="http://www.w3.org/2000/svg" xmlns:xlink="http://www.w3.org/1999/xlink">
    <!-- Generator: Sketch 54 (76480) - https://sketchapp.com -->
    <title>icEyeHS</title>
    <desc>Created with Sketch.</desc>
    <defs>
        <path d="M55.8244275,33.5801527 C60.0909326,33.5801527 63.5496183,30.2000734 63.5496183,26.0305344 C63.5496183,21.8609953 60.0909326,18.480916 55.8244275,18.480916 C51.5579224,18.480916 48.0992366,21.8609953 48.0992366,26.0305344 C48.0992366,30.2000734 51.5579224,33.5801527 55.8244275,33.5801527 Z M78.9543701,25.7413265 C75.6947148,15.7273984 66.4697312,9 55.9999495,9 C45.5301677,9 36.305274,15.7273984 33.0456186,25.7413265 C32.9847938,25.928928 32.9847938,26.1321407 33.0456186,26.3197422 C36.305274,36.3336704 45.5302575,43.0610687 56.0000393,43.0610687 C66.4698211,43.0610687 75.6947148,36.3336704 78.95446,26.3197422 C79.015195,26.1321407 79.015195,25.928928 78.9543701,25.7413265 Z M55.8244275,39.1984733 C48.4666559,39.1984733 42.480916,33.291405 42.480916,26.0305344 C42.480916,18.7696637 48.4667452,12.8625954 55.8244275,12.8625954 C63.1821097,12.8625954 69.1679389,18.7696637 69.1679389,26.0305344 C69.1679389,33.291405 63.1821991,39.1984733 55.8244275,39.1984733 Z" id="path-1"></path>
    </defs>
    <g id="Page-1" stroke="none" stroke-width="1" fill="none" fill-rule="evenodd">
        <g id="Desktop-HD-header4-Final" transform="translate(-481.000000, -1550.000000)">
            <g id="LeftSide-Bar" transform="translate(358.000000, 172.000000)">
                <g id="Prospects-V2" transform="translate(0.000000, 528.000000)">
                    <g id="Prospects-views---Emp-state" transform="translate(0.000000, 747.000000)">
                        <g id="Prospects---Views">
                            <g id="No-matches-yet" transform="translate(90.000000, 94.000000)">
                                <mask id="mask-2" fill="white">
                                    <use xlink:href="#path-1"></use>
                                </mask>
                                <use id="icEyeHS" fill="#A5A5A5" fill-rule="nonzero" xlink:href="#path-1"></use>
                            </g>
                        </g>
                    </g>
                </g>
            </g>
        </g>
    </g>
</svg>