<?xml version="1.0" encoding="UTF-8"?>
<svg width="20px" height="15px" viewBox="0 0 20 15" version="1.1" xmlns="http://www.w3.org/2000/svg" xmlns:xlink="http://www.w3.org/1999/xlink">
    <!-- Generator: Sketch 54 (76480) - https://sketchapp.com -->
    <title>icHotMemberHS</title>
    <desc>Created with Sketch.</desc>
    <g id="Page-1" stroke="none" stroke-width="1" fill="none" fill-rule="evenodd">
        <g id="Desktop-HD-header4-Final" transform="translate(-704.000000, -203.000000)" fill="#333333" fill-rule="nonzero">
            <g id="Activity" transform="translate(670.000000, 173.000000)">
                <g id="Hot-Members" transform="translate(26.000000, 18.000000)">
                    <g id="Group-64">
                        <path d="M17.9999651,19.2946717 C19.7531146,19.2946717 21.116652,17.5280327 21.116652,15.699242 L21.116652,15.1263073 C21.116652,13.2975844 19.7531146,12 17.9999651,12 C16.2467458,12 14.8832083,13.2975166 14.8832083,15.1263073 L14.8832083,15.699242 C14.8832083,17.5280327 16.2467458,19.2946717 17.9999651,19.2946717 Z M11.7556969,19.8861298 C12.2569759,19.8861298 13.6287539,19.2542325 13.6287539,17.9430778 L13.6287539,16.9715179 C13.6287539,15.6602954 12.6391854,15.0283981 11.7556969,15.0283981 C10.9015394,15.0283981 9.88270979,15.6602954 9.88270979,16.9715179 L9.88270979,17.9430778 C9.88270979,19.2542325 11.2810951,19.8861298 11.7556969,19.8861298 Z M22.978256,22.3154705 C22.9772783,22.3059714 22.9743452,22.2969472 22.9733675,22.2875159 C22.958702,22.1731189 22.936215,22.0612325 22.9049986,21.9516529 C22.9049986,21.9506352 22.9049986,21.9497531 22.9040209,21.9488032 C22.838585,21.7158704 22.7281752,21.4914868 22.5632238,21.2704279 L22.5632238,21.269478 C22.2926812,20.9056604 21.8845628,20.5345827 21.221475,20.1727328 C20.870901,19.9814606 20.7165646,19.8937969 20.4998652,19.8937969 C20.1551573,19.8937969 19.854376,20.1542095 19.3476499,20.6063013 L19.3466023,20.6063013 L18.8856883,21.0180218 C18.8690674,21.0332883 18.3721183,21.7153954 18.0000349,21.7153954 C17.6279516,21.7153954 17.1309326,21.0332205 17.1143117,21.0180218 L16.6533977,20.6063013 L16.65242,20.6063013 C16.1456938,20.1542095 15.8449125,19.8937969 15.5002047,19.8937969 C15.2834354,19.8937969 15.0899911,19.9814606 14.7785948,20.1727328 C14.1356895,20.5670156 13.707249,20.9051854 13.4378237,21.2684602 L13.4367762,21.2689352 C13.4357985,21.2698851 13.4357985,21.2713778 13.4348907,21.272192 C13.271755,21.4914189 13.1623927,21.7143777 13.0970267,21.9458856 C13.0961188,21.9477854 13.0950014,21.9501602 13.0942333,21.9524672 C13.0638548,22.0612325 13.0413678,22.1716262 13.0267722,22.2850054 C13.0257945,22.2955223 13.0228614,22.3054286 13.0218139,22.3158777 C13.0081261,22.4363812 13.0003744,22.5592595 13.0003744,22.6868196 C13.0003744,22.7010005 13.0000951,25.3462435 13.0003744,25.3585924 C13.0003744,26.2219298 13.3353053,26.5729914 14.2502895,26.5729914 L21.74992,26.5729914 C22.6727956,26.5729914 22.9998351,26.2408602 22.9998351,25.3585924 C23.0001145,25.3462435 22.9997653,22.7010005 22.9997653,22.6868196 C22.9996954,22.5593274 22.9918739,22.4364491 22.978256,22.3154705 Z M24.2551974,19.8861298 C24.7564065,19.8861298 26.1283242,19.2542325 26.1283242,17.9430778 L26.1283242,16.9715179 C26.1283242,15.6602954 25.1387557,15.0283981 24.2551974,15.0283981 C23.40097,15.0283981 22.3821404,15.6602954 22.3821404,16.9715179 L22.3821404,17.9430778 C22.3821404,19.2542325 23.7805258,19.8861298 24.2551974,19.8861298 Z M9.42228457,21.2011519 C8.25917493,21.8444482 8.00043453,22.8700854 8.00043453,23.5370617 C8.00043453,23.547443 7.99945684,24.7420294 8.00043453,24.7514607 C8.00043453,25.6328465 8.30512666,25.9659276 9.25034966,25.9659276 L11.7502498,25.9659276 C11.7502498,25.9659276 11.7502498,23.3852788 11.7502498,22.3225949 L11.1252922,21.7153954 C10.46409,21.1489744 9.90666335,20.933615 9.42228457,21.2011519 Z M11.7502498,22.3225949 C11.7699498,22.3341296 11.7502498,22.0342277 11.7502498,22.3225949 L11.7502498,22.3225949 Z M27.9995655,23.5370617 C27.9995655,22.8700176 27.7407552,21.8443804 26.5777154,21.2011519 C26.0933366,20.933615 25.53591,21.1489744 24.8747078,21.7154633 L24.2497502,22.3226628 C24.2497502,23.3852788 24.2497502,25.9659954 24.2497502,25.9659954 L26.7496503,25.9659954 C27.6948733,25.9659954 27.9995655,25.6329144 27.9995655,24.7515286 C28.0005432,24.7420294 27.9995655,23.5475108 27.9995655,23.5370617 Z M24.2523081,22.3225949 C24.2523081,22.0342277 24.2327081,22.3341296 24.2523081,22.3225949 L24.2523081,22.3225949 Z" id="icHotMemberHS"></path>
                    </g>
                </g>
            </g>
        </g>
    </g>
</svg>