<?xml version="1.0" encoding="UTF-8"?>
<svg width="46px" height="46px" viewBox="0 0 46 46" version="1.1" xmlns="http://www.w3.org/2000/svg" xmlns:xlink="http://www.w3.org/1999/xlink">
    <!-- Generator: Sketch 54 (76480) - https://sketchapp.com -->
    <title>icNoMatchHS</title>
    <desc>Created with Sketch.</desc>
    <defs>
        <path d="M2.70702156,15.9106578 C4.5127172,13.9710956 6.88687117,13 9.26424152,13 C11.6416119,13 14.0277124,13.9710996 15.8334463,15.9106578 L17.9992243,18.2440965 L20.1650406,15.922939 C23.7764701,12.0437401 29.6800365,12.0438266 33.2914278,15.922939 C36.9028574,19.8020554 36.9028574,26.0321658 33.2914278,29.9112862 C28.3767484,35.1903007 23.464289,40.4752103 18.5496479,45.7541069 C18.4049882,45.9110695 18.2037599,46 17.993251,46 C17.7827422,46 17.5815138,45.9110695 17.4368541,45.7541069 L2.70702156,29.8989853 C-0.900272546,26.0168624 -0.904407902,19.7897113 2.70702156,15.9106578 Z M30.2783157,1.32302626 C31.1310053,0.441407113 32.2521336,0 33.3747807,2.03086139e-14 C34.4974278,2.03086139e-14 35.6241975,0.441408899 36.4769052,1.32302626 L37.4996337,2.38368022 L38.5223803,1.32860865 C40.2277776,-0.434663586 43.0155728,-0.434624286 44.720952,1.32860865 C46.4263493,3.09184337 46.4263493,5.92371175 44.720952,7.68694826 C42.4001312,10.0865003 40.0803587,12.4887319 37.7595559,14.8882304 C37.6912444,14.959577 37.5962199,15 37.496813,15 C37.397406,15 37.3023815,14.959577 37.23407,14.8882304 L30.2783157,7.68135693 C28.5748713,5.91675564 28.5729185,3.0862324 30.2783157,1.32302626 Z" id="path-1"></path>
    </defs>
    <g id="Page-1" stroke="none" stroke-width="1" fill="none" fill-rule="evenodd">
        <g id="Desktop-HD-header4-Final" transform="translate(-481.000000, -2039.000000)">
            <g id="LeftSide-Bar" transform="translate(358.000000, 172.000000)">
                <g id="Prospects-V2" transform="translate(0.000000, 528.000000)">
                    <g id="Prospects-Matches---Emp-state" transform="translate(0.000000, 1245.000000)">
                        <g id="Prospects---Views">
                            <g id="No-matches-yet" transform="translate(103.000000, 94.000000)">
                                <g id="heart-icon" transform="translate(20.000000, 0.000000)">
                                    <mask id="mask-2" fill="white">
                                        <use xlink:href="#path-1"></use>
                                    </mask>
                                    <use id="icNoMatchHS" fill="#A5A5A5" xlink:href="#path-1"></use>
                                </g>
                            </g>
                        </g>
                    </g>
                </g>
            </g>
        </g>
    </g>
</svg>