<?xml version="1.0" encoding="UTF-8"?>
<svg width="20px" height="20px" viewBox="0 0 20 20" version="1.1" xmlns="http://www.w3.org/2000/svg" xmlns:xlink="http://www.w3.org/1999/xlink">
    <!-- Generator: Sketch 54 (76480) - https://sketchapp.com -->
    <title>icSetting</title>
    <desc>Created with Sketch.</desc>
    <g id="Page-1" stroke="none" stroke-width="1" fill="none" fill-rule="evenodd">
        <g id="Desktop-HD-header4-Final" transform="translate(-383.000000, -192.000000)" fill="#333333" fill-rule="nonzero">
            <g id="LeftSide-Bar" transform="translate(358.000000, 172.000000)">
                <g id="User-profile-v2">
                    <g id="Group-11" transform="translate(17.000000, 12.000000)">
                        <g id="Group-2-Copy-2">
                            <g id="Group-10">
                                <path d="M25.3518229,15.3865856 L25.2566889,15.3526987 L24.8851306,14.4663971 L24.9254233,14.3753294 C26.051023,11.8243005 25.9734122,11.7482036 25.7867137,11.5632579 L24.2852832,10.099582 C24.2238976,10.0387262 24.1161079,9.99592167 24.0231913,9.99592167 C23.9387118,9.99592167 23.6828396,9.99592167 21.4653348,10.9995573 L21.3764204,11.0394434 L20.4615326,10.6712815 L20.4248095,10.5802679 C19.3820127,8 19.2751965,8 19.0157006,8 L16.8953309,8 C16.6368086,8 16.5190674,8 15.5520966,10.5847537 L15.5156979,10.6788479 L14.6055696,11.049604 L14.5185482,11.0134472 C13.0176044,10.3811081 12.1412246,10.0604527 11.9127731,10.0604527 C11.8200728,10.0604527 11.7119045,10.1020141 11.6502485,10.1627079 L10.1474118,11.6305994 C9.95676512,11.8185176 9.87769407,11.8972087 11.0622455,14.3950022 L11.1057832,14.4876372 L10.7336301,15.372966 L10.6425523,15.40815 C8,16.428648 8,16.5281469 8,16.7939455 L8,18.8702877 C8,19.1367889 8,19.2474753 10.6477985,20.1957138 L10.7424458,20.2291142 L11.114653,21.1118488 L11.0746848,21.2020517 C9.94908517,23.7542697 10.0204763,23.8233406 10.2120965,24.013799 L11.7112555,25.4794745 C11.7741013,25.539844 11.8828645,25.5829728 11.9756189,25.5829728 C12.0595575,25.5829728 12.3148347,25.5829728 14.5337999,24.5798235 L14.6226602,24.5382621 L15.5381429,24.9082615 L15.5737302,24.9997616 C16.617176,27.5791647 16.7243709,27.5791647 16.9840289,27.5791647 L19.1050477,27.5791647 C19.3713581,27.5791647 19.481798,27.5791647 20.449526,24.9926815 L20.4856001,24.8985333 L21.3971887,24.5302633 L21.4839397,24.5656094 C22.9836395,25.199732 23.8595867,25.5197389 24.0865779,25.5197389 C24.1784669,25.5197389 24.2876088,25.4794745 24.3502923,25.4174296 L25.8555628,23.9463494 C26.0449115,23.7574584 26.1238203,23.6802266 24.9371596,21.184811 L24.8930269,21.0910951 L25.2645311,20.2096036 L25.3532291,20.174852 C28,19.1490034 28,19.0490181 28,18.7828952 L28,16.707796 C27.9999459,16.4413489 27.9999459,16.3313111 25.3518229,15.3865856 Z M17.9999459,21.1570313 C16.1049449,21.1570313 14.5633299,19.645957 14.5633299,17.7899607 C14.5633299,15.9339102 16.104999,14.4248356 17.9999459,14.4248356 C19.8941357,14.4248356 21.4354803,15.9342345 21.4354803,17.7899607 C21.4355344,19.6456328 19.8941897,21.1570313 17.9999459,21.1570313 Z" id="icSetting"></path>
                            </g>
                        </g>
                    </g>
                </g>
            </g>
        </g>
    </g>
</svg>