<?xml version="1.0" encoding="UTF-8"?>
<svg width="21px" height="22px" viewBox="0 0 21 22" version="1.1" xmlns="http://www.w3.org/2000/svg" xmlns:xlink="http://www.w3.org/1999/xlink">
    <!-- Generator: Sketch 54 (76480) - https://sketchapp.com -->
    <title>icSuccessStoryHS</title>
    <desc>Created with Sketch.</desc>
    <g id="Page-1" stroke="none" stroke-width="1" fill="none" fill-rule="evenodd">
        <g id="Desktop-HD-header4-Final" transform="translate(-704.000000, -1848.000000)" fill="#333333" fill-rule="nonzero">
            <g id="Activity" transform="translate(670.000000, 173.000000)">
                <g id="Success-Story" transform="translate(27.000000, 1667.000000)">
                    <g id="Group-47">
                        <g id="rating" transform="translate(7.000000, 8.000000)">
                            <path d="M13.3957672,12.1750717 C13.3957672,13.78125 12.0936813,15.0833359 10.487503,15.0833359 C8.88132476,15.0833359 7.57923887,13.78125 7.57923887,12.1750717 C7.57923887,10.5688935 8.88132476,9.26680757 10.487503,9.26680757 C12.0936813,9.26680757 13.3957672,10.5688935 13.3957672,12.1750717 Z M10.471962,15.0834961 C12.9069443,15.0750046 14.8835449,17.0464783 14.8835449,19.479538 L14.8835449,20.4257813 C14.8835449,20.7656021 14.6081314,21.0410156 14.2683105,21.0410156 L6.70653535,21.0410156 C6.36687471,21.0410156 6.09130097,20.7656021 6.09130097,20.4257813 L6.09130097,19.5272827 C6.09130097,17.0975876 8.04226685,15.0918274 10.471962,15.0834961 Z M5.75292207,7.05308535 L5.88638306,8.718544 C5.9230728,9.17692568 5.4611664,9.51193999 5.03691103,9.33570098 L3.49417876,8.69419097 L1.95112608,9.33570098 C1.51966094,9.51514434 1.06560517,9.16987608 1.10165405,8.718544 L1.23511504,7.05308535 L0.148200979,5.7840042 C-0.150924703,5.43489073 0.0257949727,4.89207461 0.472641012,4.78536987 L2.09804536,4.39732363 L2.96914673,2.97138975 C3.21780396,2.56459809 3.78865815,2.59391787 4.01921084,2.97138975 L4.89015196,4.39732363 L6.51555635,4.78536987 C6.96288301,4.89223481 7.13864136,5.43537139 6.83983613,5.7840042 L5.75292207,7.05308535 Z M19.764885,7.05308535 L19.8983459,8.718544 C19.9350357,9.17692568 19.4731293,9.51193999 19.0488739,9.33570098 L17.5061417,8.69419097 L15.963089,9.33570098 C15.5316238,9.51514434 15.0775681,9.16987608 15.1136169,8.718544 L15.2470779,7.05308535 L14.1601639,5.7840042 C13.8610382,5.43489073 14.0377579,4.89207461 14.4846039,4.78536987 L16.1100083,4.39732363 L16.9811096,2.97138975 C17.2297668,2.56459809 17.800621,2.59391787 18.0311737,2.97138975 L18.9021148,4.39732363 L20.5275192,4.78536987 C20.9748459,4.89223481 21.1506042,5.43537139 20.851799,5.7840042 L19.764885,7.05308535 Z M12.7589035,4.41687012 L12.8923645,6.08232881 C12.9290543,6.54071045 12.4671478,6.8757248 12.0428925,6.699646 L10.5001602,6.05797578 L8.95710752,6.699646 C8.52564238,6.87892915 8.07142637,6.5338211 8.1076355,6.08232881 L8.24109649,4.41687012 L7.15418242,3.14778901 C6.85505674,2.79867554 7.03177642,2.25585937 7.47846221,2.14915468 L9.1038666,1.7611084 L9.97512817,0.335174561 C10.2237854,-0.0716171367 10.7946396,-0.0422973633 11.0251923,0.335334768 L11.8961334,1.7611084 L13.5215378,2.14915468 C13.9688645,2.25601958 14.1446228,2.7991562 13.8458176,3.14778901 L12.7589035,4.41687012 Z" id="icSuccessStoryHS"></path>
                        </g>
                    </g>
                </g>
            </g>
        </g>
    </g>
</svg>