<?xml version="1.0" encoding="UTF-8"?>
<svg width="17px" height="17px" viewBox="0 0 17 17" version="1.1" xmlns="http://www.w3.org/2000/svg" xmlns:xlink="http://www.w3.org/1999/xlink">
    <!-- Generator: Sketch 54 (76480) - https://sketchapp.com -->
    <title>icVideoHS</title>
    <desc>Created with Sketch.</desc>
    <g id="Page-1" stroke="none" stroke-width="1" fill="none" fill-rule="evenodd">
        <g id="Desktop-HD-header4-Final" transform="translate(-706.000000, -2385.000000)" fill="#333333" fill-rule="nonzero">
            <g id="Activity" transform="translate(670.000000, 173.000000)">
                <g id="on-the-ground-video" transform="translate(27.000000, 2202.000000)">
                    <g id="Group-47">
                        <g id="image-gallery" transform="translate(9.000000, 10.000000)">
                            <g id="Group-75">
                                <path d="M2.54938602,11.563401 C2.54938602,13.1667272 3.86968748,14.4870286 5.47265315,14.4866681 L12.5652174,14.4866681 L12.5652174,15.5394481 C12.5652174,16.3470601 11.9025429,17 11.0956519,17 L1.45730707,17 C0.650055578,17 -1.54543045e-13,16.3470601 -1.54543045e-13,15.5394481 L-1.54543045e-13,5.90146375 C-1.54543045e-13,5.09493334 0.650055578,4.43478261 1.45730707,4.43478261 L2.54938602,4.43478261 L2.54938602,11.563401 Z M15.5394481,7.28306304e-14 C16.3459785,7.28306304e-14 17,0.653300448 17,1.46091248 L17,11.0988968 C17,11.9068694 16.3459785,12.5652174 15.5394481,12.5652174 L5.90074266,12.5652174 C5.09421226,12.5652174 4.43478261,11.9068694 4.43478261,11.0988968 L4.43478261,1.46055194 C4.43478261,0.653660989 5.09385171,7.28306304e-14 5.90074266,7.28306304e-14 L15.5394481,7.28306304e-14 Z M10.120762,9.54611376 L13.2654261,7.01156341 C13.6330254,6.71549879 13.6330254,6.23688216 13.2654261,5.94067636 L10.120762,3.40626719 C9.91759654,3.24249277 9.61126379,3.19307807 9.34489515,3.2813186 C9.07852651,3.36941795 8.9047619,3.57766559 8.9047619,3.80878519 L8.9047619,9.14373695 C8.9047619,9.37457417 9.07852651,9.58310419 9.34489515,9.67106235 C9.61108774,9.75930288 9.91759654,9.70988818 10.120762,9.54611376 Z" id="icVideoHS"></path>
                            </g>
                        </g>
                    </g>
                </g>
            </g>
        </g>
    </g>
</svg>