<?xml version="1.0" encoding="UTF-8"?>
<svg width="21px" height="15px" viewBox="0 0 21 15" version="1.1" xmlns="http://www.w3.org/2000/svg" xmlns:xlink="http://www.w3.org/1999/xlink">
    <!-- Generator: Sketch 55 (78076) - https://sketchapp.com -->
    <title>“</title>
    <desc>Created with Sketch.</desc>
    <g id="Page-1" stroke="none" stroke-width="1" fill="none" fill-rule="evenodd">
        <g id="Desktop-HD-header4-Final" transform="translate(-760.000000, -1911.000000)" fill="#86D053">
            <g id="Activity" transform="translate(670.000000, 173.000000)">
                <g id="Success-Story" transform="translate(27.000000, 1667.000000)">
                    <g id="Group-37-Copy" transform="translate(47.000000, 10.000000)">
                        <g id="Group-34">
                            <g id="Group-21-Copy">
                                <g id="Group-19" transform="translate(0.000000, 41.000000)">
                                    <g id="Group-13">
                                        <g id="Group-15" transform="translate(16.000000, 12.000000)">
                                            <g id="Group-48">
                                                <path d="M20.2518191,10.6763592 C17.6697731,11.9462179 16.3787695,13.4382795 16.3787695,15.1525887 C17.4793137,15.2795746 18.3893654,15.7293095 19.108952,16.5018068 C19.8285386,17.2743042 20.1883265,18.1684829 20.1883265,19.1843699 C20.1883265,20.2637498 19.8391206,21.1738015 19.1406983,21.9145524 C18.4422761,22.6553033 17.5639703,23.0256732 16.5057547,23.0256732 C15.3205533,23.0256732 14.2940996,22.5441924 13.4263628,21.5812162 C12.558626,20.61824 12.1247642,19.4489293 12.1247642,18.0732491 C12.1247642,13.9462084 14.4316395,10.7186993 19.0454594,8.390625 L20.2518191,10.6763592 Z M8.63267022,10.6763592 C6.0294599,11.9462179 4.72787427,13.4382795 4.72787427,15.1525887 C5.84958278,15.2795746 6.77021652,15.7293095 7.48980311,16.5018068 C8.2093897,17.2743042 8.5691776,18.1684829 8.5691776,19.1843699 C8.5691776,20.2637498 8.2146807,21.1738015 7.50567626,21.9145524 C6.79667183,22.6553033 5.91307508,23.0256732 4.8548595,23.0256732 C3.66965806,23.0256732 2.64849535,22.5441924 1.79134073,21.5812162 C0.934186114,20.61824 0.505615234,19.4489293 0.505615234,18.0732491 C0.505615234,13.9462084 2.80190859,10.7186993 7.39456418,8.390625 L8.63267022,10.6763592 Z" id="“"></path>
                                            </g>
                                        </g>
                                    </g>
                                </g>
                            </g>
                        </g>
                    </g>
                </g>
            </g>
        </g>
    </g>
</svg>