<?xml version="1.0" encoding="UTF-8"?>
<svg width="18px" height="18px" viewBox="0 0 18 18" version="1.1" xmlns="http://www.w3.org/2000/svg" xmlns:xlink="http://www.w3.org/1999/xlink">
    <!-- Generator: Sketch 50.2 (55047) - http://www.bohemiancoding.com/sketch -->
    <title>airPlaneProfileMobile</title>
    <desc>Created with Sketch.</desc>
    <defs></defs>
    <g id="Page-1" stroke="none" stroke-width="1" fill="none" fill-rule="evenodd">
        <g id="New-Members-Grid-OFF-Copy-7" transform="translate(-146.000000, -437.000000)" fill="#A5A5A5" fill-rule="nonzero">
            <g id="First-description" transform="translate(0.000000, 390.000000)">
                <g id="Group-4" transform="translate(17.000000, 0.000000)">
                    <path d="M143.559415,53.1674756 C143.520567,52.8767763 143.656535,52.4891773 143.8702,52.2759978 L144.588891,51.5976996 L146.434179,49.8728839 C146.453603,49.853504 146.473027,49.834124 146.492451,49.8147441 C147.036325,49.2333455 147.24999,47.9736487 146.589571,47.3534903 C145.948577,46.7333319 144.686012,47.0046512 144.142137,47.5860497 L141.733551,50.1829631 C141.539311,50.3961426 141.131405,50.5318023 140.840044,50.4930424 L130.661826,49.039546 C130.370464,49.0007861 129.981983,49.1558257 129.807166,49.3690052 L129.107899,50.221723 C128.913658,50.4542825 128.991355,50.7062218 129.263292,50.8225015 L137.53795,53.9620536 C137.809887,54.0589533 137.868159,54.3302726 137.673919,54.5434521 L134.119312,58.3225425 C134.080464,58.3419225 134.022192,58.3419225 133.983343,58.3419225 L130.001407,58.3806824 C129.846014,58.3806824 129.710046,58.4969621 129.690622,58.6520017 L129.496381,59.6403792 C129.476957,59.7760388 129.554653,59.9504584 129.690622,59.9892183 L132.604234,61.0744956 C132.740202,61.1326354 132.895595,61.287675 132.934443,61.4233347 L134.022192,64.3303273 C134.080464,64.465987 134.235856,64.5628867 134.371825,64.5241268 L135.362453,64.3303273 C135.498422,64.3109474 135.614966,64.1559078 135.63439,64.0202481 L135.673238,60.0279782 C135.673238,59.9892183 135.673238,59.9504584 135.692662,59.8923185 L137.829311,57.8961836 L139.499782,56.3264076 C139.713447,56.1326081 139.96596,56.1907479 140.082505,56.4620672 L143.229205,64.7373063 C143.326326,65.0086256 143.598263,65.0861454 143.831352,64.8923459 L144.686012,64.1946677 C144.899676,64.0202481 145.055069,63.6326491 145.016221,63.3419498 L143.559415,53.1674756 Z" id="airPlaneProfileMobile"></path>
                </g>
            </g>
        </g>
    </g>
</svg>