<?xml version="1.0" encoding="UTF-8"?>
<svg width="21px" height="21px" viewBox="0 0 21 21" version="1.1" xmlns="http://www.w3.org/2000/svg" xmlns:xlink="http://www.w3.org/1999/xlink">
    <!-- Generator: Sketch 58 (84663) - https://sketch.com -->
    <title>icAirplaneProfile</title>
    <desc>Created with Sketch.</desc>
    <g id="Page-1" stroke="none" stroke-width="1" fill="none" fill-rule="evenodd">
        <path d="M17.0494734,6.92306393 L17.7981282,6.21675116 L19.8174015,4.32507786 C20.6395331,3.44665733 20.7752274,1.82202434 19.9090388,1.00864025 C19.0649399,0.191902566 17.4249639,0.414638217 16.618227,1.27703406 L14.0743749,4.01978331 C13.9821344,4.12098839 13.716886,4.21183692 13.563758,4.19146635 L2.82483418,2.65787561 C2.34539212,2.5940724 1.76250001,2.82124771 1.4653828,3.18356782 L0.727268609,4.08365783 C0.308679511,4.58479101 0.488024127,5.24089751 1.08133731,5.49459732 L9.66694346,8.75257784 L6.1675046,12.4729307 L2.05217417,12.5129667 C1.67588486,12.512945 1.34466376,12.7731012 1.25206185,13.1358288 L1.03334254,14.2462038 C0.979501037,14.6179185 1.15636088,15.0014409 1.48789256,15.1533161 L4.6299408,16.3249629 L4.65089968,16.3485388 L4.67031572,16.3644703 L5.83291182,19.4683494 C5.98501225,19.8237623 6.34225762,20.0517188 6.70763256,19.9997585 L7.81191966,19.7838211 C8.16243872,19.7345348 8.44673716,19.3941508 8.49791932,19.0366845 L8.54299162,14.8457633 L10.6611643,12.8668901 L12.2946135,11.3319059 L15.5523648,19.900425 C15.7701616,20.509157 16.465751,20.6942258 16.9749786,20.2708333 L17.8736443,19.5372584 C18.23701,19.2406336 18.4650312,18.6582247 18.4016053,18.1836069 L16.8636378,7.4421402 C16.8445241,7.29203983 16.9331583,7.03911497 17.0494734,6.92306393 Z M13.1655512,10.810025 C12.9006146,10.1921067 12.229791,10.0364551 11.7471856,10.4741905 L9.97742793,12.1371625 L7.63044141,14.3297988 L7.59024287,14.4501219 C7.55276181,14.562311 7.543974,14.641223 7.543974,14.751755 L7.50430822,18.8256328 L6.71699553,18.9791582 L5.62131318,16.0494046 C5.55018857,15.7953452 5.28158814,15.5166355 5.00105126,15.3966779 L2.04245939,14.2940717 L2.19676399,13.5115837 L6.26506283,13.4720053 C6.3027379,13.472211 6.33890089,13.4712615 6.38159546,13.4670019 C6.46582985,13.4585979 6.54486553,13.439922 6.62691445,13.3989915 L6.76792304,13.2941437 L10.520008,9.30510371 C10.9688737,8.81256605 10.8068225,8.10115983 10.1801105,7.87784222 L1.58382015,4.61614912 L2.23863439,3.81766717 C2.31519655,3.7243033 2.5551466,3.6307856 2.68821503,3.64848765 L13.4271388,5.18207839 C13.9028474,5.24538494 14.4954056,5.04243163 14.8105601,4.69654891 L17.3499631,1.95861869 C17.8028865,1.47445365 18.8109093,1.33754761 19.2191054,1.73247466 C19.6463781,2.13377626 19.5628522,3.13381067 19.0991134,3.62954568 L19.0495879,3.67853878 L17.1135125,5.48785096 L16.3531348,6.20548484 C16.0462718,6.51140912 15.8564834,6.99115569 15.8615086,7.41884148 L15.8733188,7.58098147 L17.4110588,18.3207045 C17.4280246,18.4478253 17.3346239,18.6863882 17.241269,18.7625962 L16.4386094,19.4178253 L13.1655512,10.810025 Z" id="icAirplaneProfile" fill="#333333" fill-rule="nonzero"></path>
    </g>
</svg>