<?xml version="1.0" encoding="UTF-8"?>
<svg width="25px" height="24px" viewBox="0 0 25 24" version="1.1" xmlns="http://www.w3.org/2000/svg" xmlns:xlink="http://www.w3.org/1999/xlink">
    <!-- Generator: Sketch 55 (78076) - https://sketchapp.com -->
    <title>icChatNow</title>
    <desc>Created with Sketch.</desc>
    <defs>
        <path d="M6.01942199,23.1 C5.9624537,23.1 5.90480951,23.0860059 5.85286215,23.0581136 C5.73892556,22.9973448 5.66795658,22.8787784 5.66795658,22.7510105 L5.66795658,17.7792765 C2.59070311,16.1908521 0.9,13.4097674 0.9,9.9252403 C0.9,4.54029738 5.88656034,0.48 12.5,0.48 C19.1134397,0.48 24.1,4.54029738 24.1,9.9252403 C24.1,15.3094164 19.1134397,19.3697138 12.5,19.3697138 C12.282748,19.3697138 12.0697445,19.3579243 11.8560652,19.3467098 L11.8419679,19.3460389 L6.21272797,23.0420108 C6.15440788,23.0804466 6.08691494,23.1 6.01942199,23.1 Z M7.135,11.79 C7.93581289,11.79 8.585,11.1408129 8.585,10.34 C8.585,9.53918711 7.93581289,8.89 7.135,8.89 C6.33418711,8.89 5.685,9.53918711 5.685,10.34 C5.685,11.1408129 6.33418711,11.79 7.135,11.79 Z M12.5,11.79 C13.3008129,11.79 13.95,11.1408129 13.95,10.34 C13.95,9.53918711 13.3008129,8.89 12.5,8.89 C11.6991871,8.89 11.05,9.53918711 11.05,10.34 C11.05,11.1408129 11.6991871,11.79 12.5,11.79 Z M17.865,11.79 C18.6658129,11.79 19.315,11.1408129 19.315,10.34 C19.315,9.53918711 18.6658129,8.89 17.865,8.89 C17.0641871,8.89 16.415,9.53918711 16.415,10.34 C16.415,11.1408129 17.0641871,11.79 17.865,11.79 Z" id="path-1"></path>
    </defs>
    <g id="Page-1" stroke="none" stroke-width="1" fill="none" fill-rule="evenodd">
        <mask id="mask-2" fill="white">
            <use xlink:href="#path-1"></use>
        </mask>
        <use id="icChatNow" fill="#FFFFFF" xlink:href="#path-1"></use>
    </g>
</svg>