<?xml version="1.0" encoding="UTF-8"?>
<svg width="23px" height="21px" viewBox="0 0 23 21" version="1.1" xmlns="http://www.w3.org/2000/svg" xmlns:xlink="http://www.w3.org/1999/xlink">
    <!-- Generator: Sketch 58 (84663) - https://sketch.com -->
    <title>icDateFinderProfile</title>
    <desc>Created with Sketch.</desc>
    <g id="Page-1" stroke="none" stroke-width="1" fill="none" fill-rule="evenodd">
        <g id="icDateFinderProfile" fill-rule="nonzero">
            <path d="M19.55,2.1 C20.9307119,2.1 22.05,3.21928813 22.05,4.6 L22.05,18.5 C22.05,19.8807119 20.9307119,21 19.55,21 L2.5,21 C1.11928813,21 0,19.8807119 0,18.5 L0,4.6 C0,3.21928813 1.11928813,2.1 2.5,2.1 L19.55,2.1 Z M21.05,6.275 L1,6.275 L1,18.5 C1,19.3284271 1.67157288,20 2.5,20 L19.55,20 C20.3784271,20 21.05,19.3284271 21.05,18.5 L21.05,6.275 Z M13.4825076,8 C14.4226792,8 15.3064553,8.35968405 15.9711424,9.01263632 C17.3429061,10.3602671 17.3429989,12.5533559 15.9711424,13.9013511 L15.9711424,13.9013511 L12.0085272,17.7935552 C11.8683734,17.9312154 11.6847171,18 11.5011536,18 C11.3175902,18 11.1339339,17.9312154 10.9938729,17.7936463 L10.9938729,17.7936463 L7.03097934,13.9015333 C6.36610665,13.248581 6,12.3803467 6,11.4569937 C6,10.5334585 6.36610665,9.66540638 7.03097934,9.01254521 C7.69566652,8.35968405 8.57953536,8 9.51961414,8 C10.2368938,8 10.9215234,8.20936017 11.5010609,8.59874457 C12.0805056,8.20945127 12.765228,8 13.4825076,8 Z M13.694014,9 C13.0776641,9 12.498174,9.24734851 12.062427,9.69644794 C11.9135502,9.84995636 11.7115911,9.93617922 11.5009048,9.93617922 C11.2902185,9.93617922 11.0881567,9.84995636 10.9392799,9.69655373 C10.503225,9.24734851 9.92373487,9 9.30738494,9 C8.69103502,9 8.11154494,9.24734851 7.67579797,9.69644794 C7.23984565,10.1455474 7,10.7426539 7,11.3777407 C7,12.0128276 7.24005099,12.6099341 7.67590064,13.0590336 L7.67590064,13.0590336 L11.5009048,17 L15.3253956,13.0590336 C16.2248168,12.1319527 16.2249195,10.623423 15.3253956,9.69644794 C14.8896486,9.24734851 14.3103639,9 13.694014,9 Z M19.55,3.1 L2.5,3.1 C1.67157288,3.1 1,3.77157288 1,4.6 L1,5.275 L21.05,5.275 L21.05,4.6 C21.05,3.77157288 20.3784271,3.1 19.55,3.1 Z" id="Combined-Shape" fill="#333333"></path>
            <path d="M4.39342105,0 C5.08014354,0 5.63684211,0.556698567 5.63684211,1.24342105 L5.63684211,2.95657895 C5.63684211,3.64330143 5.08014354,4.2 4.39342106,4.2 C3.70669857,4.2 3.15,3.64330143 3.15,2.95657895 L3.15,1.24342105 C3.15,0.556698568 3.70669857,0 4.39342105,0 Z" id="Path" fill="#333333"></path>
            <path d="M4.39342106,1 C4.25898332,1 4.15,1.10898332 4.15,1.24342105 L4.15,2.95657895 C4.15,3.09101668 4.25898332,3.2 4.39342106,3.2 C4.52785879,3.2 4.63684211,3.09101668 4.63684211,2.95657895 L4.63684211,1.24342105 C4.63684211,1.10898332 4.52785879,1 4.39342106,1 Z" id="Path" fill="#FFFFFF"></path>
            <path d="M11.025,0 C11.7117225,0 12.2684211,0.556698567 12.2684211,1.24342105 L12.2684211,2.95657895 C12.2684211,3.64330143 11.7117225,4.2 11.025,4.2 C10.3382775,4.2 9.78157895,3.64330143 9.78157895,2.95657895 L9.78157895,1.24342105 C9.78157895,0.556698568 10.3382775,0 11.025,0 Z" id="Path" fill="#333333"></path>
            <path d="M11.025,1 C10.8905623,1 10.781579,1.10898332 10.781579,1.24342105 L10.781579,2.95657895 C10.781579,3.09101668 10.8905623,3.2 11.025,3.2 C11.1594377,3.2 11.2684211,3.09101668 11.2684211,2.95657895 L11.2684211,1.24342105 C11.2684211,1.10898332 11.1594377,1 11.025,1 Z" id="Path" fill="#FFFFFF"></path>
            <path d="M17.656579,0 C18.3433014,0 18.9,0.556698567 18.9,1.24342105 L18.9,2.95657895 C18.9,3.64330143 18.3433014,4.2 17.656579,4.2 C16.9698565,4.2 16.4131579,3.64330143 16.4131579,2.95657895 L16.4131579,1.24342105 C16.4131579,0.556698568 16.9698565,0 17.656579,0 Z" id="Path" fill="#333333"></path>
            <path d="M17.656579,1 C17.5221412,1 17.4131579,1.10898332 17.4131579,1.24342105 L17.4131579,2.95657895 C17.4131579,3.09101668 17.5221412,3.2 17.656579,3.2 C17.7910167,3.2 17.9,3.09101668 17.9,2.95657895 L17.9,1.24342105 C17.9,1.10898332 17.7910167,1 17.656579,1 Z" id="Path" fill="#FFFFFF"></path>
        </g>
    </g>
</svg>