<?xml version="1.0" encoding="UTF-8"?>
<svg width="62px" height="62px" viewBox="0 0 62 62" version="1.1" xmlns="http://www.w3.org/2000/svg" xmlns:xlink="http://www.w3.org/1999/xlink">
    <!-- Generator: Sketch 55 (78076) - https://sketchapp.com -->
    <title>icDeleteProfile</title>
    <desc>Created with Sketch.</desc>
    <defs>
        <path d="M33.3550055,30.5000564 L41.9198107,21.9352412 C42.7082113,21.1468397 42.7082113,19.8685916 41.9198107,19.0803028 C41.1314101,18.2919013 39.8532762,18.2919013 39.0648756,19.0803028 L30.4999577,27.6452308 L21.9350398,19.08019 C21.1466392,18.2917885 19.8685053,18.2917885 19.0801047,19.08019 C18.2918169,19.8685916 18.2918169,21.1468397 19.0801047,21.9351284 L27.6450227,30.4999436 L19.0801047,39.0648716 C18.2918169,39.8532731 18.2918169,41.1315212 19.0801047,41.91981 C19.8685053,42.7082115 21.1466392,42.7082115 21.9350398,41.91981 L30.4999577,33.354882 L39.0648756,41.91981 C39.8531634,42.7082115 41.1314101,42.7082115 41.9198107,41.91981 C42.7082113,41.1314084 42.7082113,39.8532731 41.9198107,39.0648716 L33.3550055,30.5000564 Z" id="path-1"></path>
    </defs>
    <g id="Page-1" stroke="none" stroke-width="1" fill="none" fill-rule="evenodd">
        <g id="icDeleteProfile" transform="translate(1.000000, 1.000000)">
            <path d="M30,-3.55271368e-15 C13.5002729,-3.55271368e-15 -3.55271368e-15,13.5002729 -3.55271368e-15,30 C-3.55271368e-15,46.4997271 13.5002729,60 30,60 C46.4997271,60 60,46.4997271 60,30 C60,13.5002729 46.4997271,-3.55271368e-15 30,-3.55271368e-15 Z" id="Stroke-1" stroke="#FFFFFF" stroke-width="2" fill="#FFFFFF"></path>
            <mask id="mask-2" fill="white">
                <use xlink:href="#path-1"></use>
            </mask>
            <use id="Shape" fill="#7BCB45" fill-rule="nonzero" xlink:href="#path-1"></use>
        </g>
    </g>
</svg>