<?xml version="1.0" encoding="UTF-8"?>
<svg width="21px" height="21px" viewBox="0 0 21 21" version="1.1" xmlns="http://www.w3.org/2000/svg" xmlns:xlink="http://www.w3.org/1999/xlink">
    <!-- Generator: Sketch 58 (84663) - https://sketch.com -->
    <title>icEditNotesProfile</title>
    <desc>Created with Sketch.</desc>
    <g id="Page-1" stroke="none" stroke-width="1" fill="none" fill-rule="evenodd">
        <g id="icEditNotesProfile" fill="#333333" fill-rule="nonzero">
            <path d="M7.29336656,2 C7.58362328,2 7.81886665,2.23607983 7.81886665,2.52690874 C7.81886665,2.81794347 7.58362328,3.05381749 7.29336656,3.05381749 L7.29336656,3.05381749 L2.62750049,3.05381749 C1.75714095,3.05484659 1.05202655,3.76205692 1.05100019,4.63454372 L1.05100019,4.63454372 L1.05100019,18.3652505 C1.05202655,19.2379431 1.75714095,19.9451534 2.62750049,19.9459767 L2.62750049,19.9459767 L17.3724995,19.9459767 C18.2428591,19.9451534 18.9479734,19.2379431 18.9489998,18.3652505 L18.9489998,18.3652505 L18.9489998,13.6868771 C18.9489998,13.3958424 19.1842432,13.1599684 19.4744999,13.1599684 C19.7647566,13.1599684 20,13.3958424 20,13.6868771 L20,13.6868771 L20,18.3654563 C19.9983578,19.8198068 18.8229619,20.9983534 17.3724995,21 L17.3724995,21 L2.62750049,21 C1.17703813,20.9983534 0.0016421878,19.8198068 0,18.3654563 L0,18.3654563 L0,4.63454372 C0.0016421878,3.18019323 1.17703813,2.00164659 2.62750049,2 L2.62750049,2 Z M16.170815,0.718880678 C17.1294077,-0.239626893 18.6835253,-0.239626893 19.642118,0.718880678 L19.642118,0.718880678 L20.2821741,1.35887998 C21.2392753,2.31802677 21.2392753,3.87072814 20.2821741,4.82987487 L20.2821741,4.82987487 L10.551148,14.5604635 C10.4844577,14.6271478 10.4017873,14.6752969 10.3110204,14.7004367 L10.3110204,14.7004367 L5.69106813,15.9802222 C5.50165074,16.0326323 5.29881006,15.979157 5.1596767,15.840249 C5.02075635,15.701128 4.96727633,15.4983053 5.01990413,15.3089048 L5.01990413,15.3089048 L6.29959018,10.6893625 C6.32473217,10.5986036 6.37288556,10.5159406 6.43957581,10.4492562 L6.43957581,10.4492562 Z M7.11500122,11.8332228 L6.32856742,14.6716751 L9.16705862,13.8853111 L7.11500122,11.8332228 Z M15.5923355,2.83999688 L7.62806884,10.8037698 L10.1963898,13.372076 L18.1608696,5.40830301 L15.5923355,2.83999688 Z M18.870599,1.49011819 C18.3381422,0.957708633 17.4747908,0.957708633 16.942334,1.49011819 L16.942334,1.49011819 L16.3636415,2.06854633 L18.9323887,4.63706551 L19.5108681,4.05863736 C20.0424727,3.52580174 20.0424727,2.6631662 19.5108681,2.13011749 L19.5108681,2.13011749 Z"></path>
        </g>
    </g>
</svg>