<?xml version="1.0" encoding="UTF-8"?>
<svg width="25px" height="25px" viewBox="0 0 25 25" version="1.1" xmlns="http://www.w3.org/2000/svg" xmlns:xlink="http://www.w3.org/1999/xlink">
    <!-- Generator: Sketch 55.2 (78181) - https://sketchapp.com -->
    <title>icFavoriteUser</title>
    <desc>Created with Sketch.</desc>
    <defs>
        <path d="M24.4283962,11.3415 L20.0538962,15.606 C19.8673962,15.788 19.7818962,16.0495 19.8258962,16.306 L20.8583962,22.327 C20.9498962,22.856 20.8113962,23.3725 20.4678962,23.779 C20.1233962,24.188 19.6223962,24.423 19.0938962,24.423 C18.8043962,24.423 18.5238962,24.353 18.2608962,24.2145 L12.8533962,21.3715 C12.6278962,21.254 12.3433962,21.253 12.1173962,21.3715 L6.71039624,24.2145 C5.96639624,24.6055 5.03589624,24.4125 4.50289624,23.779 C4.15989624,23.3725 4.02089624,22.857 4.11239624,22.327 L5.14439624,16.306 C5.18839624,16.05 5.10289624,15.788 4.91639624,15.606 L0.541896239,11.342 C0.0503962393,10.863 -0.123103761,10.16 0.0888962393,9.5065 C0.301396239,8.853 0.855396239,8.386 1.53489624,8.2875 L7.58089624,7.409 C7.83839624,7.3715 8.06139624,7.21 8.17639624,6.9765 L10.8798962,1.498 C11.1833962,0.8825 11.7993962,0.5 12.4853962,0.5 C13.1718962,0.5 13.7878962,0.8825 14.0913962,1.498 L16.7943962,6.976 C16.9093962,7.2095 17.1318962,7.371 17.3893962,7.4085 L23.4353962,8.287 C24.1153962,8.386 24.6688962,8.8525 24.8813962,9.506 C25.0933962,10.1595 24.9198962,10.8625 24.4283962,11.3415 Z M21.8631043,11.9958524 C22.4575206,11.4626107 23.1079626,10.8746354 22.9791579,10.1040734 C22.8503532,9.33351128 21.8459957,9.2117683 21.3079604,9.1328949 L16.3666687,8.43259478 C16.1629274,8.40271849 15.9868791,8.27405129 15.8958879,8.08802162 L13.7571977,3.72369386 C13.5170599,3.23332443 13.3669439,2.4305651 12.4995247,2.4305651 C11.6321055,2.4305651 11.4563057,3.23332443 11.2161679,3.72369386 L9.07708211,8.08841997 C8.98609085,8.27444964 8.80964693,8.40311684 8.60590564,8.43299313 L3.82213914,9.1328949 C2.76288466,9.19459005 1.99563183,9.50072751 1.99563183,10.2737527 C1.99563183,11.0467778 3.2648223,11.8612822 3.36236865,11.9958524 L6.49767774,14.9635507 C6.64524183,15.1085503 6.71289185,15.317286 6.6780778,15.5212414 L5.86153016,20.3181778 C5.78844437,20.6962285 5.37719039,21.8219508 5.86153016,22.1623997 C6.63526205,22.7062661 7.32846749,22.1334609 7.91714137,21.8219508 L12.195313,19.55693 C12.3741306,19.462521 12.599235,19.4633177 12.777657,19.55693 L16.6848072,21.6498489 C16.8929002,21.760192 18.3766744,22.7836609 19.0089488,22.3028058 C19.6412232,21.8219508 19.303546,21.2256362 19.1114398,20.3181778 L18.2944966,15.5212414 C18.2596825,15.3168876 18.3273325,15.1085503 18.4748966,14.9635507 L21.8631043,11.9958524 Z" id="path-1"></path>
    </defs>
    <g id="Page-1" stroke="none" stroke-width="1" fill="none" fill-rule="evenodd">
        <mask id="mask-2" fill="white">
            <use xlink:href="#path-1"></use>
        </mask>
        <use id="icFavoriteUser" fill="#333333" fill-rule="nonzero" xlink:href="#path-1"></use>
    </g>
</svg>