<?xml version="1.0" encoding="UTF-8"?>
<svg width="19px" height="20px" viewBox="0 0 19 20" version="1.1" xmlns="http://www.w3.org/2000/svg" xmlns:xlink="http://www.w3.org/1999/xlink">
    <!-- Generator: Sketch 52.4 (67378) - http://www.bohemiancoding.com/sketch -->
    <title>icFavouriteMutualMatch</title>
    <desc>Created with Sketch.</desc>
    <defs>
        <path d="M143.696177,464.344564 L141.243543,466.840196 C141.138978,466.946704 141.091041,467.099737 141.115711,467.249843 L141.694599,470.773398 C141.7459,471.082975 141.668247,471.385236 141.475658,471.623124 C141.282509,471.862475 141.001615,472 140.705303,472 C140.54299,472 140.385723,471.959035 140.238268,471.877984 L137.206465,470.214229 C137.080035,470.145467 136.920526,470.144881 136.793815,470.214229 L133.762293,471.877984 C133.345157,472.106801 132.823457,471.993855 132.524622,471.623124 C132.332313,471.385236 132.254381,471.08356 132.305682,470.773398 L132.884289,467.249843 C132.908959,467.100029 132.861022,466.946704 132.756457,466.840196 L130.303823,464.344856 C130.028255,464.06454 129.93098,463.653137 130.049841,463.270702 C130.168983,462.888267 130.479592,462.614973 130.860565,462.55733 L134.250353,462.043222 C134.394724,462.021277 134.519753,461.926765 134.584229,461.790118 L136.099991,458.58404 C136.270153,458.223843 136.615523,458 137.00014,458 C137.385038,458 137.730408,458.223843 137.90057,458.58404 L139.416051,461.789826 C139.480528,461.926472 139.605276,462.020984 139.749647,462.042929 L143.139435,462.557037 C143.520689,462.614973 143.831017,462.887974 143.950159,463.270409 C144.06902,463.652845 143.971745,464.064248 143.696177,464.344564 Z M148.848089,455.172282 L147.621771,456.420098 C147.569489,456.473352 147.545521,456.549868 147.557855,456.624922 L147.847299,458.386699 C147.87295,458.541487 147.834124,458.692618 147.737829,458.811562 C147.641254,458.931238 147.500808,459 147.352652,459 C147.271495,459 147.192862,458.979518 147.119134,458.938992 L145.603233,458.107114 C145.540018,458.072733 145.460263,458.072441 145.396907,458.107114 L143.881146,458.938992 C143.672578,459.0534 143.411729,458.996928 143.262311,458.811562 C143.166157,458.692618 143.12719,458.54178 143.152841,458.386699 L143.442145,456.624922 C143.454479,456.550015 143.430511,456.473352 143.378229,456.420098 L142.151911,455.172428 C142.014128,455.03227 141.96549,454.826569 142.024921,454.635351 C142.084491,454.444133 142.239796,454.307487 142.430282,454.278665 L144.125176,454.021611 C144.197362,454.010638 144.259876,453.963383 144.292115,453.895059 L145.049995,452.29202 C145.135076,452.111922 145.307762,452 145.50007,452 C145.692519,452 145.865204,452.111922 145.950285,452.29202 L146.708025,453.894913 C146.740264,453.963236 146.802638,454.010492 146.874824,454.021465 L148.569718,454.278519 C148.760344,454.307487 148.915509,454.443987 148.975079,454.635205 C149.03451,454.826422 148.985872,455.032124 148.848089,455.172282 Z" id="path-1"></path>
    </defs>
    <g id="Page-1" stroke="none" stroke-width="1" fill="none" fill-rule="evenodd">
        <g id="Congratulaion-Favourite" transform="translate(-130.000000, -452.000000)">
            <mask id="mask-2" fill="white">
                <use xlink:href="#path-1"></use>
            </mask>
            <use id="icFavouriteMutualMatch" fill="#FFFFFF" fill-rule="nonzero" xlink:href="#path-1"></use>
        </g>
    </g>
</svg>