<?xml version="1.0" encoding="UTF-8"?>
<svg width="60px" height="60px" viewBox="0 0 60 60" version="1.1" xmlns="http://www.w3.org/2000/svg" xmlns:xlink="http://www.w3.org/1999/xlink">
    <!-- Generator: Sketch 50.2 (55047) - http://www.bohemiancoding.com/sketch -->
    <title>icFavouriteMutualProfile</title>
    <desc>Created with Sketch.</desc>
    <defs>
        <path d="M25,0 C11.2502274,0 0,11.2502274 0,25 C0,38.7497726 11.2502274,50 25,50 C38.7497726,50 50,38.7497726 50,25 C50,11.2502274 38.7497726,0 25,0 Z" id="path-1"></path>
        <filter x="-16.0%" y="-14.0%" width="132.0%" height="132.0%" filterUnits="objectBoundingBox" id="filter-2">
            <feOffset dx="0" dy="1" in="SourceAlpha" result="shadowOffsetOuter1"></feOffset>
            <feGaussianBlur stdDeviation="2.5" in="shadowOffsetOuter1" result="shadowBlurOuter1"></feGaussianBlur>
            <feColorMatrix values="0 0 0 0 0   0 0 0 0 0   0 0 0 0 0  0 0 0 0.147107111 0" type="matrix" in="shadowBlurOuter1"></feColorMatrix>
        </filter>
    </defs>
    <g id="Page-1" stroke="none" stroke-width="1" fill="none" fill-rule="evenodd">
        <g id="icFavouriteMutualProfile" transform="translate(5.000000, 4.000000)">
            <g id="Stroke-1" transform="translate(25.000000, 25.000000) rotate(-360.000000) translate(-25.000000, -25.000000) ">
                <use fill="black" fill-opacity="1" filter="url(#filter-2)" xlink:href="#path-1"></use>
                <use fill="#FFFFFF" fill-rule="evenodd" xlink:href="#path-1"></use>
            </g>
            <path d="M33.7494802,27.0858692 L29.4965566,31.2318499 C29.31524,31.4087917 29.2321161,31.6630241 29.2748934,31.9123954 L30.278698,37.7660593 C30.367655,38.2803574 30.2330042,38.7825027 29.8990508,39.1777052 C29.5641252,39.5753382 29.077049,39.8038071 28.5632371,39.8038071 C28.2817829,39.8038071 28.0090786,39.7357525 27.753388,39.6011017 L22.4961736,36.8371146 C22.2769407,36.7228802 22.0003476,36.721908 21.7806286,36.8371146 L16.5239004,39.6011017 C15.8005777,39.981235 14.8959382,39.793599 14.3777514,39.1777052 C14.0442841,38.7825027 13.9091472,38.2813295 13.9981042,37.7660593 L15.0014228,31.9123954 C15.0441999,31.6635102 14.9610761,31.4087917 14.7797594,31.2318499 L10.5268358,27.0863553 C10.0489956,26.6206678 9.88031755,25.9372056 10.0864256,25.3018677 C10.2930198,24.6665299 10.831623,24.2125087 11.4922383,24.1167462 L17.3702073,23.2626616 C17.6205509,23.2262038 17.8373533,23.0691922 17.9491572,22.8421817 L20.5775213,17.5159406 C20.8725864,16.9175466 21.4714665,16.5456771 22.1384011,16.5456771 C22.8058218,16.5456771 23.4047019,16.9175466 23.699767,17.5159406 L26.3276451,22.8416956 C26.439449,23.0687061 26.6557652,23.2257177 26.9061087,23.2621755 L32.7840778,24.1162601 C33.4451792,24.2125087 33.9832963,24.6660436 34.1898905,25.3013816 C34.3959984,25.9367195 34.2273204,26.6201817 33.7494802,27.0858692 Z M39.7182858,15.6361418 L37.4441262,17.8531161 C37.3471709,17.9477319 37.3027223,18.0836772 37.3255965,18.2170232 L37.8623595,21.3471445 C37.9099274,21.6221543 37.8379257,21.8906658 37.6593512,22.1019919 C37.480257,22.3146176 37.2198034,22.4367865 36.9450536,22.4367865 C36.7945519,22.4367865 36.6487292,22.4003957 36.512004,22.3283941 L33.7008213,20.8504113 C33.5835912,20.7893268 33.435689,20.788807 33.3181989,20.8504113 L30.5072762,22.3283941 C30.120495,22.5316622 29.6367583,22.4313278 29.3596691,22.1019919 C29.1813546,21.8906658 29.1090931,21.6226742 29.156661,21.3471445 L29.693164,18.2170232 C29.7160382,18.0839372 29.6715895,17.9477319 29.5746343,17.8531161 L27.3004745,15.6364017 C27.0449598,15.3873853 26.9547629,15.0219185 27.0649746,14.6821852 C27.1754465,14.3424519 27.463453,14.0996739 27.8167029,14.0484669 L30.9598208,13.5917635 C31.0936866,13.5722685 31.2096171,13.4883099 31.2694019,13.3669209 L32.6748631,10.5188276 C32.8326429,10.1988493 33.1528812,10 33.5095102,10 C33.8663991,10 34.1866374,10.1988493 34.3444171,10.5188276 L35.7496186,13.3666609 C35.8094034,13.4880499 35.9250737,13.5720085 36.0589397,13.5915035 L39.2020576,14.048207 C39.5555675,14.0996739 39.843314,14.342192 39.9537857,14.6819253 C40.0639976,15.0216586 39.9738007,15.3871253 39.7182858,15.6361418 Z" id="Combined-Shape-Copy" fill="#10C2E1" fill-rule="nonzero"></path>
        </g>
    </g>
</svg>