<?xml version="1.0" encoding="UTF-8"?>
<svg width="30px" height="24px" viewBox="0 0 30 24" version="1.1" xmlns="http://www.w3.org/2000/svg" xmlns:xlink="http://www.w3.org/1999/xlink">
    <!-- Generator: Sketch 55 (78076) - https://sketchapp.com -->
    <title>icGroupChatNow</title>
    <desc>Created with Sketch.</desc>
    <defs>
        <path d="M17.5902665,3.38764676 C11.8825685,4.32617514 7.86,8.08370452 7.86,13.1099046 C7.86,14.5926434 8.21016837,15.9974391 8.85047066,17.2679488 L4.89581877,19.8391886 C4.8462467,19.8715413 4.7888777,19.888 4.73150869,19.888 C4.68308564,19.888 4.63408808,19.8762207 4.58993283,19.8527428 C4.49308673,19.8015917 4.4327631,19.7017905 4.4327631,19.5942441 L4.4327631,15.4093716 C1.81709765,14.0723423 0.38,11.7314116 0.38,8.79837026 C0.38,4.26568621 4.61857629,0.848 10.24,0.848 C13.2208528,0.848 15.812873,1.80899385 17.5902665,3.38764676 Z M3.44,9.688 C4.00333044,9.688 4.46,9.23133044 4.46,8.668 C4.46,8.10466956 4.00333044,7.648 3.44,7.648 C2.87666956,7.648 2.42,8.10466956 2.42,8.668 C2.42,9.23133044 2.87666956,9.688 3.44,9.688 Z M7.52,9.688 C8.08333044,9.688 8.54,9.23133044 8.54,8.668 C8.54,8.10466956 8.08333044,7.648 7.52,7.648 C6.95666956,7.648 6.5,8.10466956 6.5,8.668 C6.5,9.23133044 6.95666956,9.688 7.52,9.688 Z M25.1184393,23.968 C25.059092,23.968 24.9997448,23.9509535 24.9484633,23.9174453 L19.9986144,20.6953159 L19.9862186,20.6959009 C19.7983281,20.7056776 19.6110319,20.7159556 19.42,20.7159556 C13.6047341,20.7159556 9.22,17.1762092 9.22,12.4823121 C9.22,7.78774643 13.6047341,4.248 19.42,4.248 C25.2352659,4.248 29.62,7.78774643 29.62,12.4823121 C29.62,15.5201049 28.1333473,17.9446403 25.4274865,19.3294205 L25.4274865,23.6637528 C25.4274865,23.7751402 25.3650827,23.8785057 25.2648971,23.9314836 C25.2192192,23.9558 25.1685321,23.968 25.1184393,23.968 Z M14.675,13.75 C15.3708788,13.75 15.935,13.1858788 15.935,12.49 C15.935,11.7941212 15.3708788,11.23 14.675,11.23 C13.9791212,11.23 13.415,11.7941212 13.415,12.49 C13.415,13.1858788 13.9791212,13.75 14.675,13.75 Z M19.8295455,13.75 C20.5254242,13.75 21.0895455,13.1858788 21.0895455,12.49 C21.0895455,11.7941212 20.5254242,11.23 19.8295455,11.23 C19.1336667,11.23 18.5695455,11.7941212 18.5695455,12.49 C18.5695455,13.1858788 19.1336667,13.75 19.8295455,13.75 Z M24.9840909,13.75 C25.6799697,13.75 26.2440909,13.1858788 26.2440909,12.49 C26.2440909,11.7941212 25.6799697,11.23 24.9840909,11.23 C24.2882121,11.23 23.7240909,11.7941212 23.7240909,12.49 C23.7240909,13.1858788 24.2882121,13.75 24.9840909,13.75 Z" id="path-1"></path>
    </defs>
    <g id="Page-1" stroke="none" stroke-width="1" fill="none" fill-rule="evenodd">
        <mask id="mask-2" fill="white">
            <use xlink:href="#path-1"></use>
        </mask>
        <use id="icGroupChatNow" fill="#FFFFFF" xlink:href="#path-1"></use>
    </g>
</svg>