<?xml version="1.0" encoding="UTF-8"?>
<svg width="60px" height="60px" viewBox="0 0 60 60" version="1.1" xmlns="http://www.w3.org/2000/svg" xmlns:xlink="http://www.w3.org/1999/xlink">
    <!-- Generator: Sketch 55 (78076) - https://sketchapp.com -->
    <title>icGroupChatMiddle</title>
    <desc>Created with Sketch.</desc>
    <defs>
        <path d="M34.4433501,17.0221759 C26.2441541,18.5877171 20.5,24.3486035 20.5,31.6322127 C20.5,33.8288367 21.0225983,35.8870049 21.9775356,37.733355 L16.14091,41.5282185 C16.0680099,41.575796 15.9836437,41.6 15.8992775,41.6 C15.8280671,41.6 15.7560119,41.5826775 15.6910777,41.5481512 C15.5486569,41.472929 15.4599457,41.3261625 15.4599457,41.168006 L15.4599457,35.0137817 C11.6133789,33.0475622 9.5,29.6050171 9.5,25.291721 C9.5,18.6260091 15.7332004,13.6 24,13.6 C28.1832412,13.6 31.8457478,14.8869873 34.4433501,17.0221759 Z M14,26.6 C14.8284271,26.6 15.5,25.9284271 15.5,25.1 C15.5,24.2715729 14.8284271,23.6 14,23.6 C13.1715729,23.6 12.5,24.2715729 12.5,25.1 C12.5,25.9284271 13.1715729,26.6 14,26.6 Z M20,26.6 C20.8284271,26.6 21.5,25.9284271 21.5,25.1 C21.5,24.2715729 20.8284271,23.6 20,23.6 C19.1715729,23.6 18.5,24.2715729 18.5,25.1 C18.5,25.9284271 19.1715729,26.6 20,26.6 Z M45.8800578,47.6 C45.7927824,47.6 45.705507,47.5749316 45.6300931,47.5256549 L38.3509036,42.7872293 L38.3326744,42.7880895 C38.0563648,42.802467 37.7809293,42.8175818 37.5,42.8175818 C28.9481384,42.8175818 22.5,37.6120723 22.5,30.7092824 C22.5,23.8055095 28.9481384,18.6 37.5,18.6 C46.0518616,18.6 52.5,23.8055095 52.5,30.7092824 C52.5,35.1766248 50.313746,38.742118 46.3345389,40.7785596 L46.3345389,47.1525776 C46.3345389,47.3163826 46.2427687,47.4683907 46.0954369,47.5462995 C46.0282636,47.5820589 45.9537237,47.6 45.8800578,47.6 Z M31.3083333,33.0833333 C32.3134916,33.0833333 33.1283333,32.2684916 33.1283333,31.2633333 C33.1283333,30.2581751 32.3134916,29.4433333 31.3083333,29.4433333 C30.3031751,29.4433333 29.4883333,30.2581751 29.4883333,31.2633333 C29.4883333,32.2684916 30.3031751,33.0833333 31.3083333,33.0833333 Z M38.7537879,33.0833333 C39.7589461,33.0833333 40.5737879,32.2684916 40.5737879,31.2633333 C40.5737879,30.2581751 39.7589461,29.4433333 38.7537879,29.4433333 C37.7486296,29.4433333 36.9337879,30.2581751 36.9337879,31.2633333 C36.9337879,32.2684916 37.7486296,33.0833333 38.7537879,33.0833333 Z M46.1992424,33.0833333 C47.2044007,33.0833333 48.0192424,32.2684916 48.0192424,31.2633333 C48.0192424,30.2581751 47.2044007,29.4433333 46.1992424,29.4433333 C45.1940842,29.4433333 44.3792424,30.2581751 44.3792424,31.2633333 C44.3792424,32.2684916 45.1940842,33.0833333 46.1992424,33.0833333 Z" id="path-1"></path>
    </defs>
    <g id="Page-1" stroke="none" stroke-width="1" fill="none" fill-rule="evenodd">
        <g id="icGroupChatMiddle">
            <path d="M30,1.0658141e-13 C13.5002729,1.0658141e-13 0,13.5002729 0,30 C0,46.4997271 13.5002729,60 30,60 C46.4997271,60 60,46.4997271 60,30 C60,13.5002729 46.4997271,1.0658141e-13 30,1.0658141e-13 Z" id="Stroke-1" fill="#7BCB45" transform="translate(30.000000, 30.000000) rotate(-360.000000) translate(-30.000000, -30.000000) "></path>
            <mask id="mask-2" fill="white">
                <use xlink:href="#path-1"></use>
            </mask>
            <use id="Combined-Shape" fill="#FFFFFF" xlink:href="#path-1"></use>
        </g>
    </g>
</svg>