<?xml version="1.0" encoding="UTF-8"?>
<svg width="60px" height="60px" viewBox="0 0 60 60" version="1.1" xmlns="http://www.w3.org/2000/svg" xmlns:xlink="http://www.w3.org/1999/xlink">
    <!-- Generator: Sketch 55.2 (78181) - https://sketchapp.com -->
    <title>icLikeProfile</title>
    <desc>Created with Sketch.</desc>
    <defs>
        <path d="M16.4062414,19.5402104 C13.1960819,22.9255662 13.1997577,28.3601708 16.4062414,31.7482053 L29.4994259,45.5854024 C29.6280123,45.7223879 29.8068819,45.8 29.9940009,45.8 C30.1811199,45.8 30.3599895,45.7223879 30.4885759,45.5854024 C34.8571458,40.9783653 39.2237763,36.3660806 43.5923803,31.7589407 C46.8025399,28.3735266 46.8025399,22.9363393 43.5923803,19.5509286 C40.3822547,16.1655214 35.1346401,16.1654459 31.9244805,19.5509286 L29.9993105,21.576666 L28.0741745,19.5402104 C26.4690777,17.8475051 24.3480994,17 22.2348813,17 C20.1216633,17 18.0113042,17.8475017 16.4062414,19.5402104 Z M27.5314157,22.0460801 L29.5908155,24.2306802 C29.7000142,24.3475123 29.8519198,24.4137068 30.0108319,24.4137068 C30.169744,24.4137068 30.3216497,24.3475123 30.4308483,24.2306802 L32.6691253,21.5884312 C35.6237865,18.798331 39.7021144,19.3664074 42,21.8 C44.2978567,24.2335896 43.0076399,28.4240096 40.7097832,30.8576022 C37.1410817,34.6370663 33.574981,38.4216785 30.0063085,42.2010841 L19.3028633,30.8484762 C17.0066831,28.4120172 16.4,24.2 18,21.8 C18.6096685,20.8854973 22.8,17 27.5314157,22.0460801 Z" id="path-1"></path>
    </defs>
    <g id="Page-1" stroke="none" stroke-width="1" fill="none" fill-rule="evenodd">
        <g id="icLikeProfile">
            <path d="M30,0 C13.4980195,0 0,13.4980195 0,30 C0,46.5019805 13.4980195,60 30,60 C46.5019805,60 60,46.5019805 60,30 C60,13.4980195 46.5019805,0 30,0 Z" id="Stroke-1" fill="#FFFFFF" fill-rule="nonzero"></path>
            <mask id="mask-2" fill="white">
                <use xlink:href="#path-1"></use>
            </mask>
            <use id="Heart" fill="#7BCB45" fill-rule="nonzero" xlink:href="#path-1"></use>
        </g>
    </g>
</svg>