<?xml version="1.0" encoding="UTF-8"?>
<svg width="70px" height="70px" viewBox="0 0 70 70" version="1.1" xmlns="http://www.w3.org/2000/svg" xmlns:xlink="http://www.w3.org/1999/xlink">
    <!-- Generator: Sketch 55 (78076) - https://sketchapp.com -->
    <title>icMsgCarousel</title>
    <desc>Created with Sketch.</desc>
    <defs>
        <path d="M25.6143353,52.9666667 C25.5318295,52.9666667 25.4483448,52.9463994 25.3731107,52.9060036 C25.2080991,52.8179936 25.1053164,52.6462768 25.1053164,52.4612336 L25.1053164,45.2607913 C20.6486045,42.9603145 18.2,38.9325366 18.2,33.8859802 C18.2,26.0870974 25.421915,20.2066667 35,20.2066667 C44.578085,20.2066667 51.8,26.0870974 51.8,33.8859802 C51.8,41.6837525 44.578085,47.5641832 35,47.5641832 C34.6853592,47.5641832 34.3768714,47.5471087 34.0674047,47.5308671 L34.046988,47.5298954 L25.8942957,52.8826823 C25.8098321,52.938348 25.7120837,52.9666667 25.6143353,52.9666667 Z M28.1458333,36.0694444 C29.0586373,36.0694444 29.7986111,35.3294706 29.7986111,34.4166667 C29.7986111,33.5038627 29.0586373,32.7638889 28.1458333,32.7638889 C27.2330294,32.7638889 26.4930556,33.5038627 26.4930556,34.4166667 C26.4930556,35.3294706 27.2330294,36.0694444 28.1458333,36.0694444 Z M35.5833333,36.0694444 C36.4961373,36.0694444 37.2361111,35.3294706 37.2361111,34.4166667 C37.2361111,33.5038627 36.4961373,32.7638889 35.5833333,32.7638889 C34.6705294,32.7638889 33.9305556,33.5038627 33.9305556,34.4166667 C33.9305556,35.3294706 34.6705294,36.0694444 35.5833333,36.0694444 Z M43.0208333,36.0694444 C43.9336373,36.0694444 44.6736111,35.3294706 44.6736111,34.4166667 C44.6736111,33.5038627 43.9336373,32.7638889 43.0208333,32.7638889 C42.1080294,32.7638889 41.3680556,33.5038627 41.3680556,34.4166667 C41.3680556,35.3294706 42.1080294,36.0694444 43.0208333,36.0694444 Z" id="path-1"></path>
    </defs>
    <g id="Page-1" stroke="none" stroke-width="1" fill="none" fill-rule="evenodd">
        <g id="icMsgCarousel">
            <path d="M35,0 C15.7503184,0 0,15.7503184 0,35 C0,54.2496816 15.7503184,70 35,70 C54.2496816,70 70,54.2496816 70,35 C70,15.7503184 54.2496816,0 35,0 Z" id="Stroke-1" fill="#7BCB45" transform="translate(35.000000, 35.000000) rotate(-360.000000) translate(-35.000000, -35.000000) "></path>
            <mask id="mask-2" fill="white">
                <use xlink:href="#path-1"></use>
            </mask>
            <use id="Combined-Shape" fill="#FFFFFF" xlink:href="#path-1"></use>
        </g>
    </g>
</svg>