<?xml version="1.0" encoding="UTF-8"?>
<svg width="70px" height="70px" viewBox="0 0 70 70" version="1.1" xmlns="http://www.w3.org/2000/svg" xmlns:xlink="http://www.w3.org/1999/xlink">
    <!-- Generator: Sketch 55 (78076) - https://sketchapp.com -->
    <title>icMsgGroupCarousel</title>
    <desc>Created with Sketch.</desc>
    <defs>
        <path d="M38.199741,25.5278774 C31.1490552,26.687236 26.18,31.3288899 26.18,37.5377253 C26.18,39.3693439 26.6125609,41.1046797 27.4035226,42.6741328 L22.5183644,45.8503702 C22.4571283,45.8903353 22.3862607,45.9106667 22.3153931,45.9106667 C22.2555764,45.9106667 22.19505,45.8961158 22.1405053,45.8671137 C22.0208718,45.803927 21.9463544,45.6806432 21.9463544,45.5477917 L21.9463544,40.3782433 C18.7152383,38.7266189 16.94,35.834881 16.94,32.2117123 C16.94,26.6125143 22.1758884,22.3906667 29.12,22.3906667 C32.8022299,22.3906667 36.0041372,23.5777767 38.199741,25.5278774 Z M20.72,33.3106667 C21.4158788,33.3106667 21.98,32.7465455 21.98,32.0506667 C21.98,31.3547879 21.4158788,30.7906667 20.72,30.7906667 C20.0241212,30.7906667 19.46,31.3547879 19.46,32.0506667 C19.46,32.7465455 20.0241212,33.3106667 20.72,33.3106667 Z M25.76,33.3106667 C26.4558788,33.3106667 27.02,32.7465455 27.02,32.0506667 C27.02,31.3547879 26.4558788,30.7906667 25.76,30.7906667 C25.0641212,30.7906667 24.5,31.3547879 24.5,32.0506667 C24.5,32.7465455 25.0641212,33.3106667 25.76,33.3106667 Z M47.4992485,50.9506667 C47.4259372,50.9506667 47.3526259,50.9296092 47.2892782,50.8882168 L41.174759,46.9079393 L41.1594465,46.9086619 C40.9273464,46.920739 40.6959806,46.9334354 40.46,46.9334354 C33.2764362,46.9334354 27.86,42.5608074 27.86,36.7624639 C27.86,30.9632946 33.2764362,26.5906667 40.46,26.5906667 C47.6435638,26.5906667 53.06,30.9632946 53.06,36.7624639 C53.06,40.5150315 51.2235466,43.5100458 47.8810127,45.2206568 L47.8810127,50.5748319 C47.8810127,50.7124281 47.8039257,50.8401149 47.680167,50.9055582 C47.6237414,50.9355961 47.5611279,50.9506667 47.4992485,50.9506667 Z M34.8590278,38.8402778 C35.7159896,38.8402778 36.4106944,38.1455729 36.4106944,37.2886111 C36.4106944,36.4316493 35.7159896,35.7369444 34.8590278,35.7369444 C34.0020659,35.7369444 33.3073611,36.4316493 33.3073611,37.2886111 C33.3073611,38.1455729 34.0020659,38.8402778 34.8590278,38.8402778 Z M41.2067551,38.8402778 C42.0637169,38.8402778 42.7584217,38.1455729 42.7584217,37.2886111 C42.7584217,36.4316493 42.0637169,35.7369444 41.2067551,35.7369444 C40.3497932,35.7369444 39.6550884,36.4316493 39.6550884,37.2886111 C39.6550884,38.1455729 40.3497932,38.8402778 41.2067551,38.8402778 Z M47.5544823,38.8402778 C48.4114442,38.8402778 49.106149,38.1455729 49.106149,37.2886111 C49.106149,36.4316493 48.4114442,35.7369444 47.5544823,35.7369444 C46.6975205,35.7369444 46.0028157,36.4316493 46.0028157,37.2886111 C46.0028157,38.1455729 46.6975205,38.8402778 47.5544823,38.8402778 Z" id="path-1"></path>
    </defs>
    <g id="Page-1" stroke="none" stroke-width="1" fill="none" fill-rule="evenodd">
        <g id="icMsgGroupCarousel">
            <path d="M35,0 C15.7503184,0 0,15.7503184 0,35 C0,54.2496816 15.7503184,70 35,70 C54.2496816,70 70,54.2496816 70,35 C70,15.7503184 54.2496816,0 35,0 Z" id="Stroke-1" fill="#7BCB45" transform="translate(35.000000, 35.000000) rotate(-360.000000) translate(-35.000000, -35.000000) "></path>
            <mask id="mask-2" fill="white">
                <use xlink:href="#path-1"></use>
            </mask>
            <use id="Combined-Shape" fill="#FFFFFF" xlink:href="#path-1"></use>
        </g>
    </g>
</svg>