<?xml version="1.0" encoding="UTF-8"?>
<svg width="20px" height="31px" viewBox="0 0 20 31" version="1.1" xmlns="http://www.w3.org/2000/svg" xmlns:xlink="http://www.w3.org/1999/xlink">
    <!-- Generator: Sketch 52.2 (67145) - http://www.bohemiancoding.com/sketch -->
    <title>icNoteRibbonMobile</title>
    <desc>Created with Sketch.</desc>
    <g id="Page-1" stroke="none" stroke-width="1" fill="none" fill-rule="evenodd">
        <g id="icNoteRibbonMobile">
            <path d="M-2.90374424e-05,0.126152584 L0.625,0.126152584 L0.689655172,0.126152584 L19.3103448,0.126152584 L20.0000291,0.126152584 L20,30.0812157 C20.0025062,30.3579682 19.8426007,30.6099763 19.5926093,30.723256 C19.3426179,30.8365357 19.0499511,30.7896038 18.8469828,30.6036876 L10,22.6577607 L1.15301724,30.6036876 C0.95004895,30.7896038 0.657382072,30.8365357 0.407390694,30.723256 C0.157399314,30.6099763 -0.00250615487,30.3579682 -1.92931185e-13,30.0812157 L-2.90374424e-05,0.126152584 Z" id="path-1" fill="#7EC34D"></path>
            <path d="M11.9017094,13.9244506 L11.9017094,17.1607143 L5.40598291,17.1607143 C5.18188034,17.1607143 5,16.9794835 5,16.7561813 L5,7.04739011 C5,6.82408791 5.18188034,6.64285714 5.40598291,6.64285714 L15.1495727,6.64285714 C15.3736752,6.64285714 15.5555556,6.82408791 15.5555556,7.04739011 L15.5555556,13.5199176 L12.3076923,13.5199176 C12.0835897,13.5199176 11.9017094,13.7011483 11.9017094,13.9244506 Z M7.02991453,8.26098901 C6.80581197,8.26098901 6.62393162,8.44221978 6.62393162,8.66552198 C6.62393162,8.88882418 6.80581197,9.07005494 7.02991453,9.07005494 L13.525641,9.07005494 C13.7497436,9.07005494 13.9316239,8.88882418 13.9316239,8.66552198 C13.9316239,8.44221978 13.7497436,8.26098901 13.525641,8.26098901 L7.02991453,8.26098901 Z M7.02991453,9.87912088 C6.80581197,9.87912088 6.62393162,10.0603516 6.62393162,10.2836538 C6.62393162,10.506956 6.80581197,10.6881868 7.02991453,10.6881868 L13.525641,10.6881868 C13.7497436,10.6881868 13.9316239,10.506956 13.9316239,10.2836538 C13.9316239,10.0603516 13.7497436,9.87912088 13.525641,9.87912088 L7.02991453,9.87912088 Z M7.02991453,11.4972527 C6.80581197,11.4972527 6.62393162,11.6784835 6.62393162,11.9017857 C6.62393162,12.1250879 6.80581197,12.3063187 7.02991453,12.3063187 L13.525641,12.3063187 C13.7497436,12.3063187 13.9316239,12.1250879 13.9316239,11.9017857 C13.9316239,11.6784835 13.7497436,11.4972527 13.525641,11.4972527 L7.02991453,11.4972527 Z M7.02991453,13.1153846 C6.80581197,13.1153846 6.62393162,13.2966154 6.62393162,13.5199176 C6.62393162,13.7432198 6.80581197,13.9244506 7.02991453,13.9244506 L10.6837607,13.9244506 C10.9078632,13.9244506 11.0897436,13.7432198 11.0897436,13.5199176 C11.0897436,13.2966154 10.9078632,13.1153846 10.6837607,13.1153846 L7.02991453,13.1153846 Z M10.6837607,15.5425824 C10.9078632,15.5425824 11.0897436,15.3613517 11.0897436,15.1380494 C11.0897436,14.9147472 10.9078632,14.7335165 10.6837607,14.7335165 L7.02991453,14.7335165 C6.80581197,14.7335165 6.62393162,14.9147472 6.62393162,15.1380494 C6.62393162,15.3613517 6.80581197,15.5425824 7.02991453,15.5425824 L10.6837607,15.5425824 Z M15.5555556,14.3928571 L12.7777778,17.1607143 L12.7777778,14.3928571 L15.5555556,14.3928571 Z" id="Combined-Shape" fill="#FFFFFF" fill-rule="nonzero"></path>
        </g>
    </g>
</svg>