<?xml version="1.0" encoding="UTF-8"?>
<svg width="23px" height="19px" viewBox="0 0 23 19" version="1.1" xmlns="http://www.w3.org/2000/svg" xmlns:xlink="http://www.w3.org/1999/xlink">
    <!-- Generator: Sketch 50.2 (55047) - http://www.bohemiancoding.com/sketch -->
    <title>icPremiumPlus</title>
    <desc>Created with Sketch.</desc>
    <defs>
        <path d="M235.099807,436.612223 C234.12043,436.612223 233.288403,437.403866 233.288403,438.442968 C233.288403,438.788962 233.386452,439.085688 233.533247,439.333147 L228.882316,444.132834 C227.609902,442.054631 226.777875,438.987153 226.336934,436.958217 C227.022165,436.612223 227.511853,435.919675 227.511853,435.078204 C227.511853,433.940566 226.581778,433 225.455605,433 C224.329987,433 223.399357,433.940566 223.399357,435.078204 C223.399357,435.919675 223.889046,436.612223 224.574277,436.958217 C224.13389,438.987153 223.301309,442.054631 222.028341,444.132834 L217.377963,439.333147 C217.524759,439.085688 217.622808,438.788962 217.622808,438.442968 C217.622808,437.453134 216.839528,436.612223 215.811404,436.612223 C214.78328,436.612223 214,437.403866 214,438.442968 C214,439.432242 214.78328,440.273713 215.811404,440.273713 L219.140066,451.653446 C219.189367,451.851637 219.385464,452 219.629754,452 L231.330204,452 C231.526301,452 231.721844,451.851637 231.819892,451.653446 L235.099807,440.223885 C236.079184,440.223885 236.911765,439.432242 236.911765,438.39314 C236.862464,437.403866 236.079184,436.612223 235.099807,436.612223" id="path-1"></path>
    </defs>
    <g id="Page-1" stroke="none" stroke-width="1" fill="none" fill-rule="evenodd">
        <g id="New-Members-Grid-OFF-See-less" transform="translate(-214.000000, -433.000000)">
            <mask id="mask-2" fill="white">
                <use xlink:href="#path-1"></use>
            </mask>
            <use id="icPremiumPlus" fill="#F76B46" xlink:href="#path-1"></use>
        </g>
    </g>
</svg>