<?xml version="1.0" encoding="UTF-8"?>
<svg width="60px" height="60px" viewBox="0 0 60 60" version="1.1" xmlns="http://www.w3.org/2000/svg" xmlns:xlink="http://www.w3.org/1999/xlink">
    <!-- Generator: Sketch 55 (78076) - https://sketchapp.com -->
    <title>icSuperLikeMiddle</title>
    <desc>Created with Sketch.</desc>
    <defs>
        <path d="M20.4439307,48.5 C20.3555316,48.5 20.2660837,48.478285 20.1854757,48.4350039 C20.0086776,48.3407074 19.8985533,48.1567252 19.8985533,47.9584646 L19.8985533,40.2437049 C15.1235048,37.7789084 12.5,33.4634321 12.5,28.0564074 C12.5,19.7004615 20.2377661,13.4 30.5,13.4 C40.7622339,13.4 48.5,19.7004615 48.5,28.0564074 C48.5,36.4111634 40.7622339,42.7116249 30.5,42.7116249 C30.1628849,42.7116249 29.8323622,42.6933308 29.5007908,42.675929 L29.4789157,42.6748879 L20.7438882,48.4100168 C20.6533915,48.4696586 20.5486611,48.5 20.4439307,48.5 Z M22.175,30.95 C23.4176407,30.95 24.425,29.9426407 24.425,28.7 C24.425,27.4573593 23.4176407,26.45 22.175,26.45 C20.9323593,26.45 19.925,27.4573593 19.925,28.7 C19.925,29.9426407 20.9323593,30.95 22.175,30.95 Z M30.5,30.95 C31.7426407,30.95 32.75,29.9426407 32.75,28.7 C32.75,27.4573593 31.7426407,26.45 30.5,26.45 C29.2573593,26.45 28.25,27.4573593 28.25,28.7 C28.25,29.9426407 29.2573593,30.95 30.5,30.95 Z M38.825,30.95 C40.0676407,30.95 41.075,29.9426407 41.075,28.7 C41.075,27.4573593 40.0676407,26.45 38.825,26.45 C37.5823593,26.45 36.575,27.4573593 36.575,28.7 C36.575,29.9426407 37.5823593,30.95 38.825,30.95 Z" id="path-1"></path>
    </defs>
    <g id="Page-1" stroke="none" stroke-width="1" fill="none" fill-rule="evenodd">
        <g id="icSuperLikeMiddle">
            <path d="M30,1.0658141e-13 C13.5002729,1.0658141e-13 0,13.5002729 0,30 C0,46.4997271 13.5002729,60 30,60 C46.4997271,60 60,46.4997271 60,30 C60,13.5002729 46.4997271,1.0658141e-13 30,1.0658141e-13 Z" id="Stroke-1" fill="#7BCB45" transform="translate(30.000000, 30.000000) rotate(-360.000000) translate(-30.000000, -30.000000) "></path>
            <mask id="mask-2" fill="white">
                <use xlink:href="#path-1"></use>
            </mask>
            <use id="Combined-Shape" fill="#FFFFFF" xlink:href="#path-1"></use>
        </g>
    </g>
</svg>