<?xml version="1.0" encoding="UTF-8"?>
<svg width="19px" height="18px" viewBox="0 0 19 18" version="1.1" xmlns="http://www.w3.org/2000/svg" xmlns:xlink="http://www.w3.org/1999/xlink">
    <!-- Generator: Sketch 50.2 (55047) - http://www.bohemiancoding.com/sketch -->
    <title>icValidations</title>
    <desc>Created with Sketch.</desc>
    <defs>
        <path d="M21.697807,2043.25463 C21.6858349,2043.10774 21.6291977,2042.97098 21.5338814,2042.85863 L20.2634581,2041.36765 C19.645514,2040.64195 19.645514,2039.58887 20.2634581,2038.86364 L21.5338814,2037.37265 C21.6291977,2037.2603 21.6862953,2037.12354 21.697807,2036.97665 L21.8534442,2035.02428 C21.9294209,2034.07434 22.673993,2033.32977 23.6239326,2033.25379 L25.5763047,2033.09815 C25.723193,2033.08664 25.8599512,2033.03 25.9723047,2032.93423 L27.4628302,2031.6638 C28.1885233,2031.0454 29.2411465,2031.0454 29.9668395,2031.6638 L31.4578256,2032.93423 C31.5697186,2033.02954 31.7069372,2033.08664 31.8538256,2033.09815 L33.8061977,2033.25379 C34.7561372,2033.32931 35.5007093,2034.07434 35.576686,2035.02428 L35.7323233,2036.97665 C35.7438349,2037.12354 35.8004721,2037.2603 35.8962488,2037.37265 L37.1666721,2038.86364 C37.7846163,2039.58933 37.7846163,2040.64241 37.1666721,2041.36765 L35.8962488,2042.85863 C35.8009326,2042.97098 35.7438349,2043.10774 35.7323233,2043.25463 L35.576686,2045.207 C35.5007093,2046.15694 34.7561372,2046.90152 33.8061977,2046.97749 L31.8538256,2047.13313 C31.7069372,2047.14464 31.5701791,2047.20128 31.4578256,2047.29705 L29.9673,2048.56748 C29.6044535,2048.87645 29.1601047,2049.03117 28.7152953,2049.03117 C28.270486,2049.03117 27.8261372,2048.87645 27.4632907,2048.56748 L25.9723047,2047.29705 C25.8599512,2047.20174 25.723193,2047.14464 25.5763047,2047.13313 L23.6239326,2046.97749 C22.673993,2046.90152 21.9294209,2046.15694 21.8534442,2045.207 L21.697807,2043.25463 Z M24.3107692,2040.58 L24.3846154,2040.694 L27.2646154,2043.886 C27.3384615,2043.962 27.4123077,2044 27.5230769,2044 C27.6338462,2044 27.7076923,2043.962 27.7815385,2043.886 L33.6892308,2037.578 C33.8369231,2037.426 33.8369231,2037.198 33.6892308,2037.046 L33.1723077,2036.514 C33.0246154,2036.362 32.8030769,2036.362 32.6553846,2036.514 L32.6184615,2036.514 L27.6707692,2041.796 C27.5969231,2041.872 27.4861538,2041.872 27.4123077,2041.796 L25.3815385,2039.554 L25.3446154,2039.516 C25.1969231,2039.364 24.9753846,2039.364 24.8276923,2039.516 L24.3107692,2040.048 C24.2369231,2040.124 24.2,2040.238 24.2,2040.314 C24.2,2040.39 24.2369231,2040.504 24.3107692,2040.58 Z" id="path-1"></path>
    </defs>
    <g id="Page-1" stroke="none" stroke-width="1" fill="none" fill-rule="evenodd">
        <g id="New-Members-Grid-OFF-Copy-7" transform="translate(-19.000000, -2031.000000)">
            <mask id="mask-2" fill="white">
                <use xlink:href="#path-1"></use>
            </mask>
            <use id="icValidations" fill="#646464" fill-rule="nonzero" xlink:href="#path-1"></use>
        </g>
    </g>
</svg>