<?xml version="1.0" encoding="UTF-8"?>
<svg width="21px" height="23px" viewBox="0 0 21 23" version="1.1" xmlns="http://www.w3.org/2000/svg" xmlns:xlink="http://www.w3.org/1999/xlink">
    <!-- Generator: Sketch 55 (78076) - https://sketchapp.com -->
    <title>icVerify</title>
    <desc>Created with Sketch.</desc>
    <defs>
        <path d="M10.347751,0 C10.534352,0 10.7212242,0.0631992339 10.8731088,0.189064375 L11.3561559,0.590392844 C11.364835,0.597326093 12.2224402,1.29731761 13.612455,2.03677531 C14.9021175,2.72290033 16.9330309,3.59062314 19.2848003,3.82822026 L19.9316657,3.89355281 C20.3336173,3.93435231 20.6444382,4.25861505 20.6615252,4.65541024 L20.6891899,5.29460249 C20.6943431,5.4148677 20.8025609,8.27989964 19.69299,11.7097247 C19.034462,13.7451667 18.0811153,15.5720779 16.8595296,17.1395256 C15.3187151,19.1165683 13.3545225,20.6744161 11.0220099,21.7696028 L10.6978991,21.9218676 C10.5869691,21.973867 10.4670888,22 10.3472085,22 C10.2273282,22 10.1074479,21.973867 9.99651797,21.9218676 L9.6724072,21.7696028 C7.33962333,20.6741494 5.37570193,19.1165683 3.83488747,17.1395256 C2.61330178,15.5720779 1.65995504,13.7451667 1.00142705,11.7097247 C-0.109771126,8.27563302 7.39463868e-05,5.41433437 0.005227172,5.29433583 L0.0328918569,4.65541024 C0.0499788681,4.25861505 0.360799739,3.93408565 0.762751337,3.89355281 L1.40961676,3.82822026 C3.76165742,3.59062314 5.79257076,2.72290033 7.08223327,2.03677531 C8.47279052,1.29705094 9.33039575,0.59705943 9.33717631,0.591459497 L9.82320685,0.188531048 C9.97482017,0.0626659071 10.16115,0 10.347751,0 Z M5.56327126,10.9960889 L5.63703104,11.1034489 L8.51366262,14.1095289 C8.5874224,14.1811022 8.66118219,14.2168889 8.77182186,14.2168889 C8.88246154,14.2168889 8.95622132,14.1811022 9.02998111,14.1095289 L14.9307638,8.16894222 C15.0782834,8.02579556 15.0782834,7.81107556 14.9307638,7.66792889 L14.4144453,7.16691556 C14.2669258,7.02376889 14.0456464,7.02376889 13.8981269,7.16691556 L13.861247,7.16691556 L8.91934143,12.1412622 C8.84558165,12.2128356 8.73494197,12.2128356 8.66118219,12.1412622 L6.63278812,10.0298489 L6.59590823,9.99406222 C6.44838866,9.85091556 6.22710931,9.85091556 6.07958974,9.99406222 L5.56327126,10.4950756 C5.48951147,10.5666489 5.45263158,10.6740089 5.45263158,10.7455822 C5.45263158,10.8171556 5.48951147,10.9245156 5.56327126,10.9960889 Z" id="path-1"></path>
    </defs>
    <g id="RHP-Search--Desktop-v2" stroke="none" stroke-width="1" fill="none" fill-rule="evenodd">
        <g id="Profile-user-info" transform="translate(-790.000000, -225.000000)">
            <g id="Profile-Status-Copy-3" transform="translate(790.000000, 225.000000)">
                <g id="Icons/Verify">
                    <g id="verify" transform="translate(0.221053, 0.440000)">
                        <g id="Shape-+-colour/light-green-Mask">
                            <mask id="mask-2" fill="white">
                                <use xlink:href="#path-1"></use>
                            </mask>
                            <use id="icVerify" fill="#7BCB45" fill-rule="nonzero" xlink:href="#path-1"></use>
                        </g>
                    </g>
                </g>
            </g>
        </g>
    </g>
</svg>