<?xml version="1.0" encoding="UTF-8"?>
<svg width="11px" height="9px" viewBox="0 0 11 9" version="1.1" xmlns="http://www.w3.org/2000/svg" xmlns:xlink="http://www.w3.org/1999/xlink">
    <!-- Generator: Sketch 50.2 (55047) - http://www.bohemiancoding.com/sketch -->
    <title>quoteRight</title>
    <desc>Created with Sketch.</desc>
    <defs></defs>
    <g id="Page-1" stroke="none" stroke-width="1" fill="none" fill-rule="evenodd">
        <g id="New-Members-Grid-OFF-Copy-7" transform="translate(-248.000000, -2196.000000)" fill="#7BCB45">
            <path d="M252.551015,2197.14628 C251.460261,2198.21614 250.813429,2199.29872 250.610498,2200.39406 L252.474916,2200.39406 L252.132472,2204.36782 L248.213389,2204.36782 L248.441685,2201.57855 C248.517784,2200.50868 248.771444,2199.52162 249.202672,2198.61733 C249.6339,2197.71304 250.306099,2196.84061 251.219288,2196 L252.551015,2197.14628 Z M258.943305,2197.14628 C257.852552,2198.21614 257.20572,2199.29872 257.002789,2200.39406 L258.867207,2200.39406 L258.524763,2204.36782 L254.60568,2204.36782 L254.833976,2201.57855 C254.910075,2200.50868 255.163735,2199.52162 255.594963,2198.61733 C256.026191,2197.71304 256.698389,2196.84061 257.611578,2196 L258.943305,2197.14628 Z" id="quoteRight" transform="translate(253.578347, 2200.183910) rotate(-180.000000) translate(-253.578347, -2200.183910) "></path>
        </g>
    </g>
</svg>