<?xml version="1.0" encoding="UTF-8"?>
<svg width="11px" height="9px" viewBox="0 0 11 9" version="1.1" xmlns="http://www.w3.org/2000/svg" xmlns:xlink="http://www.w3.org/1999/xlink">
    <!-- Generator: Sketch 50.2 (55047) - http://www.bohemiancoding.com/sketch -->
    <title>quoteLeft</title>
    <desc>Created with Sketch.</desc>
    <defs></defs>
    <g id="Page-1" stroke="none" stroke-width="1" fill="none" fill-rule="evenodd">
        <g id="New-Members-Grid-OFF-Copy-7" transform="translate(-61.000000, -2158.000000)" fill="#7BCB45">
            <path d="M65.3376594,2159.14629 C64.2468975,2160.21616 63.60006,2161.29875 63.3971276,2162.39409 L65.2615601,2162.39409 L64.9191133,2166.36788 L61,2166.36788 L61.2282979,2163.57859 C61.3043975,2162.50872 61.5580593,2161.52165 61.9892907,2160.61735 C62.4205222,2159.71306 63.0927258,2158.84061 64.0059219,2158 L65.3376594,2159.14629 Z M71.7299995,2159.14629 C70.6392376,2160.21616 69.9924002,2161.29875 69.7894677,2162.39409 L71.6539003,2162.39409 L71.3114535,2166.36788 L67.3923402,2166.36788 L67.620638,2163.57859 C67.6967377,2162.50872 67.9503994,2161.52165 68.3816309,2160.61735 C68.8128623,2159.71306 69.485066,2158.84061 70.398262,2158 L71.7299995,2159.14629 Z" id="quoteLeft"></path>
        </g>
    </g>
</svg>