<?xml version="1.0" encoding="UTF-8"?>
<svg width="23px" height="23px" viewBox="0 0 23 23" version="1.1" xmlns="http://www.w3.org/2000/svg" xmlns:xlink="http://www.w3.org/1999/xlink">
    <!-- Generator: Sketch 52.1 (67048) - http://www.bohemiancoding.com/sketch -->
    <title>icCloseXCircle</title>
    <desc>Created with Sketch.</desc>
    <defs>
        <path d="M920.081264,723.140959 C919.807662,722.867357 919.364597,722.867357 919.091685,723.140959 L916.107625,726.124982 L913.165251,723.182643 C912.893718,722.911111 912.454139,722.911111 912.183333,723.182643 C911.911801,723.454176 911.911801,723.893755 912.183333,724.164561 L915.125708,727.106935 L912.163217,730.069426 C911.889615,730.343028 911.889615,730.786057 912.163217,731.059005 C912.436819,731.331954 912.879884,731.331954 913.152796,731.059005 L916.115323,728.096514 L919.057662,731.038853 C919.329194,731.310385 919.768773,731.310385 920.039615,731.038853 C920.311147,730.76732 920.311147,730.327741 920.039615,730.056899 L917.09724,727.114561 L920.0813,724.130537 C920.354866,723.857625 920.354866,723.413907 920.081264,723.140959 Z M916.111111,716 C909.974292,716 905,720.974292 905,727.111111 C905,733.24793 909.974292,738.222222 916.111111,738.222222 C922.247204,738.222222 927.222222,733.247204 927.222222,727.111111 C927.222222,720.975018 922.24793,716 916.111111,716 Z M916.111111,736.833333 C910.741649,736.833333 906.388889,732.480574 906.388889,727.111111 C906.388889,721.741649 910.741649,717.388889 916.111111,717.388889 C921.480574,717.388889 925.833333,721.741649 925.833333,727.111111 C925.833333,732.480574 921.480574,736.833333 916.111111,736.833333 Z" id="path-1"></path>
    </defs>
    <g id="Page-1" stroke="none" stroke-width="1" fill="none" fill-rule="evenodd">
        <g id="Desktop-Message-hover" transform="translate(-905.000000, -716.000000)">
            <mask id="mask-2" fill="white">
                <use xlink:href="#path-1"></use>
            </mask>
            <use id="icCloseXCircle" fill="#646464" fill-rule="nonzero" xlink:href="#path-1"></use>
        </g>
    </g>
</svg>