<?xml version="1.0" encoding="UTF-8"?>
<svg width="24px" height="24px" viewBox="0 0 24 24" version="1.1" xmlns="http://www.w3.org/2000/svg" xmlns:xlink="http://www.w3.org/1999/xlink">
    <!-- Generator: Sketch 52.1 (67048) - http://www.bohemiancoding.com/sketch -->
    <title>icCloseXCircleGreen</title>
    <desc>Created with Sketch.</desc>
    <defs>
        <path d="M883.970153,765.029847 C883.69655,764.756245 883.253486,764.756245 882.980574,765.029847 L879.996514,768.013871 L877.054139,765.071532 C876.782607,764.8 876.343028,764.8 876.072222,765.071532 C875.80069,765.343065 875.80069,765.782643 876.072222,766.05345 L879.014597,768.995824 L876.052106,771.958315 C875.778504,772.231917 875.778504,772.674946 876.052106,772.947894 C876.325708,773.220842 876.768773,773.220842 877.041685,772.947894 L880.004212,769.985403 L882.94655,772.927741 C883.218083,773.199274 883.657662,773.199274 883.928504,772.927741 C884.200036,772.656209 884.200036,772.21663 883.928504,771.945788 L880.986129,769.00345 L883.970189,766.019426 C884.243755,765.746514 884.243755,765.302796 883.970153,765.029847 Z M880,757.888889 C873.863181,757.888889 868.888889,762.863181 868.888889,769 C868.888889,775.136819 873.863181,780.111111 880,780.111111 C886.136093,780.111111 891.111111,775.136093 891.111111,769 C891.111111,762.863907 886.136819,757.888889 880,757.888889 Z M880,778.722222 C874.630537,778.722222 870.277778,774.369463 870.277778,769 C870.277778,763.630537 874.630537,759.277778 880,759.277778 C885.369463,759.277778 889.722222,763.630537 889.722222,769 C889.722222,774.369463 885.369463,778.722222 880,778.722222 Z" id="path-1"></path>
    </defs>
    <g id="Page-1" stroke="none" stroke-width="1" fill="none" fill-rule="evenodd">
        <g id="Desktop-Message-hover" transform="translate(-868.000000, -757.000000)">
            <mask id="mask-2" fill="white">
                <use xlink:href="#path-1"></use>
            </mask>
            <use id="icCloseXCircleGreen" fill="#7EC34D" fill-rule="nonzero" xlink:href="#path-1"></use>
        </g>
    </g>
</svg>