<?xml version="1.0" encoding="UTF-8"?>
<svg width="15px" height="15px" viewBox="0 0 15 15" version="1.1" xmlns="http://www.w3.org/2000/svg" xmlns:xlink="http://www.w3.org/1999/xlink">
    <!-- Generator: Sketch 53.2 (72643) - https://sketchapp.com -->
    <title>icLookUpUser</title>
    <desc>Created with Sketch.</desc>
    <defs>
        <path d="M14.3358349,12.4578251 L11.2442713,9.454325 C11.227841,9.43836245 11.2085681,9.42720523 11.1913988,9.41234736 C11.7997169,8.51584859 12.1547586,7.44271234 12.1547586,6.28865866 C12.1547586,3.14933882 9.53529535,0.604444444 6.30404598,0.604444444 C3.07279661,0.604444444 0.453333333,3.14933882 0.453333333,6.28860343 C0.453333333,9.4278128 3.07273976,11.9727624 6.30398913,11.9727624 C7.49191501,11.9727624 8.59643878,11.6278277 9.51920619,11.0368268 C9.53449942,11.0534521 9.5459267,11.0721764 9.56235698,11.0881389 L12.6539774,14.0917495 C13.1184027,14.5428986 13.8713527,14.5428986 14.3358349,14.0917495 C14.8002033,13.6405451 14.8002033,12.9090295 14.3358349,12.4578251 Z M6.30404598,10.0022437 C4.19289787,10.0022437 2.48153414,8.33959774 2.48153414,6.28860343 C2.48153414,4.23755388 4.19295472,2.57490797 6.30404598,2.57490797 C8.41508039,2.57490797 10.126501,4.23760912 10.126501,6.28860343 C10.126501,8.33959774 8.41508039,10.0022437 6.30404598,10.0022437 Z" id="path-1"></path>
    </defs>
    <g id="Page-1" stroke="none" stroke-width="1" fill="none" fill-rule="evenodd">
        <g id="Filter-Copy-2" transform="translate(-34.000000, -233.000000)">
            <g id="SearchField" transform="translate(18.000000, 222.000000)">
                <g id="icLookUpUser" transform="translate(15.880000, 10.840000)">
                    <g id="colour/BlueGray">
                        <mask id="mask-2" fill="white">
                            <use xlink:href="#path-1"></use>
                        </mask>
                        <use id="Mask" fill="#D4D7DC" fill-rule="nonzero" xlink:href="#path-1"></use>
                        <g id="colour/mid-grey" mask="url(#mask-2)" fill="#A5A5A5">
                            <g transform="translate(-10.880000, -8.840000)">
                                <polygon points="0 0 34 0 34 34 0 34"></polygon>
                            </g>
                        </g>
                    </g>
                </g>
            </g>
        </g>
    </g>
</svg>