<?xml version="1.0" encoding="UTF-8"?>
<svg width="15px" height="15px" viewBox="0 0 15 15" version="1.1" xmlns="http://www.w3.org/2000/svg" xmlns:xlink="http://www.w3.org/1999/xlink">
    <!-- Generator: Sketch 50.2 (55047) - http://www.bohemiancoding.com/sketch -->
    <title>icSearchMember</title>
    <desc>Created with Sketch.</desc>
    <defs></defs>
    <g id="Page-1" stroke="none" stroke-width="1" fill="none" fill-rule="evenodd">
        <g id="Filter-Copy-2" transform="translate(-33.000000, -210.000000)" fill="#AFAFAF">
            <g id="Content-more" transform="translate(6.000000, 198.000000)">
                <g id="SearchField" transform="translate(12.000000, 0.000000)">
                    <g id="Icons/Search" transform="translate(15.000000, 12.000000)">
                        <path d="M6.22954909,11.1749027 C3.27149909,11.1749027 0.864861279,8.85796192 0.864861279,6.00904374 C0.864861279,3.16087272 3.27149909,0.843931925 6.22954909,0.843931925 C9.1875991,0.843931925 11.5942369,3.16087272 11.5942369,6.00904374 C11.5942369,8.85796192 9.1875991,11.1749027 6.22954909,11.1749027 M10.4256615,10.0384735 C11.4956103,9.00515229 12.1590982,7.58031962 12.1590982,6.00904374 C12.1590982,2.86126187 9.49916941,0.3 6.22954909,0.3 C2.95992878,0.3 0.3,2.86126187 0.3,6.00904374 C0.3,9.15757277 2.95992878,11.7188346 6.22954909,11.7188346 C7.66486459,11.7188346 8.98212707,11.2249624 10.00874,10.4053287 L14.2138184,14.6163182 C14.2691091,14.6723551 14.343079,14.7 14.4177961,14.7 C14.4880302,14.7 14.5582643,14.6745966 14.6135549,14.6237898 C14.7256306,14.5199346 14.7293664,14.348088 14.6210266,14.2397499 L10.4256615,10.0384735 Z" id="icSearchMember"></path>
                    </g>
                </g>
            </g>
        </g>
    </g>
</svg>