<?xml version="1.0" encoding="UTF-8"?>
<svg width="24px" height="20px" viewBox="0 0 24 20" version="1.1" xmlns="http://www.w3.org/2000/svg" xmlns:xlink="http://www.w3.org/1999/xlink">
    <!-- Generator: Sketch 55 (78076) - https://sketchapp.com -->
    <title>icHamberMenu</title>
    <desc>Created with Sketch.</desc>
    <g id="Page-1" stroke="none" stroke-width="1" fill="none" fill-rule="evenodd">
        <g id="RHP-Mobile-Header-Menu" transform="translate(-10.000000, -42.000000)" fill="#575858" fill-rule="nonzero">
            <g id="menu" transform="translate(10.000000, 42.000000)">
                <path d="M24,1 L24,3 C24,3.6 23.6,4 23,4 L1,4 C0.4,4 0,3.6 0,3 L0,1 C0,0.4 0.4,0 1,0 L23,0 C23.6,0 24,0.4 24,1 Z M24,9 L24,11 C24,11.6 23.6,12 23,12 L1,12 C0.4,12 0,11.6 0,11 L0,9 C0,8.4 0.4,8 1,8 L23,8 C23.6,8 24,8.4 24,9 Z M24,17 L24,19 C24,19.6 23.6,20 23,20 L1,20 C0.4,20 0,19.6 0,19 L0,17 C0,16.4 0.4,16 1,16 L23,16 C23.6,16 24,16.4 24,17 Z" id="icHamberMenu"></path>
            </g>
        </g>
    </g>
</svg>