<?xml version="1.0" encoding="UTF-8"?>
<svg width="296px" height="80px" viewBox="0 0 296 80" version="1.1" xmlns="http://www.w3.org/2000/svg" xmlns:xlink="http://www.w3.org/1999/xlink">
    <!-- Generator: Sketch 52.4 (67378) - http://www.bohemiancoding.com/sketch -->
    <title>congratsText</title>
    <desc>Created with Sketch.</desc>
    <g id="Page-1" stroke="none" stroke-width="1" fill="none" fill-rule="evenodd">
        <g id="Artboard" transform="translate(-39.000000, -3.000000)" fill="#FFFFFF">
            <g id="congratsText" transform="translate(39.000000, 3.000000)">
                <path d="M41.54,45.6 L43.54,46.4 C41.22,56 32.74,61.28 22.66,61.28 C8.98,61.28 0.9,51.52 0.9,32 C0.9,17.52 5.38,-1.42108547e-14 21.86,-1.42108547e-14 C29.86,-1.42108547e-14 37.22,4.08 37.22,12.64 C37.22,15.84 36.18,18.08 32.9,18.08 C31.62,18.08 29.78,17.76 27.86,16 C29.22,15.2 30.18,12.48 30.18,10.24 C30.18,6.8 27.94,3.76 24.58,3.76 C17.38,3.76 13.94,17.36 13.94,30.72 C13.94,48.48 20.02,54 27.7,54 C33.7,54 38.9,50.64 41.54,45.6 Z" id="Path"></path>
                <path d="M57.06,19.6 C64.34,19.6 68.82,23.44 70.1,32.24 L70.66,32.24 C73.62,32.24 78.58,30 81.62,27.44 L82.82,29.6 C80.58,32.96 75.3,35.2 70.42,36.16 C70.5,36.88 70.5,37.6 70.5,38.32 C70.5,50.64 66.42,60.48 54.9,60.48 C47.06,60.48 39.94,55.92 39.94,42.4 C39.94,33.28 43.22,19.6 57.06,19.6 Z M57.14,52.96 C61.7,52.96 63.62,46.4 63.62,37.68 L63.62,36.48 C60.98,35.92 60.5,34.32 60.5,32.48 C60.5,30.24 61.3,29.12 62.5,28.72 C61.38,25.12 59.46,24.4 58.26,24.4 C53.54,24.4 51.7,34.16 51.7,41.6 C51.7,51.2 54.74,52.96 57.14,52.96 Z" id="Combined-Shape"></path>
                <path d="M96.82,35.84 C96.82,29.44 95.3,26.96 92.66,26.96 C89.46,26.96 88.26,30.64 87.94,34.32 L87.94,60 L76.42,60 L76.42,20 L87.94,20 L87.94,24.16 C90.42,20.4 93.78,19.68 96.5,19.68 C102.58,19.68 107.7,23.2 107.7,34.4 C107.7,37.2 107.38,43.12 107.38,45.84 C107.38,50.4 108.02,52.72 111.3,52.72 C114.98,52.72 115.94,49.76 116.82,45.68 L120.18,45.68 C118.5,58.56 113.06,60.48 108.34,60.48 C100.1,60.48 96.66,54.56 96.66,45.52 C96.66,43.6 96.82,37.92 96.82,35.84 Z" id="Path"></path>
                <path d="M138.18,20 L149.7,20 L149.7,57.12 C154.18,55.36 156.58,52.72 157.38,45.68 L160.74,45.68 C159.78,56.24 154.42,59.2 149.7,60.72 L149.7,66.4 C149.7,77.84 143.46,80 138.58,80 C132.42,80 127.46,76.56 127.46,70.96 C127.46,65.12 132.9,62.08 138.18,60.32 L138.18,53.6 C136.42,56.56 133.7,58.88 129.14,58.88 C122.5,58.88 115.22,54.08 115.22,41.2 C115.22,31.68 119.22,19.6 131.22,19.6 C133.38,19.6 136.82,20 138.18,23.6 L138.18,20 Z M134.34,24.56 C129.06,24.56 126.9,33.52 126.9,40.8 C126.9,50.8 130.98,51.12 132.18,51.12 C135.62,51.12 137.78,48.56 138.18,45.2 L138.18,27.36 C137.86,26.32 136.66,24.56 134.34,24.56 Z M131.7,70.32 C131.7,72.32 133.46,73.76 134.9,73.76 C136.82,73.76 138.18,71.36 138.18,66.64 L138.18,64.32 C134.5,65.84 131.7,67.76 131.7,70.32 Z" id="Combined-Shape"></path>
                <path d="M157.38,20 L168.9,20 L168.9,24.96 C171.22,22.16 174.18,19.6 177.54,19.6 C181.54,19.6 184.42,23.36 184.42,26.72 C184.42,29.04 183.06,31.44 179.78,31.44 C174.98,31.44 176.74,26.4 173.7,26.4 C172.1,26.4 170.58,27.76 168.9,29.6 L168.9,60 L157.38,60 L157.38,20 Z" id="Path"></path>
                <path d="M208.9,20 L220.42,20 L220.42,47.2 C220.42,51.68 221.46,52.72 224.58,52.72 C227.7,52.72 229.94,49.68 230.26,45.68 L233.62,45.68 C231.86,58.72 224.34,60.48 220.02,60.48 C214.42,60.48 211.62,57.68 210.5,53.12 C208.82,56.8 205.86,60.48 200.18,60.48 C193.46,60.48 186.1,55.84 186.1,41.92 C186.1,32.16 190.26,19.6 201.38,19.6 C204.02,19.6 207.54,20.08 208.9,23.84 L208.9,20 Z M208.9,45.68 L208.9,27.68 C208.66,26.8 207.62,24.56 204.98,24.56 C199.78,24.56 197.78,34.24 197.78,41.2 C197.78,52.56 201.7,52.72 203.7,52.72 C206.02,52.72 208.9,50.32 208.9,45.68 Z" id="Combined-Shape"></path>
                <path d="M229.54,8.96 L241.06,7.36 L241.06,20 L245.94,20 L245.94,23.2 L241.06,23.2 L241.06,47.2 C241.06,51.68 242.1,52.72 245.22,52.72 C248.34,52.72 250.58,49.68 250.9,45.68 L254.26,45.68 C252.5,58.72 244.98,60.48 240.66,60.48 C232.42,60.48 229.54,55.52 229.54,48.08 L229.54,23.2 L226.98,23.2 L226.98,20 L229.54,20 L229.54,8.96 Z" id="Path"></path>
                <path d="M258.1,19.12 L269.62,17.52 C274.98,38.24 276.58,41.36 276.58,49.2 C276.58,57.6 268.98,60.48 263.14,60.48 C253.78,60.48 249.06,53.84 249.06,48.64 C249.06,45.76 250.34,43.68 252.02,42.8 C255.06,34.88 257.22,26.96 258.1,19.12 Z M258.34,46.4 C258.34,48 257.3,49.6 255.54,49.6 C254.74,49.6 253.7,49.36 253.14,48.56 C253.94,52.32 255.7,54.16 259.22,54.16 C262.26,54.16 264.9,52.72 264.9,48.56 C264.9,42.88 263.78,40.24 260.5,28.24 C259.46,33.28 257.78,38 256.1,43.04 C257.3,43.6 258.34,44.72 258.34,46.4 Z" id="Combined-Shape"></path>
                <polygon id="Path" points="292.66 41.52 285.86 41.52 283.54 4 295.06 4"></polygon>
                <path d="M282.82,53.68 C282.82,50.16 285.62,47.28 289.14,47.28 C292.66,47.28 295.54,50.16 295.54,53.68 C295.54,57.2 292.66,60 289.14,60 C285.62,60 282.82,57.2 282.82,53.68 Z" id="Path"></path>
            </g>
        </g>
    </g>
</svg>