<?xml version="1.0" encoding="UTF-8"?>
<svg width="215px" height="61px" viewBox="0 0 215 61" version="1.1" xmlns="http://www.w3.org/2000/svg" xmlns:xlink="http://www.w3.org/1999/xlink">
    <!-- Generator: Sketch 52.4 (67378) - http://www.bohemiancoding.com/sketch -->
    <title>matchText</title>
    <desc>Created with Sketch.</desc>
    <g id="Page-1" stroke="none" stroke-width="1" fill="none" fill-rule="evenodd">
        <g id="Artboard" transform="translate(-79.000000, -93.000000)" fill="#FFFFFF">
            <g id="matchText" transform="translate(79.000000, 93.000000)">
                <path d="M14.9,60 L8.5,60 L17.06,5.2 C11.14,7.52 7.7,12.4 7.7,19.2 C7.7,25.68 9.94,27.36 10.58,28.56 C4.42,28.56 0.18,25.92 0.18,19.12 C0.18,9.68 10.26,0 21.22,0 C23.54,0 25.62,0.4 27.7,1.12 L34.82,43.28 L43.46,1.12 L54.98,1.12 L59.06,60 L47.54,60 L45.06,24.08 L37.62,60 L26.66,60 L20.58,24.08 L14.9,60 Z" id="Path"></path>
                <path d="M86.74,20 L98.26,20 L98.26,47.2 C98.26,51.68 99.3,52.72 102.42,52.72 C105.54,52.72 107.78,49.68 108.1,45.68 L111.46,45.68 C109.7,58.72 102.18,60.48 97.86,60.48 C92.26,60.48 89.46,57.68 88.34,53.12 C86.66,56.8 83.7,60.48 78.02,60.48 C71.3,60.48 63.94,55.84 63.94,41.92 C63.94,32.16 68.1,19.6 79.22,19.6 C81.86,19.6 85.38,20.08 86.74,23.84 L86.74,20 Z M86.74,45.68 L86.74,27.68 C86.5,26.8 85.46,24.56 82.82,24.56 C77.62,24.56 75.62,34.24 75.62,41.2 C75.62,52.56 79.54,52.72 81.54,52.72 C83.86,52.72 86.74,50.32 86.74,45.68 Z" id="Combined-Shape"></path>
                <path d="M107.38,8.96 L118.9,7.36 L118.9,20 L123.78,20 L123.78,23.2 L118.9,23.2 L118.9,47.2 C118.9,51.68 119.94,52.72 123.06,52.72 C126.18,52.72 128.42,49.68 128.74,45.68 L132.1,45.68 C130.34,58.72 122.82,60.48 118.5,60.48 C110.26,60.48 107.38,55.52 107.38,48.08 L107.38,23.2 L104.82,23.2 L104.82,20 L107.38,20 L107.38,8.96 Z" id="Path"></path>
                <path d="M148.02,32.4 C148.18,31.52 148.26,31.04 148.26,30 C148.26,25.68 146.9,23.84 144.98,23.84 C140.66,23.84 138.82,33.44 138.82,41.36 C138.82,51.28 141.7,53.76 147.06,53.76 C153.38,53.76 156.42,50.24 159.46,45.68 L162.18,45.68 C159.22,53.04 154.02,60.48 143.14,60.48 C134.1,60.48 127.46,55.36 127.46,42.08 C127.46,33.04 130.5,19.6 143.86,19.6 C152.18,19.6 154.42,24.8 154.42,28.56 C154.42,31.36 153.22,33.36 151.3,33.36 C150.5,33.36 149.14,33.04 148.02,32.4 Z" id="Path"></path>
                <path d="M179.86,35.68 C179.86,29.44 178.34,26.96 175.62,26.96 C172.74,26.96 171.3,30.32 170.98,34.32 L170.98,60 L159.46,60 L159.46,5.6 L170.98,4 L170.98,24.16 C173.54,20.32 176.9,19.68 179.38,19.68 C185.62,19.68 190.74,23.28 190.74,34.08 C190.74,37.6 190.42,42.88 190.42,45.92 C190.42,50.4 191.3,52.72 194.66,52.72 C196.02,52.72 196.82,52.56 197.22,52.24 C197.22,58 194.74,60.48 190.18,60.48 C182.26,60.48 179.7,53.76 179.7,45.92 C179.7,43.04 179.86,38.24 179.86,35.68 Z" id="Path"></path>
                <polygon id="Path" points="211.3 41.52 204.5 41.52 202.18 4 213.7 4"></polygon>
                <path d="M201.46,53.68 C201.46,50.16 204.26,47.28 207.78,47.28 C211.3,47.28 214.18,50.16 214.18,53.68 C214.18,57.2 211.3,60 207.78,60 C204.26,60 201.46,57.2 201.46,53.68 Z" id="Path"></path>
            </g>
        </g>
    </g>
</svg>