<?xml version="1.0" encoding="UTF-8"?>
<svg width="60px" height="25px" viewBox="0 0 60 25" version="1.1" xmlns="http://www.w3.org/2000/svg" xmlns:xlink="http://www.w3.org/1999/xlink">
    <!-- Generator: Sketch 52.2 (67145) - http://www.bohemiancoding.com/sketch -->
    <title>icListView</title>
    <desc>Created with Sketch.</desc>
    <defs>
        <path d="M20.4998794,16.0848364 C22.2487743,16.0848364 23.6665337,14.6955678 23.6665337,12.9818182 C23.6665337,11.2680686 22.2487743,9.8788 20.4998794,9.8788 C18.7509845,9.8788 17.3332251,11.2680686 17.3332251,12.9818182 C17.3332251,14.6955678 18.7509845,16.0848364 20.4998794,16.0848364 Z M29.9809536,12.8632727 C28.6345884,8.75796364 24.8243091,6 20.4998794,6 C16.1754497,6 12.3652075,8.75796364 11.0188423,12.8632727 C10.9937192,12.9401818 10.9937192,13.0234909 11.0188423,13.1004 C12.3652075,17.2057091 16.1754868,19.9636727 20.4999165,19.9636727 C24.8243462,19.9636727 28.6345884,17.2057091 29.9809907,13.1004 C30.0060767,13.0234909 30.0060767,12.9401818 29.9809536,12.8632727 Z M20.4998794,18.4121455 C17.444145,18.4121455 14.9582251,15.9761455 14.9582251,12.9818545 C14.9582251,9.98756364 17.4441821,7.55156364 20.4998794,7.55156364 C23.5555767,7.55156364 26.0415337,9.98756364 26.0415337,12.9818545 C26.0415337,15.9761455 23.5556138,18.4121455 20.4998794,18.4121455 Z" id="path-1"></path>
    </defs>
    <g id="Symbols" stroke="none" stroke-width="1" fill="none" fill-rule="evenodd">
        <g id="People-Watching">
            <g id="Group-4-Copy-2">
                <g id="icListView">
                    <rect id="Rectangle" fill="#565957" fill-rule="nonzero" x="0" y="0" width="60" height="25" rx="10"></rect>
                    <mask id="mask-2" fill="white">
                        <use xlink:href="#path-1"></use>
                    </mask>
                    <use id="Shape" fill="#FFFFFF" fill-rule="nonzero" xlink:href="#path-1"></use>
                </g>
            </g>
        </g>
    </g>
</svg>