<?xml version="1.0" encoding="UTF-8"?>
<svg width="21px" height="17px" viewBox="0 0 21 17" version="1.1" xmlns="http://www.w3.org/2000/svg" xmlns:xlink="http://www.w3.org/1999/xlink">
    <!-- Generator: Sketch 52.2 (67145) - http://www.bohemiancoding.com/sketch -->
    <title>icVideoChatRoom</title>
    <desc>Created with Sketch.</desc>
    <defs>
        <filter x="-2.3%" y="-4.0%" width="104.7%" height="107.9%" filterUnits="objectBoundingBox" id="filter-1">
            <feOffset dx="0" dy="0" in="SourceAlpha" result="shadowOffsetOuter1"></feOffset>
            <feGaussianBlur stdDeviation="2" in="shadowOffsetOuter1" result="shadowBlurOuter1"></feGaussianBlur>
            <feColorMatrix values="0 0 0 0 0   0 0 0 0 0   0 0 0 0 0  0 0 0 0.5 0" type="matrix" in="shadowBlurOuter1" result="shadowMatrixOuter1"></feColorMatrix>
            <feMerge>
                <feMergeNode in="shadowMatrixOuter1"></feMergeNode>
                <feMergeNode in="SourceGraphic"></feMergeNode>
            </feMerge>
        </filter>
    </defs>
    <g id="Page-1" stroke="none" stroke-width="1" fill="none" fill-rule="evenodd">
        <g id="Chatrooms_Home--Copy" transform="translate(-272.000000, -267.000000)" fill="#FFFFFF" fill-rule="nonzero">
            <g id="Cards-/-List-1-up-/-Outlined-/-Avatar-/-Resting-Copy-17" filter="url(#filter-1)" transform="translate(16.000000, 103.000000)">
                <g id="Group-4" transform="translate(251.000000, 154.000000)">
                    <path d="M21.7169942,14.2600651 C21.6541322,14.2366691 21.5936841,14.2249218 21.535599,14.2249218 C21.4049966,14.2249218 21.2962967,14.2695466 21.2091691,14.3585499 L18.2856054,17.1851814 L18.2856054,16.0250351 C18.2856054,15.4671512 18.0812659,14.9902667 17.672587,14.5941354 C17.2638826,14.1980533 16.7719129,14 16.1962711,14 L11.0892326,14 C10.5137688,14 10.0216465,14.1980533 9.61291678,14.5941354 C9.20433947,14.9902667 9,15.4671512 9,16.0250351 L9,20.9750388 C9,21.5328734 9.20433947,22.0097333 9.61294219,22.40584 C10.021672,22.8019467 10.5137942,23 11.089258,23 L16.1963219,23 C16.7719383,23 17.2639334,22.8019467 17.6726378,22.40584 C18.0813167,22.0097333 18.2856562,21.5328981 18.2856562,20.9750388 L18.2856562,19.8077751 L21.20922,22.6414254 C21.2963475,22.7304041 21.4050474,22.7750043 21.5356499,22.7750043 C21.5937349,22.7750043 21.654183,22.7632817 21.717045,22.7399349 C21.9057579,22.6602161 22,22.5219827 22,22.3251114 L22,14.6750117 C21.9999238,14.478042 21.9056817,14.3397839 21.7169942,14.2600651 Z" id="icVideoChatRoom"></path>
                </g>
            </g>
        </g>
    </g>
</svg>