<?xml version="1.0" encoding="UTF-8"?>
<svg width="22px" height="16px" viewBox="0 0 22 16" version="1.1" xmlns="http://www.w3.org/2000/svg" xmlns:xlink="http://www.w3.org/1999/xlink">
    <!-- Generator: Sketch 52.4 (67378) - http://www.bohemiancoding.com/sketch -->
    <title>icCheckHomeStream</title>
    <desc>Created with Sketch.</desc>
    <defs>
        <path d="M7,12.8812386 L2.625,8.50623859 C2.39393291,8.27230354 2.07881241,8.14063641 1.75,8.14063641 C1.42118759,8.14063641 1.10606709,8.27230354 0.875,8.50623859 C0.3875,8.99373859 0.3875,9.76873859 0.875,10.2562386 L6.1125,15.4937386 C6.6,15.9812386 7.3875,15.9812386 7.875,15.4937386 L21.125,2.25623859 C21.6125,1.76873859 21.6125,0.993738588 21.125,0.506238588 C20.8939329,0.272303543 20.5788124,0.140636412 20.25,0.140636412 C19.9211876,0.140636412 19.6060671,0.272303543 19.375,0.506238588 L7,12.8812386 Z" id="path-1"></path>
    </defs>
    <g id="Page-1" stroke="none" stroke-width="1" fill="none" fill-rule="evenodd">
        <g id="NOTIFICATIONS" transform="translate(-333.000000, -1086.000000)">
            <g id="Group-6-Copy" transform="translate(0.000000, 1044.000000)">
                <g id="Group-4" transform="translate(324.000000, 30.000000)">
                    <g id="Icon-/-Close-/-Rounded" transform="translate(9.000000, 12.000000)">
                        <mask id="mask-2" fill="white">
                            <use xlink:href="#path-1"></use>
                        </mask>
                        <use id="icCheckHomeStream" fill="#7BCB45" fill-rule="nonzero" xlink:href="#path-1"></use>
                    </g>
                </g>
            </g>
        </g>
    </g>
</svg>