<?xml version="1.0" encoding="UTF-8"?>
<svg width="19px" height="19px" viewBox="0 0 19 19" version="1.1" xmlns="http://www.w3.org/2000/svg" xmlns:xlink="http://www.w3.org/1999/xlink">
    <!-- Generator: Sketch 52.2 (67145) - http://www.bohemiancoding.com/sketch -->
    <title>icCloseNotification</title>
    <desc>Created with Sketch.</desc>
    <defs>
        <path d="M336.660801,30.2213333 L339.057398,27.8247359 C339.459543,27.4225912 339.457411,26.7802516 339.059913,26.3827537 C338.659644,25.9824844 338.016818,25.9863816 337.617931,26.3852685 L335.221333,28.781866 L332.824736,26.3852685 C332.422591,25.9831238 331.780252,25.9852557 331.382754,26.3827537 C330.982484,26.7830229 330.986382,27.425849 331.385268,27.8247359 L333.781866,30.2213333 L331.385268,32.6179308 C330.983124,33.0200755 330.985256,33.6624151 331.382754,34.059913 C331.783023,34.4601822 332.425849,34.456285 332.824736,34.0573982 L335.221333,31.6608007 L337.617931,34.0573982 C338.020075,34.4595429 338.662415,34.4574109 339.059913,34.059913 C339.460182,33.6596438 339.456285,33.0168176 339.057398,32.6179308 L336.660801,30.2213333 Z M335.5,40 C330.253295,40 326,35.7467051 326,30.5 C326,25.2532949 330.253295,21 335.5,21 C340.746705,21 345,25.2532949 345,30.5 C345,35.7467051 340.746705,40 335.5,40 Z" id="path-1"></path>
    </defs>
    <g id="Page-1" stroke="none" stroke-width="1" fill="none" fill-rule="evenodd">
        <g id="Quick-reply-Copy" transform="translate(-332.000000, -93.000000)">
            <g id="Notification" transform="translate(6.000000, 72.000000)">
                <mask id="mask-2" fill="white">
                    <use xlink:href="#path-1"></use>
                </mask>
                <use id="icCloseNotification" fill="#FFFFFF" xlink:href="#path-1"></use>
            </g>
        </g>
    </g>
</svg>