<?xml version="1.0" encoding="UTF-8"?>
<svg width="15px" height="15px" viewBox="0 0 15 15" version="1.1" xmlns="http://www.w3.org/2000/svg" xmlns:xlink="http://www.w3.org/1999/xlink">
    <!-- Generator: Sketch 53.2 (72643) - https://sketchapp.com -->
    <title>icGlobe</title>
    <desc>Created with Sketch.</desc>
    <g id="Page-1" stroke="none" stroke-width="1" fill="none" fill-rule="evenodd">
        <g id="Feedback-react-JS" transform="translate(-150.000000, -2462.000000)" fill="#746D6C">
            <path d="M157.5,2477 C153.357864,2477 150,2473.64214 150,2469.5 C150,2465.35786 153.357864,2462 157.5,2462 C161.642136,2462 165,2465.35786 165,2469.5 C165,2473.64214 161.642136,2477 157.5,2477 Z M162.197686,2466.76462 L162.020586,2466.81701 L161.077431,2466.89541 L160.811027,2467.29236 L160.617723,2467.23505 L159.867118,2466.60359 L159.75822,2466.2752 L159.612395,2465.92502 L159.140629,2465.53018 L158.584081,2465.42857 L158.57127,2465.66625 L159.116514,2466.16269 L159.383295,2466.45592 L159.083354,2466.60218 L158.839182,2466.53503 L158.473299,2466.39264 L158.485734,2466.11734 L158.005679,2465.93311 L157.846288,2466.58038 L157.362464,2466.6827 L157.410319,2467.04378 L158.040722,2467.15699 L158.14962,2466.58003 L158.669994,2466.65176 L158.911906,2466.78396 L159.30002,2466.78396 L159.565671,2467.2804 L160.269928,2467.94702 L160.218305,2468.20614 L159.650453,2468.13864 L158.66924,2468.60098 L157.962722,2469.39171 L157.870781,2469.74189 L157.617188,2469.74189 L157.144668,2469.53868 L156.685714,2469.74189 L156.799888,2470.19369 L156.999597,2469.97887 L157.350783,2469.96867 L157.326291,2470.37441 L157.617188,2470.45387 L157.907708,2470.75835 L158.382111,2470.63388 L158.923964,2470.71369 L159.553236,2470.87156 L159.867495,2470.90601 L160.400304,2471.47032 L161.428618,2472.03462 L160.763549,2473.22019 L160.061552,2473.52467 L159.795148,2474.20218 L158.779269,2474.83505 L158.671124,2475.2 C161.268097,2474.61636 163.2,2472.43966 163.2,2469.83718 C163.199246,2468.70048 162.829973,2467.64254 162.197686,2466.76462 Z M158.05633,2472.64334 L157.647601,2471.92022 L158.022745,2471.17426 L157.647601,2471.0672 L157.226368,2470.66354 L156.293153,2470.46375 L155.983391,2469.8453 L155.983391,2470.21248 L155.84691,2470.21248 L155.042673,2469.17195 L155.042673,2468.31723 L154.453161,2467.40251 L153.517088,2467.56172 L152.886488,2467.56172 L152.569224,2467.3633 L152.974022,2467.05714 L152.570296,2467.14613 C152.08368,2467.93914 151.8,2468.85932 151.8,2469.84496 C151.8,2472.80187 154.312035,2475.2 157.411082,2475.2 C157.649745,2475.2 157.883763,2475.17988 158.115281,2475.15329 L158.056687,2474.5045 C158.056687,2474.5045 158.314286,2473.54102 158.314286,2473.50829 C158.313928,2473.47522 158.05633,2472.64334 158.05633,2472.64334 Z M154.377639,2465.84436 L155.34449,2465.73343 L155.790142,2465.53239 L156.291587,2465.6513 L157.092791,2465.6148 L157.367252,2465.25977 L157.767507,2465.31395 L158.739556,2465.23895 L159.007432,2464.99599 L159.385163,2464.78839 L159.919529,2464.85455 L160.114286,2464.83031 C159.41046,2464.5577 158.627276,2464.4 157.79731,2464.4 C156.10792,2464.4 154.597346,2465.03363 153.6,2466.02857 L153.602772,2466.02857 L154.377639,2465.84436 Z M158.027413,2464.84543 L158.583266,2464.59363 L158.940203,2464.7633 L158.42351,2465.08696 L157.930035,2465.12774 L157.707902,2465.00911 L158.027413,2464.84543 Z M156.380995,2464.88221 L156.626346,2464.96634 L156.94759,2464.88221 L157.122594,2465.13173 L156.380995,2465.29199 L156.024404,2465.12032 C156.024057,2465.12032 156.373024,2464.93554 156.380995,2464.88221 Z" id="icGlobe"></path>
        </g>
    </g>
</svg>