<?xml version="1.0" encoding="UTF-8"?>
<svg width="38px" height="31px" viewBox="0 0 38 31" version="1.1" xmlns="http://www.w3.org/2000/svg" xmlns:xlink="http://www.w3.org/1999/xlink">
    <!-- Generator: Sketch 55 (78076) - https://sketchapp.com -->
    <title>icNotiQuickMsg</title>
    <desc>Created with Sketch.</desc>
    <g id="Edit-Profile" stroke="none" stroke-width="1" fill="none" fill-rule="evenodd">
        <path d="M13.5086987,28.9128565 L13.5086987,23.1291548 C9.99070002,21.1940285 8.34753626,19.2634538 7.83938558,15.9641676 L7.7062879,15.1 L12.4087087,15.1 L17.4201444,5.13811114 L10.4223905,5.13811114 L12.0091024,3.81253688 C14.7449439,1.52695448 18.4869202,0.25 22.6041395,0.25 C31.0701222,0.25 37.5241935,5.64189308 37.5241935,12.8379446 C37.5241935,20.0332996 31.0699663,25.4250582 22.6041395,25.4250582 C22.5435122,25.4250582 22.5104567,25.42468 22.4182855,25.4229799 C22.2865838,25.4201358 22.1977552,25.4168491 22.0114458,25.4073984 L15.343225,29.8995932 C15.1487485,30.0305773 14.9205613,30.1 14.6881893,30.1 C14.4914334,30.1 14.2967665,30.0504917 14.124695,29.9556605 C13.7439587,29.7474312 13.5086987,29.3459569 13.5086987,28.9128565 Z M12.2009696,15.5129502 L12.8709677,15.1 L12.4087087,15.1 L12.2009696,15.5129502 Z M13.3332268,16.6 L9.49486276,16.6 C10.0867456,18.9517803 11.5532617,20.4001065 14.6097219,22.0188667 L15.0086987,22.2301725 L15.0086987,28.3163286 L21.589485,23.8830359 L21.8493807,23.8968546 C22.2018944,23.915626 22.294397,23.9199548 22.4506709,23.9233296 C22.5279389,23.9247526 22.5546485,23.9250582 22.6041395,23.9250582 C30.2952351,23.9250582 36.0241935,19.1391776 36.0241935,12.8379446 C36.0241935,6.53599594 30.2953783,1.75 22.6041395,1.75 C19.7389782,1.75 17.0898453,2.41831577 14.9047038,3.63811114 L19.8538448,3.63811114 L13.3332268,16.6 Z M3.67741935,8.5 L3.67741935,7 L14.7096774,7 L14.7096774,8.5 L3.67741935,8.5 Z M0,11.2 L0,9.7 L11.0322581,9.7 L11.0322581,11.2 L0,11.2 Z M3.67741935,13.9 L3.67741935,12.4 L9.80645161,12.4 L9.80645161,13.9 L3.67741935,13.9 Z M20.6129032,14 C19.6484249,14 18.8870968,13.1615374 18.8870968,12.15 C18.8870968,11.1384626 19.6484249,10.3 20.6129032,10.3 C21.5773816,10.3 22.3387097,11.1384626 22.3387097,12.15 C22.3387097,13.1615374 21.5773816,14 20.6129032,14 Z M25.516129,14 C24.5516507,14 23.7903226,13.1615374 23.7903226,12.15 C23.7903226,11.1384626 24.5516507,10.3 25.516129,10.3 C26.4806074,10.3 27.2419355,11.1384626 27.2419355,12.15 C27.2419355,13.1615374 26.4806074,14 25.516129,14 Z M30.4193548,14 C29.4548765,14 28.6935484,13.1615374 28.6935484,12.15 C28.6935484,11.1384626 29.4548765,10.3 30.4193548,10.3 C31.3838332,10.3 32.1451613,11.1384626 32.1451613,12.15 C32.1451613,13.1615374 31.3838332,14 30.4193548,14 Z" id="icNotiQuickMsg" fill="#FFFFFF" fill-rule="nonzero"></path>
    </g>
</svg>