<?xml version="1.0" encoding="UTF-8"?>
<svg width="28px" height="26px" viewBox="0 0 28 26" version="1.1" xmlns="http://www.w3.org/2000/svg" xmlns:xlink="http://www.w3.org/1999/xlink">
    <!-- Generator: Sketch 55 (78076) - https://sketchapp.com -->
    <title>icNotiRequestCancel</title>
    <desc>Created with Sketch.</desc>
    <defs>
        <path d="M18.5,5.5 L26.5,5.5 C27.0522847,5.5 27.5,5.94771525 27.5,6.5 C27.5,7.05228475 27.0522847,7.5 26.5,7.5 L18.5,7.5 C17.9477153,7.5 17.5,7.05228475 17.5,6.5 C17.5,5.94771525 17.9477153,5.5 18.5,5.5 Z M8.42543436,11.483871 C5.58302966,11.483871 3.23853758,9.38343654 3.23809524,6.7844759 L3.23809524,4.69904286 C3.23809524,2.10051677 5.58295048,7.10542736e-15 8.42543436,7.10542736e-15 L9.57456564,7.10542736e-15 C12.4173127,7.10542736e-15 14.7619048,2.10040251 14.7619048,4.69904286 L14.7619048,6.7844759 C14.7619048,9.38329236 12.4171161,11.483871 9.57456564,11.483871 L8.42543436,11.483871 Z M8.42543436,10.483871 L9.57456564,10.483871 C11.8878482,10.483871 13.7619048,8.80499767 13.7619048,6.7844759 L13.7619048,4.69904286 C13.7619048,2.6786972 11.8880448,1 9.57456564,1 L8.42543436,1 C6.11220716,1 4.23809524,2.67882582 4.23809524,4.69904286 L4.23809523,6.7843908 C4.23843916,8.80509639 6.1122771,10.483871 8.42543436,10.483871 Z M13.575905,12.9032258 C16.0294258,12.9032258 18,15.1126109 18,17.802761 L18,24.156656 C18,25.1628329 17.2533652,26 16.3019268,26 L1.69807318,26 C0.746634797,26 0,25.1628329 0,24.156656 L0,17.802761 C0,15.112737 1.97045721,12.9032258 4.42343324,12.9032258 L13.575905,12.9032258 Z M13.575905,13.9032258 L4.42343324,13.9032258 C2.5498763,13.9032258 1,15.6411316 1,17.802761 L1,24.156656 C1,24.6344271 1.32603939,25 1.69807318,25 L16.3019268,25 C16.6739606,25 17,24.6344271 17,24.156656 L17,17.802761 C17,15.6410279 15.4500357,13.9032258 13.575905,13.9032258 Z" id="path-1"></path>
    </defs>
    <g id="Edit-Profile" stroke="none" stroke-width="1" fill="none" fill-rule="evenodd">
        <mask id="mask-2" fill="white">
            <use xlink:href="#path-1"></use>
        </mask>
        <use id="icNotiRequestCancel" fill="#FFFFFF" xlink:href="#path-1"></use>
    </g>
</svg>