<?xml version="1.0" encoding="UTF-8"?>
<svg width="82px" height="97px" viewBox="0 0 82 97" version="1.1" xmlns="http://www.w3.org/2000/svg" xmlns:xlink="http://www.w3.org/1999/xlink">
    <!-- Generator: Sketch 55.2 (78181) - https://sketchapp.com -->
    <title>icNotificationEmptyMobile</title>
    <desc>Created with Sketch.</desc>
    <g id="Page-1" stroke="none" stroke-width="1" fill="none" fill-rule="evenodd" fill-opacity="0.6">
        <g id="empty-state-notification" transform="translate(-147.000000, -197.000000)" fill="#666666">
            <path d="M152.531049,279.5 C145.156317,279.5 145.156317,268.350877 152.531049,268.350877 C158.501071,268.350877 158.852248,246.77193 158.852248,239.219298 C158.852248,221.236842 169.38758,210.807018 181.327623,208.289474 C179.220557,203.254386 182.732334,197.5 188,197.5 C193.267666,197.5 196.779443,203.254386 194.672377,208.289474 C206.61242,210.807018 217.147752,221.236842 217.147752,239.219298 C217.147752,246.77193 217.498929,268.350877 223.468951,268.350877 C230.843683,268.350877 230.843683,279.5 223.468951,279.5 L152.531049,279.5 Z M193.985515,282.5 C196.867966,287.3125 193.264902,293.5 187.5,293.5 C181.735098,293.5 178.132034,287.3125 181.014485,282.5 L193.985515,282.5 Z" id="icNotificationEmptyMobile"></path>
        </g>
    </g>
</svg>