<?xml version="1.0" encoding="UTF-8"?>
<svg width="29px" height="28px" viewBox="0 0 29 28" version="1.1" xmlns="http://www.w3.org/2000/svg" xmlns:xlink="http://www.w3.org/1999/xlink">
    <!-- Generator: Sketch 55 (78076) - https://sketchapp.com -->
    <title>icNotiMsg</title>
    <desc>Created with Sketch.</desc>
    <defs>
        <path d="M23.189905,0.38 C25.9083988,0.38 28.12,2.6228826 28.12,5.37972914 L28.12,16.8013276 C28.12,19.3447491 26.2377292,21.4506814 23.8114125,21.7614595 L23.8114125,26.7400702 C23.8114125,27.1446018 23.5711393,27.5090562 23.2026838,27.6637653 C23.0807329,27.7150418 22.9526293,27.74 22.8256301,27.74 C22.5689496,27.74 22.3168443,27.6384871 22.1281597,27.4470606 L16.5606231,21.8010568 L4.93009504,21.8009768 C2.21160119,21.8009768 8.5442764e-13,19.5581742 8.5442764e-13,16.8013276 L8.5442764e-13,5.37972914 C8.5442764e-13,2.6228826 2.21160119,0.38 4.93009504,0.38 L23.189905,0.38 Z M26.6,16.9356008 L26.6,5.06953485 C26.6,3.35104128 25.223433,1.95300961 23.5313243,1.95300961 L4.58867569,1.95300961 C2.896567,1.95300961 1.52,3.35104128 1.52,5.06953485 L1.52,16.9356008 C1.52,18.6540944 2.896567,20.0521261 4.58867569,20.0521261 L17.0778584,20.0521261 C17.349293,20.0521261 17.609353,20.1614953 17.8011657,20.356382 L22.1302897,24.7530096 L22.1302897,21.0909678 C22.1302897,20.5173609 22.5882998,20.0521261 23.1531816,20.0521261 L23.5313243,20.0521261 C25.223433,20.0521261 26.6,18.6540944 26.6,16.9356008 Z M21.04,7.98 C21.59232,7.98 22.04,8.4903552 22.04,9.12 C22.04,9.7495536 21.59224,10.26 21.04,10.26 L6.32,10.26 C5.76776,10.26 5.32,9.7495536 5.32,9.12 C5.32,8.4903552 5.76776,7.98 6.32,7.98 L21.04,7.98 Z M21.04,13.3 C21.59232,13.3 22.04,13.8104464 22.04,14.44 C22.04,15.0695536 21.59224,15.58 21.04,15.58 L6.32,15.58 C5.76776,15.58 5.32,15.0696448 5.32,14.44 C5.32,13.8103552 5.76776,13.3 6.32,13.3 L21.04,13.3 Z" id="path-1"></path>
    </defs>
    <g id="Edit-Profile" stroke="none" stroke-width="1" fill="none" fill-rule="evenodd">
        <mask id="mask-2" fill="white">
            <use xlink:href="#path-1"></use>
        </mask>
        <use id="icNotiMsg" fill="#FFFFFF" fill-rule="nonzero" xlink:href="#path-1"></use>
    </g>
</svg>