<?xml version="1.0" encoding="UTF-8"?>
<svg width="36px" height="32px" viewBox="0 0 36 32" version="1.1" xmlns="http://www.w3.org/2000/svg" xmlns:xlink="http://www.w3.org/1999/xlink">
    <!-- Generator: Sketch 55 (78076) - https://sketchapp.com -->
    <title>icNotiFolderDelete</title>
    <desc>Created with Sketch.</desc>
    <defs>
        <path d="M31.3461359,17.3995771 C34.0065025,18.4929065 35.8796397,21.0656121 35.88,24.0592354 C35.88,28.0408707 32.5667916,31.28 28.4940962,31.28 C25.4745226,31.28 22.8757653,29.4973517 21.7318509,26.9535292 L3.40832438,26.9528247 C1.52906223,26.9528247 5.32907052e-14,25.4579503 5.32907052e-14,23.6203538 L5.32907052e-14,3.33247092 C5.32907052e-14,1.49487439 1.52906223,-1.42108547e-14 3.40868467,-1.42108547e-14 L10.4901451,-1.42108547e-14 L14.0649225,3.17290963 L26.6465394,3.17290963 C28.5258016,3.17290963 30.0545035,4.66778402 30.0545035,6.50538055 L30.0545035,7.87979145 L33.3745573,7.87979145 L31.3461359,17.3995771 Z M1.84,23 C1.84,23.6801717 2.29220339,24.84 3.56323316,24.84 L4.55479062,24.84 L7.99072085,7.6760018 L28.52,7.6760018 L28.52,6.2850007 C28.52,5.60482897 27.9500381,5.0512091 27.2497047,5.0512091 C15.5161819,5.0512091 11.1161108,5.0512091 14.0494915,5.0512091 C14.0494915,5.0512091 13.890969,5.0512091 13.5739239,5.0512091 L13.0842507,4.61966863 L9.9301338,1.84 L3.19661017,1.84 C2.29220339,1.84 1.84,2.39361986 1.84,3.0737916 L1.84,23 Z M6.44,24.84 L21.4364903,24.84 C21.4071931,24.5694939 21.3901339,24.2960194 21.3901339,24.018092 C21.3901339,19.8235783 24.8004837,16.4112686 28.9925883,16.4112686 C29.2551512,16.4112686 29.515118,16.4246269 29.7710055,16.4506014 L31.28,9.2 L29.6682797,9.2 L28.3740082,9.2 L9.2,9.2 L6.44,24.84 Z M28.75,29.9 C31.9208276,29.9 34.5,27.320431 34.5,24.15 C34.5,20.979569 31.920431,18.4 28.75,18.4 C25.579569,18.4 23,20.979569 23,24.15 C23,27.320431 25.579569,29.9 28.75,29.9 Z M26.22,23.92 L31.74,23.92 C31.994051,23.92 32.2,24.125949 32.2,24.38 C32.2,24.634051 31.994051,24.84 31.74,24.84 L26.22,24.84 C25.965949,24.84 25.76,24.634051 25.76,24.38 C25.76,24.125949 25.965949,23.92 26.22,23.92 Z" id="path-1"></path>
    </defs>
    <g id="Edit-Profile" stroke="none" stroke-width="1" fill="none" fill-rule="evenodd">
        <mask id="mask-2" fill="white">
            <use xlink:href="#path-1"></use>
        </mask>
        <use id="icNotiFolderDelete" fill="#FFFFFF" fill-rule="nonzero" xlink:href="#path-1"></use>
    </g>
</svg>