<?xml version="1.0" encoding="UTF-8"?>
<svg width="10px" height="10px" viewBox="0 0 10 10" version="1.1" xmlns="http://www.w3.org/2000/svg" xmlns:xlink="http://www.w3.org/1999/xlink">
    <!-- Generator: Sketch 55 (78076) - https://sketchapp.com -->
    <title>icNotificationCloseX</title>
    <desc>Created with Sketch.</desc>
    <g id="RHP-Search--Desktop-v2" stroke="none" stroke-width="1" fill="none" fill-rule="evenodd">
        <g id="Notification" transform="translate(-417.000000, -671.000000)" fill="#FFFFFF">
            <g id="photo-uploaded" transform="translate(75.000000, 663.000000)">
                <path d="M348.739669,13 L351.636077,15.8964085 C352.118152,16.3784833 352.122862,17.155371 351.639117,17.6391165 C351.15872,18.1195128 350.382421,18.1220893 349.896409,17.6360772 L347,14.7396687 L344.103591,17.6360772 C343.621517,18.118152 342.844629,18.122862 342.360883,17.6391165 C341.880487,17.1587203 341.877911,16.3824206 342.363923,15.8964085 L345.260331,13 L342.363923,10.1035915 C341.881848,9.62151667 341.877138,8.84462897 342.360883,8.36088349 C342.84128,7.88048724 343.617579,7.87791072 344.103591,8.36392278 L347,11.2603313 L349.896409,8.36392278 C350.378483,7.88184798 351.155371,7.87713801 351.639117,8.36088349 C352.119513,8.84127973 352.122089,9.61757942 351.636077,10.1035915 L348.739669,13 Z" id="icNotificationCloseX"></path>
            </g>
        </g>
    </g>
</svg>