<?xml version="1.0" encoding="UTF-8"?>
<svg width="35px" height="30px" viewBox="0 0 35 30" version="1.1" xmlns="http://www.w3.org/2000/svg" xmlns:xlink="http://www.w3.org/1999/xlink">
    <!-- Generator: Sketch 55 (78076) - https://sketchapp.com -->
    <title>icNotiFolderCreated</title>
    <desc>Created with Sketch.</desc>
    <g id="Edit-Profile" stroke="none" stroke-width="1" fill="none" fill-rule="evenodd">
        <path d="M3.26228412,29.44 C1.46072423,29.44 -4.41401419e-13,27.968 -4.40536496e-13,26.1525333 L-4.40536496e-13,3.28746667 C-4.40536496e-13,1.472 1.46072423,2.66453526e-14 3.26228412,2.66453526e-14 L10.8580501,2.66453526e-14 C11.6371031,2.66453526e-14 12.3674652,0.245333333 13.0004457,0.834133333 L17.723454,4.95573333 C18.0155989,5.25013333 18.4051253,5.39733333 18.8433426,5.39733333 L31.6977159,5.39733333 C33.4992758,5.39733333 34.96,6.86933333 34.96,8.6848 L34.96,26.1525333 C34.96,27.968 33.4992758,29.44 31.6977159,29.44 L3.26228412,29.44 Z M1.84,3.54239404 C1.84,3.54239404 1.84,25.8965095 1.84,25.8485393 C1.84,26.8079434 2.60292683,27.5754667 3.55658537,27.5754667 L31.4034146,27.5754667 C32.3570732,27.5754667 33.12,26.8079434 33.12,25.8485393 L33.12,8.77114637 C33.12,7.81174227 32.3570732,7.04421899 31.4034146,7.04421899 L18.815122,7.04421899 C18.0521951,7.04421899 17.2892683,6.80436797 16.7170732,6.27669572 L12.0918293,2.24719851 C11.8057317,1.95937728 11.4242683,1.81546667 10.995122,1.81546667 L3.55658537,1.81546667 C2.60292683,1.81546667 1.84,2.58298994 1.84,3.54239404 Z" id="icNotiFolderCreated" fill="#FFFFFF" fill-rule="nonzero"></path>
    </g>
</svg>