<?xml version="1.0" encoding="UTF-8"?>
<svg width="31px" height="29px" viewBox="0 0 31 29" version="1.1" xmlns="http://www.w3.org/2000/svg" xmlns:xlink="http://www.w3.org/1999/xlink">
    <!-- Generator: Sketch 55 (78076) - https://sketchapp.com -->
    <title>icNotiReport</title>
    <desc>Created with Sketch.</desc>
    <g id="Edit-Profile" stroke="none" stroke-width="1" fill="none" fill-rule="evenodd">
        <path d="M6.5,0 L23.75,0 C27.3378894,-6.66133815e-16 30.25,2.86102095 30.25,6.39473684 L30.25,22.6052632 C30.25,26.1389791 27.3378894,29 23.75,29 L6.5,29 C2.91211061,29 -4.60742555e-15,26.1389791 -5.32907052e-15,22.6052632 L-3.99680289e-15,6.39473684 C-4.71844785e-15,2.86102095 2.91211061,7.21644966e-16 6.5,0 Z M6.5,1 C3.46047239,1 1,3.41730621 1,6.39473684 L1,22.6052632 C1,25.5826938 3.46047239,28 6.5,28 L23.75,28 C26.7895276,28 29.25,25.5826938 29.25,22.6052632 L29.25,6.39473684 C29.25,3.41730621 26.7895276,1 23.75,1 L6.5,1 Z M15.0371126,6.5 C15.5654951,6.5 16.3820862,7.153789 16.3820862,7.66748036 L15.9017385,18.4082996 C15.9017385,18.921991 15.4694255,19.3422839 14.9410431,19.3422839 C14.4126606,19.3422839 13.9803477,18.921991 13.9803477,18.4082996 L13.7401738,7.71417957 C13.7401738,7.20048821 14.5567649,6.5 15.0371126,6.5 Z M14.9410431,21.6772446 C15.7576342,21.6772446 16.3820862,22.2843344 16.3820862,23.0782211 C16.3820862,23.8721077 15.7576342,24.4791975 14.9410431,24.4791975 C14.124452,24.4791975 13.5,23.8721077 13.5,23.0782211 C13.5,22.2843344 14.124452,21.6772446 14.9410431,21.6772446 Z" id="icNotiReport" fill="#FFFFFF" fill-rule="nonzero"></path>
    </g>
</svg>