<?xml version="1.0" encoding="UTF-8"?>
<svg width="26px" height="26px" viewBox="0 0 26 26" version="1.1" xmlns="http://www.w3.org/2000/svg" xmlns:xlink="http://www.w3.org/1999/xlink">
    <!-- Generator: Sketch 53.2 (72643) - https://sketchapp.com -->
    <title>icNotiInterested</title>
    <desc>Created with Sketch.</desc>
    <g id="Page-1" stroke="none" stroke-width="1" fill="none" fill-rule="evenodd">
        <g id="icNotiInterested">
            <circle id="Oval-6" stroke="#FFFFFF" fill="#C60E01" cx="13" cy="13" r="12.5"></circle>
            <path d="M17.8521052,7.21770808 C18.4186912,7.20853112 18.9651405,7.4346006 19.3689311,7.84522842 C19.7727218,8.25585623 20.0000696,8.81668619 20,9.40197196 L20,17.8155738 C19.9941719,18.4016087 19.762921,18.9611872 19.3572337,19.3709324 C18.9515465,19.7806777 18.4047376,20.0069418 17.8373684,19.9998376 L8.14789473,19.9998376 C6.97202376,20.0061846 6.01214829,19.0300561 6,17.8155738 L6,9.40197196 C6.01811588,8.18171045 6.98107318,7.20234328 8.16263158,7.20248673 L8.70789473,7.20248673 L8.70789473,6.38053378 C8.74897361,6.21123833 8.89628726,6.09250963 9.06526315,6.09250963 C9.23423905,6.09250963 9.3815527,6.21123833 9.42263158,6.38053378 L9.42263158,7.20248673 L11.3347368,7.20248673 L11.3347368,6.38053378 C11.3758157,6.21123833 11.5231294,6.09250963 11.6921053,6.09250963 C11.8610812,6.09250963 12.0083948,6.21123833 12.0494737,6.38053378 L12.0494737,7.20248673 L13.9652631,7.20248673 L13.9652631,6.38053378 C14.006342,6.21123833 14.1536557,6.09250963 14.3226316,6.09250963 C14.4916075,6.09250963 14.6389211,6.21123833 14.68,6.38053378 L14.68,7.20248673 L16.5736842,7.20248673 L16.5736842,6.38053378 C16.5736842,6.17037077 16.7386319,6 16.9421053,6 C17.1455786,6 17.3105263,6.17037077 17.3105263,6.38053378 L17.3105263,7.21770808 L17.8521052,7.21770808 Z M17.7022859,19.2465887 C18.0644311,19.2477265 18.4120173,19.0757958 18.6680935,18.7688597 C18.9241698,18.4619237 19.0676113,18.0453027 19.066662,17.611231 L19.0666667,9.73333333 L6.93333333,9.73333333 L6.93333333,17.611231 C6.93520966,18.048713 7.08249618,18.4672532 7.34258483,18.7741901 C7.60267347,19.0811271 7.95410794,19.2511398 8.31908343,19.2465887 L17.7022859,19.2465887 Z M14.4409357,11.6095228 C15.4395065,11.6141912 16.2510733,12.4781476 16.2666667,13.5531115 C16.2666667,15.8801292 13.2578947,17.1097466 13.1391813,17.1626333 C13.0985465,17.192787 13.0488601,17.2053737 13,17.1978912 C12.9414137,17.1950982 12.8835078,17.1832234 12.8280702,17.1626333 C9.73333333,15.6068809 9.73333333,13.8483959 9.73333333,13.5354825 C9.75033242,12.7026198 10.2499992,11.9704101 10.9831445,11.7040141 C11.7162899,11.4376181 12.5258894,11.6940923 13.0081871,12.3455303 C13.3620356,11.8853415 13.8860723,11.6161422 14.4409357,11.6095228 Z" id="Combined-Shape" fill="#FFFFFF" fill-rule="nonzero"></path>
        </g>
    </g>
</svg>