<?xml version="1.0" encoding="UTF-8"?>
<svg width="27px" height="27px" viewBox="0 0 27 27" version="1.1" xmlns="http://www.w3.org/2000/svg" xmlns:xlink="http://www.w3.org/1999/xlink">
    <!-- Generator: Sketch 55 (78076) - https://sketchapp.com -->
    <title>icNotiNote</title>
    <desc>Created with Sketch.</desc>
    <defs>
        <path d="M24.5378699,16.8358341 C24.9035933,16.8358341 25.2,17.1308008 25.2,17.4947474 L25.2,23.3454337 C25.1979308,25.1641373 23.716932,26.6379409 21.8893494,26.64 L3.31065061,26.64 C1.48306805,26.6379409 0.00206915663,25.1641373 -9.05941988e-14,23.3454337 L-9.05941988e-14,6.17456625 C0.00206915663,4.35586269 1.48306805,2.8820591 3.31065061,2.88 L9.18964186,2.88 C9.55536533,2.88 9.85177198,3.17522404 9.85177198,3.53891325 C9.85177198,3.90285983 9.55536533,4.1978265 9.18964186,4.1978265 L3.31065061,4.1978265 C2.2139976,4.19911342 1.32555345,5.08349855 1.32426024,6.17456625 L1.32426024,23.3451764 C1.32555345,24.4365014 2.2139976,25.3208866 3.31065061,25.3219161 L21.8893494,25.3219161 C22.9860024,25.3208866 23.8744465,24.4365014 23.8757398,23.3451764 L23.8757398,17.4947474 C23.8757398,17.1308008 24.1721464,16.8358341 24.5378699,16.8358341 Z M24.9290687,0.905789654 L25.7355394,1.71218878 C26.9414869,2.92071373 26.9414869,4.87711745 25.7355394,6.08564234 L13.4744465,18.346184 C13.3904167,18.4302063 13.286252,18.4908741 13.1718857,18.5225503 L7.35074585,20.13508 C7.11207993,20.2011167 6.85650067,20.1337378 6.68119265,19.9587138 C6.506153,19.7834213 6.43876818,19.5278647 6.5050792,19.28922 L8.11748363,13.4685968 C8.14916254,13.3542406 8.2098358,13.2500851 8.29386552,13.1660629 L20.5552269,0.905789654 C21.7630537,-0.301929885 23.7212419,-0.301929885 24.9290687,0.905789654 Z M9.79136674,13.61275 L13.0274512,16.8488157 L23.0626957,6.8144618 L19.8263428,3.57839606 L9.79136674,13.61275 Z M9.14490154,14.9098607 L8.15399496,18.4863106 L11.7304939,17.495492 L9.14490154,14.9098607 Z M24.7636938,5.11388307 C25.4335156,4.44251019 25.4335156,3.35558942 24.7636938,2.68394804 L23.9569547,1.87754892 C23.2860591,1.20671288 22.1982365,1.20671288 21.5273409,1.87754892 L20.7981883,2.60636838 L24.0348098,5.84270254 L24.7636938,5.11388307 Z" id="path-1"></path>
    </defs>
    <g id="Edit-Profile" stroke="none" stroke-width="1" fill="none" fill-rule="evenodd">
        <mask id="mask-2" fill="white">
            <use xlink:href="#path-1"></use>
        </mask>
        <use id="icNotiNote" fill="#FFFFFF" xlink:href="#path-1"></use>
    </g>
</svg>