<?xml version="1.0" encoding="UTF-8"?>
<svg width="29px" height="29px" viewBox="0 0 29 29" version="1.1" xmlns="http://www.w3.org/2000/svg" xmlns:xlink="http://www.w3.org/1999/xlink">
    <!-- Generator: Sketch 55 (78076) - https://sketchapp.com -->
    <title>icNotiValidation</title>
    <desc>Created with Sketch.</desc>
    <defs>
        <path d="M3.11393523,19.5641158 C3.09454367,19.3262101 3.00280667,19.1047116 2.84842002,18.9227399 L0.790677134,16.5078851 C-0.210225711,15.3325265 -0.210225711,13.6269141 0.790677134,12.4523013 L2.84842002,10.0374466 C3.00280667,9.8554748 3.0952895,9.63397638 3.11393523,9.39607068 L3.36602552,6.23393842 C3.48908734,4.69538209 4.69509323,3.48944628 6.23373896,3.3663916 L9.39605496,3.11431596 C9.63397448,3.09567132 9.85548577,3.00393965 10.0374681,2.84881618 L12.4517174,0.791192857 C13.6271443,-0.210397619 15.3321099,-0.210397619 16.5075368,0.791192857 L18.9225319,2.84881618 C19.1037684,3.00319386 19.3260255,3.09567132 19.563945,3.11431596 L22.726261,3.3663916 C24.2649068,3.48870049 25.4709127,4.69538209 25.5939745,6.23393842 L25.8460648,9.39607068 C25.8647105,9.63397638 25.9564475,9.8554748 26.11158,10.0374466 L28.1693229,12.4523013 C29.1702257,13.6276599 29.1702257,15.3332723 28.1693229,16.5078851 L26.11158,18.9227399 C25.9571933,19.1047116 25.8647105,19.3262101 25.8460648,19.5641158 L25.5939745,22.726248 C25.4709127,24.2648044 24.2649068,25.4707402 22.726261,25.5937948 L19.563945,25.8458705 C19.3260255,25.8645151 19.1045142,25.9562468 18.9225319,26.1113703 L16.5082826,28.1689936 C15.9205692,28.6694159 15.200844,28.92 14.4803729,28.92 C13.7599019,28.92 13.0401766,28.6694159 12.4524632,28.1689936 L10.0374681,26.1113703 C9.85548577,25.9569926 9.63397448,25.8645151 9.39605496,25.8458705 L6.23373896,25.5937948 C4.69509323,25.4707402 3.48908734,24.2648044 3.36602552,22.726248 L3.11393523,19.5641158 Z M1.33145169,13.6911063 C0.941397781,14.1480231 0.941397781,14.8128491 1.33225759,15.2705717 L3.55572608,17.879913 C4.01992248,18.4238616 4.29473319,19.0886875 4.35195184,19.8018645 L4.62434486,23.2186672 C4.67189276,23.8182194 5.14173043,24.2880298 5.74131744,24.3355749 L9.15831867,24.6079521 C9.87073119,24.6651674 10.5355958,24.9399622 11.0803819,25.4041316 L13.6898748,27.6274709 C14.147624,28.0175021 14.8124886,28.0175021 15.2702379,27.6274709 L17.8789249,25.4041316 C18.422905,24.9399622 19.0877697,24.6651674 19.8009881,24.6079521 L23.2179893,24.3355749 C23.8175763,24.2880298 24.287414,23.8182194 24.3349619,23.2186672 L24.6073549,19.8018645 C24.6645735,19.0894934 24.9393843,18.4246674 25.4035807,17.879913 L27.6270491,15.2705717 C28.0171031,14.8128491 28.0171031,14.1488289 27.6270491,13.6911063 L25.4035807,11.081765 C24.9393843,10.5378165 24.6645735,9.87299047 24.6073549,9.15981349 L24.3349619,5.7430108 C24.287414,5.14345863 23.8175763,4.67364826 23.2179893,4.62610313 L19.8009881,4.35372593 C19.0877697,4.2965106 18.4237109,4.02171586 17.8789249,3.55754644 L15.269432,1.33420714 C14.8108768,0.944175887 14.1468181,0.944175887 13.6890689,1.33420714 L11.079576,3.55754644 C10.5355958,4.02171586 9.87073119,4.2965106 9.15751277,4.35372593 L5.74051154,4.62610313 C5.14092453,4.67364826 4.67108686,5.14345863 4.62353897,5.7430108 L4.35114594,9.15981349 C4.29392729,9.87299047 4.01911658,10.5370106 3.55492018,11.081765 L1.33145169,13.6911063 Z M9.02923077,14.92 C8.94307692,14.836 8.9,14.71 8.9,14.626 C8.9,14.542 8.94307692,14.416 9.02923077,14.332 L9.63230769,13.744 C9.80461538,13.576 10.0630769,13.576 10.2353846,13.744 L10.2784615,13.786 L12.6476923,16.264 C12.7338462,16.348 12.8630769,16.348 12.9492308,16.264 L18.7215385,10.426 L18.7646154,10.426 C18.9369231,10.258 19.1953846,10.258 19.3676923,10.426 L19.9707692,11.014 C20.1430769,11.182 20.1430769,11.434 19.9707692,11.602 L13.0784615,18.574 C12.9923077,18.658 12.9061538,18.7 12.7769231,18.7 C12.6476923,18.7 12.5615385,18.658 12.4753846,18.574 L9.11538462,15.046 L9.02923077,14.92 Z" id="path-1"></path>
    </defs>
    <g id="Edit-Profile" stroke="none" stroke-width="1" fill="none" fill-rule="evenodd">
        <mask id="mask-2" fill="white">
            <use xlink:href="#path-1"></use>
        </mask>
        <use id="icNotiValidation" fill="#FFFFFF" fill-rule="nonzero" xlink:href="#path-1"></use>
    </g>
</svg>