<?xml version="1.0" encoding="UTF-8"?>
<svg width="20px" height="20px" viewBox="0 0 20 20" version="1.1" xmlns="http://www.w3.org/2000/svg" xmlns:xlink="http://www.w3.org/1999/xlink">
    <!-- Generator: Sketch 52.4 (67378) - http://www.bohemiancoding.com/sketch -->
    <title>icNotificationCalendar</title>
    <desc>Created with Sketch.</desc>
    <g id="Page-1" stroke="none" stroke-width="1" fill="none" fill-rule="evenodd">
        <g id="icNotificationCalendar">
            <circle id="Oval-6" fill="#C60E01" cx="10" cy="10" r="10"></circle>
            <path d="M7.40144505,6.4 C7.93231081,6.4 8.36278362,5.9472 8.36278362,5.38893333 L8.36278362,4.21106667 C8.36278362,3.6528 7.93231081,3.2 7.40144505,3.2 C6.87057929,3.2 6.44010648,3.6528 6.44010648,4.21106667 L6.44010648,5.38893333 C6.44010648,5.9472 6.87070605,6.4 7.40144505,6.4 Z M12.5985549,6.4 C13.1294207,6.4 13.5598935,5.9472 13.5598935,5.38893333 L13.5598935,4.21106667 C13.5598935,3.6528 13.1294207,3.2 12.5985549,3.2 C12.0676892,3.2 11.6372164,3.6528 11.6372164,4.21106667 L11.6372164,5.38893333 C11.6372164,5.9472 12.0678159,6.4 12.5985549,6.4 Z M14.7324122,4.88906667 L14.0669286,4.88906667 L14.0669286,5.38893333 C14.0669286,6.24053333 13.40829,6.93333333 12.5985549,6.93333333 C11.7888199,6.93333333 11.1301813,6.24053333 11.1301813,5.38893333 L11.1301813,4.88906667 L8.86981873,4.88906667 L8.86981873,5.38893333 C8.86981873,6.24053333 8.21118012,6.93333333 7.40144505,6.93333333 C6.59170998,6.93333333 5.93307137,6.24053333 5.93307137,5.38893333 L5.93307137,4.88906667 L5.26758778,4.88906667 C4.56775257,4.88906667 4,5.48613333 4,6.2224 L4,8 L16,8 L16,6.2224 C16,5.48613333 15.4322474,4.88906667 14.7324122,4.88906667 Z M4,14.6666667 C4,15.4029333 4.56775257,16 5.26758778,16 L14.7324122,16 C15.4322474,16 16,15.4029333 16,14.6666667 L16,8.53333333 L4,8.53333333 L4,14.6666667 Z M12.8377488,9.98333333 L14.4592471,9.98333333 L14.4592471,11.6889333 L12.8377488,11.6889333 L12.8377488,9.98333333 Z M12.8377488,12.4166667 L14.4592471,12.4166667 L14.4592471,14.1222667 L12.8377488,14.1222667 L12.8377488,12.4166667 Z M10.4053746,9.98333333 L12.0268729,9.98333333 L12.0268729,11.6889333 L10.4053746,11.6889333 L10.4053746,9.98333333 Z M10.4053746,12.4166667 L12.0268729,12.4166667 L12.0268729,14.1222667 L10.4053746,14.1222667 L10.4053746,12.4166667 Z M7.97312714,9.98333333 L9.59462543,9.98333333 L9.59462543,11.6889333 L7.97312714,11.6889333 L7.97312714,9.98333333 Z M7.97312714,12.4166667 L9.59462543,12.4166667 L9.59462543,14.1222667 L7.97312714,14.1222667 L7.97312714,12.4166667 Z M5.54075295,9.98333333 L7.16225124,9.98333333 L7.16225124,11.6889333 L5.54075295,11.6889333 L5.54075295,9.98333333 Z M5.54075295,12.4166667 L7.16225124,12.4166667 L7.16225124,14.1222667 L5.54075295,14.1222667 L5.54075295,12.4166667 Z" id="Shape" fill="#FFFFFF" fill-rule="nonzero"></path>
        </g>
    </g>
</svg>