<?xml version="1.0" encoding="UTF-8"?>
<svg width="36px" height="27px" viewBox="0 0 36 27" version="1.1" xmlns="http://www.w3.org/2000/svg" xmlns:xlink="http://www.w3.org/1999/xlink">
    <!-- Generator: Sketch 55 (78076) - https://sketchapp.com -->
    <title>icNotiPhoto</title>
    <desc>Created with Sketch.</desc>
    <g id="Edit-Profile" stroke="none" stroke-width="1" fill="none" fill-rule="evenodd">
        <path d="M31.8389417,27 L4.16041095,27 C1.86598655,27 0,25.2287107 0,23.0507264 L0,7.03435876 C0,4.85637446 1.86598655,3.08508516 4.16041095,3.08508516 L9.80821655,3.08508516 L10.3025762,1.50203695 C10.5043336,0.635800174 11.3385521,0 12.319719,0 L23.6803889,0 C24.6338276,0 25.4776484,0.632522854 25.7009842,1.509923 L25.714147,1.56389637 L26.1648105,3.08498274 L31.8395891,3.08498274 C34.1340135,3.08498274 36,4.85627205 36,7.03425634 L36,23.0505216 C35.9993526,25.2287107 34.1327188,27 31.8389417,27 Z M4.16041095,4.40154383 C2.63072275,4.40154383 1.38683961,5.58240337 1.38683961,7.03435876 L1.38683961,23.050624 C1.38683961,24.5026818 2.63083065,25.6834389 4.16041095,25.6834389 L31.8389417,25.6834389 C33.3686299,25.6834389 34.612513,24.5025794 34.612513,23.050624 L34.612513,7.03435876 C34.612513,5.58230095 33.368522,4.40154383 31.8389417,4.40154383 L25.1143772,4.40154383 L24.3551434,1.83120282 C24.2851217,1.53235216 24.0014745,1.31584418 23.6797415,1.31584418 L12.3189638,1.31584418 C11.9923757,1.31584418 11.7149862,1.52774343 11.6435619,1.83191974 L10.8420346,4.40154383 L4.16041095,4.40154383 Z M18.0007552,23.0210257 C13.1476797,23.0210257 9.19938382,19.2738194 9.19938382,14.6676478 C9.19938382,10.0608618 13.1475718,6.3136555 18.0007552,6.3136555 C22.8525361,6.3136555 26.8000767,10.0614763 26.8000767,14.6676478 C26.7999688,19.2732049 22.8524282,23.0210257 18.0007552,23.0210257 Z M18.0007552,7.62939726 C13.9124159,7.62939726 10.5862234,10.7861738 10.5862234,14.6670333 C10.5862234,18.5478929 13.9125238,21.7039525 18.0007552,21.7039525 C22.0883393,21.7039525 25.4132371,18.547176 25.4132371,14.6670333 C25.4131292,10.7861738 22.0875841,7.62939726 18.0007552,7.62939726 Z M30.9437645,6.84478625 C30.2365345,6.84478625 29.664385,7.3891287 29.664385,8.05923833 C29.664385,8.72996245 30.2364266,9.27358798 30.9437645,9.27358798 C31.6503471,9.27358798 32.2223887,8.72986003 32.2223887,8.05923833 C32.2217414,7.3891287 31.6495918,6.84478625 30.9437645,6.84478625 Z" id="icNotiPhoto" fill="#FFFFFF" fill-rule="nonzero"></path>
    </g>
</svg>