<?xml version="1.0" encoding="UTF-8"?>
<svg width="15px" height="15px" viewBox="0 0 15 15" version="1.1" xmlns="http://www.w3.org/2000/svg" xmlns:xlink="http://www.w3.org/1999/xlink">
    <!-- Generator: Sketch 52.4 (67378) - http://www.bohemiancoding.com/sketch -->
    <title>icNotificationMessage</title>
    <desc>Created with Sketch.</desc>
    <defs>
        <path d="M10.5,3.75 L4.5,3.75 C4.0875,3.75 3.75,4.0875 3.75,4.5 L3.75,9 C3.75,9.4125 4.0875,9.75 4.5,9.75 L9.75,9.75 L11.25,11.25 L11.25,4.5 C11.25,4.0875 10.9125,3.75 10.5,3.75 Z M9.75,8.25 L5.25,8.25 L5.25,7.5 L9.75,7.5 L9.75,8.25 Z M9.75,7.125 L5.25,7.125 L5.25,6.375 L9.75,6.375 L9.75,7.125 Z M9.75,6 L5.25,6 L5.25,5.25 L9.75,5.25 L9.75,6 Z" id="path-1"></path>
    </defs>
    <g id="Page-1" stroke="none" stroke-width="1" fill="none" fill-rule="evenodd">
        <g id="Artboard" transform="translate(-26.000000, -281.000000)">
            <g id="icNotificationMessage" transform="translate(26.000000, 281.000000)">
                <circle id="Oval-6" fill="#2C91D0" cx="7.5" cy="7.5" r="7.5"></circle>
                <mask id="mask-2" fill="white">
                    <use xlink:href="#path-1"></use>
                </mask>
                <use id="icon/editor/insert_comment_24px" fill="#FFFFFF" fill-rule="nonzero" transform="translate(7.500000, 7.500000) scale(-1, 1) translate(-7.500000, -7.500000) " xlink:href="#path-1"></use>
            </g>
        </g>
    </g>
</svg>