<?xml version="1.0" encoding="UTF-8"?>
<svg width="28px" height="26px" viewBox="0 0 28 26" version="1.1" xmlns="http://www.w3.org/2000/svg" xmlns:xlink="http://www.w3.org/1999/xlink">
    <!-- Generator: Sketch 55 (78076) - https://sketchapp.com -->
    <title>icNotiRequestSent</title>
    <desc>Created with Sketch.</desc>
    <g id="Edit-Profile" stroke="none" stroke-width="1" fill="none" fill-rule="evenodd">
        <path d="M23.6946878,3.90074743 L23.6946878,5.9391365 L25.6053122,5.9391365 C26.4910927,5.9391365 27.2,6.68743271 27.2,7.60011607 C27.2,8.51261385 26.4910467,9.2608635 25.6053122,9.2608635 L23.6946878,9.2608635 L23.6946878,11.2992526 C23.6946878,12.2117503 22.9857345,12.96 22.1,12.96 C21.2142655,12.96 20.5053122,12.2117503 20.5053122,11.2992526 L20.5053122,9.26063136 L18.5946878,9.26063136 C17.7089533,9.26063136 17,8.51238171 17,7.59988393 C17,6.68738615 17.7089533,5.9391365 18.5946878,5.9391365 L20.5053122,5.9391365 L20.5053122,3.90074743 C20.5053122,2.98824966 21.2142655,2.24 22.1,2.24 C22.9857345,2.24 23.6946878,2.98824966 23.6946878,3.90074743 Z M8.44058426,11.38 C5.75550954,11.38 3.54041803,9.38793574 3.54,6.92249009 L3.54,4.95717799 C3.54,2.49214278 5.75543511,0.5 8.44058426,0.5 L9.51941574,0.5 C12.2048123,0.5 14.42,2.49203549 14.42,4.95717799 L14.42,6.92249009 C14.42,9.38779855 12.2046278,11.38 9.51941574,11.38 L8.44058426,11.38 Z M8.44058426,10.38 L9.51941574,10.38 C11.6746211,10.38 13.42,8.81044597 13.42,6.92249009 L13.42,4.95717799 C13.42,3.06938808 11.6748056,1.5 9.51941574,1.5 L8.44058426,1.5 C6.28543054,1.5 4.54,3.06950968 4.54,4.95717799 L4.53999999,6.92240531 C4.54032014,8.81053769 6.2854961,10.38 8.44058426,10.38 Z M13.2759673,12.66 C15.597587,12.66 17.46,14.7560708 17.46,17.306122 L17.46,23.2940326 C17.46,24.2571072 16.7466505,25.06 15.8352207,25.06 L2.12477929,25.06 C1.2133495,25.06 0.5,24.2571072 0.5,23.2940326 L0.5,17.306122 C0.5,14.7561902 2.36230231,12.66 4.68341144,12.66 L13.2759673,12.66 Z M13.2759673,13.66 L4.68341144,13.66 C2.94266962,13.66 1.5,15.2838555 1.5,17.306122 L1.5,23.2940326 C1.5,23.7294307 1.79370227,24.06 2.12477929,24.06 L15.8352207,24.06 C16.1662977,24.06 16.46,23.7294307 16.46,23.2940326 L16.46,17.306122 C16.46,15.2837584 15.0172487,13.66 13.2759673,13.66 Z" id="icNotiRequestSent" fill="#FFFFF0" fill-rule="nonzero"></path>
    </g>
</svg>