<?xml version="1.0" encoding="UTF-8"?>
<svg width="26px" height="26px" viewBox="0 0 26 26" version="1.1" xmlns="http://www.w3.org/2000/svg" xmlns:xlink="http://www.w3.org/1999/xlink">
    <!-- Generator: Sketch 53.2 (72643) - https://sketchapp.com -->
    <title>icNotiCheckOut</title>
    <desc>Created with Sketch.</desc>
    <defs>
        <path d="M17.5972223,4.47098762 C17.8569736,4.74720768 17.9999998,5.11620935 17.9999998,5.50976391 C18.0002171,5.90355457 17.8571909,6.27255624 17.5974397,6.54901238 C16.3334619,7.89328335 12.9656079,11.02 9,11.02 C5.03417473,11.02 1.66653806,7.89351943 0.402777679,6.54924847 C0.142809083,6.27279232 -0.000217117654,5.90379065 2.47392082e-07,5.51 C2.47392082e-07,5.11620935 0.143026448,4.74744376 0.402777679,4.4712237 C1.66653806,3.12695274 5.03439209,8.8817842e-15 9,8.8817842e-15 C12.9653905,8.8817842e-15 16.3332446,3.12671665 17.5972223,4.47098762 Z M9,2.20739963 C7.32324603,2.20739963 5.95928036,3.68883628 5.95928036,5.51 C5.95928036,7.33116372 7.32324603,8.81260037 9,8.81260037 C10.676754,8.81260037 12.0407196,7.33116372 12.0407196,5.51 C12.0407196,3.68883628 10.6765366,2.20739963 9,2.20739963 Z M9,7.78161489 C7.84687843,7.78161489 6.90851352,6.76243369 6.90851352,5.51 C6.90851352,4.25756631 7.84666106,3.23838511 9,3.23838511 C10.1533389,3.23838511 11.0914865,4.25733022 11.0914865,5.51 C11.0914865,6.76266978 10.1531216,7.78161489 9,7.78161489 Z" id="path-1"></path>
    </defs>
    <g id="Page-1" stroke="none" stroke-width="1" fill="none" fill-rule="evenodd">
        <g id="icNotiCheckOut">
            <circle id="Oval" stroke="#FFFFFF" fill="#F85454" cx="13" cy="13" r="12.5"></circle>
            <g id="colour/mid-grey" transform="translate(4.000000, 7.000000)">
                <mask id="mask-2" fill="white">
                    <use xlink:href="#path-1"></use>
                </mask>
                <use id="Combined-Shape" fill="#FFFFFF" fill-rule="nonzero" xlink:href="#path-1"></use>
            </g>
        </g>
    </g>
</svg>