<?xml version="1.0" encoding="UTF-8"?>
<svg width="20px" height="20px" viewBox="0 0 20 20" version="1.1" xmlns="http://www.w3.org/2000/svg" xmlns:xlink="http://www.w3.org/1999/xlink">
    <!-- Generator: Sketch 52.4 (67378) - http://www.bohemiancoding.com/sketch -->
    <title>icNotificationAddFriend</title>
    <desc>Created with Sketch.</desc>
    <defs>
        <path d="M11.2,9.6 C12.3786667,9.6 13.3333333,8.64533333 13.3333333,7.46666667 C13.3333333,6.288 12.3786667,5.33333333 11.2,5.33333333 C10.0213333,5.33333333 9.06666667,6.288 9.06666667,7.46666667 C9.06666667,8.64533333 10.0213333,9.6 11.2,9.6 Z M6.4,8.53333333 L6.4,6.93333333 L5.33333333,6.93333333 L5.33333333,8.53333333 L3.73333333,8.53333333 L3.73333333,9.6 L5.33333333,9.6 L5.33333333,11.2 L6.4,11.2 L6.4,9.6 L8,9.6 L8,8.53333333 L6.4,8.53333333 Z M11.2,10.6666667 C9.776,10.6666667 6.93333333,11.3813333 6.93333333,12.8 L6.93333333,13.8666667 L15.4666667,13.8666667 L15.4666667,12.8 C15.4666667,11.3813333 12.624,10.6666667 11.2,10.6666667 Z" id="path-1"></path>
    </defs>
    <g id="Page-1" stroke="none" stroke-width="1" fill="none" fill-rule="evenodd">
        <g id="icNotificationAddFriend">
            <circle id="Oval-5" fill="#2C91D0" cx="10" cy="10" r="10"></circle>
            <mask id="mask-2" fill="white">
                <use xlink:href="#path-1"></use>
            </mask>
            <use id="icon/social/person_add_24px" fill="#FFFFFF" fill-rule="nonzero" xlink:href="#path-1"></use>
        </g>
    </g>
</svg>