<?xml version="1.0" encoding="UTF-8"?>
<svg width="37px" height="30px" viewBox="0 0 37 30" version="1.1" xmlns="http://www.w3.org/2000/svg" xmlns:xlink="http://www.w3.org/1999/xlink">
    <!-- Generator: Sketch 55 (78076) - https://sketchapp.com -->
    <title>icNotiTry</title>
    <desc>Created with Sketch.</desc>
    <g id="Edit-Profile" stroke="none" stroke-width="1" fill="none" fill-rule="evenodd">
        <path d="M0.31885793,26.1845778 L16.602512,0.916838827 C17.2008587,-0.0116303004 18.4385876,-0.279247347 19.3670567,0.319099425 C19.6066157,0.47348186 19.8104137,0.677279876 19.9647961,0.916838827 L36.2484501,26.1845778 C36.8467969,27.113047 36.5791799,28.3507758 35.6507107,28.9491226 C35.3277071,29.1572805 34.951575,29.2679805 34.5673081,29.2679805 L2,29.2679805 C0.8954305,29.2679805 -1.07469589e-13,28.37255 -1.07469589e-13,27.2679805 C-1.47437618e-13,26.8837135 0.1107,26.5075815 0.31885793,26.1845778 Z M1.57971448,26.9971299 C1.527675,27.0778808 1.5,27.1719138 1.5,27.2679805 C1.5,27.5441229 1.72385763,27.7679805 2,27.7679805 L34.5673081,27.7679805 C34.6633748,27.7679805 34.7574078,27.7403055 34.8381587,27.688266 C35.070276,27.5386793 35.1371803,27.2292471 34.9875936,26.9971299 L18.7039396,1.72939083 C18.6653439,1.66950109 18.6143944,1.61855159 18.5545047,1.57995598 C18.3223874,1.43036928 18.0129552,1.49727355 17.8633685,1.72939083 L1.57971448,26.9971299 Z M17.6662472,8.51876928 C18.1946296,8.51876928 19.0112207,9.09983099 19.0112207,9.55637947 L18.530873,19.1023933 C18.530873,19.5589418 18.0985601,19.9324814 17.5701776,19.9324814 C17.0417952,19.9324814 16.6094822,19.5589418 16.6094822,19.1023933 L16.3693084,9.59788388 C16.3693084,9.1413354 17.1858995,8.51876928 17.6662472,8.51876928 Z M17.5701776,22.0077018 C18.3867687,22.0077018 19.0112207,22.5472591 19.0112207,23.252834 C19.0112207,23.958409 18.3867687,24.4979663 17.5701776,24.4979663 C16.7535865,24.4979663 16.1291345,23.958409 16.1291345,23.252834 C16.1291345,22.5472591 16.7535865,22.0077018 17.5701776,22.0077018 Z" id="icNotiTry" fill="#FFFFFF" fill-rule="nonzero"></path>
    </g>
</svg>