<?xml version="1.0" encoding="UTF-8"?>
<svg width="26px" height="26px" viewBox="0 0 26 26" version="1.1" xmlns="http://www.w3.org/2000/svg" xmlns:xlink="http://www.w3.org/1999/xlink">
    <!-- Generator: Sketch 53.2 (72643) - https://sketchapp.com -->
    <title>icNotiSentMsg</title>
    <desc>Created with Sketch.</desc>
    <g id="Page-1" stroke="none" stroke-width="1" fill="none" fill-rule="evenodd">
        <g id="icNotiSentMsg">
            <circle id="Oval" stroke="#FFFFFF" fill="#11AB96" cx="13" cy="13" r="12.5"></circle>
            <path d="M21,8.67586 L21,15.8638 C21,16.78962 20.2643333,17.54 19.357,17.54 L12.3333333,17.54 L9,21.28 L9,17.54 L6.643,17.54 C5.73566667,17.54 5,16.78962 5,15.86414 L5,8.6762 C5,7.75038 5.73566667,7 6.643,7 L19.3566667,7 C20.2643333,7 21,7.75038 21,8.67586 Z M12.0930233,11.2 C12.2859302,11.2 12.4418605,10.91776 12.4418605,10.57 C12.4418605,10.22224 12.2859302,9.94 12.0930233,9.94 L7.20930233,9.94 C7.01639535,9.94 6.86046512,10.22224 6.86046512,10.57 C6.86046512,10.91776 7.01639535,11.2 7.20930233,11.2 L12.0930233,11.2 Z M16.9198075,12.88 C17.1184796,12.88 17.2790698,12.59776 17.2790698,12.25 C17.2790698,11.90224 17.1184796,11.62 16.9198075,11.62 L7.21972735,11.62 C7.02105533,11.62 6.86046512,11.90224 6.86046512,12.25 C6.86046512,12.59776 7.02105533,12.88 7.21972735,12.88 L16.9198075,12.88 Z M16.9198075,14.98 C17.1184796,14.98 17.2790698,14.69776 17.2790698,14.35 C17.2790698,14.00224 17.1184796,13.72 16.9198075,13.72 L7.21972735,13.72 C7.02105533,13.72 6.86046512,14.00224 6.86046512,14.35 C6.86046512,14.69776 7.02105533,14.98 7.21972735,14.98 L16.9198075,14.98 Z" id="Combined-Shape" fill="#FFFFFF" fill-rule="nonzero"></path>
        </g>
    </g>
</svg>