<?xml version="1.0" encoding="UTF-8"?>
<svg width="26px" height="26px" viewBox="0 0 26 26" version="1.1" xmlns="http://www.w3.org/2000/svg" xmlns:xlink="http://www.w3.org/1999/xlink">
    <!-- Generator: Sketch 53.2 (72643) - https://sketchapp.com -->
    <title>icNotiFaved</title>
    <desc>Created with Sketch.</desc>
    <defs>
        <path d="M19.4844747,11.962825 C19.7557827,11.699375 19.8515547,11.312725 19.7345307,10.9533 C19.6172307,10.593875 19.3116987,10.3373 18.9363387,10.28285 L15.5989467,9.799675 C15.4568067,9.77905 15.3339867,9.690225 15.2705067,9.5618 L13.7784507,6.5489 C13.6109187,6.210375 13.2708867,6 12.8919387,6 C12.5132667,6 12.1732347,6.210375 12.0057027,6.5489 L10.5133707,9.562075 C10.4498907,9.6905 10.3267947,9.779325 10.1846547,9.79995 L6.84726272,10.283125 C6.47217872,10.3373 6.16637072,10.59415 6.04907072,10.953575 C5.93204672,11.313 6.02781872,11.69965 6.29912672,11.9631 L8.71385072,14.3083 C8.81679872,14.4084 8.86399472,14.5525 8.83970672,14.6933 L8.27004272,18.00485 C8.21953472,18.29635 8.29626272,18.579875 8.48559872,18.80345 C8.77981472,19.151875 9.29345072,19.258025 9.70413872,19.042975 L12.6888027,17.479325 C12.8135547,17.41415 12.9705987,17.4147 13.0950747,17.479325 L16.0800147,19.042975 C16.2251907,19.11915 16.3800267,19.15765 16.5398307,19.15765 C16.8315627,19.15765 17.1081147,19.0284 17.2982787,18.80345 C17.4878907,18.579875 17.5643427,18.2958 17.5138347,18.00485 L16.9438947,14.6933 C16.9196067,14.552225 16.9668027,14.4084 17.0697507,14.3083 L19.4844747,11.962825 Z" id="path-1"></path>
    </defs>
    <g id="Page-1" stroke="none" stroke-width="1" fill="none" fill-rule="evenodd">
        <g id="icNotiFaved">
            <circle id="Oval-6" stroke="#FFFFFF" fill="#2C91D0" cx="13" cy="13" r="12.5"></circle>
            <mask id="mask-2" fill="white">
                <use xlink:href="#path-1"></use>
            </mask>
            <use id="Mask" fill="#FFFFFF" fill-rule="nonzero" xlink:href="#path-1"></use>
        </g>
    </g>
</svg>