<?xml version="1.0" encoding="UTF-8"?>
<svg width="18px" height="16px" viewBox="0 0 18 16" version="1.1" xmlns="http://www.w3.org/2000/svg" xmlns:xlink="http://www.w3.org/1999/xlink">
    <!-- Generator: Sketch 52.4 (67378) - http://www.bohemiancoding.com/sketch -->
    <title>icSupportTicket</title>
    <desc>Created with Sketch.</desc>
    <g id="Page-1" stroke="none" stroke-width="1" fill="none" fill-rule="evenodd">
        <g id="Artboard" transform="translate(-26.000000, -47.000000)" fill="#FFFFFF" fill-rule="nonzero">
            <path d="M43.564496,60.4852155 L35.789994,47.5277203 C35.5935116,47.2002429 35.2407292,47 34.8601895,47 C34.4796497,47 34.1268673,47.2002082 33.9303849,47.5277203 L26.1559521,60.4852155 C25.953759,60.8222233 25.9477714,61.24257 26.1403429,61.5852125 C26.3329143,61.9278899 26.6941416,62.1397849 27.085722,62.1397849 L42.6346915,62.1397849 C43.0262719,62.1397849 43.3874992,61.9278551 43.5800706,61.5852125 C43.7726421,61.2425352 43.7666891,60.8222233 43.564496,60.4852155 Z M34.9521372,51.4731183 C35.4148953,51.4731183 35.8064516,51.7235087 35.8064516,52.167317 C35.8064516,53.5215517 35.6403379,55.4676339 35.6403379,56.8218685 C35.6403379,57.1746789 35.2369086,57.3225806 34.9521372,57.3225806 C34.5724897,57.3225806 34.2520993,57.1746445 34.2520993,56.8218685 C34.2520993,55.4676339 34.0860215,53.5215517 34.0860215,52.167317 C34.0860215,51.7235087 34.465669,51.4731183 34.9521372,51.4731183 Z M34.7798194,59.9032258 C34.2850823,59.9032258 33.9139785,59.5010491 33.9139785,59.0430108 C33.9139785,58.5737933 34.2850483,58.1827957 34.7798194,58.1827957 C35.2408353,58.1827957 35.6344086,58.5737933 35.6344086,59.0430108 C35.6344086,59.5010491 35.2408353,59.9032258 34.7798194,59.9032258 Z" id="icSupportTicket"></path>
        </g>
    </g>
</svg>