<?xml version="1.0" encoding="UTF-8"?>
<svg width="20px" height="21px" viewBox="0 0 20 21" version="1.1" xmlns="http://www.w3.org/2000/svg" xmlns:xlink="http://www.w3.org/1999/xlink">
    <!-- Generator: Sketch 53.2 (72643) - https://sketchapp.com -->
    <title>icSupportTicket</title>
    <desc>Created with Sketch.</desc>
    <defs>
        <path d="M16.4731942,19.16 C17.0442182,19.16 17.52,19.6327273 17.52,20.2 C17.52,20.7537884 17.0577518,21.24 16.4731942,21.24 C15.8886366,21.24 15.44,20.7537496 15.44,20.2 C15.44,19.6327273 15.9022482,19.16 16.4731942,19.16 Z M16.6283729,11.36 C18.4141268,11.36 19.6,12.293789 19.6,13.5300624 C19.6,14.7663358 18.4141268,15.6606588 18.0374603,15.9368452 C17.2701588,16.502348 17.2561504,16.8968945 17.2561504,17.5807952 C17.2561504,17.8306835 17.1166665,18.12 16.4330554,18.12 C15.8610314,18.12 15.6657539,17.9227079 15.6657539,17.2388449 C15.6657539,16.1078015 16.1959128,15.568559 16.6004761,15.2397765 C17.060873,14.8715281 17.8421428,14.4638514 17.8421428,13.7536149 C17.8421428,13.1486461 17.2840872,12.8592918 16.5865077,12.8592918 C15.1634919,12.8592918 15.4703965,13.871975 14.7170634,13.871975 C14.3403569,13.871975 13.88,13.6352547 13.88,13.1223103 C13.88,12.4121114 14.7449602,11.36 16.6283729,11.36 Z M17,5.64 C22.4611314,5.64 26.88,10.0596019 26.88,15.52 C26.88,20.9811314 22.4603595,25.4 17,25.4 L7.891875,25.4 C7.46556844,25.4 7.12,25.0544316 7.12,24.628125 L7.12,15.52 C7.12,10.0588686 11.5396019,5.64 17,5.64 Z M17,23.85625 C21.6078236,23.85625 25.33625,20.1272061 25.33625,15.52 C25.33625,10.9121764 21.6072061,7.18375 17,7.18375 C12.3921764,7.18375 8.66375,10.9127939 8.66375,15.52 L8.66375,23.85625 L17,23.85625 Z" id="path-1"></path>
    </defs>
    <g id="Page-1" stroke="none" stroke-width="1" fill="none" fill-rule="evenodd">
        <g id="NOTIFICATIONS" transform="translate(-21.000000, -112.000000)">
            <g id="Flag-Copy" transform="translate(14.000000, 107.000000)">
                <mask id="mask-2" fill="white">
                    <use xlink:href="#path-1"></use>
                </mask>
                <use id="icSupportTicket" fill="#FFFFFF" fill-rule="nonzero" xlink:href="#path-1"></use>
            </g>
        </g>
    </g>
</svg>