<?xml version="1.0" encoding="UTF-8"?>
<svg width="278px" height="25px" viewBox="0 0 278 25" version="1.1" xmlns="http://www.w3.org/2000/svg" xmlns:xlink="http://www.w3.org/1999/xlink">
    <!-- Generator: Sketch 55.2 (78181) - https://sketchapp.com -->
    <title>footerDiscover</title>
    <desc>Created with Sketch.</desc>
    <defs>
        <path d="M82.2627167,25 C82.1870781,25 82.1114394,24.9783893 82.0460807,24.9359094 L75.7374497,20.8510598 L75.7216511,20.8518013 C75.4821828,20.8641957 75.243472,20.8772257 75,20.8772257 C67.5883866,20.8772257 62,16.3897175 62,10.4390366 C62,4.48750816 67.5883866,0 75,0 C82.4116134,0 88,4.48750816 88,10.4390366 C88,14.2901938 86.1052465,17.3638948 82.6566004,19.119448 L82.6566004,24.614291 C82.6566004,24.7555023 82.5770662,24.8865437 82.4493786,24.9537065 C82.3911618,24.9845335 82.3265605,25 82.2627167,25 Z M68.5714286,12 C69.4393046,12 70.1428571,11.3284271 70.1428571,10.5 C70.1428571,9.67157288 69.4393046,9 68.5714286,9 C67.7035525,9 67,9.67157288 67,10.5 C67,11.3284271 67.7035525,12 68.5714286,12 Z M75,12 C75.867876,12 76.5714286,11.3284271 76.5714286,10.5 C76.5714286,9.67157288 75.867876,9 75,9 C74.132124,9 73.4285714,9.67157288 73.4285714,10.5 C73.4285714,11.3284271 74.132124,12 75,12 Z M81.4285714,12 C82.2964475,12 83,11.3284271 83,10.5 C83,9.67157288 82.2964475,9 81.4285714,9 C80.5606954,9 79.8571429,9.67157288 79.8571429,10.5 C79.8571429,11.3284271 80.5606954,12 81.4285714,12 Z" id="path-1"></path>
        <path d="M267.187679,7.25366579 C265.553286,7.25366579 264.228349,5.98473286 264.228349,4.41942477 C264.228349,2.85411667 265.553286,1.58518374 267.187679,1.58518374 C268.822072,1.58518374 270.147009,2.85411667 270.147009,4.41942477 C270.147009,5.98473286 268.822072,7.25366579 267.187679,7.25366579 Z M267.187679,15.1895407 C265.553286,15.1895407 264.228349,13.9206077 264.228349,12.3552996 C264.228349,10.7899915 265.553286,9.52105861 267.187679,9.52105861 C268.822072,9.52105861 270.147009,10.7899915 270.147009,12.3552996 C270.147009,13.9206077 268.822072,15.1895407 267.187679,15.1895407 Z M267.187679,23.1254155 C265.553286,23.1254155 264.228349,21.8564826 264.228349,20.2911745 C264.228349,18.7258664 265.553286,17.4569335 267.187679,17.4569335 C268.822072,17.4569335 270.147009,18.7258664 270.147009,20.2911745 C270.147009,21.8564826 268.822072,23.1254155 267.187679,23.1254155 Z" id="path-3"></path>
    </defs>
    <g id="Onboarding-app" stroke="none" stroke-width="1" fill="none" fill-rule="evenodd">
        <g id="footerDiscover" transform="translate(0.000000, -0.000000)">
            <path d="M9.19736421,3.38888993 L0.625914214,11.4935103 C0.226379335,11.8712852 5.48377714e-15,12.3968877 7.10542736e-15,12.946744 L7.10542736e-15,20.9554033 L7.84690182,20.9554033 L7.84690182,17.1339455 C7.84690182,15.6292191 9.06672359,14.4093973 10.57145,14.4093973 C12.0761764,14.4093973 13.2959982,15.6292191 13.2959982,17.1339455 L13.2959982,20.9554033 L21.1429,20.9554033 L21.1429,12.946744 C21.1429,12.3968877 20.9165206,11.8712852 20.5169858,11.4935103 L11.9455358,3.38888993 C11.1745221,2.65986822 9.96837788,2.65986822 9.19736421,3.38888993 Z" id="Shape" fill="#D4D7DC" fill-rule="nonzero"></path>
            <path d="M147.511242,18.4547593 L143.470161,14.4952509 C143.448684,14.4742075 143.423492,14.459499 143.401049,14.4399119 C144.196201,13.2580593 144.660288,11.8433458 144.660288,10.3219591 C144.660288,6.1833998 141.236304,2.82847045 137.012636,2.82847045 C132.788967,2.82847045 129.364984,6.1833998 129.364984,10.3218863 C129.364984,14.4602999 132.788893,17.8153021 137.012561,17.8153021 C138.565337,17.8153021 140.009095,17.3605754 141.215274,16.5814599 C141.235264,16.6033771 141.250201,16.6280612 141.271677,16.6491046 L145.312832,20.6087586 C145.919897,21.2035077 146.904102,21.2035077 147.511242,20.6087586 C148.118232,20.0139367 148.118232,19.0495811 147.511242,18.4547593 Z M137.012636,15.217571 C134.253087,15.217571 132.016109,13.0257081 132.016109,10.3218863 C132.016109,7.61799162 134.253161,5.42612872 137.012636,5.42612872 C139.772036,5.42612872 142.009088,7.61806443 142.009088,10.3218863 C142.009088,13.0257081 139.772036,15.217571 137.012636,15.217571 Z" id="Shape" fill="#646464" fill-rule="nonzero"></path>
            <path d="M202.079901,10.7087007 C204.155159,10.7087007 205.769222,8.59960907 205.769222,6.41631813 L205.769222,5.73232344 C205.769222,3.5491135 204.155159,2 202.079901,2 C200.004559,2 198.390496,3.54903249 198.390496,5.73232344 L198.390496,6.41631813 C198.390496,8.59960907 200.004559,10.7087007 202.079901,10.7087007 Z M194.688361,11.4148094 C195.281741,11.4148094 196.905559,10.6604225 196.905559,9.0951083 L196.905559,7.93521727 C196.905559,6.36982204 195.734175,5.6154352 194.688361,5.6154352 C193.677268,5.6154352 192.471247,6.36982204 192.471247,7.93521727 L192.471247,9.0951083 C192.471247,10.6604225 194.12656,11.4148094 194.688361,11.4148094 Z M207.972862,14.3150635 C207.971705,14.303723 207.968233,14.2929495 207.967076,14.28169 C207.949716,14.1451179 207.923097,14.0115429 207.886145,13.880722 C207.886145,13.8795069 207.886145,13.8784539 207.884988,13.8773198 C207.807529,13.5992344 207.676834,13.3313554 207.481575,13.0674455 L207.481575,13.0663115 C207.161325,12.63197 206.678223,12.1889611 205.893305,11.7569687 C205.478319,11.5286195 205.295626,11.4239628 205.039112,11.4239628 C204.63107,11.4239628 204.275026,11.7348547 203.675198,12.2745819 L203.673958,12.2745819 L203.128359,12.766112 C203.108685,12.7843378 202.52043,13.5986673 202.079983,13.5986673 C201.639536,13.5986673 201.051199,12.7842568 201.031524,12.766112 L200.485926,12.2745819 L200.484768,12.2745819 C199.884941,11.7348547 199.528896,11.4239628 199.120854,11.4239628 C198.864258,11.4239628 198.635272,11.5286195 198.266662,11.7569687 C197.505634,12.2276808 196.998476,12.6314029 196.679548,13.0650964 L196.678308,13.0656634 C196.677151,13.0667975 196.677151,13.0685796 196.676076,13.0695516 C196.482968,13.3312743 196.353512,13.5974523 196.276136,13.8738367 C196.275061,13.8761048 196.273739,13.8789399 196.272829,13.881694 C196.23687,14.0115429 196.210251,14.1433358 196.192974,14.2786929 C196.191816,14.2912484 196.188344,14.3030749 196.187104,14.3155495 C196.170902,14.459412 196.161726,14.6061095 196.161726,14.7583964 C196.161726,14.7753261 196.161395,17.9333338 196.161726,17.9480765 C196.161726,18.9787667 196.558194,19.3978795 197.64129,19.3978795 L206.518842,19.3978795 C207.611279,19.3978795 207.998406,19.0013667 207.998406,17.9480765 C207.998737,17.9333338 207.998323,14.7753261 207.998323,14.7583964 C207.998241,14.6061905 207.988982,14.459493 207.972862,14.3150635 Z M209.484418,11.4148094 C210.077716,11.4148094 211.701698,10.6604225 211.701698,9.0951083 L211.701698,7.93521727 C211.701698,6.36982204 210.530315,5.6154352 209.484418,5.6154352 C208.473242,5.6154352 207.267221,6.36982204 207.267221,7.93521727 L207.267221,9.0951083 C207.267221,10.6604225 208.922535,11.4148094 209.484418,11.4148094 Z M191.926227,12.9847408 C190.549417,13.7527363 190.243137,14.9771872 190.243137,15.7734529 C190.243137,15.7858465 190.24198,17.2119964 190.243137,17.223256 C190.243137,18.2754932 190.603811,18.67314 191.722702,18.67314 L194.681913,18.67314 C194.681913,18.67314 194.681913,15.5922478 194.681913,14.3235689 L193.942131,13.5986673 C193.159445,12.922449 192.499601,12.6653435 191.926227,12.9847408 Z M194.681913,14.3235689 C194.701613,14.3373395 194.681913,13.9793034 194.681913,14.3235689 L194.681913,14.3235689 Z M213.916746,15.7734529 C213.916746,14.9771062 213.610384,13.7526553 212.233657,12.9847408 C211.660282,12.6653435 211.000439,12.922449 210.217753,13.5987483 L209.47797,14.3236499 C209.47797,15.5922478 209.47797,18.673221 209.47797,18.673221 L212.437182,18.673221 C213.556073,18.673221 213.916746,18.2755742 213.916746,17.223337 C213.917904,17.2119964 213.916746,15.7859275 213.916746,15.7734529 Z M209.479398,14.3235689 C209.479398,13.9793034 209.459798,14.3373395 209.479398,14.3235689 L209.479398,14.3235689 Z" id="Shape" fill="#D4D7DC" fill-rule="nonzero"></path>
            <mask id="mask-2" fill="white">
                <use xlink:href="#path-1"></use>
            </mask>
            <use id="Combined-Shape" fill="#D4D7DC" xlink:href="#path-1"></use>
            <mask id="mask-4" fill="white">
                <use xlink:href="#path-3"></use>
            </mask>
            <use id="Combined-Shape" fill="#D4D7DC" transform="translate(267.187679, 12.355300) rotate(90.000000) translate(-267.187679, -12.355300) " xlink:href="#path-3"></use>
        </g>
    </g>
</svg>