<?xml version="1.0" encoding="UTF-8"?>
<svg width="34px" height="23px" viewBox="0 0 34 23" version="1.1" xmlns="http://www.w3.org/2000/svg" xmlns:xlink="http://www.w3.org/1999/xlink">
    <!-- Generator: Sketch 52.2 (67145) - http://www.bohemiancoding.com/sketch -->
    <title>icVideoCallRed</title>
    <desc>Created with Sketch.</desc>
    <g id="DESKTOP-CHAT" stroke="none" stroke-width="1" fill="none" fill-rule="evenodd">
        <g id="chat-group-expanded-video-copy-7" transform="translate(-265.000000, -29.000000)" fill="#E83838" fill-rule="nonzero">
            <g id="Group-14" transform="translate(190.000000, 26.000000)">
                <path d="M108.259831,3.66461074 C108.095423,3.60482095 107.937328,3.57480018 107.785413,3.57480018 C107.443837,3.57480018 107.159545,3.68884134 106.931673,3.91629429 L99.2854295,11.1399081 L99.2854295,8.17508968 C99.2854295,6.74938637 98.7510032,5.5306816 97.6821505,4.51834603 C96.6132315,3.50613632 95.3265413,3 93.8210168,3 L80.4641469,3 C78.9590875,3 77.6719987,3.50613632 76.6030131,4.51834603 C75.5344263,5.5306816 75,6.74938637 75,8.17508968 L75,20.8250991 C75,22.2506766 75.5344263,23.4693184 76.6030796,24.481591 C77.6720651,25.4938637 78.959154,26 80.4642133,26 L93.8211497,26 C95.3266078,26 96.6133644,25.4938637 97.6822835,24.481591 C98.7511361,23.4693184 99.2855624,22.2507395 99.2855624,20.8250991 L99.2855624,17.842092 L106.931806,25.0836428 C107.159678,25.3110328 107.44397,25.425011 107.785546,25.425011 C107.937461,25.425011 108.095556,25.3950532 108.259964,25.3353893 C108.753521,25.1316634 109,24.7784002 109,24.2752848 L109,4.72502989 C108.999801,4.22166279 108.753321,3.86833659 108.259831,3.66461074 Z" id="icVideoCallRed" transform="translate(92.000000, 14.500000) rotate(-360.000000) translate(-92.000000, -14.500000) "></path>
            </g>
        </g>
    </g>
</svg>