<?xml version="1.0" encoding="UTF-8"?>
<svg width="86px" height="84px" viewBox="0 0 86 84" version="1.1" xmlns="http://www.w3.org/2000/svg" xmlns:xlink="http://www.w3.org/1999/xlink">
    <!-- Generator: Sketch 58 (84663) - https://sketch.com -->
    <title>icDateFinderEmpty</title>
    <desc>Created with Sketch.</desc>
    <g id="DateFinder" stroke="none" stroke-width="1" fill="none" fill-rule="evenodd" fill-opacity="0.6">
        <g id="Datefinder-empty-state-with-a-date" transform="translate(-274.000000, -337.000000)" fill="#666666" fill-rule="nonzero">
            <path d="M340.968,337.7104 C342.205118,337.7104 343.208,338.713282 343.208,339.9504 L343.208,339.9504 L343.208,344.8784 L346.5008,344.8784 C349.945643,344.82438 353.268054,346.155131 355.723101,348.572279 C358.178149,350.989426 359.56,354.290734 359.56,357.736 L359.56,357.736 L359.56,407.2624 C359.524565,410.712076 358.118559,414.006017 355.651981,416.41797 C353.185403,418.829922 349.860805,420.161818 346.4112,420.12 L346.4112,420.12 L287.4992,420.12 C280.349904,420.157361 274.513862,414.411412 274.44,407.2624 L274.44,407.2624 L274.44,357.736 C274.550145,350.552969 280.404925,344.787956 287.5888,344.7888 L287.5888,344.7888 L290.904,344.7888 L290.904,339.9504 C291.15376,338.953848 292.049427,338.254955 293.0768,338.254955 C294.104173,338.254955 294.99984,338.953848 295.2496,339.9504 L295.2496,339.9504 L295.2496,344.7888 L306.8752,344.7888 L306.8752,339.9504 C307.12496,338.953848 308.020627,338.254955 309.048,338.254955 C310.075373,338.254955 310.97104,338.953848 311.2208,339.9504 L311.2208,339.9504 L311.2208,344.7888 L322.8688,344.7888 L322.8688,339.9504 C323.11856,338.953848 324.014227,338.254955 325.0416,338.254955 C326.068973,338.254955 326.96464,338.953848 327.2144,339.9504 L327.2144,339.9504 L327.2144,344.7888 L338.728,344.7888 L338.728,339.9504 C338.728,338.713282 339.730882,337.7104 340.968,337.7104 Z M355.080029,365.9344 L278.7856,365.9344 L278.7856,407.2624 C278.797398,409.557461 279.723536,411.753152 281.358974,413.363364 C282.994412,414.973577 285.204233,415.865475 287.4992,415.842067 L287.4992,415.842067 L346.5008,415.842067 C348.77797,415.847569 350.963593,414.945609 352.573801,413.335401 C354.184009,411.725193 355.085969,409.53957 355.080029,407.2624 L355.080029,407.2624 L355.080029,365.9344 Z M305.918967,374.590658 C309.930738,373.236685 314.360867,374.540229 317,377.8512 C318.936259,375.512264 321.803787,374.144044 324.84,374.1104 C330.30418,374.134128 334.745073,378.525235 334.8304,383.9888 C334.8304,395.816 318.3664,402.0656 317.7168,402.3344 C317.494446,402.487658 317.222563,402.55163 316.9552,402.5136 C316.634616,402.499405 316.317755,402.43905 316.0144,402.3344 C299.588032,394.664416 299.095241,386.024929 299.080457,384.061947 L299.08,383.8992 C299.173019,379.666128 301.907196,375.94463 305.918967,374.590658 Z M290.792,349.156769 L287.4992,349.156769 C282.733862,349.144123 278.846992,352.97104 278.7856,357.736 L278.7856,357.736 L278.7856,361.544 L355.08,361.544 L355.08,357.736 C355.043038,352.978242 351.169086,349.14433 346.4112,349.156769 L346.4112,349.156769 L343.096,349.156769 L343.096,355.8768 C342.84624,356.873352 341.950573,357.572245 340.9232,357.572245 C339.895827,357.572245 339.00016,356.873352 338.7504,355.8768 L338.7504,355.8768 L338.7504,349.156769 L327.1248,349.156769 L327.1248,355.8768 C326.87504,356.873352 325.979373,357.572245 324.952,357.572245 C323.924627,357.572245 323.02896,356.873352 322.7792,355.8768 L322.7792,355.8768 L322.7792,349.156769 L311.1312,349.156769 L311.1312,355.8768 C310.88144,356.873352 309.985773,357.572245 308.9584,357.572245 C307.931027,357.572245 307.03536,356.873352 306.7856,355.8768 L306.7856,355.8768 L306.7856,349.156769 L295.16,349.156769 L295.16,355.8768 C294.927718,356.896018 294.021352,357.619061 292.976,357.619061 C291.930648,357.619061 291.024282,356.896018 290.792,355.8768 L290.792,355.8768 L290.792,349.156769 Z" id="icDateFinderEmpty"></path>
        </g>
    </g>
</svg>