<?xml version="1.0" encoding="UTF-8"?>
<svg width="16px" height="11px" viewBox="0 0 16 11" version="1.1" xmlns="http://www.w3.org/2000/svg" xmlns:xlink="http://www.w3.org/1999/xlink">
    <!-- Generator: Sketch 55 (78076) - https://sketchapp.com -->
    <title>icCameraBlackGC</title>
    <desc>Created with Sketch.</desc>
    <g id="DESKTOP-CHAT" stroke="none" stroke-width="1" fill="none" fill-rule="evenodd">
        <g id="chat-group-expanded-video-copy-14" transform="translate(-1077.000000, -227.000000)" fill="#333333" fill-rule="nonzero">
            <g id="Group-8" transform="translate(927.000000, 128.000000)">
                <g id="Group-11">
                    <g id="Group-17">
                        <g id="Group-13" transform="translate(0.000000, 23.000000)">
                            <g id="icons-chatrooms" transform="translate(89.000000, 73.000000)">
                                <path d="M76.6516851,3.31785731 C76.5743165,3.28926219 76.4999189,3.27490443 76.4284296,3.27490443 C76.2676881,3.27490443 76.1339037,3.32944586 76.0266697,3.4382277 L72.4284374,6.89299953 L72.4284374,5.47504289 C72.4284374,4.79318478 72.1769427,4.21032598 71.6739532,3.72616549 C71.1709325,3.2420652 70.5654312,3 69.8569491,3 L63.5713632,3 C62.8631,3 62.2574111,3.2420652 61.7543591,3.72616549 C61.2514947,4.21032598 61,4.79318478 61,5.47504289 L61,11.5250474 C61,12.2068453 61.2514947,12.789674 61.7543904,13.2738044 C62.2574424,13.7579348 62.8631313,14 63.5713945,14 L69.8570116,14 C70.5654625,14 71.170995,13.7579348 71.6740157,13.2738044 C72.1770052,12.789674 72.4284999,12.2068754 72.4284999,11.5250474 L72.4284999,10.0983918 L76.0267323,13.5617422 C76.1339662,13.6704939 76.2677507,13.7250053 76.4284921,13.7250053 C76.4999814,13.7250053 76.5743791,13.7106776 76.6517477,13.6821427 C76.8840097,13.5847086 77,13.4157566 77,13.1751362 L77,3.8250143 C76.9999062,3.58427351 76.8839159,3.41529141 76.6516851,3.31785731 Z" id="icCameraBlackGC" transform="translate(69.000000, 8.500000) rotate(-360.000000) translate(-69.000000, -8.500000) "></path>
                            </g>
                        </g>
                    </g>
                </g>
            </g>
        </g>
    </g>
</svg>