<?xml version="1.0" encoding="UTF-8"?>
<svg width="14px" height="9px" viewBox="0 0 14 9" version="1.1" xmlns="http://www.w3.org/2000/svg" xmlns:xlink="http://www.w3.org/1999/xlink">
    <!-- Generator: Sketch 53.2 (72643) - https://sketchapp.com -->
    <title>icEyeWhisper</title>
    <desc>Created with Sketch.</desc>
    <defs>
        <path d="M13.6867285,3.29441193 C13.8887572,3.4979425 13.9999998,3.76983847 13.9999998,4.05982604 C14.0001689,4.34998757 13.8889263,4.62188354 13.6868975,4.82558807 C12.7038037,5.81610352 10.0843617,8.12 7,8.12 C3.91546923,8.12 1.29619627,5.81627748 0.313271528,4.82576203 C0.111073731,4.6220575 -0.000168869287,4.35016153 1.92416072e-07,4.06 C1.92416072e-07,3.76983847 0.111242793,3.49811646 0.313271528,3.29458589 C1.29619627,2.30407044 3.91563829,8.8817842e-15 7,8.8817842e-15 C10.0841926,8.8817842e-15 12.7036347,2.30389648 13.6867285,3.29441193 Z M7,1.62650499 C5.69585802,1.62650499 4.63499584,2.71808989 4.63499584,4.06 C4.63499584,5.40191011 5.69585802,6.49349501 7,6.49349501 C8.30414198,6.49349501 9.36500416,5.40191011 9.36500416,4.06 C9.36500416,2.71808989 8.30397291,1.62650499 7,1.62650499 Z M7,5.7338215 C6.10312767,5.7338215 5.37328829,4.98284588 5.37328829,4.06 C5.37328829,3.13715412 6.1029586,2.3861785 7,2.3861785 C7.8970414,2.3861785 8.62671171,3.13698016 8.62671171,4.06 C8.62671171,4.98301984 7.89687233,5.7338215 7,5.7338215 Z" id="path-1"></path>
    </defs>
    <g id="Page-1" stroke="none" stroke-width="1" fill="none" fill-rule="evenodd">
        <mask id="mask-2" fill="white">
            <use xlink:href="#path-1"></use>
        </mask>
        <use id="icEyeWhisper" fill="#A5A5A5" fill-rule="nonzero" xlink:href="#path-1"></use>
    </g>
</svg>