<?xml version="1.0" encoding="UTF-8"?>
<svg width="25px" height="26px" viewBox="0 0 25 26" version="1.1" xmlns="http://www.w3.org/2000/svg" xmlns:xlink="http://www.w3.org/1999/xlink">
    <!-- Generator: Sketch 52.3 (67297) - http://www.bohemiancoding.com/sketch -->
    <title>icFilterWhite</title>
    <desc>Created with Sketch.</desc>
    <defs>
        <path d="M6.77461634,18.4392128 C9.8358174,21.4937773 14.7469068,21.6339751 17.9773678,18.7590199 L25.0487578,25.8307311 C25.231037,26.0123233 25.7727718,26.2720337 26.3618101,25.8307311 C26.9508484,25.3894286 26.5433956,24.5730121 26.3618101,24.3907262 L19.2904295,17.3190289 C21.4028129,14.4836123 21.2791412,9.55713707 18.0917811,6.68066769 C14.904421,3.80419831 9.74885075,3.80419831 6.66521248,7.00810144 C3.58157422,10.2120046 3.63022133,15.2949203 6.77461634,18.4392128 Z M15.1334042,6.42011357 C17.6602536,7.46679517 19.3078053,9.93260432 19.3078053,12.6677333 C19.3078053,15.4028622 17.6602536,17.8686714 15.1334042,18.915353 C12.6065548,19.9620346 9.69803005,19.3834615 7.76407609,17.4494227 C6.49073792,16.184004 5.77471166,14.4629421 5.7747133,12.6677315 C5.77471494,10.8725208 6.49074434,9.15146026 7.76408481,7.88604391 C9.69803005,5.95200504 12.6065548,5.37343198 15.1334042,6.42011357 Z" id="path-1"></path>
        <path d="M10.2,0.75 C10.2,1.16421338 10.5084962,1.5 10.8932318,1.5 L16.7067682,1.5 C17.0896297,1.5 17.4,1.16710125 17.4,0.75 C17.4,0.335786625 17.0915038,0 16.7067682,0 L10.8932318,0 C10.5103703,0 10.2,0.33289875 10.2,0.75 Z M4.2,5.1 C4.2,5.51421338 4.5262941,5.85 4.9332259,5.85 L16.6667741,5.85 C17.0717237,5.85 17.4,5.51710125 17.4,5.1 C17.4,4.68578662 17.0737059,4.35 16.6667741,4.35 L4.9332259,4.35 C4.5282763,4.35 4.2,4.68289875 4.2,5.1 Z M0.158496094,9.45 C0.158496094,9.86421338 0.4449465,10.2 0.9998535,10.2 L16.5739746,10.2 C17.1261786,10.2 17.4300293,9.86710125 17.4300293,9.45 C17.4300293,9.03578662 17.1288816,8.7 16.5739746,8.7 L0.9998535,8.7 C0.4476495,8.7 0.158496094,9.03289875 0.158496094,9.45 Z" id="path-3"></path>
    </defs>
    <g id="Page-1" stroke="none" stroke-width="1" fill="none" fill-rule="evenodd">
        <g id="Chatrooms_Livestream-Copy-3" transform="translate(-330.000000, -441.000000)">
            <g id="icFilterWhite" transform="translate(315.000000, 431.000000)">
                <g id="colour/light-grey" transform="translate(21.976633, 21.954707) rotate(-328.000000) translate(-21.976633, -21.954707) translate(6.376633, 6.654707)">
                    <mask id="mask-2" fill="white">
                        <use xlink:href="#path-1"></use>
                    </mask>
                    <use id="Mask" fill="#000000" fill-rule="nonzero" transform="translate(15.526414, 15.318157) scale(-1, 1) rotate(56.000000) translate(-15.526414, -15.318157) " xlink:href="#path-1"></use>
                    <g id="colour/white" mask="url(#mask-2)" fill="#FFFFFF">
                        <g transform="translate(2.859242, 2.317364)" id="colour/light-grey">
                            <polygon points="0 0 28 0 28 31 0 31"></polygon>
                        </g>
                    </g>
                </g>
                <g id="colour/mid-grey" transform="translate(22.400000, 25.800000)">
                    <mask id="mask-4" fill="white">
                        <use xlink:href="#path-3"></use>
                    </mask>
                    <use id="Mask" fill="#000000" fill-rule="nonzero" xlink:href="#path-3"></use>
                    <g id="colour/white" mask="url(#mask-4)" fill="#FFFFFF">
                        <g transform="translate(-1.800000, -4.800000)" id="colour/light-grey">
                            <polygon points="0 0 24 0 24 20 0 20"></polygon>
                        </g>
                    </g>
                </g>
            </g>
        </g>
    </g>
</svg>