<?xml version="1.0" encoding="UTF-8"?>
<svg width="19px" height="14px" viewBox="0 0 19 14" version="1.1" xmlns="http://www.w3.org/2000/svg" xmlns:xlink="http://www.w3.org/1999/xlink">
    <!-- Generator: Sketch 52.2 (67145) - http://www.bohemiancoding.com/sketch -->
    <title>icGroupChatBlack</title>
    <desc>Created with Sketch.</desc>
    <defs>
        <path d="M28.7939808,8.5750727 C28.2928629,9.06110768 27.8881783,9.65458458 27.6181665,10.329614 C27.5084363,10.6039396 27.4520589,10.8966837 27.4520589,11.1921414 C27.4520589,12.3143511 28.2480017,13.2506583 29.3061499,13.4673257 C29.2302903,13.4764051 29.1537804,13.4809888 29.0770164,13.4809888 L23.3537823,13.4809888 C22.248922,13.4809888 21.3532556,12.5853224 21.3532556,11.4804621 C21.3532556,11.2259562 21.4018188,10.9737879 21.4963399,10.7374851 C22.1591326,9.08050337 23.7639614,7.99398142 25.5485853,7.99398142 L26.5164129,7.99398142 C27.3286771,7.99398142 28.1086075,8.2008878 28.7939808,8.5750727 Z M32.7471084,7.14466047 L33.8706666,7.14466047 C36.0148385,7.14466047 37.9649299,8.38660156 38.871669,10.329614 C39.394449,11.4498569 38.9101097,12.7817901 37.7898668,13.3045701 C37.4934736,13.442887 37.1703687,13.5145676 36.8432899,13.5145676 L30.1991455,13.5145676 C28.916505,13.5145676 27.8767194,12.474782 27.8767194,11.1921414 C27.8767194,10.8966837 27.9330967,10.6039396 28.042827,10.329614 C28.8122679,8.40601178 30.6753253,7.14466047 32.7471084,7.14466047 Z M33.2888715,5.88 C31.6651543,5.88 30.3488715,4.56371716 30.3488715,2.94 C30.3488715,1.31628284 31.6651543,0 33.2888715,0 C34.9125887,0 36.2288715,1.31628284 36.2288715,2.94 C36.2288715,4.56371716 34.9125887,5.88 33.2888715,5.88 Z M26.1488715,6.72 C24.9890735,6.72 24.0488715,5.77979797 24.0488715,4.62 C24.0488715,3.46020203 24.9890735,2.52 26.1488715,2.52 C27.3086695,2.52 28.2488715,3.46020203 28.2488715,4.62 C28.2488715,5.77979797 27.3086695,6.72 26.1488715,6.72 Z" id="path-1"></path>
    </defs>
    <g id="DESKTOP-CHAT" stroke="none" stroke-width="1" fill="none" fill-rule="evenodd">
        <g id="chat-group-expanded-video-copy-13" transform="translate(-104.000000, -94.000000)">
            <g id="Group-11" transform="translate(83.000000, 94.000000)">
                <g id="Group-8">
                    <g id="Group-5">
                        <g id="Group-10">
                            <mask id="mask-2" fill="white">
                                <use xlink:href="#path-1"></use>
                            </mask>
                            <use id="icGroupChatBlack" fill="#111830" xlink:href="#path-1"></use>
                        </g>
                    </g>
                </g>
            </g>
        </g>
    </g>
</svg>