<?xml version="1.0" encoding="UTF-8"?>
<svg width="18px" height="15px" viewBox="0 0 18 15" version="1.1" xmlns="http://www.w3.org/2000/svg" xmlns:xlink="http://www.w3.org/1999/xlink">
    <!-- Generator: Sketch 55.2 (78181) - https://sketchapp.com -->
    <title>icGroupChat</title>
    <desc>Created with Sketch.</desc>
    <defs>
        <path d="M509.835752,453.66 C508.650206,453.66 507.680181,452.787642 507.68,451.721301 L507.68,450.758537 C507.68,449.692358 508.650206,448.82 509.835752,448.82 L510.364248,448.82 C511.549975,448.82 512.52,449.692358 512.52,450.758537 L512.52,451.721301 C512.52,452.787642 511.549794,453.66 510.364248,453.66 L509.835752,453.66 Z M517.267707,452.34 C515.866607,452.34 514.720214,451.309032 514.72,450.04881 L514.72,448.910998 C514.72,447.650968 515.866607,446.62 517.267707,446.62 L517.892293,446.62 C519.293607,446.62 520.44,447.650968 520.44,448.910998 L520.44,450.04881 C520.44,451.309032 519.293393,452.34 517.892293,452.34 L517.267707,452.34 Z M512.614334,454.638202 C512.278625,455.036515 512.08,455.52853 512.08,456.060386 L512.08,459.38 L506.478161,459.38 C506.16987,459.38 505.92,459.139388 505.92,458.842519 L505.92,456.300283 C505.92,455.329671 506.740054,454.54 507.747858,454.54 L512.011833,454.54 C512.222837,454.54 512.425602,454.574595 512.614334,454.638202 Z M520.067139,453.66 C521.24327,453.66 522.2,454.736824 522.2,456.060386 L522.2,459.527071 C522.2,459.931893 521.908485,460.26 521.548812,460.26 L513.611188,460.26 C513.251515,460.26 512.96,459.931893 512.96,459.527071 L512.96,456.060386 C512.96,454.736824 513.91673,453.66 515.092501,453.66 L520.067139,453.66 Z" id="path-1"></path>
    </defs>
    <g id="Page-1" stroke="none" stroke-width="1" fill="none" fill-rule="evenodd">
        <g id="Desktop-Chatrooms-V2" transform="translate(-505.000000, -446.000000)">
            <mask id="mask-2" fill="white">
                <use xlink:href="#path-1"></use>
            </mask>
            <use id="icGroupChat" fill="#838383" fill-rule="nonzero" xlink:href="#path-1"></use>
        </g>
    </g>
</svg>