<?xml version="1.0" encoding="UTF-8"?>
<svg width="24px" height="24px" viewBox="0 0 24 24" version="1.1" xmlns="http://www.w3.org/2000/svg" xmlns:xlink="http://www.w3.org/1999/xlink">
    <!-- Generator: Sketch 52.4 (67378) - http://www.bohemiancoding.com/sketch -->
    <title>icSettingChatRoom</title>
    <desc>Created with Sketch.</desc>
    <defs>
        <path d="M12,18 C8.69189189,18 6,15.3081081 6,12 C6,8.69189189 8.69189189,6 12,6 C15.3081081,6 18,8.69189189 18,12 C18,15.3081081 15.3081081,18 12,18 Z M12,7.18378378 C9.34378378,7.18378378 7.18378378,9.34378378 7.18378378,12 C7.18378378,14.6562162 9.34378378,16.8162162 12,16.8162162 C14.6562162,16.8162162 16.8162162,14.6562162 16.8162162,12 C16.8162162,9.34378378 14.6562162,7.18378378 12,7.18378378 Z M1.28467153,14.6163216 C0.583941606,14.6163216 0,14.0316687 0,13.3300853 L0,10.6406821 C0,9.93909866 0.583941606,9.3544458 1.25547445,9.38367844 L2.62773723,9.38367844 C2.91970803,9.38367844 3.18248175,9.20828258 3.29927007,8.91595615 C3.41605839,8.65286236 3.53284672,8.36053593 3.64963504,8.09744214 C3.79562044,7.80511571 3.73722628,7.48355664 3.53284672,7.27892814 L2.56934307,6.31425091 C2.0729927,5.81729598 2.0729927,4.99878197 2.56934307,4.50182704 L4.46715328,2.60170524 C4.96350365,2.1047503 5.7810219,2.1047503 6.27737226,2.60170524 L7.24087591,3.56638246 C7.44525547,3.77101096 7.79562044,3.80024361 8.05839416,3.68331303 C8.32116788,3.53714982 8.58394161,3.42021924 8.87591241,3.33252132 C9.13868613,3.21559074 9.34306569,2.95249695 9.34306569,2.66017052 L9.34306569,1.2862363 C9.34306569,0.584652862 9.9270073,0 10.6277372,0 L13.3138686,0 C14.0145985,0 14.5985401,0.584652862 14.6277372,1.25700365 L14.6277372,2.63093788 C14.6277372,2.92326431 14.8029197,3.1863581 15.0948905,3.30328867 C15.3576642,3.42021924 15.649635,3.53714982 15.9124088,3.65408039 C16.2043796,3.80024361 16.5255474,3.74177832 16.729927,3.53714982 L17.6934307,2.57247259 C18.189781,2.07551766 19.0072993,2.07551766 19.5036496,2.57247259 L21.4014599,4.4725944 C21.8978102,4.96954933 21.8978102,5.78806334 21.4014599,6.28501827 L20.4379562,7.24969549 C20.2335766,7.48355664 20.2043796,7.80511571 20.3211679,8.0682095 C20.4671533,8.33130329 20.5839416,8.59439708 20.6715328,8.88672351 C20.7883212,9.1498173 21.0510949,9.3544458 21.3430657,9.3544458 L22.7153285,9.3544458 C23.4160584,9.3544458 24,9.93909866 24,10.6406821 L24,13.3300853 C24,14.0316687 23.4160584,14.6163216 22.7153285,14.6163216 L21.3430657,14.6163216 C21.0510949,14.6163216 20.7883212,14.7917174 20.6715328,15.0840438 C20.5547445,15.3471376 20.4379562,15.6394641 20.3211679,15.9025579 C20.1751825,16.1948843 20.2335766,16.5164434 20.4379562,16.7210719 L21.4014599,17.6857491 C21.8978102,18.182704 21.8978102,19.001218 21.4014599,19.498173 L19.5036496,21.3982948 C19.0072993,21.8952497 18.189781,21.8952497 17.6934307,21.3982948 L16.729927,20.4336175 C16.5255474,20.228989 16.1751825,20.1997564 15.9124088,20.316687 C15.649635,20.4628502 15.3868613,20.5797808 15.0948905,20.6674787 C14.8321168,20.7844093 14.6277372,21.047503 14.6277372,21.3398295 L14.6277372,22.7137637 C14.6277372,23.4153471 14.0437956,24 13.3430657,24 L10.6569343,24 C9.95620438,24 9.37226277,23.4153471 9.37226277,22.7137637 L9.37226277,21.3398295 C9.37226277,21.047503 9.19708029,20.7844093 8.90510949,20.6674787 C8.64233577,20.5505481 8.35036496,20.4336175 8.08759124,20.316687 C7.79562044,20.1705238 7.47445255,20.228989 7.27007299,20.4336175 L6.30656934,21.3982948 C5.81021898,21.8952497 4.99270073,21.8952497 4.49635036,21.3982948 L2.59854015,19.498173 C2.10218978,19.001218 2.10218978,18.182704 2.59854015,17.6857491 L3.5620438,16.7210719 C3.76642336,16.4872107 3.79562044,16.1656516 3.67883212,15.9025579 C3.53284672,15.6394641 3.41605839,15.3763703 3.32846715,15.0840438 C3.21167883,14.8209501 2.94890511,14.6163216 2.65693431,14.6163216 L1.28467153,14.6163216 Z M1.18394161,10.7114513 L1.18394161,13.2870102 C1.18394161,13.6470346 1.48818641,13.9516706 1.84774846,13.9516706 L3.14770354,13.9516706 C3.64555867,13.9516706 4.11575519,14.2840007 4.28170691,14.782496 C4.36468276,15.0317437 4.47531724,15.2532971 4.58595171,15.5025447 C4.80722066,15.9733458 4.72424481,16.5272295 4.36468276,16.8872538 L3.45194834,17.8011618 C3.20302077,18.0781036 3.20302077,18.4935163 3.45194834,18.742764 L5.24975856,20.5428858 C5.52634475,20.7921334 5.94122403,20.7921334 6.1901516,20.5428858 L7.10288602,19.6289778 C7.32415497,19.3797302 7.65605839,19.2689534 7.9603032,19.2689534 C8.12625491,19.2689534 8.31986524,19.2966476 8.48581696,19.3797302 C8.70708591,19.4905069 8.95601348,19.6012836 9.20494104,19.6843662 C9.70279618,19.8505312 10.0346996,20.3213323 10.0346996,20.8198276 L10.0346996,22.1214541 C10.0346996,22.4814785 10.3389444,22.7861145 10.6985065,22.7861145 L13.2430994,22.7861145 C13.6026614,22.7861145 13.9069062,22.4814785 13.9069062,22.1214541 L13.9069062,20.8198276 C13.9069062,20.3213323 14.2388097,19.8505312 14.7366648,19.6843662 C14.9855924,19.6012836 15.2068613,19.4905069 15.4557889,19.3797302 C15.9259854,19.1581767 16.4791578,19.2412593 16.8387198,19.6012836 L17.7514542,20.5151916 C18.0280404,20.7644392 18.4429197,20.7644392 18.6918473,20.5151916 L20.4896575,18.7150698 C20.7385851,18.438128 20.7385851,18.0227153 20.4896575,17.7734676 L19.5769231,16.8595596 C19.217361,16.4995353 19.1343852,15.9456516 19.3556541,15.4748506 C19.4662886,15.2532971 19.5769231,15.0040495 19.6598989,14.7548018 C19.8258506,14.2563066 20.2960472,13.9239764 20.7939023,13.9239764 L22.0938574,13.9239764 C22.4534194,13.9239764 22.7576642,13.6193404 22.7576642,13.259316 L22.7576642,10.7114513 C22.7576642,10.351427 22.4534194,10.046791 22.0938574,10.046791 L20.7939023,10.046791 C20.2960472,10.046791 19.8258506,9.71446079 19.6598989,9.21596552 C19.5769231,8.96671789 19.4662886,8.74516443 19.3556541,8.4959168 C19.1343852,8.02511571 19.217361,7.47123208 19.5769231,7.11120772 L20.4896575,6.19729973 C20.7385851,5.92035791 20.7385851,5.50494519 20.4896575,5.25569755 L18.6918473,3.45557575 C18.4152611,3.20632812 18.0003818,3.20632812 17.7514542,3.45557575 L16.8387198,4.36948374 C16.4791578,4.7295081 15.9259854,4.81259065 15.4557889,4.5910372 C15.2345199,4.48026047 14.9855924,4.36948374 14.7366648,4.2864012 C14.2388097,4.12023611 13.9069062,3.64943502 13.9069062,3.15093975 L13.9069062,1.84931322 C13.9069062,1.48928886 13.6026614,1.18465286 13.2430994,1.18465286 L10.6985065,1.18465286 C10.3389444,1.18465286 10.0346996,1.48928886 10.0346996,1.84931322 L10.0346996,3.15093975 C10.0346996,3.64943502 9.70279618,4.12023611 9.20494104,4.2864012 C8.95601348,4.36948374 8.73474453,4.48026047 8.48581696,4.5910372 C8.01562044,4.81259065 7.46244806,4.7295081 7.10288602,4.36948374 L6.1901516,3.45557575 C5.91356541,3.20632812 5.49868613,3.20632812 5.24975856,3.45557575 L3.45194834,5.25569755 C3.20302077,5.53263937 3.20302077,5.94805209 3.45194834,6.19729973 L4.36468276,7.11120772 C4.72424481,7.47123208 4.80722066,8.02511571 4.58595171,8.4959168 C4.47531724,8.71747025 4.36468276,8.96671789 4.28170691,9.21596552 C4.11575519,9.71446079 3.64555867,10.046791 3.14770354,10.046791 L1.84774846,10.046791 C1.48818641,10.046791 1.18394161,10.351427 1.18394161,10.7114513 Z" id="path-1"></path>
    </defs>
    <g id="Page-1" stroke="none" stroke-width="1" fill="none" fill-rule="evenodd">
        <g id="Chatrooms_Settings_AllowWhispers-Copy" transform="translate(-259.000000, -50.000000)">
            <g id="icSettingChatRoom" transform="translate(259.000000, 50.000000)">
                <g id="colour/dark-grey">
                    <mask id="mask-2" fill="white">
                        <use xlink:href="#path-1"></use>
                    </mask>
                    <use id="icSettingChatRoom" fill="#333333" fill-rule="nonzero" xlink:href="#path-1"></use>
                </g>
            </g>
        </g>
    </g>
</svg>