<?xml version="1.0" encoding="UTF-8"?>
<svg width="26px" height="25px" viewBox="0 0 26 25" version="1.1" xmlns="http://www.w3.org/2000/svg" xmlns:xlink="http://www.w3.org/1999/xlink">
    <!-- Generator: Sketch 52.6 (67491) - http://www.bohemiancoding.com/sketch -->
    <title>icChatRooms</title>
    <desc>Created with Sketch.</desc>
    <g id="Page-1" stroke="none" stroke-width="1" fill="none" fill-rule="evenodd">
        <path d="M19.2064,6.0752 C19.3101448,5.97661777 19.4646876,5.95395681 19.5923672,6.01860474 C19.7200469,6.08325266 19.7932538,6.22122991 19.7752,6.3632 L19.7752,14.2544 C19.7733774,14.3835986 19.702454,14.5019111 19.5893628,14.5644089 C19.4762716,14.6269067 19.3383602,14.6240028 19.228,14.5568 L16.2184,12.6056 L16.2184,13.196 C16.2184,13.99129 15.57369,14.636 14.7784,14.636 L7.6648,14.636 C6.86950996,14.636 6.2248,13.99129 6.2248,13.196 L6.2248,7.436 C6.2248,6.64070996 6.86950996,5.996 7.6648,5.996 L14.7568,5.996 C15.55209,5.996 16.1968,6.64070996 16.1968,7.436 L16.1968,8.0264 L19.2064,6.0752 Z M15.16,12.872 L15.16,7.724 C15.1521298,7.36496084 14.8567028,7.07916732 14.4976,7.0832 L7.9024,7.0832 C7.54329724,7.07916732 7.24787022,7.36496084 7.24,7.724 L7.24,12.872 C7.2418991,13.0457732 7.31275695,13.2116734 7.43698335,13.3331992 C7.56120974,13.4547251 7.72862705,13.5219201 7.9024,13.52 L14.4976,13.52 C14.6713729,13.5219201 14.8387903,13.4547251 14.9630167,13.3331992 C15.0872431,13.2116734 15.1581009,13.0457732 15.16,12.872 Z M18.76,13.2032 L18.76,7.4 L16.0888,9.0344 L16.0888,11.5688 L18.76,13.2032 Z M20.5384,0.0416 C21.7820198,0.0320038823 22.9780028,0.519317185 23.8607741,1.39532916 C24.7435455,2.27134114 25.240037,3.46354321 25.24,4.7072 L25.24,15.6224 C25.2400015,16.8667712 24.7451847,18.0600713 23.8646063,18.9392991 C22.9840279,19.8185269 21.7899697,20.3115115 20.5456,20.3096 L7.2256,20.3096 C7.0456,20.3096 6.844,20.3096 6.7648,20.3096 C6.59781152,20.4387117 6.43909895,20.5781864 6.2896,20.7272 L6.0304,20.9576 L2.4304,24.1976 C2.13986545,24.4593479 1.7234901,24.5278998 1.36437689,24.3731096 C1.00526368,24.2183194 0.769201593,23.8685445 0.76,23.4776 L0.76,4.7072 C0.791629845,2.10140986 2.92776833,0.0136003051 5.5336,0.0416 L20.5384,0.0416 Z M23.8,15.8816 L23.8,4.52 C23.8,2.92941992 22.5105801,1.64 20.92,1.64 L5.1592,1.64 C3.64,1.64 2.2,3.08 2.2,5.3696 L2.2,21.8 L4.2664,19.964 L4.5472,19.7264 C5.4904,18.8696 5.7352,18.7616 6.9664,18.7616 L20.92,18.7616 C22.5105801,18.7616 23.8,17.4721801 23.8,15.8816 Z" id="icChatRooms" fill="#333333" fill-rule="nonzero"></path>
    </g>
</svg>