<?xml version="1.0" encoding="UTF-8"?>
<svg width="32px" height="27px" viewBox="0 0 32 27" version="1.1" xmlns="http://www.w3.org/2000/svg" xmlns:xlink="http://www.w3.org/1999/xlink">
    <!-- Generator: Sketch 52.6 (67491) - http://www.bohemiancoding.com/sketch -->
    <title>icCommunity</title>
    <desc>Created with Sketch.</desc>
    <g id="Page-1" stroke="none" stroke-width="1" fill="none" fill-rule="evenodd">
        <path d="M31.12,2.8624 L31.12,13.0576 C31.0885176,14.4437811 29.9431286,15.5441267 28.5568,15.52 L9.2032,15.52 C7.81687138,15.5441267 6.67148238,14.4437811 6.64,13.0576 L6.64,2.8624 C6.64932248,2.18636982 6.92990166,1.54243963 7.4186816,1.07532307 C7.90746154,0.608206506 8.56344156,0.357087042 9.2392,0.3784 L25.0792,0.3784 C25.2910186,0.354142732 25.4979812,0.453501043 25.6115217,0.633956281 C25.7250622,0.81441152 25.7250622,1.04398848 25.6115217,1.22444372 C25.4979812,1.40489896 25.2910186,1.50425727 25.0792,1.48 L11.2768,1.48 L11.2768,14.4184 L28.5568,14.4184 C28.9285166,14.4300209 29.2895205,14.2929259 29.5598204,14.0374925 C29.8301203,13.782059 29.9873966,13.4293793 29.9968,13.0576 L29.9968,2.8624 C29.9873966,2.49062068 29.8301203,2.13794095 29.5598204,1.88250752 C29.2895205,1.6270741 28.9285166,1.48997909 28.5568,1.5016 L25.0072,1.5016 C24.7953814,1.52585727 24.5884188,1.42649896 24.4748783,1.24604372 C24.3613378,1.06558848 24.3613378,0.83601152 24.4748783,0.655556281 C24.5884188,0.475101043 24.7953814,0.375742732 25.0072,0.4 L28.5568,0.4 C29.9431286,0.375873306 31.0885176,1.47621892 31.12,2.8624 Z M10.1176,14.44 L10.1176,1.5016 L9.2032,1.5016 C8.83148339,1.48997909 8.47047954,1.6270741 8.20017961,1.88250752 C7.92987969,2.13794095 7.7726034,2.49062068 7.7632,2.8624 L7.7632,13.0792 C7.7726034,13.4509793 7.92987969,13.803659 8.20017961,14.0590925 C8.47047954,14.3145259 8.83148339,14.4516209 9.2032,14.44 L10.1176,14.44 Z M26.3392,3.64 C26.5912,3.64 26.8,3.964 26.8,4.36 C26.8,4.756 26.5912,5.08 26.3392,5.08 L14.3008,5.08 C14.0488,5.08 13.84,4.756 13.84,4.36 C13.84,3.964 14.0488,3.64 14.3008,3.64 L26.3392,3.64 Z M26.3392,7.24 C26.5912,7.24 26.8,7.564 26.8,7.96 C26.8,8.356 26.5912,8.68 26.3392,8.68 L14.3008,8.68 C14.0488,8.68 13.84,8.356 13.84,7.96 C13.84,7.564 14.0488,7.24 14.3008,7.24 L26.3392,7.24 Z M26.3392,10.84 C26.5912,10.84 26.8,11.164 26.8,11.56 C26.8,11.956 26.5912,12.28 26.3392,12.28 L14.3008,12.28 C14.0488,12.28 13.84,11.956 13.84,11.56 C13.84,11.164 14.0488,10.84 14.3008,10.84 L26.3392,10.84 Z M17.044,22.18 C17.2672,22.18 17.44,22.504 17.44,22.9 C17.44,23.296 17.2672,23.62 17.044,23.62 L4.156,23.62 C3.9328,23.62 3.76,23.296 3.76,22.9 C3.76,22.504 3.9328,22.18 4.156,22.18 L17.044,22.18 Z M4.156,19.3 L17.044,19.3 C17.2672,19.3 17.44,19.624 17.44,20.02 C17.44,20.416 17.2672,20.74 17.044,20.74 L4.156,20.74 C3.9328,20.74 3.76,20.416 3.76,20.02 C3.76,19.624 3.9328,19.3 4.156,19.3 Z M26.3896,16.24 C27.8767898,16.3138152 29.0251933,17.5748073 28.96,19.0624 L28.96,23.4976 C29.0251933,24.9851927 27.8767898,26.2461848 26.3896,26.32 L3.4504,26.32 C1.96321016,26.2461848 0.814806676,24.9851927 0.88,23.4976 L0.88,19.0624 C0.814806676,17.5748073 1.96321016,16.3138152 3.4504,16.24 L15.6256,16.24 L15.6256,17.3632 L3.4504,17.3632 C2.55417776,17.4059466 1.86168022,18.1660834 1.9024,19.0624 L1.9024,23.4976 C1.86168022,24.3939166 2.55417776,25.1540534 3.4504,25.1968 L26.4256,25.1968 C27.3218222,25.1540534 28.0143198,24.3939166 27.9736,23.4976 L27.9736,19.0624 C28.0143198,18.1660834 27.3218222,17.4059466 26.4256,17.3632 L15.6256,17.3632 L15.6256,16.24 L26.3896,16.24 Z M24.064,18.58 C25.1564732,18.5834451 26.0489028,19.4535641 26.08,20.5456 C26.08,22.9432 22.768,24.2104 22.6312,24.268 C22.5825698,24.2868891 22.5286302,24.2868891 22.48,24.268 C22.4177873,24.2748373 22.3550127,24.2748373 22.2928,24.268 C18.88,22.684 18.88,20.848 18.88,20.524 C18.8981274,19.6736332 19.4461798,18.925406 20.2514669,18.6516084 C21.0567539,18.3778108 21.947299,18.6369149 22.48,19.3 C22.8774975,18.8401677 23.4561828,18.5771289 24.064,18.58 Z M22.48,23.5192 C23.128,23.2456 25.2808,22.1872 25.2592,20.5816 C25.2592,20.1623131 25.0355131,19.774876 24.6724,19.5652325 C24.3092869,19.3555891 23.8619131,19.3555891 23.4988,19.5652325 C23.1356869,19.774876 22.912,20.1623131 22.912,20.5816 C22.912,20.8321164 22.7089164,21.0352 22.4584,21.0352 C22.2078836,21.0352 22.0048,20.8321164 22.0048,20.5816 C22.0048,19.9334386 21.4793614,19.408 20.8312,19.408 C20.1830386,19.408 19.6576,19.9334386 19.6576,20.5816 L19.6576,20.6392 C19.6576,20.6392 19.564,22.0792 22.48,23.5192 Z" id="icCommunity" fill="#333333" fill-rule="nonzero"></path>
    </g>
</svg>