<?xml version="1.0" encoding="UTF-8"?>
<svg width="28px" height="27px" viewBox="0 0 28 27" version="1.1" xmlns="http://www.w3.org/2000/svg" xmlns:xlink="http://www.w3.org/1999/xlink">
    <!-- Generator: Sketch 52.6 (67491) - http://www.bohemiancoding.com/sketch -->
    <title>icDateFinderSetting</title>
    <desc>Created with Sketch.</desc>
    <g id="Page-1" stroke="none" stroke-width="1" fill="none" fill-rule="evenodd">
        <path d="M23.4824,2.6752 C24.5896708,2.65783647 25.6575889,3.0855778 26.4467112,3.8625181 C27.2358335,4.6394584 27.6801361,5.70059303 27.68,6.808 L27.68,22.7272 C27.6686103,23.8360245 27.2166798,24.8947913 26.4238511,25.6700617 C25.6310224,26.445332 24.5624015,26.8734416 23.4536,26.86 L4.5176,26.86 C2.21961215,26.8720089 0.343741234,25.0250966 0.32,22.7272 L0.32,6.808 C0.355403603,4.49916872 2.23729731,2.64612858 4.5464,2.6464 L5.612,2.6464 L5.612,1.0912 C5.69227985,0.770879632 5.98017282,0.546235539 6.3104,0.546235539 C6.64062718,0.546235539 6.92852015,0.770879632 7.0088,1.0912 L7.0088,2.6464 L10.7456,2.6464 L10.7456,1.0912 C10.8258799,0.770879632 11.1137728,0.546235539 11.444,0.546235539 C11.7742272,0.546235539 12.0621201,0.770879632 12.1424,1.0912 L12.1424,2.6464 L15.8864,2.6464 L15.8864,1.0912 C15.9666799,0.770879632 16.2545728,0.546235539 16.5848,0.546235539 C16.9150272,0.546235539 17.2029201,0.770879632 17.2832,1.0912 L17.2832,2.6464 L20.984,2.6464 L20.984,1.0912 C20.984,0.69355498 21.306355,0.3712 21.704,0.3712 C22.101645,0.3712 22.424,0.69355498 22.424,1.0912 L22.424,2.6752 L23.4824,2.6752 Z M4.5176,4.0504 C2.98588406,4.04632515 1.73653326,5.27640576 1.7168,6.808 L1.7168,8.032 L26.24,8.032 L26.24,6.808 C26.2281193,5.27872055 24.9829203,4.04639187 23.4536,4.0504 L22.388,4.0504 L22.388,6.2104 C22.3077201,6.53072037 22.0198272,6.75536446 21.6896,6.75536446 C21.3593728,6.75536446 21.0714799,6.53072037 20.9912,6.2104 L20.9912,4.0504 L17.2544,4.0504 L17.2544,6.2104 C17.1741201,6.53072037 16.8862272,6.75536446 16.556,6.75536446 C16.2257728,6.75536446 15.9378799,6.53072037 15.8576,6.2104 L15.8576,4.0504 L12.1136,4.0504 L12.1136,6.2104 C12.0333201,6.53072037 11.7454272,6.75536446 11.4152,6.75536446 C11.0849728,6.75536446 10.7970799,6.53072037 10.7168,6.2104 L10.7168,4.0504 L6.98,4.0504 L6.98,6.2104 C6.90533786,6.53800572 6.61400586,6.7704125 6.278,6.7704125 C5.94199414,6.7704125 5.65066214,6.53800572 5.576,6.2104 L5.576,4.0504 L4.5176,4.0504 Z M23.4824,25.4848 C24.2143475,25.4867186 24.9168691,25.1968027 25.4344359,24.6792359 C25.9520027,24.1616691 26.2419186,23.4591475 26.24,22.7272 L26.2400095,9.4432 L1.7168,9.4432 L1.7168,22.7272 C1.72059233,23.4648981 2.01827955,24.1706559 2.54395605,24.6882243 C3.06963255,25.2057927 3.7799321,25.4924742 4.5176,25.4848 L23.4824,25.4848 Z M16.52,12.0712 C18.2763435,12.0788267 19.7037734,13.4902541 19.7312,15.2464 C19.7312,19.048 14.4392,21.0568 14.2304,21.1432 C14.1589292,21.1924614 14.071538,21.2130241 13.9856,21.2008 C13.8825551,21.1962372 13.7807068,21.1768375 13.6832,21.1432 C8.24,18.6016 8.24,15.7288 8.24,15.2176 C8.26989897,13.8569697 9.14874148,12.660774 10.4382394,12.2255685 C11.7277373,11.790363 13.1517071,12.2093595 14,13.2736 C14.622369,12.5217992 15.5440745,12.082014 16.52,12.0712 Z M14,19.7392 C15.0008,19.3144 18.32,17.7016 18.32,15.2464 C18.2594499,14.2828161 17.4602844,13.5322926 16.4948,13.5322926 C15.5293156,13.5322926 14.7301501,14.2828161 14.6696,15.2464 C14.5893201,15.5667204 14.3014272,15.7913645 13.9712,15.7913645 C13.6409728,15.7913645 13.3530799,15.5667204 13.2728,15.2464 C13.2122499,14.2828161 12.4130844,13.5322926 11.4476,13.5322926 C10.4821156,13.5322926 9.68295006,14.2828161 9.6224,15.2464 L9.6224,15.3328 C9.6224,15.3688 9.4712,17.5792 14,19.7392 Z" id="icDateFinderSetting" fill="#333333" fill-rule="nonzero"></path>
    </g>
</svg>