<?xml version="1.0" encoding="UTF-8"?>
<svg width="28px" height="26px" viewBox="0 0 28 26" version="1.1" xmlns="http://www.w3.org/2000/svg" xmlns:xlink="http://www.w3.org/1999/xlink">
    <!-- Generator: Sketch 52.6 (67491) - http://www.bohemiancoding.com/sketch -->
    <title>icForums</title>
    <desc>Created with Sketch.</desc>
    <g id="Page-1" stroke="none" stroke-width="1" fill="none" fill-rule="evenodd">
        <path d="M21.5528,6.52 C21.4853078,7.20757972 21.1022144,7.82478576 20.516,8.1904 C20.3504,8.3272 20.0408,8.5792 20.0408,8.6728 C20.0427479,8.84906934 19.9735852,9.01868751 19.8489364,9.14333637 C19.7242875,9.26798522 19.5546693,9.33714791 19.3784,9.3352 C19.2027175,9.33711997 19.0334689,9.26916635 18.9078923,9.14629029 C18.7823157,9.02341423 18.7106992,8.8556827 18.7088,8.68 C18.7707122,8.05663958 19.1229279,7.49896469 19.6592,7.1752 C19.9904,6.8944 20.2136,6.7 20.2136,6.52 C20.1780841,6.17887959 19.8905643,5.9197409 19.5476,5.9197409 C19.2046357,5.9197409 18.9171159,6.17887959 18.8816,6.52 C18.8458784,6.86495082 18.5551955,7.1270863 18.2084,7.1270863 C17.8616045,7.1270863 17.5709216,6.86495082 17.5352,6.52 C17.5989152,5.45526964 18.4809649,4.62442525 19.5476,4.62442525 C20.6142351,4.62442525 21.4962848,5.45526964 21.56,6.52 L21.5528,6.52 Z M19.3928,9.9472 C19.215866,9.94718955 19.0462815,10.0179654 18.9218484,10.1437511 C18.7974152,10.2695368 18.7284768,10.4398764 18.7304,10.6168 C18.7264866,10.7943073 18.7947803,10.9658028 18.919647,11.0920267 C19.0445136,11.2182505 19.2152608,11.2883942 19.3928,11.2864 C19.7626099,11.2864 20.0624,10.9866099 20.0624,10.6168 C20.0624,10.2469901 19.7626099,9.9472 19.3928,9.9472 Z M4.7624,14.2456 C4.16593247,14.2456 3.6824,14.7291325 3.6824,15.3256 C3.6824,15.9220675 4.16593247,16.4056 4.7624,16.4056 L4.8488,16.4056 C5.44526753,16.4056 5.9288,15.9220675 5.9288,15.3256 C5.9288,14.7291325 5.44526753,14.2456 4.8488,14.2456 L4.7624,14.2456 Z M8.1536,14.1664 C7.57772089,14.212919 7.1340771,14.6938451 7.1340771,15.2716 C7.1340771,15.8493549 7.57772089,16.330281 8.1536,16.3768 L8.24,16.3768 C8.81587911,16.330281 9.2595229,15.8493549 9.2595229,15.2716 C9.2595229,14.6938451 8.81587911,14.212919 8.24,14.1664 L8.1536,14.1664 Z M27.9248,3.964 L27.9248,11.4592 C27.9248086,12.3152736 27.5837521,13.1360761 26.977067,13.7400588 C26.3703819,14.3440415 25.548065,14.6814303 24.692,14.6776 L15.224,14.6776 C15.1736,14.7136 15.0368,14.8432 14.9,14.9584 L14.7272,15.1168 L12.2576,17.32 C12.0562244,17.4860716 11.780739,17.5301493 11.5376,17.4352 C11.2918908,17.3341451 11.1303331,17.09606 11.1272,16.8304 L11.1272,9.7888 L4.064,9.7888 C3.01066624,9.78873351 2.15343521,10.6363327 2.1416,11.6896 L2.1416,19.1848 C2.14916632,19.6863926 2.35621065,20.1643135 2.7169584,20.5129012 C3.07770615,20.8614889 3.56244284,21.0520305 4.064,21.0424 L13.8056,21.0424 C13.9735222,21.0488884 14.1328658,21.1182799 14.252,21.2368 L16.268,23.08 L16.268,14.512 C16.268,14.1421901 16.5677901,13.8424 16.9376,13.8424 C17.3074099,13.8424 17.6072,14.1421901 17.6072,14.512 L17.6072,24.592 C17.6094072,24.8568188 17.4536709,25.0975023 17.2112,25.204 C17.1267085,25.2385967 17.0360905,25.2557407 16.9448,25.2544 C16.7772564,25.2490327 16.6168362,25.1853739 16.4912,25.0744 L13.5464,22.36 L4.064,22.36 C3.20659243,22.3696011 2.38049355,22.0381777 1.76746299,21.43865 C1.15443242,20.8391223 0.804694813,20.0206088 0.7952,19.1632 L0.7952,11.6896 C0.811027308,9.89671484 2.27104951,8.45277218 4.064,8.4568 L11.12,8.4568 L11.12,3.964 C11.1437079,2.1790679 12.603751,0.74796835 14.3888,0.76 L24.692,0.76 C25.5461531,0.754252342 26.3673996,1.0890466 26.974087,1.69032928 C27.5807745,2.29161195 27.9229042,3.10982968 27.9248,3.964 Z M12.2792,15.484 L13.6616,14.2456 L13.8488,14.0872 C14.2314671,13.6121937 14.8362182,13.3741243 15.44,13.4608 L24.8,13.4608 C25.3117784,13.4684955 25.8056468,13.2725431 26.1729306,12.9160618 C26.5402144,12.5595805 26.7508185,12.0717801 26.7584,11.56 L26.7584,3.8416 C26.7585312,3.32608313 26.5508324,2.83228152 26.1822645,2.47184379 C25.8136966,2.11140606 25.3153857,1.91477178 24.8,1.9264 L14.2592,1.9264 C13.1792,1.9264 12.2792,3.3664 12.2792,4.4392 L12.2792,15.484 Z" id="icForums" fill="#333333" fill-rule="nonzero"></path>
    </g>
</svg>