<?xml version="1.0" encoding="UTF-8"?>
<svg width="28px" height="29px" viewBox="0 0 28 29" version="1.1" xmlns="http://www.w3.org/2000/svg" xmlns:xlink="http://www.w3.org/1999/xlink">
    <!-- Generator: Sketch 52.6 (67491) - http://www.bohemiancoding.com/sketch -->
    <title>icPartiesEvents</title>
    <desc>Created with Sketch.</desc>
    <g id="Page-1" stroke="none" stroke-width="1" fill="none" fill-rule="evenodd">
        <path d="M19.356,14.4032 L27.6,6.5264 C27.7596195,6.37721607 27.8085724,6.14396987 27.7224,5.9432 C27.6323164,5.7382622 27.4278198,5.60761155 27.204,5.612 L12.7464,5.612 C12.4360637,2.56404464 9.84078402,0.263042764 6.7776,0.32 C3.54873704,0.251594363 0.873026516,2.80816976 0.7944,6.0368 C0.873026516,9.26543024 3.54873704,11.8220056 6.7776,11.7536 C7.87267601,11.7581225 8.94904533,11.4697649 9.8952,10.9184 L13.56,14.4032 C14.2041643,15.0136101 15.0265899,15.4021179 15.9072,15.512 L15.9072,26.96 L11.4,26.96 C11.1057427,26.96 10.8672,27.1985427 10.8672,27.4928 C10.8672,27.7870573 11.1057427,28.0256 11.4,28.0256 L21.48,28.0256 C21.7742573,28.0256 22.0128,27.7870573 22.0128,27.4928 C22.0128,27.1985427 21.7742573,26.96 21.48,26.96 L17.0088,26.96 L17.0088,15.512 C17.8894101,15.4021179 18.7118357,15.0136101 19.356,14.4032 Z M22.236,9.8888 L10.68,9.8888 C10.5115406,9.88799569 10.3495741,9.82372328 10.2264,9.7088 L7.3464,6.9224 C7.30468677,6.88413123 7.29085251,6.82412364 7.31160082,6.77145487 C7.33234912,6.71878609 7.38339366,6.68433682 7.44,6.6848 L25.512,6.6848 C25.5686063,6.68433682 25.6196509,6.71878609 25.6403992,6.77145487 C25.6611475,6.82412364 25.6473132,6.88413123 25.6056,6.9224 L22.7256,9.7016 C22.5941696,9.82722993 22.4177197,9.89469607 22.236,9.8888 Z M6.7776,10.688 C4.15200531,10.7403426 1.97721463,8.66206627 1.9104,6.0368 C1.97721463,3.41153373 4.15200531,1.33325742 6.7776,1.3856 C9.23796899,1.34240838 11.3316885,3.16857982 11.6232,5.612 L5.6832,5.612 C5.46198227,5.61051982 5.26105873,5.74069563 5.172,5.9432 C5.08405186,6.14249537 5.13008007,6.37551314 5.2872,6.5264 L9.0744,10.1264 C8.36320796,10.4905178 7.57656778,10.6828624 6.7776,10.688 Z M11.8752,10.9544 L21.0624,10.9544 C21.1147404,10.955692 21.1611624,10.9883498 21.1800628,11.0371757 C21.1989631,11.0860016 21.1866289,11.1414038 21.1488,11.1776 L18.6,13.6472 C17.3923287,14.7262751 15.5668713,14.7262751 14.3592,13.6472 L11.8104,11.2064 C11.7676738,11.1707976 11.7492688,11.1137737 11.7631193,11.0599107 C11.7769698,11.0060476 11.8205994,10.9649755 11.8752,10.9544 Z" id="icPartiesEvents" fill="#333333" fill-rule="nonzero"></path>
    </g>
</svg>