<?xml version="1.0" encoding="UTF-8"?>
<svg width="24px" height="24px" viewBox="0 0 24 24" version="1.1" xmlns="http://www.w3.org/2000/svg" xmlns:xlink="http://www.w3.org/1999/xlink">
    <!-- Generator: Sketch 53.2 (72643) - https://sketchapp.com -->
    <title>icSettingSmallSetting</title>
    <desc>Created with Sketch.</desc>
    <defs>
        <path d="M13.0131406,23.22 L10.2064421,23.22 C9.64586118,23.22 9.18161294,22.7998774 9.12637059,22.2431285 L8.83862471,20.5188538 C8.29800088,20.3507744 7.77274324,20.1324609 7.27089529,19.8685041 L5.82670235,20.8998591 C5.65403206,21.0429732 5.41003235,21.1304276 5.15984824,21.1304276 C4.86975,21.1304276 4.59737029,21.0172871 4.39207059,20.8119874 L2.40763324,18.8275121 C2.01129971,18.4311785 1.98060529,17.8057562 2.33550706,17.3722024 L3.35149588,15.9491047 C3.08674235,15.4464979 2.86880824,14.9208229 2.70114618,14.3817168 L0.951526765,14.0897594 C0.420502059,14.0387665 0,13.5744803 0,13.0131406 L0,10.2068594 C0,9.64627853 0.420122647,9.18203029 0.976871471,9.12637059 L2.70114618,8.83782794 C2.86956706,8.29644529 3.08788059,7.77118765 3.35111647,7.27085735 L2.32014088,5.82666441 C1.98018794,5.41420588 2.01088235,4.78882147 2.40763324,4.39282941 L4.39245,2.40763324 C4.77501088,2.02586912 5.42995147,1.99403647 5.84662147,2.33474824 L7.27165412,3.35115441 C7.771605,3.08757706 8.29686265,2.86964294 8.83862471,2.70118412 L9.12982324,0.951944118 C9.18165088,0.420122647 9.64627853,0 10.2068594,0 L13.01352,0 C13.5733421,0 14.0375903,0.419743235 14.0940088,0.976112647 L14.3821721,2.70118412 C14.9231753,2.869605 15.4484329,3.08757706 15.9487632,3.35115441 L17.3933356,2.31979941 C17.5656265,2.17706471 17.8096641,2.08995176 18.0597724,2.08995176 C18.3498706,2.08995176 18.6222503,2.20275088 18.8271706,2.40763324 L20.8116079,4.39282941 C21.2076,4.78764529 21.2393947,5.41265029 20.8852518,5.84662147 L19.8688835,7.27089529 C20.1328403,7.77122559 20.350395,8.29648324 20.5188538,8.83786588 L22.2684732,9.12986118 C22.8002568,9.18203029 23.22,9.64627853 23.22,10.2068594 L23.22,13.0131406 C23.22,13.5744803 22.7998774,14.0383491 22.2423318,14.0924153 L20.5188159,14.3805785 C20.350395,14.9223406 20.1324229,15.4480156 19.8688456,15.9483079 L20.9002006,17.3921594 C21.2397741,17.8061356 21.2079035,18.4319374 20.8111906,18.8271326 L18.8271326,20.8111906 C18.4461274,21.1925753 17.7896312,21.226305 17.3718229,20.8836962 L15.9487253,19.8680488 C15.4468394,20.1324229 14.9216197,20.3507365 14.3821341,20.5184365 L14.0897594,22.2684353 C14.0375903,22.7998774 13.5733421,23.22 13.0131406,23.22 Z M7.45362764,18.6750649 C7.51498377,18.6750649 7.57670103,18.6903765 7.63220685,18.7217943 C8.1887817,19.033697 8.78110851,19.2794418 9.39430868,19.4528896 C9.53016611,19.491241 9.63167999,19.6048144 9.65504515,19.7443166 L9.96948178,21.6345835 C9.987755,21.8105953 10.1203261,21.930019 10.2740595,21.930019 L12.9455249,21.930019 C13.0992583,21.930019 13.2314683,21.8109564 13.2464553,21.6586705 L13.5652616,19.7443166 C13.5882656,19.6051756 13.6901406,19.4916021 13.8260342,19.4532507 C14.4377176,19.280128 15.0300805,19.034347 15.5870165,18.7221193 C15.7100899,18.6527474 15.862776,18.6611616 15.9777962,18.7436784 L17.5375203,19.8578901 C17.6949372,19.9846084 17.8552793,19.9582825 17.9618852,19.8520399 L19.8510689,17.9628924 C19.9620806,17.8522802 19.9708199,17.6780379 19.8722312,17.5572059 L18.7430473,15.9784444 C18.6604928,15.8633904 18.6524757,15.7111405 18.7214878,15.5873472 C19.0333604,15.0329498 19.2787849,14.4406344 19.451911,13.8263627 C19.4902631,13.6901468 19.6038026,13.5886348 19.7436686,13.5652701 L21.634333,13.2500812 C21.8103843,13.2318083 21.9298103,13.0999981 21.9298103,12.9462315 L21.9298103,10.2752148 C21.9298103,10.1214843 21.8107455,9.98891576 21.6584566,9.97392912 L19.7440659,9.65549007 C19.6041999,9.63212535 19.4909493,9.53061343 19.4522721,9.39439749 C19.279146,8.78012575 19.0333604,8.18777423 18.7218489,7.6341713 C18.6528368,7.51034192 18.66089,7.35805597 18.7434084,7.24303801 L19.8583638,5.68258556 C19.9712172,5.5430834 19.9620806,5.36923836 19.8517912,5.25895112 L17.9626435,3.36904534 C17.8563988,3.26276657 17.6734138,3.25366625 17.5579964,3.3482446 L15.9781573,4.47776791 C15.863101,4.56032083 15.710451,4.56833778 15.5874137,4.49932701 C15.0326807,4.18782154 14.4402816,3.94204062 13.8263953,3.76819557 C13.6905379,3.73020534 13.589024,3.61627075 13.5656227,3.47676859 L13.250825,1.5865378 C13.2314683,1.40684255 13.1018224,1.29001897 12.9455249,1.29001897 L10.2740595,1.29001897 C10.117401,1.29001897 9.98811613,1.40651754 9.97276807,1.56136746 L9.65504515,3.4753241 C9.63204112,3.61482626 9.53016611,3.72839972 9.39430868,3.76675108 C8.77930286,3.94095725 8.18693993,4.18637704 7.63368748,4.49788251 C7.5095307,4.5669294 7.35724182,4.55887634 7.24254667,4.47632342 L5.6813058,3.36138951 C5.52425,3.23575451 5.36322176,3.26096095 5.25694095,3.36796196 L3.36779328,5.25710939 C3.25750392,5.36739662 3.24908957,5.54124167 3.34771441,5.66138758 L4.4765372,7.24159352 C4.55909171,7.3569726 4.56710881,7.50925855 4.49809671,7.6327268 C4.18694637,8.18636585 3.94116072,8.77868126 3.7669512,9.39331412 C3.72896024,9.52916893 3.61502346,9.63071697 3.47551861,9.65408168 L1.58525144,9.96923451 C1.40627499,9.98822962 1.28981029,10.1178731 1.28981029,10.2745648 L1.28981029,12.9455815 C1.28981029,13.1018759 1.40594997,13.2311583 1.56040564,13.2461088 L3.47515748,13.5645479 C3.61466232,13.5875876 3.72823798,13.6894606 3.76659007,13.8256404 C3.93931895,14.436626 4.18510461,15.0293386 4.49773558,15.5873472 C4.56678379,15.7107794 4.55873058,15.8627042 4.47617607,15.9777583 L3.36194296,17.5374885 C3.24800618,17.6777129 3.25674555,17.8515218 3.36739604,17.9622063 L5.25657982,19.8509926 C5.36394402,19.9579936 5.54620675,19.9674912 5.66122693,19.8717933 L7.24110214,18.7429923 C7.30462506,18.6980324 7.37912635,18.6750649 7.45362764,18.6750649 Z M11.6103794,16.2027415 C9.07727471,16.2027415 7.01649971,14.1423459 7.01649971,11.6096206 C7.01649971,9.07651588 9.07727471,7.01574088 11.6103794,7.01574088 C14.1435221,7.01574088 16.2038797,9.07651588 16.2038797,11.6096206 C16.2035003,14.1419285 14.1431047,16.2027415 11.6103794,16.2027415 Z M11.6103603,8.16922221 C9.71351488,8.16922221 8.17018971,9.71263155 8.17018971,11.6095804 C8.17018971,13.5062222 9.71348076,15.0492222 11.6103603,15.0492222 C13.5068986,15.0492222 15.0501897,13.5062222 15.0501897,11.6095804 C15.0498486,9.71259744 13.5068645,8.16922221 11.6103603,8.16922221 Z" id="path-1"></path>
    </defs>
    <g id="Page-1" stroke="none" stroke-width="1" fill="none" fill-rule="evenodd">
        <g id="Menu-Premium" transform="translate(-337.000000, -32.000000)">
            <g id="colour/dark-grey" transform="translate(337.320000, 32.320000)">
                <mask id="mask-2" fill="white">
                    <use xlink:href="#path-1"></use>
                </mask>
                <use id="icSettingSmallSetting" fill="#333333" fill-rule="nonzero" xlink:href="#path-1"></use>
            </g>
        </g>
    </g>
</svg>