<?xml version="1.0" encoding="UTF-8"?>
<svg width="25px" height="25px" viewBox="0 0 25 25" version="1.1" xmlns="http://www.w3.org/2000/svg" xmlns:xlink="http://www.w3.org/1999/xlink">
    <!-- Generator: Sketch 52.6 (67491) - http://www.bohemiancoding.com/sketch -->
    <title>icTravelSetting</title>
    <desc>Created with Sketch.</desc>
    <g id="Page-1" stroke="none" stroke-width="1" fill="none" fill-rule="evenodd">
        <path d="M24.3768,0.7536 C23.9724061,0.351302609 23.4205904,0.132658665 22.8504,0.1488 C22.1515948,0.171973901 21.4701941,0.372677394 20.8704,0.732 C20.2058199,1.09501213 19.5829193,1.52959397 19.0128,2.028 C18.9048,2.1216 18.5736,2.4384 18.0048,3.0072 C17.436,3.576 17.04,3.9576 16.6512,4.3392 C16.5783673,4.41870342 16.4664438,4.44948237 16.3632,4.4184 L5.0088,1.1352 C4.75398209,1.05735677 4.47700723,1.12660049 4.2888,1.3152 L2.3592,3.2304 C2.18982152,3.39394654 2.11110867,3.62997658 2.14841941,3.86245121 C2.18573016,4.09492583 2.33435003,4.29447037 2.5464,4.3968 L11.3592,9.12 C11.4379336,9.16542152 11.4913521,9.24458193 11.5040098,9.33459237 C11.5166676,9.4246028 11.4871529,9.51542568 11.424,9.5808 L7.0176,13.944 C6.96437134,13.993859 6.89587744,14.0243007 6.8232,14.0304 L3.1008,14.16 C2.91441491,14.1626665 2.73632788,14.2375146 2.604,14.3688 L0.7032,16.2696 C0.521534946,16.4325886 0.434807036,16.6765108 0.4728,16.9176 C0.519844902,17.1705077 0.698248081,17.3791022 0.9408,17.4648 L5.52,19.3872 C5.59201231,19.4164608 5.64913923,19.4735877 5.6784,19.5456 L7.572,24.132 C7.66056022,24.3670384 7.86520318,24.5389385 8.112,24.5856 L8.2488,24.5856 C8.44266523,24.5886391 8.62956259,24.513361 8.7672,24.3768 L10.668,22.476 C10.8055364,22.3489641 10.8881788,22.173349 10.8984,21.9864 L11.0352,18.2568 C11.039504,18.1836742 11.0702052,18.1145965 11.1216,18.0624 L15.528,13.6776 C15.5930597,13.6121151 15.6855667,13.5817844 15.7767696,13.5960349 C15.8679724,13.6102853 15.9468177,13.6673897 15.9888,13.7496 L20.64,22.5912 C20.7394643,22.8064461 20.94432,22.9539423 21.18,22.98 C21.4139367,23.0104592 21.6479549,22.9243836 21.8064,22.7496 L23.6136,20.9568 C23.8632427,20.7029238 23.9592038,20.3355301 23.8656,19.992 L20.64,8.7528 C20.6106649,8.64954198 20.6411909,8.53853838 20.7192,8.4648 L23.0232,6.24 C23.5513618,5.70441791 23.9999337,5.09581504 24.3552,4.4328 C24.5740239,4.03828631 24.7479107,3.6204749 24.8736,3.1872 C25.1672153,2.34630276 24.9765117,1.41213166 24.3768,0.7536 Z M22.6056,4.6848 L19.4376,7.932 C19.2360873,8.11238351 19.1526583,8.39048017 19.2216,8.652 L22.6776,19.8408 C22.8009151,20.2462911 22.6901123,20.6867321 22.3896,20.9856 C22.1961425,21.1755514 21.9236437,21.2617644 21.6561337,21.2176537 C21.3886237,21.173543 21.1582305,21.0044063 21.036,20.7624 L16.7952,12.3384 C16.6922175,12.1162206 16.4833674,11.9616173 16.2408,11.928 C15.9744,11.8704 15.3336,12.5472 15.132,12.7488 L10.4088,17.4504 C10.2755263,17.590854 10.1898744,17.7697154 10.164,17.9616 L9.84,21.6048 C9.8293753,21.6734382 9.79648816,21.7366828 9.7464,21.7848 L8.9184,22.5768 C8.74939813,22.7191945 8.5243648,22.7760899 8.30799382,22.7311297 C8.09162284,22.6861695 7.90788417,22.5443344 7.8096,22.3464 L6.4344,19.0488 C6.36998526,18.8468401 6.21984457,18.6835292 6.024,18.6024 L2.64,17.2056 C2.44405502,17.1225753 2.30136478,16.9486334 2.25824854,16.7402382 C2.21513231,16.5318431 2.27708654,16.3155609 2.424,16.1616 L3.252,15.2976 C3.30266829,15.2429884 3.37211092,15.209553 3.4464,15.204 L7.2408,15.0528 C7.43567839,15.0324575 7.61938415,14.9519289 7.7664,14.8224 L12.72,9.732 C12.9215127,9.55161649 13.0049417,9.27351983 12.936,9.012 C12.9023827,8.76943258 12.7477794,8.56058249 12.5256,8.4576 L4.0152,3.792 C3.8491667,3.71810732 3.73065208,3.56660464 3.69890477,3.38766528 C3.66715747,3.20872593 3.72632021,3.02569984 3.8568,2.8992 L4.08,2.64 C4.38642187,2.34208708 4.83190782,2.23694133 5.2392,2.3664 L16.4784,5.9664 C16.7399198,6.0353417 17.0180165,5.9519127 17.1984,5.7504 L18.7176,4.1592 L19.92,3.0432 L20.4096,2.5608 L20.4672,2.5608 C21.1441644,1.84075746 22.0925911,1.43839461 23.0808,1.452 C23.3328,1.452 23.5056,1.5096 23.5704,1.6248 C24.3552,2.388 23.1096,4.1808 22.6056,4.6848 Z" id="icTravelSetting" fill="#333333" fill-rule="nonzero"></path>
    </g>
</svg>