<?xml version="1.0" encoding="UTF-8"?>
<svg width="18px" height="20px" viewBox="0 0 18 20" version="1.1" xmlns="http://www.w3.org/2000/svg" xmlns:xlink="http://www.w3.org/1999/xlink">
    <!-- Generator: Sketch 52.2 (67145) - http://www.bohemiancoding.com/sketch -->
    <title>icVerifySettingDesktop</title>
    <desc>Created with Sketch.</desc>
    <g id="Verified-profile" stroke="none" stroke-width="1" fill="none" fill-rule="evenodd">
        <g id="Desktop-Edit-Profile---Verify-my-profile" transform="translate(-135.000000, -430.000000)" fill="#FFFFFF" fill-rule="nonzero">
            <g id="Group" transform="translate(135.000000, 430.000000)">
                <path d="M9.00049824,0.00724637681 C9.2764493,0.00724637681 9.54492247,0.105995852 9.75869909,0.289968366 L10.1481255,0.626089158 C10.2314649,0.696850468 10.3918628,0.822823233 10.6211422,0.98694446 C11.0049482,1.2616779 11.4421257,1.54084696 11.9241927,1.80716517 C13.2959108,2.56502983 14.8170502,3.11033529 16.3942861,3.27581421 L16.9259327,3.33157627 C17.504577,3.392571 17.9484218,3.87362217 17.9726515,4.45793872 L17.9953862,5.00343858 C18.010477,5.36918019 17.9994144,5.97158178 17.9279192,6.74752064 C17.8118423,8.00730465 17.5659315,9.3257867 17.1548204,10.6454884 C16.5972155,12.4353137 15.7882768,14.0451507 14.7497209,15.4290311 C13.4363012,17.179155 11.7607463,18.5592639 9.77362635,19.5281837 L9.50698496,19.6582703 C9.34833642,19.7355001 9.17509706,19.7753623 9.00005263,19.7753623 C8.82500821,19.7753623 8.65176885,19.7355001 8.49273031,19.6580803 L8.22655505,19.5282208 C6.23907842,18.5590039 4.56376967,17.1791092 3.25038321,15.4290295 C2.21182849,14.0451507 1.40288979,12.4353137 0.845291146,10.6455084 C0.433592594,9.32421493 0.187550641,8.00528908 0.0716786754,6.74589025 C0.000318572597,5.97028565 -0.0104835111,5.37084427 0.00472806748,5.00299503 L0.0274494104,4.45804348 C0.0516882784,3.87350621 0.4957018,3.39215406 1.0744304,3.33154915 L1.60580955,3.27581522 C3.18324078,3.11033489 4.70438885,2.56504551 6.07615508,1.8071543 C6.55837293,1.54076062 6.99568379,1.26152614 7.3793927,0.986879119 C7.60783155,0.823369625 7.77652327,0.690862363 7.84410817,0.632898439 L8.24311345,0.289386058 C8.45624545,0.10564071 8.72437749,0.00724637681 9.00049824,0.00724637681 Z M9.00049824,1.00724638 C8.96265599,1.00724638 8.92656635,1.02048991 8.89581481,1.04700127 L8.49583818,1.39134891 C8.13860353,1.69773593 7.4498502,2.19072435 6.55972858,2.68245806 C5.07974342,3.50013946 3.43627296,4.08927803 1.71013238,4.2703587 L1.17866264,4.32610213 C1.09712962,4.33464034 1.03042739,4.40695178 1.02658605,4.49958808 L1.00386707,5.04448272 C0.99040878,5.36993419 1.00041987,5.92548065 1.06747283,6.65427144 C1.17724793,7.84740412 1.41056871,9.09813725 1.80002505,10.3480472 C2.32435841,12.0310761 3.08173501,13.5383013 4.05020296,14.8287893 C5.26817259,16.4517266 6.81944162,17.729454 8.66495113,18.629439 L8.93081251,18.7591454 C8.95299194,18.7699423 8.9765469,18.7753623 9.00005263,18.7753623 C9.02355837,18.7753623 9.04711333,18.7699423 9.06890276,18.7593355 L9.33525279,18.6293909 C11.1804006,17.7296967 12.7319024,16.4517669 13.9499012,14.8287908 C14.9183703,13.5383013 15.6757469,12.0310761 16.2000771,10.3480573 C16.5889521,9.09973542 16.8221586,7.84936926 16.9321372,6.65576903 C16.9993262,5.92656619 17.0095819,5.36810685 16.9962449,5.04487187 L16.9735145,4.49947464 C16.96968,4.40700287 16.9029652,4.33469552 16.8213616,4.32609365 L16.2899573,4.27035707 C14.564008,4.08927558 12.9205522,3.50012152 11.4406137,2.6824659 C10.9228686,2.39643729 10.4531873,2.09651221 10.0390818,1.80009005 C9.78759999,1.62007604 9.61134503,1.48164948 9.50225688,1.38947636 L9.1059245,1.0475203 C9.07485191,1.02077983 9.03805809,1.00724638 9.00049824,1.00724638 Z M4.31076923,10.5101449 C4.23692308,10.4371014 4.2,10.3275362 4.2,10.2544928 C4.2,10.1814493 4.23692308,10.0718841 4.31076923,9.99884058 L4.82769231,9.48753623 C4.97538462,9.34144928 5.19692308,9.34144928 5.34461538,9.48753623 L5.38153846,9.52405797 L7.41230769,11.6788406 C7.48615385,11.7518841 7.59692308,11.7518841 7.67076923,11.6788406 L12.6184615,6.60231884 L12.6553846,6.60231884 C12.8030769,6.45623188 13.0246154,6.45623188 13.1723077,6.60231884 L13.6892308,7.11362319 C13.8369231,7.25971014 13.8369231,7.47884058 13.6892308,7.62492754 L7.78153846,13.6875362 C7.70769231,13.7605797 7.63384615,13.7971014 7.52307692,13.7971014 C7.41230769,13.7971014 7.33846154,13.7605797 7.26461538,13.6875362 L4.38461538,10.6197101 L4.31076923,10.5101449 Z" id="icVerifySettingDesktop"></path>
            </g>
        </g>
    </g>
</svg>