<?xml version="1.0" encoding="UTF-8"?>
<svg width="42px" height="42px" viewBox="0 0 42 42" version="1.1" xmlns="http://www.w3.org/2000/svg" xmlns:xlink="http://www.w3.org/1999/xlink">
    <!-- Generator: Sketch 50.2 (55047) - http://www.bohemiancoding.com/sketch -->
    <title>Group 14</title>
    <desc>Created with Sketch.</desc>
    <defs>
        <path d="M10.2072667,16.8010139 C11.3738111,17.07822 12.2426,18.1319101 12.2426,19.386897 C12.2426,20.6425704 11.3732814,21.6956263 10.2072667,21.97276 L10.2072667,26.3362909 C10.2072667,26.6749419 9.93389172,26.9494727 9.59666667,26.9494727 C9.25944161,26.9494727 8.98606667,26.6749419 8.98606667,26.3362909 L8.98606667,21.9727801 C7.81952221,21.695574 6.95073333,20.6418839 6.95073333,19.386897 C6.95073333,18.1312235 7.82005196,17.0781676 8.98606667,16.8010339 L8.98606667,9.98477576 C8.98606667,9.6461248 9.25944161,9.37159394 9.59666667,9.37159394 C9.93389172,9.37159394 10.2072667,9.6461248 10.2072667,9.98477576 L10.2072667,16.8010139 Z M8.17193333,19.386897 C8.17193333,20.1756854 8.81070365,20.8176545 9.59666667,20.8176545 C10.3821338,20.8176545 11.0214,20.1761833 11.0214,19.386897 C11.0214,18.5981086 10.3826297,17.9561394 9.59666667,17.9561394 C8.8111995,17.9561394 8.17193333,18.5976106 8.17193333,19.386897 Z" id="path-1"></path>
        <path d="M10.2072667,3.34199569 C11.3738111,3.61920178 12.2426,4.67289191 12.2426,5.92787879 C12.2426,7.18355223 11.3732814,8.23660816 10.2072667,8.51374185 L10.2072667,19.0090909 C10.2072667,19.3477419 9.93389172,19.6222727 9.59666667,19.6222727 C9.25944161,19.6222727 8.98606667,19.3477419 8.98606667,19.0090909 L8.98606667,8.51376189 C7.81952221,8.23655579 6.95073333,7.18286567 6.95073333,5.92787879 C6.95073333,4.67220535 7.82005196,3.61914942 8.98606667,3.34201572 L8.98606667,2.65757576 C8.98606667,2.3189248 9.25944161,2.04439394 9.59666667,2.04439394 C9.93389172,2.04439394 10.2072667,2.3189248 10.2072667,2.65757576 L10.2072667,3.34199569 Z M8.17193333,5.92787879 C8.17193333,6.71666717 8.81070365,7.35863636 9.59666667,7.35863636 C10.3821338,7.35863636 11.0214,6.71716512 11.0214,5.92787879 C11.0214,5.1390904 10.3826297,4.49712121 9.59666667,4.49712121 C8.8111995,4.49712121 8.17193333,5.13859246 8.17193333,5.92787879 Z" id="path-3"></path>
        <path d="M10.2072667,5.82570478 C11.3738111,6.10291087 12.2426,7.156601 12.2426,8.41158788 C12.2426,9.66726132 11.3732814,10.7203173 10.2072667,10.9974509 L10.2072667,11.6818909 C10.2072667,12.0205419 9.93389172,12.2950727 9.59666667,12.2950727 C9.25944161,12.2950727 8.98606667,12.0205419 8.98606667,11.6818909 L8.98606667,10.997471 C7.81952221,10.7202649 6.95073333,9.66657476 6.95073333,8.41158788 C6.95073333,7.15591444 7.82005196,6.10285851 8.98606667,5.82572481 L8.98606667,-4.66962424 C8.98606667,-5.0082752 9.25944161,-5.28280606 9.59666667,-5.28280606 C9.93389172,-5.28280606 10.2072667,-5.0082752 10.2072667,-4.66962424 L10.2072667,5.82570478 Z M8.17193333,8.41158788 C8.17193333,9.20037626 8.81070365,9.84234545 9.59666667,9.84234545 C10.3821338,9.84234545 11.0214,9.20087421 11.0214,8.41158788 C11.0214,7.6227995 10.3826297,6.9808303 9.59666667,6.9808303 C8.8111995,6.9808303 8.17193333,7.62230155 8.17193333,8.41158788 Z" id="path-5"></path>
    </defs>
    <g id="Page-1" stroke="none" stroke-width="1" fill="none" fill-rule="evenodd">
        <g id="Group-14" transform="translate(1.000000, 1.000000)">
            <circle id="Oval" stroke="#A5A5A5" stroke-width="2" cx="20" cy="20" r="20"></circle>
            <g id="Icons/Filters" transform="translate(10.333333, 9.333333)">
                <mask id="mask-2" fill="white">
                    <use xlink:href="#path-1"></use>
                </mask>
                <use id="Mask" fill="#A5A5A5" fill-rule="nonzero" transform="translate(9.596667, 18.160533) rotate(-270.000000) translate(-9.596667, -18.160533) " xlink:href="#path-1"></use>
                <mask id="mask-4" fill="white">
                    <use xlink:href="#path-3"></use>
                </mask>
                <use id="Mask" fill="#A5A5A5" fill-rule="nonzero" transform="translate(9.596667, 10.833333) rotate(-270.000000) translate(-9.596667, -10.833333) " xlink:href="#path-3"></use>
                <mask id="mask-6" fill="white">
                    <use xlink:href="#path-5"></use>
                </mask>
                <use id="Mask" fill="#A5A5A5" fill-rule="nonzero" transform="translate(9.596667, 3.506133) rotate(-270.000000) translate(-9.596667, -3.506133) " xlink:href="#path-5"></use>
            </g>
        </g>
    </g>
</svg>