<?xml version="1.0" encoding="UTF-8"?>
<svg width="21px" height="21px" viewBox="0 0 21 21" version="1.1" xmlns="http://www.w3.org/2000/svg" xmlns:xlink="http://www.w3.org/1999/xlink">
    <!-- Generator: Sketch 58 (84663) - https://sketch.com -->
    <title>icDateFinderDesktop</title>
    <desc>Created with Sketch.</desc>
    <g id="Page-1" stroke="none" stroke-width="1" fill="none" fill-rule="evenodd">
        <path d="M18.8992,2.36 C19.5487938,2.36 20.08,2.92759494 20.08,3.60332152 L20.08,19.3713013 C20.08,20.0470278 19.5487938,20.6 18.8992,20.6 L1.5808,20.6 C0.93120625,20.6 0.4,20.0470278 0.4,19.3713013 L0.4,3.60332152 C0.4,2.92759494 0.93120625,2.36 1.5808,2.36 L3.7825,2.36 L3.7825,5.12139747 C3.7825,6.02493165 4.50128125,6.74683544 5.3692,6.74683544 L5.8612,6.74683544 C6.72911875,6.74683544 7.4340625,6.02454684 7.4340625,5.12139747 L7.4340625,2.36 L13.3534375,2.36 L13.3534375,5.12139747 C13.3534375,6.02493165 14.0453125,6.74683544 14.914,6.74683544 L15.406,6.74683544 C16.2746875,6.74683544 16.9665625,6.02454684 16.9665625,5.12139747 L16.9665625,2.36 L18.8992,2.36 Z M18.4271875,18.0410127 L18.4271875,9.19037975 C18.4257103,8.71281294 18.0393705,8.32603583 17.5623438,8.32455696 L2.91765625,8.32455696 C2.44062945,8.32603583 2.0542897,8.71281294 2.0528125,9.19037975 L2.0528125,18.0410127 C2.0542897,18.5185795 2.44062945,18.9053566 2.91765625,18.9068354 L17.5623438,18.9068354 C18.0393705,18.9053566 18.4257103,18.5185795 18.4271875,18.0410127 Z M5.47758644,6.2 C5.06429831,6.2 4.72,5.76656716 4.72,5.24526567 L4.72,1.86370149 C4.72,1.34318806 5.06429831,0.92 5.47758644,0.92 L5.89412881,0.92 C6.30741695,0.92 6.64,1.34318806 6.64,1.86370149 L6.64,5.24487164 C6.64,5.76656716 6.30741695,6.2 5.89412881,6.2 L5.47758644,6.2 Z M14.8660327,6.2 C14.4456189,6.2 14.1178947,5.76656716 14.1178947,5.24487164 L14.1178947,1.86330746 C14.1178947,1.34318806 14.4456189,0.92 14.8660327,0.92 L15.2897568,0.92 C15.7101706,0.92 16.0378947,1.34318806 16.0378947,1.86330746 L16.0378947,5.24487164 C16.0378947,5.76656716 15.7101706,6.2 15.2897568,6.2 L14.8660327,6.2 Z M3.76,10.04 L7.12,10.04 L7.12,13.04 L3.76,13.04 L3.76,10.04 Z M3.76,14.24 L7.12,14.24 L7.12,17.24 L3.76,17.24 L3.76,14.24 Z M8.64727273,10.04 L12.0072727,10.04 L12.0072727,13.04 L8.64727273,13.04 L8.64727273,10.04 Z M8.64727273,14.24 L12.0072727,14.24 L12.0072727,17.24 L8.64727273,17.24 L8.64727273,14.24 Z M13.84,10.04 L17.2,10.04 L17.2,13.04 L13.84,13.04 L13.84,10.04 Z M13.84,14.24 L17.2,14.24 L17.2,17.24 L13.84,17.24 L13.84,14.24 Z" id="icDateFinderDesktop" fill="#333333" fill-rule="nonzero"></path>
    </g>
</svg>