<?xml version="1.0" encoding="UTF-8"?>
<svg width="124px" height="124px" viewBox="0 0 124 124" version="1.1" xmlns="http://www.w3.org/2000/svg" xmlns:xlink="http://www.w3.org/1999/xlink">
    <!-- Generator: Sketch 55.2 (78181) - https://sketchapp.com -->
    <title>icExpandSearchDesktop</title>
    <desc>Created with Sketch.</desc>
    <g id="RHP-Search--Desktop-v2" stroke="none" stroke-width="1" fill="none" fill-rule="evenodd">
        <path d="M62,124 C27.7583455,124 0,96.2416545 0,62 C0,27.7583455 27.7583455,0 62,0 C96.2416545,0 124,27.7583455 124,62 C124,96.2416545 96.2416545,124 62,124 Z M62,120 C94.0325155,120 120,94.0325155 120,62 C120,29.9674845 94.0325155,4 62,4 C29.9674845,4 4,29.9674845 4,62 C4,94.0325155 29.9674845,120 62,120 Z M78.12,68.535 C78.12,67.5478604 78.8545431,66.76 79.7606485,66.76 L93.5193515,66.76 C94.4298922,66.76 95.16,67.554695 95.16,68.535 C95.16,69.5221396 94.4254569,70.31 93.5193515,70.31 L79.7606485,70.31 C78.8501078,70.31 78.12,69.515305 78.12,68.535 Z M63.92,78.83 C63.92,77.8428604 64.6969206,77.055 65.6553013,77.055 L93.4246987,77.055 C94.3877706,77.055 95.16,77.849695 95.16,78.83 C95.16,79.8171396 94.3830794,80.605 93.4246987,80.605 L65.6553013,80.605 C64.6922294,80.605 63.92,79.810305 63.92,78.83 Z M54.3551074,89.125 C54.3551074,88.1378604 55.0394371,87.35 56.3463199,87.35 L93.2050732,87.35 C94.5183531,87.35 95.2310693,88.144695 95.2310693,89.125 C95.2310693,90.1121396 94.511956,90.9 93.2050732,90.9 L56.3463199,90.9 C55.03304,90.9 54.3551074,90.105305 54.3551074,89.125 Z M74.2298496,55.8207339 C70.5517111,65.3716211 60.0686089,70.4022008 50.3167053,67.2960564 L41.8352534,89.3924945 C41.6159577,89.9605709 40.6946957,91.0435591 38.9963587,90.6564519 C37.2980217,90.2693446 37.3930673,88.1119868 37.6101954,87.5430783 L46.0916406,65.4466795 C38.7951454,61.349747 34.3202561,50.5793762 38.4425939,41.2920989 C42.5649317,32.0048216 53.7115714,27.0420178 63.4626843,31.0006996 C73.2137972,34.9593815 78.0014851,45.9957662 74.2298496,55.8207339 Z M44.5879631,37.8810025 C40.1323154,42.5763591 38.9438265,49.4935303 41.5766891,55.4070366 C44.2095518,61.3205429 50.1452661,65.0658144 56.6160062,64.8964297 C63.0867463,64.7270449 68.8182041,60.6763614 71.1377987,54.6332145 C72.6727244,50.6715783 72.5640994,46.2612909 70.8360116,42.3799422 C69.1079238,38.4985934 65.9031132,35.46682 61.9319753,33.9566474 C55.8889491,31.6367791 49.0436107,33.185646 44.5879631,37.8810025 Z" id="icExpandSearchDesktop" fill="#A5A5A5" fill-rule="nonzero"></path>
    </g>
</svg>