<?xml version="1.0" encoding="utf-8"?>
<!-- Generator: Adobe Illustrator 20.1.0, SVG Export Plug-In . SVG Version: 6.00 Build 0)  -->
<svg version="1.1" id="Layer_1" xmlns="http://www.w3.org/2000/svg" xmlns:xlink="http://www.w3.org/1999/xlink" x="0px" y="0px"
	 viewBox="0 0 16 12" style="enable-background:new 0 0 16 12;" xml:space="preserve">
<style type="text/css">
	.st0{fill:#FFFFFF;}
</style>
<path id="path-1_1_" class="st0" d="M0.2,6.6C0.1,6.5,0,6.3,0,6.2c0-0.1,0.1-0.3,0.2-0.4L1,4.9c0.2-0.2,0.6-0.2,0.9,0L2,5l3.4,3.5
	c0.1,0.1,0.3,0.1,0.4,0L14,0.2h0.1c0.2-0.2,0.6-0.2,0.9,0L15.8,1c0.2,0.2,0.2,0.6,0,0.8L6,11.8C5.8,11.9,5.7,12,5.5,12
	c-0.2,0-0.3-0.1-0.4-0.2l-4.8-5L0.2,6.6z"/>
</svg>
