<?xml version="1.0" encoding="UTF-8"?>
<svg width="20px" height="20px" viewBox="0 0 20 20" version="1.1" xmlns="http://www.w3.org/2000/svg" xmlns:xlink="http://www.w3.org/1999/xlink">
    <!-- Generator: Sketch 58 (84663) - https://sketch.com -->
    <title>icTravelPlanDesktop</title>
    <desc>Created with Sketch.</desc>
    <g id="Page-1" stroke="none" stroke-width="1" fill="none" fill-rule="evenodd">
        <path d="M17.795801,18.157722 L16.177128,6.8527506 C16.133963,6.5297515 16.285039,6.0990859 16.522445,5.8622198 L17.32099,5.1085551 L17.342572,5.0870218 L19.37131,3.19209325 C19.392892,3.17055997 19.414474,3.14902669 19.436057,3.12749341 C20.040361,2.48149505 20.277767,1.08183193 19.543968,0.39276701 C18.831752,-0.29629792 17.428902,0.00516799 16.824597,0.65116635 L14.14839,3.53662571 C13.932567,3.77349178 13.479339,3.92422473 13.155604,3.88115817 L1.846473,2.26616226 C1.522738,2.2230957 1.091092,2.39536193 0.896851,2.632228 L0.119888,3.57969227 C-0.095935,3.83809161 -0.009606,4.1180242 0.292547,4.2472239 L9.486611,7.7356151 C9.788763,7.8432815 9.85351,8.1447474 9.637687,8.3816134 L5.688124,12.5806028 C5.64496,12.6021361 5.580213,12.6021361 5.537048,12.6021361 L1.112674,12.6452026 C0.940016,12.6452026 0.78894,12.7744023 0.767357,12.9466685 L0.551534,14.0448658 C0.529952,14.1955987 0.616281,14.3893982 0.767357,14.4324648 L4.004704,15.6383284 C4.15578,15.7029282 4.328439,15.8751945 4.371603,16.0259274 L5.580213,19.2559192 C5.64496,19.4066522 5.817618,19.5143186 5.968694,19.471252 L7.069392,19.2559192 C7.220468,19.234386 7.349962,19.0621197 7.371545,18.9113868 L7.414709,14.4755313 C7.414709,14.4324648 7.414709,14.3893982 7.436292,14.3247984 L9.810346,12.1068707 L9.831928,12.0853374 L11.666425,10.3626751 C11.90383,10.1473423 12.1844,10.2119421 12.313894,10.513408 L15.810228,19.7081181 C15.91814,20.009584 16.220292,20.0957171 16.47928,19.8803843 L17.428902,19.1051863 C17.666307,18.9113868 17.838966,18.4807212 17.795801,18.157722" id="icTravelPlanDesktop" fill="#333333" fill-rule="nonzero"></path>
    </g>
</svg>