<?xml version="1.0" encoding="UTF-8"?>
<svg width="87px" height="44px" viewBox="0 0 87 44" version="1.1" xmlns="http://www.w3.org/2000/svg" xmlns:xlink="http://www.w3.org/1999/xlink">
    <!-- Generator: Sketch 50.2 (55047) - http://www.bohemiancoding.com/sketch -->
    <title>meter copy</title>
    <desc>Created with Sketch.</desc>
    <defs></defs>
    <g id="RHP-Search--Desktop-v2" stroke="none" stroke-width="1" fill="none" fill-rule="evenodd">
        <g id="meter-copy" fill="#7BCB45" fill-rule="nonzero">
            <path d="M76.3846406,14.0417971 C77.251582,13.1274445 78.0590508,12.1558921 78.8012695,11.127309 C78.8061973,11.1205397 78.8109551,11.1137705 78.8157129,11.1068321 C80.7888457,8.25563617 80.3975156,4.42967246 77.8850508,2.00950672 C75.1035996,-0.669920187 70.5782402,-0.669750957 67.7967891,2.00950672 L67.5937324,2.20496797 L67.3908457,2.00950672 C64.6095645,-0.669750957 60.0840352,-0.669750957 57.302584,2.00950672 C57.2928984,2.0188144 57.2838926,2.02862977 57.274377,2.03793745 C53.1520723,0.785970021 48.8525391,0.149663246 44.4894551,0.149663246 L42.5102051,0.149663246 C31.163332,0.149663246 20.4934277,4.40834941 12.4659785,12.1409998 C4.42731445,19.8849886 0,30.1841892 0,41.1416964 C0,41.8428185 0.570597656,42.4110946 1.27441406,42.4110946 L14.4149824,42.4110946 C15.1187988,42.4110946 15.6893965,41.8428185 15.6893965,41.1416964 C15.6893965,40.4405744 15.1187988,39.8722983 14.4149824,39.8722983 L2.57023828,39.8722983 C3.26810742,19.253928 20.9165332,2.68862881 42.5102051,2.68862881 L44.4894551,2.68862881 C48.3205137,2.68862881 52.0983867,3.20935114 55.7362441,4.23404197 C55.1940234,5.44319407 55.0059199,6.77503831 55.1872266,8.07591335 C51.7356035,7.03413024 48.1471934,6.50528485 44.4894551,6.50528485 L42.5100352,6.50528485 C25.3455469,6.50528485 10.5178242,18.2942217 7.25277539,34.5367983 C7.17783984,34.9097823 7.27469531,35.2964741 7.51666406,35.590766 C7.75880273,35.8848886 8.12056641,36.055473 8.50238086,36.055473 L38.5386211,36.055473 C39.3654609,37.9224242 41.2777617,39.2332838 43.4998301,39.2332838 C46.3429629,39.2332838 48.6781992,37.0872715 48.8817656,34.3760293 L60.2848828,21.8221704 C61.3575996,20.6409414 61.2964277,18.8474363 60.1455469,17.7386379 C59.0267812,16.6608087 57.2184727,16.6020857 56.0286797,17.6049458 L42.7443574,28.8022527 C40.2833789,29.1385137 38.3505176,31.0916032 38.1250312,33.5165074 L10.0969277,33.5165074 C13.7167734,19.2456357 27.0974414,9.04408119 42.5100352,9.04408119 L44.4894551,9.04408119 C48.5910293,9.04408119 52.598127,9.75518785 56.3992793,11.157432 C56.4033574,11.1589551 56.4074355,11.1598012 56.4115137,11.1613243 C58.6143809,14.2047661 61.3768008,16.7591316 64.6231582,18.7536826 L66.354832,19.8174656 C66.731209,20.0486345 67.1623008,20.1643882 67.5937324,20.164219 C68.0249941,20.164219 68.4562559,20.0486345 68.8324629,19.8174656 L69.1921875,19.5964506 C72.9433828,23.5725218 75.5882168,28.3471918 76.9022227,33.5166767 L52.3245527,33.5166767 C51.6207363,33.5166767 51.0501387,34.0849528 51.0501387,34.7860748 C51.0501387,35.4871969 51.6207363,36.055473 52.3245527,36.055473 L78.4974492,36.055473 C78.8792637,36.055473 79.2410273,35.8848886 79.483166,35.590766 C79.7251348,35.2964741 79.8221602,34.9097823 79.7470547,34.5367983 C78.5293945,28.4790224 75.6488789,22.862092 71.3936953,18.2224679 C72.5087227,17.4852998 73.5641074,16.6809471 74.5539023,15.8092407 C80.6537578,22.506031 84.1276406,30.9753419 84.4295918,39.8722983 L48.7130332,39.8722983 C48.4573008,39.8722983 48.2075156,39.9489597 47.9961328,40.0921287 C46.6748203,40.9876967 45.1200352,41.4612037 43.5001699,41.4612037 C41.8803047,41.4612037 40.3253496,40.9878659 39.004207,40.0921287 C38.7928242,39.9487905 38.5430391,39.8722983 38.2873066,39.8722983 L18.8127305,39.8722983 C18.1089141,39.8722983 17.5383164,40.4405744 17.5383164,41.1416964 C17.5383164,41.8428185 18.1089141,42.4110946 18.8127305,42.4110946 L37.9082109,42.4110946 C39.5782031,43.4518623 41.5027383,44 43.5,44 C45.4972617,44 47.4217969,43.4518623 49.0917891,42.4110946 L85.7255859,42.4110946 C86.4294023,42.4110946 87,41.8428185 87,41.1416964 C87,31.1217263 83.2364004,21.5334632 76.3846406,14.0417971 Z M57.6753926,19.543143 C57.874541,19.3754355 58.187707,19.384574 58.3739414,19.5639583 C58.5362168,19.7203273 58.5450527,19.9536962 58.3950117,20.1190344 L48.1728516,31.3725259 C47.6658047,30.5229887 46.921207,29.8235589 46.0267383,29.3615596 L57.6753926,19.543143 Z M43.5,31.2887568 C45.0710977,31.2887568 46.34925,32.5012935 46.34925,33.9915375 C46.34925,35.4819507 45.0710977,36.6944875 43.5,36.6944875 C41.9289023,36.6944875 40.65075,35.4819507 40.65075,33.9915375 C40.65075,32.5012935 41.9289023,31.2887568 43.5,31.2887568 Z M69.2266816,16.5924395 L67.5942422,17.5952996 L65.9614629,16.5926088 C62.9947969,14.769996 60.4721367,12.4361378 58.4638301,9.65601877 C57.2086172,7.83205217 57.4645195,5.38548646 59.0746992,3.8344887 C60.8790996,2.09632198 63.8148398,2.09649121 65.6190703,3.8344887 L65.9587441,4.16144208 C66.8605195,5.03010236 68.3277949,5.03010236 69.2294004,4.16144208 L69.5690742,3.83431947 C71.3734746,2.09615275 74.3092148,2.09632198 76.1134453,3.83431947 C77.723625,5.38531723 77.9795273,7.83188294 76.7243145,9.65584954 C74.7160078,12.4359686 72.1933477,14.7698268 69.2266816,16.5924395 Z" id="Shape"></path>
            <path d="M44.4487731,13 L42.8128809,13 C36.7780947,13 30.9577242,14.6563387 25.9809984,17.7896506 C21.1037795,20.8603242 17.3460556,25.1363056 15.1139877,30.1552229 C14.8206589,30.8147573 15.1129494,31.5892741 15.7670986,31.8850177 C15.9394617,31.9631847 16.1197854,32 16.2973402,32 C16.7931438,31.9998255 17.2664501,31.7119335 17.4824232,31.2263557 C21.699436,21.7445888 31.6421581,15.6177235 42.8127078,15.6177235 L44.4486001,15.6177235 C47.1413413,15.6177235 49.8024134,15.9768033 52.3579218,16.6848432 C53.0489318,16.8764222 53.7634773,16.4665687 53.953319,15.7696956 C54.1431608,15.072648 53.7368268,14.3523945 53.0456437,14.1608155 C50.2662018,13.3906607 47.3735816,13.0001745 44.4487731,13 Z" id="Shape"></path>
            <path d="M69.6268344,31.2126827 C69.8333042,31.7070199 70.285784,32 70.7597711,32 C70.9293477,32 71.1017367,31.9623565 71.2666809,31.8829855 C71.8918806,31.5820151 72.1714751,30.7938099 71.8910534,30.1226193 C70.5322904,26.870363 68.5837319,23.925647 66.0991461,21.3701505 C65.6043135,20.861253 64.8189673,20.8793645 64.3448148,21.4104575 C63.8708277,21.9415505 63.8875372,22.7848003 64.3823698,23.2936978 C66.6351734,25.6107262 68.3995966,28.2748916 69.6268344,31.2126827 Z" id="Shape"></path>
        </g>
    </g>
</svg>