<?xml version="1.0" encoding="UTF-8"?>
<svg width="54px" height="11px" viewBox="0 0 54 11" version="1.1" xmlns="http://www.w3.org/2000/svg" xmlns:xlink="http://www.w3.org/1999/xlink">
    <!-- Generator: Sketch 58 (84663) - https://sketch.com -->
    <title>toggleDiscoverBlack</title>
    <desc>Created with Sketch.</desc>
    <g id="RHP-Search--Desktop-v2" stroke="none" stroke-width="1" fill="none" fill-rule="evenodd">
        <g id="Discover-Grid-&amp;-Swipe-mode" transform="translate(-41.000000, -184.000000)" fill="#535353" fill-rule="nonzero">
            <path d="M66.614,184 C67.3140035,184 67.9603304,184.104999 68.553,184.315 C69.1456696,184.525001 69.6519979,184.825998 70.072,185.218 L69.554,186.296 C69.0779976,185.903998 68.6113356,185.624001 68.154,185.456 C67.6966644,185.287999 67.1880028,185.204 66.628,185.204 C65.5453279,185.204 64.7216695,185.53533 64.157,186.198 C63.5923305,186.86067 63.31,187.821994 63.31,189.082 C63.31,190.37934 63.5993304,191.361663 64.178,192.029 C64.7566696,192.696337 65.610661,193.03 66.74,193.03 C67.4960038,193.03 68.2239965,192.918001 68.924,192.694 L68.924,189.894 L66.6,189.894 L66.6,188.788 L70.24,188.788 L70.24,193.492 C69.8199979,193.706668 69.2903365,193.876999 68.651,194.003 C68.0116635,194.129001 67.36067,194.192 66.698,194.192 C65.689995,194.192 64.817337,193.989002 64.08,193.583 C63.342663,193.176998 62.7803353,192.591337 62.393,191.826 C62.0056647,191.060663 61.812,190.146005 61.812,189.082 C61.812,188.036661 62.0056647,187.131337 62.393,186.366 C62.7803353,185.600663 63.3356631,185.015002 64.059,184.609 C64.782337,184.202998 65.6339951,184 66.614,184 Z M76.554,184.112 C77.6460055,184.112 78.4836638,184.354664 79.067,184.84 C79.6503363,185.325336 79.942,186.020662 79.942,186.926 C79.942,187.579337 79.7693351,188.134664 79.424,188.592 C79.0786649,189.049336 78.5886698,189.371332 77.954,189.558 C78.5326696,189.660667 78.9526654,190.07133 79.214,190.79 L80.446,194.08 L78.92,194.08 L77.674,190.762 C77.5433327,190.407332 77.3520013,190.162334 77.1,190.027 C76.8479987,189.891666 76.5026689,189.824 76.064,189.824 L73.88,189.824 L73.88,194.08 L72.452,194.08 L72.452,184.112 L76.554,184.112 Z M83.652,184.112 L83.652,194.08 L82.21,194.08 L82.21,184.112 L83.652,184.112 Z M89.462,184.112 C91.0766747,184.112 92.3273289,184.545996 93.214,185.414 C94.1006711,186.282004 94.544,187.504659 94.544,189.082 C94.544,190.668675 94.1006711,191.898329 93.214,192.771 C92.3273289,193.643671 91.0766747,194.08 89.462,194.08 L85.976,194.08 L85.976,184.112 L89.462,184.112 Z M45.5454545,189.534545 L45.5454545,194.08 L41,194.08 L41,189.534545 L45.5454545,189.534545 Z M51,189.534545 L51,194.08 L46.4545455,194.08 L46.4545455,189.534545 L51,189.534545 Z M89.378,185.316 L87.418,185.316 L87.418,192.876 L89.378,192.876 C91.8326789,192.876 93.06,191.611346 93.06,189.082 C93.06,186.571321 91.8326789,185.316 89.378,185.316 Z M76.386,185.274 L73.88,185.274 L73.88,188.662 L76.386,188.662 C77.1140036,188.662 77.6553316,188.519668 78.01,188.235 C78.3646684,187.950332 78.542,187.523336 78.542,186.954 C78.542,186.384664 78.3670018,185.962335 78.017,185.687 C77.6669983,185.411665 77.123337,185.274 76.386,185.274 Z M45.5454545,184.08 L45.5454545,188.625455 L41,188.625455 L41,184.08 L45.5454545,184.08 Z M51,184.08 L51,188.625455 L46.4545455,188.625455 L46.4545455,184.08 L51,184.08 Z" id="toggleDiscoverBlack"></path>
        </g>
    </g>
</svg>