<?xml version="1.0" encoding="UTF-8"?>
<svg width="60px" height="11px" viewBox="0 0 60 11" version="1.1" xmlns="http://www.w3.org/2000/svg" xmlns:xlink="http://www.w3.org/1999/xlink">
    <!-- Generator: Sketch 58 (84663) - https://sketch.com -->
    <title>toggleSwipeBlack</title>
    <desc>Created with Sketch.</desc>
    <g id="RHP-Search--Desktop-v2" stroke="none" stroke-width="1" fill="none" fill-rule="evenodd">
        <g id="Discover-Grid-&amp;-Swipe-mode" transform="translate(-33.000000, -140.000000)" fill="#535353" fill-rule="nonzero">
            <path d="M37.732,140 C38.4133367,140 39.0456637,140.104999 39.629,140.315 C40.2123362,140.525001 40.7046647,140.830665 41.106,141.232 L40.602,142.296 C40.135331,141.913331 39.6756689,141.635668 39.223,141.463 C38.7703311,141.290332 38.2780027,141.204 37.746,141.204 C36.7099948,141.204 35.9096695,141.539997 35.345,142.212 C34.7803305,142.884003 34.498,143.84066 34.498,145.082 C34.498,146.332673 34.7803305,147.29633 35.345,147.973 C35.9096695,148.64967 36.7099948,148.988 37.746,148.988 C38.2780027,148.988 38.7703311,148.901668 39.223,148.729 C39.6756689,148.556332 40.135331,148.278669 40.602,147.896 L41.106,148.96 C40.7046647,149.361335 40.2123362,149.666999 39.629,149.877 C39.0456637,150.087001 38.4133367,150.192 37.732,150.192 C36.7706619,150.192 35.9330036,149.984335 35.219,149.569 C34.5049964,149.153665 33.9566686,148.563337 33.574,147.798 C33.1913314,147.032663 33,146.127339 33,145.082 C33,144.045995 33.1913314,143.145337 33.574,142.38 C33.9566686,141.614663 34.5049964,141.026669 35.219,140.616 C35.9330036,140.205331 36.7706619,140 37.732,140 Z M89.3938824,140.08 C90.9134902,140.08 92.188,141.44612 92.188,143.194754 C92.188,145.599126 87.188,150.08 87.188,150.08 C87.188,150.08 82.188,145.65377 82.188,143.194754 C82.188,141.44612 83.4134902,140.08 84.9821176,140.08 C85.8644706,140.08 86.6978039,140.571803 87.188,141.336831 C87.6781961,140.571803 88.5115294,140.08 89.3938824,140.08 Z M47.336,140.112 L51.788,150.08 L50.318,150.08 L49.254,147.616 L44.214,147.616 L43.15,150.08 L41.68,150.08 L46.118,140.112 L47.336,140.112 Z M57.178,140.112 C58.2700055,140.112 59.1076637,140.354664 59.691,140.84 C60.2743362,141.325336 60.566,142.020662 60.566,142.926 C60.566,143.579337 60.3933351,144.134664 60.048,144.592 C59.7026649,145.049336 59.2126698,145.371332 58.578,145.558 C59.1566696,145.660667 59.5766654,146.07133 59.838,146.79 L61.07,150.08 L59.544,150.08 L58.298,146.762 C58.1673327,146.407332 57.9760013,146.162334 57.724,146.027 C57.4719987,145.891666 57.1266689,145.824 56.688,145.824 L54.504,145.824 L54.504,150.08 L53.076,150.08 L53.076,140.112 L57.178,140.112 Z M66.32,140.112 C67.9346747,140.112 69.1853289,140.545996 70.072,141.414 C70.9586711,142.282004 71.402,143.504659 71.402,145.082 C71.402,146.668675 70.9586711,147.898329 70.072,148.771 C69.1853289,149.643671 67.9346747,150.08 66.32,150.08 L62.834,150.08 L62.834,140.112 L66.32,140.112 Z M66.236,141.316 L64.276,141.316 L64.276,148.876 L66.236,148.876 C68.6906789,148.876 69.918,147.611346 69.918,145.082 C69.918,142.571321 68.6906789,141.316 66.236,141.316 Z M46.734,141.722 L44.704,146.468 L48.764,146.468 L46.734,141.722 Z M57.01,141.274 L54.504,141.274 L54.504,144.662 L57.01,144.662 C57.7380036,144.662 58.2793316,144.519668 58.634,144.235 C58.9886684,143.950332 59.166,143.523336 59.166,142.954 C59.166,142.384664 58.9910017,141.962335 58.641,141.687 C58.2909982,141.411665 57.747337,141.274 57.01,141.274 Z" id="toggleSwipeBlack"></path>
        </g>
    </g>
</svg>