<?xml version="1.0" encoding="UTF-8"?>
<svg width="60px" height="11px" viewBox="0 0 60 11" version="1.1" xmlns="http://www.w3.org/2000/svg" xmlns:xlink="http://www.w3.org/1999/xlink">
    <!-- Generator: Sketch 58 (84663) - https://sketch.com -->
    <title>toggleSwipe</title>
    <desc>Created with Sketch.</desc>
    <g id="RHP-Search--Desktop-v2" stroke="none" stroke-width="1" fill="none" fill-rule="evenodd">
        <g id="Discover-Grid-&amp;-Swipe-mode" transform="translate(-30.000000, -162.000000)" fill="#FFFFFF" fill-rule="nonzero">
            <path d="M34.732,162 C35.4133367,162 36.0456637,162.104999 36.629,162.315 C37.2123362,162.525001 37.7046647,162.830665 38.106,163.232 L37.602,164.296 C37.135331,163.913331 36.6756689,163.635668 36.223,163.463 C35.7703311,163.290332 35.2780027,163.204 34.746,163.204 C33.7099948,163.204 32.9096695,163.539997 32.345,164.212 C31.7803305,164.884003 31.498,165.84066 31.498,167.082 C31.498,168.332673 31.7803305,169.29633 32.345,169.973 C32.9096695,170.64967 33.7099948,170.988 34.746,170.988 C35.2780027,170.988 35.7703311,170.901668 36.223,170.729 C36.6756689,170.556332 37.135331,170.278669 37.602,169.896 L38.106,170.96 C37.7046647,171.361335 37.2123362,171.666999 36.629,171.877 C36.0456637,172.087001 35.4133367,172.192 34.732,172.192 C33.7706619,172.192 32.9330036,171.984335 32.219,171.569 C31.5049964,171.153665 30.9566686,170.563337 30.574,169.798 C30.1913314,169.032663 30,168.127339 30,167.082 C30,166.045995 30.1913314,165.145337 30.574,164.38 C30.9566686,163.614663 31.5049964,163.026669 32.219,162.616 C32.9330036,162.205331 33.7706619,162 34.732,162 Z M86.3938824,162.08 C87.9134902,162.08 89.188,163.44612 89.188,165.194754 C89.188,167.599126 84.188,172.08 84.188,172.08 C84.188,172.08 79.188,167.65377 79.188,165.194754 C79.188,163.44612 80.4134902,162.08 81.9821176,162.08 C82.8644706,162.08 83.6978039,162.571803 84.188,163.336831 C84.6781961,162.571803 85.5115294,162.08 86.3938824,162.08 Z M44.336,162.112 L48.788,172.08 L47.318,172.08 L46.254,169.616 L41.214,169.616 L40.15,172.08 L38.68,172.08 L43.118,162.112 L44.336,162.112 Z M54.178,162.112 C55.2700055,162.112 56.1076637,162.354664 56.691,162.84 C57.2743362,163.325336 57.566,164.020662 57.566,164.926 C57.566,165.579337 57.3933351,166.134664 57.048,166.592 C56.7026649,167.049336 56.2126698,167.371332 55.578,167.558 C56.1566696,167.660667 56.5766654,168.07133 56.838,168.79 L58.07,172.08 L56.544,172.08 L55.298,168.762 C55.1673327,168.407332 54.9760013,168.162334 54.724,168.027 C54.4719987,167.891666 54.1266689,167.824 53.688,167.824 L51.504,167.824 L51.504,172.08 L50.076,172.08 L50.076,162.112 L54.178,162.112 Z M63.32,162.112 C64.9346747,162.112 66.1853289,162.545996 67.072,163.414 C67.9586711,164.282004 68.402,165.504659 68.402,167.082 C68.402,168.668675 67.9586711,169.898329 67.072,170.771 C66.1853289,171.643671 64.9346747,172.08 63.32,172.08 L59.834,172.08 L59.834,162.112 L63.32,162.112 Z M63.236,163.316 L61.276,163.316 L61.276,170.876 L63.236,170.876 C65.6906789,170.876 66.918,169.611346 66.918,167.082 C66.918,164.571321 65.6906789,163.316 63.236,163.316 Z M43.734,163.722 L41.704,168.468 L45.764,168.468 L43.734,163.722 Z M54.01,163.274 L51.504,163.274 L51.504,166.662 L54.01,166.662 C54.7380036,166.662 55.2793316,166.519668 55.634,166.235 C55.9886684,165.950332 56.166,165.523336 56.166,164.954 C56.166,164.384664 55.9910017,163.962335 55.641,163.687 C55.2909982,163.411665 54.747337,163.274 54.01,163.274 Z" id="toggleSwipe"></path>
        </g>
    </g>
</svg>