<?xml version="1.0" encoding="UTF-8"?>
<svg width="54px" height="12px" viewBox="0 0 54 12" version="1.1" xmlns="http://www.w3.org/2000/svg" xmlns:xlink="http://www.w3.org/1999/xlink">
    <!-- Generator: Sketch 58 (84663) - https://sketch.com -->
    <title>toggleDiscover</title>
    <desc>Created with Sketch.</desc>
    <g id="RHP-Search--Desktop-v2" stroke="none" stroke-width="1" fill="none" fill-rule="evenodd">
        <g id="Discover-Grid-&amp;-Swipe-mode" transform="translate(-41.000000, -198.000000)" fill="#FFFFFF" fill-rule="nonzero">
            <path d="M66.614,198.92 C67.3140035,198.92 67.9603304,199.024999 68.553,199.235 C69.1456696,199.445001 69.6519979,199.745998 70.072,200.138 L69.554,201.216 C69.0779976,200.823998 68.6113356,200.544001 68.154,200.376 C67.6966644,200.207999 67.1880028,200.124 66.628,200.124 C65.5453279,200.124 64.7216695,200.45533 64.157,201.118 C63.5923305,201.78067 63.31,202.741994 63.31,204.002 C63.31,205.29934 63.5993304,206.281663 64.178,206.949 C64.7566696,207.616337 65.610661,207.95 66.74,207.95 C67.4960038,207.95 68.2239965,207.838001 68.924,207.614 L68.924,204.814 L66.6,204.814 L66.6,203.708 L70.24,203.708 L70.24,208.412 C69.8199979,208.626668 69.2903365,208.796999 68.651,208.923 C68.0116635,209.049001 67.36067,209.112 66.698,209.112 C65.689995,209.112 64.817337,208.909002 64.08,208.503 C63.342663,208.096998 62.7803353,207.511337 62.393,206.746 C62.0056647,205.980663 61.812,205.066005 61.812,204.002 C61.812,202.956661 62.0056647,202.051337 62.393,201.286 C62.7803353,200.520663 63.335663,199.935002 64.059,199.529 C64.7823369,199.122998 65.6339951,198.92 66.614,198.92 Z M76.554,199.032 C77.6460055,199.032 78.4836637,199.274664 79.067,199.76 C79.6503362,200.245336 79.942,200.940662 79.942,201.846 C79.942,202.499337 79.7693351,203.054664 79.424,203.512 C79.0786649,203.969336 78.5886698,204.291332 77.954,204.478 C78.5326696,204.580667 78.9526654,204.99133 79.214,205.71 L80.446,209 L78.92,209 L77.674,205.682 C77.5433327,205.327332 77.3520013,205.082334 77.1,204.947 C76.8479987,204.811666 76.5026689,204.744 76.064,204.744 L73.88,204.744 L73.88,209 L72.452,209 L72.452,199.032 L76.554,199.032 Z M83.652,199.032 L83.652,209 L82.21,209 L82.21,199.032 L83.652,199.032 Z M89.462,199.032 C91.0766747,199.032 92.3273289,199.465996 93.214,200.334 C94.1006711,201.202004 94.544,202.424659 94.544,204.002 C94.544,205.588675 94.1006711,206.818329 93.214,207.691 C92.3273289,208.563671 91.0766747,209 89.462,209 L85.976,209 L85.976,199.032 L89.462,199.032 Z M45.5454545,204.454545 L45.5454545,209 L41,209 L41,204.454545 L45.5454545,204.454545 Z M51,204.454545 L51,209 L46.4545455,209 L46.4545455,204.454545 L51,204.454545 Z M89.378,200.236 L87.418,200.236 L87.418,207.796 L89.378,207.796 C91.8326789,207.796 93.06,206.531346 93.06,204.002 C93.06,201.491321 91.8326789,200.236 89.378,200.236 Z M76.386,200.194 L73.88,200.194 L73.88,203.582 L76.386,203.582 C77.1140036,203.582 77.6553316,203.439668 78.01,203.155 C78.3646684,202.870332 78.542,202.443336 78.542,201.874 C78.542,201.304664 78.3670017,200.882335 78.017,200.607 C77.6669982,200.331665 77.123337,200.194 76.386,200.194 Z M45.5454545,199 L45.5454545,203.545455 L41,203.545455 L41,199 L45.5454545,199 Z M51,199 L51,203.545455 L46.4545455,203.545455 L46.4545455,199 L51,199 Z" id="toggleDiscover"></path>
        </g>
    </g>
</svg>