<?xml version="1.0" encoding="UTF-8"?>
<svg width="25px" height="20px" viewBox="0 0 25 20" version="1.1" xmlns="http://www.w3.org/2000/svg" xmlns:xlink="http://www.w3.org/1999/xlink">
    <!-- Generator: Sketch 50.2 (55047) - http://www.bohemiancoding.com/sketch -->
    <title>Subscription Copy 3</title>
    <desc>Created with Sketch.</desc>
    <defs>
        <path d="M22.2103232,3.80233963 C21.1794003,3.80233963 20.3035824,4.63564841 20.3035824,5.72943984 C20.3035824,6.09364411 20.4067913,6.40598757 20.5613131,6.66647022 L15.6655958,11.718773 C14.3262124,9.53119015 13.4503944,6.30226596 12.9862459,4.16654389 C13.7075421,3.80233963 14.2230035,3.07334178 14.2230035,2.18758287 C14.2230035,0.990069835 13.2439766,0 12.058532,0 C10.8736704,0 9.89406047,0.990069835 9.89406047,2.18758287 C9.89406047,3.07334178 10.4095219,3.80233963 11.130818,4.16654389 C10.6672526,6.30226596 9.79085157,9.53119015 8.4508851,11.718773 L3.55575087,6.66647022 C3.71027268,6.40598757 3.81348158,6.09364411 3.81348158,5.72943984 C3.81348158,4.68750921 2.98897654,3.80233963 1.90674079,3.80233963 C0.82450504,3.80233963 0,4.63564841 0,5.72943984 C0,6.77078115 0.82450504,7.65654006 1.90674079,7.65654006 L5.41059566,19.6352064 C5.46249166,19.8438283 5.66890947,20 5.92605708,20 L18.2423198,20 C18.4487376,20 18.6545723,19.8438283 18.7577812,19.6352064 L22.2103232,7.60408993 C23.241246,7.60408993 24.1176471,6.77078115 24.1176471,5.67698972 C24.0657511,4.63564841 23.241246,3.80233963 22.2103232,3.80233963" id="path-1"></path>
    </defs>
    <g id="RHP-Search--Desktop-v2" stroke="none" stroke-width="1" fill="none" fill-rule="evenodd">
        <g id="Profile-5-Friend-Request" transform="translate(-947.000000, -227.000000)">
            <g id="Name" transform="translate(476.000000, 221.000000)">
                <g id="Subscription-Copy-3" transform="translate(471.000000, 6.000000)">
                    <g id="colour/mid-grey" transform="translate(0.588235, 0.000000)">
                        <mask id="mask-2" fill="white">
                            <use xlink:href="#path-1"></use>
                        </mask>
                        <use id="Mask" fill="#91E359" xlink:href="#path-1"></use>
                        <g mask="url(#mask-2)" fill="#FFCE07">
                            <g transform="translate(-2.411765, -5.000000)">
                                <rect x="0" y="0" width="28.9411765" height="30"></rect>
                            </g>
                        </g>
                    </g>
                </g>
            </g>
        </g>
    </g>
</svg>