<?xml version="1.0" encoding="UTF-8"?>
<svg width="29px" height="21px" viewBox="0 0 29 21" version="1.1" xmlns="http://www.w3.org/2000/svg" xmlns:xlink="http://www.w3.org/1999/xlink">
    <!-- Generator: Sketch 51.3 (57544) - http://www.bohemiancoding.com/sketch -->
    <title>ic-group-footer--msg</title>
    <desc>Created with Sketch.</desc>
    <defs></defs>
    <g id="Page-1" stroke="none" stroke-width="1" fill="none" fill-rule="evenodd">
        <g id="Messenger-Inbox---5-pin" transform="translate(-250.000000, -1111.000000)" fill="#D4D7DC" fill-rule="nonzero">
            <g id="Group-10-Copy" transform="translate(0.000000, 1093.000000)">
                <path d="M264.537944,28.4919108 C267.059495,28.4919108 269.020668,25.9509576 269.020668,23.3206118 L269.020668,22.4965611 C269.020668,19.8663129 267.059495,18 264.537944,18 C262.016292,18 260.055119,19.8662153 260.055119,22.4965611 L260.055119,23.3206118 C260.055119,25.9509576 262.016292,28.4919108 264.537944,28.4919108 Z M255.556826,29.3426037 C256.277815,29.3426037 258.25084,28.4337471 258.25084,26.5479162 L258.25084,25.1505237 C258.25084,23.2645951 256.827546,22.3557386 255.556826,22.3557386 C254.328293,22.3557386 252.862913,23.2645951 252.862913,25.1505237 L252.862913,26.5479162 C252.862913,28.4337471 254.874207,29.3426037 255.556826,29.3426037 Z M271.698209,32.8367193 C271.696803,32.8230567 271.692584,32.8100772 271.691178,32.7965122 C271.670084,32.6319753 271.637741,32.4710493 271.592843,32.3134413 C271.592843,32.3119774 271.592843,32.3107087 271.591437,32.3093425 C271.49732,31.9743157 271.338518,31.6515853 271.101269,31.3336367 L271.101269,31.3322705 C270.712148,30.8089924 270.125152,30.2752722 269.171435,29.7548242 C268.667205,29.4797178 268.445223,29.3536314 268.133545,29.3536314 C267.637752,29.3536314 267.205139,29.7281821 266.476316,30.3784249 L266.474809,30.3784249 L265.811877,30.9706016 C265.787972,30.9925594 265.073211,31.9736326 264.538044,31.9736326 C264.002877,31.9736326 263.288016,30.9924618 263.26411,30.9706016 L262.601179,30.3784249 L262.599772,30.3784249 C261.870949,29.7281821 261.438336,29.3536314 260.942544,29.3536314 C260.630765,29.3536314 260.352534,29.4797178 259.904654,29.7548242 C258.979964,30.3219202 258.363739,30.8083093 257.976226,31.3308066 L257.974719,31.3314898 C257.973313,31.332856 257.973313,31.335003 257.972007,31.3361741 C257.737369,31.6514877 257.580074,31.9721687 257.486058,32.3051461 C257.484752,32.3078786 257.483145,32.3112943 257.48204,32.3146123 C257.438347,32.4710493 257.406004,32.6298283 257.385011,32.7929014 C257.383605,32.8080279 257.379386,32.822276 257.377879,32.8373049 C257.358192,33.0106249 257.347043,33.1873605 257.347043,33.3708299 C257.347043,33.3912262 257.346641,37.1958736 257.347043,37.213635 C257.347043,38.4553713 257.828773,38.9603025 259.144793,38.9603025 L269.931496,38.9603025 C271.258866,38.9603025 271.729246,38.482599 271.729246,37.213635 C271.729648,37.1958736 271.729146,33.3912262 271.729146,33.3708299 C271.729045,33.1874581 271.717795,33.0107225 271.698209,32.8367193 Z M273.534831,29.3426037 C274.255719,29.3426037 276.228945,28.4337471 276.228945,26.5479162 L276.228945,25.1505237 C276.228945,23.2645951 274.805651,22.3557386 273.534831,22.3557386 C272.306198,22.3557386 270.840817,23.2645951 270.840817,25.1505237 L270.840817,26.5479162 C270.840817,28.4337471 272.852112,29.3426037 273.534831,29.3426037 Z M252.200684,31.2339973 C250.527786,32.1592489 250.15564,33.6344208 250.15564,34.5937314 C250.15564,34.6086626 250.154234,36.3268338 250.15564,36.3403988 C250.15564,37.6080941 250.593878,38.0871639 251.95339,38.0871639 L255.548991,38.0871639 C255.548991,38.0871639 255.548991,34.3754223 255.548991,32.8469663 L254.650116,31.9736326 C253.699111,31.1589505 252.897365,30.8491995 252.200684,31.2339973 Z M255.548991,32.8469663 C255.569479,32.8635566 255.548991,32.4322084 255.548991,32.8469663 Z M278.920348,34.5937314 C278.920348,33.6343232 278.548101,32.1591513 276.875304,31.2339973 C276.178623,30.8491995 275.376877,31.1589505 274.425872,31.9737302 L273.526996,32.8470639 C273.526996,34.3754223 273.526996,38.0872615 273.526996,38.0872615 L277.122597,38.0872615 C278.48211,38.0872615 278.920348,37.6081917 278.920348,36.3404964 C278.921754,36.3268338 278.920348,34.6087602 278.920348,34.5937314 Z M273.527206,32.8469663 C273.527206,32.4322084 273.506822,32.8635566 273.527206,32.8469663 Z" id="ic-group-footer--msg"></path>
            </g>
        </g>
    </g>
</svg>