<?xml version="1.0" encoding="UTF-8"?>
<svg width="28px" height="22px" viewBox="0 0 28 22" version="1.1" xmlns="http://www.w3.org/2000/svg" xmlns:xlink="http://www.w3.org/1999/xlink">
    <!-- Generator: Sketch 51.3 (57544) - http://www.bohemiancoding.com/sketch -->
    <title>ic-message-footer--msg</title>
    <desc>Created with Sketch.</desc>
    <defs></defs>
    <g id="Page-1" stroke="none" stroke-width="1" fill="none" fill-rule="evenodd">
        <g id="Messenger-Inbox---5-pin" transform="translate(-97.000000, -1112.000000)" fill="#7BCB45" fill-rule="nonzero">
            <g id="Group-10-Copy" transform="translate(0.000000, 1093.000000)">
                <path d="M122.764608,18.9981096 L103.755149,18.9981096 C102.614582,18.9981096 101.702128,19.9032389 101.702128,20.9796088 L101.702128,32.3793446 C101.702128,33.4801775 102.639928,34.3608438 103.755149,34.3608438 L116.859003,34.3608438 L119.824478,37.2474722 C119.951208,37.3697869 120.103283,37.4431758 120.280705,37.4431758 C120.635548,37.4431758 120.9397,37.1740833 120.9397,36.807139 L120.9397,34.3608438 L122.764608,34.3608438 C123.905175,34.3608438 124.817629,33.4557146 124.817629,32.3793446 L124.817629,20.9796088 C124.817629,19.8787759 123.879829,18.9981096 122.764608,18.9981096 Z M106.669933,28.8077536 C105.630749,28.8077536 104.768987,27.9760132 104.768987,26.9730321 C104.768987,25.9700511 105.630749,25.1383107 106.669933,25.1383107 C107.709117,25.1383107 108.570879,25.9700511 108.570879,26.9730321 C108.570879,27.9760132 107.734462,28.8077536 106.669933,28.8077536 Z M113.335916,28.8077536 C112.296733,28.8077536 111.43497,27.9760132 111.43497,26.9730321 C111.43497,25.9700511 112.296733,25.1383107 113.335916,25.1383107 C114.3751,25.1383107 115.236862,25.9700511 115.236862,26.9730321 C115.236862,27.9760132 114.3751,28.8077536 113.335916,28.8077536 Z M119.976554,28.8077536 C118.93737,28.8077536 118.075608,27.9760132 118.075608,26.9730321 C118.075608,25.9700511 118.93737,25.1383107 119.976554,25.1383107 C121.015737,25.1383107 121.8775,25.9700511 121.8775,26.9730321 C121.8775,27.9760132 121.015737,28.8077536 119.976554,28.8077536 Z M100.413793,32.5937687 C100.413793,34.3256998 101.821491,35.7359866 103.550243,35.7359866 L111.872948,35.7359866 L111.872948,37.6163689 C111.872948,38.3338832 111.280233,38.9276882 110.564036,38.9276882 L102.167242,38.9276882 L100.265615,40.8328124 C100.191525,40.907038 100.09274,40.9565217 99.9692572,40.9565217 C99.7469891,40.9565217 99.5494175,40.7585868 99.5494175,40.5359099 L99.5494175,38.9029463 L98.3886841,38.9029463 C97.6477905,38.9029463 97.0550756,38.3091414 97.079772,37.5421433 L97.079772,29.9711302 C97.079772,29.2536159 97.672487,28.659811 98.3886841,28.659811 L100.413793,28.659811 L100.413793,32.5937687 Z" id="ic-message-footer--msg"></path>
            </g>
        </g>
    </g>
</svg>