<?xml version="1.0" encoding="UTF-8"?>
<svg width="27px" height="9px" viewBox="0 0 27 9" version="1.1" xmlns="http://www.w3.org/2000/svg" xmlns:xlink="http://www.w3.org/1999/xlink">
    <!-- Generator: Sketch 51.3 (57544) - http://www.bohemiancoding.com/sketch -->
    <title>ic-more-footer--msg</title>
    <desc>Created with Sketch.</desc>
    <defs>
        <path d="M343.644377,24.3301164 C341.658502,24.3301164 340.048632,22.8013544 340.048632,20.9155308 C340.048632,19.0297072 341.658502,17.5009452 343.644377,17.5009452 C345.630252,17.5009452 347.240122,19.0297072 347.240122,20.9155308 C347.240122,22.8013544 345.630252,24.3301164 343.644377,24.3301164 Z M343.644377,33.8909561 C341.658502,33.8909561 340.048632,32.3621941 340.048632,30.4763705 C340.048632,28.5905469 341.658502,27.0617849 343.644377,27.0617849 C345.630252,27.0617849 347.240122,28.5905469 347.240122,30.4763705 C347.240122,32.3621941 345.630252,33.8909561 343.644377,33.8909561 Z M343.644377,43.4517958 C341.658502,43.4517958 340.048632,41.9230338 340.048632,40.0372102 C340.048632,38.1513867 341.658502,36.6226246 343.644377,36.6226246 C345.630252,36.6226246 347.240122,38.1513867 347.240122,40.0372102 C347.240122,41.9230338 345.630252,43.4517958 343.644377,43.4517958 Z" id="path-1"></path>
    </defs>
    <g id="Page-1" stroke="none" stroke-width="1" fill="none" fill-rule="evenodd">
        <g id="Messenger-Inbox---5-pin" transform="translate(-330.000000, -1119.000000)">
            <g id="Group-10-Copy" transform="translate(0.000000, 1093.000000)">
                <mask id="mask-2" fill="white">
                    <use xlink:href="#path-1"></use>
                </mask>
                <use id="ic-more-footer--msg" fill="#D4D7DC" transform="translate(343.644377, 30.476371) rotate(90.000000) translate(-343.644377, -30.476371) " xlink:href="#path-1"></use>
            </g>
        </g>
    </g>
</svg>