<?xml version="1.0" encoding="UTF-8"?>
<svg width="23px" height="22px" viewBox="0 0 23 22" version="1.1" xmlns="http://www.w3.org/2000/svg" xmlns:xlink="http://www.w3.org/1999/xlink">
    <!-- Generator: Sketch 51.3 (57544) - http://www.bohemiancoding.com/sketch -->
    <title>ic-search-footer--msg</title>
    <desc>Created with Sketch.</desc>
    <defs></defs>
    <g id="Page-1" stroke="none" stroke-width="1" fill="none" fill-rule="evenodd">
        <g id="Messenger-Inbox---5-pin" transform="translate(-176.000000, -1112.000000)" fill="#D4D7DC" fill-rule="nonzero">
            <g id="Group-10-Copy" transform="translate(0.000000, 1093.000000)">
                <path d="M198.234089,37.8240671 L193.323959,33.0538023 C193.297864,33.02845 193.267254,33.0107297 193.239985,32.9871319 C194.206137,31.5632809 194.770027,29.8588881 194.770027,28.0259793 C194.770027,23.0400007 190.609703,18.9981096 185.477719,18.9981096 C180.345734,18.9981096 176.18541,23.0400007 176.18541,28.0258916 C176.18541,33.0116947 180.345644,37.0536735 185.477628,37.0536735 C187.364334,37.0536735 189.118578,36.505836 190.58415,35.5671874 C190.608439,35.5935924 190.626588,35.6233309 190.652683,35.6486832 L195.562904,40.4191235 C196.300521,41.1356545 197.496382,41.1356545 198.234089,40.4191235 C198.971616,39.7025047 198.971616,38.5406859 198.234089,37.8240671 Z M185.477719,33.924026 C182.124719,33.924026 179.40667,31.2833531 179.40667,28.0258916 C179.40667,24.7683423 182.124809,22.1276694 185.477719,22.1276694 C188.830538,22.1276694 191.548677,24.76843 191.548677,28.0258916 C191.548677,31.2833531 188.830538,33.924026 185.477719,33.924026 Z" id="ic-search-footer--msg"></path>
            </g>
        </g>
    </g>
</svg>