vent<?xml version="1.0" encoding="UTF-8"?>
<svg width="26px" height="26px" viewBox="0 0 26 26" version="1.1" xmlns="http://www.w3.org/2000/svg" xmlns:xlink="http://www.w3.org/1999/xlink">
    <!-- Generator: Sketch 53.2 (72643) - https://sketchapp.com -->
    <title>icAddEvent</title>
    <desc>Created with Sketch.</desc>
    <defs>
        <path d="M15.0304264,12.8674261 L21.5193953,6.37844955 C22.1167127,5.78113146 22.1167127,4.81269 21.5193953,4.21545737 C20.9220779,3.61813929 19.9537231,3.61813929 19.3564057,4.21545737 L12.8673513,10.7045194 L6.37829694,4.21537192 C5.78097956,3.61805383 4.81262468,3.61805383 4.2153073,4.21537192 C3.61807537,4.81269 3.61807537,5.78113146 4.2153073,6.37836409 L10.7043617,12.8673406 L4.2153073,19.3564026 C3.61807537,19.9537207 3.61807537,20.9221622 4.2153073,21.5193948 C4.81262468,22.1167129 5.78097956,22.1167129 6.37829694,21.5193948 L12.8673513,15.0303328 L19.3564057,21.5193948 C19.9536376,22.1167129 20.9220779,22.1167129 21.5193953,21.5193948 C22.1167127,20.9220767 22.1167127,19.9537207 21.5193953,19.3564026 L15.0304264,12.8674261 Z" id="path-1"></path>
    </defs>
    <g id="Page-1" stroke="none" stroke-width="1" fill="none" fill-rule="evenodd">
        <mask id="mask-2" fill="white">
            <use xlink:href="#path-1"></use>
        </mask>
        <use id="icAddEvent" fill="#FFFFFF" fill-rule="nonzero" transform="translate(12.867383, 12.867383) rotate(-44.000000) translate(-12.867383, -12.867383) " xlink:href="#path-1"></use>
    </g>
</svg>
