<?xml version="1.0" encoding="UTF-8"?>
<svg width="19px" height="19px" viewBox="0 0 19 19" version="1.1" xmlns="http://www.w3.org/2000/svg" xmlns:xlink="http://www.w3.org/1999/xlink">
    <!-- Generator: Sketch 55.2 (78181) - https://sketchapp.com -->
    <title>icAddMyEvent</title>
    <desc>Created with Sketch.</desc>
    <defs>
        <path d="M11.0450307,9.50003052 L15.6800085,4.86504728 C16.1066638,4.43839151 16.1066638,3.7466476 15.6800085,3.32005287 C15.2533533,2.89339709 14.5616712,2.89339709 14.1350159,3.32005287 L9.49997711,7.95509714 L4.86493828,3.31999183 C4.438283,2.89333606 3.74660095,2.89333606 3.31994568,3.31999183 C2.89335144,3.7466476 2.89335144,4.43839151 3.31994568,4.86498624 L7.95498451,9.49996948 L3.31994568,14.1350138 C2.89335144,14.5616695 2.89335144,15.2534134 3.31994568,15.6800082 C3.74660095,16.1066639 4.438283,16.1066639 4.86493828,15.6800082 L9.49997711,11.0449639 L14.1350159,15.6800082 C14.5616102,16.1066639 15.2533533,16.1066639 15.6800085,15.6800082 C16.1066638,15.2533524 16.1066638,14.5616695 15.6800085,14.1350138 L11.0450307,9.50003052 Z" id="path-1"></path>
    </defs>
    <g id="Page-1" stroke="none" stroke-width="1" fill="none" fill-rule="evenodd">
        <mask id="mask-2" fill="white">
            <use xlink:href="#path-1"></use>
        </mask>
        <use id="icAddMyEvent" fill="#333333" fill-rule="nonzero" transform="translate(9.500000, 9.500000) rotate(-44.000000) translate(-9.500000, -9.500000) " xlink:href="#path-1"></use>
    </g>
</svg>