<?xml version="1.0" encoding="UTF-8"?>
<svg width="19px" height="15px" viewBox="0 0 19 15" version="1.1" xmlns="http://www.w3.org/2000/svg" xmlns:xlink="http://www.w3.org/1999/xlink">
    <!-- Generator: Sketch 53.2 (72643) - https://sketchapp.com -->
    <title>icContactEvent</title>
    <desc>Created with Sketch.</desc>
    <defs>
        <path d="M16.2325026,13.92 L1.52765988,13.92 C1.1252888,13.92 0.776383025,13.7917162 0.48,13.5384123 L5.55283322,8.64 C5.67971987,8.72795973 5.79708351,8.81014543 5.90290906,8.88505084 C6.28265895,9.15508062 6.59054758,9.36573836 6.82706247,9.51671027 C7.06334984,9.66802736 7.37803133,9.82226285 7.77107441,9.97973053 C8.1641175,10.1374179 8.53031418,10.2159634 8.87005448,10.2159634 L8.88,10.2159634 L8.88994552,10.2159634 C9.22965332,10.2159634 9.59585,10.1373865 9.98892559,9.97973053 C10.3817412,9.82226285 10.6964226,9.66802736 10.9329375,9.51671027 C11.1694849,9.36573836 11.4775361,9.15504924 11.8570909,8.88505084 C11.9685068,8.80725842 12.0864555,8.72544928 12.2081418,8.64131798 L17.28,13.5384123 C16.9835845,13.7917162 16.6349062,13.92 16.2325026,13.92 Z M0.975149519,5.18508969 C2.34221825,6.14185094 3.45575501,6.92956647 4.32,7.55095344 L0,12 L0,4.32 C0.283150479,4.64486149 0.608388771,4.93326785 0.975149519,5.18508969 Z M16.7942324,5.18506783 C17.1611399,4.92652434 17.4830205,4.63831934 17.76,4.32 L17.76,12 L13.44,7.55265083 C14.3607407,6.89068504 15.4787763,6.10163087 16.7942324,5.18506783 Z M16.1741435,0 C16.60361,0 16.9753586,0.159484096 17.2892926,0.47828671 C17.6028718,0.79748671 17.76,1.18073203 17.76,1.62861874 C17.76,2.16469194 17.5979384,2.67702135 17.2746857,3.16544139 C16.9508527,3.65386144 16.5479235,4.07134815 16.0656402,4.41730545 C14.4620492,5.56035207 13.2519718,6.42330806 12.4303136,7.00961743 C11.9787595,7.33163224 11.6428992,7.57142135 11.4273759,7.72544139 C11.3954215,7.74852288 11.3455068,7.78498301 11.2791795,7.83386144 C11.2077576,7.88634946 11.1173758,7.9532427 11.0060995,8.03593203 C10.7913502,8.19544924 10.6129727,8.32433464 10.4709028,8.42282004 C10.3285749,8.52110675 10.1569044,8.63138126 9.95543978,8.75357734 C9.75378172,8.87580654 9.56389296,8.96737081 9.38554779,9.02840261 C9.20710588,9.08940131 9.04191652,9.12 8.89001196,9.12 L8.8801451,9.12 L8.87027824,9.12 C8.71834143,9.12 8.55318432,9.08940131 8.37477466,9.02840261 C8.19639724,8.96737081 8.00634726,8.87560784 7.80485042,8.75357734 C7.60319237,8.63138126 7.43129612,8.52133856 7.28941965,8.42282004 C7.14734971,8.32433464 6.96897229,8.19541612 6.75425515,8.03593203 C6.64275314,7.9532427 6.55237138,7.88638257 6.48094947,7.83369586 C6.41465447,7.78501612 6.3647075,7.74832418 6.33294652,7.72544139 C6.0562874,7.52562266 5.72120097,7.28484009 5.3326529,7.00680261 C4.87681025,6.6802841 4.34635347,6.30190675 3.73638137,5.86779608 C2.60643201,5.06381874 1.92916532,4.58026667 1.70458132,4.41730545 C1.29491301,4.13234684 0.908331866,3.74059085 0.545031364,3.24183878 C0.181730862,2.74288802 0,2.27976819 0,1.85234684 C0,1.32319477 0.13694304,0.88196427 0.411280545,0.52915207 C0.685392337,0.176505447 1.0766812,0 1.5856308,0 L16.1741435,0 Z" id="path-1"></path>
    </defs>
    <g id="Page-1" stroke="none" stroke-width="1" fill="none" fill-rule="evenodd">
        <g id="Event-Registered" transform="translate(-16.000000, -1399.000000)">
            <g id="icContactEvent" transform="translate(16.360000, 1399.280000)">
                <mask id="mask-2" fill="white">
                    <use xlink:href="#path-1"></use>
                </mask>
                <use id="Mask" fill="#000000" fill-rule="nonzero" xlink:href="#path-1"></use>
                <g id="colour/dark-grey" mask="url(#mask-2)" fill="#646464">
                    <g transform="translate(-3.360000, -5.280000)">
                        <polygon points="0 0 24 0 24 24 0 24"></polygon>
                    </g>
                </g>
            </g>
        </g>
    </g>
</svg>