<?xml version="1.0" encoding="UTF-8"?>
<svg width="15px" height="15px" viewBox="0 0 15 15" version="1.1" xmlns="http://www.w3.org/2000/svg" xmlns:xlink="http://www.w3.org/1999/xlink">
    <!-- Generator: Sketch 53.2 (72643) - https://sketchapp.com -->
    <title>icDollarEvent</title>
    <desc>Created with Sketch.</desc>
    <defs>
        <path d="M7.48,0.17 C11.6085963,0.176013988 14.953986,3.52140371 14.96,7.65 C14.96,11.7810899 11.6110899,15.13 7.48,15.13 C3.34891007,15.13 -1.49675766e-15,11.7810899 7.88860905e-31,7.65 C1.25429144e-15,3.51891007 3.34891007,0.17 7.48,0.17 Z M8.13193084,6.90866668 L8.13193084,4.77533334 C8.52500258,4.88738912 8.89230561,5.06830677 9.21471603,5.30866667 C9.32475978,5.38780336 9.45999752,5.42918135 9.59820246,5.42600001 C9.76915345,5.43029948 9.93475832,5.36944038 10.0577842,5.25710562 C10.1808101,5.14477087 10.2509322,4.99038793 10.2523852,4.82866667 C10.2472331,4.61098831 10.1263601,4.41044332 9.93093333,4.29533334 C9.4108033,3.93462698 8.80791982,3.69523603 8.17140738,3.59666667 L8.17140738,3.44733333 C8.17140738,3.13952663 7.90755607,2.89 7.58207898,2.89 C7.25660189,2.89 6.99275058,3.13952663 6.99275058,3.44733333 L6.99275058,3.56466667 C5.61671106,3.70866667 4.66927401,4.562 4.66927401,5.69800001 C4.66927401,6.83400001 5.35165426,7.51666668 7.04350613,7.91666668 L7.04350613,10.1086667 C6.45430868,9.98693683 5.90957498,9.7201577 5.46444439,9.33533335 C5.27305572,9.19118179 5.0117369,9.16226303 4.79032746,9.26073244 C4.56891802,9.35920184 4.42580227,9.5679884 4.42113573,9.79933335 C4.40779588,10.0106731 4.51269636,10.213133 4.69747154,10.3326667 C5.36082531,10.8457383 6.16083165,11.1760472 7.0096691,11.2873334 L7.0096691,11.8526667 C7.00966911,12.1604734 7.27352042,12.41 7.5989975,12.41 C7.92447458,12.41 8.18832589,12.1604734 8.1883259,11.8526667 L8.1883259,11.3193334 C9.60384196,11.1593334 10.54,10.3006667 10.54,9.14333335 C10.54,7.98600001 9.80122468,7.32466668 8.15448886,6.94066668 L8.13193084,6.90866668 Z M7.02658761,6.67400001 C6.07351106,6.38600001 5.99455797,6.05533334 5.99455797,5.68200001 C5.99455797,5.19133334 6.39496292,4.83933334 7.02658761,4.74333334 L7.02658761,6.67400001 Z M8.15448886,10.1833334 L8.15448886,8.17266668 C9.13576295,8.46066668 9.22035554,8.79666668 9.22035554,9.16466668 C9.22035554,9.69800002 8.8199506,10.05 8.15448886,10.1513334 L8.15448886,10.1833334 Z" id="path-1"></path>
    </defs>
    <g id="Page-1" stroke="none" stroke-width="1" fill="none" fill-rule="evenodd">
        <g id="See-comments" transform="translate(-16.000000, -374.000000)">
            <g id="icDollarEvent" transform="translate(16.020000, 373.850000)">
                <mask id="mask-2" fill="white">
                    <use xlink:href="#path-1"></use>
                </mask>
                <use id="Combined-Shape" fill="#000000" fill-rule="nonzero" xlink:href="#path-1"></use>
                <g id="colour/dark-grey" mask="url(#mask-2)" fill="#646464">
                    <g transform="translate(-1.020000, -0.850000)">
                        <polygon points="0 0 17 0 17 17 0 17"></polygon>
                    </g>
                </g>
            </g>
        </g>
    </g>
</svg>