<?xml version="1.0" encoding="UTF-8"?>
<svg width="98px" height="95px" viewBox="0 0 98 95" version="1.1" xmlns="http://www.w3.org/2000/svg" xmlns:xlink="http://www.w3.org/1999/xlink">
    <!-- Generator: Sketch 55.2 (78181) - https://sketchapp.com -->
    <title>icEmptyStateEvent</title>
    <desc>Created with Sketch.</desc>
    <defs>
        <path d="M220.818303,277 C230.292428,277 238,284.787787 238,294.360171 L238,334.018499 C238,342.849823 231.440166,350.162088 222.984297,351.241179 L222.984297,368.528021 C222.984297,369.932645 222.146929,371.198112 220.862838,371.735296 C220.437832,371.913339 219.991383,372 219.548782,372 C218.654234,372 217.775631,371.647525 217.118053,370.982849 L197.714832,351.378669 L157.181697,351.378392 C147.707572,351.378392 140,343.590883 140,334.018499 L140,294.360171 C140,284.787787 147.707572,277 157.181697,277 L220.818303,277 Z M212.731675,302 L161.481659,302 C159.558947,302 158,303.788929 158,305.996 C158,308.202751 159.558947,309.992 161.481659,309.992 L212.731675,309.992 C214.654386,309.992 216.213333,308.202751 216.213333,305.996 C216.213333,303.788929 214.654664,302 212.731675,302 Z M212.731675,320.648 L161.481659,320.648 C159.558947,320.648 158,322.436929 158,324.644 C158,326.851071 159.558947,328.64 161.481659,328.64 L212.731675,328.64 C214.654386,328.64 216.213333,326.850751 216.213333,324.644 C216.213333,322.437249 214.654664,320.648 212.731675,320.648 Z" id="path-1"></path>
    </defs>
    <g id="Page-1" stroke="none" stroke-width="1" fill="none" fill-rule="evenodd">
        <g id="Events-----Empty-state" transform="translate(-140.000000, -277.000000)">
            <mask id="mask-2" fill="white">
                <use xlink:href="#path-1"></use>
            </mask>
            <use id="icEmptyStateEvent" fill-opacity="0.6" fill="#666666" fill-rule="nonzero" xlink:href="#path-1"></use>
        </g>
    </g>
</svg>