<?xml version="1.0" encoding="UTF-8"?>
<svg width="79px" height="79px" viewBox="0 0 79 79" version="1.1" xmlns="http://www.w3.org/2000/svg" xmlns:xlink="http://www.w3.org/1999/xlink">
    <!-- Generator: Sketch 55.2 (78181) - https://sketchapp.com -->
    <title>icEventEmpty</title>
    <desc>Created with Sketch.</desc>
    <g id="Page-1" stroke="none" stroke-width="1" fill="none" fill-rule="evenodd" fill-opacity="0.6">
        <g id="Events-Empty-state" transform="translate(-149.000000, -260.000000)" fill="#666666" fill-rule="nonzero">
            <path d="M223.26,266 C225.867617,266 228,268.271624 228,270.976013 L228,334.082511 C228,336.786899 225.867617,339 223.26,339 L153.74,339 C151.132383,339 149,336.786899 149,334.082511 L149,270.976013 C149,268.271624 151.132383,266 153.74,266 L162.578125,266 L162.578125,277.051646 C162.578125,280.667764 165.463477,283.556962 168.9475,283.556962 L170.9225,283.556962 C174.406523,283.556962 177.236328,280.666224 177.236328,277.051646 L177.236328,266 L200.998047,266 L200.998047,277.051646 C200.998047,280.667764 203.775391,283.556962 207.2625,283.556962 L209.2375,283.556962 C212.724609,283.556962 215.501953,280.666224 215.501953,277.051646 L215.501953,266 L223.26,266 Z M221.365234,328.758439 L221.365234,293.336498 C221.359305,291.425183 219.808449,289.877227 217.893555,289.871308 L159.106445,289.871308 C157.191551,289.877227 155.640695,291.425183 155.634766,293.336498 L155.634766,328.758439 C155.640695,330.669753 157.191551,332.21771 159.106445,332.223629 L217.893555,332.223629 C219.808449,332.21771 221.359305,330.669753 221.365234,328.758439 Z M168.551186,280 C166.613898,280 165,278.358209 165,276.383582 L165,263.574627 C165,261.602985 166.613898,260 168.551186,260 L170.503729,260 C172.441017,260 174,261.602985 174,263.574627 L174,276.38209 C174,278.358209 172.441017,280 170.503729,280 L168.551186,280 Z M207.506897,280 C205.536207,280 204,278.358209 204,276.38209 L204,263.573134 C204,261.602985 205.536207,260 207.506897,260 L209.493103,260 C211.463793,260 213,261.602985 213,263.573134 L213,276.38209 C213,278.358209 211.463793,280 209.493103,280 L207.506897,280 Z M161,297 L175,297 L175,309 L161,309 L161,297 Z M161,313 L175,313 L175,325 L161,325 L161,313 Z M182,297 L196,297 L196,309 L182,309 L182,297 Z M182,313 L196,313 L196,325 L182,325 L182,313 Z M202,297 L216,297 L216,309 L202,309 L202,297 Z M202,313 L216,313 L216,325 L202,325 L202,313 Z" id="icEventEmpty"></path>
        </g>
    </g>
</svg>