<?xml version="1.0" encoding="UTF-8"?>
<svg width="16px" height="20px" viewBox="0 0 16 20" version="1.1" xmlns="http://www.w3.org/2000/svg" xmlns:xlink="http://www.w3.org/1999/xlink">
    <!-- Generator: Sketch 53.2 (72643) - https://sketchapp.com -->
    <title>icEventCategory</title>
    <desc>Created with Sketch.</desc>
    <g id="Page-1" stroke="none" stroke-width="1" fill="none" fill-rule="evenodd">
        <g id="Type-Events-" transform="translate(-24.000000, -268.000000)" fill="#A5A5A5" fill-rule="nonzero">
            <path d="M27.3930566,274.814103 L24.5044629,271.747249 C24.3998144,271.636068 24.3708691,271.472852 24.4306152,271.331909 C24.4907324,271.191154 24.6280371,271.099813 24.7798144,271.099813 L29.1829164,271.099813 L27.6628418,269.566667 L26.6801856,269.566667 C26.4701465,269.566667 26.3001856,269.395028 26.3001856,269.183333 C26.3001856,268.971639 26.4701465,268.8 26.6801856,268.8 L27.8201856,268.8 C27.9211231,268.8 28.0176074,268.84043 28.0888574,268.912305 L30.2576968,271.099813 L39.2201856,271.099813 C39.3719629,271.099813 39.5092676,271.191154 39.5693848,271.331909 C39.6291309,271.472664 39.6001856,271.636068 39.4955371,271.747249 L36.6073145,274.814103 C36.6049835,274.816583 36.602623,274.819027 36.6002339,274.821436 L32.3801856,279.303172 L32.3801856,284.577303 L36.245127,285.252262 C36.427334,285.284082 36.5601856,285.443555 36.5601856,285.629981 L36.5601856,286.816667 C36.5601856,287.028361 36.3902246,287.2 36.1801856,287.2 L27.8201856,287.2 C27.6101465,287.2 27.4401856,287.028361 27.4401856,286.816667 L27.4401856,285.666667 C27.4401856,285.481364 27.5715527,285.32264 27.7522754,285.28951 L31.6201856,284.580085 L31.6201856,279.30259 L27.393505,274.814579 Z M27.8316894,274.166667 L36.1686816,274.166667 L38.3351269,271.866479 L25.6648731,271.866479 L27.8316894,274.166667 Z M28.5534668,274.933333 L32.0005567,278.593343 L35.4469043,274.933333 L28.5534668,274.933333 Z M28.2001855,286.433333 L35.8001856,286.433333 L35.8001856,285.952669 L32.0016699,285.289323 L28.2001855,285.986548 L28.2001855,286.433333 Z" id="icEventCategory"></path>
        </g>
    </g>
</svg>