<?xml version="1.0" encoding="UTF-8"?>
<svg width="18px" height="15px" viewBox="0 0 18 15" version="1.1" xmlns="http://www.w3.org/2000/svg" xmlns:xlink="http://www.w3.org/1999/xlink">
    <!-- Generator: Sketch 53.2 (72643) - https://sketchapp.com -->
    <title>icInterestEvent</title>
    <desc>Created with Sketch.</desc>
    <defs>
        <path d="M4.09374052,7.36 C2.8543061,7.36 1.84018902,6.44798965 1.84,5.33317812 L1.84,4.32665188 C1.84,3.21201035 2.8543061,2.3 4.09374052,2.3 L4.64625948,2.3 C5.88588292,2.3 6.9,3.21201035 6.9,4.32665188 L6.9,5.33317812 C6.9,6.44798965 5.8856939,7.36 4.64625948,7.36 L4.09374052,7.36 Z M11.8635115,5.98 C10.3987254,5.98 9.20022339,4.90216959 9.2,3.58466505 L9.2,2.39513405 C9.2,1.07783041 10.3987254,0 11.8635115,0 L12.5164885,0 C13.981498,0 15.18,1.07783041 15.18,2.39513405 L15.18,3.58466505 C15.18,4.90216959 13.9812746,5.98 12.5164885,5.98 L11.8635115,5.98 Z M6.99862186,8.38266601 C6.64765359,8.79908363 6.44,9.31346296 6.44,9.86949489 L6.44,13.34 L0.583532114,13.34 C0.261227715,13.34 0,13.0884509 0,12.7780881 L0,10.1202963 C0,9.10556506 0.8573297,8.28 1.91094278,8.28 L6.36873492,8.28 C6.58932982,8.28 6.80131163,8.31616715 6.99862186,8.38266601 Z M14.7901907,7.36 C16.019782,7.36 17.02,8.48577054 17.02,9.86949489 L17.02,13.4937566 C17.02,13.9169786 16.7152343,14.26 16.3392125,14.26 L8.04078747,14.26 C7.66476567,14.26 7.36,13.9169786 7.36,13.4937566 L7.36,9.86949489 C7.36,8.48577054 8.36021798,7.36 9.58943324,7.36 L14.7901907,7.36 Z" id="path-1"></path>
    </defs>
    <g id="Page-1" stroke="none" stroke-width="1" fill="none" fill-rule="evenodd">
        <g id="See-comments" transform="translate(-15.000000, -401.000000)">
            <g id="icInterestEvent" transform="translate(15.220000, 401.060000)">
                <mask id="mask-2" fill="white">
                    <use xlink:href="#path-1"></use>
                </mask>
                <use id="Mask" fill="#333333" fill-rule="nonzero" xlink:href="#path-1"></use>
                <g id="colour/dark-grey" mask="url(#mask-2)" fill="#646464">
                    <g transform="translate(-3.220000, -5.060000)">
                        <polygon points="0 0 23 0 23 23 0 23"></polygon>
                    </g>
                </g>
            </g>
        </g>
    </g>
</svg>