<?xml version="1.0" encoding="UTF-8"?>
<svg width="24px" height="18px" viewBox="0 0 24 18" version="1.1" xmlns="http://www.w3.org/2000/svg" xmlns:xlink="http://www.w3.org/1999/xlink">
    <!-- Generator: Sketch 53.2 (72643) - https://sketchapp.com -->
    <title>icLikedFull</title>
    <desc>Created with Sketch.</desc>
    <g id="Page-1" stroke="none" stroke-width="1" fill="none" fill-rule="evenodd">
        <g id="See-comments" transform="translate(-265.000000, -809.000000)" fill="#77D700" fill-rule="nonzero">
            <g id="Reply" transform="translate(76.000000, 702.000000)">
                <path d="M201.110757,109.090667 C201.703301,108.465333 202.409404,107.942 203.192669,107.576667 C203.976662,107.209333 204.838544,107 205.742647,107 C206.64675,107 207.508632,107.168 208.292625,107.471333 C209.076618,107.775333 209.781993,108.214667 210.374537,108.757333 C210.966353,109.3 211.447522,109.946667 211.778735,110.664667 C212.111404,111.382 212.294118,112.172 212.294118,113 C212.294118,113.828 212.110676,114.618 211.778735,115.335333 C211.447522,116.053333 210.967809,116.7 210.374537,117.242667 C209.782721,117.785333 201.431051,124.696 200.647059,125 C199.863066,124.696 191.511397,117.785333 190.918853,117.242667 C190.326309,116.7 189.846596,116.053333 189.514654,115.335333 C189.183441,114.618 189,113.828 189,113 C189,112.172 189.183441,111.382 189.514654,110.664667 C189.846596,109.946667 190.325581,109.3 190.918853,108.757333 C191.511397,108.214667 192.2175,107.775333 193.001493,107.471333 C193.784757,107.168 194.64664,107 195.551471,107 C196.456301,107 197.318184,107.209333 198.101449,107.575333 C198.885441,107.942 199.488163,108.304897 200.081435,108.93023 C200.673979,109.55623 200.517485,109.716667 201.110757,109.090667 Z" id="icLikedFull"></path>
            </g>
        </g>
    </g>
</svg>