<?xml version="1.0" encoding="UTF-8"?>
<svg width="10px" height="15px" viewBox="0 0 10 15" version="1.1" xmlns="http://www.w3.org/2000/svg" xmlns:xlink="http://www.w3.org/1999/xlink">
    <!-- Generator: Sketch 53.2 (72643) - https://sketchapp.com -->
    <title>icLocationEvent</title>
    <desc>Created with Sketch.</desc>
    <defs>
        <path d="M4.65,2.6 C2.1043265,2.6 0,4.48353916 0,7.18674869 C0,8.16567941 0.277599833,9.21288301 0.7265625,10.0003765 L4.34861111,16.3549407 C4.40928935,16.4630722 4.52470449,16.5301784 4.65,16.5301784 C4.77529551,16.5301784 4.89071065,16.4630722 4.95138889,16.3549407 L8.5734375,10.0003765 C9.02241739,9.21284904 9.3,8.16567941 9.3,7.18674869 C9.3,4.48353916 7.1956735,2.6 4.65,2.6 Z M4.65,3.27951807 C6.86011572,3.27951807 8.61111111,4.82357 8.61111111,7.18674869 C8.61111111,8.03378495 8.34817083,9.00376302 7.97065972,9.6659347 L4.65,15.4896084 L1.32934028,9.6659347 C0.951846389,9.003797 0.688888889,8.03378495 0.688888889,7.18674869 C0.688888889,4.82357 2.43988428,3.27951807 4.65,3.27951807 Z M4.65,4.97831325 C3.41757089,4.97831325 2.41111111,5.97110614 2.41111111,7.18674869 C2.41111111,8.40240652 3.41757433,9.39518072 4.65,9.39518072 C5.88242567,9.39518072 6.88888889,8.40240652 6.88888889,7.18674869 C6.88888889,5.97110614 5.88242911,4.97831325 4.65,4.97831325 Z M4.65,5.65783133 C5.51011567,5.65783133 6.2,6.33835339 6.2,7.18674869 C6.2,8.03516098 5.51011911,8.71566435 4.65,8.71566435 C3.78988089,8.71566435 3.1,8.03516098 3.1,7.18674869 C3.1,6.33835339 3.78988433,5.65783133 4.65,5.65783133 Z" id="path-1"></path>
    </defs>
    <g id="Page-1" stroke="none" stroke-width="1" fill="none" fill-rule="evenodd">
        <g id="See-comments" transform="translate(-91.000000, -314.000000)">
            <g id="Group-4" transform="translate(91.000000, 312.000000)">
                <mask id="mask-2" fill="white">
                    <use xlink:href="#path-1"></use>
                </mask>
                <use id="icLocationEvent" fill="#A5A5A5" fill-rule="nonzero" xlink:href="#path-1"></use>
            </g>
        </g>
    </g>
</svg>