<?xml version="1.0" encoding="UTF-8"?>
<svg width="13px" height="13px" viewBox="0 0 13 13" version="1.1" xmlns="http://www.w3.org/2000/svg" xmlns:xlink="http://www.w3.org/1999/xlink">
    <!-- Generator: Sketch 53.2 (72643) - https://sketchapp.com -->
    <title>icLockEvent</title>
    <desc>Created with Sketch.</desc>
    <defs>
        <path d="M6.54819336,12.5963867 C3.21327213,12.5963867 0.5,9.88311458 0.5,6.54819336 C0.5,3.21327213 3.21327213,0.5 6.54819336,0.5 C9.88311458,0.5 12.5963867,3.21327213 12.5963867,6.54819336 C12.5963867,9.88311458 9.88311458,12.5963867 6.54819336,12.5963867 Z M6.54819336,1.3787725 C3.697627,1.3787725 1.3787725,3.697627 1.3787725,6.54819336 C1.3787725,9.39875972 3.697627,11.7176142 6.54819336,11.7176142 C9.39875972,11.7176142 11.7176142,9.39875972 11.7176142,6.54819336 C11.7176142,3.697627 9.39875972,1.3787725 6.54819336,1.3787725 Z M6.46296493,7.63336872 C6.42930542,7.63336872 6.39511998,7.6260057 6.36251233,7.61338338 C6.26416344,7.57288678 6.2,7.47664162 6.2,7.37040379 L6.2,3.16296493 C6.2,3.01833422 6.31780829,2.9 6.46296493,2.9 C6.60812157,2.9 6.72592986,3.01833422 6.72592986,3.16296493 L6.72592986,6.73560645 L8.38050519,5.08103112 C8.48253558,4.97900073 8.64978128,4.97900073 8.7523376,5.08103112 C8.85436799,5.18358744 8.85436799,5.35083314 8.7523376,5.45286353 L6.64861817,7.55658296 C6.59865483,7.60654629 6.53133581,7.63336872 6.46296493,7.63336872 Z" id="path-1"></path>
    </defs>
    <g id="Page-1" stroke="none" stroke-width="1" fill="none" fill-rule="evenodd">
        <g id="See-comments" transform="translate(-89.000000, -290.000000)">
            <g id="Group-3" transform="translate(89.000000, 286.000000)">
                <g id="Icons/DateFinder-Copy" transform="translate(0.000000, 4.000000)">
                    <mask id="mask-2" fill="white">
                        <use xlink:href="#path-1"></use>
                    </mask>
                    <use id="icLockEvent" fill="#A5A5A5" fill-rule="nonzero" xlink:href="#path-1"></use>
                </g>
            </g>
        </g>
    </g>
</svg>