<?xml version="1.0" encoding="UTF-8"?>
<svg width="28px" height="23px" viewBox="0 0 28 23" version="1.1" xmlns="http://www.w3.org/2000/svg" xmlns:xlink="http://www.w3.org/1999/xlink">
    <!-- Generator: Sketch 53.2 (72643) - https://sketchapp.com -->
    <title>icPrivate</title>
    <desc>Created with Sketch.</desc>
    <defs>
        <path d="M6.40568471,12.92 C9.93722256,12.92 12.8113694,10.0226858 12.8113694,6.46 C12.8113694,6.21574967 12.7660321,5.98353138 12.7397842,5.74650028 L14.4602158,5.74650028 C14.435161,5.98353138 14.3886306,6.21574967 14.3886306,6.46 C14.3886306,10.0214826 17.2627774,12.92 20.7943153,12.92 C24.3258531,12.92 27.2,10.0226858 27.2,6.46 C27.2,2.89731421 24.3258531,0 20.7943153,0 C17.8402316,0 15.3729274,2.03702365 14.6344065,4.78393742 L12.5632073,4.78393742 C11.8258795,2.03822686 9.35857531,0.00120320358 6.40568471,0.00120320358 C2.87414685,0.00120320358 0,2.89851741 0,6.4612032 C0,10.023889 2.87414685,12.92 6.40568471,12.92 Z M20.7955084,0.963766064 C23.8020879,0.963766064 26.2455303,3.4303334 26.2455303,6.4612032 C26.2455303,9.49207301 23.8008948,11.9586403 20.7955084,11.9586403 C17.7901219,11.9586403 15.3454864,9.49207301 15.3454864,6.4612032 C15.3454864,3.4303334 17.7901219,0.963766064 20.7955084,0.963766064 Z M6.40568471,0.963766064 C9.41226423,0.963766064 11.8557066,3.4303334 11.8557066,6.4612032 C11.8557066,9.49207301 9.41107115,11.9586403 6.40568471,11.9586403 C3.40029827,11.9586403 0.955662777,9.49207301 0.955662777,6.4612032 C0.955662777,3.4303334 3.39910518,0.963766064 6.40568471,0.963766064 Z" id="path-1"></path>
        <path d="M27.1805059,2.70000563 C27.1615379,2.51096792 27.0418027,2.34929094 26.8710911,2.28462015 C26.6991939,2.22119302 26.5083289,2.26347777 26.3779241,2.3953067 C25.3868483,3.40765335 24.5143222,3.87900394 23.6311266,3.87900394 C22.5049041,3.87900394 21.2435348,3.15145751 19.2779801,1.36679235 C18.2786057,0.460157569 17.2756749,0 16.2940831,0 C15.1915705,0 14.2016801,0.628052898 13.6006329,1.64288689 C12.9972147,0.628052898 12.0073244,0 10.9059973,0 C9.9244054,0 8.91910359,0.461401238 7.91972926,1.37176702 C5.95773103,3.1601632 4.69636177,3.89019696 3.56776822,3.89019696 C2.68694364,3.89019696 1.81441753,3.42009004 0.820970692,2.41023073 C0.690565975,2.2784018 0.498515393,2.23611705 0.328989261,2.29954418 C0.157092135,2.36545864 0.0373568951,2.52713562 0.0183889363,2.71741699 C-0.261388456,5.62635903 2.68457264,8.34626337 6.58604466,8.78030388 C6.94762137,8.82010129 7.3032706,8.84 7.65299234,8.84 C10.2930951,8.84 12.5680647,7.7169668 13.6030039,6.00692178 C14.6379432,7.71447946 16.9093562,8.83502532 19.5435315,8.83502532 C19.8991807,8.83502532 20.2595719,8.81512662 20.6270761,8.77408554 C24.5297337,8.33382667 27.4685818,5.61019133 27.1805059,2.70000563 Z M20.5251234,7.78412493 C20.1931841,7.821435 19.8648013,7.83884637 19.5435315,7.83884637 C16.8192584,7.83884637 14.5644423,6.53796849 14.0594204,4.67495217 C13.9432417,4.24712999 13.2627661,4.24712999 13.1465874,4.67495217 C12.5834761,6.75809792 9.82838011,8.13981429 6.68562644,7.79034328 C3.83924713,7.47445132 1.57020506,5.84524479 1.05688468,3.92626337 C1.90451534,4.57545864 2.71895207,4.88388858 3.56776822,4.88388858 C4.94768722,4.88388858 6.38925209,4.08296567 8.54092991,2.12169949 C9.35181015,1.38420371 10.1686179,0.994935284 10.9048118,0.994935284 C12.1744795,0.994935284 12.9035604,2.08314575 13.1418454,3.01589758 C13.2532822,3.45118177 13.9479837,3.45118177 14.0582349,3.01589758 C14.2953344,2.08314575 15.0244153,0.994935284 16.2940831,0.994935284 C17.0290915,0.994935284 17.8470847,1.38420371 18.6567794,2.11921216 C20.8120137,4.07550366 22.2523931,4.87269555 23.6299411,4.87269555 C24.4823138,4.87269555 25.297936,4.56302195 26.1455666,3.91133934 C25.6381737,5.83032077 23.3726882,7.4632583 20.5251234,7.78412493 Z" id="path-3"></path>
    </defs>
    <g id="Page-1" stroke="none" stroke-width="1" fill="none" fill-rule="evenodd">
        <g id="Create-new-event" transform="translate(-22.000000, -561.000000)">
            <g id="Icons/General/Private" transform="translate(19.000000, 555.000000)">
                <g id="Private-Event" transform="translate(3.400000, 6.800000)">
                    <g id="colour/black">
                        <mask id="mask-2" fill="white">
                            <use xlink:href="#path-1"></use>
                        </mask>
                        <use id="Mask" fill="#000000" fill-rule="nonzero" xlink:href="#path-1"></use>
                        <g mask="url(#mask-2)" fill="#333333">
                            <g transform="translate(-3.400000, -7.480000)">
                                <polygon points="0 0 34 0 34 34 0 34"></polygon>
                            </g>
                        </g>
                    </g>
                    <g id="colour/black" transform="translate(0.000000, 12.920000)">
                        <mask id="mask-4" fill="white">
                            <use xlink:href="#path-3"></use>
                        </mask>
                        <use id="Mask" fill="#000000" fill-rule="nonzero" xlink:href="#path-3"></use>
                        <g mask="url(#mask-4)" fill="#333333">
                            <g transform="translate(-3.400000, -20.400000)">
                                <polygon points="0 0 34 0 34 34 0 34"></polygon>
                            </g>
                        </g>
                    </g>
                </g>
            </g>
        </g>
    </g>
</svg>