<?xml version="1.0" encoding="UTF-8"?>
<svg width="29px" height="29px" viewBox="0 0 29 29" version="1.1" xmlns="http://www.w3.org/2000/svg" xmlns:xlink="http://www.w3.org/1999/xlink">
    <!-- Generator: Sketch 53.2 (72643) - https://sketchapp.com -->
    <title>icPublic</title>
    <desc>Created with Sketch.</desc>
    <defs>
        <path d="M14.064978,1.5038172e-07 C8.43922071,-0.000820016219 3.35477779,3.3532513 1.14049611,8.52598346 L0.965251276,8.58409812 L1.03319379,8.78796811 C-1.88224293,15.980009 1.58335244,24.1742349 8.77389617,27.0902787 C10.4533063,27.7713685 12.2485701,28.1209938 14.0608195,28.1199979 C21.824306,28.1211695 28.1188286,21.8272111 28.12,14.062108 C28.1211714,6.29700497 21.8285232,0.00111323363 14.064978,1.5038172e-07 Z M25.0911696,21.1488161 L24.3693389,20.4273038 L24.3693389,18.7466653 C24.3701589,18.6741391 24.3541104,18.6024331 24.322482,18.5371713 L22.4950627,14.8867269 L22.4950627,13.1226658 C22.4950627,12.9660139 22.4168702,12.8196728 22.2865494,12.7327351 L20.8808422,11.7954019 C20.7706699,11.7218212 20.634492,11.6983293 20.505987,11.7307259 L18.7844642,12.1609618 L15.8929245,10.9199326 L15.4951094,8.13230349 L16.5976524,7.02999958 L18.9643948,7.02999958 L19.7609622,8.22744282 C19.8328875,8.33511898 19.9462227,8.40828955 20.0739663,8.42943814 L22.8853807,8.89810476 C22.9607032,8.91075876 23.0378999,8.90460751 23.1102938,8.88029543 L25.6996065,8.0170115 C27.8713655,12.1855082 27.6390724,17.1991281 25.0911696,21.1488161 Z M23.1585565,4.61824111 L22.3966632,5.12627574 L20.2726396,4.7011951 L18.894578,4.24237047 C18.8102355,4.21372323 18.7194503,4.21009106 18.6331164,4.23205981 L16.8909766,4.66745111 L16.1272091,4.41296513 L16.6932405,3.28066655 L18.2779411,3.28066655 C18.3506279,3.28072514 18.4223189,3.26391172 18.4873915,3.23145656 L20.1086404,2.42066329 C21.2251234,3.00356741 22.2522267,3.74359201 23.1585565,4.61824111 Z M8.92858253,1.98386599 L10.0531483,2.7337326 C10.1084394,2.77052293 10.1708763,2.79512792 10.2363588,2.80590726 L12.5070445,3.18458989 L12.2854113,3.84775317 L11.1022744,4.24283914 C10.9963192,4.2781063 10.9064126,4.35004663 10.8487786,4.44577179 L9.5030482,6.68881028 L7.34153911,7.98607951 L4.15526947,8.4411548 C3.92432349,8.47378572 3.75259293,8.67138728 3.75230007,8.9046661 L3.75230007,10.310666 C3.75230007,10.4349798 3.80173411,10.5541383 3.88959081,10.6420133 L4.6894382,11.4420272 L4.6894382,12.2471965 L2.74019089,10.9471153 L2.03312017,8.82546144 C3.37838196,5.75100835 5.84405095,3.30456855 8.92858253,1.98386599 Z M7.5945664,17.3500387 L5.47663423,16.9258954 L4.6894382,15.3553936 L4.6894382,14.254027 L6.43532654,12.5077751 L7.08148328,13.8008264 C7.16084716,13.9597044 7.32326492,14.0600576 7.50085259,14.059999 L10.515626,14.059999 L11.7849795,16.1760288 C11.8696734,16.3170389 12.0220755,16.4032736 12.1865432,16.4033322 L13.4891652,16.4033322 L13.1611669,18.046946 L11.3871644,19.8213179 C11.299132,19.9091343 11.2495808,20.0282928 11.2494051,20.1526652 L11.2494051,21.3243318 L9.56255648,22.5897317 C9.44459421,22.6782511 9.37512885,22.8171521 9.37512885,22.964665 L9.37512885,24.6574888 L8.79222893,24.4643982 L7.96942166,22.4060143 L7.96942166,17.809332 C7.96948023,17.5865982 7.81274387,17.3945621 7.5945664,17.3500387 Z M6.1860478,24.5546751 C1.7680858,21.2395031 -0.100274777,15.5114596 1.51300851,10.2281807 L1.90238941,11.3960979 C1.93518924,11.494928 1.99996891,11.5800495 2.08653705,11.6379299 L4.42235384,13.1953091 L3.88959081,13.7286517 C3.80173411,13.8165267 3.75230007,13.9356852 3.75230007,14.059999 L3.75230007,15.4659989 C3.7522415,15.5387008 3.76905142,15.6104068 3.80149983,15.6754929 L4.73863795,17.5501594 C4.80353477,17.6796286 4.9246013,17.7718387 5.0666363,17.7999587 L7.03462637,18.19317 L7.03462637,22.4959983 C7.0345678,22.555519 7.04587203,22.614571 7.06789478,22.6698737 L8.0050329,25.0132068 C8.05634122,25.1412114 8.16141783,25.2401586 8.29226574,25.2836274 L9.69797294,25.7522941 C9.74494698,25.7682287 9.79414674,25.7764304 9.84369791,25.7766647 C10.1024652,25.7766647 10.312267,25.5668193 10.312267,25.3079981 L10.312267,23.1989983 L11.9991156,21.9335984 C12.1170779,21.845079 12.1865432,21.7061779 12.1865432,21.5586651 L12.1865432,20.3466932 L13.9235288,18.609346 C13.9888356,18.5439084 14.0333496,18.4605443 14.0514481,18.3698573 L14.5200172,16.0265242 C14.5707398,15.7726826 14.4061549,15.5258125 14.1523662,15.4750793 C14.122202,15.4690452 14.0915693,15.4659989 14.0608195,15.4659989 L12.4517533,15.4659989 L11.1823997,13.3499691 C11.0977059,13.208959 10.9453038,13.1227243 10.780836,13.1226658 L7.79042827,13.1226658 L6.98542662,11.5071719 C6.91801125,11.3723131 6.78985761,11.2781111 6.64102836,11.2540919 C6.49225768,11.2283738 6.34038273,11.2774667 6.23477898,11.3853186 L5.62657633,11.9913045 L5.62657633,11.2479992 C5.62657633,11.1236854 5.5771423,11.0045269 5.4892856,10.9166519 L4.6894382,10.116638 L4.6894382,9.31100006 L7.5673894,8.89997943 C7.62918194,8.89101618 7.68863164,8.86980902 7.74216566,8.83764677 L10.085011,7.43164688 C10.1507278,7.39216172 10.2057847,7.33709339 10.2452616,7.2713629 L11.5619407,5.07659707 L12.8031801,4.66229577 C12.9433408,4.61630786 13.0533374,4.50634695 13.0993158,4.36609846 L13.5678848,2.96009858 C13.6490644,2.71434151 13.515698,2.44925195 13.2699921,2.36805546 C13.247325,2.36055679 13.2240723,2.35481563 13.2005267,2.35083196 L10.4884489,1.89856866 L10.0119142,1.58081269 C12.9605608,0.620866267 16.1542104,0.739673257 19.0234345,1.91590933 L18.1673588,2.34333329 L16.4036648,2.34333329 C16.2251986,2.34233738 16.0617265,2.44286637 15.9819527,2.60250594 L15.0448145,4.47717246 C14.9293708,4.70881094 15.0234946,4.99024525 15.2550849,5.10571299 C15.2748234,5.11555499 15.2952061,5.12399099 15.316116,5.1309624 L16.7218232,5.59962903 C16.8061656,5.62827628 16.8969509,5.63190845 16.9832848,5.6099397 L18.7254245,5.1745484 L20.0018067,5.59962903 C20.0200809,5.60619036 20.0388822,5.61122853 20.058035,5.61462636 L22.4008803,6.08329299 C22.5227082,6.10813232 22.6494562,6.08317583 22.7527756,6.01393033 L23.8192388,5.30249439 C24.3440948,5.88721459 24.8157681,6.51757121 25.2286946,7.18606557 L22.9233348,7.95467884 L20.4272674,7.53850287 L19.6025858,6.30122297 C19.5161348,6.17157807 19.3708784,6.09342791 19.2150792,6.09266632 L16.4036648,6.09266632 C16.2793769,6.09266632 16.1602432,6.14211065 16.0723865,6.22998565 L14.6666793,7.63598553 C14.5623055,7.74032244 14.5131644,7.88777668 14.5340743,8.0338835 L15.0026433,11.3145499 C15.0262475,11.4767671 15.1328469,11.614848 15.2837848,11.6787039 L18.5637682,13.0847038 C18.6577163,13.1254192 18.7625586,13.1337966 18.8617781,13.1086058 L20.5350383,12.6900865 L21.5579245,13.3734024 L21.5579245,14.9973323 C21.5571045,15.0698584 21.573153,15.1415644 21.6047814,15.2068263 L23.4322008,18.8572706 L23.4322008,20.6213318 C23.4322008,20.7456456 23.4816348,20.8648041 23.5694915,20.9526791 L24.549738,21.9335984 C20.2024128,27.7294228 11.9806657,28.9029641 6.1860478,24.5546751 Z" id="path-1"></path>
    </defs>
    <g id="Page-1" stroke="none" stroke-width="1" fill="none" fill-rule="evenodd">
        <g id="Create-new-event" transform="translate(-22.000000, -509.000000)">
            <g id="Icons/General/Public-2" transform="translate(17.000000, 504.000000)">
                <g id="Icons/General/Public">
                    <g id="colour/black" transform="translate(5.320000, 5.320000)">
                        <mask id="mask-2" fill="white">
                            <use xlink:href="#path-1"></use>
                        </mask>
                        <use id="Mask" fill="#000000" fill-rule="nonzero" xlink:href="#path-1"></use>
                        <g mask="url(#mask-2)" fill="#333333">
                            <g transform="translate(-5.320000, -5.320000)">
                                <polygon points="0 0 38 0 38 38 0 38"></polygon>
                            </g>
                        </g>
                    </g>
                </g>
            </g>
        </g>
    </g>
</svg>