<?xml version="1.0" encoding="UTF-8"?>
<svg width="22px" height="26px" viewBox="0 0 22 26" version="1.1" xmlns="http://www.w3.org/2000/svg" xmlns:xlink="http://www.w3.org/1999/xlink">
    <!-- Generator: Sketch 52.4 (67378) - http://www.bohemiancoding.com/sketch -->
    <title>icAccountSettings</title>
    <desc>Created with Sketch.</desc>
    <g id="Page-1" stroke="none" stroke-width="1" fill="none" fill-rule="evenodd">
        <g id="iPhone-8-Copy-13" transform="translate(-26.000000, -356.000000)" fill="#000000" fill-rule="nonzero">
            <g id="icAccountSettings" transform="translate(26.800000, 356.400000)">
                <path d="M10.3060066,14.7477273 C13.4064209,14.7477273 15.9326843,12.2277273 15.9326843,9.135 L15.9326843,5.61272727 C15.9326843,2.52 13.4064209,0 10.3060066,0 C7.20559238,0 4.67932891,2.52 4.67932891,5.61272727 L4.67932891,9.16363636 C4.65062138,12.2277273 7.17688484,14.7477273 10.3060066,14.7477273 Z M5.62715589,5.43915048 C5.62715589,3.05001528 7.88542429,1.10098394 10.2804977,1.10098394 C12.6755711,1.10098394 15.0825121,3.01857929 15.0825121,5.40771449 L15.0825121,9.30577717 C15.0825121,11.6949124 12.6755711,13.6753797 10.2804977,13.6753797 C7.88542429,13.6753797 5.62715589,11.6949124 5.62715589,9.30577717 L5.62715589,5.43915048 Z" id="Shape"></path>
                <path d="M20.3823529,24.2836364 L20.3823529,22.3936364 C20.3823529,20.79 19.5211268,19.2722727 18.1718724,18.4418182 L14.1241094,15.9790909 C13.3777133,15.5209091 12.5451947,15.2918182 11.6839685,15.2918182 L8.66967688,15.2918182 C7.8084507,15.2918182 6.94722452,15.5209091 6.2008285,16.0077273 L2.26789561,18.4418182 C0.88993372,19.3009091 0.0861226181,20.7613636 0.0861226181,22.365 L0.0861226181,24.2836364 C0.0861226181,24.7418182 0.45932063,25.1140909 0.918641259,25.1140909 L19.5785418,25.1140909 C20.0091549,25.1140909 20.3823529,24.7418182 20.3823529,24.2836364 Z M1.2314917,24.1486404 L1.2314917,21.996646 C1.2314917,20.8965598 1.8119855,19.9907068 2.76163648,19.4101058 L6.82310113,16.8156783 C7.34387747,16.5100988 7.94421119,16.3568222 8.52625534,16.3568222 L11.7428151,16.3568222 C12.3248593,16.3568222 13.0178214,16.5100988 13.5385978,16.8156783 L17.7079453,19.4101058 C18.8343235,20.0727025 19.2888687,21.4422186 19.2888687,22.5117469 L19.2888687,24.0361858 L1.2314917,24.1486404 Z" id="Shape"></path>
            </g>
        </g>
    </g>
</svg>