<?xml version="1.0" encoding="UTF-8"?>
<svg width="24px" height="25px" viewBox="0 0 24 25" version="1.1" xmlns="http://www.w3.org/2000/svg" xmlns:xlink="http://www.w3.org/1999/xlink">
    <!-- Generator: Sketch 52.4 (67378) - http://www.bohemiancoding.com/sketch -->
    <title>icHelpSupport</title>
    <desc>Created with Sketch.</desc>
    <defs>
        <polygon id="path-1" points="12.7021413 0.074911047 12.7021413 13.1456954 0.0705969192 13.1456954 0.0705969192 0.074911047 12.7021413 0.074911047"></polygon>
    </defs>
    <g id="Page-1" stroke="none" stroke-width="1" fill="none" fill-rule="evenodd">
        <g id="iPhone-8-Copy-13" transform="translate(-25.000000, -564.000000)">
            <g id="icHelpSupport" transform="translate(25.000000, 564.000000)">
                <g id="Group-3" transform="translate(11.025887, 0.090728)">
                    <mask id="mask-2" fill="white">
                        <use xlink:href="#path-1"></use>
                    </mask>
                    <g id="Clip-2"></g>
                    <path d="M11.4738734,5.43046358 L9.38055289,7.94701987 L5.1619527,10.5960265 C5.08205497,10.6456954 5.01813678,10.7284768 4.98617769,10.8278146 L4.61864813,11.9701987 L3.64389581,10.9602649 L2.20573666,9.47019868 L1.23098434,8.4602649 L2.33357303,8.0794702 C2.4294503,8.04635762 2.50934803,7.98013245 2.55728667,7.89735099 L5.06607542,3.57615894 L7.54290508,1.35761589 C8.23002557,0.745033113 9.31663471,0.778145695 9.95581655,1.44039735 L11.3939757,2.93046358 C12.0331576,3.59271523 12.0651167,4.71854305 11.4738734,5.43046358 M11.9532598,2.33443709 L10.5151007,0.844370861 C9.57230745,-0.132450331 8.00631192,-0.182119205 6.99960051,0.71192053 L4.47483221,2.98013245 C4.44287312,3.01324503 4.41091403,3.04635762 4.39493448,3.0794702 L1.93408437,7.33443709 L0.3521093,7.8807947 C0.224272931,7.93046358 0.112416107,8.04635762 0.080457015,8.17880795 C0.0484979227,8.32781457 0.0964365612,8.47682119 0.192313838,8.57615894 L4.49081176,13.0298013 C4.57070949,13.1125828 4.66658677,13.1456954 4.77844359,13.1456954 C4.81040268,13.1456954 4.84236178,13.1456954 4.87432087,13.1291391 C5.01813678,13.0960265 5.11401406,12.9966887 5.1619527,12.8476821 L5.68927772,11.2086093 L9.84395973,8.60927152 C9.87591882,8.59271523 9.90787792,8.55960265 9.93983701,8.52649007 L12.0810962,5.9602649 C12.9599712,4.95033113 12.8960531,3.31125828 11.9532598,2.33443709" id="Fill-1" fill="#333333" mask="url(#mask-2)"></path>
                </g>
                <path d="M22.2600671,21.0509934 L19.8791147,18.584106 C19.7193193,18.418543 19.4636465,18.418543 19.3038511,18.584106 L17.0027964,20.9682119 C16.9228987,21.0509934 16.8909396,21.1503311 16.8909396,21.2662252 C16.8909396,21.3821192 16.9388782,21.481457 17.0027964,21.5642384 L19.3837488,24.0311258 C18.2012624,24.2794702 16.9548578,23.8986755 16.0919623,22.9880795 C15.0692713,21.9284768 14.7496804,20.3390728 15.2770054,18.9317881 C15.3409236,18.7827815 15.292985,18.6006623 15.1811282,18.4847682 L6.2006232,9.18013245 C6.12072547,9.09735099 6.02484819,9.06423841 5.91299137,9.06423841 C5.86505273,9.06423841 5.81711409,9.0807947 5.76917546,9.09735099 C4.41091403,9.64370861 2.8768776,9.31258278 1.85418664,8.25298013 C0.975311601,7.34238411 0.623761585,6.06754967 0.847475232,4.84238411 L3.22842761,7.30927152 C3.38822307,7.47483444 3.64389581,7.47483444 3.80369128,7.30927152 L6.10474593,4.92516556 C6.26454139,4.75960265 6.26454139,4.49470199 6.10474593,4.32913907 L3.72379354,1.86225166 C4.90627996,1.61390728 6.15268456,1.99470199 7.01558006,2.90529801 C8.03827101,3.96490066 8.35786194,5.55430464 7.83053691,6.9615894 C7.76661873,7.11059603 7.81455737,7.29271523 7.92641419,7.40860927 L16.9069191,16.713245 C17.018776,16.8291391 17.194551,16.8622517 17.3383669,16.8125828 C18.6966283,16.2662252 20.2306647,16.597351 21.2533557,17.6569536 C22.1322307,18.5509934 22.4997603,19.8258278 22.2600671,21.0509934 Z M6.42433685,18.981457 C6.39237776,19.0145695 6.37639821,19.0476821 6.36041866,19.0807947 L4.97019815,21.6635762 L3.0526526,22.6569536 L2.02996165,21.597351 L2.98873442,19.610596 L5.48154362,18.1701987 C5.51350272,18.1536424 5.54546181,18.1205298 5.5774209,18.1039735 L9.63622563,13.8986755 L10.4991211,14.7927152 L6.42433685,18.981457 Z M21.8286194,17.0443709 C20.6461329,15.8192053 18.8883829,15.3887417 17.3064078,15.918543 L8.69343241,6.99470199 C9.20477788,5.35562914 8.78930968,3.53443709 7.60682327,2.30927152 C6.36041866,1.01788079 4.47483221,0.60397351 2.82893896,1.26622517 C2.70110259,1.31589404 2.60522531,1.43178808 2.57326622,1.56423841 C2.54130713,1.69668874 2.58924577,1.84569536 2.68512304,1.94503311 L5.25782998,4.61059603 L3.53203899,6.3986755 L0.959332055,3.73311258 C0.863454778,3.63377483 0.719638862,3.58410596 0.591802493,3.61721854 C0.463966123,3.65033113 0.3521093,3.74966887 0.304170662,3.88211921 C-0.335011186,5.58741722 0.0484979227,7.5410596 1.31088207,8.83245033 C2.49336849,10.0576159 4.25111857,10.4880795 5.83309364,9.95827815 L9.06096197,13.302649 L5.05009588,17.4582781 L2.49336849,18.9317881 C2.4294503,18.9649007 2.36553212,19.0311258 2.33357303,19.1139073 L1.16706616,21.4980132 C1.08716842,21.6635762 1.11912752,21.8622517 1.24696389,21.9781457 L2.68512304,23.4682119 C2.76502077,23.5509934 2.86089805,23.584106 2.97275487,23.584106 C3.03667306,23.584106 3.10059124,23.5675497 3.14852988,23.5344371 L5.44958453,22.3423841 C5.52948226,22.3092715 5.5774209,22.2430464 5.62535954,22.1768212 L7.04753915,19.5278146 L11.0584052,15.3721854 L14.446069,18.8821192 C13.9347236,20.5211921 14.3501918,22.3423841 15.5326782,23.5675497 C16.3795941,24.4450331 17.5301214,24.9251656 18.6806488,24.9251656 C19.2239533,24.9251656 19.7832375,24.8258278 20.3105625,24.610596 C20.4383988,24.5609272 20.5342761,24.4450331 20.5662352,24.3125828 C20.5981943,24.1801325 20.5502557,24.0311258 20.4543784,23.9317881 L17.8816715,21.2662252 L19.6074624,19.4781457 L22.1801694,22.1437086 C22.2760467,22.2430464 22.4198626,22.2927152 22.5476989,22.2596026 C22.6755353,22.2264901 22.7873921,22.1271523 22.8353308,21.994702 C23.4745126,20.289404 23.0910035,18.3523179 21.8286194,17.0443709 Z" id="Fill-4" fill="#333333"></path>
            </g>
        </g>
    </g>
</svg>