<?xml version="1.0" encoding="UTF-8"?>
<svg width="27px" height="26px" viewBox="0 0 27 26" version="1.1" xmlns="http://www.w3.org/2000/svg" xmlns:xlink="http://www.w3.org/1999/xlink">
    <!-- Generator: Sketch 55.2 (78181) - https://sketchapp.com -->
    <title>icLegal</title>
    <desc>Created with Sketch.</desc>
    <defs>
        <path d="M23.1345602,0.641362304 C25.1357244,0.641362304 26.7580564,2.23859372 26.7580564,4.20894346 C26.7580564,6.17929319 25.1357914,7.77652461 23.1345602,7.77652461 L20.5616635,7.77652461 L20.5616635,22.2157288 C20.5587154,24.1848251 18.9381254,25.7804073 16.9381673,25.7833371 L3.83783476,25.7833371 C1.98347305,25.7903686 0.422984383,24.4179581 0.221708816,22.6030304 C0.00448664987,20.6443571 1.44108766,18.8831277 3.43045945,18.6692576 L3.43045945,4.20894346 C3.43340756,2.23984712 5.05399748,0.644264921 7.05395567,0.641362304 L23.1345602,0.641362304 Z M14.3706307,24.7278126 C12.9633098,23.3375906 12.9633098,21.0885236 14.3706307,19.6983675 L3.83783476,19.6983675 C2.42723073,19.6983675 1.28369874,20.8242534 1.28369874,22.2130901 C1.28369874,23.6019267 2.42723073,24.7278126 3.83783476,24.7278126 L14.3706307,24.7278126 Z M19.4949834,4.20874555 C19.4938443,3.26757173 19.8716045,2.36432984 20.5455829,1.69685969 L7.05395567,1.69685969 C5.65440705,1.71130681 4.52682166,2.83092565 4.52394055,4.20894346 L4.52394055,18.6481476 L16.9435275,18.6481476 C17.2395446,18.6481476 17.4795476,18.8844471 17.4795476,19.1758963 C17.4795476,19.4673455 17.2395446,19.703645 16.9435275,19.703645 C15.5343975,19.703645 14.3920715,20.8283435 14.3920715,22.2157288 C14.3920715,23.6031141 15.5343975,24.7278126 16.9435275,24.7278126 C18.3526574,24.7278126 19.4949834,23.6031141 19.4949834,22.2157288 L19.4949834,4.20874555 Z M22.5985401,6.72102723 L22.5985401,5.85551937 L20.5670237,5.85551937 L20.5670237,6.72102723 L22.5985401,6.72102723 Z M23.6705804,6.66825236 C24.8360892,6.41387749 25.6667194,5.39782932 25.6699448,4.22240105 C25.6736877,2.83501571 24.5344438,1.70728272 23.1253139,1.70357938 C21.7161839,1.69989424 20.5707758,2.82155812 20.5670237,4.20894346 L20.5670237,4.80002199 L23.1345602,4.80002199 C23.4305773,4.80002199 23.6705804,5.03632147 23.6705804,5.32777068 L23.6705804,6.66297487 L23.6705804,6.66825236 Z M15.7527962,5.5 C16.0549895,5.5 16.3,5.813425 16.3,6.2 C16.3,6.586575 16.0549895,6.9 15.7527962,6.9 L7.74720385,6.9 C7.44501052,6.9 7.2,6.586575 7.2,6.2 C7.2,5.813425 7.44501052,5.5 7.74720385,5.5 L15.7527962,5.5 Z M15.7527962,9.7 C16.0549895,9.7 16.3,10.013425 16.3,10.4 C16.3,10.786575 16.0549895,11.1 15.7527962,11.1 L7.74720385,11.1 C7.44501052,11.1 7.2,10.786575 7.2,10.4 C7.2,10.013425 7.44501052,9.7 7.74720385,9.7 L15.7527962,9.7 Z M15.7527962,13.9 C16.0549895,13.9 16.3,14.213425 16.3,14.6 C16.3,14.986575 16.0549895,15.3 15.7527962,15.3 L7.74720385,15.3 C7.44501052,15.3 7.2,14.986575 7.2,14.6 C7.2,14.213425 7.44501052,13.9 7.74720385,13.9 L15.7527962,13.9 Z" id="path-1"></path>
    </defs>
    <g id="Page-1" stroke="none" stroke-width="1" fill="none" fill-rule="evenodd">
        <mask id="mask-2" fill="white">
            <use xlink:href="#path-1"></use>
        </mask>
        <use id="icLegal" fill="#333333" fill-rule="nonzero" xlink:href="#path-1"></use>
    </g>
</svg>