<?xml version="1.0" encoding="UTF-8"?>
<svg width="19px" height="22px" viewBox="0 0 19 22" version="1.1" xmlns="http://www.w3.org/2000/svg" xmlns:xlink="http://www.w3.org/1999/xlink">
    <!-- Generator: Sketch 55 (78076) - https://sketchapp.com -->
    <title>icLogOut</title>
    <desc>Created with Sketch.</desc>
    <g id="Page-1" stroke="none" stroke-width="1" fill="none" fill-rule="evenodd">
        <g id="Menu-Settings" transform="translate(-25.000000, -564.000000)" fill="#333333" fill-rule="nonzero">
            <g id="Group-22" transform="translate(8.000000, 242.000000)">
                <g id="Icons/General/Logout" transform="translate(17.000000, 322.000000)">
                    <path d="M15.096,16.8153846 C15.5566452,16.8153846 15.6,17.1753846 15.6,17.6461538 L15.6,19.8615385 C15.6,20.9415385 14.76,21.8 13.7032258,21.8 L2.37677419,21.8 C1.32,21.8 0.48,20.9415385 0.48,19.8615385 L0.48,2.13846154 C0.48,1.05846154 1.32,0.2 2.37677419,0.2 L13.7032258,0.2 C14.76,0.2 15.6,1.05846154 15.6,2.13846154 L15.6,4.35384615 C15.6,4.82461538 15.5566452,5.24 15.096,5.24 C14.6353548,5.24 14.52,4.82461538 14.52,4.35384615 L14.52,2.288 C14.88,1.78953846 13.9687742,0.92 13.512,1.136 L2.37677419,1.136 C1.92,0.92 1.2,1.64 1.416,2.13846154 L1.416,19.8615385 C1.416,20.0276923 1.97341935,20.792 2.136,20.792 L13.7032258,20.792 C13.8658065,20.792 14.52,20.0276923 14.52,19.8615385 L14.52,17.6461538 C14.52,17.1753846 14.6353548,16.8153846 15.096,16.8153846 Z M16.7766607,11.216 L7.428,11.216 C7.16953074,11.216 6.96,11.0064693 6.96,10.748 C6.96,10.4895307 7.16953074,10.28 7.428,10.28 L16.7766607,10.28 L14.151002,8.15378353 C13.9501337,7.99112355 13.9191597,7.69642562 14.0818196,7.49555727 C14.2444796,7.29468893 14.5391775,7.26371493 14.7400459,7.42637491 L18.1685972,10.202761 C18.3134473,10.19486 18.4599102,10.2542037 18.5581804,10.3755573 C18.646136,10.4841735 18.6774746,10.6202248 18.6559494,10.748 C18.6774746,10.8757752 18.646136,11.0118265 18.5581804,11.1204427 C18.4599102,11.2417963 18.3134473,11.30114 18.1685972,11.293239 L14.7400459,14.0696251 C14.5391775,14.2322851 14.2444796,14.2013111 14.0818196,14.0004427 C13.9191597,13.7995744 13.9501337,13.5048765 14.151002,13.3422165 L16.7766607,11.216 Z" id="icLogOut"></path>
                </g>
            </g>
        </g>
    </g>
</svg>