<?xml version="1.0" encoding="UTF-8"?>
<svg width="22px" height="28px" viewBox="0 0 22 28" version="1.1" xmlns="http://www.w3.org/2000/svg" xmlns:xlink="http://www.w3.org/1999/xlink">
    <!-- Generator: Sketch 53.2 (72643) - https://sketchapp.com -->
    <title>icMyLists</title>
    <desc>Created with Sketch.</desc>
    <defs>
        <path d="M19.1718239,0 L1.90389937,0 C0.841257862,0 0,0.8512 0,1.9264 L0,24.9536 C0,26.0288 0.841257862,26.88 1.90389937,26.88 L19.2161006,26.88 C20.2787421,26.88 21.12,26.0288 21.12,24.9536 L21.12,1.9264 C21.0757233,0.8512 20.2344654,0 19.1718239,0 Z M20.1139568,25.3191111 C20.1139568,25.6426667 19.8376978,25.92 19.5153957,25.92 L1.55856115,25.92 C1.23625899,25.92 0.96,25.6426667 0.96,25.3191111 L0.96,2.21773099 C0.96,1.61684211 1.6,0.96 2.19856115,0.96 L18.9214388,0.96 C19.52,0.96 20.16,1.61684211 20.16,2.21773099 L20.16,25.3191111 L20.1139568,25.3191111 Z M18.4191195,7.84 C18.4191195,8.1984 18.1091824,8.512 17.7549686,8.512 L8.67823899,8.512 C8.32402516,8.512 8.01408805,8.1984 8.01408805,7.84 C8.01408805,7.4816 8.32402516,7.168 8.67823899,7.168 L17.7992453,7.168 C18.1091824,7.168 18.4191195,7.4816 18.4191195,7.84 Z M4.73761006,5.7344 C3.58641509,5.7344 2.65660377,6.6752 2.65660377,7.84 C2.65660377,9.0048 3.58641509,9.9456 4.73761006,9.9456 C5.88880503,9.9456 6.81861635,9.0048 6.81861635,7.84 C6.81861635,6.6752 5.88880503,5.7344 4.73761006,5.7344 Z M4.73761006,8.6016 C4.3391195,8.6016 3.98490566,8.2432 3.98490566,7.84 C3.98490566,7.4368 4.3391195,7.0784 4.73761006,7.0784 C5.13610063,7.0784 5.49031447,7.4368 5.49031447,7.84 C5.49031447,8.2432 5.13610063,8.6016 4.73761006,8.6016 Z M18.4191195,13.44 C18.4191195,13.7984 18.1091824,14.112 17.7549686,14.112 L8.67823899,14.112 C8.32402516,14.112 8.01408805,13.7984 8.01408805,13.44 C8.01408805,13.0816 8.32402516,12.768 8.67823899,12.768 L17.7992453,12.768 C18.1091824,12.768 18.4191195,13.0816 18.4191195,13.44 Z M4.73761006,11.3344 C3.58641509,11.3344 2.65660377,12.2752 2.65660377,13.44 C2.65660377,14.6048 3.58641509,15.5456 4.73761006,15.5456 C5.88880503,15.5456 6.81861635,14.6048 6.81861635,13.44 C6.81861635,12.2752 5.88880503,11.3344 4.73761006,11.3344 Z M4.73761006,14.2016 C4.3391195,14.2016 3.98490566,13.8432 3.98490566,13.44 C3.98490566,13.0368 4.3391195,12.6784 4.73761006,12.6784 C5.13610063,12.6784 5.49031447,13.0368 5.49031447,13.44 C5.49031447,13.8432 5.13610063,14.2016 4.73761006,14.2016 Z M18.4191195,19.04 C18.4191195,19.3984 18.1091824,19.712 17.7549686,19.712 L8.67823899,19.712 C8.32402516,19.712 8.01408805,19.3984 8.01408805,19.04 C8.01408805,18.6816 8.32402516,18.368 8.67823899,18.368 L17.7992453,18.368 C18.1091824,18.368 18.4191195,18.6816 18.4191195,19.04 Z M4.73761006,16.9344 C3.58641509,16.9344 2.65660377,17.8752 2.65660377,19.04 C2.65660377,20.2048 3.58641509,21.1456 4.73761006,21.1456 C5.88880503,21.1456 6.81861635,20.2048 6.81861635,19.04 C6.81861635,17.8752 5.88880503,16.9344 4.73761006,16.9344 Z M4.73761006,19.8016 C4.3391195,19.8016 3.98490566,19.4432 3.98490566,19.04 C3.98490566,18.6368 4.3391195,18.2784 4.73761006,18.2784 C5.13610063,18.2784 5.49031447,18.6368 5.49031447,19.04 C5.49031447,19.4432 5.13610063,19.8016 4.73761006,19.8016 Z" id="path-1"></path>
    </defs>
    <g id="Page-1" stroke="none" stroke-width="1" fill="none" fill-rule="evenodd">
        <g id="Menu-Settings" transform="translate(-26.000000, -459.000000)">
            <g id="Group-22" transform="translate(8.000000, 292.000000)">
                <g id="icMyLists" transform="translate(18.760000, 167.560000)">
                    <g id="colour/black">
                        <mask id="mask-2" fill="white">
                            <use xlink:href="#path-1"></use>
                        </mask>
                        <use id="Mask" fill="#000000" fill-rule="nonzero" xlink:href="#path-1"></use>
                        <g mask="url(#mask-2)" fill="#333333">
                            <g transform="translate(-5.760000, -2.560000)">
                                <polygon points="0 0 32 0 32 32 0 32"></polygon>
                            </g>
                        </g>
                    </g>
                </g>
            </g>
        </g>
    </g>
</svg>