<?xml version="1.0" encoding="UTF-8"?>
<svg width="23px" height="26px" viewBox="0 0 23 26" version="1.1" xmlns="http://www.w3.org/2000/svg" xmlns:xlink="http://www.w3.org/1999/xlink">
    <!-- Generator: Sketch 52.4 (67378) - http://www.bohemiancoding.com/sketch -->
    <title>icNotificationSettings</title>
    <desc>Created with Sketch.</desc>
    <defs>
        <path d="M22.0646901,20.7515127 C19.9246729,18.6296727 18.8399689,16.1183782 18.8399689,13.2872727 L18.8399689,9.16638545 C18.8597158,6.02463273 16.7422009,3.94082182 14.922727,3.11105455 C14.4014996,2.87325818 13.8641992,2.68998545 13.3181733,2.55390545 L13.3181733,2.29090909 C13.3181733,1.02770182 12.2881178,0 11.0220175,0 C9.75591713,0 8.72586162,1.02770182 8.72586162,2.29090909 L8.72586162,2.59376727 C8.23402504,2.72618182 7.75045462,2.89891636 7.28112037,3.11517818 C5.27014709,4.03978909 3.23299763,6.26838545 3.21462838,9.16363636 L3.21462838,13.2872727 C3.21462838,16.2141382 2.17860287,18.7254327 0.135483401,20.7515127 C0.0137871417,20.8724727 -0.0302990503,21.0507055 0.0211348404,21.2142764 C0.0725687312,21.3778473 0.211715775,21.4988073 0.381172076,21.5281309 L4.73973509,22.2790909 C5.55165579,22.4188364 6.29928413,22.5333818 7.01063321,22.6277673 C7.81245083,24.1947491 9.38623604,25.2 11.1055975,25.2 C12.8254183,25.2 14.3996627,24.1938327 15.2005619,22.6259345 C15.9091555,22.5320073 16.65311,22.41792 17.4604384,22.2786327 L21.8185422,21.5276727 C21.9879985,21.4988073 22.1266863,21.3773891 22.1785794,21.2138182 C22.2304726,21.0507055 22.1863864,20.8724727 22.0646901,20.7515127 Z M9.64386473,2.29090909 C9.64386473,1.53307636 10.2619899,0.916363636 11.0215582,0.916363636 C11.7811266,0.916363636 12.3992517,1.53307636 12.3992517,2.29090909 L12.3992517,2.37429818 C11.484004,2.24325818 10.5554386,2.24875636 9.64386473,2.39583273 L9.64386473,2.29090909 Z M11.1055975,24.2836364 C9.94282422,24.2836364 8.85628327,23.7072436 8.15871113,22.7647636 C9.18509279,22.8701455 10.143049,22.9232945 11.100546,22.9232945 C12.0617168,22.9232945 13.0228877,22.8701455 14.0534024,22.7633891 C13.355371,23.7067855 12.2683709,24.2836364 11.1055975,24.2836364 Z M17.3042998,21.3755564 C16.4230352,21.5272145 15.6152476,21.6504655 14.8520054,21.7476 C14.8510869,21.7476 14.8501685,21.7476 14.84925,21.7476 C14.5130928,21.7902109 14.1861202,21.8273236 13.8660361,21.8593964 C13.8628215,21.8598545 13.8591476,21.8598545 13.855933,21.8603127 C13.5634027,21.8896364 13.2773017,21.9130036 12.9944153,21.9336218 C12.9406853,21.9377455 12.8874145,21.9409527 12.8336844,21.9446182 C12.588455,21.9606545 12.3459809,21.9734836 12.1048846,21.9826473 C12.0552876,21.98448 12.0056906,21.9872291 11.9560937,21.9886036 C11.3848101,22.0078473 10.8213334,22.0078473 10.2505091,21.9890618 C10.1999937,21.9872291 10.1485598,21.9849382 10.0980444,21.9826473 C9.86016261,21.9734836 9.62044394,21.9611127 9.37842911,21.9450764 C9.32148445,21.9414109 9.26453978,21.9377455 9.20713589,21.9336218 C8.93159719,21.91392 8.65284387,21.8905527 8.36766131,21.8626036 C8.35755823,21.8616873 8.34791437,21.8607709 8.33827052,21.8598545 C8.02048255,21.82824 7.69580611,21.7911273 7.36194506,21.7489745 C7.36056736,21.7489745 7.35918967,21.7489745 7.35781197,21.7489745 C6.59181439,21.6522982 5.78127138,21.5281309 4.89587368,21.3760145 L1.37770371,20.7693818 C3.20682145,18.6828218 4.13309072,16.1701527 4.13309072,13.2872727 L4.13309072,9.16638545 C4.14870458,6.67616727 5.9185815,4.75088727 7.66503763,3.94723636 C8.18442808,3.70852364 8.72310624,3.53029091 9.27096902,3.40520727 C9.27556133,3.40429091 9.28061287,3.40474909 9.28520519,3.40383273 C10.4167508,3.15 11.6213141,3.13854545 12.7661774,3.37267636 C12.7721474,3.37405091 12.7781174,3.37130182 12.7840875,3.37221818 C13.3829249,3.49684364 13.9725777,3.68561455 14.5406467,3.94448727 C16.2347504,4.71744 17.9371204,6.62989091 17.9210473,9.16409455 L17.9210473,13.2877309 C17.9210473,16.0519418 18.9198751,18.6223418 20.8201737,20.7702982 L17.3042998,21.3755564 Z" id="path-1"></path>
        <path d="M13.541818,5.38030617 C11.8287529,4.60685577 9.73107716,4.6059823 8.02950625,5.38117963 C7.0591378,5.82315129 5.41326912,7.11631144 5.40000668,9.16064873 C5.39868044,9.40172418 5.59496453,9.59825308 5.83943549,9.6 C5.84031965,9.6 5.84120382,9.6 5.84208798,9.6 C6.08479061,9.6 6.28284303,9.40652822 6.28416928,9.1658895 C6.29433715,7.56003003 7.61881272,6.53021859 8.39952829,6.17428292 C9.8721011,5.50302755 11.6912656,5.50477447 13.1735642,6.17428292 C13.395489,6.27473102 13.6580853,6.1782135 13.759764,5.95897459 C13.8614427,5.73929896 13.7637428,5.48031754 13.541818,5.38030617 Z" id="path-3"></path>
    </defs>
    <g id="Page-1" stroke="none" stroke-width="1" fill="none" fill-rule="evenodd">
        <g id="iPhone-8-Copy-13" transform="translate(-26.000000, -459.000000)">
            <g id="icNotificationSettings" transform="translate(26.200000, 459.400000)">
                <mask id="mask-2" fill="white">
                    <use xlink:href="#path-1"></use>
                </mask>
                <use id="Mask" fill="#333333" fill-rule="nonzero" xlink:href="#path-1"></use>
                <mask id="mask-4" fill="white">
                    <use xlink:href="#path-3"></use>
                </mask>
                <use id="Mask" fill="#333333" fill-rule="nonzero" xlink:href="#path-3"></use>
            </g>
        </g>
    </g>
</svg>