<?xml version="1.0" encoding="UTF-8"?>
<svg width="24px" height="20px" viewBox="0 0 24 20" version="1.1" xmlns="http://www.w3.org/2000/svg" xmlns:xlink="http://www.w3.org/1999/xlink">
    <!-- Generator: Sketch 53.2 (72643) - https://sketchapp.com -->
    <title>icPhotoEdit</title>
    <desc>Created with Sketch.</desc>
    <g id="Page-1" stroke="none" stroke-width="1" fill="none" fill-rule="evenodd">
        <path d="M21.1952079,19.36 L2.80436194,19.36 C1.2798444,19.36 0.04,18.1319061 0.04,16.621837 L0.04,5.51715541 C0.04,4.0070863 1.2798444,2.77899238 2.80436194,2.77899238 L6.557015,2.77899238 L6.88548953,1.68141228 C7.01954614,1.08082145 7.57383795,0.64 8.22576885,0.64 L15.7743028,0.64 C16.4078099,0.64 16.968482,1.07854918 17.1168762,1.68687995 L17.1256221,1.72430148 L17.425063,2.77892137 L21.1956381,2.77892137 C22.7201556,2.77892137 23.96,4.00701529 23.96,5.5170844 L23.96,16.621695 C23.9595699,18.1319061 22.7192953,19.36 21.1952079,19.36 Z M2.80436194,3.69173706 C1.78796912,3.69173706 0.961477876,4.51046634 0.961477876,5.51715541 L0.961477876,16.621766 C0.961477876,17.628526 1.78804081,18.4471843 2.80436194,18.4471843 L21.1952079,18.4471843 C22.2116008,18.4471843 23.038092,17.628455 23.038092,16.621766 L23.038092,5.51715541 C23.038092,4.51039533 22.2115291,3.69173706 21.1952079,3.69173706 L16.7271084,3.69173706 L16.2226397,1.90963396 C16.1761142,1.70243083 15.9876464,1.55231863 15.7738727,1.55231863 L8.22526703,1.55231863 C8.00826738,1.55231863 7.82395747,1.69923544 7.77649999,1.91013102 L7.24392965,3.69173706 L2.80436194,3.69173706 Z M12.0005018,16.6012445 C8.77590275,16.6012445 6.15247947,14.0031814 6.15247947,10.8095692 C6.15247947,7.61553086 8.77583107,5.01746781 12.0005018,5.01746781 C15.2242406,5.01746781 17.8471621,7.61595691 17.8471621,10.8095692 C17.8470904,14.0027554 15.2241689,16.6012445 12.0005018,16.6012445 Z M12.0005018,5.92971543 C9.28402748,5.92971543 7.07395735,8.11841384 7.07395735,10.8091431 C7.07395735,13.4998724 9.28409916,15.6880737 12.0005018,15.6880737 C14.7164743,15.6880737 16.9256842,13.4993753 16.9256842,10.8091431 C16.9256125,8.11841384 14.7159725,5.92971543 12.0005018,5.92971543 Z M20.6004124,5.38571847 C20.1304974,5.38571847 19.7503358,5.76312923 19.7503358,6.22773857 C19.7503358,6.69277396 20.1304257,7.06968767 20.6004124,7.06968767 C21.0698973,7.06968767 21.4499872,6.69270295 21.4499872,6.22773857 C21.449557,5.76312923 21.0693954,5.38571847 20.6004124,5.38571847 Z" id="icPhotoEdit" fill="#000000" fill-rule="nonzero"></path>
    </g>
</svg>