<?xml version="1.0" encoding="UTF-8"?>
<svg width="24px" height="29px" viewBox="0 0 24 29" version="1.1" xmlns="http://www.w3.org/2000/svg" xmlns:xlink="http://www.w3.org/1999/xlink">
    <!-- Generator: Sketch 52.4 (67378) - http://www.bohemiancoding.com/sketch -->
    <title>icPrivacySettings</title>
    <desc>Created with Sketch.</desc>
    <g id="Page-1" stroke="none" stroke-width="1" fill="none" fill-rule="evenodd">
        <g id="iPhone-8-Copy-13" transform="translate(-25.000000, -405.000000)" fill="#333333" stroke="#333333" stroke-width="0.3">
            <path d="M47.2429147,430.0586 L47.2429147,419.872755 C47.2429147,418.370053 46.0339176,417.147252 44.5481807,417.147252 L29.3238871,417.147252 C27.8381502,417.147252 26.6291531,418.370053 26.6291531,419.872755 L26.6291531,430.0586 C26.6291531,431.561301 27.8381502,432.784103 29.3238871,432.784103 L44.5481807,432.784103 C46.0339176,432.784103 47.2429147,431.561301 47.2429147,430.0586 Z M29.7212174,413.238039 L29.7212174,416.104795 L44.1508505,416.104795 L44.1508505,413.238039 C44.1508505,409.645212 40.9144899,406.722684 36.9360339,406.722684 C32.9575779,406.722684 29.7212174,409.645212 29.7212174,413.238039 Z M45.1815385,416.163694 C46.9342236,416.469134 48.2736028,418.014054 48.2736028,419.872755 L48.2736028,430.0586 C48.2736028,432.136216 46.6023421,433.82656 44.5481807,433.82656 L29.3238871,433.82656 C27.2697258,433.82656 25.598465,432.136216 25.598465,430.059121 L25.598465,419.873276 C25.598465,418.014054 26.9378442,416.469134 28.6905293,416.163694 L28.6905293,413.238039 C28.6905293,409.070818 32.3896688,405.680227 36.9360339,405.680227 C41.482399,405.680227 45.1815385,409.070818 45.1815385,413.238039 L45.1815385,416.163694 Z M37.9445804,426.327087 L37.9445804,423.868362 C37.9445804,423.416367 37.5858064,423.048787 37.1446384,423.048787 C36.7034704,423.048787 36.3446964,423.416367 36.3446964,423.868362 L36.3446964,426.327087 C36.3446964,426.779082 36.7034704,427.146661 37.1446384,427.146661 C37.5858064,427.146661 37.9445804,426.779082 37.9445804,426.327087 Z M37.1446384,422.229213 C38.0269744,422.229213 38.7445223,422.964371 38.7445223,423.868362 L38.7445223,426.327087 C38.7445223,427.231078 38.0269744,427.966236 37.1446384,427.966236 C36.2623024,427.966236 35.5447544,427.231078 35.5447544,426.327087 L35.5447544,423.868362 C35.5447544,422.964371 36.2623024,422.229213 37.1446384,422.229213 Z" id="icPrivacySettings"></path>
        </g>
    </g>
</svg>