<?xml version="1.0" encoding="UTF-8"?>
<svg width="27px" height="29px" viewBox="0 0 27 29" version="1.1" xmlns="http://www.w3.org/2000/svg" xmlns:xlink="http://www.w3.org/1999/xlink">
    <!-- Generator: Sketch 55 (78076) - https://sketchapp.com -->
    <title>icVerifySetting</title>
    <desc>Created with Sketch.</desc>
    <defs>
        <path d="M33.2007737,169 C33.4388233,169 33.6772189,169.082431 33.8709802,169.246598 L34.4872103,169.770053 C34.4982823,169.779096 35.5923416,170.692099 37.3656033,171.656579 C39.0108442,172.551496 41.6017094,173.683272 44.6018952,173.993172 L45.4271107,174.078385 C45.9398861,174.1316 46.3364047,174.554538 46.3582029,175.072081 L46.3934951,175.905783 C46.4000691,176.062646 46.5381241,179.799525 45.1226287,184.273067 C44.2825351,186.927906 43.0663371,189.310758 41.5079427,191.35519 C39.5423037,193.933859 37.0365551,195.965769 34.0609354,197.394228 L33.6474627,197.592828 C33.5059478,197.660651 33.3530148,197.694737 33.2000817,197.694737 C33.0471487,197.694737 32.8942157,197.660651 32.7527008,197.592828 L32.339228,197.394228 C29.3632623,195.965422 26.8578597,193.933859 24.8922207,191.35519 C23.3338264,189.310758 22.1176284,186.927906 21.2775348,184.273067 C19.8599634,179.79396 20.0000943,176.06195 20.0066684,175.905435 L20.0419606,175.072081 C20.0637588,174.554538 20.4602774,174.131252 20.9730528,174.078385 L21.7982682,173.993172 C24.7988001,173.683272 27.3896653,172.551496 29.0349062,171.656579 C30.8088599,170.691752 31.9029191,169.778748 31.9115692,169.771444 L32.5316053,169.245902 C32.7250206,169.081736 32.9627242,169 33.2007737,169 Z M27.3631225,184.965841 L27.4669326,185.119213 L31.5155252,189.413613 C31.6193352,189.51586 31.7231453,189.566984 31.8788604,189.566984 C32.0345755,189.566984 32.1383856,189.51586 32.2421956,189.413613 L40.5470009,180.92706 C40.7546211,180.722565 40.7546211,180.415822 40.5470009,180.211327 L39.8203305,179.495594 C39.6127104,179.291098 39.3012802,179.291098 39.09366,179.495594 L39.041755,179.495594 L32.0864805,186.601803 C31.9826705,186.704051 31.8269554,186.704051 31.7231453,186.601803 L28.8683685,183.585498 L28.8164634,183.534375 C28.6088433,183.329879 28.2974131,183.329879 28.089793,183.534375 L27.3631225,184.250108 C27.2593124,184.352356 27.2074074,184.505727 27.2074074,184.607975 C27.2074074,184.710222 27.2593124,184.863594 27.3631225,184.965841 Z" id="path-1"></path>
    </defs>
    <g id="Page-1" stroke="none" stroke-width="1" fill="none" fill-rule="evenodd">
        <g id="Menu-Upgrade-Unverify" transform="translate(-20.000000, -169.000000)">
            <mask id="mask-2" fill="white">
                <use xlink:href="#path-1"></use>
            </mask>
            <use id="icVerifySetting" fill="#91E359" fill-rule="nonzero" xlink:href="#path-1"></use>
        </g>
    </g>
</svg>