<?xml version="1.0" encoding="UTF-8"?>
<svg width="23px" height="23px" viewBox="0 0 23 23" version="1.1" xmlns="http://www.w3.org/2000/svg" xmlns:xlink="http://www.w3.org/1999/xlink">
    <!-- Generator: Sketch 50.2 (55047) - http://www.bohemiancoding.com/sketch -->
    <title>Icons/Messages</title>
    <desc>Created with Sketch.</desc>
    <defs>
        <path d="M0.306594488,0.353838583 L9.01870079,0.353838583 L9.01870079,1.08021654 L0.306594488,1.08021654 L0.306594488,0.353838583 Z M0.306594488,3.62253937 L9.01870079,3.62253937 L9.01870079,4.34891732 L0.306594488,4.34891732 L0.306594488,3.62253937 Z M0.306594488,6.88681102 L6.47637795,6.88681102 L6.47637795,7.61318898 L0.306594488,7.61318898 L0.306594488,6.88681102 Z M0.306594488,10.1510827 L6.47637795,10.1510827 L6.47637795,10.8774606 L0.306594488,10.8774606 L0.306594488,10.1510827 Z M0.306594488,13.4197835 L7.56594488,13.4197835 L7.56594488,14.1461614 L0.306594488,14.1461614 L0.306594488,13.4197835 Z" id="path-1"></path>
        <path d="M23.4685039,11.4655512 C22.5206693,10.5177165 21.2450787,11.1245079 20.9040354,11.4655512 L19.2829724,13.0866142 L19.2829724,1.5 L2.58956693,1.5 L2.58956693,4.40108268 L1.5,4.40108268 L1.5,5.12746063 L2.58956693,5.12746063 L2.58956693,8.39173228 L1.5,8.39173228 L1.5,9.11811024 L2.58956693,9.11811024 L2.58956693,12.3823819 L1.5,12.3823819 L1.5,13.1087598 L2.58956693,13.1087598 L2.58956693,16.3730315 L1.5,16.3730315 L1.5,17.0994094 L2.58956693,17.0994094 L2.58956693,20.3636811 L1.5,20.3636811 L1.5,21.0900591 L2.58956693,21.0900591 L2.58956693,24 L19.2829724,24 L19.2829724,18.2199803 L23.4685039,14.0344488 C24.1771654,13.3257874 24.1771654,12.1742126 23.4685039,11.4655512 Z M18.5565945,23.273622 L3.31594488,23.273622 L3.31594488,21.0944882 L3.74557087,21.0944882 C3.89616142,21.5152559 4.29478346,21.8208661 4.76870079,21.8208661 C5.37106299,21.8208661 5.85826772,21.3336614 5.85826772,20.7312992 C5.85826772,20.128937 5.37106299,19.6417323 4.76870079,19.6417323 C4.29478346,19.6417323 3.89616142,19.9473425 3.74557087,20.3681102 L3.31594488,20.3681102 L3.31594488,17.1038386 L3.74557087,17.1038386 C3.89616142,17.5246063 4.29478346,17.8302165 4.76870079,17.8302165 C5.37106299,17.8302165 5.85826772,17.3430118 5.85826772,16.7406496 C5.85826772,16.1382874 5.37106299,15.6510827 4.76870079,15.6510827 C4.29478346,15.6510827 3.89616142,15.9566929 3.74557087,16.3774606 L3.31594488,16.3774606 L3.31594488,13.113189 L3.74557087,13.113189 C3.89616142,13.5339567 4.29478346,13.8395669 4.76870079,13.8395669 C5.37106299,13.8395669 5.85826772,13.3523622 5.85826772,12.75 C5.85826772,12.1476378 5.37106299,11.6604331 4.76870079,11.6604331 C4.29478346,11.6604331 3.89616142,11.9660433 3.74557087,12.386811 L3.31594488,12.386811 L3.31594488,9.12253937 L3.74557087,9.12253937 C3.89616142,9.54330709 4.29478346,9.84891732 4.76870079,9.84891732 C5.37106299,9.84891732 5.85826772,9.3617126 5.85826772,8.75935039 C5.85826772,8.15698819 5.37106299,7.66978346 4.76870079,7.66978346 C4.29478346,7.66978346 3.89616142,7.9753937 3.74557087,8.39616142 L3.31594488,8.39616142 L3.31594488,5.12746063 L3.74557087,5.12746063 C3.89616142,5.54822835 4.29478346,5.85383858 4.76870079,5.85383858 C5.37106299,5.85383858 5.85826772,5.36663386 5.85826772,4.76427165 C5.85826772,4.16190945 5.37106299,3.67470472 4.76870079,3.67470472 C4.29478346,3.67470472 3.89616142,3.98031496 3.74557087,4.40108268 L3.31594488,4.40108268 L3.31594488,2.22637795 L18.5565945,2.22637795 L18.5565945,13.8129921 L15.4251969,16.9443898 L15.1062992,19.832185 L17.9940945,19.5132874 L18.5610236,18.9463583 L18.5610236,23.273622 L18.5565945,23.273622 Z M4.40551181,20.7357283 C4.40551181,20.5364173 4.56938976,20.3725394 4.76870079,20.3725394 C4.96801181,20.3725394 5.13188976,20.5364173 5.13188976,20.7357283 C5.13188976,20.9350394 4.96801181,21.0989173 4.76870079,21.0989173 C4.56496063,21.0989173 4.40551181,20.9350394 4.40551181,20.7357283 Z M4.40551181,16.7406496 C4.40551181,16.5413386 4.56938976,16.3774606 4.76870079,16.3774606 C4.96801181,16.3774606 5.13188976,16.5413386 5.13188976,16.7406496 C5.13188976,16.9399606 4.96801181,17.1038386 4.76870079,17.1038386 C4.56496063,17.1038386 4.40551181,16.9399606 4.40551181,16.7406496 Z M4.40551181,12.75 C4.40551181,12.550689 4.56938976,12.386811 4.76870079,12.386811 C4.96801181,12.386811 5.13188976,12.550689 5.13188976,12.75 C5.13188976,12.949311 4.96801181,13.113189 4.76870079,13.113189 C4.56496063,13.113189 4.40551181,12.949311 4.40551181,12.75 Z M4.40551181,8.75935039 C4.40551181,8.56003937 4.56938976,8.39616142 4.76870079,8.39616142 C4.96801181,8.39616142 5.13188976,8.56003937 5.13188976,8.75935039 C5.13188976,8.95866142 4.96801181,9.12253937 4.76870079,9.12253937 C4.56496063,9.12253937 4.40551181,8.95866142 4.40551181,8.75935039 Z M4.40551181,4.76427165 C4.40551181,4.56496063 4.56938976,4.40108268 4.76870079,4.40108268 C4.96801181,4.40108268 5.13188976,4.56496063 5.13188976,4.76427165 C5.13188976,4.96358268 4.96801181,5.12746063 4.76870079,5.12746063 C4.56496063,5.12746063 4.40551181,4.96801181 4.40551181,4.76427165 Z M16.0984252,17.4404528 L17.4936024,18.8356299 L15.9212598,19.0083661 L16.0984252,17.4404528 Z M18.078248,18.3971457 L16.5369094,16.8558071 L20.8996063,12.4931102 L22.4409449,14.0344488 L18.078248,18.3971457 Z M22.9547244,13.5206693 L21.4133858,11.9793307 C21.8252953,11.5674213 22.542815,11.5674213 22.9547244,11.9793307 C23.3799213,12.4045276 23.3799213,13.0954724 22.9547244,13.5206693 Z" id="path-3"></path>
    </defs>
    <g id="RHP-Search--Desktop-v2" stroke="none" stroke-width="1" fill="none" fill-rule="evenodd">
        <g id="Profile-5-Dropdown" transform="translate(-762.000000, -328.000000)">
            <g id="Dropdown-menu" transform="translate(746.000000, 221.000000)">
                <g id="Interaction-field" transform="translate(15.000000, 106.000000)">
                    <g id="Icons/Messages">
                        <g id="colour/light-grey-copy" transform="translate(7.000000, 5.500000)">
                            <mask id="mask-2" fill="white">
                                <use xlink:href="#path-1"></use>
                            </mask>
                            <use id="Mask" fill="#000000" fill-rule="nonzero" xlink:href="#path-1"></use>
                            <g mask="url(#mask-2)" fill="#646464" id="colour/dark-grey">
                                <g transform="translate(-7.000000, -5.500000)">
                                    <rect x="0" y="0" width="25" height="25"></rect>
                                </g>
                            </g>
                        </g>
                        <g id="colour/light-grey">
                            <mask id="mask-4" fill="white">
                                <use xlink:href="#path-3"></use>
                            </mask>
                            <use id="Mask" fill="#000000" fill-rule="nonzero" xlink:href="#path-3"></use>
                            <g mask="url(#mask-4)" fill="#646464" id="colour/dark-grey">
                                <rect x="0" y="0" width="25" height="25"></rect>
                            </g>
                        </g>
                    </g>
                </g>
            </g>
        </g>
    </g>
</svg>