<?xml version="1.0" encoding="UTF-8"?>
<svg width="27px" height="26px" viewBox="0 0 27 26" version="1.1" xmlns="http://www.w3.org/2000/svg" xmlns:xlink="http://www.w3.org/1999/xlink">
    <!-- Generator: Sketch 50.2 (55047) - http://www.bohemiancoding.com/sketch -->
    <title>favouriteUserOptionDesktop</title>
    <desc>Created with Sketch.</desc>
    <defs>
        <path d="M62.4574591,148.854398 C62.9495438,148.374828 63.1232502,147.670992 62.910998,147.016715 C62.6982452,146.362437 62.1440867,145.895382 61.4632777,145.796264 L55.4100847,144.916719 C55.1522783,144.879175 54.9295136,144.717482 54.8143768,144.483705 L52.108161,138.999187 C51.8042999,138.382955 51.187567,138 50.5002503,138 C49.8134342,138 49.1967013,138.382955 48.8928402,138.999187 L46.1861238,144.484205 C46.070987,144.717983 45.8477217,144.879675 45.5899153,144.91722 L39.5367223,145.796765 C38.8564139,145.895382 38.3017548,146.362938 38.089002,147.017215 C37.8767498,147.671493 38.0504562,148.375329 38.5425409,148.854899 L42.9222453,153.123972 C43.1089672,153.306188 43.194569,153.5685 43.1505166,153.824805 L42.1172888,159.852968 C42.02568,160.383598 42.1648453,160.899712 42.5082534,161.306695 C43.0418875,161.940949 43.9734945,162.134179 44.7183797,161.742713 L50.1318125,158.896331 C50.3580814,158.77769 50.6429198,158.778691 50.8686881,158.896331 L56.2826215,161.742713 C56.5459344,161.881378 56.8267681,161.951462 57.1166125,161.951462 C57.6457413,161.951462 58.1473373,161.716182 58.4922472,161.306695 C58.8361559,160.899712 58.9748206,160.382597 58.8832118,159.852968 L57.8494834,153.824805 C57.805431,153.567999 57.8910328,153.306188 58.0777547,153.123972 L62.4574591,148.854398 Z" id="path-1"></path>
    </defs>
    <g id="RHP-Search--Desktop-v2" stroke="none" stroke-width="1" fill="none" fill-rule="evenodd">
        <g id="Profile-5-Dropdown---After-interaction" transform="translate(-695.000000, -386.000000)">
            <g id="Option-popUp" transform="translate(658.000000, 249.000000)">
                <g id="PopUpMenu">
                    <mask id="mask-2" fill="white">
                        <use xlink:href="#path-1"></use>
                    </mask>
                    <use id="favouriteUserOptionDesktop" stroke="#646464" fill-rule="nonzero" xlink:href="#path-1"></use>
                </g>
            </g>
        </g>
    </g>
</svg>