<?xml version="1.0" encoding="UTF-8"?>
<svg width="4px" height="20px" viewBox="0 0 4 20" version="1.1" xmlns="http://www.w3.org/2000/svg" xmlns:xlink="http://www.w3.org/1999/xlink">
    <!-- Generator: Sketch 50.2 (55047) - http://www.bohemiancoding.com/sketch -->
    <title>colour/mid-grey</title>
    <desc>Created with Sketch.</desc>
    <defs>
        <path d="M1.81818182,4 C0.814027728,4 0,3.1045695 0,2 C0,0.8954305 0.814027728,0 1.81818182,0 C2.82233591,0 3.63636364,0.8954305 3.63636364,2 C3.63636364,3.1045695 2.82233591,4 1.81818182,4 Z M10,4 C8.99584591,4 8.18181818,3.1045695 8.18181818,2 C8.18181818,0.8954305 8.99584591,0 10,0 C11.0041541,0 11.8181818,0.8954305 11.8181818,2 C11.8181818,3.1045695 11.0041541,4 10,4 Z M18.1818182,4 C17.1776641,4 16.3636364,3.1045695 16.3636364,2 C16.3636364,0.8954305 17.1776641,0 18.1818182,0 C19.1859723,0 20,0.8954305 20,2 C20,3.1045695 19.1859723,4 18.1818182,4 Z" id="path-1"></path>
    </defs>
    <g id="RHP-Search--Desktop-v2" stroke="none" stroke-width="1" fill="none" fill-rule="evenodd">
        <g id="Profile-5-Friend-Request" transform="translate(-992.000000, -227.000000)">
            <g id="Name" transform="translate(476.000000, 221.000000)">
                <g id="colour/mid-grey" transform="translate(518.000000, 16.000000) rotate(-90.000000) translate(-518.000000, -16.000000) translate(508.000000, 14.000000)">
                    <mask id="mask-2" fill="white">
                        <use xlink:href="#path-1"></use>
                    </mask>
                    <use id="Mask" fill="#333333" xlink:href="#path-1"></use>
                    <g mask="url(#mask-2)" fill="#333333">
                        <g transform="translate(-2.000000, -13.000000)">
                            <rect x="0" y="0" width="31.8181818" height="31.25"></rect>
                        </g>
                    </g>
                </g>
            </g>
        </g>
    </g>
</svg>
