<?xml version="1.0" encoding="UTF-8"?>
<svg width="22px" height="21px" viewBox="0 0 22 21" version="1.1" xmlns="http://www.w3.org/2000/svg" xmlns:xlink="http://www.w3.org/1999/xlink">
    <!-- Generator: Sketch 50.2 (55047) - http://www.bohemiancoding.com/sketch -->
    <title>Icons/Messages</title>
    <desc>Created with Sketch.</desc>
    <defs>
        <path d="M5,1 C2.790861,1 1,2.790861 1,5 L1,16 C1,18.209139 2.790861,20 5,20 L16.5,20 C18.709139,20 20.5,18.209139 20.5,16 L20.5,5 C20.5,2.790861 18.709139,1 16.5,1 L5,1 Z M5,0 L16.5,0 C19.2614237,-4.4408921e-16 21.5,2.23857625 21.5,5 L21.5,16 C21.5,18.7614237 19.2614237,21 16.5,21 L5,21 C2.23857625,21 4.4408921e-16,18.7614237 0,16 L8.8817842e-16,5 C4.4408921e-16,2.23857625 2.23857625,4.4408921e-16 5,0 Z" id="path-1"></path>
        <path d="M1.02474175,0 C1.37699672,0 1.92139078,0.444405594 1.92139078,0.793581419 L1.60115898,8.09453047 C1.60115898,8.44370629 1.31295037,8.7293956 0.960695389,8.7293956 C0.608440413,8.7293956 0.320231796,8.44370629 0.320231796,8.09453047 L0.160115898,0.825324675 C0.160115898,0.476148851 0.704509952,0 1.02474175,0 Z M0.960695389,10.3165584 C1.50508944,10.3165584 1.92139078,10.7292208 1.92139078,11.2688561 C1.92139078,11.8084915 1.50508944,12.2211538 0.960695389,12.2211538 C0.416301335,12.2211538 0,11.8084915 0,11.2688561 C0,10.7292208 0.416301335,10.3165584 0.960695389,10.3165584 Z M0.960695389,11.5862887 C1.15283447,11.5862887 1.28092719,11.4593157 1.28092719,11.2688561 C1.28092719,11.0783966 1.15283447,10.9514236 0.960695389,10.9514236 C0.768556311,10.9514236 0.640463593,11.0783966 0.640463593,11.2688561 C0.640463593,11.4593157 0.768556311,11.5862887 0.960695389,11.5862887 Z" id="path-3"></path>
    </defs>
    <g id="RHP-Search--Desktop-v2" stroke="none" stroke-width="1" fill="none" fill-rule="evenodd">
        <g id="Profile-5-Dropdown" transform="translate(-762.000000, -385.000000)">
            <g id="Dropdown-menu" transform="translate(746.000000, 221.000000)">
                <g id="Interaction-field-Copy-6" transform="translate(15.000000, 162.000000)">
                    <g id="Interaction-field">
                        <g id="Icons/Messages">
                            <g id="colour/dark-grey-copy" transform="translate(1.500000, 2.000000)">
                                <mask id="mask-2" fill="white">
                                    <use xlink:href="#path-1"></use>
                                </mask>
                                <use id="Mask" fill="#979797" fill-rule="nonzero" xlink:href="#path-1"></use>
                                <g mask="url(#mask-2)" fill="#646464" id="colour/dark-grey">
                                    <g transform="translate(-1.500000, -2.000000)">
                                        <rect x="0" y="0" width="25" height="25"></rect>
                                    </g>
                                </g>
                            </g>
                            <g id="colour/dark-grey" transform="translate(11.500000, 6.500000)">
                                <mask id="mask-4" fill="white">
                                    <use xlink:href="#path-3"></use>
                                </mask>
                                <use id="Mask" fill="#000000" fill-rule="nonzero" xlink:href="#path-3"></use>
                                <g mask="url(#mask-4)" fill="#646464">
                                    <g transform="translate(-11.500000, -6.500000)">
                                        <rect x="0" y="0" width="25" height="25"></rect>
                                    </g>
                                </g>
                            </g>
                        </g>
                    </g>
                </g>
            </g>
        </g>
    </g>
</svg>