<?xml version="1.0" encoding="UTF-8"?>
<svg width="21px" height="21px" viewBox="0 0 21 21" version="1.1" xmlns="http://www.w3.org/2000/svg" xmlns:xlink="http://www.w3.org/1999/xlink">
    <!-- Generator: Sketch 50.2 (55047) - http://www.bohemiancoding.com/sketch -->
    <title>Icons/Messages</title>
    <desc>Created with Sketch.</desc>
    <defs>
        <path d="M6.20765917,2.16643694e-05 C4.55674178,0.00423683291 2.95768484,0.616217114 1.79446473,1.68436155 C0.730949805,2.66095161 0.0260413609,4.03701987 0.000714749782,5.64327548 C-0.0246118613,7.2495311 0.621814639,9.06048728 2.1503675,10.9410306 C8.05879163,18.2105379 6.13131262,15.8420969 9.68127097,20.1113486 C9.85163508,20.3163946 10.2084763,20.3163946 10.3788404,20.1113486 C10.7769049,19.6315104 11.0598504,19.2886076 11.3397779,18.9524536 C12.150168,19.519198 13.1314551,19.8522194 14.1870001,19.8522194 C16.9501837,19.8522194 19.1981112,17.5766733 19.1981112,14.7848036 C19.1981112,13.3750255 18.6254005,12.0981289 17.7033196,11.1785772 C17.7678969,11.0992261 17.8294561,11.0226851 17.8955071,10.9410306 C19.423593,9.06076369 20.0704819,7.24930077 20.0451599,5.64327548 C20.0198332,4.03701987 19.3149248,2.66095161 18.2514099,1.68436155 C17.0881897,0.616217114 15.4962509,0.00423683291 13.8453335,2.16643694e-05 C12.5446426,-0.00329518956 11.2097897,0.374148968 10.0229376,1.20209329 C8.83703769,0.375991664 7.50697035,-0.00329518956 6.20765917,2.16643694e-05 Z M6.31443,0.928568013 C7.4597953,0.946741608 8.63481202,1.30175784 9.66703485,2.07305537 C9.91871335,2.22584947 10.1319589,2.22568363 10.3788404,2.07305537 C12.7382082,0.310087619 15.840537,0.716471327 17.6392571,2.36817475 C18.5386171,3.19402532 19.1128221,4.31148953 19.1340487,5.65767155 C19.1552776,7.00385357 18.6176583,8.6026002 17.1908196,10.3580014 C17.1255271,10.4387115 17.0630567,10.5163812 16.9986321,10.595525 C16.1955446,10.0417716 15.2300902,9.71736487 14.1870001,9.71736487 C12.7015906,9.71736487 11.3665304,10.370693 10.450021,11.4089143 C9.66165702,12.3048564 9.17588902,13.4923823 9.17588902,14.7848036 C9.17588902,16.1787576 9.73848647,17.4451739 10.6422085,18.3622149 C10.4502692,18.5928053 10.2594712,18.8120401 10.0229376,19.0964143 C7.00963124,15.4758379 8.52955819,17.3396795 2.855055,10.3580014 C1.42821628,8.6026002 0.890601528,7.00385357 0.911825838,5.65767155 C0.933054727,4.31148953 1.50725745,3.19402532 2.4066175,2.36817475 C3.41839728,1.43909172 4.84181706,0.905200316 6.31443,0.928568013 Z M13.9592224,10.6387132 C14.0344186,10.6345671 14.1107287,10.6387132 14.1870001,10.6387132 C16.4579833,10.6387132 18.2870001,12.4882969 18.2870001,14.7848036 C18.2870001,17.0787767 16.4577077,18.930871 14.1870001,18.930871 C13.1926021,18.930871 12.286846,18.5690806 11.5746737,17.973521 C10.6660659,17.2122109 10.0870001,16.0730789 10.0870001,14.7848036 C10.0870001,13.7234104 10.4798781,12.755557 11.1262362,12.0207587 C11.8301197,11.2236542 12.8312782,10.700766 13.9592224,10.6387132 Z" id="path-1"></path>
        <path d="M0.755556239,0.275853371 C0.578207933,0.293268549 0.427179126,0.413643409 0.368998927,0.583952093 C0.310818728,0.754260778 0.356168006,0.943237584 0.485070128,1.06763708 L1.77343818,2.3704927 L0.485070128,3.67332528 C0.349425633,3.78406717 0.288173951,3.96337995 0.32730683,4.13517343 C0.366439708,4.30696691 0.499093958,4.44111166 0.668978621,4.48068423 C0.838863284,4.52025681 1.0161837,4.4583169 1.12569513,4.32114831 L2.41406318,3.01831573 L3.70243124,4.32114831 C3.81631327,4.44082892 3.98508578,4.48925348 4.14415425,4.44788838 C4.30322271,4.40652329 4.42795713,4.28177347 4.47061772,4.1213846 C4.51327832,3.96099573 4.46725957,3.78980225 4.35017429,3.67332528 L3.06180624,2.3704927 L4.35017429,1.06763708 C4.48620291,0.934877571 4.52701244,0.73095542 4.45273333,0.555157377 C4.37845422,0.379359333 4.20452356,0.268220739 4.01562568,0.275853371 C3.89764968,0.27870235 3.78537027,0.327735534 3.70243124,0.412627528 L2.41406318,1.71546011 L1.12569513,0.412627528 C1.03926991,0.324230899 0.921186188,0.274905015 0.798264572,0.275853371 C0.78403629,0.275178186 0.769784521,0.275178186 0.755556239,0.275853371 Z" id="path-3"></path>
    </defs>
    <g id="RHP-Search--Desktop-v2" stroke="none" stroke-width="1" fill="none" fill-rule="evenodd">
        <g id="Profile-5-Dropdown" transform="translate(-763.000000, -440.000000)">
            <g id="Dropdown-menu" transform="translate(746.000000, 221.000000)">
                <g id="Interaction-field-Copy-7" transform="translate(15.000000, 217.000000)">
                    <g id="Interaction-field">
                        <g id="Icons/Messages">
                            <g id="colour/dark-grey-copy" transform="translate(2.500000, 2.500000)">
                                <mask id="mask-2" fill="white">
                                    <use xlink:href="#path-1"></use>
                                </mask>
                                <use id="Mask" fill="#000000" xlink:href="#path-1"></use>
                                <g mask="url(#mask-2)" fill="#646464" id="colour/dark-grey">
                                    <g transform="translate(-2.500000, -2.500000)">
                                        <rect x="0" y="0" width="25" height="25"></rect>
                                    </g>
                                </g>
                            </g>
                            <g id="colour/dark-grey" transform="translate(14.500000, 15.000000)">
                                <mask id="mask-4" fill="white">
                                    <use xlink:href="#path-3"></use>
                                </mask>
                                <use id="Mask" fill="#000000" xlink:href="#path-3"></use>
                                <g mask="url(#mask-4)" fill="#646464">
                                    <g transform="translate(-14.500000, -15.000000)">
                                        <rect x="0" y="0" width="25" height="25"></rect>
                                    </g>
                                </g>
                            </g>
                        </g>
                    </g>
                </g>
            </g>
        </g>
    </g>
</svg>