<?xml version="1.0" encoding="UTF-8"?>
<svg width="12px" height="18px" viewBox="0 0 12 18" version="1.1" xmlns="http://www.w3.org/2000/svg" xmlns:xlink="http://www.w3.org/1999/xlink">
    <!-- Generator: Sketch 52.4 (67378) - http://www.bohemiancoding.com/sketch -->
    <title>icBackOpenChat</title>
    <desc>Created with Sketch.</desc>
    <defs>
        <filter x="-40.0%" y="-28.6%" width="180.0%" height="157.1%" filterUnits="objectBoundingBox" id="filter-1">
            <feOffset dx="0" dy="0" in="SourceAlpha" result="shadowOffsetOuter1"></feOffset>
            <feGaussianBlur stdDeviation="1" in="shadowOffsetOuter1" result="shadowBlurOuter1"></feGaussianBlur>
            <feColorMatrix values="0 0 0 0 0   0 0 0 0 0   0 0 0 0 0  0 0 0 0.5 0" type="matrix" in="shadowBlurOuter1" result="shadowMatrixOuter1"></feColorMatrix>
            <feMerge>
                <feMergeNode in="shadowMatrixOuter1"></feMergeNode>
                <feMergeNode in="SourceGraphic"></feMergeNode>
            </feMerge>
        </filter>
        <path d="M8.75,0.381241004 C8.51646059,0.147175162 8.19939705,0.0156339964 7.86875,0.0156339964 C7.53810295,0.0156339964 7.22103941,0.147175162 6.9875,0.381241004 L1.25,6.118741 C0.7625,6.606241 0.7625,7.393741 1.25,7.881241 L6.9875,13.618741 C7.475,14.106241 8.2625,14.106241 8.75,13.618741 C9.2375,13.131241 9.2375,12.343741 8.75,11.856241 L3.9,6.993741 L8.75,2.143741 C9.2375,1.656241 9.225,0.856241004 8.75,0.381241004 Z" id="path-2"></path>
    </defs>
    <g id="Page-1" stroke="none" stroke-width="1" fill="none" fill-rule="evenodd">
        <g id="Chatrooms_OpenChat" transform="translate(-26.000000, -37.000000)">
            <g id="icBackOpenChat" filter="url(#filter-1)" transform="translate(27.000000, 39.000000)">
                <mask id="mask-3" fill="white">
                    <use xlink:href="#path-2"></use>
                </mask>
                <g id="icon/navigation/chevron_left_24px" fill-rule="nonzero"></g>
                <g id="✱-/-Color-/-Icons-/-Selected-/-On-Primary-/-Active-" mask="url(#mask-3)" fill="#000000" fill-opacity="0.87">
                    <g transform="translate(-10.000000, -8.000000)" id="Rectangle-3">
                        <rect x="0" y="0" width="30" height="30"></rect>
                    </g>
                </g>
            </g>
        </g>
    </g>
</svg>