<?xml version="1.0" encoding="UTF-8"?>
<svg width="19px" height="13px" viewBox="0 0 19 13" version="1.1" xmlns="http://www.w3.org/2000/svg" xmlns:xlink="http://www.w3.org/1999/xlink">
    <!-- Generator: Sketch 52.4 (67378) - http://www.bohemiancoding.com/sketch -->
    <title>icCameraOpenChat</title>
    <desc>Created with Sketch.</desc>
    <g id="Page-1" stroke="none" stroke-width="1" fill="none" fill-rule="evenodd">
        <g id="Chatrooms_OpenChat" transform="translate(-323.000000, -36.000000)" fill="#FFFFFF" fill-rule="nonzero">
            <path d="M341.586376,36.3756495 C341.494501,36.3418553 341.406154,36.3248871 341.32126,36.3248871 C341.13038,36.3248871 340.971511,36.3893451 340.84417,36.5179055 L336.571269,40.6008176 L336.571269,38.9250507 C336.571269,38.1192184 336.272619,37.4303853 335.675319,36.8581956 C335.077982,36.2860771 334.35895,36 333.517627,36 L326.053494,36 C325.212431,36 324.493176,36.2860771 323.895801,36.8581956 C323.29865,37.4303853 323,38.1192184 323,38.9250507 L323,46.075056 C323,46.8808172 323.29865,47.5696147 323.895839,48.1417688 C324.493213,48.7139229 325.212468,49 326.053531,49 L333.517701,49 C334.358987,49 335.078057,48.7139229 335.675394,48.1417688 C336.272694,47.5696147 336.571344,46.8808528 336.571344,46.075056 L336.571344,44.3890085 L340.844245,48.482059 C340.971585,48.6105838 341.130454,48.6750062 341.321334,48.6750062 C341.406228,48.6750062 341.494575,48.6580735 341.58645,48.6243505 C341.862262,48.5092011 342,48.3095305 342,48.025161 L342,36.9750169 C341.999889,36.6905051 341.86215,36.4907989 341.586376,36.3756495 Z" id="icCameraOpenChat"></path>
        </g>
    </g>
</svg>