<?xml version="1.0" encoding="UTF-8"?>
<svg width="19px" height="14px" viewBox="0 0 19 14" version="1.1" xmlns="http://www.w3.org/2000/svg" xmlns:xlink="http://www.w3.org/1999/xlink">
    <!-- Generator: Sketch 52.4 (67378) - http://www.bohemiancoding.com/sketch -->
    <title>icViewLive</title>
    <desc>Created with Sketch.</desc>
    <defs>
        <path d="M315.499879,43.0848364 C317.248774,43.0848364 318.666534,41.6955678 318.666534,39.9818182 C318.666534,38.2680686 317.248774,36.8788 315.499879,36.8788 C313.750985,36.8788 312.333225,38.2680686 312.333225,39.9818182 C312.333225,41.6955678 313.750985,43.0848364 315.499879,43.0848364 Z M324.980954,39.8632727 C323.634588,35.7579636 319.824309,33 315.499879,33 C311.17545,33 307.365208,35.7579636 306.018842,39.8632727 C305.993719,39.9401818 305.993719,40.0234909 306.018842,40.1004 C307.365208,44.2057091 311.175487,46.9636727 315.499917,46.9636727 C319.824346,46.9636727 323.634588,44.2057091 324.980991,40.1004 C325.006077,40.0234909 325.006077,39.9401818 324.980954,39.8632727 Z M315.499879,45.4121455 C312.444145,45.4121455 309.958225,42.9761455 309.958225,39.9818545 C309.958225,36.9875636 312.444182,34.5515636 315.499879,34.5515636 C318.555577,34.5515636 321.041534,36.9875636 321.041534,39.9818545 C321.041534,42.9761455 318.555614,45.4121455 315.499879,45.4121455 Z" id="path-1"></path>
    </defs>
    <g id="Page-1" stroke="none" stroke-width="1" fill="none" fill-rule="evenodd">
        <g id="Chatrooms_OpenChat_keyboard-Copy-2" transform="translate(-306.000000, -33.000000)">
            <mask id="mask-2" fill="white">
                <use xlink:href="#path-1"></use>
            </mask>
            <use id="icViewLive" fill="#FFFFFF" fill-rule="nonzero" xlink:href="#path-1"></use>
        </g>
    </g>
</svg>