<?xml version="1.0" encoding="UTF-8"?>
<svg width="23px" height="27px" viewBox="0 0 23 27" version="1.1" xmlns="http://www.w3.org/2000/svg" xmlns:xlink="http://www.w3.org/1999/xlink">
    <!-- Generator: Sketch 52.4 (67378) - http://www.bohemiancoding.com/sketch -->
    <title>icDeleteGrayProspect</title>
    <desc>Created with Sketch.</desc>
    <g id="Page-1" stroke="none" stroke-width="1" fill="none" fill-rule="evenodd">
        <g id="GRID-MODE_Prospect-Viewed-List" transform="translate(-338.000000, -442.000000)" fill="#6B6B6B" fill-rule="nonzero">
            <g id="Option-popUp" transform="translate(316.000000, 349.000000)">
                <g id="PopUpMenu">
                    <g id="Bin" transform="translate(22.000000, 93.000000)">
                        <path d="M19.7239485,5.62013169 C19.7386242,5.26308092 20.0360488,4.9856944 20.388265,5.00057152 C20.7404813,5.01544865 21.0141119,5.31695574 20.9994362,5.67400647 L20.2191066,24.6589777 C20.1658146,25.9555409 19.0888238,27 17.8084927,27 L4.19150731,27 C2.91048528,27 1.83411381,25.9537993 1.7808934,24.6589777 L1.00056379,5.67400647 C0.985888098,5.31695574 1.25951875,5.01544865 1.61173498,5.00057152 C1.96395116,4.9856944 2.26137579,5.26308092 2.27605148,5.62013169 L3.05638109,24.6051029 C3.08110596,25.2066443 3.59474185,25.705883 4.19150731,25.705883 L17.8084927,25.705883 C18.4051965,25.705883 18.9188488,25.2077462 18.9436189,24.6051029 L19.7239485,5.62013169 Z M11,8.64864865 C11,8.2904099 11.2238576,8 11.5,8 C11.7761424,8 12,8.2904099 12,8.64864865 L12,23.3513514 C12,23.7095901 11.7761424,24 11.5,24 C11.2238576,24 11,23.7095901 11,23.3513514 L11,8.64864865 Z M6.00033057,8.66772337 C5.98815315,8.30963968 6.31392057,8.01081774 6.72795243,8.0002859 C7.14198434,7.98975402 7.48749524,8.27150042 7.49967261,8.62958406 L7.99966943,23.3322766 C8.01184685,23.6903603 7.68607943,23.9891823 7.27204757,23.9997141 C6.85801566,24.010246 6.51250476,23.7284996 6.50032739,23.3704159 L6.00033057,8.66772337 Z M15.5003274,8.62958406 C15.5125048,8.27150042 15.8580157,7.98975402 16.2720476,8.0002859 C16.6860794,8.01081774 17.0118468,8.30963968 16.9996694,8.66772337 L16.4996726,23.3704159 C16.4874952,23.7284996 16.1419843,24.010246 15.7279524,23.9997141 C15.3139206,23.9891823 14.9881532,23.6903603 15.0003306,23.3322766 L15.5003274,8.62958406 Z M0.650943396,4 C0.291437296,4 0,3.77614237 0,3.5 C0,3.22385763 0.291437296,3 0.650943396,3 L22.3490566,3 C22.7085627,3 23,3.22385763 23,3.5 C23,3.77614237 22.7085627,4 22.3490566,4 L0.650943396,4 Z M8.22246102,3 L7,2.52636031 L7.46971288,1.38892802 C7.79472316,0.601899963 8.71271396,0 9.58617678,0 L14.4138232,0 C15.28973,0 16.2044241,0.599834974 16.5302871,1.38892802 L17,2.52636031 L15.777539,3 L15.3078261,1.86256771 C15.1819124,1.55766175 14.7513575,1.27531392 14.4138232,1.27531392 L9.58617678,1.27531392 C9.25104753,1.27531392 8.81722035,1.55976181 8.6921739,1.86256771 L8.22246102,3 Z" id="icDeleteGrayProspect"></path>
                    </g>
                </g>
            </g>
        </g>
    </g>
</svg>