<?xml version="1.0" encoding="UTF-8"?>
<svg width="14px" height="14px" viewBox="0 0 14 14" version="1.1" xmlns="http://www.w3.org/2000/svg" xmlns:xlink="http://www.w3.org/1999/xlink">
    <!-- Generator: Sketch 52.1 (67048) - http://www.bohemiancoding.com/sketch -->
    <title>icSwipeModeActiveProspects</title>
    <desc>Created with Sketch.</desc>
    <g id="Page-1" stroke="none" stroke-width="1" fill="none" fill-rule="evenodd">
        <g id="Prospects-Swipe-view" transform="translate(-157.000000, -268.000000)" fill="#7BCB45" fill-rule="nonzero">
            <g id="icSwipeModeActiveProspects" transform="translate(157.000000, 268.000000)">
                <path d="M12.8856489,3.12531807 L11.2579973,3 L11.8725188,11.0203568 C11.9223449,11.6312824 11.4240842,12.1795489 10.7763453,12.2265432 L4,12.696486 C4.14947821,13.1194345 4.54808675,13.4327297 5.04634744,13.479724 L11.9887796,13.996661 C12.6365185,14.0436553 13.2178227,13.5893773 13.2676487,12.9627869 L13.9984311,4.33150454 C14.0316485,3.70491417 13.5333878,3.17231235 12.8856489,3.12531807 Z" id="Shape"></path>
                <path d="M10.3461466,1.08474523 C10.2973599,0.445762115 9.74444381,-0.0457633615 9.09395433,0.00338918619 L1.07667159,0.593219758 C0.442444354,0.642372306 -0.0454227496,1.19943451 0.00336396083,1.85480181 L0.653853433,10.9152548 C0.702640143,11.5542379 1.25555619,12.0457634 1.90604567,11.9966108 L2.55653514,11.9474583 C2.32886382,11.8491532 2.14997922,11.6361588 2.11745475,11.3576277 C2.11745475,11.3412435 2.11745475,11.3412435 2.11745475,11.3412435 C1.97109461,8.98192122 3.58105606,6.88474586 5.77645803,6.72090403 C7.97185999,6.57344639 9.8745417,8.39209065 10.0371641,10.7677971 C10.0371641,10.7841813 10.0371641,10.7841813 10.0371641,10.7841813 C10.0534263,11.0627124 9.92332841,11.292091 9.69565709,11.4231644 L9.92332841,11.4067802 C10.5575556,11.3576277 11.0454227,10.8005655 10.996636,10.1451982 L10.3461466,1.08474523 Z M5.66262237,6.22937856 C4.47547908,6.31129947 3.45095816,5.41016943 3.36964698,4.2141241 C3.28833579,3.01807878 4.18275882,1.98587527 5.36990211,1.90395436 C6.55704539,1.82203345 7.58156631,2.72316349 7.66287749,3.91920882 C7.72792644,5.11525414 6.84976565,6.14745764 5.66262237,6.22937856 Z" id="Shape"></path>
            </g>
        </g>
    </g>
</svg>