<?xml version="1.0" encoding="UTF-8"?>
<svg width="85px" height="12px" viewBox="0 0 85 12" version="1.1" xmlns="http://www.w3.org/2000/svg" xmlns:xlink="http://www.w3.org/1999/xlink">
    <!-- Generator: Sketch 52.4 (67378) - http://www.bohemiancoding.com/sketch -->
    <title>toggleDiscoverProspect</title>
    <desc>Created with Sketch.</desc>
    <g id="Page-1" stroke="none" stroke-width="1" fill="none" fill-rule="evenodd">
        <g id="toggleDiscoverProspect" transform="translate(0.000000, -5.000000)" fill="#FFFFFF">
            <path d="M15.3261719,16 L15.3261719,6.046875 L17.8964844,6.046875 C19.8698015,6.046875 21.3645783,6.45816646 22.3808594,7.28076172 C23.3971405,8.10335698 23.9052734,9.33950998 23.9052734,10.9892578 C23.9052734,12.6025471 23.4256233,13.8409788 22.4663086,14.7045898 C21.5069939,15.5682009 20.1227304,16 18.3134766,16 L15.3261719,16 Z M16.8984375,14.6601562 L18.4023438,14.6601562 C19.6601625,14.6601562 20.6149056,14.3422883 21.2666016,13.706543 C21.9182975,13.0707976 22.2441406,12.1627663 22.2441406,10.9824219 C22.2441406,9.77473354 21.9023472,8.87353813 21.21875,8.27880859 C20.5351528,7.68407906 19.4801504,7.38671875 18.0537109,7.38671875 L16.8984375,7.38671875 L16.8984375,14.6601562 Z M25.9287109,16 L25.9287109,6.046875 L27.5009766,6.046875 L27.5009766,16 L25.9287109,16 Z M32.921875,16.1572266 C32.2154913,16.1572266 31.5501333,16.0444347 30.9257812,15.8188477 C30.3014292,15.5932606 29.8365901,15.327801 29.53125,15.0224609 L30.2148438,13.8876953 C30.5065119,14.1246757 30.9064102,14.3377269 31.4145508,14.5268555 C31.9226913,14.715984 32.3977842,14.8105469 32.8398438,14.8105469 C34.1067772,14.8105469 34.7402344,14.3183643 34.7402344,13.3339844 C34.7402344,13.1243479 34.7220054,12.9523119 34.6855469,12.8178711 C34.6490884,12.6834303 34.5727545,12.5489916 34.456543,12.4145508 C34.3403315,12.28011 34.1728527,12.1582037 33.9541016,12.0488281 C33.7353505,11.9394526 33.4436867,11.8232428 33.0791016,11.7001953 C32.983398,11.6637368 32.8295909,11.6124678 32.6176758,11.5463867 C32.4057607,11.4803057 32.2633467,11.4335939 32.1904297,11.40625 C31.5797496,11.2057282 31.0921242,10.9903983 30.7275391,10.7602539 C30.3629539,10.5301095 30.0804046,10.2327492 29.8798828,9.86816406 C29.679361,9.50357891 29.5791016,9.06152604 29.5791016,8.54199219 C29.5791016,7.96321325 29.7317693,7.46875205 30.0371094,7.05859375 C30.3424494,6.64843545 30.7457657,6.3465179 31.2470703,6.15283203 C31.7483749,5.95914617 32.3203093,5.86230469 32.9628906,5.86230469 C33.5462269,5.86230469 34.0566384,5.91357371 34.4941406,6.01611328 C34.9316428,6.11865286 35.2757149,6.24397712 35.5263672,6.39208984 C35.7770195,6.54020256 36.0231108,6.73274621 36.2646484,6.96972656 L35.4580078,8.02246094 C35.1800116,7.75357938 34.8393575,7.55078193 34.4360352,7.4140625 C34.0327128,7.27734307 33.6145855,7.20898438 33.1816406,7.20898438 C32.6119763,7.20898438 32.1482765,7.31494035 31.7905273,7.52685547 C31.4327782,7.73877059 31.2539062,8.05663851 31.2539062,8.48046875 C31.2539062,8.76302225 31.2915035,8.9863273 31.3666992,9.15039062 C31.4418949,9.31445395 31.5900054,9.46598238 31.8110352,9.60498047 C32.0320649,9.74397856 32.3704404,9.89094975 32.8261719,10.0458984 C33.4049508,10.2327483 33.7125649,10.3330077 33.7490234,10.3466797 C34.7561899,10.6884783 35.45117,11.0769835 35.8339844,11.512207 C36.2167988,11.9474306 36.4082031,12.5615195 36.4082031,13.3544922 C36.4082031,13.8330102 36.3136403,14.2568341 36.1245117,14.6259766 C35.9353832,14.995119 35.6767595,15.2879221 35.3486328,15.5043945 C35.0205062,15.720867 34.6525085,15.8837885 34.2446289,15.9931641 C33.8367493,16.1025396 33.3958357,16.1572266 32.921875,16.1572266 Z M42.8886719,16.1503906 C42.369138,16.1503906 41.8689803,16.0820319 41.3881836,15.9453125 C40.9073869,15.8085931 40.4573589,15.6000991 40.0380859,15.3198242 C39.618813,15.0395494 39.253094,14.7000345 38.940918,14.3012695 C38.6287419,13.9025045 38.3826506,13.425133 38.2026367,12.8691406 C38.0226228,12.3131483 37.9326172,11.7093132 37.9326172,11.0576172 C37.9326172,10.2600872 38.0647773,9.52978847 38.3291016,8.86669922 C38.5934258,8.20360997 38.9500303,7.65560112 39.3989258,7.22265625 C39.8478213,6.78971138 40.3627901,6.45475379 40.9438477,6.21777344 C41.5249052,5.98079309 42.1367155,5.86230469 42.7792969,5.86230469 C44.0644596,5.86230469 45.1490841,6.21549126 46.0332031,6.921875 L45.4111328,8.00878906 C44.6637332,7.47558327 43.8297572,7.20898438 42.9091797,7.20898438 C42.2802703,7.20898438 41.7128932,7.37190592 41.2070312,7.69775391 C40.7011693,8.02360189 40.3046889,8.47818719 40.0175781,9.06152344 C39.7304673,9.64485969 39.5869141,10.3033817 39.5869141,11.0371094 C39.5869141,12.1855526 39.904782,13.1004198 40.5405273,13.7817383 C41.1762727,14.4630568 41.9886018,14.8037109 42.9775391,14.8037109 C43.961919,14.8037109 44.8870399,14.4687533 45.7529297,13.7988281 L46.2792969,15.0498047 C45.3222608,15.7835323 44.1920638,16.1503906 42.8886719,16.1503906 Z M52.5615234,16.1572266 C51.0211512,16.1572266 49.8112023,15.6912481 48.9316406,14.7592773 C48.0520789,13.8273065 47.6123047,12.5706459 47.6123047,10.9892578 C47.6123047,9.977534 47.807127,9.08659239 48.1967773,8.31640625 C48.5864277,7.54622011 49.1583621,6.94466362 49.9125977,6.51171875 C50.6668332,6.07877388 51.5566355,5.86230469 52.5820312,5.86230469 C53.5709685,5.86230469 54.4357059,6.07763457 55.1762695,6.50830078 C55.9168331,6.938967 56.483071,7.54052348 56.875,8.31298828 C57.266929,9.08545308 57.4628906,9.977534 57.4628906,10.9892578 C57.4628906,12.5706459 57.0288129,13.8273065 56.1606445,14.7592773 C55.2924761,15.6912481 54.0927811,16.1572266 52.5615234,16.1572266 Z M52.5341797,14.8105469 C53.596034,14.8105469 54.3981093,14.4755893 54.9404297,13.8056641 C55.4827501,13.1357388 55.7539062,12.1969461 55.7539062,10.9892578 C55.7539062,9.82258531 55.4827501,8.90088229 54.9404297,8.22412109 C54.3981093,7.5473599 53.6051484,7.20898438 52.5615234,7.20898438 C51.5133411,7.20898438 50.7089872,7.54963852 50.1484375,8.23095703 C49.5878878,8.91227554 49.3076172,9.83169994 49.3076172,10.9892578 C49.3076172,12.1969461 49.5799126,13.1357388 50.1245117,13.8056641 C50.6691108,14.4755893 51.4723254,14.8105469 52.5341797,14.8105469 Z M62.0634766,16 L58.2900391,6.046875 L60.0605469,6.046875 C60.1334639,6.24739684 60.5265264,7.36278282 61.2397461,9.39306641 C61.9529658,11.42335 62.5009746,12.9580026 62.8837891,13.9970703 C63.0979828,13.4137341 64.0504473,10.7636955 65.7412109,6.046875 L67.4023438,6.046875 L63.6494141,16 L62.0634766,16 Z M68.8310547,16 L68.8310547,6.046875 L74.9902344,6.046875 L74.9902344,7.38671875 L70.4033203,7.38671875 L70.4033203,10.1962891 L74.7304688,10.1962891 L74.7304688,11.5429688 L70.4101562,11.5429688 L70.4101562,14.6601562 L75.1884766,14.6601562 L75.1884766,16 L68.8310547,16 Z M78.7294922,10.3603516 L80.4179688,10.3603516 C80.6458345,10.3603516 80.8520499,10.3466798 81.0366211,10.3193359 C81.2211923,10.2919921 81.3966463,10.2418623 81.5629883,10.1689453 C81.7293303,10.0960283 81.8706049,10.003744 81.9868164,9.89208984 C82.1030279,9.78043564 82.1941728,9.63460376 82.2602539,9.45458984 C82.326335,9.27457592 82.359375,9.06836054 82.359375,8.8359375 C82.359375,8.27083051 82.2215183,7.88802184 81.9458008,7.6875 C81.6700833,7.48697816 81.2132193,7.38671875 80.5751953,7.38671875 L78.7294922,7.38671875 L78.7294922,10.3603516 Z M77.1777344,16 L77.1777344,6.046875 L80.5615234,6.046875 C80.9762391,6.046875 81.345376,6.06852192 81.6689453,6.11181641 C81.9925146,6.15511089 82.3069646,6.23600201 82.6123047,6.35449219 C82.9176448,6.47298236 83.1694326,6.63020735 83.3676758,6.82617188 C83.565919,7.0221364 83.7254226,7.28189942 83.8461914,7.60546875 C83.9669602,7.92903808 84.0273438,8.3072895 84.0273438,8.74023438 C84.0273438,9.32357063 83.8667008,9.82600701 83.5454102,10.2475586 C83.2241195,10.6691102 82.7353548,10.957356 82.0791016,11.1123047 C82.3844416,11.2490241 82.6499012,11.4609361 82.8754883,11.7480469 C83.1010753,12.0351577 83.3072907,12.4065732 83.4941406,12.8623047 L84.7587891,16 L83.0566406,16 L81.9287109,13.0400391 C81.7281891,12.5068333 81.5174165,12.1490895 81.2963867,11.9667969 C81.075357,11.7845043 80.7210311,11.6933594 80.2333984,11.6933594 L78.75,11.6933594 L78.75,16 L77.1777344,16 Z" id="DISCOVER"></path>
            <g id="DiscoverToggle" transform="translate(0.000000, 6.000000)">
                <rect id="Rectangle-18" x="0" y="0" width="4.54545455" height="4.54545455"></rect>
                <rect id="Rectangle-18-Copy-2" x="0" y="5.45454545" width="4.54545455" height="4.54545455"></rect>
                <rect id="Rectangle-18-Copy-3" x="5.45454545" y="5.45454545" width="4.54545455" height="4.54545455"></rect>
                <rect id="Rectangle-18-Copy" x="5.45454545" y="0" width="4.54545455" height="4.54545455"></rect>
            </g>
        </g>
    </g>
</svg>