<?xml version="1.0" encoding="UTF-8"?>
<svg width="67px" height="12px" viewBox="0 0 67 12" version="1.1" xmlns="http://www.w3.org/2000/svg" xmlns:xlink="http://www.w3.org/1999/xlink">
    <!-- Generator: Sketch 55.2 (78181) - https://sketchapp.com -->
    <title>togglePrspSwipe</title>
    <desc>Created with Sketch.</desc>
    <g id="RHP-Search--Desktop-v2" stroke="none" stroke-width="1" fill="none" fill-rule="evenodd">
        <path d="M4.424,11.112 C3.64932946,11.112 2.94233653,11.0093344 2.303,10.804 C1.66366347,10.5986656 1.110669,10.2906687 0.644,9.88 L1.162,8.816 C1.64733576,9.20800196 2.15133072,9.49266578 2.674,9.67 C3.19666928,9.84733422 3.7846634,9.936 4.438,9.936 C5.1846704,9.936 5.76333128,9.7960014 6.174,9.516 C6.58466872,9.2359986 6.79,8.8393359 6.79,8.326 C6.79,7.89666452 6.59866858,7.57233443 6.216,7.353 C5.83333142,7.13366557 5.22667082,6.9306676 4.396,6.744 C3.6026627,6.57599916 2.95400252,6.38233443 2.45,6.163 C1.94599748,5.94366557 1.54933478,5.64966851 1.26,5.281 C0.97066522,4.91233149 0.826,4.43866956 0.826,3.86 C0.826,3.28133044 0.97999846,2.77033555 1.288,2.327 C1.59600154,1.88366445 2.03233051,1.53833457 2.597,1.291 C3.16166949,1.04366543 3.81266298,0.92 4.55,0.92 C5.2500035,0.92 5.90566361,1.02733226 6.517,1.242 C7.12833639,1.45666774 7.63933128,1.75999804 8.05,2.152 L7.532,3.216 C7.07466438,2.83333142 6.60333576,2.55100091 6.118,2.369 C5.63266424,2.18699909 5.11466942,2.096 4.564,2.096 C3.84532974,2.096 3.28066872,2.24766515 2.87,2.551 C2.45933128,2.85433485 2.254,3.26733072 2.254,3.79 C2.254,4.23800224 2.43366487,4.5786655 2.793,4.812 C3.15233513,5.0453345 3.7286627,5.2553324 4.522,5.442 C5.35267082,5.6286676 6.0246641,5.82466564 6.538,6.03 C7.0513359,6.23533436 7.46199846,6.51533156 7.77,6.87 C8.07800154,7.22466844 8.232,7.6819972 8.232,8.242 C8.232,8.82066956 8.07800154,9.32466452 7.77,9.754 C7.46199846,10.1833355 7.02100287,10.5169988 6.447,10.755 C5.87299713,10.9930012 5.19867054,11.112 4.424,11.112 Z M22.498,1.032 L23.912,1.032 L20.398,11 L19.194,11 L16.506,3.3 L13.804,11 L12.6,11 L9.1,1.032 L10.57,1.032 L13.244,8.956 L16.002,1.032 L17.066,1.046 L19.782,8.998 L22.498,1.032 Z M25.48,11 L25.48,1.032 L26.922,1.032 L26.922,11 L25.48,11 Z M29.246,1.032 L33.39,1.032 C34.4353386,1.032 35.2496638,1.28633079 35.833,1.795 C36.4163363,2.30366921 36.708,2.99666228 36.708,3.874 C36.708,4.75133772 36.4116696,5.44433079 35.819,5.953 C35.2263304,6.46166921 34.4166718,6.716 33.39,6.716 L30.688,6.716 L30.688,11 L29.246,11 L29.246,1.032 Z M33.222,5.568 C33.9126701,5.568 34.4329982,5.42333478 34.783,5.134 C35.1330018,4.84466522 35.308,4.42466942 35.308,3.874 C35.308,3.33266396 35.1330018,2.91733478 34.783,2.628 C34.4329982,2.33866522 33.9126701,2.194 33.222,2.194 L30.688,2.194 L30.688,5.568 L33.222,5.568 Z M38.458,11 L38.458,1.032 L44.926,1.032 L44.926,2.208 L39.886,2.208 L39.886,5.344 L44.646,5.344 L44.646,6.52 L39.886,6.52 L39.886,9.824 L44.926,9.824 L44.926,11 L38.458,11 Z M66.034229,2.11392552 C66.5956027,2.15664759 67.0274287,2.64083106 66.9986403,3.21045867 L66.3652956,11.057079 C66.322113,11.6267066 65.8183161,12.0396866 65.2569424,11.9969646 L59.2401678,11.5270218 C58.8083419,11.4842997 58.4628811,11.1994859 58.3333333,10.8149873 L64.2061659,10.3877666 C64.7675396,10.3450445 65.1993656,9.84662034 65.156183,9.29123342 L64.6235977,2 L66.034229,2.11392552 Z M63.7785486,0.964217986 L64.3304791,9.01795394 C64.3718738,9.60050266 63.957926,10.0956691 63.4197938,10.1393602 L63.2266181,10.1539239 C63.4197938,10.0374142 63.5301799,9.83352214 63.5163816,9.58593894 C63.5163816,9.58593894 63.5163816,9.58593894 63.5163816,9.57137522 C63.378399,7.45963614 61.7640024,5.84306346 59.9012371,5.97413692 C58.0384718,6.1197741 56.6724439,7.98392998 56.7966283,10.0811053 C56.7966283,10.0811053 56.7966283,10.0811053 56.7966283,10.0956691 C56.8242248,10.3432523 56.9760057,10.5325806 57.1691813,10.6199629 L56.6172509,10.6636541 C56.0653204,10.7073452 55.5961795,10.2704337 55.5547847,9.70244868 L55.0028543,1.64871272 C54.9614595,1.06616401 55.3754073,0.570997605 55.9135395,0.527306452 L62.7160825,0.00301260994 C63.2680129,-0.0406785435 63.7371538,0.396232991 63.7785486,0.964217986 Z M59.8046493,5.53722538 C60.8119224,5.46440679 61.5570285,4.54689257 61.5018355,3.48374117 C61.4328441,2.42058977 60.5635537,1.61958529 59.5562806,1.69240388 C58.5490075,1.76522247 57.7901031,2.68273669 57.8590944,3.74588809 C57.9280857,4.80903949 58.7973762,5.61004397 59.8046493,5.53722538 Z" id="togglePrspSwipe" fill="#FFFFFF" fill-rule="nonzero"></path>
    </g>
</svg>