<?xml version="1.0" encoding="UTF-8"?>
<svg width="115px" height="14px" viewBox="0 0 115 14" version="1.1" xmlns="http://www.w3.org/2000/svg" xmlns:xlink="http://www.w3.org/1999/xlink">
    <!-- Generator: Sketch 52.4 (67378) - http://www.bohemiancoding.com/sketch -->
    <title>toggleDiscoverRightProspect</title>
    <desc>Created with Sketch.</desc>
    <g id="Page-1" stroke="none" stroke-width="1" fill="none" fill-rule="evenodd">
        <g id="toggleDiscoverRightProspect">
            <path d="M105,2 L109.545455,2 L109.545455,6.54545455 L105,6.54545455 L105,2 Z M105,7.45454545 L109.545455,7.45454545 L109.545455,12 L105,12 L105,7.45454545 Z M110.454545,7.45454545 L115,7.45454545 L115,12 L110.454545,12 L110.454545,7.45454545 Z M110.454545,2 L115,2 L115,6.54545455 L110.454545,6.54545455 L110.454545,2 Z" id="Combined-Shape" fill="#9ED678"></path>
            <path d="M46.5,2 C47.3284271,2 48,2.67157288 48,3.5 L48,10.5 C48,11.3284271 47.3284271,12 46.5,12 C45.6715729,12 45,11.3284271 45,10.5 L45,3.5 C45,2.67157288 45.6715729,2 46.5,2 Z M52.5,2 C53.3284271,2 54,2.67157288 54,3.5 L54,10.5 C54,11.3284271 53.3284271,12 52.5,12 C51.6715729,12 51,11.3284271 51,10.5 L51,3.5 C51,2.67157288 51.6715729,2 52.5,2 Z M58.5,2 C59.3284271,2 60,2.67157288 60,3.5 L60,10.5 C60,11.3284271 59.3284271,12 58.5,12 C57.6715729,12 57,11.3284271 57,10.5 L57,3.5 C57,2.67157288 57.6715729,2 58.5,2 Z M64.5,2 C65.3284271,2 66,2.67157288 66,3.5 L66,10.5 C66,11.3284271 65.3284271,12 64.5,12 C63.6715729,12 63,11.3284271 63,10.5 L63,3.5 C63,2.67157288 63.6715729,2 64.5,2 Z M70.5,2 C71.3284271,2 72,2.67157288 72,3.5 L72,10.5 C72,11.3284271 71.3284271,12 70.5,12 C69.6715729,12 69,11.3284271 69,10.5 L69,3.5 C69,2.67157288 69.6715729,2 70.5,2 Z" id="Combined-Shape" fill="#D8D8D8"></path>
            <path d="M12.8856489,3.12531807 C13.5333878,3.17231235 14.0316485,3.70491417 13.9984311,4.33150454 L13.2676487,12.9627869 C13.2178227,13.5893773 12.6365185,14.0436553 11.9887796,13.996661 L5.04634744,13.479724 C4.54808675,13.4327297 4.14947821,13.1194345 4,12.696486 L10.7763453,12.2265432 C11.4240842,12.1795489 11.9223449,11.6312824 11.8725188,11.0203568 L11.2579973,3 L12.8856489,3.12531807 Z M10.3461466,1.08474523 L10.996636,10.1451982 C11.0454227,10.8005655 10.5575556,11.3576277 9.92332841,11.4067802 L9.69565709,11.4231644 C9.92332841,11.292091 10.0534263,11.0627124 10.0371641,10.7841813 C10.0371641,10.7841813 10.0371641,10.7841813 10.0371641,10.7677971 C9.8745417,8.39209065 7.97185999,6.57344639 5.77645803,6.72090403 C3.58105606,6.88474586 1.97109461,8.98192122 2.11745475,11.3412435 C2.11745475,11.3412435 2.11745475,11.3412435 2.11745475,11.3576277 C2.14997922,11.6361588 2.32886382,11.8491532 2.55653514,11.9474583 L1.90604567,11.9966108 C1.25555619,12.0457634 0.702640143,11.5542379 0.653853433,10.9152548 L0.00336396083,1.85480181 C-0.0454227496,1.19943451 0.442444354,0.642372306 1.07667159,0.593219758 L9.09395433,0.00338918619 C9.74444381,-0.0457633615 10.2973599,0.445762115 10.3461466,1.08474523 Z M5.66262237,6.22937856 C6.84976565,6.14745764 7.72792644,5.11525414 7.66287749,3.91920882 C7.58156631,2.72316349 6.55704539,1.82203345 5.36990211,1.90395436 C4.18275882,1.98587527 3.28833579,3.01807878 3.36964698,4.2141241 C3.45095816,5.41016943 4.47547908,6.31129947 5.66262237,6.22937856 Z" id="Combined-Shape" fill="#D8D8D8" fill-rule="nonzero"></path>
        </g>
    </g>
</svg>