<?xml version="1.0" encoding="UTF-8"?>
<svg width="90px" height="12px" viewBox="0 0 90 12" version="1.1" xmlns="http://www.w3.org/2000/svg" xmlns:xlink="http://www.w3.org/1999/xlink">
    <!-- Generator: Sketch 55.2 (78181) - https://sketchapp.com -->
    <title>togglePrsptWhite</title>
    <desc>Created with Sketch.</desc>
    <g id="RHP-Search--Desktop-v2" stroke="none" stroke-width="1" fill="none" fill-rule="evenodd">
        <path d="M20.162,1.032 L23.648,1.032 C25.2626747,1.032 26.5133289,1.46599566 27.4,2.334 C28.2866711,3.20200434 28.73,4.42465878 28.73,6.002 C28.73,7.5886746 28.2866711,8.81832897 27.4,9.691 C26.5133289,10.563671 25.2626747,11 23.648,11 L20.162,11 L20.162,1.032 Z M23.564,9.796 C26.0186789,9.796 27.246,8.53134598 27.246,6.002 C27.246,3.49132078 26.0186789,2.236 23.564,2.236 L21.604,2.236 L21.604,9.796 L23.564,9.796 Z M30.704,11 L30.704,1.032 L32.146,1.032 L32.146,11 L30.704,11 Z M37.732,11.112 C36.9573295,11.112 36.2503365,11.0093344 35.611,10.804 C34.9716635,10.5986656 34.418669,10.2906687 33.952,9.88 L34.47,8.816 C34.9553358,9.20800196 35.4593307,9.49266578 35.982,9.67 C36.5046693,9.84733422 37.0926634,9.936 37.746,9.936 C38.4926704,9.936 39.0713313,9.7960014 39.482,9.516 C39.8926687,9.2359986 40.098,8.8393359 40.098,8.326 C40.098,7.89666452 39.9066686,7.57233443 39.524,7.353 C39.1413314,7.13366557 38.5346708,6.9306676 37.704,6.744 C36.9106627,6.57599916 36.2620025,6.38233443 35.758,6.163 C35.2539975,5.94366557 34.8573348,5.64966851 34.568,5.281 C34.2786652,4.91233149 34.134,4.43866956 34.134,3.86 C34.134,3.28133044 34.2879985,2.77033555 34.596,2.327 C34.9040015,1.88366445 35.3403305,1.53833457 35.905,1.291 C36.4696695,1.04366543 37.120663,0.92 37.858,0.92 C38.5580035,0.92 39.2136636,1.02733226 39.825,1.242 C40.4363364,1.45666774 40.9473313,1.75999804 41.358,2.152 L40.84,3.216 C40.3826644,2.83333142 39.9113358,2.55100091 39.426,2.369 C38.9406642,2.18699909 38.4226694,2.096 37.872,2.096 C37.1533297,2.096 36.5886687,2.24766515 36.178,2.551 C35.7673313,2.85433485 35.562,3.26733072 35.562,3.79 C35.562,4.23800224 35.7416649,4.5786655 36.101,4.812 C36.4603351,5.0453345 37.0366627,5.2553324 37.83,5.442 C38.6606708,5.6286676 39.3326641,5.82466564 39.846,6.03 C40.3593359,6.23533436 40.7699985,6.51533156 41.078,6.87 C41.3860015,7.22466844 41.54,7.6819972 41.54,8.242 C41.54,8.82066956 41.3860015,9.32466452 41.078,9.754 C40.7699985,10.1833355 40.3290029,10.5169988 39.755,10.755 C39.1809971,10.9930012 38.5066705,11.112 37.732,11.112 Z M47.714,11.112 C46.7526619,11.112 45.9150036,10.9043354 45.201,10.489 C44.4869964,10.0736646 43.9386686,9.48333716 43.556,8.718 C43.1733314,7.95266284 42.982,7.04733856 42.982,6.002 C42.982,4.96599482 43.1733314,4.06533716 43.556,3.3 C43.9386686,2.53466284 44.4869964,1.94666872 45.201,1.536 C45.9150036,1.12533128 46.7526619,0.92 47.714,0.92 C48.3953367,0.92 49.0276638,1.02499895 49.611,1.235 C50.1943363,1.44500105 50.6866647,1.75066466 51.088,2.152 L50.584,3.216 C50.117331,2.83333142 49.6576689,2.55566753 49.205,2.383 C48.7523311,2.21033247 48.2600027,2.124 47.728,2.124 C46.6919948,2.124 45.8916695,2.45999664 45.327,3.132 C44.7623305,3.80400336 44.48,4.76066046 44.48,6.002 C44.48,7.25267292 44.7623305,8.21632995 45.327,8.893 C45.8916695,9.56967005 46.6919948,9.908 47.728,9.908 C48.2600027,9.908 48.7523311,9.82166753 49.205,9.649 C49.6576689,9.47633247 50.117331,9.19866858 50.584,8.816 L51.088,9.88 C50.6866647,10.2813353 50.1943363,10.586999 49.611,10.797 C49.0276638,11.0070011 48.3953367,11.112 47.714,11.112 Z M57.024,11.112 C56.0813286,11.112 55.2623368,10.9043354 54.567,10.489 C53.8716632,10.0736646 53.3350019,9.48333716 52.957,8.718 C52.5789981,7.95266284 52.39,7.05200518 52.39,6.016 C52.39,4.97066144 52.5766648,4.06533716 52.95,3.3 C53.3233352,2.53466284 53.8599965,1.94666872 54.56,1.536 C55.2600035,1.12533128 56.0813286,0.92 57.024,0.92 C57.9760048,0.92 58.7996632,1.12533128 59.495,1.536 C60.1903368,1.94666872 60.7246648,2.53466284 61.098,3.3 C61.4713352,4.06533716 61.658,4.96599482 61.658,6.002 C61.658,7.04733856 61.4713352,7.95266284 61.098,8.718 C60.7246648,9.48333716 60.1880035,10.0736646 59.488,10.489 C58.7879965,10.9043354 57.9666714,11.112 57.024,11.112 Z M57.024,9.936 C58.0226717,9.936 58.7996639,9.59533674 59.355,8.914 C59.9103361,8.23266326 60.188,7.2620063 60.188,6.002 C60.188,4.75132708 59.9103361,3.78767005 59.355,3.111 C58.7996639,2.43432995 58.0226717,2.096 57.024,2.096 C56.0253283,2.096 55.2506694,2.43432995 54.7,3.111 C54.1493306,3.78767005 53.874,4.75132708 53.874,6.002 C53.874,7.2620063 54.1516639,8.23266326 54.707,8.914 C55.2623361,9.59533674 56.0346617,9.936 57.024,9.936 Z M70.73,1.032 L72.214,1.032 L67.818,11 L66.6,11 L62.204,1.032 L63.716,1.032 L67.216,9.18 L70.73,1.032 Z M73.32,11 L73.32,1.032 L79.788,1.032 L79.788,2.208 L74.748,2.208 L74.748,5.344 L79.508,5.344 L79.508,6.52 L74.748,6.52 L74.748,9.824 L79.788,9.824 L79.788,11 L73.32,11 Z M89.588,11 L88.062,11 L86.816,7.682 C86.6853327,7.32733156 86.4940013,7.08233401 86.242,6.947 C85.9899987,6.81166599 85.6446689,6.744 85.206,6.744 L83.022,6.744 L83.022,11 L81.594,11 L81.594,1.032 L85.696,1.032 C86.7880055,1.032 87.6256638,1.27466424 88.209,1.76 C88.7923363,2.24533576 89.084,2.94066214 89.084,3.846 C89.084,4.4993366 88.9113351,5.05466438 88.566,5.512 C88.2206649,5.96933562 87.7306698,6.2913324 87.096,6.478 C87.6746696,6.58066718 88.0946654,6.99132974 88.356,7.71 L89.588,11 Z M85.528,5.582 C86.2560036,5.582 86.7973316,5.43966809 87.152,5.155 C87.5066684,4.87033191 87.684,4.44333618 87.684,3.874 C87.684,3.30466382 87.5090018,2.88233471 87.159,2.607 C86.8089983,2.33166529 86.265337,2.194 85.528,2.194 L83.022,2.194 L83.022,5.582 L85.528,5.582 Z M11.034229,2.11392552 C11.5956027,2.15664759 12.0274287,2.64083106 11.9986403,3.21045867 L11.3652956,11.057079 C11.322113,11.6267066 10.8183161,12.0396866 10.2569424,11.9969646 L4.24016778,11.5270218 C3.80834185,11.4842997 3.46288111,11.1994859 3.33333333,10.8149873 L9.20616594,10.3877666 C9.76753964,10.3450445 10.1993656,9.84662034 10.156183,9.29123342 L9.62359767,2 L11.034229,2.11392552 Z M8.7785486,0.964217986 L9.33047906,9.01795394 C9.37187385,9.60050266 8.957926,10.0956691 8.4197938,10.1393602 L8.22661814,10.1539239 C8.4197938,10.0374142 8.53017989,9.83352214 8.51638163,9.58593894 C8.51638163,9.58593894 8.51638163,9.58593894 8.51638163,9.57137522 C8.37839902,7.45963614 6.76400242,5.84306346 4.90123711,5.97413692 C3.03847181,6.1197741 1.67244391,7.98392998 1.79662827,10.0811053 C1.79662827,10.0811053 1.79662827,10.0811053 1.79662827,10.0956691 C1.82422479,10.3432523 1.97600567,10.5325806 2.16918133,10.6199629 L1.61725087,10.6636541 C1.06532041,10.7073452 0.596179516,10.2704337 0.554784731,9.70244868 L0.0028542698,1.64871272 C-0.0385405148,1.06616401 0.375407331,0.570997605 0.913539531,0.527306452 L7.71608246,0.00301260994 C8.26801293,-0.0406785435 8.73715382,0.396232991 8.7785486,0.964217986 Z M4.80464928,5.53722538 C5.81192237,5.46440679 6.5570285,4.54689257 6.50183545,3.48374117 C6.43284414,2.42058977 5.56355367,1.61958529 4.55628057,1.69240388 C3.54900748,1.76522247 2.7901031,2.68273669 2.85909441,3.74588809 C2.92808571,4.80903949 3.79737619,5.61004397 4.80464928,5.53722538 Z" id="togglePrsptWhite" fill="#FFFFFF" fill-rule="nonzero"></path>
    </g>
</svg>