<?xml version="1.0" encoding="UTF-8"?>
<svg width="20px" height="20px" viewBox="0 0 20 20" version="1.1" xmlns="http://www.w3.org/2000/svg" xmlns:xlink="http://www.w3.org/1999/xlink">
    <!-- Generator: Sketch 55 (78076) - https://sketchapp.com -->
    <title>Path</title>
    <desc>Created with Sketch.</desc>
    <g id="Page-1" stroke="none" stroke-width="1" fill="none" fill-rule="evenodd">
        <g id="rhp-home-forgot" transform="translate(-878.000000, -231.000000)" fill="#FFFFFF" fill-rule="nonzero">
            <g id="Group-9" transform="translate(750.000000, 221.000000)">
                <g id="Group-10" transform="translate(128.000000, 10.000000)">
                    <g id="facebook-icon">
                        <path d="M18.8981481,0 L1.10185185,0 C0.490740741,0 0,0.490740741 0,1.10185185 L0,18.8981481 C0,19.5092593 0.490740741,20 1.10185185,20 L10.6851852,20 L10.6851852,12.2592593 L8.07407407,12.2592593 L8.07407407,9.24074074 L10.6759259,9.24074074 L10.6759259,7.01851852 C10.6759259,4.43518519 12.25,3.02777778 14.5555556,3.02777778 C15.6574074,3.02777778 16.6111111,3.11111111 16.8888889,3.14814815 L16.8888889,5.85185185 L15.287037,5.85185185 C14.037037,5.85185185 13.787037,6.44444444 13.787037,7.32407407 L13.787037,9.25 L16.7777778,9.25 L16.3888889,12.2685185 L13.7962963,12.2685185 L13.7962963,20 L18.8888889,20 C19.5,20 19.9907407,19.5092593 19.9907407,18.8981481 L19.9907407,1.10185185 C20,0.490740741 19.5092593,0 18.8981481,0 Z" id="Path"></path>
                    </g>
                </g>
            </g>
        </g>
    </g>
</svg>