<?xml version="1.0" encoding="UTF-8"?>
<svg width="25px" height="25px" viewBox="0 0 25 25" version="1.1" xmlns="http://www.w3.org/2000/svg" xmlns:xlink="http://www.w3.org/1999/xlink">
    <!-- Generator: Sketch 55 (78076) - https://sketchapp.com -->
    <title>icBlockChatRoomDesktop</title>
    <desc>Created with Sketch.</desc>
    <defs>
        <path d="M21.6681368,4.00416816 C21.6672987,4.00333006 21.66674,4.00221259 21.6659019,4.00109512 C21.6645051,3.99969828 21.6628289,3.99858082 21.6614321,3.99718398 C20.4163134,2.65231092 18.8613816,1.56473494 17.0578172,0.861847399 C16.5761963,0.673553996 16.0775342,0.513756034 15.5760785,0.386923386 C14.5645068,0.130185053 13.5272338,0 12.4930338,0 C6.77504188,0 1.79791936,3.87593867 0.389373569,9.42528607 C-0.431952217,12.6614742 0.055535367,16.0233774 1.76216095,18.8916391 C3.46906591,21.7601801 6.19117423,23.7920168 9.42730957,24.6130766 C10.4391606,24.8698149 11.476713,25 12.5111923,25 C16.4803749,25 20.2506514,23.0832626 22.5970171,19.8724969 C23.5395862,18.5823798 24.2189959,17.1363758 24.6154113,15.5738758 C25.6864872,11.3531982 24.4620413,7.02691981 21.6681368,4.00416816 Z M2.10171119,9.76876815 C3.30323661,4.83601671 7.54814356,1.39105802 12.4242604,1.39105802 C13.3060229,1.39105802 14.1912727,1.50679387 15.0555984,1.73547002 C15.4837374,1.84813077 15.9086573,1.99014481 16.3196279,2.15759837 C17.6362357,2.69266701 18.7961813,3.47877623 19.7696878,4.44324166 L4.07233091,19.391058 C3.78395408,19.0091856 3.51516005,18.6074648 3.27292351,18.1828205 C1.81708997,15.6332771 1.40129082,12.6451116 2.10171119,9.76876815 Z M22.8392107,15.2254864 C22.503026,16.6035524 21.927889,17.8787281 21.1300497,19.0157921 C19.1427771,21.8470814 15.9495549,23.537424 12.5882404,23.537424 C11.7120823,23.537424 10.8329939,23.422331 9.97521666,23.1957502 C8.13099568,22.708754 6.48550197,21.7364256 5.1647382,20.3833195 L20.770689,5.53742401 C22.8304198,8.16626045 23.689529,11.7360867 22.8392107,15.2254864 Z" id="path-1"></path>
    </defs>
    <g id="Page-1" stroke="none" stroke-width="1" fill="none" fill-rule="evenodd">
        <mask id="mask-2" fill="white">
            <use xlink:href="#path-1"></use>
        </mask>
        <use id="icBlockChatRoomDesktop" fill="#333333" fill-rule="nonzero" xlink:href="#path-1"></use>
    </g>
</svg>