<?xml version="1.0" encoding="UTF-8"?>
<svg width="29px" height="28px" viewBox="0 0 29 28" version="1.1" xmlns="http://www.w3.org/2000/svg" xmlns:xlink="http://www.w3.org/1999/xlink">
    <!-- Generator: Sketch 55 (78076) - https://sketchapp.com -->
    <title>icReportChatRoom</title>
    <desc>Created with Sketch.</desc>
    <defs>
        <path d="M6.63180452,2.25132208 C3.70168892,2.25132208 1.3263609,4.55154968 1.3263609,7.38902421 L1.3263609,21.5177051 C1.3263609,24.3551796 3.70168892,26.6554072 6.63180452,26.6554072 L21.8849549,26.6554072 C24.8150705,26.6554072 27.1903985,24.3551796 27.1903985,21.5177051 L27.1903985,7.38902421 C27.1903985,4.55154968 24.8150705,2.25132208 21.8849549,2.25132208 L6.63180452,2.25132208 Z M6.63180452,0.966896552 L21.8849549,0.966896552 C25.5475994,0.966896552 28.5167594,3.84218104 28.5167594,7.38902421 L28.5167594,21.5177051 C28.5167594,25.0645482 25.5475994,27.9398327 21.8849549,27.9398327 L6.63180452,27.9398327 C2.96916002,27.9398327 -1.91257516e-13,25.0645482 -1.91846539e-13,21.5177051 L-1.90668494e-13,7.38902421 C-1.91257516e-13,3.84218104 2.96916002,0.966896552 6.63180452,0.966896552 Z M14.265441,6.76 C14.7004364,6.76 15.3727019,7.32465497 15.3727019,7.76831244 L14.9772516,17.0447869 C14.9772516,17.4884444 14.6213463,17.8514368 14.186351,17.8514368 C13.7513556,17.8514368 13.3954503,17.4884444 13.3954503,17.0447869 L13.1977252,7.80864494 C13.1977252,7.36498746 13.8699907,6.76 14.265441,6.76 Z M14.186351,19.8680617 C14.8586165,19.8680617 15.3727019,20.3923842 15.3727019,21.0780366 C15.3727019,21.7636891 14.8586165,22.2880116 14.186351,22.2880116 C13.5140854,22.2880116 13,21.7636891 13,21.0780366 C13,20.3923842 13.5140854,19.8680617 14.186351,19.8680617 Z" id="path-1"></path>
    </defs>
    <g id="Page-1" stroke="none" stroke-width="1" fill="none" fill-rule="evenodd">
        <mask id="mask-2" fill="white">
            <use xlink:href="#path-1"></use>
        </mask>
        <use id="icReportChatRoom" fill="#333333" fill-rule="nonzero" xlink:href="#path-1"></use>
    </g>
</svg>