<?xml version="1.0" encoding="UTF-8"?>
<svg width="24px" height="29px" viewBox="0 0 24 29" version="1.1" xmlns="http://www.w3.org/2000/svg" xmlns:xlink="http://www.w3.org/1999/xlink">
    <!-- Generator: Sketch 55 (78076) - https://sketchapp.com -->
    <title>icViewProfile</title>
    <desc>Created with Sketch.</desc>
    <g id="Page-1" stroke="none" stroke-width="1" fill="none" fill-rule="evenodd">
        <path d="M11.8787274,17.2854545 C8.37411102,17.2854545 5.54469594,14.4630545 5.57684838,11.0312727 L5.57684838,7.05425455 C5.57684838,3.5904 8.40626346,0.768 11.8787274,0.768 C15.3511914,0.768 18.1806065,3.5904 18.1806065,7.05425455 L18.1806065,10.9992 C18.1806065,14.4630545 15.3511914,17.2854545 11.8787274,17.2854545 Z M6.6384146,6.85984853 L6.6384146,11.1904704 C6.6384146,13.8663018 9.1676752,16.0844253 11.8501574,16.0844253 C14.5326396,16.0844253 17.2284135,13.8663018 17.2284135,11.1904704 L17.2284135,6.82464023 C17.2284135,4.14880881 14.5326396,2.00110201 11.8501574,2.00110201 C9.1676752,2.00110201 6.6384146,4.18401712 6.6384146,6.85984853 Z M23.1642353,27.9656727 C23.1642353,28.4788364 22.7462535,28.8957818 22.2639669,28.8957818 L1.36487821,28.8957818 C0.850439105,28.8957818 0.432457332,28.4788364 0.432457332,27.9656727 L0.432457332,25.8168 C0.432457332,24.0207273 1.33272577,22.3850182 2.87604308,21.4228364 L7.28092792,18.6966545 C8.11689147,18.1514182 9.08146479,17.8948364 10.0460381,17.8948364 L13.4220447,17.8948364 C14.3866181,17.8948364 15.3190389,18.1514182 16.1550025,18.6645818 L20.6884971,21.4228364 C22.199662,22.3529455 23.1642353,24.0528 23.1642353,25.8488727 L23.1642353,27.9656727 Z M1.7152707,27.8144772 L21.9395329,27.6885281 L21.9395329,25.9811565 C21.9395329,24.7832848 21.4304423,23.2494268 20.1688987,22.5073185 L15.4992295,19.6015597 C14.91596,19.2593107 14.1398424,19.0876408 13.4879529,19.0876408 L9.88540598,19.0876408 C9.23351653,19.0876408 8.56114277,19.2593107 7.97787326,19.6015597 L3.42903286,22.5073185 C2.36542376,23.1575917 1.7152707,24.1721469 1.7152707,25.4042435 L1.7152707,27.8144772 Z" id="icViewProfile" fill="#333333" fill-rule="nonzero"></path>
    </g>
</svg>