<?xml version="1.0" encoding="UTF-8"?>
<svg width="26px" height="26px" viewBox="0 0 26 26" version="1.1" xmlns="http://www.w3.org/2000/svg" xmlns:xlink="http://www.w3.org/1999/xlink">
    <!-- Generator: Sketch 55 (78076) - https://sketchapp.com -->
    <title>icWhisper</title>
    <desc>Created with Sketch.</desc>
    <g id="Page-1" stroke="none" stroke-width="1" fill="none" fill-rule="evenodd">
        <path d="M16.9243802,14.975902 C16.8374562,15.2820959 16.7611181,15.6223058 16.6970557,15.9871444 C16.6334406,16.3467342 16.601633,16.6564105 16.601633,16.9070383 C16.601633,17.522 16.7539117,17.9316044 17.0664705,18.1619942 C17.4079046,18.4109061 17.8366604,18.5375322 18.3392196,18.5375322 C19.2917563,18.5375322 20.1179076,18.3260681 20.7947622,17.9100542 C21.4792705,17.4888925 22.0466873,16.9233902 22.481407,16.2287383 C22.9250229,15.5203084 23.2571136,14.7041783 23.4687331,13.8010905 C23.6828874,12.8850827 23.7914803,11.9251166 23.7914803,10.9457705 C23.7914803,9.58573859 23.5276765,8.31049422 23.0077225,7.15546641 C22.4856315,6.00170031 21.7528154,4.9823325 20.8282595,4.12830031 C19.9024611,3.27558031 18.7938688,2.59985422 17.531308,2.12181422 C16.2662125,1.64377422 14.8751791,1.40086812 13.3971719,1.40086812 C11.7720548,1.40086812 10.2605502,1.71952781 8.90256683,2.34831797 C7.54458341,2.97836984 6.35622367,3.83754984 5.37063704,4.90259187 C4.385448,5.96934984 3.60298237,7.21658406 3.04615151,8.60805797 C2.48932066,9.99953187 2.20727719,11.4655481 2.20727719,12.9659841 C2.20727719,14.5564058 2.48464893,16.074102 3.03089383,17.4784959 C3.57629385,18.8816281 4.3574673,20.126238 5.35284469,21.1800759 C6.34563772,22.2326017 7.55516936,23.0749756 8.9466501,23.6835278 C10.3359938,24.2907678 11.8885996,24.5995356 13.5629687,24.5995356 C15.4043771,24.5995356 17.1351549,24.1874078 18.7081375,23.3725898 C20.2887737,22.5526241 21.6230009,21.4979281 22.6726499,20.2352 L22.8808899,19.9845722 L23.8605623,20.8459223 L23.6574413,21.0900902 C22.4423931,22.5539362 20.9571795,23.73652 19.2450886,24.6069041 C17.5274811,25.4785498 15.6160464,25.92 13.5629687,25.92 C11.6727556,25.92 9.92289327,25.5771658 8.36313073,24.9006322 C6.80585315,24.226622 5.45338636,23.2890641 4.34479398,22.1163722 C3.23873626,20.9471122 2.3676071,19.5646722 1.75734951,18.0047841 C1.14873199,16.4462081 0.84,14.7511142 0.84,12.9659841 C0.84,11.1808539 1.16652434,9.48318609 1.81117384,7.92329797 C2.45537605,6.36598375 3.3553308,4.98828781 4.48598966,3.82937391 C5.61575394,2.67172172 6.95718749,1.74839594 8.47251887,1.08301594 C9.98780054,0.417635937 11.6502915,0.08 13.4149642,0.08 C15.1029012,0.08 16.6826429,0.353035937 18.109758,0.890528125 C19.5364259,1.43099797 20.7891959,2.19499391 21.8337756,3.16142 C22.8808899,4.13168172 23.7049042,5.29579391 24.2846464,6.62009391 C24.8652335,7.94828 25.16,9.40304172 25.16,10.9452658 C25.16,12.1812455 25.0103057,13.3539373 24.7151416,14.4332116 C24.4191327,15.5184916 23.9827232,16.4711397 23.4182387,17.2657197 C22.8473926,18.0663559 22.1281445,18.70418 21.2790818,19.1632437 C20.4266396,19.6240234 19.4410032,19.8578956 18.3498056,19.8578956 C17.430816,19.8578956 16.661471,19.5934898 16.0617994,19.0736617 C15.6436295,18.7093278 15.395978,18.2045898 15.3204847,17.5633339 C15.2679029,17.6352519 15.2140289,17.7076241 15.158465,17.779542 C14.8649907,18.1602783 14.5151077,18.5043742 14.1177122,18.8015342 C13.7215592,19.0974325 13.2682022,19.3480603 12.768625,19.5491783 C12.258412,19.7541319 11.700289,19.8579461 11.1091159,19.8579461 C10.395782,19.8579461 9.77235412,19.7214281 9.25538209,19.4518241 C8.74263451,19.1861061 8.31174166,18.8346922 7.97458167,18.40702 C7.63826657,17.98066 7.39061501,17.482382 7.23664661,16.926822 C7.08610745,16.3867559 7.00932205,15.823878 7.00932205,15.2571139 C7.00932205,14.2424902 7.17004956,13.180022 7.48643524,12.0994861 C7.80321852,11.0189502 8.26378185,10.014622 8.85371243,9.11496609 C9.44960692,8.20794172 10.182423,7.45257594 11.0306408,6.87203391 C11.8974958,6.2759475 12.8729438,5.97363969 13.9281094,5.97363969 C15.0239788,5.97363969 15.9056939,6.27983359 16.5498961,6.88449969 C16.9629966,7.27295766 17.2700388,7.75357156 17.4680905,8.31776172 L17.9452037,6.57961797 L19.3192897,6.57961797 L16.9243802,14.975902 Z M16.2729716,12.632638 C16.5083475,11.708 16.627924,10.9478902 16.6279737,10.3720417 C16.6279737,9.95860172 16.571565,9.55247969 16.4587476,9.16790781 C16.3489122,8.79494375 16.1835129,8.46331359 15.9659294,8.18124375 C15.7521728,7.90558344 15.4854367,7.69285766 15.1516562,7.53221562 C14.8182734,7.37545969 14.4065148,7.29450781 13.9281094,7.29450781 C13.0718403,7.29450781 12.2983206,7.54599359 11.628225,8.04083969 C10.9356654,8.55203766 10.3444427,9.20752578 9.87115631,9.98661187 C9.39145875,10.778618 9.01826678,11.6567742 8.76296152,12.5977641 C8.50641378,13.541782 8.37620164,14.4487559 8.37620164,15.2911298 C8.37620164,16.22354 8.61624922,17.01166 9.08998285,17.6361098 C9.54970129,18.2420377 10.2643274,18.5366237 11.2745152,18.5366237 C12.1281999,18.5366237 12.8597735,18.2394637 13.5133191,17.6283377 C14.1897762,16.9943997 14.7648467,16.2304037 15.2220304,15.3574458 C15.6830411,14.4745959 16.0367509,13.5585881 16.2729716,12.632638 Z" id="icWhisper" fill="#333333" fill-rule="nonzero"></path>
    </g>
</svg>