<?xml version="1.0" encoding="UTF-8"?>
<svg width="28px" height="20px" viewBox="0 0 28 20" version="1.1" xmlns="http://www.w3.org/2000/svg" xmlns:xlink="http://www.w3.org/1999/xlink">
    <!-- Generator: Sketch 52.6 (67491) - http://www.bohemiancoding.com/sketch -->
    <title>icCameraLine</title>
    <desc>Created with Sketch.</desc>
    <defs>
        <path d="M27.3904489,0.57792238 C27.255054,0.525931257 27.1248581,0.49982624 26.9997518,0.49982624 C26.7184542,0.49982624 26.4843314,0.598992467 26.296672,0.796777645 L19.9997655,7.07818097 L19.9997655,4.50007799 C19.9997655,3.26033597 19.5596497,2.2005927 18.6794181,1.32030089 C17.7991318,0.44011854 16.7395046,0 15.4996609,0 L4.49988566,0 C3.26042503,0 2.20046948,0.44011854 1.32012845,1.32030089 C0.440115787,2.2005927 0,3.26033597 0,4.50007799 L0,15.5000862 C0,16.7397188 0.440115787,17.7994073 1.32018318,18.6796444 C2.20052421,19.5598815 3.26047976,20 4.49994039,20 L15.4997703,20 C16.7395593,20 17.7992412,19.5598815 18.6795275,18.6796444 C19.5597591,17.7994073 19.9998749,16.7397735 19.9998749,15.5000862 L19.9998749,12.906167 L26.2967815,19.2031676 C26.4844409,19.4008981 26.7185636,19.5000096 26.9998612,19.5000096 C27.1249675,19.5000096 27.2551634,19.4739593 27.3905584,19.4220776 C27.797017,19.2449247 28,18.9377393 28,18.5002476 L28,1.500026 C27.9998358,1.06231547 27.7968528,0.755075291 27.3904489,0.57792238 Z" id="path-1"></path>
    </defs>
    <g id="Page-1" stroke="none" stroke-width="1" fill="none" fill-rule="evenodd">
        <g id="Chatrooms_OpenChat_Avalaibility" transform="translate(-318.000000, -36.000000)">
            <g id="UI/HeaderLive-Copy" transform="translate(17.000000, 25.000000)">
                <g id="LiveGreen" transform="translate(301.000000, 11.000000)">
                    <g id="colour/primary-green">
                        <mask id="mask-2" fill="white">
                            <use xlink:href="#path-1"></use>
                        </mask>
                        <path stroke="#333333" d="M27.2009453,1.04082041 C27.1248371,1.01264532 27.0582519,0.99982624 26.9997518,0.99982624 C26.8548103,0.99982624 26.752056,1.04325633 26.6497894,1.15076653 L19.4997655,8.2831868 L19.4997655,4.50007799 C19.4997655,3.39316926 19.1124864,2.46052983 18.3258856,1.67387516 C17.53916,0.887242452 16.6066154,0.5 15.4996609,0.5 L4.49988566,0.5 C3.39318358,0.5 2.46034224,0.887335679 1.6737379,1.67379821 C0.887247026,2.46053857 0.5,3.39321689 0.5,4.50007799 L0.5,15.5000862 C0.5,16.6068499 0.887254687,17.5394575 1.67371569,18.3260701 C2.46039479,19.1126563 3.3932264,19.5 4.49994039,19.5 L15.4997703,19.5 C16.6067034,19.5 17.5392868,19.1127344 18.3259731,18.3260921 C19.1126114,17.5394489 19.4998749,16.606919 19.4998749,15.5000862 L19.4998749,11.6990474 L20.3534309,12.5526162 L26.6594501,18.8589708 C26.7520996,18.9565925 26.8548657,19.0000096 26.9998612,19.0000096 C27.0611049,19.0000096 27.1311573,18.9860255 27.1907859,18.9637208 C27.4156065,18.8657339 27.5,18.7380656 27.5,18.5002476 L27.5,1.50021354 C27.4999121,1.26571776 27.4180307,1.13822216 27.2009453,1.04082041 Z"></path>
                    </g>
                </g>
            </g>
        </g>
    </g>
</svg>