<?xml version="1.0" encoding="UTF-8"?>
<svg width="27px" height="19px" viewBox="0 0 27 19" version="1.1" xmlns="http://www.w3.org/2000/svg" xmlns:xlink="http://www.w3.org/1999/xlink">
    <!-- Generator: Sketch 55.2 (78181) - https://sketchapp.com -->
    <title>icCameraGreen</title>
    <desc>Created with Sketch.</desc>
    <g id="Main-screens-Stage-1" stroke="none" stroke-width="1" fill="none" fill-rule="evenodd">
        <g id="1---Conversation-active-now-----Green-" transform="translate(-306.000000, -80.000000)" fill="#7BCB45" fill-rule="nonzero">
            <path d="M332.412219,80.5490263 C332.281659,80.4996347 332.156113,80.4748349 332.035475,80.4748349 C331.764224,80.4748349 331.538462,80.5690428 331.357505,80.7569388 L325.285488,86.7242719 L325.285488,84.2750741 C325.285488,83.0973192 324.861091,82.0905631 324.012296,81.2542858 C323.163449,80.4181126 322.141665,80 320.946102,80 L310.339175,80 C309.143981,80 308.121881,80.4181126 307.272981,81.2542858 C306.424397,82.0905631 306,83.0973192 306,84.2750741 L306,94.7250819 C306,95.9027328 306.424397,96.9094369 307.273034,97.7456622 C308.121934,98.5818874 309.144034,99 310.339228,99 L320.946207,99 C322.141718,99 323.163554,98.5818874 324.012402,97.7456622 C324.861196,96.9094369 325.285594,95.9027848 325.285594,94.7250819 L325.285594,92.2608586 L331.357611,98.2430092 C331.538568,98.4308532 331.764329,98.5250091 332.03558,98.5250091 C332.156219,98.5250091 332.281765,98.5002613 332.412324,98.4509737 C332.804266,98.2826785 333,97.9908523 333,97.5752353 L333,81.4250247 C333,81.0091997 332.804108,80.7173215 332.412219,80.5490263 Z" id="icCameraGreen"></path>
        </g>
    </g>
</svg>