<?xml version="1.0" encoding="UTF-8"?>
<svg width="22px" height="22px" viewBox="0 0 22 22" version="1.1" xmlns="http://www.w3.org/2000/svg" xmlns:xlink="http://www.w3.org/1999/xlink">
    <!-- Generator: Sketch 52.1 (67048) - http://www.bohemiancoding.com/sketch -->
    <title>icFullScreen</title>
    <desc>Created with Sketch.</desc>
    <g id="Page-1" stroke="none" stroke-width="1" fill="none" fill-rule="evenodd">
        <g id="Desktop--Watcher" transform="translate(-901.000000, -708.000000)" fill="#FFFFFF" fill-rule="nonzero">
            <g id="Group-14" transform="translate(16.000000, 193.000000)">
                <g id="Group-8" transform="translate(638.000000, 350.000000)">
                    <g id="Group-13" transform="translate(0.000000, 149.000000)">
                        <g id="Fullscreen" transform="translate(232.000000, 1.000000)">
                            <g transform="translate(15.000000, 15.000000)" id="icFullScreen">
                                <path d="M8.10526316,2.31578947 L2.31578947,2.31578947 L2.31578947,8.10526316 L0,8.10526316 L0,0 L8.10526316,0 L8.10526316,2.31578947 Z M13.8947368,2.31578947 L13.8947368,0 L22,0 L22,8.10526316 L19.6842105,8.10526316 L19.6842105,2.31578947 L13.8947368,2.31578947 Z M8.10526316,19.6842105 L8.10526316,22 L0,22 L0,13.8947368 L2.31578947,13.8947368 L2.31578947,19.6842105 L8.10526316,19.6842105 Z M13.8947368,19.6842105 L19.6842105,19.6842105 L19.6842105,13.8947368 L22,13.8947368 L22,22 L13.8947368,22 L13.8947368,19.6842105 Z"></path>
                            </g>
                        </g>
                    </g>
                </g>
            </g>
        </g>
    </g>
</svg>