<?xml version="1.0" encoding="UTF-8"?>
<svg width="22px" height="22px" viewBox="0 0 22 22" version="1.1" xmlns="http://www.w3.org/2000/svg" xmlns:xlink="http://www.w3.org/1999/xlink">
    <!-- Generator: Sketch 52.1 (67048) - http://www.bohemiancoding.com/sketch -->
    <title>icHalfScreen</title>
    <desc>Created with Sketch.</desc>
    <g id="Page-1" stroke="none" stroke-width="1" fill="none" fill-rule="evenodd">
        <g id="Desktop---Fullscreen-Interface" transform="translate(-900.000000, -1150.000000)" fill="#FFFFFF" fill-rule="nonzero">
            <g id="Group-4" transform="translate(16.000000, 192.000000)">
                <g id="Group-8" transform="translate(638.000000, 853.000000)">
                    <g id="Group-13" transform="translate(0.000000, 90.000000)">
                        <g id="Fullscreen" transform="translate(232.000000, 1.000000)">
                            <g transform="translate(14.000000, 14.000000)" id="icHalfScreen">
                                <path d="M0,5.78947368 L5.78947368,5.78947368 L5.78947368,0 L8.10526316,0 L8.10526316,8.10526316 L0,8.10526316 L0,5.78947368 Z M22,5.78947368 L22,8.10526316 L13.8947368,8.10526316 L13.8947368,0 L16.2105263,0 L16.2105263,5.78947368 L22,5.78947368 Z M0,16.2105263 L0,13.8947368 L8.10526316,13.8947368 L8.10526316,22 L5.78947368,22 L5.78947368,16.2105263 L0,16.2105263 Z M22,16.2105263 L16.2105263,16.2105263 L16.2105263,22 L13.8947368,22 L13.8947368,13.8947368 L22,13.8947368 L22,16.2105263 Z"></path>
                            </g>
                        </g>
                    </g>
                </g>
            </g>
        </g>
    </g>
</svg>