<?xml version="1.0" encoding="UTF-8"?>
<svg width="15px" height="23px" viewBox="0 0 15 23" version="1.1" xmlns="http://www.w3.org/2000/svg" xmlns:xlink="http://www.w3.org/1999/xlink">
    <!-- Generator: Sketch 51.3 (57544) - http://www.bohemiancoding.com/sketch -->
    <title>icMic</title>
    <desc>Created with Sketch.</desc>
    <defs></defs>
    <g id="Page-1" stroke="none" stroke-width="1" fill="none" fill-rule="evenodd">
        <g id="messenger---call-back" transform="translate(-216.000000, -613.000000)" fill="#FFFFFF" fill-rule="nonzero">
            <g id="Group-13" transform="translate(58.000000, 599.000000)">
                <g id="icMic" transform="translate(158.000000, 14.000000)">
                    <path d="M7.50013682,15.9230769 C8.64616513,15.9230769 9.62691142,15.4899692 10.4428774,14.6241409 C11.2587065,13.7583127 11.6666667,12.7166948 11.6666667,11.5002555 L11.6666667,4.42330554 C11.6666667,3.20686626 11.2590257,2.16568409 10.4428774,1.29942014 C9.62691142,0.433349838 8.64616513,0 7.50013682,0 C6.35424534,0 5.37336223,0.433349838 4.55735067,1.29942014 C3.74129351,2.16553885 3.33333333,3.20686626 3.33333333,4.42330554 L3.33333333,11.5002555 C3.33333333,12.7166464 3.74147594,13.7583127 4.55735067,14.6241409 C5.37322541,15.4899692 6.35424534,15.9230769 7.50013682,15.9230769 Z" id="Shape"></path>
                    <path d="M14.7521366,9.10883857 C14.5876848,8.93373156 14.391948,8.84615385 14.1662486,8.84615385 C13.9407773,8.84615385 13.7454965,8.93373156 13.5803606,9.10883857 C13.4155896,9.28389717 13.3331357,9.49119832 13.3331357,9.73069359 L13.3331357,11.5000151 C13.3331357,13.2048032 12.7622518,14.6629309 11.6207576,15.8746405 C10.4796282,17.0863985 9.10586754,17.6922774 7.49988599,17.6922774 C5.89395004,17.6922774 4.52032617,17.0863985 3.37878636,15.8746405 C2.23738337,14.6632698 1.66672747,13.2048516 1.66672747,11.5000151 L1.66672747,9.73069359 C1.66672747,9.49119832 1.58422795,9.28389717 1.41936573,9.10883857 C1.25441229,8.93373156 1.05931392,8.84615385 0.833477749,8.84615385 C0.607641581,8.84615385 0.412315186,8.93373156 0.247452958,9.10883857 C0.0824539161,9.28389717 0,9.49119832 0,9.73069359 L0,11.5000151 C0,13.5364753 0.640294791,15.3080722 1.92051953,16.8145154 C3.20078988,18.321007 4.78278318,19.1848263 6.66654505,19.4058281 L6.66654505,21.2305332 L3.33331813,21.2305332 C3.10761878,21.2305332 2.91233799,21.3182078 2.74743016,21.4933148 C2.58247672,21.6682765 2.4999772,21.8756745 2.4999772,22.1152666 C2.4999772,22.3544714 2.58247672,22.5622567 2.74743016,22.7372184 C2.91233799,22.9121802 3.10761878,23 3.33331813,23 L11.6662258,23 C11.8918796,23 12.087434,22.9122286 12.2521138,22.7372184 C12.4172497,22.5623051 12.4997948,22.3545198 12.4997948,22.1152666 C12.4997948,21.8757229 12.4172497,21.668325 12.2521138,21.4933148 C12.0874796,21.3182078 11.8919252,21.2305332 11.6662258,21.2305332 L8.33340934,21.2305332 L8.33340934,19.4058281 C10.216852,19.1848263 11.7987085,18.321007 13.0791156,16.8145154 C14.3595228,15.3080722 15,13.5364753 15,11.5000151 L15,9.73069359 C15,9.49124673 14.9173181,9.28409082 14.7521366,9.10883857 Z" id="Shape"></path>
                </g>
            </g>
        </g>
    </g>
</svg>