<?xml version="1.0" encoding="UTF-8"?>
<svg width="24px" height="24px" viewBox="0 0 24 24" version="1.1" xmlns="http://www.w3.org/2000/svg" xmlns:xlink="http://www.w3.org/1999/xlink">
    <!-- Generator: Sketch 51.3 (57544) - http://www.bohemiancoding.com/sketch -->
    <title>icMute</title>
    <desc>Created with Sketch.</desc>
    <defs></defs>
    <g id="Page-1" stroke="none" stroke-width="1" fill="none" fill-rule="evenodd">
        <g id="buttons-states" transform="translate(-70.000000, -340.000000)" fill="#FFFFFF">
            <g id="Group-12-Copy" transform="translate(57.000000, 326.000000)">
                <g id="Group-7">
                    <g id="Group-6">
                        <g id="Group-15">
                            <g id="mute" transform="translate(13.000000, 14.000000)">
                                <g id="icMute">
                                    <path d="M17.2041985,0.0773255647 C16.9336832,-0.0556631895 16.6331107,-0.0113336048 16.4076813,0.165984734 L9.75,5.3820992 L17.625,13.125 L17.625,0.742269335 C17.625,0.461515299 17.4596851,0.195537791 17.2041985,0.0773255647 Z" id="Shape" fill-rule="nonzero"></path>
                                    <path d="M5.93855138,7.00026785 L5.49903568,7.00026785 C5.03401907,7.00026785 4.62900461,7.2102641 4.35899496,7.54025821 C4.13398693,7.79525366 3.99898211,8.1402475 3.99898211,8.50024107 L3.99898211,14.5001339 C3.99898211,15.3251192 4.67400621,16.0001071 5.49903568,16.0001071 L8.97915997,16.0001071 L16.2844209,21.8350029 C16.4194257,21.9400011 16.5844316,22 16.7494375,22 C16.8544412,22 16.9744455,21.9700005 17.0794493,21.9250013 C17.3344584,21.8050035 17.4994643,21.5350083 17.4994643,21.2500134 L17.4994643,18.5605614 L5.93855138,7.00026785 Z" id="Shape" fill-rule="nonzero"></path>
                                    <rect id="Rectangle-10" transform="translate(12.020815, 12.020815) rotate(-45.000000) translate(-12.020815, -12.020815) " x="11.0208153" y="-3.97918472" width="2" height="32" rx="1"></rect>
                                </g>
                            </g>
                        </g>
                    </g>
                </g>
            </g>
        </g>
    </g>
</svg>