<?xml version="1.0" encoding="UTF-8"?>
<svg width="26px" height="23px" viewBox="0 0 26 23" version="1.1" xmlns="http://www.w3.org/2000/svg" xmlns:xlink="http://www.w3.org/1999/xlink">
    <!-- Generator: Sketch 52.4 (67378) - http://www.bohemiancoding.com/sketch -->
    <title>icOffCamera</title>
    <desc>Created with Sketch.</desc>
    <g id="icOffCamera" stroke="none" stroke-width="1" fill="none" fill-rule="evenodd">
        <path d="M15.092049,18.6665624 L7.31250211,18.6665624 C5.62625459,18.6665624 4.25869979,17.1600791 4.25869979,15.3025274 L4.25869979,7.81454995 C4.25869979,7.76621298 4.25962581,7.71811372 4.26145938,7.67027255 L0.275755048,3.62358984 C-0.0920117609,3.25019646 -0.0919048902,2.65071863 0.275995028,2.27745641 C0.63692364,1.9112671 1.22636918,1.90700246 1.59255849,2.26793107 C1.59583534,2.27116084 1.59908819,2.27441486 1.60231679,2.27769285 L20.4129861,21.3761518 C20.7807529,21.7495452 20.7806461,22.349023 20.4127462,22.7222852 C20.0518175,23.0884745 19.462372,23.0927392 19.0961827,22.7318106 C19.0929058,22.7285808 19.089653,22.7253268 19.0864244,22.7220488 L15.092049,18.6665624 Z M18.6847647,17.3418512 L6.20394733,4.67912022 C6.547611,4.5315188 6.92148848,4.45051498 7.31250211,4.45051498 L16.2601026,4.45051498 C17.9463501,4.45051498 19.3139049,5.95699828 19.3139049,7.81454995 L19.3139049,8.43225254 L22.7267408,6.26362762 C23.2713423,5.90811534 23.9571367,6.34806179 23.9571367,7.04131074 L23.9571367,16.0668788 C23.9571367,16.7645717 23.2713423,17.2000742 22.7227067,16.8534497 L19.3098708,14.6848248 L19.3098708,15.3025274 C19.3098708,16.0691788 19.0769229,16.7760296 18.6847647,17.3418512 Z" id="Combined-Shape" fill="#FFFFFF" fill-rule="nonzero"></path>
    </g>
</svg>