<?xml version="1.0" encoding="UTF-8"?>
<svg width="21px" height="21px" viewBox="0 0 21 21" version="1.1" xmlns="http://www.w3.org/2000/svg" xmlns:xlink="http://www.w3.org/1999/xlink">
    <!-- Generator: Sketch 51.3 (57544) - http://www.bohemiancoding.com/sketch -->
    <title>icRefresh</title>
    <desc>Created with Sketch.</desc>
    <defs></defs>
    <g id="Page-1" stroke="none" stroke-width="1" fill="none" fill-rule="evenodd">
        <g id="messenger---call-back" transform="translate(-283.000000, -614.000000)" fill="#FFFFFF" fill-rule="nonzero">
            <g id="Group-13" transform="translate(58.000000, 599.000000)">
                <g id="Group-12">
                    <g id="Group-7">
                        <g id="Group-23" transform="translate(210.000000, 0.000000)">
                            <g id="icRefresh" transform="translate(15.000000, 15.000000)">
                                <path d="M20.737374,1.13452087 C20.5622577,0.96154846 20.3546766,0.874774925 20.1148245,0.874774925 C19.8750692,0.874774925 19.6677788,0.96154846 19.4923233,1.13452087 L17.6940137,2.89848509 C16.7072281,1.97778532 15.5773065,1.26439384 14.3046849,0.758645884 C13.0321603,0.252850036 11.7221799,0 10.3756161,0 C7.83928868,0 5.62596218,0.758693772 3.73524892,2.27641653 C1.84448721,3.79394774 0.599484993,5.77393592 0,8.21685995 L0,8.31249282 C0,8.43096838 0.0437548455,8.53359293 0.131409901,8.62007914 C0.219064957,8.70670901 0.322758611,8.74995211 0.442636228,8.74995211 L3.19555737,8.74995211 C3.39853528,8.74995211 3.53677733,8.64507681 3.61062272,8.43556566 C3.99792336,7.52415621 4.24223336,6.99096827 4.34379499,6.83595396 C4.98931222,5.7968744 5.84701379,4.98104993 6.91689971,4.38857632 C7.98688255,3.7961506 9.13967494,3.49981802 10.3754223,3.49981802 C12.2293582,3.49981802 13.8386449,4.1242331 15.2037186,5.37296749 L13.2943017,7.25962144 C13.1195246,7.43283329 13.0316273,7.6380345 13.0316273,7.87503352 C13.0316273,8.11198465 13.1194761,8.31709009 13.2943017,8.49025405 C13.4697572,8.66346591 13.6773383,8.75 13.917142,8.75 L20.1148245,8.75 C20.3546281,8.75 20.5622093,8.66346591 20.737374,8.49025405 C20.9124419,8.31709009 21,8.11203254 21,7.87503352 L21,1.74978929 C21,1.51279027 20.9129749,1.30778061 20.737374,1.13452087 Z" id="Shape"></path>
                                <path d="M19.6983341,12.2505746 L17.1411376,12.2505746 C16.9457651,12.2505746 16.8125778,12.3553023 16.7417156,12.5649969 C16.3689777,13.4764672 16.1334858,14.0093953 16.0359395,14.1644037 C15.4142743,15.203204 14.5884662,16.0192845 13.558702,16.6116876 C12.528518,17.2042821 11.4186548,17.5002682 10.2288792,17.5002682 C9.3676634,17.5002682 8.53737694,17.3363529 7.73834635,17.0083309 C6.93922245,16.6799257 6.22434944,16.2149964 5.59400723,15.6133992 L7.41874344,13.7404651 C7.58738517,13.5674515 7.67177601,13.3621144 7.67177601,13.1252682 C7.67177601,12.8883261 7.58738517,12.6829891 7.41874344,12.5100712 C7.2500084,12.3367223 7.0502974,12.25 6.81942384,12.25 L0.852492124,12.25 C0.621478608,12.25 0.421674308,12.3367223 0.252985925,12.5100712 C0.0842975413,12.683037 0,12.888374 0,13.1253161 L0,19.2503256 C0,19.487124 0.0842975413,19.6924131 0.253032575,19.8655226 C0.421860911,20.0383926 0.62166521,20.1254501 0.852538775,20.1254501 C1.08336569,20.1254501 1.28307669,20.0384405 1.45185837,19.8655226 L3.16995143,18.1017217 C4.12008315,19.0311973 5.20120961,19.74686 6.41323751,20.2481352 C7.62526542,20.7496019 8.87946541,21 10.1757442,21 C12.6088036,21 14.7308437,20.2412395 16.5421912,18.7237664 C18.3535387,17.2063413 19.543361,15.2260458 20.1118912,12.7834548 C20.1208015,12.765258 20.125,12.7333177 20.125,12.6879214 C20.125,12.5692588 20.082688,12.4670692 19.9983438,12.3801553 C19.9139063,12.2940076 19.8139341,12.2505746 19.6983341,12.2505746 Z" id="Shape"></path>
                            </g>
                        </g>
                    </g>
                </g>
            </g>
        </g>
    </g>
</svg>