<?xml version="1.0" encoding="UTF-8"?>
<svg width="23px" height="19px" viewBox="0 0 23 19" version="1.1" xmlns="http://www.w3.org/2000/svg" xmlns:xlink="http://www.w3.org/1999/xlink">
    <!-- Generator: Sketch 51.3 (57544) - http://www.bohemiancoding.com/sketch -->
    <title>icSpeaker</title>
    <desc>Created with Sketch.</desc>
    <defs></defs>
    <g id="Page-1" stroke="none" stroke-width="1" fill="none" fill-rule="evenodd">
        <g id="messenger---call-back" transform="translate(-72.000000, -615.000000)" fill="#FFFFFF" fill-rule="nonzero">
            <g id="Group-13" transform="translate(58.000000, 599.000000)">
                <g id="speaker-filled-audio-tool" transform="translate(14.000000, 16.000000)">
                    <path d="M10.9064468,17.889089 C10.764795,17.9560831 10.6130075,17.9884677 10.4622089,17.9884677 C10.2234033,17.9884677 9.98682252,17.9063937 9.79572856,17.7479316 L4.08565314,13.0163166 L1.04446569,13.0163166 C0.467722863,13.016811 0,12.5488409 0,11.9720981 L0,7.81079843 C0,7.23380839 0.467722863,6.76608553 1.04446569,6.76608553 L4.08590036,6.76608553 L9.79597577,2.03447052 C10.1079558,1.77588801 10.5405747,1.72076 10.906694,1.89380757 C11.2728132,2.06561909 11.507169,2.4339632 11.507169,2.83889452 L11.5069218,16.944002 C11.5069218,17.3491805 11.2728132,17.7172774 10.9064468,17.889089 Z M15.5208838,15.3119162 C15.4954211,15.3136467 15.4709472,15.3146355 15.4457317,15.3146355 C15.1698445,15.3146355 14.9038456,15.2056156 14.707313,15.0088357 L14.5676389,14.8686672 C14.2012725,14.5030424 14.1582578,13.9238275 14.4667769,13.5080189 C15.2489519,12.4534175 15.661794,11.2032725 15.661794,9.89181908 C15.661794,8.48123417 15.1930823,7.15816188 14.3060899,6.06549008 C13.9683999,5.65017591 13.9995485,5.04698152 14.3780282,4.66874897 L14.5174551,4.52907486 C14.7261011,4.32042893 15.0056965,4.20671196 15.3082825,4.22475835 C15.6029578,4.239591 15.8781035,4.37827626 16.0649948,4.60669906 C17.2953631,6.11221292 17.9452803,7.94008969 17.9452803,9.89206629 C17.9452803,11.7100546 17.3705152,13.4405303 16.2827876,14.8956132 C16.1010876,15.138127 15.8232227,15.2904089 15.5208838,15.3119162 Z M19.8391624,18.5397478 C19.6502933,18.7629792 19.3771253,18.8969674 19.0846749,18.909328 C19.0703367,18.9098224 19.0557513,18.9103168 19.0409186,18.9103168 C18.7642897,18.9103168 18.4987853,18.8010497 18.3022527,18.6045171 L18.1650507,18.4673151 C17.7816267,18.0841383 17.7556696,17.4713027 18.1042368,17.0564829 C19.7887313,15.0530865 20.7167607,12.5087928 20.7167607,9.89181908 C20.7167607,7.16978079 19.7232205,4.54934615 17.9198176,2.51331787 C17.5541928,2.09998139 17.5727336,1.47429082 17.9618434,1.08369773 L18.0987982,0.946495725 C18.3020055,0.742299592 18.5660267,0.629818671 18.8688599,0.639459893 C19.1563661,0.64761785 19.428298,0.774684209 19.6193919,0.989757618 C21.7992969,3.44406659 22.9999998,6.60589292 22.9999998,9.89181908 C23.0004943,13.0533982 21.8779099,16.1247454 19.8391624,18.5397478 Z" id="icSpeaker"></path>
                </g>
            </g>
        </g>
    </g>
</svg>