<?xml version="1.0" encoding="UTF-8"?>
<svg width="16px" height="16px" viewBox="0 0 16 16" version="1.1" xmlns="http://www.w3.org/2000/svg" xmlns:xlink="http://www.w3.org/1999/xlink">
    <!-- Generator: Sketch 51.3 (57544) - http://www.bohemiancoding.com/sketch -->
    <title>icSetting</title>
    <desc>Created with Sketch.</desc>
    <defs></defs>
    <g id="Page-1" stroke="none" stroke-width="1" fill="none" fill-rule="evenodd">
        <g id="Call-incoming---start" transform="translate(-322.000000, -440.000000)" fill="#FFFFFF" fill-rule="nonzero">
            <g id="Group-28" transform="translate(30.000000, 431.000000)">
                <g id="Group-12">
                    <g id="Group-15" transform="translate(292.000000, 9.000000)">
                        <path d="M15.9499344,7.11169332 C15.9246329,6.88678292 15.6623897,6.71777269 15.4356282,6.71777269 C14.7024784,6.71777269 14.051901,6.28729966 13.779061,5.62155773 C13.5003271,4.93968273 13.6800575,4.14445956 14.226452,3.64326298 C14.398443,3.48604001 14.4193391,3.22285079 14.2750905,3.04002923 C13.8998536,2.56353827 13.4733586,2.13312477 13.0076909,1.76009973 C12.8253411,1.61377105 12.5577995,1.63413086 12.3996797,1.80921331 C11.9228198,2.33731817 11.0662579,2.53359387 10.4043693,2.25742676 C9.71557162,1.96768644 9.28121833,1.26973791 9.32372494,0.520532665 C9.33771521,0.285204232 9.16572417,0.0805941075 8.93110434,0.053269101 C8.33351136,-0.0158470918 7.73067948,-0.0179902296 7.13130052,0.0485065727 C6.89935967,0.0741051626 6.72736863,0.273893227 6.73516746,0.50624508 C6.76124294,1.2480684 6.32165074,1.93381296 5.63969941,2.21313524 C4.98572862,2.48025355 4.13517962,2.28564474 3.65927225,1.76224287 C3.50198587,1.58983934 3.23879016,1.56864609 3.05554737,1.71146241 C2.57606801,2.08764262 2.13998826,2.51841331 1.76129839,2.99097519 C1.61359684,3.17468972 1.63532641,3.44097459 1.80904392,3.599031 C2.36585674,4.10326369 2.54564661,4.90539253 2.25637542,5.5951257 C1.9802015,6.2527118 1.29735717,6.67651729 0.515628404,6.67651729 C0.261957987,6.66836146 0.0812751143,6.83862185 0.0535327029,7.06924729 C-0.0168353877,7.67027837 -0.0176688507,8.28267998 0.0500797848,8.88859265 C0.075202741,9.11445556 0.345423353,9.28197749 0.574685211,9.28197749 C1.27134121,9.26417754 1.94019527,9.69548402 2.22077464,10.378252 C2.50046101,11.060127 2.32067113,11.8548739 1.77344314,12.3564872 C1.60228556,12.5137102 1.58055599,12.7764827 1.72480462,12.9593042 C2.09652912,13.4327591 2.52308358,13.8635893 2.99041819,14.23971 C3.17372052,14.3874079 3.44042868,14.3665718 3.59932245,14.1914894 C4.07796834,13.6620748 4.93447064,13.4661563 5.59373988,13.7428592 C6.28426397,14.0317066 6.71861726,14.7295956 6.67611065,15.4792175 C6.66223944,15.714665 6.83506395,15.9196323 7.06873126,15.9465406 C7.37443358,15.9822001 7.68198143,16 7.99036274,16 C8.28308685,16 8.5758705,15.9839265 8.86859461,15.9513627 C9.10059499,15.9257641 9.27246697,15.725976 9.26466814,15.4932075 C9.23781872,14.7518008 9.67818485,14.0660563 10.3592432,13.7872103 C11.0176194,13.518306 11.8645964,13.7151175 12.3405633,14.2379836 C12.4987427,14.4100299 12.7600929,14.4308064 12.9443478,14.2884664 C13.4229341,13.9131791 13.8581209,13.4827656 14.2385967,13.0088941 C14.3862387,12.8255963 14.3654022,12.5588947 14.1907917,12.4008978 C13.6339789,11.8966651 13.453296,11.0944172 13.7425672,10.4051603 C14.0145143,9.75632532 14.6719975,9.32067304 15.3791909,9.32067304 L15.4781348,9.3232329 C15.7075157,9.34186629 15.9185605,9.16517649 15.9463624,8.93103869 C16.0168496,8.32947182 16.017683,7.71760599 15.9499344,7.11169332 Z M8.00003675,11.2941176 C6.18348962,11.2941176 4.70588235,9.81652686 4.70588235,8 C4.70588235,6.18354663 6.18348962,4.70588235 8.00003675,4.70588235 C9.81651038,4.70588235 11.2941176,6.18354663 11.2941176,8 C11.2941176,9.81652686 9.81651038,11.2941176 8.00003675,11.2941176 Z" id="icSetting"></path>
                    </g>
                </g>
            </g>
        </g>
    </g>
</svg>