<?xml version="1.0" encoding="UTF-8"?>
<svg width="18px" height="13px" viewBox="0 0 18 13" version="1.1" xmlns="http://www.w3.org/2000/svg" xmlns:xlink="http://www.w3.org/1999/xlink">
    <!-- Generator: Sketch 51.3 (57544) - http://www.bohemiancoding.com/sketch -->
    <title>icVideoCallGreen</title>
    <desc>Created with Sketch.</desc>
    <defs></defs>
    <g id="Page-1" stroke="none" stroke-width="1" fill="none" fill-rule="evenodd">
        <g id="messenger---back-to-message-thread-copy-3" transform="translate(-64.000000, -152.000000)" fill="#7EC34D" fill-rule="nonzero">
            <g id="Group-2" transform="translate(10.000000, 11.000000)">
                <g id="Group-4" transform="translate(40.000000, 127.000000)">
                    <path d="M32,16.3691779 L32,24.6226946 C32,25.2607065 31.3733361,25.6589559 30.8720049,25.3419819 L27.7534303,23.3588621 L27.7534303,23.9237262 C27.7534303,25.622382 26.5037887,27 24.9629326,27 L16.7904976,27 C15.2496416,27 14,25.622382 14,23.9237262 L14,17.0762738 C14,15.377618 15.2496416,14 16.7904976,14 L24.9666189,14 C26.5074749,14 27.7571165,15.377618 27.7571165,17.0762738 L27.7571165,17.6411379 L30.8756912,15.6580181 C31.3733361,15.3329165 32,15.7352298 32,16.3691779 Z" id="icVideoCallGreen"></path>
                </g>
            </g>
        </g>
    </g>
</svg>