<?xml version="1.0" encoding="UTF-8"?>
<svg width="30px" height="21px" viewBox="0 0 30 21" version="1.1" xmlns="http://www.w3.org/2000/svg" xmlns:xlink="http://www.w3.org/1999/xlink">
    <!-- Generator: Sketch 52.1 (67048) - http://www.bohemiancoding.com/sketch -->
    <title>icVideoCallCircle70</title>
    <desc>Created with Sketch.</desc>
    <g id="Page-1" stroke="none" stroke-width="1" fill="none" fill-rule="evenodd">
        <g id="Desktop--Callback" transform="translate(-870.000000, -612.000000)" fill="#FFFFFF" fill-rule="nonzero">
            <g id="Group-8" transform="translate(16.000000, 193.000000)">
                <g id="Group-10" transform="translate(638.000000, 388.000000)">
                    <g id="Group-14">
                        <path d="M246,34.8271335 L246,48.1597374 C246,49.190372 244.95556,49.833698 244.120008,49.321663 L238.922384,46.1181619 L238.922384,47.0306346 C238.922384,49.7746171 236.839648,52 234.271554,52 L220.650829,52 C218.082736,52 216,49.7746171 216,47.0306346 L216,35.9693654 C216,33.2253829 218.082736,31 220.650829,31 L234.277698,31 C236.845792,31 238.928528,33.2253829 238.928528,35.9693654 L238.928528,36.8818381 L244.126152,33.678337 C244.95556,33.1531729 246,33.8030635 246,34.8271335 Z" id="icVideoCallCircle70"></path>
                    </g>
                </g>
            </g>
        </g>
    </g>
</svg>