<?xml version="1.0" encoding="UTF-8"?>
<svg width="19px" height="13px" viewBox="0 0 19 13" version="1.1" xmlns="http://www.w3.org/2000/svg" xmlns:xlink="http://www.w3.org/1999/xlink">
    <!-- Generator: Sketch 51.3 (57544) - http://www.bohemiancoding.com/sketch -->
    <title>icVideoCall</title>
    <desc>Created with Sketch.</desc>
    <defs></defs>
    <g id="Page-1" stroke="none" stroke-width="1" fill="none" fill-rule="evenodd">
        <g id="1---Conversation" transform="translate(-304.000000, -84.000000)" fill="#FFFFFF" fill-rule="nonzero">
            <g id="Group-12" transform="translate(293.000000, 76.000000)">
                <path d="M29.5863761,8.37564955 C29.4945009,8.34185532 29.4061537,8.32488706 29.3212601,8.32488706 C29.1303796,8.32488706 28.9715106,8.3893451 28.8441703,8.51790547 L24.5712694,12.6008176 L24.5712694,10.9250507 C24.5712694,10.1192184 24.2726194,9.43038525 23.6753194,8.85819558 C23.0779823,8.28607705 22.3589496,8 21.517627,8 L14.0534938,8 C13.2124313,8 12.4931757,8.28607705 11.8958014,8.85819558 C11.29865,9.43038525 11,10.1192184 11,10.9250507 L11,18.075056 C11,18.8808172 11.29865,19.5696147 11.8958386,20.1417688 C12.4932129,20.7139229 13.2124684,21 14.053531,21 L21.5177013,21 C22.3589867,21 23.0780566,20.7139229 23.6753937,20.1417688 C24.2726937,19.5696147 24.5713437,18.8808528 24.5713437,18.075056 L24.5713437,16.3890085 L28.8442446,20.482059 C28.9715849,20.6105838 29.1304539,20.6750062 29.3213344,20.6750062 C29.406228,20.6750062 29.4945752,20.6580735 29.5864503,20.6243505 C29.8622615,20.5092011 30,20.3095305 30,20.025161 L30,8.9750169 C29.9998886,8.69050505 29.8621501,8.49079894 29.5863761,8.37564955 Z" id="icVideoCall"></path>
            </g>
        </g>
    </g>
</svg>