<?xml version="1.0" encoding="UTF-8"?>
<svg width="64px" height="64px" viewBox="0 0 64 64" version="1.1" xmlns="http://www.w3.org/2000/svg" xmlns:xlink="http://www.w3.org/1999/xlink">
    <!-- Generator: Sketch 55.2 (78181) - https://sketchapp.com -->
    <title>icCheckUg</title>
    <desc>Created with Sketch.</desc>
    <g id="Web-upgrade" stroke="none" stroke-width="1" fill="none" fill-rule="evenodd">
        <g id="Payment-Options-received" transform="translate(-156.000000, -204.000000)" fill="#7BCB45" fill-rule="nonzero">
            <path d="M219.233333,235.867463 C219.233333,253.146092 205.146092,267.233333 187.867463,267.233333 C170.588556,267.233333 156.5,253.145815 156.5,235.867463 C156.5,218.588834 170.588834,204.5 187.867463,204.5 C205.145815,204.5 219.233333,218.588556 219.233333,235.867463 Z M216.233333,235.867463 C216.233333,220.245361 203.488911,207.5 187.867463,207.5 C172.245688,207.5 159.5,220.245688 159.5,235.867463 C159.5,251.488911 172.245361,264.233333 187.867463,264.233333 C203.489238,264.233333 216.233333,251.489238 216.233333,235.867463 Z M198.236483,224.162963 L202.8,228.647976 L183.30315,247.807407 L172.933333,237.615976 L177.495475,233.130963 L183.30315,238.835354 L198.236483,224.162963 Z" id="icCheckUg"></path>
        </g>
    </g>
</svg>