<?xml version="1.0" encoding="UTF-8"?>
<svg width="55px" height="39px" viewBox="0 0 55 39" version="1.1" xmlns="http://www.w3.org/2000/svg" xmlns:xlink="http://www.w3.org/1999/xlink">
    <!-- Generator: Sketch 55.2 (78181) - https://sketchapp.com -->
    <title>icDiamondUg</title>
    <desc>Created with Sketch.</desc>
    <g id="Web-upgrade" stroke="none" stroke-width="1" fill="none" fill-rule="evenodd">
        <g id="iPhone-Premium-(1)-Copy-9" transform="translate(-253.000000, -141.000000)" fill="#FFFFFF" fill-rule="nonzero">
            <g id="PlatinumDiamond" transform="translate(253.000000, 141.000000)">
                <path d="M36.8636719,2 L41.6307432,10 L50.8006949,10 L43.1195192,2 L36.8636719,2 Z M34.5355158,2 L20.8545849,2 L15.7562113,10 L39.3025871,10 L34.5355158,2 Z M18.4829634,2 L11.2363582,2 L4.09611036,10 L13.3845899,10 L18.4829634,2 Z M31.4855546,30.6998021 L50.4101295,12 L41.5412266,12 L31.4855546,30.6998021 Z M23.4327616,30.5479007 L13.4587734,12 L4.59645335,12 L23.4327616,30.5479007 Z M15.7296029,12 L27.5,33.8885518 L39.2703971,12 L15.7296029,12 Z M28.2593177,36.6994003 L27.5,38.1114482 L26.6408238,36.5137006 L0.619921798,10.8912114 L10.3406653,-3.55271368e-15 L43.9718646,-3.55271368e-15 L54.4040501,10.8651966 L28.2593177,36.6994003 Z" id="icDiamondUg"></path>
            </g>
        </g>
    </g>
</svg>