<?xml version="1.0" encoding="UTF-8"?>
<svg width="64px" height="64px" viewBox="0 0 64 64" version="1.1" xmlns="http://www.w3.org/2000/svg" xmlns:xlink="http://www.w3.org/1999/xlink">
    <!-- Generator: Sketch 55.2 (78181) - https://sketchapp.com -->
    <title>icFailedUg</title>
    <desc>Created with Sketch.</desc>
    <g id="Web-upgrade" stroke="none" stroke-width="1" fill="none" fill-rule="evenodd">
        <g id="Payment-Options-failed" transform="translate(-158.000000, -92.000000)" fill="#FF0400" fill-rule="nonzero">
            <g id="Page-1" transform="translate(158.000000, 92.000000)">
                <path d="M63.2333333,31.8674631 C63.2333333,49.1460925 49.1460925,63.2333333 31.8674631,63.2333333 C14.5885558,63.2333333 0.5,49.1458145 0.5,31.8674631 C0.5,14.5888338 14.5888338,0.5 31.8674631,0.5 C49.1458145,0.5 63.2333333,14.5885558 63.2333333,31.8674631 Z M60.2333333,31.8674631 C60.2333333,16.2453606 47.4889108,3.5 31.8674631,3.5 C16.245688,3.5 3.5,16.245688 3.5,31.8674631 C3.5,47.4889108 16.2453606,60.2333333 31.8674631,60.2333333 C47.4892382,60.2333333 60.2333333,47.4892382 60.2333333,31.8674631 Z M34.8129498,32.8000488 L42.3216138,40.216022 C43.0127954,40.8986712 43.0127954,42.0053638 42.3216138,42.6880131 C41.6304323,43.3706623 40.5098085,43.3706623 39.8187258,42.6880131 L32.3099629,35.2719422 L24.8012,42.6880131 C24.1100185,43.3706623 22.9894935,43.3706623 22.298312,42.6880131 C21.6072293,42.0054615 21.6072293,40.8986712 22.298312,40.216022 L29.8070749,32.7999512 L22.298312,25.383978 C21.6072293,24.7014264 21.6072293,23.5946362 22.298312,22.9119869 C22.9894935,22.2293377 24.1100185,22.2293377 24.8012,22.9119869 L32.3099629,30.3281554 L39.8187258,22.9120846 C40.5099074,22.2294354 41.6304323,22.2294354 42.3216138,22.9120846 C43.0127954,23.5946362 43.0127954,24.7014264 42.3216138,25.3840756 L34.8129498,32.8000488 Z" id="icFailedUg"></path>
            </g>
        </g>
    </g>
</svg>