<?xml version="1.0" encoding="UTF-8"?>
<svg width="29px" height="26px" viewBox="0 0 29 26" version="1.1" xmlns="http://www.w3.org/2000/svg" xmlns:xlink="http://www.w3.org/1999/xlink">
    <!-- Generator: Sketch 55.2 (78181) - https://sketchapp.com -->
    <title>icAddFriendOptionActive</title>
    <desc>Created with Sketch.</desc>
    <defs>
        <path d="M10.3060066,14.7477273 C7.17688484,14.7477273 4.65062138,12.2277273 4.67932891,9.16363636 L4.67932891,5.61272727 C4.67932891,2.52 7.20559238,3.19744231e-14 10.3060066,3.19744231e-14 C13.4064209,3.19744231e-14 15.9326843,2.52 15.9326843,5.61272727 L15.9326843,9.135 C15.9326843,12.2277273 13.4064209,14.7477273 10.3060066,14.7477273 Z M5.62715589,5.43915048 L5.62715589,9.30577717 C5.62715589,11.6949124 7.88542429,13.6753797 10.2804977,13.6753797 C12.6755711,13.6753797 15.0825121,11.6949124 15.0825121,9.30577717 L15.0825121,5.40771449 C15.0825121,3.01857929 12.6755711,1.10098394 10.2804977,1.10098394 C7.88542429,1.10098394 5.62715589,3.05001528 5.62715589,5.43915048 Z M20.3823529,24.2836364 C20.3823529,24.7418182 20.0091549,25.1140909 19.5785418,25.1140909 L0.918641259,25.1140909 C0.45932063,25.1140909 0.0861226181,24.7418182 0.0861226181,24.2836364 L0.0861226181,22.365 C0.0861226181,20.7613636 0.88993372,19.3009091 2.26789561,18.4418182 L6.2008285,16.0077273 C6.94722452,15.5209091 7.8084507,15.2918182 8.66967688,15.2918182 L11.6839685,15.2918182 C12.5451947,15.2918182 13.3777133,15.5209091 14.1241094,15.9790909 L18.1718724,18.4418182 C19.5211268,19.2722727 20.3823529,20.79 20.3823529,22.3936364 L20.3823529,24.2836364 Z M1.2314917,24.1486404 L19.2888687,24.0361858 L19.2888687,22.5117469 C19.2888687,21.4422186 18.8343235,20.0727025 17.7079453,19.4101058 L13.5385978,16.8156783 C13.0178214,16.5100988 12.3248593,16.3568222 11.7428151,16.3568222 L8.52625534,16.3568222 C7.94421119,16.3568222 7.34387747,16.5100988 6.82310113,16.8156783 L2.76163648,19.4101058 C1.8119855,19.9907068 1.2314917,20.8965598 1.2314917,21.996646 L1.2314917,24.1486404 Z M23.891813,5.10821112 L27.5625303,5.10821328 C27.9004243,5.10821347 28.1743167,5.38210592 28.1743169,5.71999985 C28.1743171,6.05789379 27.9004008,6.33181008 27.5625311,6.33178571 L23.8917654,6.33178355 L22.668193,6.33178284 L18.9974515,6.33180485 C18.6596059,6.33180465 18.3856893,6.05788804 18.385665,5.72001828 C18.3856648,5.38212434 18.6595569,5.10823222 18.9974508,5.10823242 L22.6682406,5.10825874 L23.891813,5.10821112 Z" id="path-1"></path>
    </defs>
    <g id="Page-1" stroke="none" stroke-width="1" fill="none" fill-rule="evenodd">
        <mask id="mask-2" fill="white">
            <use xlink:href="#path-1"></use>
        </mask>
        <use id="icAddFriendOptionActive" fill="#333333" fill-rule="nonzero" xlink:href="#path-1"></use>
    </g>
</svg>