<?xml version="1.0" encoding="UTF-8"?>
<svg width="23px" height="23px" viewBox="0 0 23 23" version="1.1" xmlns="http://www.w3.org/2000/svg" xmlns:xlink="http://www.w3.org/1999/xlink">
    <!-- Generator: Sketch 55.2 (78181) - https://sketchapp.com -->
    <title>icAddNoteOption</title>
    <desc>Created with Sketch.</desc>
    <g id="Page-1" stroke="none" stroke-width="1" fill="none" fill-rule="evenodd">
        <path d="M21.4219499,14.3347019 C21.7412322,14.3347019 22,14.5954047 22,14.9170747 L22,20.0881359 C21.9981936,21.6955759 20.7052581,22.9981801 19.1097495,23 L2.89025053,23 C1.29474195,22.9981801 0.00180640658,21.6955759 0,20.0881359 L0,4.91186411 C0.00180640658,3.3044241 1.29474195,2.00181992 2.89025053,2 L8.02270321,2 C8.3419856,2 8.60075332,2.26093034 8.60075332,2.58237282 C8.60075332,2.90404278 8.3419856,3.16474565 8.02270321,3.16474565 L2.89025053,3.16474565 C1.93285504,3.16588308 1.1572292,3.9475366 1.15610021,4.91186411 L1.15610021,20.0879084 C1.1572292,21.0524634 1.93285504,21.8341169 2.89025053,21.8350269 L19.1097495,21.8350269 C20.067145,21.8341169 20.8427707,21.0524634 20.8438998,20.0879084 L20.8438998,14.9170747 C20.8438998,14.5954047 21.1026675,14.3347019 21.4219499,14.3347019 Z M21.4723827,0.808740763 L22.1924459,1.52873998 C23.2691847,2.60778011 23.2691847,4.35456916 22.1924459,5.43360923 L11.2450415,16.3805214 C11.1700149,16.4555413 11.0770107,16.509709 10.974898,16.5379913 L5.77745165,17.97775 C5.56435708,18.0367114 5.33616132,17.9765516 5.17963629,17.8202802 C5.02335089,17.663769 4.96318588,17.4355935 5.02239215,17.2225179 L6.46203896,12.0255328 C6.4903237,11.9234291 6.54449625,11.8304331 6.61952279,11.7554133 L17.5671669,0.808740763 C18.6455837,-0.269580254 20.393966,-0.269580254 21.4723827,0.808740763 Z M7.95657744,12.1542411 L10.8459386,15.0435855 L19.8059783,6.08434089 L16.9163775,3.19499649 L7.95657744,12.1542411 Z M7.37937638,13.3123756 L6.49463835,16.5056345 L9.68794095,15.620975 L7.37937638,13.3123756 Z M21.3247266,4.56596703 C21.9227818,3.96652695 21.9227818,2.99606198 21.3247266,2.39638218 L20.6044238,1.67638296 C20.0054099,1.07742221 19.0341397,1.07742221 18.4351258,1.67638296 L17.7840967,2.32711462 L20.6739373,5.21669869 L21.3247266,4.56596703 Z" id="icAddNoteOption" fill="#333333"></path>
    </g>
</svg>