<?xml version="1.0" encoding="UTF-8"?>
<svg width="30px" height="27px" viewBox="0 0 30 27" version="1.1" xmlns="http://www.w3.org/2000/svg" xmlns:xlink="http://www.w3.org/1999/xlink">
    <!-- Generator: Sketch 55.2 (78181) - https://sketchapp.com -->
    <title>icAddFriendOption</title>
    <desc>Created with Sketch.</desc>
    <g id="Page-1" stroke="none" stroke-width="1" fill="none" fill-rule="evenodd">
        <path d="M11.3182469,15.8176364 C8.06396023,15.8176364 5.43664623,13.1968364 5.46650207,10.0101818 L5.46650207,6.31723636 C5.46650207,3.1008 8.09381607,0.48 11.3182469,0.48 C14.5426777,0.48 17.1699917,3.1008 17.1699917,6.31723636 L17.1699917,9.9804 C17.1699917,13.1968364 14.5426777,15.8176364 11.3182469,15.8176364 Z M6.45224213,6.1367165 L6.45224213,10.1580083 C6.45224213,12.6427089 8.80084126,14.7023949 11.2917176,14.7023949 C13.7825939,14.7023949 16.2858126,12.6427089 16.2858126,10.1580083 L16.2858126,6.10402307 C16.2858126,3.61932247 13.7825939,1.6250233 11.2917176,1.6250233 C8.80084126,1.6250233 6.45224213,3.65201589 6.45224213,6.1367165 Z M21.7976471,25.7349818 C21.7976471,26.2114909 21.4095211,26.5986545 20.9616835,26.5986545 L1.55538691,26.5986545 C1.07769345,26.5986545 0.689567523,26.2114909 0.689567523,25.7349818 L0.689567523,23.7396 C0.689567523,22.0718182 1.52553107,20.5529455 2.95861143,19.6594909 L7.04886164,17.1280364 C7.8251135,16.6217455 8.72078873,16.3834909 9.61646396,16.3834909 L12.7513273,16.3834909 C13.6470025,16.3834909 14.5128219,16.6217455 15.2890737,17.0982545 L19.4987473,19.6594909 C20.9019718,20.5231636 21.7976471,22.1016 21.7976471,23.7693818 L21.7976471,25.7349818 Z M1.88075137,25.594586 L20.6604234,25.4776332 L20.6604234,23.8922167 C20.6604234,22.7799073 20.1876965,21.3556106 19.0162631,20.66651 L14.6801417,17.9683055 C14.1385343,17.6505028 13.4178536,17.4910951 12.8125277,17.4910951 L9.46730555,17.4910951 C8.86197964,17.4910951 8.23763257,17.6505028 7.69602517,17.9683055 L3.47210194,20.66651 C2.48446492,21.2703351 1.88075137,22.2124221 1.88075137,23.3565118 L1.88075137,25.594586 Z M25.4346255,6.16751698 L29.2358608,6.23387002 C29.5857691,6.2399779 29.8644494,6.5285598 29.8583419,6.87846808 C29.8522344,7.22837636 29.5636274,7.50708094 29.2137446,7.50094847 L25.4124593,7.43459455 L25.3461098,11.23588 C25.3400024,11.5857882 25.0514208,11.8644682 24.7015125,11.8583603 C24.3516543,11.8522533 24.0729494,11.563646 24.0790314,11.2137623 L24.1453808,7.41247687 L20.3441201,7.34614843 C19.9942619,7.34004142 19.715557,7.05143405 19.721639,6.70155036 C19.7277465,6.35164208 20.016328,6.0729621 20.3662363,6.07906998 L24.1675462,6.14544936 L24.2338957,2.34416396 C24.2400031,1.99425568 24.5285847,1.71557569 24.878493,1.72168357 C25.2283767,1.72776598 25.5070816,2.01637336 25.5009741,2.36628164 L25.4346255,6.16751698 Z" id="icAddFriendOption" fill="#333333" fill-rule="nonzero"></path>
    </g>
</svg>