<?xml version="1.0" encoding="UTF-8"?>
<svg width="25px" height="25px" viewBox="0 0 25 25" version="1.1" xmlns="http://www.w3.org/2000/svg" xmlns:xlink="http://www.w3.org/1999/xlink">
    <!-- Generator: Sketch 55.2 (78181) - https://sketchapp.com -->
    <title>icBlockUserOption</title>
    <desc>Created with Sketch.</desc>
    <defs>
        <path d="M21.6681368,4.00416816 C21.6672987,4.00333006 21.66674,4.00221259 21.6659019,4.00109512 C21.6645051,3.99969828 21.6628289,3.99858082 21.6614321,3.99718398 C20.4163134,2.65231092 18.8613816,1.56473494 17.0578172,0.861847399 C16.5761963,0.673553996 16.0775342,0.513756034 15.5760785,0.386923386 C14.5645068,0.130185053 13.5272338,0 12.4930338,0 C6.77504188,0 1.79791936,3.87593867 0.389373569,9.42528607 C-0.431952217,12.6614742 0.055535367,16.0233774 1.76216095,18.8916391 C3.46906591,21.7601801 6.19117423,23.7920168 9.42730957,24.6130766 C10.4391606,24.8698149 11.476713,25 12.5111923,25 C16.4803749,25 20.2506514,23.0832626 22.5970171,19.8724969 C23.5395862,18.5823798 24.2189959,17.1363758 24.6154113,15.5738758 C25.6864872,11.3531982 24.4620413,7.02691981 21.6681368,4.00416816 Z M1.74288494,9.76918693 C2.99414963,4.83975505 7.41478203,1.3971147 12.4927544,1.3971147 C13.411019,1.3971147 14.3329153,1.51277266 15.2330213,1.74129492 C15.6788839,1.85387985 16.1213941,1.99579832 16.5493775,2.16313919 C17.9204887,2.69784776 19.1284522,3.48342795 20.1422587,4.44724432 L3.79508196,19.3850013 C3.49476726,19.0033859 3.21484602,18.6019355 2.96258167,18.1775769 C1.44648132,15.6297492 1.01346942,12.6435947 1.74288494,9.76918693 Z M23.2616205,15.2305337 C22.9090651,16.6187087 22.3059214,17.9032384 21.4692307,19.0486434 C19.3851863,21.9007018 16.0364679,23.603444 12.5114717,23.603444 C11.5926484,23.603444 10.6707521,23.4875067 9.77120482,23.2592638 C7.83717815,22.7686952 6.11155591,21.7892343 4.72647657,20.4262024 L21.0923706,5.47140399 C23.2524016,8.11952441 24.1533457,11.7155373 23.2616205,15.2305337 Z" id="path-1"></path>
    </defs>
    <g id="Page-1" stroke="none" stroke-width="1" fill="none" fill-rule="evenodd">
        <mask id="mask-2" fill="white">
            <use xlink:href="#path-1"></use>
        </mask>
        <use id="icBlockUserOption" fill="#333333" fill-rule="nonzero" xlink:href="#path-1"></use>
    </g>
</svg>