<?xml version="1.0" encoding="UTF-8"?>
<svg width="25px" height="25px" viewBox="0 0 25 25" version="1.1" xmlns="http://www.w3.org/2000/svg" xmlns:xlink="http://www.w3.org/1999/xlink">
    <!-- Generator: Sketch 51.3 (57544) - http://www.bohemiancoding.com/sketch -->
    <title>icFavouriteOption</title>
    <desc>Created with Sketch.</desc>
    <defs>
        <path d="M24.4574591,11.3295782 L20.0777547,15.7860636 C19.8910328,15.9762572 19.805431,16.2495297 19.8494834,16.5175772 L20.8832118,22.8096393 C20.9748206,23.3624545 20.8361559,23.9022071 20.4922472,24.3270075 C20.1473373,24.7544204 19.6457413,25 19.1166125,25 C18.8267681,25 18.5459344,24.9268486 18.2826215,24.7821134 L12.8686881,21.8111232 C12.6429198,21.6883334 12.3580814,21.6872884 12.1318125,21.8111232 L6.7183797,24.7821134 C5.97349455,25.190716 5.04188752,24.9890273 4.5082534,24.3270075 C4.16484533,23.9022071 4.02567996,23.3634996 4.11728882,22.8096393 L5.1505166,16.5175772 C5.19456895,16.2500523 5.10896723,15.9762572 4.92224535,15.7860636 L0.542540941,11.3301007 C0.0504561965,10.8295364 -0.123250219,10.0948878 0.0890020005,9.41196756 C0.301754815,8.72904736 0.856413917,8.24102328 1.53672233,8.13808887 L7.58991534,7.22003929 C7.84772169,7.18085106 8.070987,7.01208042 8.18612382,6.76806839 L10.8928402,1.0429294 C11.1967013,0.399719935 11.8134342,0 12.5002503,0 C13.187567,0 13.8042999,0.399719935 14.108161,1.0429294 L16.8143768,6.76754588 C16.9295136,7.01155791 17.1522783,7.18032855 17.4100847,7.21951678 L23.4632777,8.13756636 C24.1440867,8.24102328 24.6982452,8.72852485 24.910998,9.41144505 C25.1232502,10.0943653 24.9495438,10.8290139 24.4574591,11.3295782 Z M23.0342075,11.9614245 C23.7019932,11.3404339 24.4327199,10.655703 24.2880167,9.75833917 C24.1433135,8.86097539 23.0149871,8.71919869 22.4105416,8.6273461 L16.8593411,7.81180638 C16.6304518,7.77701373 16.4326737,7.62717338 16.3304513,7.41053115 L13.9277803,2.32802083 C13.6580021,1.75695746 13.4893571,0.822098116 12.5148714,0.822098116 C11.5403858,0.822098116 11.3428868,1.75695746 11.0731086,2.32802083 L8.66999317,7.41099505 C8.56777076,7.62763728 8.36954819,7.77747763 8.14065889,7.81227028 L2.76642708,8.6273461 C1.57642771,8.69919363 0.714472055,9.05570829 0.714472055,9.95594049 C0.714472055,10.8561727 2.14032004,11.8047098 2.24990664,11.9614245 L5.77221022,15.4174797 C5.93798829,15.58634 6.01398843,15.8294247 5.97487725,16.0669425 L5.05754228,21.6532504 C4.97543543,22.0935121 4.51341994,23.4044804 5.05754228,23.8009527 C5.9267767,24.4343164 6.70554522,23.7672518 7.36687973,23.4044804 L12.1731105,20.7667337 C12.3739998,20.6567889 12.6268891,20.6577167 12.8273339,20.7667337 L17.2167477,23.2040579 C17.4505259,23.3325588 19.1174438,24.5244471 19.8277606,23.9644638 C20.5380773,23.4044804 20.1587202,22.7100379 19.9429022,21.6532504 L19.0251228,16.0669425 C18.9860116,15.8289608 19.0620117,15.58634 19.2277898,15.4174797 L23.0342075,11.9614245 Z" id="path-1"></path>
    </defs>
    <g id="Page-1" stroke="none" stroke-width="1" fill="none" fill-rule="evenodd">
        <mask id="mask-2" fill="white">
            <use xlink:href="#path-1"></use>
        </mask>
        <use id="icFavouriteOption" fill="#646464" fill-rule="nonzero" xlink:href="#path-1"></use>
    </g>
</svg>