<?xml version="1.0" encoding="UTF-8"?>
<svg width="24px" height="29px" viewBox="0 0 24 29" version="1.1" xmlns="http://www.w3.org/2000/svg" xmlns:xlink="http://www.w3.org/1999/xlink">
    <!-- Generator: Sketch 55.2 (78181) - https://sketchapp.com -->
    <title>icUnBlockUserOption</title>
    <desc>Created with Sketch.</desc>
    <g id="Page-1" stroke="none" stroke-width="1" fill="none" fill-rule="evenodd">
        <path d="M12.3427274,16.8374545 C8.83811102,16.8374545 6.00869594,14.0150545 6.04084838,10.5832727 L6.04084838,6.60625455 C6.04084838,3.1424 8.87026346,0.32 12.3427274,0.32 C15.8151914,0.32 18.6446065,3.1424 18.6446065,6.60625455 L18.6446065,10.5512 C18.6446065,14.0150545 15.8151914,16.8374545 12.3427274,16.8374545 Z M7.1024146,6.41184853 L7.1024146,10.7424704 C7.1024146,13.4183018 9.6316752,15.6364253 12.3141574,15.6364253 C14.9966396,15.6364253 17.6924135,13.4183018 17.6924135,10.7424704 L17.6924135,6.37664023 C17.6924135,3.70080881 14.9966396,1.55310201 12.3141574,1.55310201 C9.6316752,1.55310201 7.1024146,3.73601712 7.1024146,6.41184853 Z M23.6282353,27.5176727 C23.6282353,28.0308364 23.2102535,28.4477818 22.7279669,28.4477818 L1.82887821,28.4477818 C1.31443911,28.4477818 0.896457332,28.0308364 0.896457332,27.5176727 L0.896457332,25.3688 C0.896457332,23.5727273 1.79672577,21.9370182 3.34004308,20.9748364 L7.74492792,18.2486545 C8.58089147,17.7034182 9.54546479,17.4468364 10.5100381,17.4468364 L13.8860447,17.4468364 C14.8506181,17.4468364 15.7830389,17.7034182 16.6190025,18.2165818 L21.1524971,20.9748364 C22.663662,21.9049455 23.6282353,23.6048 23.6282353,25.4008727 L23.6282353,27.5176727 Z M2.1792707,27.3664772 L22.4035329,27.2405281 L22.4035329,25.5331565 C22.4035329,24.3352848 21.8944423,22.8014268 20.6328987,22.0593185 L15.9632295,19.1535597 C15.37996,18.8113107 14.6038424,18.6396408 13.9519529,18.6396408 L10.349406,18.6396408 C9.69751653,18.6396408 9.02514277,18.8113107 8.44187326,19.1535597 L3.89303286,22.0593185 C2.82942376,22.7095917 2.1792707,23.7241469 2.1792707,24.9562435 L2.1792707,27.3664772 Z" id="icUnBlockUserOption" fill="#333333" fill-rule="nonzero"></path>
    </g>
</svg>