<?xml version="1.0" encoding="UTF-8"?>
<svg width="24px" height="24px" viewBox="0 0 24 24" version="1.1" xmlns="http://www.w3.org/2000/svg" xmlns:xlink="http://www.w3.org/1999/xlink">
    <!-- Generator: Sketch 52.4 (67378) - http://www.bohemiancoding.com/sketch -->
    <title>icActiveFullPhotoGallery</title>
    <desc>Created with Sketch.</desc>
    <defs>
        <path d="M21.8958333,23.875 L15.9583333,23.875 C14.8652698,23.875 13.9791667,22.9888969 13.9791667,21.8958333 L13.9791667,15.9583333 C13.9791667,14.8652698 14.8652698,13.9791667 15.9583333,13.9791667 L21.8958333,13.9791667 C22.9888969,13.9791667 23.875,14.8652698 23.875,15.9583333 L23.875,21.8958333 C23.875,22.9888969 22.9888969,23.875 21.8958333,23.875 Z M21.8958333,15.9583333 L15.9583333,15.9583333 L15.9583333,21.8958333 L21.8958333,21.8958333 L21.8958333,15.9583333 Z M21.8958333,10.0208333 L15.9583333,10.0208333 C14.8652698,10.0208333 13.9791667,9.13473023 13.9791667,8.04166667 L13.9791667,2.10416667 C13.9791667,1.0111031 14.8652698,0.125 15.9583333,0.125 L21.8958333,0.125 C22.9888969,0.125 23.875,1.0111031 23.875,2.10416667 L23.875,8.04166667 C23.875,9.13473023 22.9888969,10.0208333 21.8958333,10.0208333 Z M21.8958333,2.10416667 L15.9583333,2.10416667 L15.9583333,8.04166667 L21.8958333,8.04166667 L21.8958333,2.10416667 Z M8.04166667,23.875 L2.10416667,23.875 C1.0111031,23.875 0.125,22.9888969 0.125,21.8958333 L0.125,15.9583333 C0.125,14.8652698 1.0111031,13.9791667 2.10416667,13.9791667 L8.04166667,13.9791667 C9.13473023,13.9791667 10.0208333,14.8652698 10.0208333,15.9583333 L10.0208333,21.8958333 C10.0208333,22.9888969 9.13473023,23.875 8.04166667,23.875 Z M8.04166667,15.9583333 L2.10416667,15.9583333 L2.10416667,21.8958333 L8.04166667,21.8958333 L8.04166667,15.9583333 Z M8.04166667,10.0208333 L2.10416667,10.0208333 C1.0111031,10.0208333 0.125,9.13473023 0.125,8.04166667 L0.125,2.10416667 C0.125,1.0111031 1.0111031,0.125 2.10416667,0.125 L8.04166667,0.125 C9.13473023,0.125 10.0208333,1.0111031 10.0208333,2.10416667 L10.0208333,8.04166667 C10.0208333,9.13473023 9.13473023,10.0208333 8.04166667,10.0208333 Z M8.04166667,2.10416667 L2.10416667,2.10416667 L2.10416667,8.04166667 L8.04166667,8.04166667 L8.04166667,2.10416667 Z" id="path-1"></path>
    </defs>
    <g id="Page-1" stroke="none" stroke-width="1" fill="none" fill-rule="evenodd">
        <mask id="mask-2" fill="white">
            <use xlink:href="#path-1"></use>
        </mask>
        <use id="icActiveFullPhotoGallery" fill="#7BCB45" xlink:href="#path-1"></use>
    </g>
</svg>