<?xml version="1.0" encoding="UTF-8"?>
<svg width="24px" height="24px" viewBox="0 0 24 24" version="1.1" xmlns="http://www.w3.org/2000/svg" xmlns:xlink="http://www.w3.org/1999/xlink">
    <!-- Generator: Sketch 55.2 (78181) - https://sketchapp.com -->
    <title>icBanWhite</title>
    <desc>Created with Sketch.</desc>
    <g id="Page-1" stroke="none" stroke-width="1" fill="none" fill-rule="evenodd">
        <path d="M12,0 C5.38331451,0 0,5.3829482 0,12 C0,18.6170518 5.3829482,24 12,24 C18.6170518,24 24,18.6170518 24,12 C24,5.3829482 18.6166855,0 12,0 Z M2.19786929,12 C2.19786929,6.59507311 6.59507311,2.19786929 12,2.19786929 C14.4352392,2.19786929 16.6646113,3.0927684 18.3807809,4.56863763 L4.56863763,18.3807809 C3.0927684,16.6646113 2.19786929,14.4352392 2.19786929,12 Z M12,21.8021307 C9.82117891,21.8021307 7.80683171,21.0867243 6.17747794,19.8797277 L19.8793614,6.17784426 C21.0863579,7.80719802 21.8017644,9.82154522 21.8017644,12.0003663 C21.8021307,17.4049269 17.4049269,21.8021307 12,21.8021307 Z" id="icBanWhite" fill="#FFFFFF" fill-rule="nonzero"></path>
    </g>
</svg>