<?xml version="1.0" encoding="UTF-8"?>
<svg width="101px" height="101px" viewBox="0 0 101 101" version="1.1" xmlns="http://www.w3.org/2000/svg" xmlns:xlink="http://www.w3.org/1999/xlink">
    <!-- Generator: Sketch 55.2 (78181) - https://sketchapp.com -->
    <title>icCameraEmptyState</title>
    <desc>Created with Sketch.</desc>
    <g id="Page-1" stroke="none" stroke-width="1" fill="none" fill-rule="evenodd" fill-opacity="0.6">
        <g id="Chatrooms_LiveStream-Empty" transform="translate(-138.000000, -266.000000)" fill="#666666" fill-rule="nonzero">
            <path d="M219.714118,266.66114 C224.794264,266.621834 229.679815,268.617911 233.285907,272.206132 C236.891999,275.794352 238.92,280.677715 238.92,285.77184 L238.92,330.481442 C238.92,335.578493 236.898695,340.466354 233.301562,344.067746 C229.704428,347.669139 224.826739,349.688447 219.743529,349.680617 L165.331765,349.680617 C164.596471,349.680617 163.772941,349.680617 163.449412,349.680617 C162.767269,350.20947 162.118934,350.78077 161.508235,351.391143 L160.449412,352.334881 L145.743529,365.606201 C144.556705,366.678343 142.855826,366.959137 141.38886,366.325103 C139.921894,365.691069 138.957588,364.258361 138.92,362.657019 L138.92,285.77184 C139.049207,275.098299 147.775263,266.546451 158.42,266.66114 L219.714118,266.66114 Z M213.600729,291.036522 L201.387449,298.927996 L201.387449,296.54017 C201.387449,293.323682 198.771146,290.716204 195.543774,290.716204 L166.763675,290.716204 C163.536302,290.716204 160.92,293.323682 160.92,296.54017 L160.92,319.836034 C160.92,323.052522 163.536302,325.66 166.763675,325.66 L195.631429,325.66 C198.858801,325.66 201.475104,323.052522 201.475104,319.836034 L201.475104,317.448208 L213.688384,325.339682 C214.136238,325.611478 214.695897,325.623223 215.154834,325.370455 C215.61377,325.117688 215.901584,324.639182 215.908981,324.116649 L215.908981,292.201315 C215.982245,291.627128 215.685163,291.06909 215.167026,290.807627 C214.648888,290.546163 214.021737,290.637814 213.600729,291.036522 Z M197.180003,318.525642 C197.172296,319.228453 196.884747,319.899424 196.380623,320.390925 C195.876499,320.882427 195.197102,321.154192 194.491912,321.146588 L167.727881,321.146588 C167.022692,321.154192 166.343294,320.882427 165.83917,320.390925 C165.335046,319.899424 165.047498,319.228453 165.039791,318.525642 L165.039791,297.704963 C165.071729,296.252857 166.270604,295.096988 167.727881,295.113128 L194.491912,295.113128 C195.94919,295.096988 197.148065,296.252857 197.180003,297.704963 L197.180003,318.525642 Z M211.78919,319.865154 L200.949173,313.254952 L200.949173,303.004772 L211.78919,296.394571 L211.78919,319.865154 Z" id="icCameraEmptyState"></path>
        </g>
    </g>
</svg>