<?xml version="1.0" encoding="UTF-8"?>
<svg width="8px" height="8px" viewBox="0 0 8 8" version="1.1" xmlns="http://www.w3.org/2000/svg" xmlns:xlink="http://www.w3.org/1999/xlink">
    <!-- Generator: Sketch 53.2 (72643) - https://sketchapp.com -->
    <title>icCloseLS</title>
    <desc>Created with Sketch.</desc>
    <defs>
        <path d="M67.8270184,18.9000183 L70.6080051,16.1190284 C70.8639983,15.8630349 70.8639983,15.4479886 70.6080051,15.1920317 C70.352012,14.9360383 69.9370027,14.9360383 69.6810096,15.1920317 L66.8999863,17.9730583 L64.118963,15.1919951 C63.8629698,14.9360016 63.4479606,14.9360016 63.1919674,15.1919951 C62.9360109,15.4479886 62.9360109,15.8630349 63.1919674,16.1189917 L65.9729907,18.8999817 L63.1919674,21.6810083 C62.9360109,21.9370017 62.9360109,22.3520481 63.1919674,22.6080049 C63.4479606,22.8639984 63.8629698,22.8639984 64.118963,22.6080049 L66.8999863,19.8269783 L69.6810096,22.6080049 C69.9369661,22.8639984 70.352012,22.8639984 70.6080051,22.6080049 C70.8639983,22.3520114 70.8639983,21.9370017 70.6080051,21.6810083 L67.8270184,18.9000183 Z" id="path-1"></path>
    </defs>
    <g id="Page-1" stroke="none" stroke-width="1" fill="none" fill-rule="evenodd">
        <g id="Artboard" transform="translate(-63.000000, -15.000000)">
            <mask id="mask-2" fill="white">
                <use xlink:href="#path-1"></use>
            </mask>
            <use id="icCloseLS" fill="#7BCB45" fill-rule="nonzero" xlink:href="#path-1"></use>
        </g>
    </g>
</svg>