<?xml version="1.0" encoding="UTF-8"?>
<svg width="23px" height="14px" viewBox="0 0 23 14" version="1.1" xmlns="http://www.w3.org/2000/svg" xmlns:xlink="http://www.w3.org/1999/xlink">
    <!-- Generator: Sketch 53.2 (72643) - https://sketchapp.com -->
    <title>icEyeLS</title>
    <desc>Created with Sketch.</desc>
    <g id="Page-1" stroke="none" stroke-width="1" fill="none" fill-rule="evenodd">
        <g id="Artboard" transform="translate(-15.000000, -11.000000)" fill="#FFFFFF" fill-rule="nonzero">
            <path d="M26.5,11 C30.894395,11 34.879462,13.2989739 37.8200368,17.0376184 C38.0599877,17.3435484 38.0599877,17.7709506 37.8200368,18.0768806 C34.879462,21.8110261 30.894395,24.11 26.5,24.11 C22.105605,24.11 18.120538,21.8110261 15.1799632,18.0723816 C14.9400123,17.7664516 14.9400123,17.3390494 15.1799632,17.0331194 C18.120538,13.2989739 22.105605,11 26.5,11 Z M26.4450881,22.0308645 C28.7671876,21.8869039 30.6530413,20.0764909 30.8030008,17.8472835 C30.9802256,15.1382077 28.6535819,12.9090003 25.8361619,13.0791355 C23.5095182,13.2187336 21.6236645,15.0291467 21.4782492,17.2627165 C21.3010244,19.9717923 23.6276681,22.2009997 26.4450881,22.0308645 Z M26.3019033,19.9650786 C24.7845247,20.0566834 23.530643,18.8570968 23.6305901,17.4001443 C23.7078219,16.1961955 24.725465,15.2234398 25.9793467,15.1449214 C27.4967253,15.0533166 28.750607,16.2529032 28.6506599,17.7098557 C28.568885,18.9181666 27.5512419,19.8909223 26.3019033,19.9650786 Z" id="icEyeLS"></path>
        </g>
    </g>
</svg>