<?xml version="1.0" encoding="UTF-8"?>
<svg width="38px" height="29px" viewBox="0 0 38 29" version="1.1" xmlns="http://www.w3.org/2000/svg" xmlns:xlink="http://www.w3.org/1999/xlink">
    <!-- Generator: Sketch 55 (78076) - https://sketchapp.com -->
    <title>icFriendsHeader</title>
    <desc>Created with Sketch.</desc>
    <g id="Page-1" stroke="none" stroke-width="1" fill="none" fill-rule="evenodd" opacity="0.7">
        <g id="Desktop-HD-header4-Final-Home-with-submenu" transform="translate(-1129.000000, -196.000000)" fill="#FFFFFF" fill-rule="nonzero">
            <g id="Group-19" transform="translate(1079.000000, 64.000000)">
                <g id="Top" transform="translate(16.000000, 27.000000)">
                    <g id="Friends" transform="translate(0.000000, 90.000000)">
                        <g id="Group-11" transform="translate(28.000000, 5.000000)">
                            <g id="Friends" transform="translate(6.000000, 10.000000)">
                                <path d="M12.1168539,28.4716599 L12,22.4251012 L20.1213483,19.3724696 L19.1280899,13.2672065 C17.0831461,10.1558704 19.1280899,9.15789474 19.1280899,9.15789474 L18.1348315,5.10728745 C19.1865169,0 25.2629213,0 25.2629213,0 C30.3460674,0 32.3910112,5.048583 32.3910112,5.048583 L31.3977528,9.09919028 C33.4426966,10.1558704 31.3977528,13.208502 31.3977528,13.208502 L29.352809,19.3137652 L38,23.8927126 L38,29 L12.1168539,28.4716599 Z M0,26 L0,21.1039604 L6.4,18.6559406 L5.6,13.7029703 C4,11.1980198 5.6,10.4009901 5.6,10.4009901 L4.8,7.0990099 C5.6,3 10.4,3 10.4,3 C14.4,3 16,7.0990099 16,7.0990099 L15.2,10.4009901 C16.8,11.2549505 15.2,13.7029703 15.2,13.7029703 L14.4,18.029703 L15.3714286,18.9975248 L9.42857143,20.990099 L9.42857143,25.9430693 L0,26 Z" id="icFriendsHeader"></path>
                            </g>
                        </g>
                    </g>
                </g>
            </g>
        </g>
    </g>
</svg>