<?xml version="1.0" encoding="UTF-8"?>
<svg width="28px" height="29px" viewBox="0 0 28 29" version="1.1" xmlns="http://www.w3.org/2000/svg" xmlns:xlink="http://www.w3.org/1999/xlink">
    <!-- Generator: Sketch 55 (78076) - https://sketchapp.com -->
    <title>icListHeader</title>
    <desc>Created with Sketch.</desc>
    <g id="Page-1" stroke="none" stroke-width="1" fill="none" fill-rule="evenodd" opacity="0.7">
        <g id="Desktop-HD-header4-Final-Home-with-submenu" transform="translate(-1249.000000, -198.000000)" fill="#FFFFFF" fill-rule="nonzero">
            <g id="Group-19" transform="translate(1079.000000, 64.000000)">
                <g id="Top" transform="translate(16.000000, 27.000000)">
                    <g id="Lists" transform="translate(115.000000, 90.000000)">
                        <g id="Group-13" transform="translate(28.000000, 6.000000)">
                            <g id="Lists" transform="translate(11.000000, 11.000000)">
                                <path d="M0,0 L0,29 L28,29 L28,0 L0,0 Z M6.4,24.8789474 C5.3,24.8789474 4.45,23.9631579 4.45,22.8947368 C4.45,21.8263158 5.35,20.9105263 6.4,20.9105263 C7.45,20.9105263 8.35,21.8263158 8.35,22.8947368 C8.35,23.9631579 7.45,24.8789474 6.4,24.8789474 L6.4,24.8789474 Z M6.4,17.145614 C5.3,17.145614 4.45,16.2298246 4.45,15.1614035 C4.45,14.0929825 5.35,13.177193 6.4,13.177193 C7.45,13.177193 8.35,14.0929825 8.35,15.1614035 C8.35,16.2298246 7.45,17.145614 6.4,17.145614 L6.4,17.145614 Z M6.4,9.25964912 C5.3,9.25964912 4.45,8.34385965 4.45,7.2754386 C4.45,6.20701754 5.35,5.29122807 6.4,5.29122807 C7.45,5.29122807 8.35,6.20701754 8.35,7.2754386 C8.35,8.34385965 7.45,9.25964912 6.4,9.25964912 Z M23.6,23.0982456 C23.6,23.5561404 23.25,23.9122807 22.8,23.9122807 L22.8,23.9122807 L10.6,23.9122807 C10.15,23.9122807 9.8,23.5561404 9.8,23.0982456 L9.8,23.0982456 L9.8,22.6912281 C9.8,22.2333333 10.15,21.877193 10.6,21.877193 L10.6,21.877193 L22.8,21.877193 C23.25,21.877193 23.6,22.2333333 23.6,22.6912281 L23.6,22.6912281 L23.6,23.0982456 L23.6,23.0982456 Z M23.6,15.3140351 C23.6,15.7719298 23.25,16.1280702 22.8,16.1280702 L22.8,16.1280702 L10.6,16.1280702 C10.15,16.1280702 9.8,15.7719298 9.8,15.3140351 L9.8,15.3140351 L9.8,14.9070175 C9.8,14.4491228 10.15,14.0929825 10.6,14.0929825 L10.6,14.0929825 L22.8,14.0929825 C23.25,14.0929825 23.6,14.4491228 23.6,14.9070175 L23.6,14.9070175 L23.6,15.3140351 L23.6,15.3140351 Z M23.6,7.42807018 C23.6,7.88596491 23.25,8.24210526 22.8,8.24210526 L22.8,8.24210526 L10.6,8.24210526 C10.15,8.24210526 9.8,7.88596491 9.8,7.42807018 L9.8,7.42807018 L9.8,7.02105263 C9.8,6.56315789 10.15,6.20701754 10.6,6.20701754 L10.6,6.20701754 L22.8,6.20701754 C23.25,6.20701754 23.6,6.56315789 23.6,7.02105263 L23.6,7.02105263 L23.6,7.42807018 L23.6,7.42807018 Z" id="icListHeader"></path>
                            </g>
                        </g>
                    </g>
                </g>
            </g>
        </g>
    </g>
</svg>