<?xml version="1.0" encoding="UTF-8"?>
<svg width="17px" height="18px" viewBox="0 0 17 18" version="1.1" xmlns="http://www.w3.org/2000/svg" xmlns:xlink="http://www.w3.org/1999/xlink">
    <!-- Generator: Sketch 55 (78076) - https://sketchapp.com -->
    <title>icLogoutHeader</title>
    <desc>Created with Sketch.</desc>
    <g id="Page-1" stroke="none" stroke-width="1" fill="none" fill-rule="evenodd">
        <g id="Desktop-HD-header4-Final-Home-with-submenu" transform="translate(-1099.000000, -302.000000)" fill="#FFFFFF" fill-rule="nonzero">
            <g id="Group-19" transform="translate(1079.000000, 64.000000)">
                <g id="Bottom" transform="translate(0.000000, 212.000000)">
                    <g id="Group-5" transform="translate(20.000000, 26.000000)">
                        <g id="logout" transform="translate(8.500000, 9.000000) rotate(-90.000000) translate(-8.500000, -9.000000) translate(0.000000, 1.000000)">
                            <path d="M16.3105703,7.27145117 C16.5781527,7.32999118 16.7119348,7.49601234 16.7119166,7.76951465 C16.7118984,8.04301696 16.5780941,8.20903812 16.3105039,8.26757813 L7.57682031,8.26757813 C7.30176562,8.26757813 7.07874023,8.04461914 7.07874023,7.76953125 C7.07874023,7.49444336 7.30176562,7.27145117 7.57682031,7.27145117 L16.3105703,7.27145117 Z M14.2929824,10.9675566 C14.531082,11.1053164 14.6124297,11.4099883 14.4747363,11.6480879 C13.1297109,13.9732031 10.6172305,15.5258809 7.75634961,15.5258809 C3.4690293,15.5258809 1.15463195e-14,12.0564863 1.15463195e-14,7.76953125 C1.15463195e-14,3.48221094 3.46939453,0.0131816406 7.75634961,0.0131816406 C10.616002,0.0131816406 13.1291133,1.56476367 14.4747031,3.8909082 C14.6123965,4.12900781 14.5310488,4.43371289 14.2929492,4.57143945 C14.0549492,4.70906641 13.7501445,4.62781836 13.612418,4.38968555 C12.4431699,2.36841211 10.2571758,1.00930859 7.75634961,1.00930859 C4.02876758,1.00930859 0.996126953,4.04194922 0.996126953,7.76953125 C0.996126953,11.4971133 4.02876758,14.5297539 7.75634961,14.5297539 C10.2555156,14.5297539 12.4425059,13.1719121 13.6124512,11.1493105 C13.7502109,10.9111777 14.0549492,10.8298965 14.2929824,10.9675566 Z" id="icLogoutHeader"></path>
                        </g>
                    </g>
                </g>
            </g>
        </g>
    </g>
</svg>