<?xml version="1.0" encoding="UTF-8"?>
<svg width="23px" height="29px" viewBox="0 0 23 29" version="1.1" xmlns="http://www.w3.org/2000/svg" xmlns:xlink="http://www.w3.org/1999/xlink">
    <!-- Generator: Sketch 55 (78076) - https://sketchapp.com -->
    <title>icNotificationHeader</title>
    <desc>Created with Sketch.</desc>
    <g id="Page-1" stroke="none" stroke-width="1" fill="none" fill-rule="evenodd">
        <g id="Notifications-SubMenu" transform="translate(-1227.000000, -25.000000)" fill="#FFFFFF">
            <g id="Home-Header" transform="translate(0.000000, -62.000000)">
                <g id="Top-Header">
                    <g id="Right-top-header" transform="translate(1184.000000, 0.000000)">
                        <g id="Group-82" transform="translate(34.000000, 82.000000)">
                            <g id="BeLL_2" transform="translate(9.000000, 5.000000)">
                                <g id="Group">
                                    <g id="Group-2" transform="translate(0.023504, 0.000000)">
                                        <path d="M1.55139186,23.9101124 C-0.517130621,23.9101124 -0.517130621,20.659176 1.55139186,20.659176 C3.22591006,20.659176 3.32441113,14.3670412 3.32441113,12.164794 C3.32441113,6.92134831 6.27944325,3.88014981 9.62847966,3.14606742 C9.03747323,1.67790262 10.0224839,3.55271368e-15 11.5,3.55271368e-15 C12.9775161,3.55271368e-15 13.9625268,1.67790262 13.3715203,3.14606742 C16.7205567,3.88014981 19.6755889,6.92134831 19.6755889,12.164794 C19.6755889,14.3670412 19.7740899,20.659176 21.4486081,20.659176 C23.5171306,20.659176 23.5171306,23.9101124 21.4486081,23.9101124 L1.55139186,23.9101124 Z M13.6618383,25 C14.6226553,26.4681648 13.421634,28.3558052 11.5,28.3558052 C9.57836597,28.3558052 8.37734471,26.4681648 9.33816172,25 L13.6618383,25 Z" id="icNotificationHeader"></path>
                                    </g>
                                </g>
                            </g>
                        </g>
                    </g>
                </g>
            </g>
        </g>
    </g>
</svg>