<?xml version="1.0" encoding="UTF-8"?>
<svg width="38px" height="31px" viewBox="0 0 38 31" version="1.1" xmlns="http://www.w3.org/2000/svg" xmlns:xlink="http://www.w3.org/1999/xlink">
    <!-- Generator: Sketch 55 (78076) - https://sketchapp.com -->
    <title>icPhotoHeader</title>
    <desc>Created with Sketch.</desc>
    <g id="Page-1" stroke="none" stroke-width="1" fill="none" fill-rule="evenodd" fill-opacity="0.7">
        <g id="Desktop-HD-header4-Final-Home-with-submenu" transform="translate(-1416.000000, -111.000000)" fill="#FFFFFF" fill-rule="nonzero">
            <g id="Group-19" transform="translate(1079.000000, 64.000000)">
                <g id="Top" transform="translate(16.000000, 27.000000)">
                    <g id="Group-8" transform="translate(230.000000, 0.000000)">
                        <g id="Group-9" transform="translate(71.000000, 10.000000)">
                            <g id="Photos" transform="translate(20.000000, 10.000000)">
                                <path d="M11.27958,17.8859912 C11.27958,22.1643203 14.735421,25.6342026 18.9964373,25.6342026 C23.2574536,25.6342026 26.72042,22.1643203 26.72042,17.8859912 C26.72042,13.6076621 23.264579,10.1377798 19.0035627,10.1377798 C14.7425464,10.1377798 11.27958,13.6076621 11.27958,17.8859912 Z M35.6272267,4.77198246 L27.311832,4.77198246 C26.72042,2.38241403 26.1290081,0 23.7491093,0 L14.2508907,0 C11.8781174,0 11.27958,2.38241403 10.688168,4.77198246 L2.3727733,4.77198246 C1.0688168,4.77198246 0,5.84514193 0,7.15439649 L0,28.617586 C0,29.9268405 1.0688168,31 2.3727733,31 L35.6272267,31 C36.9311832,31 38,29.9268405 38,28.617586 L38,7.15439649 C38,5.84514193 36.9311832,4.77198246 35.6272267,4.77198246 Z M19.0035627,28.4673436 C13.1820739,28.4673436 8.46502906,23.7311332 8.46502906,17.8859912 C8.46502906,12.0408493 13.1820739,7.30463882 19.0035627,7.30463882 C24.8250516,7.30463882 29.5420964,12.0408493 29.5420964,17.8859912 C29.5420964,23.7311332 24.8250516,28.4673436 19.0035627,28.4673436 Z M35.6272267,11.98231 L30.8745547,11.98231 L30.8745547,9.54396492 L35.6272267,9.54396492 L35.6272267,11.98231 Z" id="icPhotoHeader"></path>
                            </g>
                        </g>
                    </g>
                </g>
            </g>
        </g>
    </g>
</svg>