<?xml version="1.0" encoding="UTF-8"?>
<svg width="30px" height="22px" viewBox="0 0 30 22" version="1.1" xmlns="http://www.w3.org/2000/svg" xmlns:xlink="http://www.w3.org/1999/xlink">
    <!-- Generator: Sketch 55 (78076) - https://sketchapp.com -->
    <title>icProspectHeader</title>
    <desc>Created with Sketch.</desc>
    <g id="Page-1" stroke="none" stroke-width="1" fill="none" fill-rule="evenodd">
        <g id="Notifications-SubMenu" transform="translate(-1313.000000, -29.000000)" fill="#FFFFFF" fill-rule="nonzero">
            <g id="Home-Header" transform="translate(0.000000, -62.000000)">
                <g id="Top-Header">
                    <g id="Right-top-header" transform="translate(1184.000000, 0.000000)">
                        <g id="Group-79" transform="translate(124.000000, 82.000000)">
                            <path d="M19.9999476,19.9420076 C22.6296718,19.9420076 24.674978,17.292049 24.674978,14.5488629 L24.674978,13.6894609 C24.674978,10.9463766 22.6296718,9 19.9999476,9 C17.3701186,9 15.3248125,10.9462749 15.3248125,13.6894609 L15.3248125,14.5488629 C15.3248125,17.292049 17.3701186,19.9420076 19.9999476,19.9420076 Z M10.6335454,20.8291947 C11.3854638,20.8291947 13.4431308,19.8813487 13.4431308,17.9146167 L13.4431308,16.4572769 C13.4431308,14.4904431 11.9587781,13.5425972 10.6335454,13.5425972 C9.35230905,13.5425972 7.82406468,14.4904431 7.82406468,16.4572769 L7.82406468,17.9146167 C7.82406468,19.8813487 9.92164267,20.8291947 10.6335454,20.8291947 Z M27.4673839,24.4732058 C27.4659174,24.4589571 27.4615177,24.4454208 27.4600512,24.4312738 C27.438053,24.2596784 27.4043225,24.0918487 27.3574978,23.9274794 C27.3574978,23.9259528 27.3574978,23.9246297 27.3560313,23.9232048 C27.2578775,23.5738056 27.0922627,23.2372302 26.8448357,22.9056419 L26.8448357,22.904217 C26.4390218,22.3584906 25.8268441,21.8018741 24.8322125,21.2590992 C24.3063515,20.9721908 24.0748469,20.8406954 23.7497978,20.8406954 C23.232736,20.8406954 22.781564,21.2313142 22.0214748,21.909452 L22.0199035,21.909452 L21.3285324,22.5270327 C21.3036011,22.5499325 20.5581774,23.5730931 20.0000524,23.5730931 C19.4419274,23.5730931 18.6963989,22.5498307 18.6714676,22.5270327 L17.9800965,21.909452 L17.97863,21.909452 C17.2185408,21.2313142 16.7673688,20.8406954 16.250307,20.8406954 C15.9251531,20.8406954 15.6349867,20.9721908 15.1678922,21.2590992 C14.2035343,21.8505233 13.5608734,22.3577782 13.1567356,22.9026903 L13.1551643,22.9034028 C13.1536978,22.9048276 13.1536978,22.9070667 13.152336,22.9082881 C12.9076325,23.2371284 12.743589,23.5715665 12.64554,23.9188284 C12.6441782,23.9216782 12.6425022,23.9252403 12.6413499,23.9287007 C12.5957822,24.0918487 12.5620517,24.2574393 12.5401583,24.4275081 C12.5386918,24.4432835 12.5342921,24.4581429 12.5327208,24.4738165 C12.5121892,24.6545718 12.5005616,24.8388893 12.5005616,25.0302294 C12.5005616,25.0515007 12.5001426,29.0193652 12.5005616,29.0378886 C12.5005616,30.3328946 13.0029579,30.859487 14.3754343,30.859487 L25.62488,30.859487 C27.0091935,30.859487 27.4997527,30.3612903 27.4997527,29.0378886 C27.5001717,29.0193652 27.4996479,25.0515007 27.4996479,25.0302294 C27.4995432,24.8389911 27.4878108,24.6546736 27.4673839,24.4732058 Z M29.3827961,20.8291947 C30.1346098,20.8291947 32.1924863,19.8813487 32.1924863,17.9146167 L32.1924863,16.4572769 C32.1924863,14.4904431 30.7081335,13.5425972 29.3827961,13.5425972 C28.101455,13.5425972 26.5732107,14.4904431 26.5732107,16.4572769 L26.5732107,17.9146167 C26.5732107,19.8813487 28.6707886,20.8291947 29.3827961,20.8291947 Z M7.13342686,22.8017279 C5.38876239,23.7666723 5.0006518,25.3051282 5.0006518,26.3055926 C5.0006518,26.3211644 4.99918525,28.1130441 5.0006518,28.1271911 C5.0006518,29.4492698 5.45768999,29.9488913 6.87552449,29.9488913 L10.6253746,29.9488913 C10.6253746,29.9488913 10.6253746,26.0779183 10.6253746,24.4838924 L9.68793829,23.5730931 C8.69613503,22.7234617 7.85999503,22.4004226 7.13342686,22.8017279 Z M10.6253746,24.4838924 C10.6549246,24.5011944 10.6253746,24.0513416 10.6253746,24.4838924 L10.6253746,24.4838924 Z M34.9993482,26.3055926 C34.9993482,25.3050264 34.6111329,23.7665705 32.8665731,22.8017279 C32.140005,22.4004226 31.303865,22.7234617 30.3120617,23.5731949 L29.3746254,24.4839941 C29.3746254,26.0779183 29.3746254,29.9489931 29.3746254,29.9489931 L33.1244755,29.9489931 C34.54231,29.9489931 34.9993482,29.4493715 34.9993482,28.1272929 C35.0008147,28.1130441 34.9993482,26.3212662 34.9993482,26.3055926 Z M29.3784621,24.4838924 C29.3784621,24.0513416 29.3490621,24.5011944 29.3784621,24.4838924 L29.3784621,24.4838924 Z" id="icProspectHeader"></path>
                        </g>
                    </g>
                </g>
            </g>
        </g>
    </g>
</svg>