<?xml version="1.0" encoding="UTF-8"?>
<svg width="30px" height="29px" viewBox="0 0 30 29" version="1.1" xmlns="http://www.w3.org/2000/svg" xmlns:xlink="http://www.w3.org/1999/xlink">
    <!-- Generator: Sketch 58 (84663) - https://sketch.com -->
    <title>icSettingsHeader</title>
    <desc>Created with Sketch.</desc>
    <defs>
        <path d="M26.0277344,10.9407621 L25.8850333,10.89057 L25.327696,9.5778098 L25.388135,9.44292347 C27.0765345,5.66442523 26.9601183,5.5517131 26.6800705,5.27777778 L24.4279247,3.10983029 C24.3358464,3.0196926 24.1741618,2.95629203 24.0347869,2.95629203 C23.9080677,2.95629203 23.5242595,2.95629203 20.1980021,4.44284342 L20.0646306,4.50192123 L18.692299,3.95661223 L18.6372142,3.82180596 C17.073019,0 16.9127947,0 16.5235509,0 L13.3429964,0 C12.9552129,0 12.7786011,0 11.3281449,3.82845021 L11.2735469,3.9678194 L9.90835438,4.51697086 L9.77782225,4.46341659 C7.52640659,3.52681716 6.21183686,3.0518732 5.86915959,3.0518732 C5.7301092,3.0518732 5.5678567,3.1134326 5.47537278,3.20333013 L3.2211177,5.37752161 C2.93514768,5.65585975 2.8165411,5.77241435 4.5933682,9.47206212 L4.65867483,9.60926993 L4.10044511,10.9205892 L3.96382851,10.9727025 C0,12.4842299 0,12.6316042 0,13.0252962 L0,16.1007045 C0,16.4954371 0,16.659382 3.97169776,18.0638809 L4.11366869,18.1133525 L4.67197953,19.4208293 L4.61202724,19.5544348 C2.92362775,23.3346942 3.0307144,23.4369997 3.3181447,23.7191002 L5.56688318,25.8900096 C5.66115188,25.9794268 5.82429677,26.0433077 5.96342829,26.0433077 C6.08933623,26.0433077 6.47225212,26.0433077 9.80069985,24.5574768 L9.93399028,24.4959174 L11.3072143,25.0439481 L11.3605954,25.1794749 C12.9257641,29 13.0865563,29 13.4760434,29 L16.6575715,29 C17.0570372,29 17.222697,29 18.6742889,25.1689882 L18.7284001,25.0295389 L20.0957831,24.4840698 L20.2259096,24.5364233 C22.4754593,25.4756644 23.78938,25.9496478 24.1298669,25.9496478 C24.2677004,25.9496478 24.4314132,25.8900096 24.5254385,25.7981108 L26.7833442,23.6191963 C27.0673672,23.3394172 27.1857304,23.225024 25.4057394,19.5288985 L25.3395404,19.3900897 L25.8967966,18.0844541 L26.0298436,18.0329811 C30,16.5135287 30,16.3654339 30,15.9712616 L30,12.8976945 C30,12.5030419 30,12.3400576 26.0277344,10.9407621 Z M14.000787,19 C11.243279,19 9,16.755451 9,13.998555 C9,11.2415786 11.2433577,9 14.000787,9 C16.7571145,9 19,11.2420603 19,13.998555 C19,16.7549693 16.7571932,19 14.000787,19 Z" id="path-1"></path>
    </defs>
    <g id="Page-1" stroke="none" stroke-width="1" fill="none" fill-rule="evenodd">
        <g id="Upgrade-Users-Notifications" transform="translate(-1133.000000, -196.000000)">
            <g id="Group-19" transform="translate(1079.000000, 64.000000)">
                <g id="Top" transform="translate(16.000000, 27.000000)">
                    <g id="Friends" transform="translate(0.000000, 90.000000)">
                        <g id="Group-11" transform="translate(28.000000, 5.000000)">
                            <g id="colour/dark-grey" transform="translate(10.000000, 10.000000)">
                                <mask id="mask-2" fill="white">
                                    <use xlink:href="#path-1"></use>
                                </mask>
                                <use id="icSettingsHeader" fill="#C1C1C1" fill-rule="nonzero" xlink:href="#path-1"></use>
                            </g>
                        </g>
                    </g>
                </g>
            </g>
        </g>
    </g>
</svg>