<?xml version="1.0" encoding="UTF-8"?>
<svg width="35px" height="29px" viewBox="0 0 35 29" version="1.1" xmlns="http://www.w3.org/2000/svg" xmlns:xlink="http://www.w3.org/1999/xlink">
    <!-- Generator: Sketch 58 (84663) - https://sketch.com -->
    <title>icSubscriptionsHeader</title>
    <desc>Created with Sketch.</desc>
    <g id="Page-1" stroke="none" stroke-width="1" fill="none" fill-rule="evenodd">
        <g id="Upgrade-Users-Notifications" transform="translate(-1418.000000, -196.000000)" fill="#C1C1C1">
            <g id="Group-19" transform="translate(1079.000000, 64.000000)">
                <g id="Top" transform="translate(16.000000, 27.000000)">
                    <g id="Upgrade" transform="translate(230.000000, 90.000000)">
                        <g id="Group-17" transform="translate(76.000000, 9.000000)">
                            <path d="M49.2320544,11.5133925 C47.735959,11.5133925 46.4649549,12.7216902 46.4649549,14.3076878 C46.4649549,14.835784 46.6147337,15.288682 46.8389787,15.6663818 L39.7342182,22.9922209 C37.790479,19.8202257 36.5194749,15.1382856 35.8458935,12.0414886 C36.8926525,11.5133925 37.6407002,10.4563456 37.6407002,9.17199517 C37.6407002,7.43560126 36.2199173,6 34.4995769,6 C32.7800827,6 31.3584536,7.43560126 31.3584536,9.17199517 C31.3584536,10.4563456 32.1065013,11.5133925 33.1532603,12.0414886 C32.4805251,15.1382856 31.2086748,19.8202257 29.2640894,22.9922209 L22.160175,15.6663818 C22.3844201,15.288682 22.5341989,14.835784 22.5341989,14.3076878 C22.5341989,12.7968884 21.3376611,11.5133925 19.7670994,11.5133925 C18.1965378,11.5133925 17,12.7216902 17,14.3076878 C17,15.8176327 18.1965378,17.1019831 19.7670994,17.1019831 L24.851962,34.4710493 C24.9272745,34.773551 25.226832,35 25.6000097,35 L43.4736104,35 C43.773168,35 44.0718793,34.773551 44.2216581,34.4710493 L49.2320544,17.0259304 C50.7281497,17.0259304 52,15.8176327 52,14.2316351 C51.9246875,12.7216902 50.7281497,11.5133925 49.2320544,11.5133925" id="icSubscriptionsHeader"></path>
                        </g>
                    </g>
                </g>
            </g>
        </g>
    </g>
</svg>