<?xml version="1.0" encoding="UTF-8"?>
<svg width="29px" height="29px" viewBox="0 0 29 29" version="1.1" xmlns="http://www.w3.org/2000/svg" xmlns:xlink="http://www.w3.org/1999/xlink">
    <!-- Generator: Sketch 55 (78076) - https://sketchapp.com -->
    <title>icUpgradeHeader</title>
    <desc>Created with Sketch.</desc>
    <g id="Page-1" stroke="none" stroke-width="1" fill="none" fill-rule="evenodd" opacity="0.7">
        <g id="Desktop-HD-header4-Final-Home-with-submenu" transform="translate(-1421.000000, -196.000000)" fill="#FFFFFF" fill-rule="nonzero">
            <g id="Group-19" transform="translate(1079.000000, 64.000000)">
                <g id="Top" transform="translate(16.000000, 27.000000)">
                    <g id="Upgrade" transform="translate(230.000000, 90.000000)">
                        <g id="Group-17" transform="translate(68.000000, 9.000000)">
                            <g id="Membership" transform="translate(28.000000, 6.000000)">
                                <path d="M28.9543666,3.72990354 C28.8630999,1.72508039 27.2659323,0.0932475884 25.3036979,0 L24.5735641,0 C24.2084972,0 23.8434304,0.0932475884 23.4783635,0.186495177 L4.03855232,0.186495177 C2.16758458,0.186495177 0.570416994,1.77170418 0.570416994,3.72990354 L0.570416994,4.47588424 C0.570416994,6.4340836 2.12195122,8.0192926 3.99291896,8.0192926 L3.99291896,8.0192926 L14.9905586,8.0192926 L1.02675059,22.3794212 C-0.342250197,23.778135 -0.342250197,25.9694534 1.02675059,27.3681672 L1.52871755,27.8810289 C2.85208497,29.2797428 5.04248623,29.2797428 6.41148702,27.8810289 L6.41148702,27.8810289 L21.1510622,12.8215434 L21.1510622,25.4565916 C21.1510622,27.414791 22.7025964,29 24.6191975,29 L25.3493312,29 C27.2659323,29 28.8174666,27.414791 28.8174666,25.4565916 L28.8174666,5.59485531 C28.9543666,5.22186495 29,4.8488746 29,4.47588424 L28.9543666,3.72990354 Z" id="icUpgradeHeader"></path>
                            </g>
                        </g>
                    </g>
                </g>
            </g>
        </g>
    </g>
</svg>