<?xml version="1.0" encoding="UTF-8"?>
<svg width="24px" height="24px" viewBox="0 0 24 24" version="1.1" xmlns="http://www.w3.org/2000/svg" xmlns:xlink="http://www.w3.org/1999/xlink">
    <!-- Generator: Sketch 51.3 (57544) - http://www.bohemiancoding.com/sketch -->
    <title>settings-work-tool</title>
    <desc>Created with Sketch.</desc>
    <defs></defs>
    <g id="Page-1" stroke="none" stroke-width="1" fill="none" fill-rule="evenodd">
        <g id="Messenger-Inbox---5-pin" transform="translate(-15.000000, -72.000000)" fill="#000000" fill-rule="nonzero">
            <g id="Header" transform="translate(0.000000, 64.000000)">
                <g id="Group-3">
                    <g id="settings-work-tool" transform="translate(15.000000, 8.000000)">
                        <path d="M1.27228916,14.4578313 L2.6313253,14.4578313 C2.92048193,14.4578313 3.18072289,14.660241 3.29638554,14.9204819 C3.38313253,15.2096386 3.49879518,15.4698795 3.64337349,15.7301205 C3.75903614,15.9903614 3.73012048,16.3084337 3.52771084,16.539759 L2.57349398,17.4939759 C2.08192771,17.9855422 2.08192771,18.7951807 2.57349398,19.286747 L4.45301205,21.1662651 C4.94457831,21.6578313 5.75421687,21.6578313 6.24578313,21.1662651 L7.2,20.2120482 C7.40240964,20.0096386 7.72048193,19.9518072 8.00963855,20.0963855 C8.26987952,20.2120482 8.55903614,20.3277108 8.81927711,20.4433735 C9.10843373,20.5590361 9.28192771,20.8192771 9.28192771,21.1084337 L9.28192771,22.4674699 C9.28192771,23.1614458 9.86024096,23.739759 10.5542169,23.739759 L13.2144578,23.739759 C13.9084337,23.739759 14.486747,23.1614458 14.486747,22.4674699 L14.486747,21.1084337 C14.486747,20.8192771 14.6891566,20.5590361 14.9493976,20.4433735 C15.2385542,20.3566265 15.4987952,20.2409639 15.7590361,20.0963855 C16.0192771,19.9807229 16.3662651,20.0096386 16.5686747,20.2120482 L17.5228916,21.1662651 C18.0144578,21.6578313 18.8240964,21.6578313 19.3156627,21.1662651 L21.1951807,19.286747 C21.686747,18.7951807 21.686747,17.9855422 21.1951807,17.4939759 L20.2409639,16.539759 C20.0385542,16.3373494 19.9807229,16.0192771 20.1253012,15.7301205 C20.2409639,15.4698795 20.3566265,15.1807229 20.4722892,14.9204819 C20.5879518,14.6313253 20.8481928,14.4578313 21.1373494,14.4578313 L22.4963855,14.4578313 C23.1903614,14.4578313 23.7686747,13.8795181 23.7686747,13.1855422 L23.7686747,10.5253012 C23.7686747,9.8313253 23.1903614,9.25301205 22.4963855,9.25301205 L21.1373494,9.25301205 C20.8481928,9.25301205 20.5879518,9.05060241 20.4722892,8.79036145 C20.3855422,8.50120482 20.2698795,8.24096386 20.1253012,7.98072289 C20.0096386,7.72048193 20.0385542,7.40240964 20.2409639,7.17108434 L21.1951807,6.21686747 C21.686747,5.7253012 21.686747,4.91566265 21.1951807,4.42409639 L19.3156627,2.54457831 C18.8240964,2.05301205 18.0144578,2.05301205 17.5228916,2.54457831 L16.5686747,3.49879518 C16.3662651,3.70120482 16.0481928,3.75903614 15.7590361,3.61445783 C15.4987952,3.49879518 15.2096386,3.38313253 14.9493976,3.26746988 C14.660241,3.15180723 14.486747,2.89156627 14.486747,2.60240964 L14.486747,1.24337349 C14.4578313,0.578313253 13.8795181,0 13.1855422,0 L10.5253012,0 C9.8313253,0 9.25301205,0.578313253 9.25301205,1.27228916 L9.25301205,2.6313253 C9.25301205,2.92048193 9.05060241,3.18072289 8.79036145,3.29638554 C8.50120482,3.38313253 8.24096386,3.49879518 7.98072289,3.64337349 C7.72048193,3.75903614 7.37349398,3.73012048 7.17108434,3.52771084 L6.21686747,2.57349398 C5.7253012,2.08192771 4.91566265,2.08192771 4.42409639,2.57349398 L2.54457831,4.45301205 C2.05301205,4.94457831 2.05301205,5.75421687 2.54457831,6.24578313 L3.49879518,7.2 C3.70120482,7.40240964 3.75903614,7.72048193 3.61445783,8.00963855 C3.49879518,8.26987952 3.38313253,8.55903614 3.26746988,8.81927711 C3.15180723,9.10843373 2.89156627,9.28192771 2.60240964,9.28192771 L1.24337349,9.28192771 C0.578313253,9.25301205 0,9.8313253 0,10.5253012 L0,13.1855422 C0,13.8795181 0.578313253,14.4578313 1.27228916,14.4578313 Z M0.578313253,10.5253012 C0.578313253,10.1493976 0.896385542,9.8313253 1.27228916,9.8313253 L2.6313253,9.8313253 C3.15180723,9.8313253 3.64337349,9.48433735 3.81686747,8.96385542 C3.90361446,8.70361446 4.01927711,8.44337349 4.13493976,8.21204819 C4.36626506,7.72048193 4.27951807,7.14216867 3.90361446,6.76626506 L2.94939759,5.81204819 C2.68915663,5.55180723 2.68915663,5.11807229 2.94939759,4.82891566 L4.82891566,2.94939759 C5.08915663,2.68915663 5.52289157,2.68915663 5.81204819,2.94939759 L6.76626506,3.90361446 C7.14216867,4.27951807 7.72048193,4.36626506 8.21204819,4.13493976 C8.47228916,4.01927711 8.70361446,3.90361446 8.96385542,3.81686747 C9.48433735,3.64337349 9.8313253,3.15180723 9.8313253,2.6313253 L9.8313253,1.27228916 C9.8313253,0.896385542 10.1493976,0.578313253 10.5253012,0.578313253 L13.1855422,0.578313253 C13.5614458,0.578313253 13.8795181,0.896385542 13.8795181,1.27228916 L13.8795181,2.6313253 C13.8795181,3.15180723 14.226506,3.64337349 14.746988,3.81686747 C15.0072289,3.90361446 15.2674699,4.01927711 15.4987952,4.13493976 C15.9903614,4.36626506 16.5686747,4.27951807 16.9445783,3.90361446 L17.8987952,2.94939759 C18.1590361,2.68915663 18.5927711,2.68915663 18.8819277,2.94939759 L20.7614458,4.82891566 C21.0216867,5.08915663 21.0216867,5.52289157 20.7614458,5.81204819 L19.8072289,6.76626506 C19.4313253,7.14216867 19.3445783,7.72048193 19.5759036,8.21204819 C19.6915663,8.47228916 19.8072289,8.70361446 19.8939759,8.96385542 C20.0674699,9.48433735 20.5590361,9.8313253 21.0795181,9.8313253 L22.4385542,9.8313253 C22.8144578,9.8313253 23.1325301,10.1493976 23.1325301,10.5253012 L23.1325301,13.1855422 C23.1325301,13.5614458 22.8144578,13.8795181 22.4385542,13.8795181 L21.0795181,13.8795181 C20.5590361,13.8795181 20.0674699,14.226506 19.8939759,14.746988 C19.8072289,15.0072289 19.6915663,15.2674699 19.5759036,15.4987952 C19.3445783,15.9903614 19.4313253,16.5686747 19.8072289,16.9445783 L20.7614458,17.8987952 C21.0216867,18.1590361 21.0216867,18.5927711 20.7614458,18.8819277 L18.8819277,20.7614458 C18.6216867,21.0216867 18.1879518,21.0216867 17.8987952,20.7614458 L16.9445783,19.8072289 C16.5686747,19.4313253 15.9903614,19.3445783 15.4987952,19.5759036 C15.2385542,19.6915663 15.0072289,19.8072289 14.746988,19.8939759 C14.226506,20.0674699 13.8795181,20.5590361 13.8795181,21.0795181 L13.8795181,22.4385542 C13.8795181,22.8144578 13.5614458,23.1325301 13.1855422,23.1325301 L10.5253012,23.1325301 C10.1493976,23.1325301 9.8313253,22.8144578 9.8313253,22.4385542 L9.8313253,21.0795181 C9.8313253,20.5590361 9.48433735,20.0674699 8.96385542,19.8939759 C8.70361446,19.8072289 8.44337349,19.6915663 8.21204819,19.5759036 C8.03855422,19.4891566 7.83614458,19.460241 7.6626506,19.460241 C7.34457831,19.460241 6.99759036,19.5759036 6.76626506,19.8361446 L5.81204819,20.7903614 C5.55180723,21.0506024 5.11807229,21.0506024 4.82891566,20.7903614 L2.94939759,18.9108434 C2.68915663,18.6506024 2.68915663,18.2168675 2.94939759,17.9277108 L3.90361446,16.973494 C4.27951807,16.5975904 4.36626506,16.0192771 4.13493976,15.5277108 C4.01927711,15.2674699 3.90361446,15.0361446 3.81686747,14.7759036 C3.64337349,14.2554217 3.15180723,13.9084337 2.6313253,13.9084337 L1.27228916,13.9084337 C0.896385542,13.9084337 0.578313253,13.5903614 0.578313253,13.2144578 L0.578313253,10.5253012 Z" id="Shape"></path>
                        <path d="M11.8554217,17.2048193 C14.8048193,17.2048193 17.2048193,14.8048193 17.2048193,11.8554217 C17.2048193,8.9060241 14.8048193,6.5060241 11.8554217,6.5060241 C8.9060241,6.5060241 6.5060241,8.9060241 6.5060241,11.8554217 C6.5060241,14.8048193 8.9060241,17.2048193 11.8554217,17.2048193 Z M11.8554217,7.08433735 C14.486747,7.08433735 16.626506,9.22409639 16.626506,11.8554217 C16.626506,14.486747 14.486747,16.626506 11.8554217,16.626506 C9.22409639,16.626506 7.08433735,14.486747 7.08433735,11.8554217 C7.08433735,9.22409639 9.22409639,7.08433735 11.8554217,7.08433735 Z" id="Shape"></path>
                    </g>
                </g>
            </g>
        </g>
    </g>
</svg>