<?xml version="1.0" encoding="UTF-8"?>
<svg width="23px" height="19px" viewBox="0 0 23 19" version="1.1" xmlns="http://www.w3.org/2000/svg" xmlns:xlink="http://www.w3.org/1999/xlink">
    <!-- Generator: Sketch 54 (76480) - https://sketchapp.com -->
    <title>onboardingIcMsg</title>
    <desc>Created with Sketch.</desc>
    <g id="Page-1" stroke="none" stroke-width="1" fill="none" fill-rule="evenodd">
        <g id="Messenger-Copy-3" transform="translate(-109.000000, -70.000000)" fill="#333333" fill-rule="nonzero">
            <path d="M130.13946,70 C131.057297,70 131.829115,70.7309878 131.829115,71.6447226 L131.829115,81.106954 C131.829115,82.0003835 131.078157,82.7516766 130.13946,82.7516766 L128.637544,82.7516766 L128.637544,84.7821983 C128.637544,85.0867766 128.387225,85.310134 128.095186,85.310134 C127.949167,85.310134 127.824007,85.2492183 127.719707,85.1476922 L125.279095,82.7516766 L114.494507,82.7516766 C113.57667,82.7516766 112.804852,82.0206887 112.804852,81.106954 L112.804852,71.6447226 C112.804852,70.751293 113.55581,70 114.494507,70 L130.13946,70 Z M116.8934,78.1423922 C117.769517,78.1423922 118.457895,77.4520148 118.457895,76.6195009 C118.457895,75.786987 117.748657,75.0966096 116.8934,75.0966096 C116.038143,75.0966096 115.328905,75.786987 115.328905,76.6195009 C115.328905,77.4520148 116.038143,78.1423922 116.8934,78.1423922 Z M122.379563,78.1423922 C123.234821,78.1423922 123.944059,77.4520148 123.944059,76.6195009 C123.944059,75.786987 123.234821,75.0966096 122.379563,75.0966096 C121.524306,75.0966096 120.815068,75.786987 120.815068,76.6195009 C120.815068,77.4520148 121.524306,78.1423922 122.379563,78.1423922 Z M127.844867,78.1423922 C128.700124,78.1423922 129.409362,77.4520148 129.409362,76.6195009 C129.409362,75.786987 128.700124,75.0966096 127.844867,75.0966096 C126.989609,75.0966096 126.280372,75.786987 126.280372,76.6195009 C126.280372,77.4520148 126.989609,78.1423922 127.844867,78.1423922 Z M111.744542,81.2849344 C111.744542,82.7225057 112.90309,83.8930994 114.325868,83.8930994 L121.175528,83.8930994 L121.175528,85.4538911 C121.175528,86.0494563 120.687718,86.5423379 120.098282,86.5423379 L113.187645,86.5423379 L111.62259,88.1236663 C111.561613,88.1852765 111.480312,88.22635 111.378685,88.22635 C111.195756,88.22635 111.033153,88.0620561 111.033153,87.8772255 L111.033153,86.5218012 L110.077859,86.5218012 C109.468097,86.5218012 108.980287,86.0289196 109.000613,85.3922809 L109.000613,79.1080408 C109.000613,78.5124756 109.488423,78.019594 110.077859,78.019594 L111.744542,78.019594 L111.744542,81.2849344 Z" id="onboardingIcMsg"></path>
        </g>
    </g>
</svg>