<?xml version="1.0" encoding="UTF-8"?>
<svg width="24px" height="18px" viewBox="0 0 24 18" version="1.1" xmlns="http://www.w3.org/2000/svg" xmlns:xlink="http://www.w3.org/1999/xlink">
    <!-- Generator: Sketch 54 (76480) - https://sketchapp.com -->
    <title>onboardingIcProspect</title>
    <desc>Created with Sketch.</desc>
    <g id="Page-1" stroke="none" stroke-width="1" fill="none" fill-rule="evenodd">
        <g id="Prospects-Copy-3" transform="translate(-112.000000, -71.000000)" fill="#333333" fill-rule="nonzero">
            <path d="M123.837277,79.7087007 C125.912536,79.7087007 127.526599,77.5996091 127.526599,75.4163181 L127.526599,74.7323234 C127.526599,72.5491135 125.912536,71 123.837277,71 C121.761936,71 120.147873,72.5490325 120.147873,74.7323234 L120.147873,75.4163181 C120.147873,77.5996091 121.761936,79.7087007 123.837277,79.7087007 Z M116.445738,80.4148094 C117.039118,80.4148094 118.662935,79.6604225 118.662935,78.0951083 L118.662935,76.9352173 C118.662935,75.369822 117.491552,74.6154352 116.445738,74.6154352 C115.434645,74.6154352 114.228624,75.369822 114.228624,76.9352173 L114.228624,78.0951083 C114.228624,79.6604225 115.883937,80.4148094 116.445738,80.4148094 Z M129.730239,83.3150635 C129.729082,83.303723 129.72561,83.2929495 129.724452,83.28169 C129.707092,83.1451179 129.680474,83.0115429 129.643522,82.880722 C129.643522,82.8795069 129.643522,82.8784539 129.642365,82.8773198 C129.564906,82.5992344 129.43421,82.3313554 129.238952,82.0674455 L129.238952,82.0663115 C128.918702,81.63197 128.4356,81.1889611 127.650681,80.7569687 C127.235696,80.5286195 127.053003,80.4239628 126.796489,80.4239628 C126.388447,80.4239628 126.032403,80.7348547 125.432575,81.2745819 L125.431335,81.2745819 L124.885736,81.766112 C124.866062,81.7843378 124.277807,82.5986673 123.83736,82.5986673 C123.396913,82.5986673 122.808576,81.7842568 122.788901,81.766112 L122.243303,81.2745819 L122.242145,81.2745819 C121.642317,80.7348547 121.286273,80.4239628 120.878231,80.4239628 C120.621635,80.4239628 120.392649,80.5286195 120.024039,80.7569687 C119.263011,81.2276808 118.755853,81.6314029 118.436925,82.0650964 L118.435685,82.0656634 C118.434528,82.0667975 118.434528,82.0685796 118.433453,82.0695516 C118.240344,82.3312743 118.110889,82.5974523 118.033513,82.8738367 C118.032438,82.8761048 118.031116,82.8789399 118.030206,82.881694 C117.994246,83.0115429 117.967628,83.1433358 117.95035,83.2786929 C117.949193,83.2912484 117.945721,83.3030749 117.944481,83.3155495 C117.928279,83.459412 117.919103,83.6061095 117.919103,83.7583964 C117.919103,83.7753261 117.918772,86.9333338 117.919103,86.9480765 C117.919103,87.9787667 118.315571,88.3978795 119.398667,88.3978795 L128.276219,88.3978795 C129.368656,88.3978795 129.755783,88.0013667 129.755783,86.9480765 C129.756114,86.9333338 129.7557,83.7753261 129.7557,83.7583964 C129.755618,83.6061905 129.746359,83.459493 129.730239,83.3150635 Z M131.241795,80.4148094 C131.835093,80.4148094 133.459075,79.6604225 133.459075,78.0951083 L133.459075,76.9352173 C133.459075,75.369822 132.287691,74.6154352 131.241795,74.6154352 C130.230619,74.6154352 129.024598,75.369822 129.024598,76.9352173 L129.024598,78.0951083 C129.024598,79.6604225 130.679911,80.4148094 131.241795,80.4148094 Z M113.683604,81.9847408 C112.306794,82.7527363 112.000514,83.9771872 112.000514,84.7734529 C112.000514,84.7858465 111.999357,86.2119964 112.000514,86.223256 C112.000514,87.2754932 112.361188,87.67314 113.480079,87.67314 L116.43929,87.67314 C116.43929,87.67314 116.43929,84.5922478 116.43929,83.3235689 L115.699508,82.5986673 C114.916822,81.922449 114.256978,81.6653435 113.683604,81.9847408 Z M116.43929,83.3235689 C116.45899,83.3373395 116.43929,82.9793034 116.43929,83.3235689 L116.43929,83.3235689 Z M135.674123,84.7734529 C135.674123,83.9771062 135.367761,82.7526553 133.991034,81.9847408 C133.417659,81.6653435 132.757816,81.922449 131.97513,82.5987483 L131.235347,83.3236499 C131.235347,84.5922478 131.235347,87.673221 131.235347,87.673221 L134.194559,87.673221 C135.313449,87.673221 135.674123,87.2755742 135.674123,86.223337 C135.675281,86.2119964 135.674123,84.7859275 135.674123,84.7734529 Z M131.236775,83.3235689 C131.236775,82.9793034 131.217175,83.3373395 131.236775,83.3235689 L131.236775,83.3235689 Z" id="onboardingIcProspect"></path>
        </g>
    </g>
</svg>