<?xml version="1.0" encoding="UTF-8"?>
<svg width="16px" height="14px" viewBox="0 0 16 14" version="1.1" xmlns="http://www.w3.org/2000/svg" xmlns:xlink="http://www.w3.org/1999/xlink">
    <!-- Generator: Sketch 54 (76480) - https://sketchapp.com -->
    <title>onboardingIcCmt</title>
    <desc>Created with Sketch.</desc>
    <g id="Page-1" stroke="none" stroke-width="1" fill="none" fill-rule="evenodd">
        <g id="Discover-Copy-3" transform="translate(-160.000000, -565.000000)" fill="#333333" fill-rule="nonzero">
            <path d="M173.150247,567.333953 C171.800011,566.086512 170.00876,565.4 168.099702,565.4 C166.190644,565.4 164.399392,566.086512 163.049157,567.333953 C160.439306,569.745116 160.258066,573.604651 162.599079,576.208372 C162.369508,576.635349 162.000988,577.132093 161.454248,577.380465 C161.191451,577.500465 161.043438,577.76 161.088748,578.027907 C161.134058,578.295814 161.357587,578.505116 161.64757,578.546977 C161.7835,578.566512 161.976822,578.586047 162.212434,578.586047 C162.843752,578.586047 163.774116,578.449302 164.725624,577.815814 C165.785876,578.343256 166.945809,578.6 168.096681,578.6 C169.945326,578.6 171.775846,577.938605 173.153267,576.666047 C174.503503,575.418605 175.246585,573.763721 175.246585,572 C175.246585,570.236279 174.500482,568.581395 173.150247,567.333953 Z M172.573301,576.133023 C170.534355,578.016744 167.377764,578.390698 164.894781,577.042791 C164.731665,576.953488 164.529281,576.981395 164.399392,577.101395 C164.38731,577.106977 164.375227,577.115349 164.366165,577.123721 C163.547566,577.709767 162.74407,577.832558 162.212434,577.832558 L162.209413,577.832558 C162.822607,577.419535 163.209252,576.805581 163.435802,576.328372 C163.47205,576.247442 163.478091,576.163721 163.456946,576.085581 C163.447884,576.010233 163.414657,575.934884 163.357264,575.873488 C161.146141,573.565581 161.260926,570.049302 163.623083,567.866977 C166.090962,565.586977 170.105421,565.586977 172.57028,567.866977 C175.04118,570.146977 175.04118,573.853023 172.573301,576.133023 Z" id="onboardingIcCmt"></path>
        </g>
    </g>
</svg>