<?xml version="1.0" encoding="UTF-8"?>
<svg width="23px" height="7px" viewBox="0 0 23 7" version="1.1" xmlns="http://www.w3.org/2000/svg" xmlns:xlink="http://www.w3.org/1999/xlink">
    <!-- Generator: Sketch 54 (76480) - https://sketchapp.com -->
    <title>onboardingIcMore</title>
    <desc>Created with Sketch.</desc>
    <defs>
        <path d="M138.376893,75.064452 C136.7425,75.064452 135.417563,73.7955191 135.417563,72.230211 C135.417563,70.6649029 136.7425,69.3959699 138.376893,69.3959699 C140.011285,69.3959699 141.336222,70.6649029 141.336222,72.230211 C141.336222,73.7955191 140.011285,75.064452 138.376893,75.064452 Z M138.376893,83.0003268 C136.7425,83.0003268 135.417563,81.7313939 135.417563,80.1660858 C135.417563,78.6007777 136.7425,77.3318448 138.376893,77.3318448 C140.011285,77.3318448 141.336222,78.6007777 141.336222,80.1660858 C141.336222,81.7313939 140.011285,83.0003268 138.376893,83.0003268 Z M138.376893,90.9362017 C136.7425,90.9362017 135.417563,89.6672688 135.417563,88.1019607 C135.417563,86.5366526 136.7425,85.2677197 138.376893,85.2677197 C140.011285,85.2677197 141.336222,86.5366526 141.336222,88.1019607 C141.336222,89.6672688 140.011285,90.9362017 138.376893,90.9362017 Z" id="path-1"></path>
    </defs>
    <g id="Page-1" stroke="none" stroke-width="1" fill="none" fill-rule="evenodd">
        <g id="Menu-Copy-4" transform="translate(-127.000000, -77.000000)">
            <mask id="mask-2" fill="white">
                <use xlink:href="#path-1"></use>
            </mask>
            <use id="onboardingIcMore" fill="#333333" transform="translate(138.376893, 80.166086) scale(-1, -1) rotate(-90.000000) translate(-138.376893, -80.166086) " xlink:href="#path-1"></use>
        </g>
    </g>
</svg>