<?xml version="1.0" encoding="UTF-8"?>
<svg width="19px" height="20px" viewBox="0 0 19 20" version="1.1" xmlns="http://www.w3.org/2000/svg" xmlns:xlink="http://www.w3.org/1999/xlink">
    <!-- Generator: Sketch 54 (76480) - https://sketchapp.com -->
    <title>onboardingIcDiscover</title>
    <desc>Created with Sketch.</desc>
    <g id="Page-1" stroke="none" stroke-width="1" fill="none" fill-rule="evenodd">
        <g id="Discover-Copy-3" transform="translate(-122.000000, -70.000000)" fill="#333333" fill-rule="nonzero">
            <path d="M140.146258,86.4547593 L136.105177,82.4952509 C136.083701,82.4742075 136.058508,82.459499 136.036066,82.4399119 C136.831218,81.2580593 137.295304,79.8433458 137.295304,78.3219591 C137.295304,74.1833998 133.87132,70.8284705 129.647652,70.8284705 C125.423983,70.8284705 122,74.1833998 122,78.3218863 C122,82.4602999 125.423909,85.8153021 129.647578,85.8153021 C131.200353,85.8153021 132.644111,85.3605754 133.85029,84.5814599 C133.87028,84.6033771 133.885217,84.6280612 133.906694,84.6491046 L137.947849,88.6087586 C138.554914,89.2035077 139.539119,89.2035077 140.146258,88.6087586 C140.753249,88.0139367 140.753249,87.0495811 140.146258,86.4547593 Z M129.647652,83.217571 C126.888103,83.217571 124.651126,81.0257081 124.651126,78.3218863 C124.651126,75.6179916 126.888178,73.4261287 129.647652,73.4261287 C132.407052,73.4261287 134.644104,75.6180644 134.644104,78.3218863 C134.644104,81.0257081 132.407052,83.217571 129.647652,83.217571 Z" id="onboardingIcDiscover"></path>
        </g>
    </g>
</svg>