<?xml version="1.0" encoding="UTF-8"?>
<svg width="12px" height="12px" viewBox="0 0 12 12" version="1.1" xmlns="http://www.w3.org/2000/svg" xmlns:xlink="http://www.w3.org/1999/xlink">
    <!-- Generator: Sketch 52.4 (67378) - http://www.bohemiancoding.com/sketch -->
    <title>icCloseLiveDesktop</title>
    <desc>Created with Sketch.</desc>
    <g id="DESKTOP-CHAT" stroke="none" stroke-width="1" fill="none" fill-rule="evenodd">
        <g id="chat-group-expanded-video-copy-10" transform="translate(-130.000000, -46.000000)" fill="#FFFFFF" fill-rule="nonzero">
            <g id="Group-31" transform="translate(30.000000, 30.000000)">
                <g id="Group-28" transform="translate(6.000000, 6.000000)">
                    <path d="M105.59438,12.3688483 L101.958451,16.0051801 L105.59438,19.6413396 C106.135207,20.1823764 106.135207,21.0587835 105.59438,21.5998203 C105.324156,21.8700458 104.969875,22.0052619 104.615766,22.0052619 C104.261072,22.0052619 103.906756,21.8702525 103.636739,21.5998203 L100.000017,17.9632473 L96.3635711,21.5997858 C96.0933818,21.8700113 95.7390662,22.0052275 95.3846472,22.0052275 C95.0303316,22.0052275 94.6762571,21.870218 94.4058266,21.5997858 C93.8650001,21.0589902 93.8650001,20.1825486 94.4058266,19.6413052 L98.0416526,16.0051456 L94.4056199,12.3688483 C93.8647934,11.8280183 93.8647934,10.9514044 94.4056199,10.4105744 C94.9463431,9.87015775 95.8224345,9.87015775 96.3633644,10.4105744 L99.9999828,14.0469062 L103.636326,10.4105744 C104.177359,9.87015775 105.053554,9.87015775 105.594173,10.4105744 C106.135207,10.9514044 106.135207,11.8280183 105.59438,12.3688483 Z" id="icCloseLiveDesktop"></path>
                </g>
            </g>
        </g>
    </g>
</svg>