<?xml version="1.0" encoding="UTF-8"?>
<svg width="11px" height="11px" viewBox="0 0 11 11" version="1.1" xmlns="http://www.w3.org/2000/svg" xmlns:xlink="http://www.w3.org/1999/xlink">
    <!-- Generator: Sketch 52.4 (67378) - http://www.bohemiancoding.com/sketch -->
    <title>icCloseChatDesktop</title>
    <desc>Created with Sketch.</desc>
    <g id="DESKTOP-CHAT" stroke="none" stroke-width="1" fill="none" fill-rule="evenodd">
        <g id="chat-group-expanded-video-copy-3" transform="translate(-1034.000000, -46.000000)" fill="#FFFFFF" fill-rule="nonzero">
            <g id="Group-27" transform="translate(-21.000000, -16.000000)">
                <g id="Group-26" transform="translate(0.000000, 46.000000)">
                    <path d="M1065.62818,18.1718828 L1062.29525,21.5051869 L1065.62818,24.8383332 C1066.12394,25.3342835 1066.12394,26.1376567 1065.62818,26.6336071 C1065.38048,26.8813138 1065.05572,27.0052619 1064.73112,27.0052619 C1064.40598,27.0052619 1064.08119,26.8815033 1063.83368,26.6336071 L1060.50002,23.3000819 L1057.16661,26.6335755 C1056.91893,26.8812822 1056.59414,27.0052303 1056.26926,27.0052303 C1055.94447,27.0052303 1055.6199,26.8814717 1055.37201,26.6335755 C1054.87625,26.1378462 1054.87625,25.3344414 1055.37201,24.8383016 L1058.70485,21.5051553 L1055.37182,18.1718828 C1054.87606,17.6761219 1054.87606,16.8725592 1055.37182,16.3767983 C1055.86748,15.8814164 1056.67056,15.8814164 1057.16642,16.3767983 L1060.49998,19.7101025 L1063.8333,16.3767983 C1064.32925,15.8814164 1065.13242,15.8814164 1065.62799,16.3767983 C1066.12394,16.8725592 1066.12394,17.6761219 1065.62818,18.1718828 Z" id="icCloseChatDesktop"></path>
                </g>
            </g>
        </g>
    </g>
</svg>