<?xml version="1.0" encoding="UTF-8"?>
<svg width="31px" height="31px" viewBox="0 0 31 31" version="1.1" xmlns="http://www.w3.org/2000/svg" xmlns:xlink="http://www.w3.org/1999/xlink">
    <!-- Generator: Sketch 52.4 (67378) - http://www.bohemiancoding.com/sketch -->
    <title>icClosepanDesktop</title>
    <desc>Created with Sketch.</desc>
    <g id="DESKTOP-CHAT" stroke="none" stroke-width="1" fill="none" fill-rule="evenodd">
        <g id="chat-group-expanded-video-copy-2" transform="translate(-1321.000000, -30.000000)" fill="#FFFFFF" fill-rule="nonzero">
            <g id="Group-25" transform="translate(821.000000, -70.000000)">
                <path d="M517.943237,127.640924 L517.942107,127.640924 L517.942107,120.65945 C517.942107,120.629086 517.94889,120.597676 517.952282,120.56836 C517.94889,120.545325 517.945498,120.527526 517.942107,120.504492 C517.945498,119.640707 518.74712,118.944444 519.74321,118.944444 L527.387443,118.944444 C528.383533,118.944444 529.186285,119.641754 529.186285,120.504492 C529.186285,121.365136 528.383533,122.063493 527.387443,122.065587 L523.729834,122.065587 L530.501215,128.334046 C531.159246,128.943407 531.159246,129.932833 530.501215,130.542194 C529.843185,131.152602 528.778125,131.152602 528.120095,130.542194 L521.315925,124.238136 L521.315925,127.640924 C521.315925,128.549731 520.555007,129.282639 519.629016,129.284733 C518.69511,129.284733 517.943237,128.549731 517.943237,127.640924 Z M502.872083,130.54236 C502.21182,131.152721 501.145676,131.152721 500.486544,130.541313 C499.830803,129.931998 499.830803,128.942647 500.486544,128.333333 L507.257632,122.065349 L503.600181,122.065349 C502.606395,122.063256 501.802547,121.364952 501.802547,120.504373 C501.802547,119.641701 502.606395,118.944444 503.600181,118.944444 L511.245213,118.944444 C512.24013,118.944444 513.042847,119.640654 513.045108,120.504373 C513.042847,120.528453 513.038325,120.546251 513.036064,120.568236 C513.038325,120.59755 513.04737,120.628958 513.04737,120.659319 L513.045108,127.64131 C513.045108,128.550048 512.292137,129.284994 511.360533,129.284994 C510.432321,129.2829 509.672566,128.550048 509.672566,127.64131 L509.672566,124.238781 L502.872083,130.54236 Z M528.119846,100.459231 C528.777933,99.8467487 529.843085,99.8467487 530.501173,100.460278 C531.15926,101.068572 531.15926,102.055872 530.501173,102.664166 L523.729205,108.932421 L527.38713,108.932421 C528.383307,108.934515 529.186129,109.634943 529.186129,110.494512 C529.186129,111.359315 528.383307,112.055556 527.38713,112.055556 L519.742236,112.055556 C518.747189,112.055556 517.945499,111.359315 517.942107,110.494512 C517.945499,110.472525 517.948891,110.451586 517.952283,110.429599 C517.948891,110.402378 517.942107,110.370968 517.942107,110.340606 L517.942107,103.356218 C517.942107,102.450582 518.694045,101.714557 519.628031,101.714557 C520.554103,101.717698 521.315087,102.450582 521.315087,103.356218 L521.315087,106.758895 L528.119846,100.459231 Z M507.257632,108.932455 L500.486544,102.663221 C499.830803,102.054933 499.830803,101.067644 500.486544,100.459356 C501.145676,99.8468812 502.21182,99.8468812 502.872083,100.459356 L509.672566,106.757906 L509.672566,103.355265 C509.672566,102.449639 510.432321,101.716763 511.360533,101.713622 C512.292137,101.713622 513.045108,102.449639 513.045108,103.355265 L513.04737,110.340625 C513.04737,110.372034 513.038325,110.402396 513.036064,110.429617 C513.038325,110.451603 513.042847,110.472542 513.045108,110.494529 C513.042847,111.359323 512.24013,112.055556 511.245213,112.055556 L503.601312,112.055556 C502.607526,112.055556 501.803678,111.359323 501.803678,110.494529 C501.803678,109.634969 502.607526,108.934549 503.601312,108.932455 L507.257632,108.932455 Z" id="icClosepanDesktop"></path>
            </g>
        </g>
    </g>
</svg>