<?xml version="1.0" encoding="UTF-8"?>
<svg width="15px" height="15px" viewBox="0 0 15 15" version="1.1" xmlns="http://www.w3.org/2000/svg" xmlns:xlink="http://www.w3.org/1999/xlink">
    <!-- Generator: Sketch 52.4 (67378) - http://www.bohemiancoding.com/sketch -->
    <title>icExpandChatDesktop</title>
    <desc>Created with Sketch.</desc>
    <g id="DESKTOP-CHAT" stroke="none" stroke-width="1" fill="none" fill-rule="evenodd">
        <g id="chat-group-expanded-video-copy-3" transform="translate(-997.000000, -44.000000)" fill="#FFFFFF" fill-rule="nonzero">
            <g id="Group-27" transform="translate(-21.000000, -16.000000)">
                <g id="Group-26" transform="translate(0.000000, 46.000000)">
                    <path d="M1032.49423,24.5740336 L1032.49474,24.5740336 L1032.49474,27.7257726 C1032.49474,27.7394799 1032.49168,27.7536599 1032.49014,27.7668945 C1032.49168,27.7772932 1032.49321,27.7853285 1032.49474,27.7957272 C1032.49321,28.1856769 1032.13132,28.5 1031.68164,28.5 L1028.23071,28.5 C1027.78103,28.5 1027.41863,28.1852042 1027.41863,27.7957272 C1027.41863,27.4071955 1027.78103,27.091927 1028.23071,27.0909817 L1029.88191,27.0909817 L1026.82501,24.2611285 C1026.52795,23.9860367 1026.52795,23.539367 1026.82501,23.2642752 C1027.12208,22.9887107 1027.60289,22.9887107 1027.89995,23.2642752 L1030.97165,26.1101991 L1030.97165,24.5740336 C1030.97165,24.1637592 1031.31516,23.8328928 1031.73319,23.8319474 C1032.1548,23.8319474 1032.49423,24.1637592 1032.49423,24.5740336 Z M1023.09356,23.2642005 C1023.39163,22.9886569 1023.87294,22.9886569 1024.1705,23.2646731 C1024.46653,23.539744 1024.46653,23.9863797 1024.1705,24.2614506 L1021.11374,27.0910888 L1022.76487,27.0910888 C1023.21351,27.092034 1023.5764,27.4072785 1023.5764,27.7957807 C1023.5764,28.1852282 1023.21351,28.5 1022.76487,28.5 L1019.31357,28.5 C1018.86442,28.5 1018.50204,28.1857008 1018.50102,27.7957807 C1018.50204,27.7849102 1018.50408,27.7768755 1018.5051,27.7669503 C1018.50408,27.7537166 1018.5,27.7395377 1018.5,27.7258314 L1018.50102,24.5738593 C1018.50102,24.1636161 1018.84094,23.8318296 1019.26151,23.8318296 C1019.68055,23.8327748 1020.02353,24.1636161 1020.02353,24.5738593 L1020.02353,26.1099081 L1023.09356,23.2642005 Z M1027.90007,19.7403435 C1027.60298,20.0168443 1027.12212,20.0168443 1026.82503,19.7398709 C1026.52794,19.4652607 1026.52794,19.0195509 1026.82503,18.7449407 L1029.88219,15.9151796 L1028.23085,15.9151796 C1027.78113,15.9142343 1027.4187,15.5980308 1027.4187,15.2099844 C1027.4187,14.8195748 1027.78113,14.5052619 1028.23085,14.5052619 L1031.68208,14.5052619 C1032.13129,14.5052619 1032.49321,14.8195748 1032.49474,15.2099844 C1032.49321,15.2199101 1032.49168,15.2293631 1032.49014,15.2392888 C1032.49168,15.2515777 1032.49474,15.2657572 1032.49474,15.2794641 L1032.49474,18.4325184 C1032.49474,18.8413615 1032.15528,19.1736351 1031.73364,19.1736351 C1031.31557,19.1722171 1030.97203,18.8413615 1030.97203,18.4325184 L1030.97203,16.8964029 L1027.90007,19.7403435 Z M1021.11374,15.9151643 L1024.1705,18.7453673 C1024.46653,19.0199745 1024.46653,19.4656795 1024.1705,19.7402867 C1023.87294,20.0167845 1023.39163,20.0167845 1023.09356,19.7402867 L1020.02353,16.8968496 L1020.02353,18.4329485 C1020.02353,18.8417871 1019.68055,19.1726391 1019.26151,19.1740571 C1018.84094,19.1740571 1018.50102,18.8417871 1018.50102,18.4329485 L1018.5,15.2794557 C1018.5,15.2652763 1018.50408,15.2515696 1018.5051,15.2392808 C1018.50408,15.2293553 1018.50204,15.2199024 1018.50102,15.2099768 C1018.50204,14.8195714 1018.86442,14.5052619 1019.31357,14.5052619 L1022.76436,14.5052619 C1023.213,14.5052619 1023.57589,14.8195714 1023.57589,15.2099768 C1023.57589,15.598019 1023.213,15.914219 1022.76436,15.9151643 L1021.11374,15.9151643 Z" id="icExpandChatDesktop"></path>
                </g>
            </g>
        </g>
    </g>
</svg>