<?xml version="1.0" encoding="UTF-8"?>
<svg width="25px" height="25px" viewBox="0 0 25 25" version="1.1" xmlns="http://www.w3.org/2000/svg" xmlns:xlink="http://www.w3.org/1999/xlink">
    <!-- Generator: Sketch 52.4 (67378) - http://www.bohemiancoding.com/sketch -->
    <title>icPlayDesktop</title>
    <desc>Created with Sketch.</desc>
    <defs>
        <path d="M15.5,7 C10.8131,7 7,10.8131 7,15.5 C7,20.1869 10.8131,24 15.5,24 C20.1869,24 24,20.1869 24,15.5 C24,10.8131 20.1869,7 15.5,7 Z M19.8725417,15.7322989 L13.455875,19.9510623 C13.4065833,19.9834062 13.349125,20 13.2916667,20 C13.245,20 13.1980417,19.9893125 13.1554583,19.9673749 C13.0597917,19.9187185 13,19.8230932 13,19.7187491 L13,11.2812222 C13,11.1768781 13.0597917,11.0812528 13.1554583,11.0325964 C13.251125,10.9836588 13.366625,10.9904088 13.4561667,11.048909 L19.8728333,15.2676724 C19.9521667,15.3199851 20,15.4068916 20,15.4999857 C20,15.5930797 19.9521667,15.6799862 19.8725417,15.7322989 Z" id="path-1"></path>
        <filter x="-35.3%" y="-35.3%" width="170.6%" height="170.6%" filterUnits="objectBoundingBox" id="filter-2">
            <feOffset dx="0" dy="0" in="SourceAlpha" result="shadowOffsetOuter1"></feOffset>
            <feGaussianBlur stdDeviation="2" in="shadowOffsetOuter1" result="shadowBlurOuter1"></feGaussianBlur>
            <feColorMatrix values="0 0 0 0 0   0 0 0 0 0   0 0 0 0 0  0 0 0 0.273295969 0" type="matrix" in="shadowBlurOuter1"></feColorMatrix>
        </filter>
    </defs>
    <g id="DESKTOP-CHAT" stroke="none" stroke-width="1" fill="none" fill-rule="evenodd">
        <g id="chat-group-expanded-video-copy-3" transform="translate(-637.000000, -39.000000)" fill-rule="nonzero">
            <g id="Group-27" transform="translate(-21.000000, -16.000000)">
                <g id="Group-26" transform="translate(0.000000, 46.000000)">
                    <g id="Group-25" transform="translate(491.000000, 0.000000)">
                        <g id="Group-24" transform="translate(164.000000, 6.000000)">
                            <g id="icPlayDesktop">
                                <use fill="black" fill-opacity="1" filter="url(#filter-2)" xlink:href="#path-1"></use>
                                <use fill="#FFFFFF" xlink:href="#path-1"></use>
                            </g>
                        </g>
                    </g>
                </g>
            </g>
        </g>
    </g>
</svg>