<?xml version="1.0" encoding="UTF-8"?>
<svg width="18px" height="18px" viewBox="0 0 18 18" version="1.1" xmlns="http://www.w3.org/2000/svg" xmlns:xlink="http://www.w3.org/1999/xlink">
    <!-- Generator: Sketch 52.4 (67378) - http://www.bohemiancoding.com/sketch -->
    <title>icSettingDesktop</title>
    <desc>Created with Sketch.</desc>
    <g id="DESKTOP-CHAT" stroke="none" stroke-width="1" fill="none" fill-rule="evenodd">
        <g id="chat-group-expanded-video-copy-3" transform="translate(-1189.000000, -10.000000)" fill="#646464" fill-rule="nonzero">
            <g id="Group-8" transform="translate(1175.000000, -6.000000)">
                <g id="Group-11">
                    <g id="Group-17">
                        <path d="M31.9436762,24.000655 C31.915212,23.7476308 31.6201884,23.5574943 31.3650817,23.5574943 C30.5402882,23.5574943 29.8083886,23.0732121 29.5014436,22.3242524 C29.187868,21.5571431 29.3900646,20.662517 30.0047585,20.0986709 C30.1982484,19.921795 30.2217565,19.6257071 30.0594768,19.4200329 C29.6373352,18.8839806 29.1575285,18.3997654 28.6336523,17.9801122 C28.4285088,17.8154924 28.1275245,17.8383972 27.9496396,18.035365 C27.4131723,18.6294829 26.4495402,18.8502931 25.7049154,18.5396051 C24.9300181,18.2136472 24.4413706,17.4284551 24.4891906,16.5855992 C24.5049296,16.3208548 24.3114397,16.0906684 24.0474924,16.0599277 C23.3752003,15.982172 22.6970144,15.979761 22.0227131,16.0545699 C21.7617796,16.0833683 21.5682897,16.3081299 21.5770634,16.5695257 C21.6063983,17.404077 21.1118571,18.1755396 20.3446618,18.4897771 C19.6089447,18.7902852 18.6520771,18.5713503 18.1166813,17.9825232 C17.9397341,17.7885693 17.6436389,17.7647269 17.4374908,17.9253952 C16.8980765,18.3485979 16.4074868,18.833215 15.9814607,19.3648471 C15.8152964,19.5715259 15.8397422,19.8710964 16.0351744,20.0489099 C16.6615888,20.6161716 16.8638524,21.5185666 16.5384223,22.2945164 C16.2277267,23.0343008 15.4595268,23.511082 14.580082,23.511082 C14.2947027,23.5019066 14.0914345,23.6934496 14.0602243,23.9529032 C13.9810602,24.6290632 13.9801225,25.318015 14.0563398,25.9996667 C14.0846031,26.2537625 14.3886013,26.4422247 14.6465209,26.4422247 C15.4302589,26.4221997 16.1827197,26.9074195 16.4983715,27.6755335 C16.8130186,28.4426429 16.610755,29.3367331 15.9951235,29.9010481 C15.8025713,30.0779239 15.7781255,30.373543 15.9404052,30.5792173 C16.3585953,31.111854 16.838469,31.596538 17.3642205,32.0196737 C17.5704356,32.1858339 17.8704823,32.1623933 18.0492378,31.9654256 C18.5877144,31.3698342 19.5512795,31.1494259 20.2929574,31.4607166 C21.069797,31.7856699 21.5584444,32.570795 21.5106245,33.4141197 C21.4950194,33.6789981 21.6894469,33.9095864 21.9523227,33.9398582 C22.2962378,33.9799751 22.6422291,34 22.9891581,34 C23.3184727,34 23.6478543,33.9819173 23.9771689,33.945283 C24.2381694,33.9164846 24.4315253,33.691723 24.4227517,33.4298584 C24.3925461,32.595776 24.887958,31.8243133 25.6541486,31.5106115 C26.3948219,31.2080943 27.347671,31.4295072 27.8831338,32.0177315 C28.0610856,32.2112836 28.3551045,32.2346572 28.5623912,32.0745247 C29.1008009,31.6523265 29.590386,31.1681113 30.0184213,30.6350058 C30.1845186,30.4287958 30.1610774,30.1287565 29.9646406,29.95101 C29.3382262,29.3837482 29.134958,28.4812193 29.4603881,27.7058053 C29.7663285,26.975866 30.5059972,26.4857572 31.3015897,26.4857572 L31.4129017,26.488637 C31.6709552,26.5095996 31.9083805,26.3108235 31.9396577,26.0474185 C32.0189558,25.3706558 32.0198934,24.6823067 31.9436762,24.000655 Z M23.0000335,28 C21.345678,28 20,26.654337 20,25 C20,23.34573 21.345678,22 23.0000335,22 C24.654322,22 26,23.34573 26,25 C26,26.654337 24.654322,28 23.0000335,28 Z" id="icSettingDesktop"></path>
                    </g>
                </g>
            </g>
        </g>
    </g>
</svg>