<?xml version="1.0" encoding="UTF-8"?>
<svg width="17px" height="11px" viewBox="0 0 17 11" version="1.1" xmlns="http://www.w3.org/2000/svg" xmlns:xlink="http://www.w3.org/1999/xlink">
    <!-- Generator: Sketch 52.4 (67378) - http://www.bohemiancoding.com/sketch -->
    <title>icVideoCallDesktop</title>
    <desc>Created with Sketch.</desc>
    <g id="DESKTOP-CHAT" stroke="none" stroke-width="1" fill="none" fill-rule="evenodd">
        <g id="chat-group-expanded-video-copy-3" transform="translate(-421.000000, -44.000000)" fill="#FFFFFF" fill-rule="nonzero">
            <g id="Group-28" transform="translate(414.000000, 34.000000)">
                <path d="M23.6299154,10.3178573 C23.5477113,10.2892622 23.4686638,10.2749044 23.3927064,10.2749044 C23.2219186,10.2749044 23.0797726,10.3294459 22.9658366,10.4382277 L19.1427147,13.8929995 L19.1427147,12.4750429 C19.1427147,11.7931848 18.8755016,11.210326 18.3410753,10.7261655 C17.8066157,10.2420652 17.1632707,10 16.4105084,10 L9.73207344,10 C8.97954377,10 8.33599933,10.2420652 7.80150656,10.7261655 C7.26721316,11.210326 7,11.7931848 7,12.4750429 L7,18.5250474 C7,19.2068453 7.26721316,19.789674 7.80153979,20.2738044 C8.33603255,20.7579348 8.979577,21 9.73210666,21 L16.4105749,21 C17.1633039,21 17.8066822,20.7579348 18.3411417,20.2738044 C18.875568,19.789674 19.1427812,19.2068754 19.1427812,18.5250474 L19.1427812,17.0983918 L22.965903,20.5617422 C23.0798391,20.6704939 23.2219851,20.7250053 23.3927729,20.7250053 C23.4687303,20.7250053 23.5477778,20.7106776 23.6299819,20.6821427 C23.8767603,20.5847086 24,20.4157566 24,20.1751362 L24,10.8250143 C23.9999003,10.5842735 23.8766606,10.4152914 23.6299154,10.3178573 Z" id="icVideoCallDesktop"></path>
            </g>
        </g>
    </g>
</svg>