<?xml version="1.0" encoding="UTF-8"?>
<svg width="23px" height="14px" viewBox="0 0 23 14" version="1.1" xmlns="http://www.w3.org/2000/svg" xmlns:xlink="http://www.w3.org/1999/xlink">
    <!-- Generator: Sketch 52.4 (67378) - http://www.bohemiancoding.com/sketch -->
    <title>icViewChatDesktop</title>
    <desc>Created with Sketch.</desc>
    <g id="DESKTOP-CHAT" stroke="none" stroke-width="1" fill="none" fill-rule="evenodd">
        <g id="chat-group-expanded-video-copy-2" transform="translate(-956.000000, -39.000000)" fill="#FFFFFF" fill-rule="nonzero">
            <g id="Group-25" transform="translate(821.000000, -70.000000)">
                <g id="Group-21" transform="translate(126.000000, 100.000000)">
                    <g id="Group-20">
                        <g id="Group-23">
                            <path d="M20.5,9 C24.894395,9 28.879462,11.3947645 31.8200368,15.2891858 C32.0599877,15.6078629 32.0599877,16.0530735 31.8200368,16.3717506 C28.879462,20.2614855 24.894395,22.65625 20.5,22.65625 C16.105605,22.65625 12.120538,20.2614855 9.17996318,16.3670642 C8.94001227,16.0483871 8.94001227,15.6031765 9.17996318,15.2844994 C12.120538,11.3947645 16.105605,9 20.5,9 Z M20.4450881,20.4904838 C22.7671876,20.3405249 24.6530413,18.454678 24.8030008,16.132587 C24.9802256,13.310633 22.6535819,10.988542 19.8361619,11.1657662 C17.5095182,11.3111809 15.6236645,13.1970278 15.4782492,15.523663 C15.3010244,18.345617 17.6276681,20.667708 20.4450881,20.4904838 Z M20.3019033,18.3386235 C18.7845247,18.4340452 17.530643,17.1844758 17.6305901,15.6668169 C17.7078219,14.4127037 18.725465,13.3994165 19.9793467,13.3176265 C21.4967253,13.2222048 22.750607,14.4717742 22.6506599,15.9894331 C22.568885,17.2480902 21.5512419,18.2613774 20.3019033,18.3386235 Z" id="icViewChatDesktop"></path>
                        </g>
                    </g>
                </g>
            </g>
        </g>
    </g>
</svg>