<?xml version="1.0" encoding="UTF-8"?>
<svg width="32px" height="26px" viewBox="0 0 32 26" version="1.1" xmlns="http://www.w3.org/2000/svg" xmlns:xlink="http://www.w3.org/1999/xlink">
    <!-- Generator: Sketch 52.4 (67378) - http://www.bohemiancoding.com/sketch -->
    <title>icVolumeBigDesktop</title>
    <desc>Created with Sketch.</desc>
    <g id="DESKTOP-CHAT" stroke="none" stroke-width="1" fill="none" fill-rule="evenodd">
        <g id="chat-group-expanded-video-copy-2" transform="translate(-1275.000000, -33.000000)" fill="#FFFFFF" fill-rule="nonzero">
            <g id="Group-25" transform="translate(821.000000, -70.000000)">
                <g id="Group-31" transform="translate(454.090626, 102.956939)">
                    <path d="M13.4613708,2.42163035 C13.7843972,2.42163035 14.0635229,2.53384366 14.2995957,2.75765102 C14.5352772,2.98158223 14.653281,3.24700511 14.653281,3.55342426 L14.653281,22.7903289 C14.653281,23.0966242 14.5352772,23.362109 14.2993348,23.5859164 C14.0634576,23.8095379 13.7841363,23.9218132 13.4611098,23.9218132 C13.1384095,23.9218132 12.859023,23.809476 12.6230806,23.5859164 L6.42125968,17.6979375 L1.54207294,17.6979375 C1.21930741,17.6979375 0.939920843,17.5858481 0.703847996,17.3618549 C0.467905613,17.1379856 0.349901805,16.8726866 0.349901805,16.5662055 L0.349901805,9.77705221 C0.349901805,9.47063306 0.467905613,9.2052721 0.703847996,8.98134089 C0.939725149,8.7576574 1.21904649,8.64544408 1.54207294,8.64544408 L6.4215206,8.64544408 L12.6233415,2.75765102 C12.8593491,2.53384366 13.1387357,2.42163035 13.4613708,2.42163035 Z M21.3150693,15.0821771 C20.7614308,15.876664 20.0291086,16.4438997 19.116871,16.7841392 C18.9866393,16.8443614 18.8236273,16.8748868 18.628314,16.8748868 C18.2899033,16.8748868 17.9964543,16.7622808 17.7491305,16.5378974 C17.502012,16.3135776 17.3777341,16.0378938 17.3777341,15.7100811 C17.3777341,15.4553635 17.4564343,15.240093 17.6126028,15.0638873 C17.7688398,14.8883189 17.9575833,14.7363296 18.1793809,14.609385 C18.4004257,14.4820581 18.622018,14.3424955 18.8437472,14.1908885 C19.0653395,14.0388992 19.254083,13.8238836 19.4102515,13.5446948 C19.5664885,13.2655696 19.6447096,12.9198496 19.6447096,12.5074709 C19.6447096,12.0949648 19.5660094,11.7493085 19.4102515,11.4701834 C19.254083,11.1912495 19.0653395,10.975979 18.8437472,10.8243083 C18.622018,10.6727013 18.4004257,10.5331387 18.1793809,10.4058118 C17.9575833,10.2785486 17.7688398,10.1268779 17.6126028,9.95086335 C17.4559553,9.77491257 17.3777341,9.55957838 17.3777341,9.30486078 C17.3777341,8.97743046 17.5020804,8.70142798 17.7491305,8.47704452 C17.9965228,8.2527248 18.2899717,8.14043748 18.628314,8.14043748 C18.8236957,8.14043748 18.9867077,8.17089908 19.116871,8.23137619 C20.0291086,8.5589977 20.761157,9.12285591 21.3150693,9.92339693 C21.8689132,10.7240654 22.1455272,11.5861032 22.1455272,12.507917 C22.1455272,13.4297309 21.8689132,14.2876901 21.3150693,15.0821771 Z M24.6398553,17.819987 C23.5786156,19.343264 22.173229,20.4518265 20.4255324,21.1460453 C20.2634305,21.2044428 20.1071671,21.2342903 19.9572014,21.2342903 C19.6200084,21.2342903 19.3330663,21.1223774 19.0957847,20.8986132 C18.8587655,20.675467 18.7399607,20.4104848 18.7399607,20.1047171 C18.7399607,19.6460037 18.9835401,19.2990179 19.4706988,19.0636361 C20.1698168,18.7225209 20.6441175,18.4638419 20.8937978,18.2872901 C21.8176019,17.6522102 22.5389589,16.8555951 23.0570816,15.8967648 C23.5752699,14.9381199 23.8343313,13.9178024 23.8343313,12.8356269 C23.8343313,11.7535132 23.5752043,10.7331339 23.0570816,9.77442722 C22.5388933,8.81578235 21.8180611,8.0190436 20.8937978,7.38377839 C20.6441831,7.20741195 20.1698168,6.94867115 19.4706988,6.60767957 C18.9835401,6.37223595 18.7399607,6.02525013 18.7399607,5.56647494 C18.7399607,5.26064542 18.8587655,4.99603397 19.0957847,4.77257882 C19.3331319,4.54906186 19.6144322,4.43727249 19.9390298,4.43727249 C20.1009349,4.43727249 20.2634305,4.46674929 20.4255324,4.5254557 C22.173229,5.21955093 23.5786156,6.32805164 24.6398553,7.85101966 C25.7012263,9.37497641 26.2322069,11.0361208 26.2322069,12.8358741 C26.2322069,14.6355656 25.7012919,16.2969572 24.6398553,17.819987 Z M28.5630687,5.58598693 C30.1880256,7.88984369 31,10.4183381 31,13.1713444 C31,15.9243508 30.187824,18.4531596 28.5630687,20.7572679 C26.938515,23.061502 24.7762073,24.7585478 22.0768848,25.8474619 C21.9108068,25.9075204 21.7443255,25.9374553 21.5784491,25.9374553 C21.2458225,25.9374553 20.9576224,25.8236272 20.7149912,25.5961595 C20.4716207,25.3688176 20.3499018,25.0994034 20.3499018,24.7881683 C20.3499018,24.3573193 20.5995229,24.0039489 21.0986308,23.7288746 C21.1883573,23.6806392 21.3316508,23.6178136 21.5301245,23.5403349 C21.7283965,23.462479 21.8721605,23.3998421 21.9620887,23.3522984 C22.5504525,23.0528863 23.0751005,22.7476885 23.5360325,22.4365163 C25.1092371,21.3477279 26.3377172,19.9888964 27.220263,18.3607764 C28.1030104,16.7328451 28.5441152,15.0036004 28.5441152,13.1717218 C28.5441152,11.3401575 28.1030104,9.61053553 27.220263,7.9826671 C26.3375155,6.35467289 25.1092371,4.99603006 23.5360325,3.90692727 C23.0751005,3.59569216 22.5504525,3.29030568 21.9620887,2.99127093 C21.8721605,2.94334991 21.7283965,2.88052431 21.5301245,2.8030457 C21.3316508,2.72500109 21.1883573,2.66217549 21.0986308,2.6146318 C20.5995229,2.3393689 20.3499018,1.98606139 20.3499018,1.55521238 C20.3499018,1.24404016 20.4716207,0.974437222 20.7149912,0.747095349 C20.9576896,0.519879253 21.2458898,0.405988206 21.5784491,0.405988206 C21.7443255,0.405988206 21.9108068,0.435860237 22.0768848,0.495604298 C24.7762073,1.58489575 26.938515,3.28187862 28.5630687,5.58598693 Z" id="icVolumeBigDesktop"></path>
                </g>
            </g>
        </g>
    </g>
</svg>