<?xml version="1.0" encoding="UTF-8"?>
<svg width="19px" height="16px" viewBox="0 0 19 16" version="1.1" xmlns="http://www.w3.org/2000/svg" xmlns:xlink="http://www.w3.org/1999/xlink">
    <!-- Generator: Sketch 52.4 (67378) - http://www.bohemiancoding.com/sketch -->
    <title>icVolumeDesktop</title>
    <desc>Created with Sketch.</desc>
    <g id="DESKTOP-CHAT" stroke="none" stroke-width="1" fill="none" fill-rule="evenodd">
        <g id="chat-group-expanded-video-copy-2" transform="translate(-603.000000, -43.000000)" fill="#FFFFFF" fill-rule="nonzero">
            <g id="Group-31" transform="translate(597.000000, 36.005262)">
                <path d="M14.1636624,8.50491126 C14.3586733,8.50491126 14.5271814,8.57265441 14.6696985,8.70776684 C14.8119793,8.84295404 14.8832182,9.00318975 14.8832182,9.18817489 L14.8832182,20.8014882 C14.8832182,20.9863986 14.8119793,21.1466717 14.669541,21.2817841 C14.527142,21.4167844 14.3585158,21.4845649 14.1635048,21.4845649 C13.9686908,21.4845649 13.8000252,21.416747 13.6575868,21.2817841 L9.9135495,17.7272131 L6.967986,17.7272131 C6.77313255,17.7272131 6.60446696,17.6595448 6.46194986,17.5243202 C6.31951152,17.3891704 6.24827265,17.2290094 6.24827265,17.0439869 L6.24827265,12.9453771 C6.24827265,12.760392 6.31951152,12.6001937 6.46194986,12.4650065 C6.60434882,12.3299688 6.77297503,12.2622257 6.967986,12.2622257 L9.91370702,12.2622257 L13.6577444,8.70776684 C13.8002221,8.57265441 13.9688877,8.50491126 14.1636624,8.50491126 Z M18.9049377,16.751779 C18.5707063,17.2314105 18.1286036,17.5738506 17.5778861,17.7792531 C17.4992653,17.8156092 17.400855,17.8340373 17.2829444,17.8340373 C17.0786459,17.8340373 16.9014909,17.7660571 16.7521816,17.6305969 C16.6029962,17.4951752 16.5279697,17.3287449 16.5279697,17.1308445 C16.5279697,16.9770716 16.575481,16.8471129 16.6697599,16.7407375 C16.76408,16.6347469 16.8780245,16.542991 17.0119236,16.4663546 C17.1453683,16.3894874 17.2791435,16.3052335 17.4130013,16.2137084 C17.5467765,16.1219525 17.6607209,15.9921477 17.7549998,15.8236015 C17.84932,15.6550937 17.8965421,15.4463826 17.8965421,15.1974298 C17.8965421,14.9483999 17.8490308,14.7397273 17.7549998,14.5712196 C17.6607209,14.4028273 17.5467765,14.2728686 17.4130013,14.181305 C17.2791435,14.0897799 17.1453683,14.005526 17.0119236,13.9286588 C16.8780245,13.85183 16.76408,13.7602665 16.6697599,13.6540066 C16.5751918,13.5477851 16.5279697,13.4177879 16.5279697,13.264015 C16.5279697,13.0663454 16.6030375,12.8997228 16.7521816,12.7642626 C16.9015322,12.6288408 17.0786873,12.561053 17.2829444,12.561053 C17.4008963,12.561053 17.4993066,12.5794427 17.5778861,12.6159527 C18.1286036,12.8137377 18.570541,13.1541387 18.9049377,13.6374251 C19.2392931,14.1207884 19.4062849,14.6412003 19.4062849,15.1976991 C19.4062849,15.7541978 19.2392931,16.2721475 18.9049377,16.751779 Z M20.91211,17.8008944 C20.2714399,18.7204962 19.4230085,19.389735 18.3679246,19.8088347 C18.2700637,19.8440892 18.1757275,19.8621082 18.0851933,19.8621082 C17.88163,19.8621082 17.7084031,19.7945464 17.5651563,19.65946 C17.4220679,19.5247468 17.3503455,19.3647771 17.3503455,19.1801852 C17.3503455,18.9032601 17.4973942,18.6937848 17.7914918,18.5516849 C18.2135491,18.3457538 18.4998843,18.1895893 18.6506163,18.0830051 C19.2083165,17.6996076 19.6437995,17.2186913 19.95659,16.6398457 C20.2694201,16.0611121 20.4258154,15.4451468 20.4258154,14.7918377 C20.4258154,14.138566 20.2693805,13.5225633 19.95659,12.9437924 C19.6437599,12.3650588 19.2085937,11.8840679 18.6506163,11.5005585 C18.4999239,11.3940861 18.2135491,11.2378844 17.7914918,11.0320279 C17.4973942,10.8898906 17.3503455,10.6804154 17.3503455,10.403453 C17.3503455,10.2188238 17.4220679,10.0590779 17.5651563,9.92417812 C17.7084427,9.789241 17.8782636,9.72175379 18.0742231,9.72175379 C18.1719652,9.72175379 18.2700637,9.73954893 18.3679246,9.77498997 C19.4230085,10.194015 20.2714399,10.8632166 20.91211,11.7826319 C21.5528593,12.7026441 21.8734122,13.7054764 21.8734122,14.791987 C21.8734122,15.8784602 21.5528989,16.8814417 20.91211,17.8008944 Z M23.3404212,10.4152323 C24.2814866,11.8060699 24.7517273,13.3325212 24.7517273,14.9945103 C24.7517273,16.6564993 24.2813698,18.1831405 23.3404212,19.5741299 C22.3995893,20.9651953 21.1473266,21.9897013 19.5840611,22.6470784 C19.48788,22.6833357 19.3914652,22.7014074 19.2954008,22.7014074 C19.102766,22.7014074 18.9358599,22.6326894 18.7953443,22.4953673 C18.6544005,22.3581211 18.5839091,22.1954757 18.5839091,22.0075832 C18.5839091,21.7474798 18.7284728,21.5341502 19.0175224,21.368088 C19.0694859,21.3389682 19.1524719,21.3010404 19.2674144,21.2542666 C19.3822402,21.207265 19.4654987,21.1694511 19.517579,21.140749 C19.8583196,20.959994 20.1621603,20.7757462 20.429101,20.5878916 C21.340195,19.9305904 22.0516477,19.1102643 22.5627587,18.1273688 C23.0739864,17.1445871 23.3294446,16.1006427 23.3294446,14.9947381 C23.3294446,13.8890233 23.0739864,12.8448511 22.5627587,11.8621074 C22.051531,10.8792878 21.340195,10.0590756 20.429101,9.40158455 C20.1621603,9.21369201 19.8583196,9.02933029 19.517579,8.84880311 C19.4654987,8.8198732 19.3822402,8.78194541 19.2674144,8.73517159 C19.1524719,8.68805608 19.0694859,8.65012829 19.0175224,8.62142618 C18.7284728,8.45525005 18.5839091,8.24195842 18.5839091,7.98185501 C18.5839091,7.79400043 18.6544005,7.63124123 18.7953443,7.49399501 C18.9358988,7.35682472 19.1028049,7.28806873 19.2954008,7.28806873 C19.3914652,7.28806873 19.48788,7.30610247 19.5840611,7.34216994 C21.1473266,7.99977484 22.3995893,9.02424288 23.3404212,10.4152323 Z" id="icVolumeDesktop"></path>
            </g>
        </g>
    </g>
</svg>