<?xml version="1.0" encoding="UTF-8"?>
<svg width="81px" height="38px" viewBox="0 0 81 38" version="1.1" xmlns="http://www.w3.org/2000/svg" xmlns:xlink="http://www.w3.org/1999/xlink">
    <!-- Generator: Sketch 55.2 (78181) - https://sketchapp.com -->
    <title>BPayCard</title>
    <desc>Created with Sketch.</desc>
    <g id="Web-upgrade" stroke="none" stroke-width="1" fill="none" fill-rule="evenodd">
        <g id="Payment-----BPay" transform="translate(-74.000000, -339.000000)">
            <g id="BPayCard" transform="translate(74.000000, 339.000000)">
                <path d="M79.198,-2.84217094e-14 L1.506,-2.84217094e-14 C0.676,-2.84217094e-14 1.63424829e-13,0.678 1.63424829e-13,1.51 L1.63424829e-13,35.553 C1.63424829e-13,36.385 0.676,37.06 1.506,37.06 L79.198,37.06 C80.026,37.06 80.707,36.385 80.707,35.553 L80.707,1.51 C80.707,0.678 80.026,-2.84217094e-14 79.198,-2.84217094e-14" id="Fill-7" fill="#0A2652"></path>
                <path d="M73.3060563,9.0139958 C72.2721422,9.0139958 71.8071867,9 71.3697615,9 C70.9088845,9 70.3725543,9.08597421 70.1227427,9.79676097 L69.1999692,11.4212736 L65.4986788,17.8373488 L61.8024867,11.4212736 L60.8797132,9.79676097 C60.6278623,9.08597421 60.0935713,9 59.6306551,9 C59.1922103,9 58.7272548,9.0139958 57.6933406,9.0139958 C56.6798192,9.0139958 57.0764589,9.78376487 57.0764589,9.78376487 C57.0764589,9.78376487 60.8297508,16.3088074 63.8509419,21.5822253 C63.8509419,21.5822253 63.7999599,27.8503449 63.7999599,28.2852144 C63.7999599,28.7230831 64.0385555,29 64.5218645,29 L66.2817618,29 C66.5988696,29 67.16273,28.9730081 67.16273,28.3072078 L67.1494747,21.5822253 C70.172705,16.3088074 73.9239577,9.78376487 73.9239577,9.78376487 C73.9239577,9.78376487 74.3195777,9.0139958 73.3060563,9.0139958 Z M79,35.2439964 C79,35.6234767 78.8053186,35.9891577 78.2382465,36 L2.71782538,36 C2.69685968,36 2.68188419,35.9960573 2.66491196,35.9960573 C2.29551643,35.9753584 2,35.6747312 2,35.3031362 C2,35.3031362 2.00199673,21.6852151 2.00199673,12.3273297 L9.9180432,12.3273297 L6.72626611,13.4706989 L6.72626611,30.7296595 C6.72626611,31.2106631 7.00081685,31.4629928 7.41214376,31.5014337 L18.1605555,31.5014337 C21.8335451,31.3821685 24.7737339,28.4153226 24.7737339,24.7614695 C24.7737339,22.3682796 23.5088038,20.2678315 21.6019241,19.0722222 C22.7949719,18.031362 23.6935015,16.3330645 23.6935015,14.6544803 C23.6935015,10.1904122 20.4837539,7.65824373 15.9042476,7.65824373 L11.446542,7.65824373 L11.446542,3 C31.3689417,3 78.2382465,3 78.2382465,3 C78.8262843,3 79,3.37750896 79,3.75107527 L79,35.2439964 Z M2,2.7501058 L2,2.74798984 C2,2.35336437 2.30431107,2.02856538 2.68892646,2 C2.68892646,2 4.27599324,2 7,2 L7,7 L2,7 C2,4.41324587 2,2.7501058 2,2.7501058 Z M11,11 L16.6211724,11 C18.0931759,11 19.286308,12.2479109 19.286308,13.7132278 C19.286308,15.1785447 18.0931759,16.368843 16.6211724,16.368843 L15.6489501,16.4177594 C15.1283902,16.441674 14.8527997,16.7449555 14.8396763,17.2189007 L14.8418635,20.4778178 C14.8724847,20.9930702 15.1929134,21.2648278 15.6894138,21.2648278 L18.1073928,21.2648278 C19.7073491,21.2648278 21,22.5518717 21,24.1421972 C21,25.6433861 19.8363955,26.8717304 18.3567367,26.9956519 L11.825678,27 C11.3390201,26.9913038 11.0229659,26.713024 11,26.1803791 L11,11 Z M79.499079,0 L1.49694238,0 C0.671386119,0 0,0.678768954 0,1.51541454 L0,36.4835799 C0,37.3202255 0.671386119,38 1.49694238,38 L79.499079,38 C80.3256299,38 81,37.3202255 81,36.4835799 L81,1.51541454 C81,0.678768954 80.3256299,0 79.499079,0 Z M36.7678937,18 L32,18 L32,12.0037951 L36.7678937,12 C38.5531697,12 40,13.341556 40,15 C40,16.6565465 38.5531697,18 36.7678937,18 Z M36.7786429,9 L29.7036986,9 C29.0895439,9 29,9.52167433 29,9.84609368 C29,10.1745182 29.0038932,28.2729126 29.0038932,28.2729126 C29.0038932,29.0288897 29.6822859,29 29.7572303,29 L31.5656285,29 C31.8615128,29 32.1904894,28.7515312 32.1904894,28.4020795 L32.1875695,21.7955398 L36.7786429,21.7955398 C40.2153782,21.7955398 43,18.9318381 43,15.3962679 C43,11.8627004 40.2153782,9 36.7786429,9 Z M48,21 L51.3974549,12 L55,21 L48,21 Z M53.0304287,9.8347095 C52.7807655,9.33128159 52.5968032,9 51.6911424,9 L49.3087289,9 C48.4020573,9 48.2231489,9.33128159 47.9704533,9.8347095 C47.7430273,10.3351349 41.0748976,28.2163339 41.0748976,28.2163339 C41.0748976,28.2163339 40.6847357,28.9879898 41.68541,28.9879898 C42.7123646,28.9879898 42.9327151,29 43.3673515,29 C43.8272573,29 44.3569072,28.9139268 44.6055596,28.202322 C44.8238885,27.5807937 45.8225413,24.8384627 45.8225413,24.8384627 L55.1783408,24.8384627 C55.1783408,24.8384627 56.1769935,27.5807937 56.3933009,28.202322 C56.6439749,28.9139268 57.1746355,29 57.631509,29 C58.0671561,29 58.2895282,28.9879898 59.3114289,28.9879898 C60.318168,28.9879898 59.9239629,28.2163339 59.9239629,28.2163339 C59.9239629,28.2163339 53.2598763,10.3351349 53.0304287,9.8347095 L53.0304287,9.8347095 Z" id="Fill-8" fill="#FFFFFE"></path>
            </g>
        </g>
    </g>
</svg>