<?xml version="1.0" encoding="UTF-8"?>
<svg width="29px" height="27px" viewBox="0 0 29 27" version="1.1" xmlns="http://www.w3.org/2000/svg" xmlns:xlink="http://www.w3.org/1999/xlink">
    <!-- Generator: Sketch 55.2 (78181) - https://sketchapp.com -->
    <title>icBankTransfer</title>
    <desc>Created with Sketch.</desc>
    <g id="Web-upgrade" stroke="none" stroke-width="1" fill="none" fill-rule="evenodd">
        <g id="Payment----Options" transform="translate(-27.000000, -443.000000)" fill="#333333" fill-rule="nonzero">
            <g id="transfer" transform="translate(27.000000, 442.425662)">
                <path d="M22.9492223,0.574338086 C24.6203111,0.574338086 25.9821592,1.91441782 26,3.55164566 L26,5.53263309 C26,5.92883057 25.6729186,6.24928442 25.268527,6.24928442 C24.8641354,6.24928442 24.537054,5.92883057 24.537054,5.53263309 L24.537054,3.55164566 C24.537054,2.69515992 23.8293687,2.00181432 22.9551693,2.00181432 L6.21454712,2.00181432 C5.34034767,2.00181432 4.6326624,2.69515992 4.6326624,3.55164566 L4.6326624,17.1388888 L6.55946935,15.2511243 C6.84492223,14.9714555 7.30283623,14.9714555 7.58828911,15.2511243 C7.87374199,15.5307932 7.87374199,15.9794285 7.58828911,16.2590974 L4.41857274,19.3645865 C4.27584629,19.5044209 4.09149131,19.5743381 3.90118939,19.5743381 C3.71088747,19.5743381 3.52653248,19.5044209 3.38380604,19.3645865 L0.214089661,16.2590974 C-0.0713632205,15.9794285 -0.0713632205,15.5307932 0.214089661,15.2511243 C0.499542543,14.9714555 0.957456542,14.9714555 1.24290942,15.2511243 L3.16376944,17.1330624 L3.16376944,3.55164566 C3.16376944,1.90859138 4.52561757,0.574338086 6.20265325,0.574338086 L22.9492223,0.574338086 Z M24.5913043,8.77550427 C24.8649886,8.50728269 25.3528604,8.50728269 25.6146453,8.77550427 L28.7858124,11.883376 C29.0713959,12.1632594 29.0713959,12.612239 28.7858124,12.8921223 C28.5002288,13.1720057 28.0421053,13.1720057 27.7565217,12.8921223 L25.828833,11.0029095 L25.828833,24.5947462 C25.828833,26.2390611 24.4663616,27.5743381 22.7885584,27.5743381 L6.0402746,27.5743381 C4.3624714,27.5743381 3,26.2390611 3,24.5947462 L3,22.612239 C3,22.2157375 3.32723112,21.8950378 3.73180778,21.8950378 C4.13638444,21.8950378 4.46361556,22.2157375 4.46361556,22.612239 L4.46361556,24.5947462 C4.46361556,25.4518891 5.17162471,26.1457667 6.04622426,26.1457667 L22.8004577,26.1457667 C23.6750572,26.1457667 24.3830664,25.4518891 24.3830664,24.5947462 L24.3830664,11.0029095 L22.4553776,12.8921223 C22.3125858,13.032064 22.1281465,13.1020349 21.9377574,13.1020349 C21.7473684,13.1020349 21.5629291,13.032064 21.4201373,12.8921223 C21.1345538,12.612239 21.1345538,12.1632594 21.4201373,11.883376 L24.5913043,8.77550427 Z M14.5031056,7.57433809 C14.9254658,7.57433809 15.2608696,7.90398308 15.2670807,8.30555063 L15.2670807,9.43233716 L16.6708075,9.43233716 C17.0931677,9.43233716 17.4347826,9.76198216 17.4347826,10.1695432 C17.4347826,10.5771043 17.0931677,10.9067493 16.6708075,10.9067493 L13.6459627,10.9067493 C13.0310559,10.9067493 12.5279503,11.452162 12.5279503,12.1174455 C12.5279503,12.782729 13.0310559,13.3281417 13.6459627,13.3281417 L15.3602484,13.3281417 C16.8136646,13.3281417 18,14.5268508 18,16.0072565 C18,17.4696816 16.8385093,18.6683906 15.3975155,18.6863713 C15.3913043,18.6863713 15.3850932,18.6863713 15.378882,18.6863713 L15.2670807,18.6863713 L15.2670807,19.837132 C15.2670807,20.2446931 14.9254658,20.5743381 14.5031056,20.5743381 C14.0807453,20.5743381 13.7391304,20.2446931 13.7391304,19.837132 L13.7391304,18.6923648 L12.2732919,18.6923648 C11.8509317,18.6923648 11.5093168,18.3627198 11.5093168,17.9551587 C11.5093168,17.5475977 11.8509317,17.2179527 12.2732919,17.2179527 L15.3540373,17.2179527 C15.9689441,17.2179527 16.4720497,16.6785336 16.4720497,16.0072565 C16.4720497,15.3419729 15.9689441,14.7965603 15.3540373,14.7965603 L13.6397516,14.7965603 C12.1863354,14.7965603 11,13.5918577 11,12.1174455 C11,10.6430333 12.1863354,9.43833071 13.6397516,9.43833071 L13.7391304,9.43833071 L13.7391304,8.31154417 C13.7391304,7.90398308 14.0807453,7.57433809 14.5031056,7.57433809 Z" id="icBankTransfer"></path>
            </g>
        </g>
    </g>
</svg>