<?xml version="1.0" encoding="UTF-8"?>
<svg width="20px" height="31px" viewBox="0 0 20 31" version="1.1" xmlns="http://www.w3.org/2000/svg" xmlns:xlink="http://www.w3.org/1999/xlink">
    <!-- Generator: Sketch 55.2 (78181) - https://sketchapp.com -->
    <title>icBPay</title>
    <desc>Created with Sketch.</desc>
    <g id="Web-upgrade" stroke="none" stroke-width="1" fill="none" fill-rule="evenodd">
        <g id="Payment----Options" transform="translate(-31.000000, -496.000000)" fill="#333333" fill-rule="nonzero">
            <g id="bpay-logo" transform="translate(31.000000, 496.000000)">
                <path d="M1.158,-3.73034936e-14 C2.091,-3.73034936e-14 3.031,-3.73034936e-14 3.988,-3.73034936e-14 C3.988,0.936 3.988,1.853 3.988,2.782 C3.044,2.782 2.109,2.782 1.158,2.782 C1.158,1.864 1.158,0.94 1.158,-3.73034936e-14 Z M13.806,13.072 C14.05,14.133 13.769,15.388 12.437,15.819 C12.234,15.883 12.019,15.929 11.805,15.936 C10.897,15.962 9.987,15.976 9.076,15.987 C8.446,15.995 7.815,15.989 7.17,15.989 C7.17,12.498 7.17,9.022 7.17,5.512 L11.755,5.511 C12.387,5.511 13.026,6.209 13.026,6.955 C13.104,8.714 12.102,8.965 11.426,8.965 L9.979,8.962 C9.979,9.828 9.979,10.765 9.979,11.671 C10.069,11.671 12.271,11.682 12.271,11.682 C13.011,11.796 13.625,12.288 13.806,13.072 Z M7.163,4.26325641e-14 C11.129,4.26325641e-14 15.088,4.26325641e-14 19.067,4.26325641e-14 C19.067,7.066 19.067,14.126 19.063,21.208 C13.101,21.208 7.133,21.208 1.148,21.208 C1.148,15.987 1.148,10.765 1.148,5.528 C2.087,5.528 3.02,5.528 3.982,5.528 C3.982,9.887 3.982,14.257 3.982,18.655 C4.095,18.655 4.178,18.655 4.264,18.655 C6.665,18.655 9.066,18.679 11.467,18.645 C12.392,18.63 13.319,18.548 14.209,18.227 C15.037,17.928 15.689,17.41 16.217,16.717 C16.654,16.145 16.951,15.497 17.064,14.804 C17.27,13.538 17.152,12.336 16.335,11.272 C16.046,10.897 15.655,10.597 15.221,10.397 C15.052,10.318 14.886,10.226 14.698,10.13 C14.917,9.958 15.129,9.776 15.317,9.601 C15.8,9.154 16.014,8.601 16.116,7.973 C16.18,7.588 16.223,7.194 16.216,6.805 C16.184,5.245 15.192,3.966 13.739,3.222 C13.173,2.932 12.543,2.797 12.03,2.797 L7.436,2.795 C7.349,2.794 7.263,2.795 7.163,2.795 C7.163,1.854 7.163,0.936 7.163,4.26325641e-14 Z M17.487,22.731 C18.043,22.726 18.596,22.728 19.218,22.735 C19.058,23.043 18.929,23.31 18.783,23.571 C18.473,24.136 18.157,24.698 17.845,25.261 C17.502,25.885 17.146,26.505 16.814,27.137 C16.729,27.302 16.673,27.502 16.668,27.69 C16.652,28.51 16.663,29.33 16.663,30.17 C16.137,30.17 15.628,30.17 15.105,30.17 C15.101,30.099 15.093,30.031 15.093,29.962 C15.093,29.416 15.055,28.867 15.103,28.324 C15.157,27.662 14.979,27.091 14.625,26.539 C14.331,26.078 14.081,25.584 13.812,25.105 C13.414,24.385 13.018,23.666 12.622,22.947 C12.588,22.885 12.563,22.826 12.514,22.732 C13.128,22.732 13.708,22.73 14.291,22.738 C14.339,22.738 14.414,22.8 14.437,22.855 C14.883,23.767 15.326,24.684 15.767,25.6 C15.808,25.683 15.855,25.764 15.917,25.885 C16.206,25.26 16.484,24.67 16.755,24.075 C16.946,23.653 17.135,23.227 17.333,22.806 C17.352,22.765 17.434,22.731 17.487,22.731 Z M6.635,24.46 C6.741,25.008 6.733,25.558 6.505,26.089 C6.173,26.86 5.626,27.366 4.759,27.424 C4.133,27.466 3.501,27.461 2.87,27.476 C2.778,27.478 2.682,27.476 2.563,27.476 C2.563,28.381 2.563,29.271 2.563,30.17 C2.018,30.17 1.497,30.17 0.961,30.17 C0.961,27.698 0.961,25.23 0.961,22.73 C2.133,22.73 3.287,22.709 4.441,22.738 C5.026,22.755 5.593,22.887 6.043,23.331 C6.361,23.646 6.551,24.029 6.635,24.46 Z M4.889,25.776 C4.991,25.583 5.055,25.362 5.095,25.149 C5.186,24.669 4.824,24.145 4.343,24.114 C3.763,24.077 3.18,24.106 2.574,24.106 C2.574,24.765 2.574,25.448 2.574,26.147 C2.651,26.147 2.715,26.147 2.775,26.147 C3.252,26.147 3.726,26.168 4.201,26.138 C4.465,26.121 4.752,26.039 4.889,25.776 Z M13.283,29.907 C13.312,29.985 13.324,30.071 13.349,30.179 C12.785,30.179 12.25,30.181 11.712,30.174 C11.667,30.174 11.601,30.115 11.583,30.07 C11.426,29.592 11.276,29.113 11.118,28.611 C10.431,28.611 9.729,28.611 9.026,28.611 C8.439,28.611 8.439,28.611 8.25,29.185 C8.157,29.464 8.069,29.747 7.963,30.019 C7.936,30.085 7.843,30.169 7.78,30.17 C7.283,30.183 6.784,30.177 6.239,30.177 C6.318,29.931 6.382,29.707 6.461,29.488 C6.802,28.545 7.149,27.601 7.491,26.656 C7.954,25.385 8.41,24.111 8.875,22.844 C8.896,22.792 8.983,22.733 9.043,22.733 C9.555,22.722 10.07,22.72 10.583,22.735 C10.649,22.737 10.752,22.829 10.776,22.901 C11.239,24.188 11.69,25.479 12.15,26.767 C12.527,27.817 12.908,28.862 13.283,29.907 Z M8.869,27.272 C9.485,27.272 10.075,27.272 10.698,27.272 C10.4,26.34 10.111,25.431 9.803,24.469 C9.48,25.44 9.177,26.352 8.869,27.272 Z" id="icBPay"></path>
            </g>
        </g>
    </g>
</svg>