<?xml version="1.0" encoding="UTF-8"?>
<svg width="28px" height="22px" viewBox="0 0 28 22" version="1.1" xmlns="http://www.w3.org/2000/svg" xmlns:xlink="http://www.w3.org/1999/xlink">
    <!-- Generator: Sketch 55.2 (78181) - https://sketchapp.com -->
    <title>icCheque</title>
    <desc>Created with Sketch.</desc>
    <g id="Web-upgrade" stroke="none" stroke-width="1" fill="none" fill-rule="evenodd">
        <g id="Payment----Options" transform="translate(-26.000000, -550.000000)" fill="#333333" fill-rule="nonzero">
            <g id="cheque" transform="translate(26.000000, 550.000000)">
                <path d="M23.6511811,9.15891538 L28,9.15891538 L28,22 L0,22 L0,9.15891538 L18.1338583,9.15891538 L24.0645669,0.572069778 C24.4779528,-0.0268822944 25.3598425,-0.183617416 25.9496063,0.236208803 L27.4267717,1.28857319 C28.1874016,1.88752526 27.9669291,2.90070587 27.7574803,3.20298075 L23.6511811,9.15891538 Z M24.7976378,1.09825197 L24.5385827,1.47329673 L26.7598425,3.05184331 L27.0188976,2.67679856 C27.1622047,2.46968429 27.1125984,2.18420246 26.9086614,2.0386627 L25.4259843,0.986298314 C25.2275591,0.846356241 24.9354331,0.896735388 24.7976378,1.09825197 Z M24.0204724,2.22898392 L17.8031496,11.2412534 L20.0188976,12.8198 L26.2362205,3.80753051 L25.4976378,3.28134831 L23.684252,5.91225928 L22.9456693,5.38607709 L24.7590551,2.75516612 L24.0204724,2.22898392 Z M16.2488189,13.4971196 L18.4645669,15.0756662 L19.5062992,13.5754872 L17.2850394,11.9969406 L16.2488189,13.4971196 Z M17.6267717,15.5962507 L16.0503937,14.4711165 L16.011811,16.2343866 L17.6267717,15.5962507 Z M0.903937008,21.08198 L27.0905512,21.08198 L27.0905512,10.0769354 L23.011811,10.0769354 L18.8669291,16.0944445 L15.0748031,17.5946235 L15.1685039,13.4635335 L17.5055118,10.0769354 L0.903937008,10.0769354 L0.903937008,21.08198 Z M2,13 L6,13 L6,14 L2,14 L2,13 Z M2,16 L9,16 L9,17 L2,17 L2,16 Z M10,16 L14,16 L14,17 L10,17 L10,16 Z M2,19 L17,19 L17,20 L2,20 L2,19 Z M18,19 L20,19 L20,20 L18,20 L18,19 Z M22,19 L24,19 L24,20 L22,20 L22,19 Z" id="icCheque"></path>
            </g>
        </g>
    </g>
</svg>