<?xml version="1.0" encoding="UTF-8"?>
<svg width="36px" height="27px" viewBox="0 0 36 27" version="1.1" xmlns="http://www.w3.org/2000/svg" xmlns:xlink="http://www.w3.org/1999/xlink">
    <!-- Generator: Sketch 55.2 (78181) - https://sketchapp.com -->
    <title>masterCard</title>
    <desc>Created with Sketch.</desc>
    <g id="Web-upgrade" stroke="none" stroke-width="1" fill="none" fill-rule="evenodd">
        <g id="Payment-Options" transform="translate(-259.000000, -292.000000)" fill-rule="nonzero">
            <g id="mc_vrt_pos" transform="translate(254.000000, 286.000000)">
                <g id="masterCard" transform="translate(5.000000, 6.000000)">
                    <path d="M6.57893819,26.856115 L6.57893819,25.1294964 C6.60030458,24.8357396 6.48796709,24.5474271 6.2705851,24.3381128 C6.05320311,24.1287985 5.75179838,24.0187239 5.44326486,24.0359712 C5.03666788,24.0105749 4.64778898,24.1980327 4.42840785,24.5251798 C4.22839521,24.2077868 3.86216546,24.0200735 3.47395899,24.0359712 C3.13595041,24.0196912 2.81416951,24.1751696 2.62824482,24.4446043 L2.62824482,24.1050359 L2,24.1050359 L2,26.856115 L2.63428563,26.856115 L2.63428563,25.342446 C2.60696857,25.1519684 2.67031235,24.959815 2.80703098,24.8184229 C2.94374962,24.6770308 3.13957243,24.6011584 3.34106105,24.6115108 C3.75787732,24.6115108 3.96930587,24.8705036 3.96930587,25.3366906 L3.96930587,26.8676258 L4.6035915,26.8676258 L4.6035915,25.342446 C4.57739537,25.152185 4.64112648,24.9606542 4.77759163,24.8195242 C4.91405678,24.6783943 5.10919661,24.6022051 5.31036692,24.6115108 C5.73926482,24.6115108 5.94465255,24.8705036 5.94465255,25.3366906 L5.94465255,26.8676258 L6.57893819,26.856115 Z M15.9633451,24.1050359 L14.9303657,24.1050359 L14.9303657,23.2705036 L14.29608,23.2705036 L14.29608,24.1050359 L13.7222026,24.1050359 L13.7222026,24.6517985 L14.3081617,24.6517985 L14.3081617,25.9179855 C14.3081617,26.5568345 14.5679167,26.9366985 15.3109371,26.9366985 C15.5885302,26.937579 15.8607442,26.8637633 16.0962431,26.7237409 L15.9150186,26.2115107 C15.7465412,26.3072545 15.5553276,26.3607201 15.3592636,26.3669064 C15.0572228,26.3669064 14.9424473,26.1827337 14.9424473,25.9064748 L14.9424473,24.6517985 L15.969386,24.6517985 L15.9633451,24.1050359 Z M21.3215485,24.0359712 C21.0095154,24.027228 20.7174618,24.1818138 20.5604058,24.4388489 L20.5604058,24.1050359 L19.9382018,24.1050359 L19.9382018,26.856115 L20.5664466,26.856115 L20.5664466,25.313669 C20.5664466,24.8589928 20.7718343,24.6057554 21.1705281,24.6057554 C21.3049013,24.6040042 21.438322,24.6274719 21.5631812,24.6748201 L21.7564872,24.0992806 C21.6130094,24.0503781 21.461848,24.0250774 21.3094669,24.0244604 L21.3215485,24.0359712 Z M13.2208149,24.323741 C12.8651996,24.1222955 12.4563345,24.0224117 12.0428558,24.0359712 C11.3119172,24.0359712 10.8346927,24.3697841 10.8346927,24.9165467 C10.8346927,25.3654676 11.18506,25.6417266 11.8314273,25.7280575 L12.1334681,25.7683453 C12.4777946,25.8143884 12.6408966,25.9007194 12.6408966,26.056115 C12.6408966,26.2690647 12.4113456,26.389928 11.9824477,26.389928 C11.6374575,26.3994423 11.2991418,26.2980804 11.021958,26.1021582 L10.7199172,26.5683452 C11.085874,26.8117958 11.524198,26.9368782 11.9703661,26.9251798 C12.8039986,26.9251798 13.2872639,26.5510791 13.2872639,26.0273381 C13.2872639,25.5035971 12.9066925,25.2906474 12.2784477,25.2043165 L11.9764069,25.1640287 C11.7045702,25.1294964 11.4871008,25.0776978 11.4871008,24.8935251 C11.4871008,24.7093525 11.6924885,24.571223 12.036815,24.571223 C12.355068,24.5747453 12.6670521,24.6559918 12.9429374,24.8071942 L13.2208149,24.323741 Z M30.0475066,24.0359712 C29.7354735,24.027228 29.4434199,24.1818138 29.2863638,24.4388489 L29.2863638,24.1050359 L28.6641598,24.1050359 L28.6641598,26.856115 L29.2924046,26.856115 L29.2924046,25.313669 C29.2924046,24.8589928 29.4977924,24.6057554 29.8964862,24.6057554 C30.0308594,24.6040042 30.1642801,24.6274719 30.2891392,24.6748201 L30.4824453,24.0992806 C30.3389675,24.0503781 30.187806,24.0250774 30.035425,24.0244604 L30.0475066,24.0359712 Z M21.9528138,25.4748201 C21.937705,25.8657366 22.096194,26.2446223 22.3893786,26.5184772 C22.6825632,26.7923322 23.0832986,26.9358012 23.4932217,26.913669 C23.870434,26.9319538 24.2411454,26.8149064 24.532242,26.5856114 L24.2302012,26.1021582 C24.0130251,26.2599456 23.7481993,26.3467413 23.4750993,26.3496402 C22.9935559,26.3125189 22.6226159,25.9293552 22.6226159,25.4690647 C22.6226159,25.0087742 22.9935559,24.6256105 23.4750993,24.5884892 C23.7481993,24.5913881 24.0130251,24.6781838 24.2302012,24.8359712 L24.532242,24.352518 C24.2411454,24.123223 23.870434,24.0061756 23.4932217,24.0244604 C23.0832986,24.0023282 22.6825632,24.1457972 22.3893786,24.4196522 C22.096194,24.6935071 21.937705,25.0723928 21.9528138,25.4633093 L21.9528138,25.4748201 Z M27.8365681,25.4748201 L27.8365681,24.1050359 L27.2083233,24.1050359 L27.2083233,24.4388489 C26.9918819,24.1735108 26.6546754,24.0235829 26.3022009,24.0359712 C25.4681384,24.0359712 24.7919971,24.6801658 24.7919971,25.4748201 C24.7919971,26.2694744 25.4681384,26.913669 26.3022009,26.913669 C26.6546754,26.9260573 26.9918819,26.7761294 27.2083233,26.5107913 L27.2083233,26.8446042 L27.8365681,26.8446042 L27.8365681,25.4748201 Z M25.4987725,25.4748201 C25.5267097,25.0232139 25.9284079,24.6757146 26.4028985,24.6926827 C26.877389,24.7096508 27.2506157,25.0848619 27.242942,25.5371927 C27.2352682,25.9895235 26.849509,26.3530465 26.3746907,26.3553956 C26.1329189,26.3583102 25.9008565,26.2648857 25.7345341,26.0976789 C25.5682117,25.9304722 25.482746,25.7046804 25.4987725,25.4748201 L25.4987725,25.4748201 Z M17.917549,24.0359712 C17.0834864,24.0470964 16.4168111,24.7003097 16.4284879,25.494964 C16.4401648,26.2896183 17.1257721,26.9247941 17.9598347,26.913669 C18.3943926,26.9349205 18.8217399,26.8015949 19.1589366,26.5395683 L18.8568958,26.0964028 C18.6183929,26.2786413 18.3229185,26.3799052 18.0172224,26.3841726 C17.5854148,26.4195539 17.2024917,26.1210562 17.1533858,25.7107913 L19.2978753,25.7107913 C19.2978753,25.6359712 19.2978753,25.561151 19.2978753,25.4805755 C19.2978753,24.6172662 18.7360795,24.0417266 17.9266102,24.0417266 L17.917549,24.0359712 Z M17.917549,24.571223 C18.1074127,24.5673664 18.2911039,24.6355481 18.4281909,24.7607608 C18.5652778,24.8859735 18.6445243,25.0579542 18.6484876,25.2388489 L17.1382838,25.2388489 C17.161036,24.8546254 17.5017833,24.558097 17.9054673,24.571223 L17.917549,24.571223 Z M33.6568939,25.4805755 L33.6568939,23 L33.0528123,23 L33.0528123,24.4388489 C32.8363709,24.1735108 32.4991644,24.0235829 32.14669,24.0359712 C31.3126274,24.0359712 30.6364861,24.6801658 30.6364861,25.4748201 C30.6364861,26.2694744 31.3126274,26.913669 32.14669,26.913669 C32.4991644,26.9260573 32.8363709,26.7761294 33.0528123,26.5107913 L33.0528123,26.8446042 L33.6568939,26.8446042 L33.6568939,25.4805755 Z M34.7049754,26.456115 C34.7442446,26.4556567 34.7832307,26.462499 34.8197509,26.4762589 C34.8544381,26.489745 34.8861891,26.5092617 34.9133835,26.5338129 C34.9399236,26.5586248 34.9614269,26.5878924 34.9768121,26.6201438 C35.0077293,26.6880711 35.0077293,26.7651662 34.9768121,26.8330934 C34.9614269,26.8653449 34.9399236,26.8946125 34.9133835,26.9194244 C34.8861891,26.9439756 34.8544381,26.9634923 34.8197509,26.9769783 C34.7835912,26.9921798 34.7444987,27.000021 34.7049754,27 C34.5881006,26.9991606 34.4822242,26.934153 34.4331387,26.8330934 C34.4025794,26.7650958 34.4025794,26.6881414 34.4331387,26.6201438 C34.4485238,26.5878924 34.4700272,26.5586248 34.4965672,26.5338129 C34.5237616,26.5092617 34.5555127,26.489745 34.5901999,26.4762589 C34.6295407,26.4613491 34.6717321,26.454486 34.7140366,26.456115 L34.7049754,26.456115 Z M34.7049754,26.942446 C34.7351219,26.9426204 34.7649683,26.9367371 34.7925672,26.9251798 C34.8185537,26.9141258 34.8421213,26.8985056 34.8620366,26.8791366 C34.9403548,26.7977245 34.9403548,26.672779 34.8620366,26.5913668 C34.8421688,26.5719444 34.8185898,26.5563166 34.7925672,26.5453237 C34.7649411,26.5338478 34.735113,26.5279681 34.7049754,26.5280565 C34.6748638,26.5282091 34.6450862,26.5340789 34.6173836,26.5453237 C34.5902466,26.5559251 34.5656023,26.5715784 34.5448938,26.5913668 C34.4665755,26.672779 34.4665755,26.7977245 34.5448938,26.8791366 C34.5656532,26.898866 34.5902843,26.9145108 34.6173836,26.9251798 C34.6478564,26.9377 34.6808731,26.9435982 34.7140366,26.942446 L34.7049754,26.942446 Z M34.7230978,26.5999999 C34.7512937,26.5986972 34.7790783,26.6068423 34.8016284,26.6230215 C34.8203859,26.6378117 34.830507,26.6603118 34.8288121,26.6834532 C34.8296889,26.7027784 34.8220193,26.7215683 34.8076692,26.7352517 C34.7901624,26.7504016 34.767829,26.7595208 34.7442407,26.761151 L34.8318325,26.856115 L34.7623631,26.856115 L34.6808121,26.761151 L34.6536284,26.761151 L34.6536284,26.856115 L34.5962407,26.856115 L34.5962407,26.6028776 L34.7230978,26.5999999 Z M34.6566489,26.6489208 L34.6566489,26.7179855 L34.7230978,26.7179855 C34.7349223,26.7213443 34.7475183,26.7213443 34.7593427,26.7179855 C34.7636507,26.7098403 34.7636507,26.7002315 34.7593427,26.6920863 C34.7636507,26.683941 34.7636507,26.6743322 34.7593427,26.666187 C34.7475183,26.6628282 34.7349223,26.6628282 34.7230978,26.666187 L34.6566489,26.6489208 Z M31.3342003,25.4805755 C31.3621376,25.0289693 31.7638358,24.68147 32.2383263,24.6984381 C32.7128168,24.7154062 33.0860435,25.0906173 33.0783698,25.5429481 C33.070696,25.9952789 32.6849368,26.3588019 32.2101186,26.361151 C31.9683467,26.3640656 31.7362843,26.2706411 31.5699619,26.1034343 C31.4036395,25.9362276 31.3181739,25.7104358 31.3342003,25.4805755 L31.3342003,25.4805755 Z M10.1218765,25.4805755 L10.1218765,24.1050359 L9.49363169,24.1050359 L9.49363169,24.4388489 C9.27719028,24.1735108 8.93998378,24.0235829 8.58750935,24.0359712 C7.75344678,24.0359712 7.07730547,24.6801658 7.07730547,25.4748201 C7.07730547,26.2694744 7.75344678,26.913669 8.58750935,26.913669 C8.93998378,26.9260573 9.27719028,26.7761294 9.49363169,26.5107913 L9.49363169,26.8446042 L10.1218765,26.8446042 L10.1218765,25.4805755 Z M7.78408089,25.4805755 C7.81201815,25.0289693 8.21371635,24.68147 8.68820689,24.6984381 C9.16269743,24.7154062 9.53592412,25.0906173 9.52825037,25.5429481 C9.52057663,25.9952789 9.1348174,26.3588019 8.65999914,26.361151 C8.41718539,26.3656927 8.18350743,26.2729804 8.01584544,26.1055814 C7.84818344,25.9381824 7.76191541,25.7114506 7.77804007,25.4805755 L7.78408089,25.4805755 Z" id="Shape" fill="#231F20"></path>
                    <rect id="Rectangle" fill="#FF5F00" x="13.1230769" y="2.36575342" width="9.69230769" height="17.0605479"></rect>
                    <path d="M13.7384615,10.8975342 C13.7348377,7.56784698 15.2950289,4.42156128 17.9692308,2.36575342 C13.4276278,-1.13012138 6.90570379,-0.620916984 2.98689166,3.53551145 C-0.93192047,7.69193988 -0.93192047,14.1001149 2.98689166,18.2565433 C6.90570379,22.4129718 13.4276278,22.9221762 17.9692308,19.4263014 C15.2958796,17.3711461 13.7357838,14.2261639 13.7384615,10.8975342 L13.7384615,10.8975342 Z" id="_Path_" fill="#EB001B"></path>
                    <path d="M35.8923077,10.8975342 C35.8923077,15.0514297 33.470591,18.8406343 29.6559247,20.6558584 C25.8412584,22.4710825 21.3032584,21.9936395 17.9692308,19.4263014 C20.6414155,17.3694014 22.2016287,14.2248373 22.2016287,10.8960274 C22.2016287,7.56721749 20.6414155,4.42265342 17.9692308,2.36575342 C21.3032584,-0.201584742 25.8412584,-0.679027716 29.6559247,1.13619636 C33.470591,2.95142044 35.8923077,6.74062509 35.8923077,10.8945205 L35.8923077,10.8975342 Z" id="Path" fill="#F79E1B"></path>
                    <path d="M34.8499315,18.1890722 L34.8499315,17.3663771 L35.005047,17.3663771 L35.005047,17.1961644 L34.6123077,17.1961644 L34.6123077,17.3663771 L34.7806245,17.3663771 L34.7806245,18.1890722 L34.8499315,18.1890722 Z M35.6123077,18.1890722 L35.6123077,17.1961644 L35.4934958,17.1961644 L35.3548819,17.9053842 L35.2162681,17.1961644 L35.1106575,17.1961644 L35.1106575,18.1890722 L35.1964661,18.1890722 L35.1964661,17.4443913 L35.325179,18.0897814 L35.4142879,18.0897814 L35.5430008,17.4443913 L35.5430008,18.1961644 L35.6123077,18.1890722 Z" id="Shape" fill="#F79E1B"></path>
                </g>
            </g>
        </g>
    </g>
</svg>