<?xml version="1.0" encoding="UTF-8"?>
<svg width="37px" height="26px" viewBox="0 0 37 26" version="1.1" xmlns="http://www.w3.org/2000/svg" xmlns:xlink="http://www.w3.org/1999/xlink">
    <!-- Generator: Sketch 55.2 (78181) - https://sketchapp.com -->
    <title>visaCard</title>
    <desc>Created with Sketch.</desc>
    <g id="Web-upgrade" stroke="none" stroke-width="1" fill="none" fill-rule="evenodd">
        <g id="Payment-Options" transform="translate(-314.000000, -292.000000)" fill-rule="nonzero">
            <g id="visaCard" transform="translate(314.000000, 292.000000)">
                <path d="M37,22.5333333 C37,24.4494796 35.4239216,26 33.4761905,26 L3.52380952,26 C1.57607843,26 0,24.4494796 0,22.5333333 L0,3.46666667 C0,1.5505204 1.57607843,0 3.52380952,0 L33.4761905,0 C35.4239216,0 37,1.5505204 37,3.46666667 L37,22.5333333 Z" id="Path" fill="#1565C0"></path>
                <path d="M11.1593867,8 L8.86665063,15.1200282 C8.86665063,15.1200282 8.28750432,12.1086645 8.22958995,11.7286927 C6.92480814,8.62855091 5,8.80255636 5,8.80255636 L7.26888871,18 L7.26888871,17.9964491 L10.0249424,17.9964491 L13.8370843,8 L11.1593867,8 Z M13.3397006,18 L15.8436551,18 L17.3596544,8 L14.8250395,8 L13.3397006,18 Z M31.061564,8 L28.4281539,8 L24.3196253,18 L26.8065454,18 L27.3209634,16.5724436 L30.4551647,16.5724436 L30.7208909,18 L33,18 L31.061564,8 Z M28.012532,14.6619318 L29.3752282,10.8835227 L30.0906432,14.6619318 L28.012532,14.6619318 Z M20.9094784,10.9154827 C20.9094784,10.3650564 21.3455411,9.95312545 22.5924077,9.95312545 C23.399805,9.95312545 24.3264384,10.5674718 24.3264384,10.5674718 L24.7352472,8.46875 C24.7352472,8.46875 23.5497015,8 22.3880033,8 C19.7545931,8 18.3953035,9.31036909 18.3953035,10.9723009 C18.3953035,13.9801136 21.8667722,13.5681818 21.8667722,15.1093745 C21.8667722,15.37571 21.6657743,15.9865055 20.2179098,15.9865055 C18.7700445,15.9865055 17.8127506,15.4325282 17.8127506,15.4325282 L17.3800944,17.4495736 C17.3800944,17.4495736 18.3101352,18 20.0986737,18 C21.8940261,18 24.3877601,16.6008527 24.3877601,14.5873582 C24.3877601,12.1690345 20.9094784,11.9950282 20.9094784,10.9154827 Z" id="Shape" fill="#FFFFFF"></path>
                <path d="M8,14 L7.17021261,9.88911373 C7.17021261,9.88911373 6.79395284,9 5.81634911,9 C4.83874538,9 2,9 2,9 C2,9 6.86786058,10.4469238 8,14 Z" id="Path" fill="#FFC107"></path>
            </g>
        </g>
    </g>
</svg>