<?xml version="1.0" encoding="UTF-8"?>
<svg width="24px" height="24px" viewBox="0 0 24 24" version="1.1" xmlns="http://www.w3.org/2000/svg" xmlns:xlink="http://www.w3.org/1999/xlink">
    <!-- Generator: Sketch 52.1 (67048) - http://www.bohemiancoding.com/sketch -->
    <title>icFullActiveImgMsg@1x</title>
    <desc>Created with Sketch.</desc>
    <defs>
        <path d="M21.7708333,23.75 L15.8333333,23.75 C14.7402698,23.75 13.8541667,22.8638969 13.8541667,21.7708333 L13.8541667,15.8333333 C13.8541667,14.7402698 14.7402698,13.8541667 15.8333333,13.8541667 L21.7708333,13.8541667 C22.8638969,13.8541667 23.75,14.7402698 23.75,15.8333333 L23.75,21.7708333 C23.75,22.8638969 22.8638969,23.75 21.7708333,23.75 Z M21.7708333,15.8333333 L15.8333333,15.8333333 L15.8333333,21.7708333 L21.7708333,21.7708333 L21.7708333,15.8333333 Z M21.7708333,9.89583333 L15.8333333,9.89583333 C14.7402698,9.89583333 13.8541667,9.00973023 13.8541667,7.91666667 L13.8541667,1.97916667 C13.8541667,0.886103099 14.7402698,0 15.8333333,0 L21.7708333,0 C22.8638969,0 23.75,0.886103099 23.75,1.97916667 L23.75,7.91666667 C23.75,9.00973023 22.8638969,9.89583333 21.7708333,9.89583333 Z M21.7708333,1.97916667 L15.8333333,1.97916667 L15.8333333,7.91666667 L21.7708333,7.91666667 L21.7708333,1.97916667 Z M7.91666667,23.75 L1.97916667,23.75 C0.886103099,23.75 0,22.8638969 0,21.7708333 L0,15.8333333 C0,14.7402698 0.886103099,13.8541667 1.97916667,13.8541667 L7.91666667,13.8541667 C9.00973023,13.8541667 9.89583333,14.7402698 9.89583333,15.8333333 L9.89583333,21.7708333 C9.89583333,22.8638969 9.00973023,23.75 7.91666667,23.75 Z M7.91666667,15.8333333 L1.97916667,15.8333333 L1.97916667,21.7708333 L7.91666667,21.7708333 L7.91666667,15.8333333 Z M7.91666667,9.89583333 L1.97916667,9.89583333 C0.886103099,9.89583333 0,9.00973023 0,7.91666667 L0,1.97916667 C0,0.886103099 0.886103099,0 1.97916667,0 L7.91666667,0 C9.00973023,0 9.89583333,0.886103099 9.89583333,1.97916667 L9.89583333,7.91666667 C9.89583333,9.00973023 9.00973023,9.89583333 7.91666667,9.89583333 Z M7.91666667,1.97916667 L1.97916667,1.97916667 L1.97916667,7.91666667 L7.91666667,7.91666667 L7.91666667,1.97916667 Z" id="path-1"></path>
    </defs>
    <g id="Page-1" stroke="none" stroke-width="1" fill="none" fill-rule="evenodd">
        <g id="See-more-picture" transform="translate(-333.000000, -92.000000)">
            <g id="icFullActiveImgMsg" transform="translate(333.125000, 92.125000)">
                <mask id="mask-2" fill="white">
                    <use xlink:href="#path-1"></use>
                </mask>
                <use id="Mask" fill="#101010" xlink:href="#path-1"></use>
                <g id="colour/primary-green" mask="url(#mask-2)" fill="#7BCB45">
                    <g transform="translate(-7.916667, -7.916667)">
                        <polygon points="0 0 40 0 40 40 0 40"></polygon>
                    </g>
                </g>
            </g>
        </g>
    </g>
</svg>