<?xml version="1.0" encoding="UTF-8"?>
<svg width="26px" height="25px" viewBox="0 0 26 25" version="1.1" xmlns="http://www.w3.org/2000/svg" xmlns:xlink="http://www.w3.org/1999/xlink">
    <!-- Generator: Sketch 55 (78076) - https://sketchapp.com -->
    <title>icFooterMsg</title>
    <desc>Created with Sketch.</desc>
    <defs>
        <path d="M20.2627167,25 C20.1870781,25 20.1114394,24.9783893 20.0460807,24.9359094 L13.7374497,20.8510598 L13.7216511,20.8518013 C13.4821828,20.8641957 13.243472,20.8772257 13,20.8772257 C5.58838659,20.8772257 -1.0658141e-14,16.3897175 -1.0658141e-14,10.4390366 C-1.0658141e-14,4.48750816 5.58838659,0 13,0 C20.4116134,0 26,4.48750816 26,10.4390366 C26,14.2901938 24.1052465,17.3638948 20.6566004,19.119448 L20.6566004,24.614291 C20.6566004,24.7555023 20.5770662,24.8865437 20.4493786,24.9537065 C20.3911618,24.9845335 20.3265605,25 20.2627167,25 Z M6.57142857,12 C7.43930461,12 8.14285714,11.3284271 8.14285714,10.5 C8.14285714,9.67157288 7.43930461,9 6.57142857,9 C5.70355254,9 5,9.67157288 5,10.5 C5,11.3284271 5.70355254,12 6.57142857,12 Z M13,12 C13.867876,12 14.5714286,11.3284271 14.5714286,10.5 C14.5714286,9.67157288 13.867876,9 13,9 C12.132124,9 11.4285714,9.67157288 11.4285714,10.5 C11.4285714,11.3284271 12.132124,12 13,12 Z M19.4285714,12 C20.2964475,12 21,11.3284271 21,10.5 C21,9.67157288 20.2964475,9 19.4285714,9 C18.5606954,9 17.8571429,9.67157288 17.8571429,10.5 C17.8571429,11.3284271 18.5606954,12 19.4285714,12 Z" id="path-1"></path>
    </defs>
    <g id="Page-1" stroke="none" stroke-width="1" fill="none" fill-rule="evenodd">
        <mask id="mask-2" fill="white">
            <use xlink:href="#path-1"></use>
        </mask>
        <use id="icFooterMsg" fill="#D4D7DC" xlink:href="#path-1"></use>
    </g>
</svg>