<?xml version="1.0" encoding="UTF-8"?>
<svg width="23px" height="22px" viewBox="0 0 23 22" version="1.1" xmlns="http://www.w3.org/2000/svg" xmlns:xlink="http://www.w3.org/1999/xlink">
    <!-- Generator: Sketch 55 (78076) - https://sketchapp.com -->
    <title>icFooterDiscoverActive</title>
    <desc>Created with Sketch.</desc>
    <g id="Page-1" stroke="none" stroke-width="1" fill="none" fill-rule="evenodd">
        <path d="M22.2340893,18.8240671 L17.3239588,14.0538023 C17.2978637,14.02845 17.2672538,14.0107297 17.2399849,13.9871319 C18.2061371,12.5632809 18.770027,10.8588881 18.770027,9.02597928 C18.770027,4.04000071 14.6097029,-0.00189035917 9.47771865,-0.00189035917 C4.34573436,-0.00189035917 0.185410334,4.04000071 0.185410334,9.02589156 C0.185410334,14.0116947 4.34564406,18.0536735 9.47762836,18.0536735 C11.3643342,18.0536735 13.1185778,17.505836 14.5841496,16.5671874 C14.6084388,16.5935924 14.626588,16.6233309 14.6526832,16.6486832 L19.5629039,21.4191235 C20.3005206,22.1356545 21.4963823,22.1356545 22.2340893,21.4191235 C22.9716156,20.7025047 22.9716156,19.5406859 22.2340893,18.8240671 Z M9.47771865,14.924026 C6.12471871,14.924026 3.40667044,12.2833531 3.40667044,9.02589156 C3.40667044,5.76834228 6.124809,3.12766936 9.47771865,3.12766936 C12.830538,3.12766936 15.5486766,5.76843001 15.5486766,9.02589156 C15.5486766,12.2833531 12.830538,14.924026 9.47771865,14.924026 Z" id="icFooterDiscoverActive" fill="#646464" fill-rule="nonzero"></path>
    </g>
</svg>