<?xml version="1.0" encoding="UTF-8"?>
<svg width="22px" height="22px" viewBox="0 0 22 22" version="1.1" xmlns="http://www.w3.org/2000/svg" xmlns:xlink="http://www.w3.org/1999/xlink">
    <!-- Generator: Sketch 55.2 (78181) - https://sketchapp.com -->
    <title>icFooterFeedback</title>
    <desc>Created with Sketch.</desc>
    <g id="Main-screens-Stage-1" stroke="none" stroke-width="1" fill="none" fill-rule="evenodd">
        <g id="Messenger-Inbox---no-chats" transform="translate(-272.000000, -523.000000)" fill="#D4D7DC" fill-rule="nonzero">
            <path d="M285.002144,523 C285.461274,523 285.895991,523.158889 286.24343,523.450713 L286.369506,523.566328 L288.192584,525.389363 C288.51726,525.713978 288.712269,526.133688 288.751596,526.585693 L288.758995,526.756586 L288.758995,531.864324 C288.889522,531.733683 289.437688,531.185102 289.9227,530.699722 L290.698226,529.923598 C291.452423,529.169539 292.679225,529.169496 293.433165,529.923426 C294.149255,530.639385 294.18679,531.774851 293.546171,532.534895 L293.433122,532.657957 L288.758995,537.335707 L288.758995,543.066406 C288.758995,544.081819 287.972173,544.916939 286.976163,544.994171 L286.825265,545 L273.93373,545 C272.918246,545 272.083067,544.213233 272.005829,543.217294 L272,543.066406 L272,524.933594 C272,523.918181 272.786822,523.083061 273.782832,523.005829 L273.93373,523 L285.002144,523 Z M284.375,542 L280.625,542 C280.279833,542 280,542.223867 280,542.5 C280,542.776133 280.279833,543 280.625,543 L284.375,543 C284.720167,543 285,542.776133 285,542.5 C285,542.223867 284.720167,542 284.375,542 Z M282.333333,538 L275.666667,538 C275.298489,538 275,538.223867 275,538.5 C275,538.776133 275.298489,539 275.666667,539 L282.333333,539 C282.701511,539 283,538.776133 283,538.5 C283,538.223867 282.701511,538 282.333333,538 Z M286.024271,536.424598 L285.67607,536.77273 L285.220312,538.139996 L286.587631,537.68427 L286.935831,537.336094 L286.024271,536.424598 Z M290.03414,532.412004 C289.791556,532.654776 289.070811,533.376086 288.375085,534.072354 L286.935659,535.512887 L287.84722,536.424383 L290.9457,533.3235 L290.03414,532.412004 Z M282.333333,535 L275.666667,535 C275.298489,535 275,535.223867 275,535.5 C275,535.776133 275.298489,536 275.666667,536 L282.333333,536 C282.701511,536 283,535.776133 283,535.5 C283,535.223867 282.701511,535 282.333333,535 Z M282.333333,532 L275.666667,532 C275.298489,532 275,532.223867 275,532.5 C275,532.776133 275.298489,533 275.666667,533 L282.333333,533 C282.701511,533 283,532.776133 283,532.5 C283,532.223867 282.701511,532 282.333333,532 Z M291.689891,530.767065 L291.610044,530.834922 L290.945356,531.500121 L291.856917,532.411617 L292.521389,531.746633 C292.774235,531.493762 292.772903,531.086289 292.521647,530.834922 C292.295478,530.608769 291.941706,530.586119 291.689891,530.767065 Z M284.375,529 L275.625,529 C275.279833,529 275,529.223867 275,529.5 C275,529.776133 275.279833,530 275.625,530 L284.375,530 C284.720167,530 285,529.776133 285,529.5 C285,529.223867 284.720167,529 284.375,529 Z M284.942269,524.288566 L284.891578,524.289062 L284.891578,526.867188 L287.469884,526.867188 C287.469884,526.749257 287.481439,526.567715 287.355931,526.389424 L287.281066,526.300859 L285.457946,524.477824 C285.300508,524.32043 285.129147,524.292948 285.00193,524.289045 L284.942269,524.288566 Z" id="icFooterFeedback"></path>
        </g>
    </g>
</svg>