<?xml version="1.0" encoding="UTF-8"?>
<svg width="22px" height="22px" viewBox="0 0 22 22" version="1.1" xmlns="http://www.w3.org/2000/svg" xmlns:xlink="http://www.w3.org/1999/xlink">
    <!-- Generator: Sketch 55.2 (78181) - https://sketchapp.com -->
    <title>icFooterFeedbackActive</title>
    <desc>Created with Sketch.</desc>
    <g id="Main-screens-Stage-1" stroke="none" stroke-width="1" fill="none" fill-rule="evenodd">
        <g id="Messenger-Inbox---no-chats" transform="translate(-313.000000, -523.000000)" fill="#646464" fill-rule="nonzero">
            <path d="M326.002144,523 C326.461274,523 326.895991,523.158889 327.24343,523.450713 L327.369506,523.566328 L329.192584,525.389363 C329.51726,525.713978 329.712269,526.133688 329.751596,526.585693 L329.758995,526.756586 L329.758995,531.864324 C329.889522,531.733683 330.437688,531.185102 330.9227,530.699722 L331.698226,529.923598 C332.452423,529.169539 333.679225,529.169496 334.433165,529.923426 C335.149255,530.639385 335.18679,531.774851 334.546171,532.534895 L334.433122,532.657957 L329.758995,537.335707 L329.758995,543.066406 C329.758995,544.081819 328.972173,544.916939 327.976163,544.994171 L327.825265,545 L314.93373,545 C313.918246,545 313.083067,544.213233 313.005829,543.217294 L313,543.066406 L313,524.933594 C313,523.918181 313.786822,523.083061 314.782832,523.005829 L314.93373,523 L326.002144,523 Z M325.375,542 L321.625,542 C321.279833,542 321,542.223867 321,542.5 C321,542.776133 321.279833,543 321.625,543 L325.375,543 C325.720167,543 326,542.776133 326,542.5 C326,542.223867 325.720167,542 325.375,542 Z M323.333333,538 L316.666667,538 C316.298489,538 316,538.223867 316,538.5 C316,538.776133 316.298489,539 316.666667,539 L323.333333,539 C323.701511,539 324,538.776133 324,538.5 C324,538.223867 323.701511,538 323.333333,538 Z M327.024271,536.424598 L326.67607,536.77273 L326.220312,538.139996 L327.587631,537.68427 L327.935831,537.336094 L327.024271,536.424598 Z M331.03414,532.412004 C330.791556,532.654776 330.070811,533.376086 329.375085,534.072354 L327.935659,535.512887 L328.84722,536.424383 L331.9457,533.3235 L331.03414,532.412004 Z M323.333333,535 L316.666667,535 C316.298489,535 316,535.223867 316,535.5 C316,535.776133 316.298489,536 316.666667,536 L323.333333,536 C323.701511,536 324,535.776133 324,535.5 C324,535.223867 323.701511,535 323.333333,535 Z M323.333333,532 L316.666667,532 C316.298489,532 316,532.223867 316,532.5 C316,532.776133 316.298489,533 316.666667,533 L323.333333,533 C323.701511,533 324,532.776133 324,532.5 C324,532.223867 323.701511,532 323.333333,532 Z M332.689891,530.767065 L332.610044,530.834922 L331.945356,531.500121 L332.856917,532.411617 L333.521389,531.746633 C333.774235,531.493762 333.772903,531.086289 333.521647,530.834922 C333.295478,530.608769 332.941706,530.586119 332.689891,530.767065 Z M325.375,529 L316.625,529 C316.279833,529 316,529.223867 316,529.5 C316,529.776133 316.279833,530 316.625,530 L325.375,530 C325.720167,530 326,529.776133 326,529.5 C326,529.223867 325.720167,529 325.375,529 Z M325.942269,524.288566 L325.891578,524.289062 L325.891578,526.867188 L328.469884,526.867188 C328.469884,526.749257 328.481439,526.567715 328.355931,526.389424 L328.281066,526.300859 L326.457946,524.477824 C326.300508,524.32043 326.129147,524.292948 326.00193,524.289045 L325.942269,524.288566 Z" id="icFooterFeedbackActive"></path>
        </g>
    </g>
</svg>