<?xml version="1.0" encoding="UTF-8"?>
<svg width="29px" height="21px" viewBox="0 0 29 21" version="1.1" xmlns="http://www.w3.org/2000/svg" xmlns:xlink="http://www.w3.org/1999/xlink">
    <!-- Generator: Sketch 55 (78076) - https://sketchapp.com -->
    <title>icFooterProspectActive</title>
    <desc>Created with Sketch.</desc>
    <g id="Page-1" stroke="none" stroke-width="1" fill="none" fill-rule="evenodd">
        <path d="M14.5379437,10.4919108 C17.0594949,10.4919108 19.0206679,7.9509576 19.0206679,5.32061184 L19.0206679,4.4965611 C19.0206679,1.86631293 17.0594949,0 14.5379437,0 C12.0162921,0 10.0551191,1.86621534 10.0551191,4.4965611 L10.0551191,5.32061184 C10.0551191,7.9509576 12.0162921,10.4919108 14.5379437,10.4919108 Z M5.55682609,11.3426037 C6.27781455,11.3426037 8.25083995,10.4337471 8.25083995,8.54791619 L8.25083995,7.15052366 C8.25083995,5.26459513 6.82754565,4.35573859 5.55682609,4.35573859 C4.3282931,4.35573859 2.86291268,5.26459513 2.86291268,7.15052366 L2.86291268,8.54791619 C2.86291268,10.4337471 4.87420732,11.3426037 5.55682609,11.3426037 Z M21.6982089,14.8367193 C21.6968026,14.8230567 21.692584,14.8100772 21.6911778,14.7965122 C21.6700845,14.6319753 21.6377415,14.4710493 21.5928429,14.3134413 C21.5928429,14.3119774 21.5928429,14.3107087 21.5914367,14.3093425 C21.4973205,13.9743157 21.3385182,13.6515853 21.101269,13.3336367 L21.101269,13.3322705 C20.7121482,12.8089924 20.1251523,12.2752722 19.1714346,11.7548242 C18.6672047,11.4797178 18.445223,11.3536314 18.1335447,11.3536314 C17.6377521,11.3536314 17.205139,11.7281821 16.4763159,12.3784249 L16.4748092,12.3784249 L15.8118775,12.9706016 C15.7879718,12.9925594 15.0732108,13.9736326 14.5380441,13.9736326 C14.0028775,13.9736326 13.2880161,12.9924618 13.2641104,12.9706016 L12.6011787,12.3784249 L12.5997724,12.3784249 C11.8709493,11.7281821 11.4383362,11.3536314 10.9425436,11.3536314 C10.6307648,11.3536314 10.3525344,11.4797178 9.90465369,11.7548242 C8.97996439,12.3219202 8.36373923,12.8083093 7.97622551,13.3308066 L7.97471885,13.3314898 C7.97331263,13.332856 7.97331263,13.335003 7.97200686,13.3361741 C7.73736921,13.6514877 7.58007359,13.9721687 7.48605782,14.3051461 C7.48475205,14.3078786 7.48314494,14.3112943 7.48204006,14.3146123 C7.43834683,14.4710493 7.4060038,14.6298283 7.38501096,14.7929014 C7.38360474,14.8080279 7.37938608,14.822276 7.37787942,14.8373049 C7.35819236,15.0106249 7.34704305,15.1873605 7.34704305,15.3708299 C7.34704305,15.3912262 7.34664127,19.1958736 7.34704305,19.213635 C7.34704305,20.4553713 7.82877343,20.9603025 9.14479332,20.9603025 L19.9314958,20.9603025 C21.2588659,20.9603025 21.7292461,20.482599 21.7292461,19.213635 C21.7296479,19.1958736 21.7291457,15.3912262 21.7291457,15.3708299 C21.7290452,15.1874581 21.7177955,15.0107225 21.6982089,14.8367193 Z M23.534831,11.3426037 C24.2557191,11.3426037 26.2289453,10.4337471 26.2289453,8.54791619 L26.2289453,7.15052366 C26.2289453,5.26459513 24.805651,4.35573859 23.534831,4.35573859 C22.3061976,4.35573859 20.8408172,5.26459513 20.8408172,7.15052366 L20.8408172,8.54791619 C20.8408172,10.4337471 22.8521118,11.3426037 23.534831,11.3426037 Z M2.20068407,13.2339973 C0.527785941,14.1592489 0.155640184,15.6344208 0.155640184,16.5937314 C0.155640184,16.6086626 0.154233965,18.3268338 0.155640184,18.3403988 C0.155640184,19.6080941 0.593878224,20.0871639 1.95339046,20.0871639 L5.54899145,20.0871639 C5.54899145,20.0871639 5.54899145,16.3754223 5.54899145,14.8469663 L4.65011631,13.9736326 C3.69911063,13.1589505 2.89736504,12.8491995 2.20068407,13.2339973 Z M5.54899145,14.8469663 C5.56947945,14.8635566 5.54899145,14.4322084 5.54899145,14.8469663 L5.54899145,14.8469663 Z M28.9203477,16.5937314 C28.9203477,15.6343232 28.5481015,14.1591513 26.8753038,13.2339973 C26.1786228,12.8491995 25.3768772,13.1589505 24.4258715,13.9737302 L23.5269964,14.8470639 C23.5269964,16.3754223 23.5269964,20.0872615 23.5269964,20.0872615 L27.1225974,20.0872615 C28.4821096,20.0872615 28.9203477,19.6081917 28.9203477,18.3404964 C28.9217539,18.3268338 28.9203477,16.6087602 28.9203477,16.5937314 Z M23.5272057,14.8469663 C23.5272057,14.4322084 23.5068217,14.8635566 23.5272057,14.8469663 L23.5272057,14.8469663 Z" id="icFooterProspectActive" fill="#646464" fill-rule="nonzero"></path>
    </g>
</svg>