<?xml version="1.0" encoding="UTF-8"?>
<svg width="32px" height="25px" viewBox="0 0 32 25" version="1.1" xmlns="http://www.w3.org/2000/svg" xmlns:xlink="http://www.w3.org/1999/xlink">
    <!-- Generator: Sketch 55 (78076) - https://sketchapp.com -->
    <title>icFooterMsgGroup</title>
    <desc>Created with Sketch.</desc>
    <defs>
        <path d="M18,2.44441137 C12.0831714,3.56265505 7.93798745,7.67757392 7.93798745,12.8801519 C7.93798745,14.4491691 8.31511276,15.9192892 9.00422915,17.2381107 L4.79231454,19.9487275 C4.73970726,19.9827114 4.67882565,20 4.61794404,20 C4.56655613,20 4.51455853,19.9876268 4.46769973,19.9629652 C4.36492391,19.909235 4.30090676,19.8044018 4.30090676,19.6914328 L4.30090676,15.2955584 C1.52508865,13.8911159 -3.33955086e-13,11.4321551 -3.33955086e-13,8.35122927 C-3.33955086e-13,3.59000653 4.49809698,-1.77635684e-14 10.4637107,-1.77635684e-14 C13.4824849,-1.77635684e-14 16.1254787,0.91927664 18,2.44441137 Z M3.2473585,9.28571429 C3.8451807,9.28571429 4.32981134,8.80601937 4.32981134,8.21428571 C4.32981134,7.62255205 3.8451807,7.14285714 3.2473585,7.14285714 C2.64953631,7.14285714 2.16490567,7.62255205 2.16490567,8.21428571 C2.16490567,8.80601937 2.64953631,9.28571429 3.2473585,9.28571429 Z M7.57716984,9.28571429 C8.17499203,9.28571429 8.65962267,8.80601937 8.65962267,8.21428571 C8.65962267,7.62255205 8.17499203,7.14285714 7.57716984,7.14285714 C6.97934765,7.14285714 6.49471701,7.62255205 6.49471701,8.21428571 C6.49471701,8.80601937 6.97934765,9.28571429 7.57716984,9.28571429 Z M27.1453757,25 C27.0813738,25 27.0173718,24.981847 26.9620683,24.9461639 L21.6239959,21.5148902 L21.6106279,21.5155131 C21.4080009,21.5259244 21.2060148,21.5368696 21,21.5368696 C14.7286348,21.5368696 10,17.7673627 10,12.7687907 C10,7.76950685 14.7286348,4 21,4 C27.2713652,4 32,7.76950685 32,12.7687907 C32,16.0037628 30.396747,18.5856717 27.4786619,20.0603363 L27.4786619,24.6760045 C27.4786619,24.7946219 27.4113637,24.9046967 27.3033204,24.9611134 C27.2540599,24.9870081 27.1993974,25 27.1453757,25 Z M15.9259804,14.5873225 C16.6764379,14.5873225 17.2848039,13.9865849 17.2848039,13.2455375 C17.2848039,12.5044901 16.6764379,11.9037525 15.9259804,11.9037525 C15.1755229,11.9037525 14.5671569,12.5044901 14.5671569,13.2455375 C14.5671569,13.9865849 15.1755229,14.5873225 15.9259804,14.5873225 Z M21.4848039,14.5873225 C22.2352614,14.5873225 22.8436275,13.9865849 22.8436275,13.2455375 C22.8436275,12.5044901 22.2352614,11.9037525 21.4848039,11.9037525 C20.7343464,11.9037525 20.1259804,12.5044901 20.1259804,13.2455375 C20.1259804,13.9865849 20.7343464,14.5873225 21.4848039,14.5873225 Z M27.0436275,14.5873225 C27.794085,14.5873225 28.402451,13.9865849 28.402451,13.2455375 C28.402451,12.5044901 27.794085,11.9037525 27.0436275,11.9037525 C26.2931699,11.9037525 25.6848039,12.5044901 25.6848039,13.2455375 C25.6848039,13.9865849 26.2931699,14.5873225 27.0436275,14.5873225 Z" id="path-1"></path>
    </defs>
    <g id="Page-1" stroke="none" stroke-width="1" fill="none" fill-rule="evenodd">
        <mask id="mask-2" fill="white">
            <use xlink:href="#path-1"></use>
        </mask>
        <use id="icFooterMsgGroup" fill="#D4D7DC" xlink:href="#path-1"></use>
    </g>
</svg>