<?xml version="1.0" encoding="UTF-8"?>
<svg width="22px" height="22px" viewBox="0 0 22 22" version="1.1" xmlns="http://www.w3.org/2000/svg" xmlns:xlink="http://www.w3.org/1999/xlink">
    <!-- Generator: Sketch 58 (84663) - https://sketch.com -->
    <title>icFooterFeedbackGreen</title>
    <desc>Created with Sketch.</desc>
    <g id="Page-1" stroke="none" stroke-width="1" fill="none" fill-rule="evenodd">
        <path d="M13.0021439,0 C13.4612736,0 13.895991,0.158888889 14.2434303,0.450713306 L14.369506,0.566328125 L16.1925839,2.38936328 C16.5172596,2.71397786 16.7122687,3.13368813 16.7515957,3.58569297 L16.758995,3.75658594 L16.758995,8.86432422 C16.8895217,8.73368269 17.4376885,8.18510174 17.9227004,7.69972178 L18.6982255,6.92359766 C19.4524233,6.16953906 20.6792247,6.16949609 21.4331646,6.92342578 C22.1492554,7.63938466 22.1867901,8.7748509 21.5461707,9.53489538 L21.4331216,9.65795703 L16.758995,14.335707 L16.758995,20.0664063 C16.758995,21.0818192 15.9721729,21.9169388 14.976163,21.9941714 L14.8252648,22 L1.93373019,22 C0.918245592,22 0.0830670854,21.2132334 0.00582896144,20.2172938 L0,20.0664063 L0,1.93359375 C0,0.918180804 0.786822097,0.0830612245 1.782832,0.00582855017 L1.93373019,0 L13.0021439,0 Z M12.375,19 L8.625,19 C8.27983333,19 8,19.2238667 8,19.5 C8,19.7761333 8.27983333,20 8.625,20 L12.375,20 C12.7201667,20 13,19.7761333 13,19.5 C13,19.2238667 12.7201667,19 12.375,19 Z M10.3333333,15 L3.66666667,15 C3.29848889,15 3,15.2238667 3,15.5 C3,15.7761333 3.29848889,16 3.66666667,16 L10.3333333,16 C10.7015111,16 11,15.7761333 11,15.5 C11,15.2238667 10.7015111,15 10.3333333,15 Z M14.0242708,13.4245977 L13.6760704,13.7727305 L13.2203117,15.1399961 L14.5876308,14.6842695 L14.9358312,14.3360937 L14.0242708,13.4245977 Z M18.0341396,9.41200391 C17.7915556,9.65477597 17.0708113,10.3760859 16.3750851,11.0723543 L14.9356593,12.5128867 L15.8472197,13.4243828 L18.9457,10.3235 L18.0341396,9.41200391 Z M10.3333333,12 L3.66666667,12 C3.29848889,12 3,12.2238667 3,12.5 C3,12.7761333 3.29848889,13 3.66666667,13 L10.3333333,13 C10.7015111,13 11,12.7761333 11,12.5 C11,12.2238667 10.7015111,12 10.3333333,12 Z M10.3333333,9 L3.66666667,9 C3.29848889,9 3,9.22386667 3,9.5 C3,9.77613333 3.29848889,10 3.66666667,10 L10.3333333,10 C10.7015111,10 11,9.77613333 11,9.5 C11,9.22386667 10.7015111,9 10.3333333,9 Z M19.689891,7.7670655 L19.6100438,7.83492188 L18.9453562,8.50012109 L19.8569167,9.41161719 L20.5213893,8.74663281 C20.7742353,8.49376172 20.7729032,8.08628906 20.5216472,7.83492188 C20.2954781,7.60876875 19.941706,7.58611863 19.689891,7.7670655 Z M12.375,6 L3.625,6 C3.27983333,6 3,6.22386667 3,6.5 C3,6.77613333 3.27983333,7 3.625,7 L12.375,7 C12.7201667,7 13,6.77613333 13,6.5 C13,6.22386667 12.7201667,6 12.375,6 Z M12.9422686,1.28856584 L12.8915776,1.2890625 L12.8915776,3.8671875 L15.4698845,3.8671875 C15.4698845,3.7492567 15.4814395,3.5677146 15.3559308,3.38942411 L15.2810665,3.30085937 L13.4579456,1.47782422 C13.3005078,1.32042969 13.129147,1.29294849 13.0019298,1.28904504 L12.9422686,1.28856584 Z" id="icFooterFeedbackGreen" fill="#7BCB45" fill-rule="nonzero"></path>
    </g>
</svg>