<?xml version="1.0" encoding="UTF-8"?>
<svg width="27px" height="9px" viewBox="0 0 27 9" version="1.1" xmlns="http://www.w3.org/2000/svg" xmlns:xlink="http://www.w3.org/1999/xlink">
    <!-- Generator: Sketch 55 (78076) - https://sketchapp.com -->
    <title>icFooterSetting</title>
    <desc>Created with Sketch.</desc>
    <defs>
        <path d="M13.6443769,-1.66988359 C11.6585019,-1.66988359 10.0486322,-3.19864565 10.0486322,-5.08446921 C10.0486322,-6.97029277 11.6585019,-8.49905482 13.6443769,-8.49905482 C15.6302519,-8.49905482 17.2401216,-6.97029277 17.2401216,-5.08446921 C17.2401216,-3.19864565 15.6302519,-1.66988359 13.6443769,-1.66988359 Z M13.6443769,7.89095612 C11.6585019,7.89095612 10.0486322,6.36219407 10.0486322,4.47637051 C10.0486322,2.59054695 11.6585019,1.0617849 13.6443769,1.0617849 C15.6302519,1.0617849 17.2401216,2.59054695 17.2401216,4.47637051 C17.2401216,6.36219407 15.6302519,7.89095612 13.6443769,7.89095612 Z M13.6443769,17.4517958 C11.6585019,17.4517958 10.0486322,15.9230338 10.0486322,14.0372102 C10.0486322,12.1513867 11.6585019,10.6226246 13.6443769,10.6226246 C15.6302519,10.6226246 17.2401216,12.1513867 17.2401216,14.0372102 C17.2401216,15.9230338 15.6302519,17.4517958 13.6443769,17.4517958 Z" id="path-1"></path>
    </defs>
    <g id="Page-1" stroke="none" stroke-width="1" fill="none" fill-rule="evenodd">
        <mask id="mask-2" fill="white">
            <use xlink:href="#path-1"></use>
        </mask>
        <use id="icFooterSetting" fill="#D4D7DC" transform="translate(13.644377, 4.476371) rotate(90.000000) translate(-13.644377, -4.476371) " xlink:href="#path-1"></use>
    </g>
</svg>