<?xml version="1.0" encoding="UTF-8"?>
<svg width="20px" height="21px" viewBox="0 0 20 21" version="1.1" xmlns="http://www.w3.org/2000/svg" xmlns:xlink="http://www.w3.org/1999/xlink">
    <!-- Generator: Sketch 51.3 (57544) - http://www.bohemiancoding.com/sketch -->
    <title>Icons/FilterOption</title>
    <desc>Created with Sketch.</desc>
    <defs>
        <path d="M5.19387253,14.1367298 C7.54079334,16.4785626 11.3059619,16.5860476 13.7826487,14.3819152 L19.2040476,19.8035605 C19.343795,19.9427812 19.759125,20.1418925 20.2107211,19.8035605 C20.6623171,19.4652286 20.3499366,18.8393093 20.2107211,18.6995568 L14.7893293,13.2779222 C16.4088232,11.1041028 16.3140083,7.32713842 13.8703655,5.12184523 C11.4267228,2.91655204 7.47411891,2.91655204 5.10999624,5.37287777 C2.74587357,7.8292035 2.78316969,11.7261056 5.19387253,14.1367298 Z M11.6022766,4.92208707 C13.5395278,5.72454296 14.8026507,7.61499664 14.8026507,9.71192885 C14.8026507,11.8088611 13.5395278,13.6993147 11.6022766,14.5017706 C9.66502538,15.3042265 7.43515637,14.8606538 5.95245833,13.3778907 C4.9762324,12.4077364 4.42727894,11.0882556 4.4272802,9.71192746 C4.42728145,8.3355993 4.97623732,7.01611953 5.95246502,6.045967 C7.43515637,4.56320386 9.66502538,4.11963119 11.6022766,4.92208707 Z" id="path-1"></path>
        <path d="M7.82,0.575 C7.82,0.892563588 8.05651378,1.15 8.35147768,1.15 L12.8085223,1.15 C13.1020494,1.15 13.34,0.894777625 13.34,0.575 C13.34,0.257436412 13.1034862,0 12.8085223,0 L8.35147768,0 C8.05795058,0 7.82,0.255222375 7.82,0.575 Z M3.22,3.91 C3.22,4.22756359 3.47015881,4.485 3.78213986,4.485 L12.7778601,4.485 C13.0883215,4.485 13.34,4.22977763 13.34,3.91 C13.34,3.59243641 13.0898412,3.335 12.7778601,3.335 L3.78213986,3.335 C3.4716785,3.335 3.22,3.59022237 3.22,3.91 Z M0.121513672,7.245 C0.121513672,7.56256359 0.34112565,7.82 0.76655435,7.82 L12.7067139,7.82 C13.1300703,7.82 13.3630225,7.56477763 13.3630225,7.245 C13.3630225,6.92743641 13.1321426,6.67 12.7067139,6.67 L0.76655435,6.67 C0.34319795,6.67 0.121513672,6.92522237 0.121513672,7.245 Z" id="path-3"></path>
    </defs>
    <g id="Page-1" stroke="none" stroke-width="1" fill="none" fill-rule="evenodd">
        <g id="Filter-Msg" transform="translate(-340.000000, -34.000000)">
            <g id="Group-3" transform="translate(0.000000, -7.000000)">
                <g id="UI/nav-with-currency">
                    <g id="Group" transform="translate(337.000000, 41.000000)">
                        <g id="Icons/FilterOption">
                            <g id="colour/light-grey" transform="translate(8.415418, 9.931942) rotate(-328.000000) translate(-8.415418, -9.931942) translate(-3.544582, -1.798058)">
                                <mask id="mask-2" fill="white">
                                    <use xlink:href="#path-1"></use>
                                </mask>
                                <use id="Mask" fill="#000000" fill-rule="nonzero" transform="translate(11.903584, 11.743921) scale(-1, 1) rotate(56.000000) translate(-11.903584, -11.743921) " xlink:href="#path-1"></use>
                                <g id="colour/dark-grey" mask="url(#mask-2)" fill="#646464">
                                    <g transform="translate(2.192086, 1.776646)">
                                        <rect x="0" y="0" width="21" height="23"></rect>
                                    </g>
                                </g>
                            </g>
                            <g id="colour/mid-grey" transform="translate(8.740000, 12.880000)">
                                <mask id="mask-4" fill="white">
                                    <use xlink:href="#path-3"></use>
                                </mask>
                                <use id="Mask" fill="#000000" fill-rule="nonzero" xlink:href="#path-3"></use>
                                <g id="colour/dark-grey" mask="url(#mask-4)" fill="#646464">
                                    <g transform="translate(-1.380000, -3.680000)">
                                        <rect x="0" y="0" width="18" height="15"></rect>
                                    </g>
                                </g>
                            </g>
                        </g>
                    </g>
                </g>
            </g>
        </g>
    </g>
</svg>