<?xml version="1.0" encoding="UTF-8"?>
<svg width="26px" height="26px" viewBox="0 0 26 26" version="1.1" xmlns="http://www.w3.org/2000/svg" xmlns:xlink="http://www.w3.org/1999/xlink">
    <!-- Generator: Sketch 51.3 (57544) - http://www.bohemiancoding.com/sketch -->
    <title>emoji</title>
    <desc>Created with Sketch.</desc>
    <defs></defs>
    <g id="Page-1" stroke="none" stroke-width="1" fill="none" fill-rule="evenodd">
        <g id="Desktop-Outside-Incoming-call---Cancel" transform="translate(-419.000000, -1070.000000)">
            <g id="Group-8" transform="translate(17.000000, 193.000000)">
                <g id="Group-7" transform="translate(381.000000, 860.000000)">
                    <g id="Like---green" transform="translate(20.000000, 15.000000)">
                        <g id="happy-(1)" transform="translate(1.000000, 2.000000)">
                            <g id="Group" transform="translate(13.000000, 13.000000) scale(-1, 1) rotate(-180.000000) translate(-13.000000, -13.000000) " fill-rule="nonzero">
                                <g>
                                    <g>
                                        <path d="M25.9746341,13.0126829 C25.9746341,5.84010732 20.1598927,0.0253658537 12.9873171,0.0253658537 C5.81474146,0.0253658537 0,5.84010732 0,13.0126829 C0,20.1852585 5.81474146,26 12.9873171,26 C20.1598927,26 25.9746341,20.1852585 25.9746341,13.0126829" id="Shape" fill="#FFCC4D"></path>
                                        <path d="M12.9873171,10.8481512 C10.373239,10.8481512 8.63872195,11.1526049 6.49365854,11.5696829 C6.00371707,11.6641707 5.05059512,11.5696829 5.05059512,10.1266195 C5.05059512,7.2405561 8.36597561,3.63296098 12.9873171,3.63296098 C17.6078976,3.63296098 20.924039,7.2405561 20.924039,10.1266195 C20.924039,11.5696829 19.9709171,11.6648683 19.4809756,11.5696829 C17.3359122,11.1526049 15.6013951,10.8481512 12.9873171,10.8481512" id="Shape" fill="#664500"></path>
                                        <path d="M6.49365854,10.1266195 C6.49365854,10.1266195 8.65819024,9.4050878 12.9873171,9.4050878 C17.3164439,9.4050878 19.4809756,10.1266195 19.4809756,10.1266195 C19.4809756,10.1266195 18.0379122,7.2405561 12.9873171,7.2405561 C7.93672195,7.2405561 6.49365854,10.1266195 6.49365854,10.1266195" id="Shape" fill="#FFFFFF"></path>
                                        <path d="M10.4620195,16.2595122 C10.4620195,14.8640732 9.65462439,13.7342146 8.65825366,13.7342146 C7.66188293,13.7342146 6.8544878,14.8641366 6.8544878,16.2595122 C6.8544878,17.6541902 7.66188293,18.7848098 8.65825366,18.7848098 C9.65462439,18.7848098 10.4620195,17.6541902 10.4620195,16.2595122" id="SVGCleanerId_0" fill="#664500"></path>
                                        <g transform="translate(16.234146, 13.697561)" fill="#664500" id="SVGCleanerId_0_1_">
                                            <path d="M3.64703902,2.56195122 C3.64703902,1.1665122 2.8396439,0.0366536585 1.84327317,0.0366536585 C0.846902439,0.0366536585 0.0395073171,1.16657561 0.0395073171,2.56195122 C0.0395073171,3.95662927 0.846902439,5.08724878 1.84327317,5.08724878 C2.8396439,5.08724878 3.64703902,3.95662927 3.64703902,2.56195122"></path>
                                        </g>
                                    </g>
                                </g>
                            </g>
                        </g>
                    </g>
                </g>
            </g>
        </g>
    </g>
</svg>