<?xml version="1.0" encoding="UTF-8"?>
<svg width="22px" height="19px" viewBox="0 0 22 19" version="1.1" xmlns="http://www.w3.org/2000/svg" xmlns:xlink="http://www.w3.org/1999/xlink">
    <!-- Generator: Sketch 52.2 (67145) - http://www.bohemiancoding.com/sketch -->
    <title>icBubbleChatMemberGreen</title>
    <desc>Created with Sketch.</desc>
    <g id="DESKTOP-CHAT" stroke="none" stroke-width="1" fill="none" fill-rule="evenodd">
        <g id="chat-group-expanded-video-copy" transform="translate(-1411.000000, -196.000000)" fill="#8AD855" fill-rule="nonzero">
            <path d="M1431.52707,200.353715 C1430.54482,199.009581 1429.2106,197.94788 1427.52478,197.168709 C1425.839,196.389633 1423.99725,196 1422.00019,196 C1420.51054,196 1419.08641,196.230055 1417.72782,196.690261 C1416.36923,197.150419 1415.19889,197.772406 1414.21672,198.556078 C1413.23438,199.339845 1412.45294,200.271652 1411.87174,201.351451 C1411.29055,202.431298 1411,203.563667 1411,204.748367 C1411,206.115244 1411.37023,207.396036 1412.111,208.589833 C1412.85176,209.783486 1413.86446,210.786057 1415.14957,211.597115 C1415.52903,211.821655 1415.63566,212.193062 1415.63566,211.930359 C1415.63566,211.667655 1415.55354,211.232972 1415.45532,211.442536 C1415.35702,211.652099 1415.22415,211.884596 1415.05624,212.139739 C1414.88858,212.394835 1414.76173,212.574905 1414.67577,212.679567 C1414.5899,212.78442 1414.44873,212.957835 1414.25218,213.198998 C1414.05588,213.440688 1413.92894,213.597776 1413.87171,213.670838 C1413.86341,213.6751 1413.83073,213.716419 1413.77345,213.793742 C1413.71622,213.871065 1413.6875,213.909751 1413.6875,213.909751 L1413.61384,214.032607 C1413.57286,214.101121 1413.55445,214.144355 1413.5585,214.162213 C1413.56262,214.180072 1413.55445,214.225939 1413.53399,214.298714 C1413.51347,214.371776 1413.51558,214.426501 1413.54009,214.46308 C1413.57299,214.640852 1413.64458,214.772901 1413.75501,214.872966 C1413.86543,214.973128 1413.99039,215.014207 1414.12945,214.995678 C1414.66158,214.922808 1415.12805,214.823029 1415.52903,214.695194 C1417.67345,214.084363 1418.43102,214.032607 1420.2199,213.386949 C1420.8336,213.45982 1421.427,213.496399 1421.99994,213.496399 C1423.99695,213.496399 1425.83861,213.106765 1427.52456,212.327355 C1429.21052,211.548279 1430.5446,210.486531 1431.52668,209.142635 C1432.50894,207.799075 1433,206.333952 1433,204.748319 C1433.00004,203.162638 1432.50902,201.697611 1431.52707,200.353715 Z" id="icBubbleChatMemberGreen"></path>
        </g>
    </g>
</svg>