<?xml version="1.0" encoding="UTF-8"?>
<svg width="13px" height="9px" viewBox="0 0 13 9" version="1.1" xmlns="http://www.w3.org/2000/svg" xmlns:xlink="http://www.w3.org/1999/xlink">
    <!-- Generator: Sketch 52.4 (67378) - http://www.bohemiancoding.com/sketch -->
    <title>icCameraMember</title>
    <desc>Created with Sketch.</desc>
    <g id="Page-1" stroke="none" stroke-width="1" fill="none" fill-rule="evenodd">
        <g id="Chatrooms_VideoMembers-Copy-5" transform="translate(-61.000000, -173.000000)" fill="#7EC34D" fill-rule="nonzero">
            <g id="Group-3" transform="translate(13.000000, 25.000000)">
                <g id="Group-2">
                    <g id="Group-6">
                        <g id="Group-4" transform="translate(48.000000, 144.000000)">
                            <path d="M12.7169942,4.26006507 C12.6541322,4.23666907 12.5936841,4.22492181 12.535599,4.22492181 C12.4049966,4.22492181 12.2962967,4.26954661 12.2091691,4.35854994 L9.28560539,7.18518144 L9.28560539,6.02503509 C9.28560539,5.46715119 9.08126592,4.99026671 8.67258697,4.5941354 C8.26388262,4.19805334 7.77191285,4 7.19627113,4 L2.08923263,4 C1.51376877,4 1.02164654,4.19805334 0.612916781,4.5941354 C0.204339473,4.99026671 0,5.46715119 0,6.02503509 L0,10.9750388 C0,11.5328734 0.204339473,12.0097333 0.612942191,12.40584 C1.02167195,12.8019467 1.51379418,13 2.08925804,13 L7.19632194,13 C7.77193826,13 8.26393344,12.8019467 8.67263779,12.40584 C9.08131674,12.0097333 9.28565621,11.5328981 9.28565621,10.9750388 L9.28565621,9.80777514 L12.20922,12.6414254 C12.2963475,12.7304041 12.4050474,12.7750043 12.5356499,12.7750043 C12.5937349,12.7750043 12.654183,12.7632817 12.717045,12.7399349 C12.9057579,12.6602161 13,12.5219827 13,12.3251114 L13,4.6750117 C12.9999238,4.47804196 12.9056817,4.33978388 12.7169942,4.26006507 Z" id="icCameraMember"></path>
                        </g>
                    </g>
                </g>
            </g>
        </g>
    </g>
</svg>