<?xml version="1.0" encoding="UTF-8"?>
<svg width="28px" height="28px" viewBox="0 0 28 28" version="1.1" xmlns="http://www.w3.org/2000/svg" xmlns:xlink="http://www.w3.org/1999/xlink">
    <!-- Generator: Sketch 52.4 (67378) - http://www.bohemiancoding.com/sketch -->
    <title>icSettingMember</title>
    <desc>Created with Sketch.</desc>
    <defs>
        <path d="M1.45596107,16.5651644 C0.661800487,16.5651644 -9.23705556e-14,15.9025579 -9.23705556e-14,15.10743 L-9.23705556e-14,12.0594397 C-9.23705556e-14,11.2643118 0.661800487,10.6017052 1.42287105,10.6348356 L2.97810219,10.6348356 C3.30900243,10.6348356 3.60681265,10.4360536 3.73917275,10.1047503 C3.87153285,9.80657734 4.00389294,9.47527406 4.13625304,9.1771011 C4.30170316,8.84579781 4.23552311,8.48136419 4.00389294,8.24945189 L2.91192214,7.15615104 C2.34939173,6.59293544 2.34939173,5.66528624 2.91192214,5.10207065 L5.06277372,2.94859927 C5.62530414,2.38538368 6.55182482,2.38538368 7.11435523,2.94859927 L8.20632603,4.04190012 C8.4379562,4.27381242 8.8350365,4.30694275 9.13284672,4.17442144 C9.43065693,4.00876979 9.72846715,3.87624848 10.0593674,3.77685749 C10.3571776,3.64433618 10.5888078,3.34616322 10.5888078,3.01485993 L10.5888078,1.45773447 C10.5888078,0.662606577 11.2506083,-9.23705556e-14 12.0447689,-9.23705556e-14 L15.0890511,-9.23705556e-14 C15.8832117,-9.23705556e-14 16.5450122,0.662606577 16.5781022,1.42460414 L16.5781022,2.9817296 C16.5781022,3.31303289 16.7766423,3.61120585 17.1075426,3.74372716 C17.4053528,3.87624848 17.736253,4.00876979 18.0340633,4.14129111 C18.3649635,4.30694275 18.7289538,4.2406821 18.9605839,4.00876979 L20.0525547,2.91546894 C20.6150852,2.35225335 21.5416058,2.35225335 22.1041363,2.91546894 L24.2549878,5.06894032 C24.8175182,5.63215591 24.8175182,6.55980512 24.2549878,7.12302071 L23.163017,8.21632156 C22.9313869,8.48136419 22.8982968,8.84579781 23.0306569,9.14397077 C23.1961071,9.44214373 23.3284672,9.74031669 23.4277372,10.07162 C23.5600973,10.3697929 23.8579075,10.6017052 24.1888078,10.6017052 L25.7440389,10.6017052 C26.5381995,10.6017052 27.2,11.2643118 27.2,12.0594397 L27.2,15.10743 C27.2,15.9025579 26.5381995,16.5651644 25.7440389,16.5651644 L24.1888078,16.5651644 C23.8579075,16.5651644 23.5600973,16.7639464 23.4277372,17.0952497 C23.2953771,17.3934227 23.163017,17.7247259 23.0306569,18.0228989 C22.8652068,18.3542022 22.9313869,18.7186358 23.163017,18.9505481 L24.2549878,20.043849 C24.8175182,20.6070646 24.8175182,21.5347138 24.2549878,22.0979294 L22.1041363,24.2514007 C21.5416058,24.8146163 20.6150852,24.8146163 20.0525547,24.2514007 L18.9605839,23.1580999 C18.7289538,22.9261876 18.3318735,22.8930572 18.0340633,23.0255786 C17.736253,23.1912302 17.4384428,23.3237515 17.1075426,23.4231425 C16.8097324,23.5556638 16.5781022,23.8538368 16.5781022,24.1851401 L16.5781022,25.7422655 C16.5781022,26.5373934 15.9163017,27.2 15.1221411,27.2 L12.0778589,27.2 C11.2836983,27.2 10.6218978,26.5373934 10.6218978,25.7422655 L10.6218978,24.1851401 C10.6218978,23.8538368 10.4233577,23.5556638 10.0924574,23.4231425 C9.7946472,23.2906212 9.46374696,23.1580999 9.16593674,23.0255786 C8.8350365,22.8599269 8.47104623,22.9261876 8.23941606,23.1580999 L7.14744526,24.2514007 C6.58491484,24.8146163 5.65839416,24.8146163 5.09586375,24.2514007 L2.94501217,22.0979294 C2.38248175,21.5347138 2.38248175,20.6070646 2.94501217,20.043849 L4.03698297,18.9505481 C4.26861314,18.6855055 4.30170316,18.3210719 4.16934307,18.0228989 C4.00389294,17.7247259 3.87153285,17.426553 3.77226277,17.0952497 C3.63990268,16.7970767 3.34209246,16.5651644 3.01119221,16.5651644 L1.45596107,16.5651644 Z M1.34180049,12.1396448 L1.34180049,15.0586116 C1.34180049,15.4666392 1.68661127,15.8118933 2.09411492,15.8118933 L3.56739734,15.8118933 C4.13163316,15.8118933 4.66452255,16.1885342 4.85260116,16.7534955 C4.94664046,17.0359761 5.0720262,17.2870701 5.19741194,17.5695507 C5.44818342,18.1031253 5.35414411,18.7308601 4.94664046,19.1388877 L3.91220812,20.1746501 C3.63009021,20.4885174 3.63009021,20.9593185 3.91220812,21.2417992 L5.94972637,23.2819372 C6.26319072,23.5644179 6.73338724,23.5644179 7.01550515,23.2819372 L8.04993749,22.2461748 C8.30070897,21.9636942 8.67686618,21.8381472 9.02167696,21.8381472 C9.20975557,21.8381472 9.42918061,21.869534 9.61725922,21.9636942 C9.86803069,22.0892411 10.1501486,22.2147881 10.4322665,22.3089483 C10.9965023,22.4972687 11.3726596,23.0308433 11.3726596,23.5958046 L11.3726596,25.0709814 C11.3726596,25.479009 11.7174703,25.8242631 12.124974,25.8242631 L15.008846,25.8242631 C15.4163496,25.8242631 15.7611604,25.479009 15.7611604,25.0709814 L15.7611604,23.5958046 C15.7611604,23.0308433 16.1373176,22.4972687 16.7015534,22.3089483 C16.9836713,22.2147881 17.2344428,22.0892411 17.5165607,21.9636942 C18.0494501,21.7126003 18.6763788,21.8067605 19.0838825,22.2147881 L20.1183148,23.2505505 C20.4317792,23.5330311 20.9019757,23.5330311 21.1840936,23.2505505 L23.2216118,21.2104124 C23.5037297,20.8965451 23.5037297,20.425744 23.2216118,20.1432633 L22.1871795,19.1075009 C21.7796758,18.6994733 21.6856365,18.0717385 21.936408,17.538164 C22.0617937,17.2870701 22.1871795,17.0045894 22.2812188,16.7221087 C22.4692974,16.1571474 23.0021868,15.7805066 23.5664226,15.7805066 L25.039705,15.7805066 C25.4472087,15.7805066 25.7920195,15.4352524 25.7920195,15.0272248 L25.7920195,12.1396448 C25.7920195,11.7316172 25.4472087,11.3863631 25.039705,11.3863631 L23.5664226,11.3863631 C23.0021868,11.3863631 22.4692974,11.0097222 22.2812188,10.4447609 C22.1871795,10.1622803 22.0617937,9.91118636 21.936408,9.62870571 C21.6856365,9.09513114 21.7796758,8.46739636 22.1871795,8.05936875 L23.2216118,7.02360636 C23.5037297,6.70973897 23.5037297,6.23893788 23.2216118,5.95645723 L21.1840936,3.91631919 C20.8706292,3.63383853 20.4004327,3.63383853 20.1183148,3.91631919 L19.0838825,4.95208158 C18.6763788,5.36010919 18.0494501,5.4542694 17.5165607,5.20317549 C17.2657893,5.07762853 16.9836713,4.95208158 16.7015534,4.85792136 C16.1373176,4.66960092 15.7611604,4.13602636 15.7611604,3.57106506 L15.7611604,2.09588832 C15.7611604,1.68786071 15.4163496,1.34260658 15.008846,1.34260658 L12.124974,1.34260658 C11.7174703,1.34260658 11.3726596,1.68786071 11.3726596,2.09588832 L11.3726596,3.57106506 C11.3726596,4.13602636 10.9965023,4.66960092 10.4322665,4.85792136 C10.1501486,4.95208158 9.89937713,5.07762853 9.61725922,5.20317549 C9.08436983,5.4542694 8.45744114,5.36010919 8.04993749,4.95208158 L7.01550515,3.91631919 C6.7020408,3.63383853 6.23184428,3.63383853 5.94972637,3.91631919 L3.91220812,5.95645723 C3.63009021,6.27032462 3.63009021,6.74112571 3.91220812,7.02360636 L4.94664046,8.05936875 C5.35414411,8.46739636 5.44818342,9.09513114 5.19741194,9.62870571 C5.0720262,9.87979962 4.94664046,10.1622803 4.85260116,10.4447609 C4.66452255,11.0097222 4.13163316,11.3863631 3.56739734,11.3863631 L2.09411492,11.3863631 C1.68661127,11.3863631 1.34180049,11.7316172 1.34180049,12.1396448 Z M13.6,20.4 C9.85081081,20.4 6.8,17.3491892 6.8,13.6 C6.8,9.85081081 9.85081081,6.8 13.6,6.8 C17.3491892,6.8 20.4,9.85081081 20.4,13.6 C20.4,17.3491892 17.3491892,20.4 13.6,20.4 Z M13.6,8.14162162 C10.5896216,8.14162162 8.14162162,10.5896216 8.14162162,13.6 C8.14162162,16.6103784 10.5896216,19.0583784 13.6,19.0583784 C16.6103784,19.0583784 19.0583784,16.6103784 19.0583784,13.6 C19.0583784,10.5896216 16.6103784,8.14162162 13.6,8.14162162 Z" id="path-1"></path>
    </defs>
    <g id="Page-1" stroke="none" stroke-width="1" fill="none" fill-rule="evenodd">
        <g id="Chatrooms_VideoMembers-Copy-5" transform="translate(-328.000000, -35.000000)">
            <g id="icSettingMember" transform="translate(328.400000, 35.400000)">
                <mask id="mask-2" fill="white">
                    <use xlink:href="#path-1"></use>
                </mask>
                <use fill="#FFFFFF" fill-rule="nonzero" xlink:href="#path-1"></use>
            </g>
        </g>
    </g>
</svg>