<?xml version="1.0" encoding="UTF-8"?>
<svg width="10px" height="13px" viewBox="0 0 10 13" version="1.1" xmlns="http://www.w3.org/2000/svg" xmlns:xlink="http://www.w3.org/1999/xlink">
    <!-- Generator: Sketch 53.2 (72643) - https://sketchapp.com -->
    <title>btnToggleCarousel</title>
    <desc>Created with Sketch.</desc>
    <g id="Page-1" stroke="none" stroke-width="1" fill="none" fill-rule="evenodd">
        <path d="M5.00105794,6.0963832e-06 C6.00926448,8.55454187e-06 6.91809562,0.65451403 7.30342246,1.65808109 C7.6887493,2.66164815 7.47461226,3.81644333 6.76094376,4.58355243 C6.04727527,5.35066153 4.974761,5.57886411 4.04391669,5.1616637 C3.11307239,4.7444633 2.50739567,3.76410274 2.50954079,2.67809192 C2.50953929,1.96682894 2.77220672,1.28478053 3.23960983,0.782377549 C3.70701295,0.279974565 4.34075445,-0.00151045583 5.00105794,6.0963832e-06 Z M0.0127225314,12.1970025 C0.0127225314,12.1970025 -0.517387502,6.41256554 5.26611296,6.60671249 C5.26611296,6.60671249 10.0052967,6.12134512 9.99999556,12.1970025 C7.75105899,12.7323342 6.08439454,13 5.00000222,13 C3.86499955,13 2.20257299,12.7323342 0.0127225314,12.1970025 Z" id="btnToggleCarousel" fill="#FFFFFF" fill-rule="nonzero"></path>
    </g>
</svg>