<?xml version="1.0" encoding="UTF-8"?>
<svg width="12px" height="12px" viewBox="0 0 12 12" version="1.1" xmlns="http://www.w3.org/2000/svg" xmlns:xlink="http://www.w3.org/1999/xlink">
    <!-- Generator: Sketch 53.2 (72643) - https://sketchapp.com -->
    <title>btnToggleGrid</title>
    <desc>Created with Sketch.</desc>
    <g id="Page-1" stroke="none" stroke-width="1" fill="none" fill-rule="evenodd">
        <path d="M0,1.00116777 C0,0.448238081 0.439422607,0 1.00116777,0 L4.59883223,0 C5.15176192,0 5.6,0.439422607 5.6,1.00116777 L5.6,4.59883223 C5.6,5.15176192 5.16057739,5.6 4.59883223,5.6 L1.00116777,5.6 C0.448238081,5.6 0,5.16057739 0,4.59883223 L0,1.00116777 Z M6.4,1.00116777 C6.4,0.448238081 6.83942261,0 7.40116777,0 L10.9988322,0 C11.5517619,0 12,0.439422607 12,1.00116777 L12,4.59883223 C12,5.15176192 11.5605774,5.6 10.9988322,5.6 L7.40116777,5.6 C6.84823808,5.6 6.4,5.16057739 6.4,4.59883223 L6.4,1.00116777 Z M0,7.40116777 C0,6.84823808 0.439422607,6.4 1.00116777,6.4 L4.59883223,6.4 C5.15176192,6.4 5.6,6.83942261 5.6,7.40116777 L5.6,10.9988322 C5.6,11.5517619 5.16057739,12 4.59883223,12 L1.00116777,12 C0.448238081,12 0,11.5605774 0,10.9988322 L0,7.40116777 Z M6.4,7.40116777 C6.4,6.84823808 6.83942261,6.4 7.40116777,6.4 L10.9988322,6.4 C11.5517619,6.4 12,6.83942261 12,7.40116777 L12,10.9988322 C12,11.5517619 11.5605774,12 10.9988322,12 L7.40116777,12 C6.84823808,12 6.4,11.5605774 6.4,10.9988322 L6.4,7.40116777 Z" id="btnToggleGrid" fill="#FFFFFF" fill-rule="nonzero"></path>
    </g>
</svg>