<?xml version="1.0" encoding="UTF-8"?>
<svg width="17px" height="17px" viewBox="0 0 17 17" version="1.1" xmlns="http://www.w3.org/2000/svg" xmlns:xlink="http://www.w3.org/1999/xlink">
    <!-- Generator: Sketch 52.4 (67378) - http://www.bohemiancoding.com/sketch -->
    <title>icBirthdayCake</title>
    <desc>Created with Sketch.</desc>
    <g id="Page-1" stroke="none" stroke-width="1" fill="none" fill-rule="evenodd">
        <g id="Artboard" transform="translate(-44.000000, -319.000000)" fill="#FFFFFF" fill-rule="nonzero">
            <path d="M44,334.580814 L61,334.580814 L61,335.997481 L44,335.997481 L44,334.580814 Z M52.5,318.997481 C53.333774,319.351775 53.9166667,320.428622 53.9166667,321.161817 C53.9166667,321.922519 53.2824268,322.539148 52.5,322.539148 C51.7175732,322.539148 51.0833333,321.922483 51.0833333,321.161817 C51.0833333,320.428622 51.666226,319.351775 52.5,318.997481 Z M57.7192436,325.357424 C58.7444695,325.357424 59.5832663,326.148633 59.5833333,327.115695 L59.5833333,327.291515 C58.7928352,327.291515 58.362233,327.62499 58.0478223,327.868485 C57.7761504,328.078838 57.6121959,328.205814 57.2220213,328.205814 C56.8318466,328.205814 56.6678922,328.078838 56.3962202,327.868485 C56.0818095,327.62499 55.6511738,327.291515 54.8607092,327.291515 C54.0702781,327.291515 53.6397428,327.62499 53.3253656,327.868485 C53.0537942,328.078838 52.8898397,328.205814 52.4997655,328.205814 C52.1096913,328.205814 51.9457369,328.078838 51.6740985,327.868485 C51.3596878,327.62499 50.9291525,327.291515 50.1387214,327.291515 C49.3482903,327.291515 48.9177215,327.62499 48.6033444,327.868485 C48.3317394,328.078838 48.1678185,328.205814 47.7777443,328.205814 C47.3876366,328.205814 47.2236822,328.078838 46.9520772,327.868485 C46.6376331,327.62499 46.2070978,327.291515 45.4166667,327.291515 L45.4166667,327.115695 C45.4166667,326.148633 46.2554635,325.357424 47.2806894,325.357424 L51.7543507,325.357424 L51.7543507,323.247481 L53.2455823,323.247481 L53.2455823,325.357424 L57.7192436,325.357424 Z M58.7575638,329.266469 C59.0292364,329.046767 59.1931912,328.914148 59.5833333,328.914148 L59.5833333,333.872481 L45.4166667,333.872481 L45.4166667,328.914148 C45.8067753,328.914148 45.9707301,329.046767 46.2423357,329.266469 C46.5567806,329.520786 46.9873169,329.869081 47.7777499,329.869081 C48.5681829,329.869081 48.9987526,329.520786 49.313097,329.266469 C49.5846692,329.046767 49.748624,328.914148 50.1386991,328.914148 C50.5288077,328.914148 50.692729,329.046767 50.9643681,329.266469 C51.278813,329.520786 51.7093493,329.869081 52.4997823,329.869081 C53.2902153,329.869081 53.7207851,329.520786 54.035163,329.266469 C54.3067686,329.046767 54.4706899,328.914148 54.860765,328.914148 C55.2509406,328.914148 55.4148954,329.046767 55.686568,329.266469 C56.0009794,329.520786 56.4315827,329.869081 57.2220827,329.869081 C58.0125491,329.869081 58.4431524,329.520819 58.7575638,329.266469 Z" id="icBirthdayCake"></path>
        </g>
    </g>
</svg>