<?xml version="1.0" encoding="UTF-8"?>
<svg width="12px" height="12px" viewBox="0 0 12 12" version="1.1" xmlns="http://www.w3.org/2000/svg" xmlns:xlink="http://www.w3.org/1999/xlink">
    <!-- Generator: Sketch 52.4 (67378) - http://www.bohemiancoding.com/sketch -->
    <title>icCalendarHomeStream</title>
    <desc>Created with Sketch.</desc>
    <defs>
        <path d="M11.1912,0.96 C11.5701297,0.96 11.88,1.29109705 11.88,1.68527089 L11.88,10.8832591 C11.88,11.2774329 11.5701297,11.6 11.1912,11.6 L1.0888,11.6 C0.709870313,11.6 0.4,11.2774329 0.4,10.8832591 L0.4,1.68527089 C0.4,1.29109705 0.709870313,0.96 1.0888,0.96 L2.373125,0.96 L2.373125,2.57081519 C2.373125,3.09787679 2.79241406,3.51898734 3.2987,3.51898734 L3.5857,3.51898734 C4.09198594,3.51898734 4.50320313,3.09765232 4.50320313,2.57081519 L4.50320313,0.96 L7.95617188,0.96 L7.95617188,2.57081519 C7.95617188,3.09787679 8.35976563,3.51898734 8.8665,3.51898734 L9.1535,3.51898734 C9.66023438,3.51898734 10.0638281,3.09765232 10.0638281,2.57081519 L10.0638281,0.96 L11.1912,0.96 Z M10.9158594,10.1072574 L10.9158594,4.94438819 C10.9149977,4.66580755 10.6896328,4.44018757 10.4113672,4.43932489 L1.86863281,4.43932489 C1.59036718,4.44018757 1.36500233,4.66580755 1.36414063,4.94438819 L1.36414063,10.1072574 C1.36500233,10.385838 1.59036718,10.611458 1.86863281,10.6123207 L10.4113672,10.6123207 C10.6896328,10.611458 10.9149977,10.385838 10.9158594,10.1072574 Z M3.36192542,3.2 C3.12084068,3.2 2.92,2.94716418 2.92,2.64307164 L2.92,0.670492537 C2.92,0.366859701 3.12084068,0.12 3.36192542,0.12 L3.60490847,0.12 C3.84599322,0.12 4.04,0.366859701 4.04,0.670492537 L4.04,2.64284179 C4.04,2.94716418 3.84599322,3.2 3.60490847,3.2 L3.36192542,3.2 Z M8.83851906,3.2 C8.59327768,3.2 8.40210526,2.94716418 8.40210526,2.64284179 L8.40210526,0.670262687 C8.40210526,0.366859701 8.59327768,0.12 8.83851906,0.12 L9.08569147,0.12 C9.33093285,0.12 9.52210526,0.366859701 9.52210526,0.670262687 L9.52210526,2.64284179 C9.52210526,2.94716418 9.33093285,3.2 9.08569147,3.2 L8.83851906,3.2 Z M2.36,5.44 L4.32,5.44 L4.32,7.19 L2.36,7.19 L2.36,5.44 Z M2.36,7.89 L4.32,7.89 L4.32,9.64 L2.36,9.64 L2.36,7.89 Z M5.21090909,5.44 L7.17090909,5.44 L7.17090909,7.19 L5.21090909,7.19 L5.21090909,5.44 Z M5.21090909,7.89 L7.17090909,7.89 L7.17090909,9.64 L5.21090909,9.64 L5.21090909,7.89 Z M8.24,5.44 L10.2,5.44 L10.2,7.19 L8.24,7.19 L8.24,5.44 Z M8.24,7.89 L10.2,7.89 L10.2,9.64 L8.24,9.64 L8.24,7.89 Z" id="path-1"></path>
    </defs>
    <g id="Page-1" stroke="none" stroke-width="1" fill="none" fill-rule="evenodd">
        <mask id="mask-2" fill="white">
            <use xlink:href="#path-1"></use>
        </mask>
        <use id="icCalendarHomeStream" fill="#333333" fill-rule="nonzero" xlink:href="#path-1"></use>
    </g>
</svg>