<?xml version="1.0" encoding="UTF-8"?>
<svg width="33px" height="30px" viewBox="0 0 33 30" version="1.1" xmlns="http://www.w3.org/2000/svg" xmlns:xlink="http://www.w3.org/1999/xlink">
    <!-- Generator: Sketch 52.4 (67378) - http://www.bohemiancoding.com/sketch -->
    <title>icCommentHomeStream</title>
    <desc>Created with Sketch.</desc>
    <g id="Page-1" stroke="none" stroke-width="1" fill="none" fill-rule="evenodd">
        <g id="Artboard" transform="translate(-35.000000, -155.000000)" fill="#333333" fill-rule="nonzero">
            <path d="M62.7051063,159.395349 C59.6363895,156.560254 55.5653626,155 51.2265953,155 C46.8878279,155 42.816801,156.560254 39.7480842,159.395349 C33.8166048,164.875264 33.4046965,173.646934 38.7251786,179.564482 C38.2034281,180.534884 37.3658813,181.663848 36.1232913,182.22833 C35.5260242,182.501057 35.1896325,183.090909 35.2926095,183.699789 C35.3955866,184.308668 35.9036068,184.784355 36.5626601,184.879493 C36.8715913,184.92389 37.3109602,184.968288 37.846441,184.968288 C39.2812548,184.968288 41.3957174,184.657505 43.5582359,183.217759 C45.9678994,184.41649 48.6041125,185 51.2197301,185 C55.4211947,185 59.5814684,183.496829 62.7119714,180.604651 C65.7806882,177.769556 67.4695122,174.008457 67.4695122,170 C67.4695122,165.991543 65.7738231,162.230444 62.7051063,159.395349 Z M61.3938649,179.393235 C56.7598966,183.674419 49.5858272,184.524313 43.9426837,181.460888 C43.5719662,181.257928 43.1120019,181.321353 42.816801,181.59408 C42.7893404,181.606765 42.7618799,181.625793 42.7412845,181.64482 C40.880832,182.976744 39.0547053,183.255814 37.846441,183.255814 L37.8395758,183.255814 C39.2331989,182.317125 40.1119365,180.921776 40.6268219,179.837209 C40.7092036,179.653277 40.7229338,179.463002 40.6748779,179.285412 C40.6542825,179.114165 40.5787659,178.942918 40.4483283,178.803383 C35.4230472,173.55814 35.6839224,165.566596 41.0524605,160.606765 C46.6612784,155.424947 55.785047,155.424947 61.3869998,160.606765 C67.0026828,165.788584 67.0026828,174.211416 61.3938649,179.393235 Z" id="icCommentHomeStream"></path>
        </g>
    </g>
</svg>