<?xml version="1.0" encoding="UTF-8"?>
<svg width="35px" height="36px" viewBox="0 0 35 36" version="1.1" xmlns="http://www.w3.org/2000/svg" xmlns:xlink="http://www.w3.org/1999/xlink">
    <!-- Generator: Sketch 52.4 (67378) - http://www.bohemiancoding.com/sketch -->
    <title>icDateFinderHome</title>
    <desc>Created with Sketch.</desc>
    <g id="Page-1" stroke="none" stroke-width="1" fill="none" fill-rule="evenodd">
        <g id="Artboard" transform="translate(-44.000000, -22.000000)">
            <g id="icDateFinderHome" transform="translate(44.000000, 23.000000)">
                <g id="Group-Copy" transform="translate(5.073739, 0.000000)"></g>
                <rect id="Rectangle" stroke="#FFFFFF" fill-rule="nonzero" x="0.5" y="3.2425139" width="33.2477376" height="30.742059" rx="2"></rect>
                <path d="M0.634217362,9.5226177 L33.6135202,9.5226177 L0.634217362,9.5226177 Z M6.97639098,1.77635684e-15 C8.02719672,1.58332696e-15 8.87904307,0.851846355 8.87904307,1.90265209 L8.87904307,4.44575971 C8.87904307,5.49656544 8.02719672,6.3484118 6.97639098,6.3484118 C5.92558525,6.3484118 5.0737389,5.49656544 5.0737389,4.44575971 L5.0737389,1.90265209 C5.0737389,0.851846355 5.92558525,1.96938672e-15 6.97639098,1.77635684e-15 Z M17.1238688,1.77635684e-15 C18.1746745,1.58332696e-15 19.0265209,0.851846355 19.0265209,1.90265209 L19.0265209,4.44575971 C19.0265209,5.49656544 18.1746745,6.3484118 17.1238688,6.3484118 C16.073063,6.3484118 15.2212167,5.49656544 15.2212167,4.44575971 L15.2212167,1.90265209 C15.2212167,0.851846355 16.073063,1.96938672e-15 17.1238688,1.77635684e-15 Z M27.2713466,1.77635684e-15 C28.3221523,1.58332696e-15 29.1739987,0.851846355 29.1739987,1.90265209 L29.1739987,4.44575971 C29.1739987,5.49656544 28.3221523,6.3484118 27.2713466,6.3484118 C26.2205408,6.3484118 25.3686945,5.49656544 25.3686945,4.44575971 L25.3686945,1.90265209 C25.3686945,0.851846355 26.2205408,1.96938672e-15 27.2713466,1.77635684e-15 Z" id="Combined-Shape" stroke="#FFFFFF" stroke-linecap="square" fill-rule="nonzero"></path>
                <path d="M23.16679,15.2554412 C22.1703846,14.2605909 20.8455519,13.7125695 19.4361791,13.7125695 C18.3609344,13.7125695 17.334495,14.0316934 16.4658731,14.624828 C15.5971121,14.0315546 14.5708117,13.7125695 13.495567,13.7125695 C12.0863333,13.7125695 10.7613615,14.2605909 9.7649561,15.2553024 C8.76827257,16.250014 8.21945701,17.5725945 8.21945701,18.9797102 C8.21945701,20.3865483 8.76827257,21.7094064 9.7649561,22.7042568 L15.7055682,28.6343534 C15.915528,28.8439563 16.1908396,28.9487578 16.4660121,28.9487578 C16.7411846,28.9487578 17.0164962,28.8439563 17.2265951,28.6342146 L23.16679,22.7039791 C25.2232841,20.6501482 25.223145,17.3087169 23.16679,15.2554412 Z" id="Shape" fill="#FFFFFF" fill-rule="nonzero"></path>
            </g>
        </g>
    </g>
</svg>