<?xml version="1.0" encoding="UTF-8"?>
<svg width="35px" height="27px" viewBox="0 0 35 27" version="1.1" xmlns="http://www.w3.org/2000/svg" xmlns:xlink="http://www.w3.org/1999/xlink">
    <!-- Generator: Sketch 52.4 (67378) - http://www.bohemiancoding.com/sketch -->
    <title>icLikesHomeStream</title>
    <desc>Created with Sketch.</desc>
    <g id="Page-1" stroke="none" stroke-width="1" fill="none" fill-rule="evenodd">
        <g id="Artboard" transform="translate(-33.000000, -194.000000)" fill-rule="nonzero" stroke="#333333" stroke-width="1.7">
            <path d="M50.8811023,197.903704 C51.7070455,197.035185 52.6912776,196.308333 53.783065,195.800926 C54.875867,195.290741 56.0772389,195 57.3374619,195 C58.5976848,195 59.7990568,195.233333 60.8918588,195.65463 C61.9846608,196.076852 62.9678782,196.687037 63.7938215,197.440741 C64.61875,198.194444 65.2894484,199.092593 65.7511242,200.089815 C66.2148295,201.086111 66.4695122,202.183333 66.4695122,203.333333 C66.4695122,204.483333 66.2138148,205.580556 65.7511242,206.576852 C65.2894484,207.574074 64.6207793,208.472222 63.7938215,209.225926 C62.9688929,209.97963 51.3275581,219.577778 50.2347561,220 C49.1419541,219.577778 37.5006193,209.97963 36.6746761,209.225926 C35.8487329,208.472222 35.1800638,207.574074 34.7173733,206.576852 C34.2556974,205.580556 34,204.483333 34,203.333333 C34,202.183333 34.2556974,201.086111 34.7173733,200.089815 C35.1800638,199.092593 35.8477182,198.194444 36.6746761,197.440741 C37.5006193,196.687037 38.4848514,196.076852 39.5776534,195.65463 C40.6694407,195.233333 41.8708127,195 43.1320503,195 C44.3932879,195 45.5946599,195.290741 46.6864472,195.799074 C47.7792492,196.308333 48.6193794,196.812357 49.4463373,197.680875 C50.2722805,198.550319 50.0541444,198.773148 50.8811023,197.903704 Z" id="icLikesHomeStream"></path>
        </g>
    </g>
</svg>