<?xml version="1.0" encoding="UTF-8"?>
<svg width="21px" height="25px" viewBox="0 0 21 25" version="1.1" xmlns="http://www.w3.org/2000/svg" xmlns:xlink="http://www.w3.org/1999/xlink">
    <!-- Generator: Sketch 52.2 (67145) - http://www.bohemiancoding.com/sketch -->
    <title>icNotifcationOutLine</title>
    <desc>Created with Sketch.</desc>
    <g id="Page-1" stroke="none" stroke-width="1" fill="none" fill-rule="evenodd">
        <g id="FOR-YOU-_Complete" transform="translate(-15.000000, -41.000000)" fill="#333333" fill-rule="nonzero">
            <g id="Bell" transform="translate(15.000000, 41.000000)">
                <path d="M20.8720042,20.5868182 C18.8476635,18.4818182 17.8215922,15.9904545 17.8215922,13.1818182 L17.8215922,9.09363636 C17.8402717,5.97681818 15.8372171,3.90954545 14.1160931,3.08636364 C13.6230402,2.85045455 13.114783,2.66863636 12.598272,2.53363636 L12.598272,2.27272727 C12.598272,1.01954545 11.6238952,0 10.4262327,0 C9.22857026,0 8.25419343,1.01954545 8.25419343,2.27272727 L8.25419343,2.57318182 C7.78894261,2.70454545 7.33151113,2.87590909 6.8875463,3.09045455 C4.98527427,4.00772727 3.058241,6.21863636 3.04086468,9.09090909 L3.04086468,13.1818182 C3.04086468,16.0854545 2.06084055,18.5768182 0.128159974,20.5868182 C0.0130418908,20.7068182 -0.0286612638,20.8836364 0.0199924166,21.0459091 C0.0686460971,21.2081818 0.200271679,21.3281818 0.36056818,21.3572727 L4.48353319,22.1022727 C5.25156629,22.2409091 5.95878229,22.3545455 6.63168007,22.4481818 C7.39015619,24.0027273 8.87887193,25 10.505295,25 C12.1321524,25 13.6213026,24.0018182 14.3789099,22.4463636 C15.0492012,22.3531818 15.7529419,22.24 16.5166309,22.1018182 L20.6391616,21.3568182 C20.7994581,21.3281818 20.9306492,21.2077273 20.9797373,21.0454545 C21.0288254,20.8836364 20.9871222,20.7068182 20.8720042,20.5868182 Z M9.12257474,2.27272727 C9.12257474,1.52090909 9.70728772,0.909090909 10.4257983,0.909090909 C11.1443089,0.909090909 11.7290219,1.52090909 11.7290219,2.27272727 L11.7290219,2.35545455 C10.863247,2.22545455 9.98487435,2.23090909 9.12257474,2.37681818 L9.12257474,2.27272727 Z M10.505295,24.0909091 C9.40537426,24.0909091 8.37756526,23.5190909 7.71769972,22.5840909 C8.68860129,22.6886364 9.59477609,22.7413636 10.5005165,22.7413636 C11.4097321,22.7413636 12.3189478,22.6886364 13.293759,22.5827273 C12.6334591,23.5186364 11.6052157,24.0909091 10.505295,24.0909091 Z M16.3689323,21.2059091 C15.5353036,21.3563636 14.7711802,21.4786364 14.0491943,21.575 C14.0483255,21.575 14.0474567,21.575 14.0465878,21.575 C13.7286013,21.6172727 13.4193029,21.6540909 13.1165206,21.6859091 C13.1134798,21.6863636 13.1100045,21.6863636 13.1069636,21.6868182 C12.8302458,21.7159091 12.5596097,21.7390909 12.2920145,21.7595455 C12.2411888,21.7636364 12.1907975,21.7668182 12.1399717,21.7704545 C11.9079979,21.7863636 11.6786306,21.7990909 11.4505665,21.8081818 C11.4036504,21.81 11.3567344,21.8127273 11.3098183,21.8140909 C10.7694149,21.8331818 10.2363965,21.8331818 9.69642753,21.8145455 C9.64864266,21.8127273 9.59998898,21.8104545 9.55220412,21.8081818 C9.32718084,21.7990909 9.10041994,21.7868182 8.871487,21.7709091 C8.81762042,21.7672727 8.76375385,21.7636364 8.70945287,21.7595455 C8.44880815,21.74 8.18512258,21.7168182 7.9153553,21.6890909 C7.90579832,21.6881818 7.89667576,21.6872727 7.88755319,21.6863636 C7.58694295,21.655 7.27981659,21.6181818 6.96400208,21.5763636 C6.96269886,21.5763636 6.96139563,21.5763636 6.96009241,21.5763636 C6.2355001,21.4804545 5.46877022,21.3572727 4.63123186,21.2063636 L1.30323324,20.6045455 C3.03347975,18.5345455 3.90968041,16.0418182 3.90968041,13.1818182 L3.90968041,9.09363636 C3.92445027,6.62318182 5.59865817,4.71318182 7.25071127,3.91590909 C7.74202656,3.67909091 8.25158698,3.50227273 8.76983556,3.37818182 C8.77417964,3.37727273 8.77895812,3.37772727 8.7833022,3.37681818 C9.85368317,3.125 10.993135,3.11363636 12.0761138,3.34590909 C12.0817611,3.34727273 12.0874084,3.34454545 12.0930557,3.34545455 C12.6595235,3.46909091 13.2173032,3.65636364 13.7546658,3.91318182 C15.3571964,4.68 16.9675463,6.57727273 16.952342,9.09136364 L16.952342,13.1822727 C16.952342,15.9245455 17.8971791,18.4745455 19.6947589,20.6054545 L16.3689323,21.2059091 Z" id="icNotifcationOutLine"></path>
            </g>
        </g>
    </g>
</svg>