<?xml version="1.0" encoding="UTF-8"?>
<svg width="29px" height="26px" viewBox="0 0 29 26" version="1.1" xmlns="http://www.w3.org/2000/svg" xmlns:xlink="http://www.w3.org/1999/xlink">
    <!-- Generator: Sketch 53.2 (72643) - https://sketchapp.com -->
    <title>icUnfriend</title>
    <desc>Created with Sketch.</desc>
    <defs>
        <path d="M10.219884,14.7477273 C7.09076222,14.7477273 4.56449876,12.2277273 4.5932063,9.16363636 L4.5932063,5.61272727 C4.5932063,2.52 7.11946976,3.19744231e-14 10.219884,3.19744231e-14 C13.3202983,3.19744231e-14 15.8465617,2.52 15.8465617,5.61272727 L15.8465617,9.135 C15.8465617,12.2277273 13.3202983,14.7477273 10.219884,14.7477273 Z M5.54103328,5.43915048 L5.54103328,9.30577717 C5.54103328,11.6949124 7.79930167,13.6753797 10.1943751,13.6753797 C12.5894485,13.6753797 14.9963895,11.6949124 14.9963895,9.30577717 L14.9963895,5.40771449 C14.9963895,3.01857929 12.5894485,1.10098394 10.1943751,1.10098394 C7.79930167,1.10098394 5.54103328,3.05001528 5.54103328,5.43915048 Z M20.2962303,24.2836364 C20.2962303,24.7418182 19.9230323,25.1140909 19.4924192,25.1140909 L0.832518641,25.1140909 C0.373198012,25.1140909 -2.13162821e-14,24.7418182 -2.13162821e-14,24.2836364 L-2.13162821e-14,22.365 C-2.13162821e-14,20.7613636 0.803811102,19.3009091 2.18177299,18.4418182 L6.11470588,16.0077273 C6.86110191,15.5209091 7.72232809,15.2918182 8.58355427,15.2918182 L11.5978459,15.2918182 C12.4590721,15.2918182 13.2915907,15.5209091 14.0379867,15.9790909 L18.0857498,18.4418182 C19.4350041,19.2722727 20.2962303,20.79 20.2962303,22.3936364 L20.2962303,24.2836364 Z M1.14536908,24.1486404 L19.2027461,24.0361858 L19.2027461,22.5117469 C19.2027461,21.4422186 18.7482009,20.0727025 17.6218227,19.4101058 L13.4524752,16.8156783 C12.9316988,16.5100988 12.2387366,16.3568222 11.6566925,16.3568222 L8.44013272,16.3568222 C7.85808857,16.3568222 7.25775485,16.5100988 6.73697851,16.8156783 L2.67551386,19.4101058 C1.72586289,19.9907068 1.14536908,20.8965598 1.14536908,21.996646 L1.14536908,24.1486404 Z" id="path-1"></path>
    </defs>
    <g id="Page-1" stroke="none" stroke-width="1" fill="none" fill-rule="evenodd">
        <g id="Friends-Options" transform="translate(-319.000000, -245.000000)">
            <g id="icUnfriend" transform="translate(319.086123, 245.000000)">
                <mask id="mask-2" fill="white">
                    <use xlink:href="#path-1"></use>
                </mask>
                <use id="Mask" fill="#FFFFFF" fill-rule="nonzero" xlink:href="#path-1"></use>
                <path d="M24.0590946,5.72001709 L23.1938646,4.8548544 L20.5982428,2.25919542 C20.3593159,2.02026819 19.9719739,2.02026819 19.733047,2.25919542 C19.4941542,2.49812266 19.4941542,2.88549924 19.733047,3.1243923 L22.3286687,5.71998291 L23.1938646,6.58517978 L25.7894863,9.18080458 C26.0283791,9.41973181 26.4157552,9.41973181 26.6546822,9.18080458 C26.8936091,8.94187734 26.8936091,8.55453494 26.6546822,8.3156077 L24.0590946,5.72001709 Z" id="Shape" fill="#FFFFFF" fill-rule="nonzero" transform="translate(23.193877, 5.720000) rotate(-45.000000) translate(-23.193877, -5.720000) "></path>
            </g>
        </g>
    </g>
</svg>