<?xml version="1.0" encoding="UTF-8"?>
<svg width="15px" height="15px" viewBox="0 0 15 15" version="1.1" xmlns="http://www.w3.org/2000/svg" xmlns:xlink="http://www.w3.org/1999/xlink">
    <!-- Generator: Sketch 52.4 (67378) - http://www.bohemiancoding.com/sketch -->
    <title>icFooterFavourite</title>
    <desc>Created with Sketch.</desc>
    <defs>
        <path d="M130.657038,17.8049 C130.951938,17.5175 131.056038,17.0957 130.928838,16.7036 C130.801338,16.3115 130.469238,16.0316 130.061238,15.9722 L126.433638,15.4451 C126.279138,15.4226 126.145638,15.3257 126.076638,15.1856 L124.454838,11.8988 C124.272738,11.5295 123.903138,11.3 123.491238,11.3 C123.079638,11.3 122.710038,11.5295 122.527938,11.8988 L120.905838,15.1859 C120.836838,15.326 120.703038,15.4229 120.548538,15.4454 L116.920938,15.9725 C116.513238,16.0316 116.180838,16.3118 116.053338,16.7039 C115.926138,17.096 116.030238,17.5178 116.325138,17.8052 L118.949838,20.3636 C119.061738,20.4728 119.113038,20.63 119.086638,20.7836 L118.467438,24.3962 C118.412538,24.7142 118.495938,25.0235 118.701738,25.2674 C119.021538,25.6475 119.579838,25.7633 120.026238,25.5287 L123.270438,23.8229 C123.406038,23.7518 123.576738,23.7524 123.712038,23.8229 L126.956538,25.5287 C127.114338,25.6118 127.282638,25.6538 127.456338,25.6538 C127.773438,25.6538 128.074038,25.5128 128.280738,25.2674 C128.486838,25.0235 128.569938,24.7136 128.515038,24.3962 L127.895538,20.7836 C127.869138,20.6297 127.920438,20.4728 128.032338,20.3636 L130.657038,17.8049 Z" id="path-1"></path>
    </defs>
    <g id="Page-1" stroke="none" stroke-width="1" fill="none" fill-rule="evenodd">
        <g id="Views-Notifications" transform="translate(-298.000000, -580.000000)">
            <g id="Group-12" transform="translate(182.000000, 569.000000)">
                <mask id="mask-2" fill="white">
                    <use xlink:href="#path-1"></use>
                </mask>
                <use id="icFooterFavourite" fill="#FFFFFF" fill-rule="nonzero" xlink:href="#path-1"></use>
            </g>
        </g>
    </g>
</svg>