<?xml version="1.0" encoding="UTF-8"?>
<svg width="17px" height="16px" viewBox="0 0 17 16" version="1.1" xmlns="http://www.w3.org/2000/svg" xmlns:xlink="http://www.w3.org/1999/xlink">
    <!-- Generator: Sketch 50.2 (55047) - http://www.bohemiancoding.com/sketch -->
    <title>airplane</title>
    <desc>Created with Sketch.</desc>
    <defs></defs>
    <g id="RHP-Search--Desktop-v2" stroke="none" stroke-width="1" fill="none" fill-rule="evenodd">
        <g id="Search" transform="translate(-177.000000, -1255.000000)" fill="#000000" fill-rule="nonzero">
            <g id="Travel-destinations" transform="translate(123.000000, 1236.000000)">
                <path d="M70.5457451,19.2113048 C70.2649664,19.042261 69.9490904,18.9746434 69.5630197,19.0084522 C68.8961703,19.1098785 68.334613,19.3465399 67.808153,19.7184363 C67.3518876,20.056524 66.8254276,20.4622293 66.2287729,20.935552 C65.9479942,21.1722134 65.6672155,21.4088748 65.3864369,21.6455362 C65.2109502,21.81458 65.0354635,21.9498151 64.8599769,22.118859 C64.6844902,22.254094 64.5441008,22.3217116 64.3335168,22.2879028 C64.2282248,22.254094 64.0878355,22.2202853 63.9474462,22.1864765 L57.3842446,19.8198627 C57.1736606,19.7522451 56.9630766,19.6846276 56.7173952,19.61701 C56.2260325,19.481775 55.8750592,19.61701 55.6644752,19.7860539 C55.2784045,20.056524 54.9625285,20.3946117 54.7519445,20.7665082 C54.5062631,21.1384046 54.5764578,21.5441099 54.9274312,21.8483888 C55.0678205,21.9836239 55.2082098,22.0850502 55.3135018,22.1526677 C56.5068112,22.9640782 57.7352179,23.7416799 58.9285273,24.5530903 C59.3847927,24.8573693 59.8059607,25.1278394 60.1218367,25.4997359 C60.1920314,25.6011622 60.262226,25.6687797 60.3324207,25.770206 L58.0510939,27.8663497 C57.8054126,28.1030111 57.5597313,28.3058637 57.3140499,28.5425251 C57.2789526,28.5425251 57.2438552,28.5087163 57.2087579,28.5087163 L56.8226872,28.3396725 C56.5068112,28.2044374 56.2260325,28.0353936 55.9101565,27.9001585 C55.5240858,27.7311146 55.1029178,27.7649234 54.7870418,28.0353936 C54.6115551,28.1706286 54.4360685,28.3396725 54.2605818,28.5087163 C53.9447058,28.8129952 53.9096085,29.1848917 54.1903871,29.5229794 C54.2605818,29.6244057 54.3307765,29.6920232 54.4009711,29.7596408 L55.0678205,30.5710512 C55.8399619,31.5515055 56.6472006,32.5319599 57.4544393,33.4786054 C57.5597313,33.6138405 57.6650233,33.7152668 57.8054126,33.7828843 C57.9458019,33.8505018 58.2265806,34.0195457 58.577554,33.9181194 C58.998722,33.7828843 59.314598,33.5124142 59.4549873,33.1067089 C59.5953767,32.7686212 59.630474,32.3967248 59.4900847,31.9910195 L59.41989,31.6867406 C59.3496953,31.4162705 59.2795007,31.1458003 59.209306,30.8753302 C60.156934,30.165346 61.1045621,29.4891706 62.0170927,28.7791865 L62.4733581,28.4410988 L62.5786501,28.6101426 C62.8243314,28.9820391 63.0349155,29.3539356 63.1753048,29.7596408 L64.7897822,33.7490755 C64.8950742,33.9857369 64.9652689,34.2223983 65.0705609,34.4252509 C65.2460475,34.7971474 65.5268262,35 65.8777996,35 C66.0181889,35 66.1585782,34.9661912 66.2989676,34.8985737 C66.4042596,34.8647649 66.5095516,34.8309562 66.5797462,34.7633386 C67.1413036,34.4928685 67.4922769,34.120972 67.6326663,33.6138405 C67.7379583,33.2081352 67.702861,32.8362388 67.6677636,32.5657686 L66.8254276,26.649234 C66.7552329,26.1759113 66.6850383,25.6687797 66.6148436,25.1954569 C66.5797462,24.9587956 66.6499409,24.8235605 66.8254276,24.6883254 L67.5624716,24.0797676 C68.1591263,23.6064448 68.7206837,23.133122 69.3173383,22.6597993 C69.808701,22.254094 70.124577,21.8821976 70.4053557,21.4764923 C70.6159397,21.1722134 70.8265237,20.800317 70.9318157,20.3946117 C71.1073024,19.9550977 70.9318157,19.481775 70.5457451,19.2113048 Z M70.2649664,20.2593767 C70.1596744,20.5974643 69.9841877,20.9017433 69.808701,21.1722134 C69.598117,21.5103011 69.282241,21.8483888 68.861073,22.1864765 C68.2995156,22.6597993 67.702861,23.133122 67.1062063,23.6064448 L66.4042596,24.1811939 C66.0181889,24.451664 65.8427022,24.8573693 65.9128969,25.330692 C65.9830916,25.8040148 66.0532862,26.2773376 66.1234809,26.7844691 L66.9658169,32.7010037 C67.0009143,33.0390914 67.0009143,33.2757528 66.9307196,33.4786054 C66.8254276,33.7828843 66.6148436,34.0195457 66.2638702,34.1885895 C66.1936756,34.2223983 66.1234809,34.2562071 66.0181889,34.2900158 C65.8076049,34.3576334 65.7374102,34.3238246 65.6672155,34.1547808 C65.5619235,33.9519282 65.4917289,33.7152668 65.3864369,33.4786054 L63.8421541,29.4891706 C63.6666675,29.0496566 63.4209861,28.6439514 63.1753048,28.2382462 L62.9647208,27.9001585 L62.6488448,27.4606445 L61.5608274,28.2382462 C60.578102,28.9482303 59.5953767,29.6920232 58.6477486,30.4020074 C58.4020673,30.5710512 58.4371646,30.7739039 58.472262,30.9091389 C58.5424566,31.2134179 58.6477486,31.5176968 58.7179433,31.8219757 L58.788138,32.1262546 C58.8583326,32.3967248 58.8583326,32.6333862 58.7530406,32.8362388 C58.6477486,33.0390914 58.5073593,33.1743265 58.2616779,33.241944 C58.2616779,33.241944 58.1914833,33.241944 58.0861913,33.1743265 C58.0159966,33.1405177 57.9458019,33.0729002 57.9107046,33.0052826 C57.1034659,32.0248283 56.3313245,31.0781828 55.5591832,30.0977285 L54.8923338,29.286318 C54.8221392,29.2187005 54.7870418,29.1510829 54.7168472,29.0496566 C54.6817498,29.0158479 54.6817498,28.9820391 54.6817498,28.9820391 C54.6817498,28.9820391 54.7168472,28.9482303 54.7519445,28.9144216 C54.8923338,28.7791865 55.0678205,28.6101426 55.2082098,28.5087163 C55.3135018,28.40729 55.4538912,28.40729 55.5942805,28.4749076 C55.9101565,28.6101426 56.1909352,28.7453777 56.5068112,28.9144216 L56.8928819,29.0834654 C56.9630766,29.1172742 57.0332712,29.1510829 57.1034659,29.1848917 C57.2789526,29.286318 57.4895366,29.2525092 57.6650233,29.1172742 C57.9458019,28.846804 58.2265806,28.6101426 58.5073593,28.3396725 L60.9290754,26.1421025 L61.2098541,25.8716323 L61.0343674,25.6349709 C60.99927,25.5673534 60.9641727,25.5335446 60.9290754,25.4659271 C60.8237834,25.330692 60.7535887,25.1954569 60.6482967,25.0940306 C60.262226,24.6545166 59.8059607,24.3164289 59.314598,24.01215 C58.1212886,23.2345483 56.8928819,22.4231379 55.6995725,21.6117274 C55.5942805,21.5441099 55.4889885,21.4764923 55.3836965,21.375066 C55.2784045,21.2736397 55.2784045,21.239831 55.3485992,21.1722134 C55.5240858,20.8679345 55.8048645,20.5974643 56.1207405,20.360803 C56.1909352,20.2931854 56.2962272,20.2593767 56.5419086,20.3269942 C56.7875899,20.3946117 56.9981739,20.4622293 57.1736606,20.5298468 L63.7368621,22.8964606 C63.9123488,22.9640782 64.0878355,22.997887 64.2282248,23.0316957 C64.6142955,23.0993133 65.0003662,22.997887 65.3162422,22.7274168 C65.4917289,22.558373 65.6672155,22.4231379 65.8427022,22.254094 C66.1234809,22.0174326 66.4042596,21.7807713 66.6850383,21.5441099 C67.2816929,21.0707871 67.7730556,20.6650819 68.229321,20.3269942 C68.650489,20.0227153 69.1418517,19.8198627 69.6683117,19.7522451 C69.8437984,19.7184363 69.9841877,19.7522451 70.124577,19.8198627 C70.2649664,19.8536714 70.335161,20.056524 70.2649664,20.2593767 Z" id="airplane"></path>
            </g>
        </g>
    </g>
</svg>