<?xml version="1.0" encoding="UTF-8"?>
<svg width="21px" height="21px" viewBox="0 0 21 21" version="1.1" xmlns="http://www.w3.org/2000/svg" xmlns:xlink="http://www.w3.org/1999/xlink">
    <!-- Generator: Sketch 49.3 (51167) - http://www.bohemiancoding.com/sketch -->
    <title>Icons/CalendarFill</title>
    <desc>Created with Sketch.</desc>
    <defs>
        <path d="M18.4992,0 L16.5665625,0 L16.5665625,2.76139747 C16.5665625,3.66454684 15.8746875,4.38683544 15.006,4.38683544 L14.514,4.38683544 C13.6453125,4.38683544 12.9534375,3.66493165 12.9534375,2.76139747 L12.9534375,0 L7.0340625,0 L7.0340625,2.76139747 C7.0340625,3.66454684 6.32911875,4.38683544 5.4612,4.38683544 L4.9692,4.38683544 C4.10128125,4.38683544 3.3825,3.66493165 3.3825,2.76139747 L3.3825,0 L1.1808,0 C0.53120625,0 0,0.567594937 0,1.24332152 L0,17.0113013 C0,17.6870278 0.53120625,18.24 1.1808,18.24 L18.4992,18.24 C19.1487937,18.24 19.68,17.6870278 19.68,17.0113013 L19.68,1.24332152 C19.68,0.567594937 19.1487937,0 18.4992,0 Z M18.0271875,15.6810127 C18.0257103,16.1585795 17.6393705,16.5453566 17.1623438,16.5468354 L2.51765625,16.5468354 C2.04062945,16.5453566 1.6542897,16.1585795 1.6528125,15.6810127 L1.6528125,6.83037975 C1.6542897,6.35281294 2.04062945,5.96603583 2.51765625,5.96455696 L17.1623438,5.96455696 C17.6393705,5.96603583 18.0257103,6.35281294 18.0271875,6.83037975 L18.0271875,15.6810127 Z" id="path-1"></path>
        <path d="M0.757586441,5.28 C0.344298305,5.28 0,4.84656716 0,4.32526567 L0,0.943701493 C0,0.42318806 0.344298305,0 0.757586441,0 L1.17412881,0 C1.58741695,0 1.92,0.42318806 1.92,0.943701493 L1.92,4.32487164 C1.92,4.84656716 1.58741695,5.28 1.17412881,5.28 L0.757586441,5.28 Z M10.1460327,5.28 C9.72561887,5.28 9.39789474,4.84656716 9.39789474,4.32487164 L9.39789474,0.943307463 C9.39789474,0.42318806 9.72561887,0 10.1460327,0 L10.5697568,0 C10.9901706,0 11.3178947,0.42318806 11.3178947,0.943307463 L11.3178947,4.32487164 C11.3178947,4.84656716 10.9901706,5.28 10.5697568,5.28 L10.1460327,5.28 Z" id="path-3"></path>
        <path d="M5.76,11.04 L9.12,11.04 L9.12,14.04 L5.76,14.04 L5.76,11.04 Z M5.76,15.24 L9.12,15.24 L9.12,18.24 L5.76,18.24 L5.76,15.24 Z M10.6472727,11.04 L14.0072727,11.04 L14.0072727,14.04 L10.6472727,14.04 L10.6472727,11.04 Z M10.6472727,15.24 L14.0072727,15.24 L14.0072727,18.24 L10.6472727,18.24 L10.6472727,15.24 Z M15.84,11.04 L19.2,11.04 L19.2,14.04 L15.84,14.04 L15.84,11.04 Z M15.84,15.24 L19.2,15.24 L19.2,18.24 L15.84,18.24 L15.84,15.24 Z" id="path-5"></path>
    </defs>
    <g id="RHP-Search--Desktop-v2" stroke="none" stroke-width="1" fill="none" fill-rule="evenodd">
        <g id="Profile-Friend-Request" transform="translate(-914.000000, -226.000000)">
            <g id="Icons/CalendarFill" transform="translate(912.000000, 225.000000)">
                <g id="colour/mid-grey-copy-2" transform="translate(2.400000, 3.360000)">
                    <mask id="mask-2" fill="white">
                        <use xlink:href="#path-1"></use>
                    </mask>
                    <use id="Mask" fill="#000000" fill-rule="nonzero" xlink:href="#path-1"></use>
                    <g id="colour/mid-grey" mask="url(#mask-2)" fill="#A5A5A5">
                        <g transform="translate(-2.400000, -3.360000)">
                            <rect x="0" y="0" width="24" height="24"></rect>
                        </g>
                    </g>
                </g>
                <g id="colour/mid-grey" transform="translate(6.720000, 1.920000)">
                    <mask id="mask-4" fill="white">
                        <use xlink:href="#path-3"></use>
                    </mask>
                    <use id="Mask" fill="#000000" fill-rule="nonzero" xlink:href="#path-3"></use>
                    <g mask="url(#mask-4)" fill="#A5A5A5">
                        <g transform="translate(-6.720000, -1.920000)">
                            <rect x="0" y="0" width="24" height="24"></rect>
                        </g>
                    </g>
                </g>
                <g id="colour/mid-grey">
                    <mask id="mask-6" fill="white">
                        <use xlink:href="#path-5"></use>
                    </mask>
                    <use id="Mask" fill="#000000" fill-rule="nonzero" xlink:href="#path-5"></use>
                    <g mask="url(#mask-6)" fill="#A5A5A5">
                        <rect x="0" y="0" width="24" height="24"></rect>
                    </g>
                </g>
            </g>
        </g>
    </g>
</svg>