<?xml version="1.0" encoding="UTF-8"?>
<svg width="21px" height="15px" viewBox="0 0 21 15" version="1.1" xmlns="http://www.w3.org/2000/svg" xmlns:xlink="http://www.w3.org/1999/xlink">
    <!-- Generator: Sketch 52.1 (67048) - http://www.bohemiancoding.com/sketch -->
    <title>friends</title>
    <desc>Created with Sketch.</desc>
    <g id="RHP-Search--Desktop-v2" stroke="none" stroke-width="1" fill="none" fill-rule="evenodd">
        <g id="PopUp-Profile" transform="translate(-202.000000, -931.000000)" fill="#646464" fill-rule="nonzero">
            <path d="M212.499965,938.091281 C214.253115,938.091281 215.616652,936.3739 215.616652,934.5961 L215.616652,934.039139 C215.616652,932.261405 214.253115,931 212.499965,931 C210.746746,931 209.383208,932.261339 209.383208,934.039139 L209.383208,934.5961 C209.383208,936.3739 210.746746,938.091281 212.499965,938.091281 Z M206.255697,938.666248 C206.756976,938.666248 208.128754,938.05197 208.128754,936.777373 L208.128754,935.832902 C208.128754,934.558239 207.139185,933.94396 206.255697,933.94396 C205.401539,933.94396 204.38271,934.558239 204.38271,935.832902 L204.38271,936.777373 C204.38271,938.05197 205.781095,938.666248 206.255697,938.666248 Z M217.478256,941.027854 C217.477278,941.01862 217.474345,941.009847 217.473367,941.000679 C217.458702,940.889472 217.436215,940.780705 217.404999,940.674181 C217.404999,940.673191 217.404999,940.672334 217.404021,940.67141 C217.338585,940.444972 217.228175,940.226845 217.063224,940.011949 L217.063224,940.011026 C216.792681,939.657352 216.384563,939.296621 215.721475,938.94486 C215.370901,938.758921 215.216565,938.673702 214.999865,938.673702 C214.655157,938.673702 214.354376,938.926853 213.84765,939.36634 L213.846602,939.36634 L213.385688,939.766581 C213.369067,939.781422 212.872118,940.44451 212.500035,940.44451 C212.127952,940.44451 211.630933,939.781356 211.614312,939.766581 L211.153398,939.36634 L211.15242,939.36634 C210.645694,938.926853 210.344913,938.673702 210.000205,938.673702 C209.783435,938.673702 209.589991,938.758921 209.278595,938.94486 C208.63569,939.32815 208.207249,939.656891 207.937824,940.010037 L207.936776,940.010498 C207.935799,940.011422 207.935799,940.012873 207.934891,940.013664 C207.771755,940.226779 207.662393,940.443521 207.597027,940.668574 C207.596119,940.670421 207.595001,940.672729 207.594233,940.674972 C207.563855,940.780705 207.541368,940.888021 207.526772,940.998238 C207.525795,941.008462 207.522861,941.018092 207.521814,941.02825 C207.508126,941.145394 207.500374,941.264846 207.500374,941.388849 C207.500374,941.402635 207.500095,943.974123 207.500374,943.986128 C207.500374,944.825393 207.835305,945.166667 208.75029,945.166667 L216.24992,945.166667 C217.172796,945.166667 217.499835,944.843796 217.499835,943.986128 C217.500114,943.974123 217.499765,941.402635 217.499765,941.388849 C217.499695,941.264912 217.491874,941.14546 217.478256,941.027854 Z M218.755197,938.666248 C219.256407,938.666248 220.628324,938.05197 220.628324,936.777373 L220.628324,935.832902 C220.628324,934.558239 219.638756,933.94396 218.755197,933.94396 C217.90097,933.94396 216.88214,934.558239 216.88214,935.832902 L216.88214,936.777373 C216.88214,938.05197 218.280526,938.666248 218.755197,938.666248 Z M203.922285,939.944605 C202.759175,940.569965 202.500435,941.567005 202.500435,942.215385 C202.500435,942.225477 202.499457,943.386756 202.500435,943.395924 C202.500435,944.252735 202.805127,944.576529 203.75035,944.576529 L206.25025,944.576529 C206.25025,944.576529 206.25025,942.067834 206.25025,941.03478 L205.625292,940.44451 C204.96409,939.893882 204.406663,939.684528 203.922285,939.944605 Z M206.25025,941.03478 C206.271155,941.045993 206.25025,940.754453 206.25025,941.03478 Z M222.499565,942.215385 C222.499565,941.566939 222.240755,940.569899 221.077715,939.944605 C220.593337,939.684528 220.03591,939.893882 219.374708,940.444576 L218.74975,941.034846 C218.74975,942.067834 218.74975,944.576595 218.74975,944.576595 L221.24965,944.576595 C222.194873,944.576595 222.499565,944.252801 222.499565,943.39599 C222.500543,943.386756 222.499565,942.225543 222.499565,942.215385 Z M218.752841,941.03478 C218.752841,940.754453 218.732042,941.045993 218.752841,941.03478 Z" id="friends"></path>
        </g>
    </g>
</svg>