<?xml version="1.0" encoding="UTF-8"?>
<svg width="16px" height="16px" viewBox="0 0 16 16" version="1.1" xmlns="http://www.w3.org/2000/svg" xmlns:xlink="http://www.w3.org/1999/xlink">
    <!-- Generator: Sketch 52.1 (67048) - http://www.bohemiancoding.com/sketch -->
    <title>icChatProfileModal</title>
    <desc>Created with Sketch.</desc>
    <defs>
        <path d="M797.530636,502 C797.491347,502 797.451593,501.990349 797.415767,501.971113 C797.33719,501.929203 797.288246,501.847433 797.288246,501.759318 L797.288246,498.330536 C795.166002,497.23507 794,495.317081 794,492.913959 C794,489.200205 797.439007,486.4 802,486.4 C806.560993,486.4 810,489.200205 810,492.913959 C810,496.627184 806.560993,499.427389 802,499.427389 C801.850171,499.427389 801.703272,499.419258 801.555907,499.411524 L801.546185,499.411061 L797.66395,501.960007 C797.62373,501.986515 797.577183,502 797.530636,502 Z" id="path-1"></path>
    </defs>
    <g id="RHP-Search--Desktop-v2" stroke="none" stroke-width="1" fill="none" fill-rule="evenodd">
        <g id="PopUp-Profile" transform="translate(-794.000000, -486.000000)">
            <mask id="mask-2" fill="white">
                <use xlink:href="#path-1"></use>
            </mask>
            <use id="icChatProfileModal" fill="#FFFFFF" xlink:href="#path-1"></use>
        </g>
    </g>
</svg>