<?xml version="1.0" encoding="UTF-8"?>
<svg width="11px" height="11px" viewBox="0 0 11 11" version="1.1" xmlns="http://www.w3.org/2000/svg" xmlns:xlink="http://www.w3.org/1999/xlink">
    <!-- Generator: Sketch 50.2 (55047) - http://www.bohemiancoding.com/sketch -->
    <title>iconGrid</title>
    <desc>Created with Sketch.</desc>
    <defs>
        <path d="M9.22395833,10.0625 L6.70833333,10.0625 C6.24521956,10.0625 5.86979167,9.68707211 5.86979167,9.22395833 L5.86979167,6.70833333 C5.86979167,6.24521956 6.24521956,5.86979167 6.70833333,5.86979167 L9.22395833,5.86979167 C9.68707211,5.86979167 10.0625,6.24521956 10.0625,6.70833333 L10.0625,9.22395833 C10.0625,9.68707211 9.68707211,10.0625 9.22395833,10.0625 Z M9.22395833,4.19270833 L6.70833333,4.19270833 C6.24521956,4.19270833 5.86979167,3.81728044 5.86979167,3.35416667 L5.86979167,0.838541667 C5.86979167,0.375427892 6.24521956,0 6.70833333,0 L9.22395833,0 C9.68707211,0 10.0625,0.375427892 10.0625,0.838541667 L10.0625,3.35416667 C10.0625,3.81728044 9.68707211,4.19270833 9.22395833,4.19270833 Z M3.35416667,10.0625 L0.838541667,10.0625 C0.375427892,10.0625 0,9.68707211 0,9.22395833 L0,6.70833333 C0,6.24521956 0.375427892,5.86979167 0.838541667,5.86979167 L3.35416667,5.86979167 C3.81728044,5.86979167 4.19270833,6.24521956 4.19270833,6.70833333 L4.19270833,9.22395833 C4.19270833,9.68707211 3.81728044,10.0625 3.35416667,10.0625 Z M3.35416667,4.19270833 L0.838541667,4.19270833 C0.375427892,4.19270833 0,3.81728044 0,3.35416667 L0,0.838541667 C0,0.375427892 0.375427892,0 0.838541667,0 L3.35416667,0 C3.81728044,0 4.19270833,0.375427892 4.19270833,0.838541667 L4.19270833,3.35416667 C4.19270833,3.81728044 3.81728044,4.19270833 3.35416667,4.19270833 Z" id="path-1"></path>
    </defs>
    <g id="RHP-Search--Desktop-v2" stroke="none" stroke-width="1" fill="none" fill-rule="evenodd">
        <g id="Profile-Empty-state" transform="translate(-208.000000, -171.000000)">
            <g id="iconGrid" transform="translate(208.468750, 171.468750)">
                <mask id="mask-2" fill="white">
                    <use xlink:href="#path-1"></use>
                </mask>
                <use id="Mask" fill="#333333" xlink:href="#path-1"></use>
            </g>
        </g>
    </g>
</svg>