<?xml version="1.0" encoding="UTF-8"?>
<svg width="58px" height="58px" viewBox="0 0 58 58" version="1.1" xmlns="http://www.w3.org/2000/svg" xmlns:xlink="http://www.w3.org/1999/xlink">
    <!-- Generator: Sketch 50.2 (55047) - http://www.bohemiancoding.com/sketch -->
    <title>icSelectedAvatarDesktop</title>
    <desc>Created with Sketch.</desc>
    <defs>
        <circle id="path-1" cx="25" cy="25" r="25"></circle>
        <filter x="-13.0%" y="-11.0%" width="126.0%" height="126.0%" filterUnits="objectBoundingBox" id="filter-3">
            <feOffset dx="0" dy="1" in="SourceAlpha" result="shadowOffsetOuter1"></feOffset>
            <feGaussianBlur stdDeviation="2" in="shadowOffsetOuter1" result="shadowBlurOuter1"></feGaussianBlur>
            <feColorMatrix values="0 0 0 0 0   0 0 0 0 0   0 0 0 0 0  0 0 0 0.3 0" type="matrix" in="shadowBlurOuter1"></feColorMatrix>
        </filter>
        <path d="M18.0758301,14.4626175 C19.62827,14.4626175 21.2476159,15.5132233 22.4498102,16.7565388 L24.6046326,18.9887479 C24.718891,19.1081262 24.8778352,19.1757632 25.0441105,19.1757632 C25.2103858,19.1757632 25.36933,19.1081262 25.4835884,18.9887479 L27.8255762,16.2889163 C30.917142,13.4380114 34.6438969,14.2699108 37.0482553,16.7565388 C39.4525834,19.2431638 38.643127,23.2734628 36.2387989,25.7600908 C32.5047412,29.621921 28.7734048,33.4890113 25.0393775,37.3507818 L13.8399869,25.7507659 C11.437413,23.261209 10.8377544,18.7754875 13.2421127,16.2889163 C14.4442767,15.0456038 16.5233903,14.4626175 18.0758301,14.4626175 Z" id="path-4"></path>
    </defs>
    <g id="RHP-Search--Desktop-v2" stroke="none" stroke-width="1" fill="none" fill-rule="evenodd">
        <g id="icSelectedAvatarDesktop" transform="translate(4.000000, 3.000000)">
            <mask id="mask-2" fill="white">
                <use xlink:href="#path-1"></use>
            </mask>
            <g id="Mask">
                <use fill="black" fill-opacity="1" filter="url(#filter-3)" xlink:href="#path-1"></use>
                <use fill="#7BCB45" fill-rule="evenodd" xlink:href="#path-1"></use>
            </g>
            <mask id="mask-5" fill="white">
                <use xlink:href="#path-4"></use>
            </mask>
            <use id="Mask" fill="#FFFFFF" fill-rule="nonzero" xlink:href="#path-4"></use>
        </g>
    </g>
</svg>