<?xml version="1.0" encoding="UTF-8"?>
<svg width="20px" height="20px" viewBox="0 0 20 20" version="1.1" xmlns="http://www.w3.org/2000/svg" xmlns:xlink="http://www.w3.org/1999/xlink">
    <!-- Generator: Sketch 50.2 (55047) - http://www.bohemiancoding.com/sketch -->
    <title>Profile Icons/Photos Copy 2</title>
    <desc>Created with Sketch.</desc>
    <defs></defs>
    <g id="RHP-Search--Desktop-v2" stroke="none" stroke-width="1" fill="none" fill-rule="evenodd">
        <g id="Profile-5-Friend-Request" transform="translate(-1044.000000, -537.000000)">
            <g id="Profile-Icons/-Interests" transform="translate(1037.000000, 531.000000)">
                <g id="Profile-Icons/Interests" transform="translate(7.700000, 6.600000)">
                    <path d="M13.6543832,1.69776316 C15.5004854,1.69776316 17.0022368,3.19951464 17.0022368,5.04561678 C17.0022368,6.89171891 15.5004854,8.39347039 13.6543832,8.39347039 L12.2195888,8.39347039 L12.2195888,10.3065296 L13.6543832,10.3065296 C15.5004854,10.3065296 17.0022368,11.8082811 17.0022368,13.6543832 C17.0022368,15.5004854 15.5004854,17.0022368 13.6543832,17.0022368 C11.8082811,17.0022368 10.3065296,15.5004854 10.3065296,13.6543832 L10.3065296,12.2195888 L8.39347039,12.2195888 L8.39347039,13.6543832 C8.39347039,15.5004854 6.89171891,17.0022368 5.04561678,17.0022368 C3.19951464,17.0022368 1.69776316,15.5004854 1.69776316,13.6543832 C1.69776316,11.8082811 3.19951464,10.3065296 5.04561678,10.3065296 L6.48041118,10.3065296 L6.48041118,8.39347039 L5.04561678,8.39347039 C3.19951464,8.39347039 1.69776316,6.89171891 1.69776316,5.04561678 C1.69776316,3.19951464 3.19951464,1.69776316 5.04561678,1.69776316 C6.89171891,1.69776316 8.39347039,3.19951464 8.39347039,5.04561678 L8.39347039,6.48041118 L10.3065296,6.48041118 L10.3065296,5.04561678 C10.3065296,3.19951464 11.8082811,1.69776316 13.6543832,1.69776316 Z M11.8105263,6.88947368 L13.6938982,6.88947368 C14.7322639,6.88947368 15.5772701,6.04321191 15.5772701,5.00610178 C15.5772701,3.96648049 14.7322639,3.12272988 13.6938982,3.12272988 C12.6555325,3.12272988 11.8105263,3.96648049 11.8105263,5.00610178 L11.8105263,6.88947368 Z M6.88947368,6.88947368 L6.88947368,5.00610178 C6.88947368,3.96648049 6.04446749,3.12272988 5.00610178,3.12272988 C3.96773607,3.12272988 3.12272988,3.96648049 3.12272988,5.00610178 C3.12272988,6.04321191 3.96773607,6.88947368 5.00610178,6.88947368 L6.88947368,6.88947368 Z M15.5772701,13.6938982 C15.5772701,12.6542769 14.7322639,11.8105263 13.6938982,11.8105263 L11.8105263,11.8105263 L11.8105263,13.6938982 C11.8105263,14.7310083 12.6555325,15.5772701 13.6938982,15.5772701 C14.7322639,15.5772701 15.5772701,14.7310083 15.5772701,13.6938982 Z M6.88947368,13.6938982 L6.88947368,11.8105263 L5.00610178,11.8105263 C3.96773607,11.8105263 3.12272988,12.6542769 3.12272988,13.6938982 C3.12272988,14.7310083 3.96773607,15.5772701 5.00610178,15.5772701 C6.04446749,15.5772701 6.88947368,14.7310083 6.88947368,13.6938982 Z M13.5575,0 C11.821205,0 10.28126,0.86581 9.35,2.188835 C8.41874,0.86581 6.878795,0 5.1425,0 C2.306645,0 0,2.30758 0,5.1425 C0,6.878795 0.86581,8.41874 2.188835,9.35 C0.86581,10.28126 0,11.821205 0,13.5575 C0,16.39242 2.306645,18.7 5.1425,18.7 C6.878795,18.7 8.41874,17.83419 9.35,16.511165 C10.28126,17.83419 11.821205,18.7 13.5575,18.7 C16.393355,18.7 18.7,16.39242 18.7,13.5575 C18.7,11.821205 17.83419,10.28126 16.511165,9.35 C17.83419,8.41874 18.7,6.878795 18.7,5.1425 C18.7,2.30758 16.393355,0 13.5575,0 Z" id="Shape" fill="#333333" fill-rule="nonzero"></path>
                    <polygon id="Shape" fill="#030104" fill-rule="nonzero" points="11 7.7 7.7 7.7 7.7 11 11 11"></polygon>
                </g>
            </g>
        </g>
    </g>
</svg>