<?xml version="1.0" encoding="UTF-8"?>
<svg width="83px" height="66px" viewBox="0 0 83 66" version="1.1" xmlns="http://www.w3.org/2000/svg" xmlns:xlink="http://www.w3.org/1999/xlink">
    <!-- Generator: Sketch 55 (78076) - https://sketchapp.com -->
    <title>memberMatchDoubleEmpty</title>
    <desc>Created with Sketch.</desc>
    <defs>
        <path d="M49.1489362,7.30494677 C32.8489395,10.0044954 21.3613219,20.812515 21.3613219,35.2696926 C21.3613219,39.5345881 22.3613298,43.5752909 24.1898997,47.2297383 L12.8962377,54.6255581 C12.7546702,54.7186162 12.5908363,54.7659574 12.4270024,54.7659574 C12.2887162,54.7659574 12.1487894,54.732076 12.0226912,54.664545 C11.7461189,54.5174158 11.5738472,54.2303513 11.5738472,53.9210086 L11.5738472,41.8837949 C4.10405152,38.038013 5.89750471e-13,31.3046459 5.89750471e-13,22.8681533 C5.89750471e-13,9.83050723 12.104491,-6.39488462e-14 28.1581061,-6.39488462e-14 C36.6708008,-6.39488462e-14 44.0730705,2.76416744 49.1489362,7.30494677 Z M8.42553191,25.2765957 C9.97662951,25.2765957 11.2340426,24.0191827 11.2340426,22.4680851 C11.2340426,20.9169875 9.97662951,19.6595745 8.42553191,19.6595745 C6.87443432,19.6595745 5.61702128,20.9169875 5.61702128,22.4680851 C5.61702128,24.0191827 6.87443432,25.2765957 8.42553191,25.2765957 Z M19.6595745,25.2765957 C21.2106721,25.2765957 22.4680851,24.0191827 22.4680851,22.4680851 C22.4680851,20.9169875 21.2106721,19.6595745 19.6595745,19.6595745 C18.1084769,19.6595745 16.8510638,20.9169875 16.8510638,22.4680851 C16.8510638,24.0191827 18.1084769,25.2765957 19.6595745,25.2765957 Z M70.1464087,66 C69.9789143,66 69.8114199,65.9514449 69.6666894,65.8560007 L55.6968404,56.6781258 L55.6618559,56.6797919 C55.1315767,56.7076397 54.6029749,56.7369156 54.0638298,56.7369156 C37.6515336,56.7369156 25.2765957,46.6543441 25.2765957,33.2843035 C25.2765957,19.9123588 37.6515336,9.82978723 54.0638298,9.82978723 C70.4761259,9.82978723 82.8510638,19.9123588 82.8510638,33.2843035 C82.8510638,41.9371163 78.6553167,48.8431339 71.0186257,52.7875256 L71.0186257,65.1333858 C71.0186257,65.4506604 70.842505,65.7450855 70.5597533,65.8959873 C70.4308377,65.9652497 70.2877846,66 70.1464087,66 Z M40.0493617,37.9710638 C42.0037447,37.9710638 43.5880851,36.3867234 43.5880851,34.4323404 C43.5880851,32.4779575 42.0037447,30.893617 40.0493617,30.893617 C38.0949787,30.893617 36.5106383,32.4779575 36.5106383,34.4323404 C36.5106383,36.3867234 38.0949787,37.9710638 40.0493617,37.9710638 Z M54.5259574,37.9710638 C56.4803404,37.9710638 58.0646809,36.3867234 58.0646809,34.4323404 C58.0646809,32.4779575 56.4803404,30.893617 54.5259574,30.893617 C52.5715745,30.893617 50.987234,32.4779575 50.987234,34.4323404 C50.987234,36.3867234 52.5715745,37.9710638 54.5259574,37.9710638 Z M69.0025532,37.9710638 C70.9569362,37.9710638 72.5412766,36.3867234 72.5412766,34.4323404 C72.5412766,32.4779575 70.9569362,30.893617 69.0025532,30.893617 C67.0481702,30.893617 65.4638298,32.4779575 65.4638298,34.4323404 C65.4638298,36.3867234 67.0481702,37.9710638 69.0025532,37.9710638 Z" id="path-1"></path>
    </defs>
    <g id="RHP-Search--Desktop-v2" stroke="none" stroke-width="1" fill="none" fill-rule="evenodd">
        <g id="Profile-Friends" transform="translate(-1129.000000, -252.000000)">
            <g id="Group-4" transform="translate(1019.000000, 222.000000)">
                <g id="colour/dark-grey" transform="translate(110.000000, 30.000000)">
                    <mask id="mask-2" fill="white">
                        <use xlink:href="#path-1"></use>
                    </mask>
                    <use id="memberMatchDoubleEmpty" fill="#7BCB45" xlink:href="#path-1"></use>
                </g>
            </g>
        </g>
    </g>
</svg>