<?xml version="1.0" encoding="UTF-8"?>
<svg width="68px" height="66px" viewBox="0 0 68 66" version="1.1" xmlns="http://www.w3.org/2000/svg" xmlns:xlink="http://www.w3.org/1999/xlink">
    <!-- Generator: Sketch 55 (78076) - https://sketchapp.com -->
    <title>memberMatchEmpty</title>
    <desc>Created with Sketch.</desc>
    <defs>
        <path d="M51.9545203,65.0391937 C51.7605794,65.0391937 51.5666385,64.982972 51.3990558,64.8724577 L35.2234412,54.2454446 L35.1829328,54.2473738 C34.5689254,54.2796186 33.9568601,54.3135171 33.3325868,54.3135171 C14.3288755,54.3135171 3.51718654e-13,42.6389606 3.51718654e-13,27.1578609 C3.51718654e-13,11.6745565 14.3288755,1.38555833e-13 33.3325868,1.38555833e-13 C52.3362981,1.38555833e-13 66.6651736,11.6745565 66.6651736,27.1578609 C66.6651736,37.1769074 61.8069401,45.1733488 52.9644558,49.7405392 L52.9644558,64.0357457 C52.9644558,64.4031163 52.7605265,64.7440295 52.4331298,64.9187579 C52.2838591,64.9989566 52.1182186,65.0391937 51.9545203,65.0391937 Z M17.105308,32.5846361 C19.3682777,32.5846361 21.2027772,30.7501366 21.2027772,28.4871669 C21.2027772,26.2241971 19.3682777,24.3896976 17.105308,24.3896976 C14.8423382,24.3896976 13.0078387,26.2241971 13.0078387,28.4871669 C13.0078387,30.7501366 14.8423382,32.5846361 17.105308,32.5846361 Z M33.867682,32.5846361 C36.1306517,32.5846361 37.9651512,30.7501366 37.9651512,28.4871669 C37.9651512,26.2241971 36.1306517,24.3896976 33.867682,24.3896976 C31.6047122,24.3896976 29.7702128,26.2241971 29.7702128,28.4871669 C29.7702128,30.7501366 31.6047122,32.5846361 33.867682,32.5846361 Z M50.630056,32.5846361 C52.8930257,32.5846361 54.7275252,30.7501366 54.7275252,28.4871669 C54.7275252,26.2241971 52.8930257,24.3896976 50.630056,24.3896976 C48.3670862,24.3896976 46.5325868,26.2241971 46.5325868,28.4871669 C46.5325868,30.7501366 48.3670862,32.5846361 50.630056,32.5846361 Z" id="path-1"></path>
    </defs>
    <g id="RHP-Search--Desktop-v2" stroke="none" stroke-width="1" fill="none" fill-rule="evenodd">
        <g id="Profile-Friends" transform="translate(-834.000000, -252.000000)">
            <g id="Group-12" transform="translate(717.000000, 222.000000)">
                <g id="Group-19" transform="translate(150.657895, 63.000000) scale(1, -1) rotate(180.000000) translate(-150.657895, -63.000000) translate(117.157895, 30.000000)">
                    <mask id="mask-2" fill="white">
                        <use xlink:href="#path-1"></use>
                    </mask>
                    <use id="memberMatchEmpty" fill="#7BCB45" xlink:href="#path-1"></use>
                </g>
            </g>
        </g>
    </g>
</svg>