<?xml version="1.0" encoding="UTF-8"?>
<svg width="23px" height="14px" viewBox="0 0 23 14" version="1.1" xmlns="http://www.w3.org/2000/svg" xmlns:xlink="http://www.w3.org/1999/xlink">
    <!-- Generator: Sketch 50.2 (55047) - http://www.bohemiancoding.com/sketch -->
    <title>Icons/Niche</title>
    <desc>Created with Sketch.</desc>
    <defs>
        <path d="M19.5619795,6.66556338 C20.0691419,6.12217506 20.3951749,5.3976573 20.3951749,4.56446188 C20.3951749,2.89807103 19.054817,1.52148729 17.3522003,1.52148729 C16.3378754,1.52148729 15.4684541,2.02864972 14.8888399,2.78939337 C14.4541293,1.1954543 12.9688679,0 11.2300253,0 C9.49118263,0 8.00592123,1.1954543 7.57121057,2.78939337 C7.02782225,2.02864972 6.12217506,1.52148729 5.1078502,1.52148729 C3.44145935,1.52148729 2.06487561,2.89807103 2.06487561,4.56446188 C2.06487561,5.36143141 2.3909086,6.12217506 2.89807103,6.66556338 C1.1954543,7.4987588 0,9.23760142 0,11.302477 C0,11.7009618 0.326032991,12.0269948 0.724517758,12.0269948 L4.74559132,12.0269948 C4.70936543,12.280576 4.70936543,12.5703831 4.70936543,12.8239643 C4.70936543,13.2224491 5.03539842,13.5484821 5.43388319,13.5484821 L17.1710709,13.5484821 C17.5695556,13.5484821 17.8955886,13.2224491 17.8955886,12.8239643 C17.8955886,12.5341572 17.8593627,12.280576 17.8593627,12.0269948 L21.7717586,12.0269948 C22.1702434,12.0269948 22.4962764,11.7009618 22.4962764,11.302477 C22.4962764,9.2738273 21.3008221,7.4987588 19.5619795,6.66556338 Z M16.8389377,12.3195561 L5.69356456,12.3195561 C6.0916136,9.57301767 8.44010294,7.42355285 11.2662511,7.42355285 C14.0923993,7.42355285 16.4806936,9.57301767 16.8389377,12.3195561 Z M3.09556338,4.56446188 C3.09556338,3.42733173 4.04317183,2.47972328 5.18030197,2.47972328 C6.31743211,2.47972328 7.26504057,3.42733173 7.26504057,4.56446188 C7.26504057,5.70159202 6.31743211,6.64920047 5.18030197,6.64920047 C4.04317183,6.64920047 3.09556338,5.70159202 3.09556338,4.56446188 Z M13.9504669,3.80371823 C13.9504669,5.29036082 12.7528937,6.52922965 11.2662511,6.52922965 C9.77960855,6.52922965 8.58203535,5.33165645 8.58203535,3.80371823 C8.58203535,2.31707564 9.77960855,1.07820682 11.2662511,1.07820682 C12.7528937,1.07820682 13.9504669,2.31707564 13.9504669,3.80371823 Z M17.3884262,2.47972328 C18.5255563,2.47972328 19.4731648,3.42733173 19.4731648,4.56446188 C19.4731648,5.70159202 18.5255563,6.64920047 17.3884262,6.64920047 C16.2512961,6.64920047 15.3036876,5.70159202 15.3036876,4.56446188 C15.3036876,3.42733173 16.2512961,2.47972328 17.3884262,2.47972328 Z M14.4903552,7.06404814 C14.2367739,6.91914459 14.0194186,6.81046693 13.7658374,6.70178926 C14.0918704,6.41198216 14.3454516,6.08594917 14.5628069,5.72369029 C14.7077105,6.08594917 14.9250658,6.41198216 15.178647,6.66556338 C14.9612917,6.77424104 14.7077105,6.91914459 14.4903552,7.06404814 Z M8.76666487,6.70178926 C8.51308366,6.81046693 8.25950244,6.91914459 8.04214712,7.06404814 C7.82479179,6.91914459 7.60743646,6.77424104 7.35385525,6.66556338 C7.60743646,6.37575627 7.82479179,6.04972328 7.96969534,5.72369029 C8.18705067,6.08594917 8.44063188,6.41198216 8.76666487,6.70178926 Z M4.97604071,7.60743646 C5.61540083,7.60743646 6.21480094,7.76727649 6.77424104,8.04699654 C5.93508089,8.84619668 5.29572077,9.80523686 4.8961207,10.8841571 L1.02,10.8841571 C1.41960007,9.00603671 3.01800036,7.60743646 4.97604071,7.60743646 Z M15.7582612,8.03993039 C16.2693904,7.76470698 16.8984725,7.60743646 17.5275546,7.60743646 C19.4541185,7.60743646 21.0661413,8.98355352 21.42,10.8314821 L17.6061899,10.8314821 C17.2130136,9.76990613 16.5839315,8.78696537 15.7582612,8.03993039 Z" id="path-1"></path>
    </defs>
    <g id="RHP-Search--Desktop-v2" stroke="none" stroke-width="1" fill="none" fill-rule="evenodd">
        <g id="Search" transform="translate(-206.000000, -870.000000)">
            <g id="Popular-niches" transform="translate(123.000000, 851.000000)">
                <g id="Group" transform="translate(69.000000, 0.000000)">
                    <g id="Icons/Niche">
                        <g id="colour/mid-grey-copy" transform="translate(14.280000, 19.380000)">
                            <mask id="mask-2" fill="white">
                                <use xlink:href="#path-1"></use>
                            </mask>
                            <use id="Mask" fill="#000000" fill-rule="nonzero" xlink:href="#path-1"></use>
                            <g mask="url(#mask-2)" fill="#333333" id="colour/black">
                                <g transform="translate(-14.280000, -19.380000)">
                                    <rect x="0" y="0" width="51" height="51"></rect>
                                </g>
                            </g>
                        </g>
                    </g>
                </g>
            </g>
        </g>
    </g>
</svg>