<?xml version="1.0" encoding="UTF-8"?>
<svg width="21px" height="21px" viewBox="0 0 21 21" version="1.1" xmlns="http://www.w3.org/2000/svg" xmlns:xlink="http://www.w3.org/1999/xlink">
    <!-- Generator: Sketch 50.2 (55047) - http://www.bohemiancoding.com/sketch -->
    <title>Icons/GallerY</title>
    <desc>Created with Sketch.</desc>
    <defs>
        <path d="M15.2552727,0.250909091 L15.2552727,14.6029091 C15.2552727,14.9631996 14.9631996,15.2552727 14.6029091,15.2552727 L0.250909091,15.2552727 C0.250909091,15.9758537 0.835055388,16.56 1.55563636,16.56 L14.6029091,16.56 C15.6837806,16.56 16.56,15.6837806 16.56,14.6029091 L16.56,1.55563636 C16.56,0.835055388 15.9758537,0.250909091 15.2552727,0.250909091 Z" id="path-1"></path>
        <path d="M16.9198824,14.9675882 L16.9198824,1.95229412 C16.9198824,0.874071849 16.0458105,1.44498792e-16 14.9675882,0 L1.95229412,0 C0.874071849,-1.44498792e-16 1.44498792e-16,0.874071849 0,1.95229412 L0,14.9675882 C1.44498792e-16,16.0458105 0.874071849,16.9198824 1.95229412,16.9198824 L14.9675882,16.9198824 C16.0458105,16.9198824 16.9198824,16.0458105 16.9198824,14.9675882 Z" id="path-3"></path>
        <path d="M11.8926008,11.035293 C13.929369,11.035293 15.583286,12.7363338 15.5986,14.831134 L15.5986,15.3193957 C15.5986,15.5871521 15.3995174,15.791907 15.1391786,15.791907 L6.97679203,15.791907 L1.44842138,15.791907 C1.1880826,15.791907 0.989,15.5871521 0.989,15.3193957 L0.989,14.9413866 C0.989,13.2403458 2.33663606,11.8543126 3.99055304,11.8543126 L6.3336021,11.8543126 C6.39485828,11.8543126 6.45611447,11.870063 6.5020566,11.8858134 C7.12993249,11.3503006 7.94157694,11.035293 8.81447757,11.035293 L11.8926008,11.035293 Z M10.58,8.59944444 C9.19174359,8.59944444 8.05,7.47067521 8.05,6.06944444 C8.05,4.68118803 9.17876923,3.53944444 10.58,3.53944444 C11.9812308,3.53944444 13.11,4.66821368 13.11,6.06944444 C13.11,7.47067521 11.9812308,8.59944444 10.58,8.59944444 Z M4.6,9.51944444 C3.46415385,9.51944444 2.53,8.59590598 2.53,7.44944444 C2.53,6.31359829 3.45353846,5.37944444 4.6,5.37944444 C5.74646154,5.37944444 6.67,6.30298291 6.67,7.44944444 C6.67,8.59590598 5.74646154,9.51944444 4.6,9.51944444 Z" id="path-5"></path>
    </defs>
    <g id="RHP-Search--Desktop-v2" stroke="none" stroke-width="1" fill="none" fill-rule="evenodd">
        <g id="Profile-5-Friend-Request" transform="translate(-141.000000, -801.000000)">
            <g id="Photos" transform="translate(120.000000, 512.000000)">
                <g id="Private-pics" transform="translate(20.060060, 288.000000)">
                    <g id="Icons/PhotoGallery-Max">
                        <g id="Group" transform="translate(1.840000, 1.840000)">
                            <g id="colour/dark-grey" transform="translate(2.760000, 2.760000)">
                                <mask id="mask-2" fill="white">
                                    <use xlink:href="#path-1"></use>
                                </mask>
                                <use id="Mask" fill="#000000" fill-rule="nonzero" xlink:href="#path-1"></use>
                                <g mask="url(#mask-2)" fill="#646464">
                                    <g transform="translate(-6.021818, -6.021818)">
                                        <rect x="0" y="0" width="25" height="25"></rect>
                                    </g>
                                </g>
                            </g>
                            <g id="colour/dark-grey-copy">
                                <mask id="mask-4" fill="white">
                                    <use xlink:href="#path-3"></use>
                                </mask>
                                <use id="Mask" fill="#000000" fill-rule="nonzero" xlink:href="#path-3"></use>
                                <g id="colour/dark-grey" mask="url(#mask-4)" fill="#646464">
                                    <g transform="translate(-3.003529, -3.003529)">
                                        <rect x="0" y="0" width="25" height="25"></rect>
                                    </g>
                                </g>
                                <mask id="mask-6" fill="white">
                                    <use xlink:href="#path-5"></use>
                                </mask>
                                <use id="Combined-Shape" fill="#FFFFFF" fill-rule="nonzero" xlink:href="#path-5"></use>
                            </g>
                        </g>
                    </g>
                </g>
            </g>
        </g>
    </g>
</svg>