<?xml version="1.0" encoding="UTF-8"?>
<svg width="29px" height="19px" viewBox="0 0 29 19" version="1.1" xmlns="http://www.w3.org/2000/svg" xmlns:xlink="http://www.w3.org/1999/xlink">
    <!-- Generator: Sketch 49.3 (51167) - http://www.bohemiancoding.com/sketch -->
    <title>Icons/ProfileBio</title>
    <desc>Created with Sketch.</desc>
    <defs>
        <path d="M1.28486111,2.50597662 C0.635381944,2.50597662 0.115798611,1.95663377 0.115798611,1.36503377 C0.115798611,0.731176623 0.635381944,0.224090909 1.28486111,0.224090909 L10.5940625,0.224090909 C11.2435417,0.224090909 11.763125,0.731176623 11.763125,1.36503377 C11.763125,1.99889091 11.2435417,2.50597662 10.5940625,2.50597662 L1.28486111,2.50597662 Z M1.28486111,8.16843377 C0.635381944,8.16843377 0.115798611,7.66134805 0.115798611,7.02749091 C0.115798611,6.39363377 0.635381944,5.88654805 1.28486111,5.88654805 L10.5940625,5.88654805 C11.2435417,5.88654805 11.763125,6.39363377 11.763125,7.02749091 C11.763125,7.66134805 11.2435417,8.16843377 10.5940625,8.16843377 L1.28486111,8.16843377 Z M1.28486111,13.8731481 C0.635381944,13.8731481 0.115798611,13.3660623 0.115798611,12.7322052 C0.115798611,12.0983481 0.635381944,11.5912623 1.28486111,11.5912623 L10.5940625,11.5912623 C11.2435417,11.5912623 11.763125,12.0983481 11.763125,12.7322052 C11.763125,13.3660623 11.2435417,13.8731481 10.5940625,13.8731481 L1.28486111,13.8731481 Z" id="path-1"></path>
        <path d="M1.29694444,19.2666961 L13.4638542,19.2666961 C14.1133333,19.2666961 14.6329167,18.7596104 14.6329167,18.1257532 L14.7195139,15.379039 C14.7195139,15.379039 14.7195139,15.379039 14.7195139,15.3367818 C14.7195139,12.5478104 13.0741667,10.1814104 10.7360417,8.99821039 C11.7752083,8.11081039 12.4246875,6.80083896 12.4246875,5.3640961 C12.4246875,2.7018961 10.1731597,0.504524675 7.44534722,0.504524675 C4.71753472,0.504524675 2.46600694,2.7018961 2.46600694,5.3640961 C2.46600694,6.80083896 3.11548611,8.11081039 4.15465278,8.99821039 C1.77322917,10.1814104 0.171180556,12.5900675 0.171180556,15.3367818 L0.171180556,18.0834961 C0.127881944,18.7596104 0.647465278,19.2666961 1.29694444,19.2666961 Z" id="path-3"></path>
    </defs>
    <g id="RHP-Search--Desktop-v2" stroke="none" stroke-width="1" fill="none" fill-rule="evenodd">
        <g id="Profile-Friend-Request" transform="translate(-507.000000, -537.000000)">
            <g id="Icons/ProfileBio-Max" transform="translate(507.000000, 532.000000)">
                <g id="noun_566458_cc-copy" transform="translate(0.000000, 4.640000)">
                    <g id="Group">
                        <g id="colour/mid-grey-copy-2" transform="translate(16.638750, 2.689091)">
                            <mask id="mask-2" fill="white">
                                <use xlink:href="#path-1"></use>
                            </mask>
                            <use id="Mask" fill="#FFFFFF" fill-rule="nonzero" xlink:href="#path-1"></use>
                            <g id="colour/black" mask="url(#mask-2)" fill="#333333">
                                <g transform="translate(-25.375000, -15.238182)">
                                    <rect x="0" y="0" width="45" height="45"></rect>
                                </g>
                            </g>
                        </g>
                        <g id="colour/mid-grey">
                            <mask id="mask-4" fill="white">
                                <use xlink:href="#path-3"></use>
                            </mask>
                            <use id="Mask" fill="#FFFFFF" fill-rule="nonzero" xlink:href="#path-3"></use>
                            <g id="colour/black" mask="url(#mask-4)" fill="#333333">
                                <g transform="translate(-8.736250, -12.549091)">
                                    <rect x="0" y="0" width="45" height="45"></rect>
                                </g>
                            </g>
                        </g>
                    </g>
                </g>
            </g>
        </g>
    </g>
</svg>