<?xml version="1.0" encoding="UTF-8"?>
<svg width="22px" height="27px" viewBox="0 0 22 27" version="1.1" xmlns="http://www.w3.org/2000/svg" xmlns:xlink="http://www.w3.org/1999/xlink">
    <!-- Generator: Sketch 50.2 (55047) - http://www.bohemiancoding.com/sketch -->
    <title>icCoupleMM</title>
    <desc>Created with Sketch.</desc>
    <defs></defs>
    <g id="Page-1" stroke="none" stroke-width="1" fill="none" fill-rule="evenodd">
        <g id="icCoupleMM" fill="#666666" fill-rule="nonzero">
            <g id="Page-1">
                <g id="Group-3" transform="translate(2.585859, 0.325041)">
                    <path d="M2.43000004,4.26600008 C3.02400005,4.26600008 3.51000006,4.05000007 3.94200007,3.67200006 C4.32000008,3.24000006 4.53600008,2.75400005 4.53600008,2.16000004 C4.53600008,1.56600003 4.32000008,1.08000002 3.88800007,0.648000011 C3.51000006,0.216000004 3.02400005,0 2.43000004,0 C1.83600003,0 1.29600002,0.216000004 0.918000016,0.648000011 C0.486000009,1.02600002 0.324000006,1.56600003 0.324000006,2.16000004 C0.324000006,2.75400005 0.54000001,3.29400006 0.918000016,3.67200006 C1.29600002,4.05000007 1.83600003,4.26600008 2.43000004,4.26600008" id="Fill-1"></path>
                </g>
                <g id="Group-6" transform="translate(0.000000, 4.877887)">
                    <path d="M7.34400013,0.162000003 L2.59200005,0.162000003 L2.59200005,0.270000005 C1.94400003,0.270000005 1.29600002,0.54000001 0.756000013,1.08000002 C0.216000004,1.62000003 0,2.26800004 0,3.02400005 L0,9.72000017 C0,9.99000018 0.054000001,10.2060002 0.216000004,10.3680002 C0.378000007,10.5300002 0.59400001,10.6380002 0.864000015,10.6380002 C1.13400002,10.6380002 1.29600002,10.5300002 1.45800003,10.3680002 C1.62000003,10.1520002 1.62000003,9.93600018 1.62000003,9.66600017 L1.62000003,3.72600007 L2.26800004,3.72600007 L2.26800004,20.2500004 C2.26800004,20.5740004 2.37600004,20.8440004 2.64600005,21.1140004 C2.91600005,21.3840004 3.18600006,21.4920004 3.51000006,21.4920004 C3.88800007,21.4920004 4.21200007,21.3840004 4.42800008,21.1140004 C4.69800008,20.8980004 4.86000009,20.5740004 4.86000009,20.2500004 L4.86000009,10.5300002 L5.18400009,10.5300002 L5.18400009,20.2500004 C5.18400009,20.5740004 5.34600009,20.8440004 5.6160001,21.1140004 C5.8320001,21.3840004 6.21000011,21.4920004 6.53400012,21.4920004 C6.85800012,21.4920004 7.12800013,21.3840004 7.39800013,21.1140004 C7.61400013,20.8980004 7.77600014,20.5740004 7.77600014,20.2500004 L7.77600014,3.72600007 L8.10000014,3.72600007 L8.10000014,9.66600017 C8.10000014,9.93600018 8.26200015,10.1520002 8.42400015,10.3140002 C8.64000015,10.4760002 8.91000016,10.5840002 9.12600016,10.5840002 C9.39600017,10.5840002 9.61200017,10.4760002 9.77400017,10.3140002 C9.93600018,10.1520002 9.99000018,9.88200017 9.99000018,9.66600017 L9.99000018,3.02400005 C9.99000018,2.32200004 9.77400017,1.62000003 9.23400016,1.02600002 C8.74800015,0.486000009 8.15400014,0.162000003 7.34400013,0.162000003" id="Fill-4"></path>
                </g>
                <g id="Group-9" transform="translate(2.585859, 0.325041)">
                    <path d="M2.43000004,4.26600008 C3.02400005,4.26600008 3.51000006,4.05000007 3.94200007,3.67200006 C4.32000008,3.24000006 4.53600008,2.75400005 4.53600008,2.16000004 C4.53600008,1.56600003 4.32000008,1.08000002 3.88800007,0.648000011 C3.51000006,0.216000004 3.02400005,0 2.43000004,0 C1.83600003,0 1.29600002,0.216000004 0.918000016,0.648000011 C0.486000009,1.02600002 0.324000006,1.56600003 0.324000006,2.16000004 C0.324000006,2.75400005 0.54000001,3.29400006 0.918000016,3.67200006 C1.29600002,4.05000007 1.83600003,4.26600008 2.43000004,4.26600008" id="Fill-7"></path>
                </g>
                <g id="Group-12" transform="translate(0.000000, 4.877887)">
                    <path d="M7.34400013,0.162000003 L2.59200005,0.162000003 L2.59200005,0.270000005 C1.94400003,0.270000005 1.29600002,0.54000001 0.756000013,1.08000002 C0.216000004,1.62000003 0,2.26800004 0,3.02400005 L0,9.72000017 C0,9.99000018 0.054000001,10.2060002 0.216000004,10.3680002 C0.378000007,10.5300002 0.59400001,10.6380002 0.864000015,10.6380002 C1.13400002,10.6380002 1.29600002,10.5300002 1.45800003,10.3680002 C1.62000003,10.1520002 1.62000003,9.93600018 1.62000003,9.66600017 L1.62000003,3.72600007 L2.26800004,3.72600007 L2.26800004,20.2500004 C2.26800004,20.5740004 2.37600004,20.8440004 2.64600005,21.1140004 C2.91600005,21.3840004 3.18600006,21.4920004 3.51000006,21.4920004 C3.88800007,21.4920004 4.21200007,21.3840004 4.42800008,21.1140004 C4.69800008,20.8980004 4.86000009,20.5740004 4.86000009,20.2500004 L4.86000009,10.5300002 L5.18400009,10.5300002 L5.18400009,20.2500004 C5.18400009,20.5740004 5.34600009,20.8440004 5.6160001,21.1140004 C5.8320001,21.3840004 6.21000011,21.4920004 6.53400012,21.4920004 C6.85800012,21.4920004 7.12800013,21.3840004 7.39800013,21.1140004 C7.61400013,20.8980004 7.77600014,20.5740004 7.77600014,20.2500004 L7.77600014,3.72600007 L8.10000014,3.72600007 L8.10000014,9.66600017 C8.10000014,9.93600018 8.26200015,10.1520002 8.42400015,10.3140002 C8.64000015,10.4760002 8.91000016,10.5840002 9.12600016,10.5840002 C9.39600017,10.5840002 9.61200017,10.4760002 9.77400017,10.3140002 C9.93600018,10.1520002 9.99000018,9.88200017 9.99000018,9.66600017 L9.99000018,3.02400005 C9.99000018,2.32200004 9.77400017,1.62000003 9.23400016,1.02600002 C8.74800015,0.486000009 8.15400014,0.162000003 7.34400013,0.162000003" id="Fill-10"></path>
                </g>
            </g>
            <g id="Page-1_1_" transform="translate(11.127273, 0.000000)">
                <g id="Group-3_1_" transform="translate(2.585859, 0.325041)">
                    <path d="M2.43000004,4.26600008 C3.02400005,4.26600008 3.51000006,4.05000007 3.94200007,3.67200006 C4.32000008,3.24000006 4.53600008,2.75400005 4.53600008,2.16000004 C4.53600008,1.56600003 4.32000008,1.08000002 3.88800007,0.648000011 C3.51000006,0.216000004 3.02400005,0 2.43000004,0 C1.83600003,0 1.29600002,0.216000004 0.918000016,0.648000011 C0.486000009,1.02600002 0.324000006,1.56600003 0.324000006,2.16000004 C0.324000006,2.75400005 0.54000001,3.29400006 0.918000016,3.67200006 C1.29600002,4.05000007 1.83600003,4.26600008 2.43000004,4.26600008" id="Fill-1_1_"></path>
                </g>
                <g id="Group-6_1_" transform="translate(0.000000, 4.877887)">
                    <path d="M7.34400013,0.162000003 L2.59200005,0.162000003 L2.59200005,0.270000005 C1.94400003,0.270000005 1.29600002,0.54000001 0.756000013,1.08000002 C0.216000004,1.62000003 0,2.26800004 0,3.02400005 L0,9.72000017 C0,9.99000018 0.054000001,10.2060002 0.216000004,10.3680002 C0.378000007,10.5300002 0.59400001,10.6380002 0.864000015,10.6380002 C1.13400002,10.6380002 1.29600002,10.5300002 1.45800003,10.3680002 C1.62000003,10.1520002 1.62000003,9.93600018 1.62000003,9.66600017 L1.62000003,3.72600007 L2.26800004,3.72600007 L2.26800004,20.2500004 C2.26800004,20.5740004 2.37600004,20.8440004 2.64600005,21.1140004 C2.91600005,21.3840004 3.18600006,21.4920004 3.51000006,21.4920004 C3.88800007,21.4920004 4.21200007,21.3840004 4.42800008,21.1140004 C4.69800008,20.8980004 4.86000009,20.5740004 4.86000009,20.2500004 L4.86000009,10.5300002 L5.18400009,10.5300002 L5.18400009,20.2500004 C5.18400009,20.5740004 5.34600009,20.8440004 5.6160001,21.1140004 C5.8320001,21.3840004 6.21000011,21.4920004 6.53400012,21.4920004 C6.85800012,21.4920004 7.12800013,21.3840004 7.39800013,21.1140004 C7.61400013,20.8980004 7.77600014,20.5740004 7.77600014,20.2500004 L7.77600014,3.72600007 L8.10000014,3.72600007 L8.10000014,9.66600017 C8.10000014,9.93600018 8.26200015,10.1520002 8.42400015,10.3140002 C8.64000015,10.4760002 8.91000016,10.5840002 9.12600016,10.5840002 C9.39600017,10.5840002 9.61200017,10.4760002 9.77400017,10.3140002 C9.93600018,10.1520002 9.99000018,9.88200017 9.99000018,9.66600017 L9.99000018,3.02400005 C9.99000018,2.32200004 9.77400017,1.62000003 9.23400016,1.02600002 C8.74800015,0.486000009 8.15400014,0.162000003 7.34400013,0.162000003" id="Fill-4_1_"></path>
                </g>
                <g id="Group-9_1_" transform="translate(2.585859, 0.325041)">
                    <path d="M2.43000004,4.26600008 C3.02400005,4.26600008 3.51000006,4.05000007 3.94200007,3.67200006 C4.32000008,3.24000006 4.53600008,2.75400005 4.53600008,2.16000004 C4.53600008,1.56600003 4.32000008,1.08000002 3.88800007,0.648000011 C3.51000006,0.216000004 3.02400005,0 2.43000004,0 C1.83600003,0 1.29600002,0.216000004 0.918000016,0.648000011 C0.486000009,1.02600002 0.324000006,1.56600003 0.324000006,2.16000004 C0.324000006,2.75400005 0.54000001,3.29400006 0.918000016,3.67200006 C1.29600002,4.05000007 1.83600003,4.26600008 2.43000004,4.26600008" id="Fill-7_1_"></path>
                </g>
                <g id="Group-12_1_" transform="translate(0.000000, 4.877887)">
                    <path d="M7.34400013,0.162000003 L2.59200005,0.162000003 L2.59200005,0.270000005 C1.94400003,0.270000005 1.29600002,0.54000001 0.756000013,1.08000002 C0.216000004,1.62000003 0,2.26800004 0,3.02400005 L0,9.72000017 C0,9.99000018 0.054000001,10.2060002 0.216000004,10.3680002 C0.378000007,10.5300002 0.59400001,10.6380002 0.864000015,10.6380002 C1.13400002,10.6380002 1.29600002,10.5300002 1.45800003,10.3680002 C1.62000003,10.1520002 1.62000003,9.93600018 1.62000003,9.66600017 L1.62000003,3.72600007 L2.26800004,3.72600007 L2.26800004,20.2500004 C2.26800004,20.5740004 2.37600004,20.8440004 2.64600005,21.1140004 C2.91600005,21.3840004 3.18600006,21.4920004 3.51000006,21.4920004 C3.88800007,21.4920004 4.21200007,21.3840004 4.42800008,21.1140004 C4.69800008,20.8980004 4.86000009,20.5740004 4.86000009,20.2500004 L4.86000009,10.5300002 L5.18400009,10.5300002 L5.18400009,20.2500004 C5.18400009,20.5740004 5.34600009,20.8440004 5.6160001,21.1140004 C5.8320001,21.3840004 6.21000011,21.4920004 6.53400012,21.4920004 C6.85800012,21.4920004 7.12800013,21.3840004 7.39800013,21.1140004 C7.61400013,20.8980004 7.77600014,20.5740004 7.77600014,20.2500004 L7.77600014,3.72600007 L8.10000014,3.72600007 L8.10000014,9.66600017 C8.10000014,9.93600018 8.26200015,10.1520002 8.42400015,10.3140002 C8.64000015,10.4760002 8.91000016,10.5840002 9.12600016,10.5840002 C9.39600017,10.5840002 9.61200017,10.4760002 9.77400017,10.3140002 C9.93600018,10.1520002 9.99000018,9.88200017 9.99000018,9.66600017 L9.99000018,3.02400005 C9.99000018,2.32200004 9.77400017,1.62000003 9.23400016,1.02600002 C8.74800015,0.486000009 8.15400014,0.162000003 7.34400013,0.162000003" id="Fill-10_1_"></path>
                </g>
            </g>
        </g>
    </g>
</svg>