<?xml version="1.0" encoding="UTF-8"?>
<svg width="27px" height="27px" viewBox="0 0 27 27" version="1.1" xmlns="http://www.w3.org/2000/svg" xmlns:xlink="http://www.w3.org/1999/xlink">
    <!-- Generator: Sketch 52.1 (67048) - http://www.bohemiancoding.com/sketch -->
    <title>icCoupleFF@1x</title>
    <desc>Created with Sketch.</desc>
    <g id="Page-1" stroke="none" stroke-width="1" fill="none" fill-rule="evenodd">
        <g id="icCoupleFF" fill="#666666">
            <path d="M6.37462082,4.42800015 C5.71941352,4.42800015 5.17340746,4.21200014 4.73660259,3.78000013 C4.29979773,3.40200011 4.0813953,2.8620001 4.0813953,2.21400007 C4.0813953,1.62000005 4.29979773,1.08000004 4.73660259,0.648000022 C5.17340746,0.216000007 5.71941352,0 6.37462082,0 C6.97522751,0 7.52123358,0.216000007 7.90343784,0.648000022 C8.3402427,1.08000004 8.55864513,1.62000005 8.55864513,2.26800008 C8.55864513,2.8620001 8.3402427,3.40200011 7.90343784,3.83400013 C7.52123358,4.21200014 6.97522751,4.42800015 6.37462082,4.42800015 Z M12.3397373,12.8520004 C12.4489385,13.2840004 12.5581398,13.5540005 12.6127404,13.6620005 L12.667341,13.8780005 C12.667341,14.3640005 12.4489385,14.6340005 12.0121337,14.7420005 L11.7937313,14.7960005 C11.3023258,14.7960005 11.0293228,14.5800005 10.9201216,14.1480005 C10.9201216,13.9860005 10.7563198,13.5540005 10.5925178,12.9060004 C10.3741154,12.2580004 10.155713,11.5020004 9.9373106,10.8000004 C9.71890817,10.0440003 9.44590513,9.28800031 9.11830148,7.93800026 L8.5722954,7.93800026 L11.6299295,18.4140006 L8.62689601,18.4140006 L8.62689601,25.9740009 C8.62689601,26.2980009 8.5722954,26.5680009 8.35389297,26.7300009 C8.13549055,26.8920009 7.97168872,27.0000009 7.64408507,27.0000009 C7.31648143,27.0000009 7.09807899,26.8920009 6.82507595,26.7300009 C6.66127414,26.5140009 6.55207293,26.2980009 6.55207293,25.9740009 L6.55207293,18.4140006 L6.22446927,18.4140006 L6.22446927,25.9740009 C6.22446927,26.2980009 6.00606685,26.5680009 5.84226502,26.7300009 C5.6784632,26.8920009 5.35085956,27.0000009 5.02325591,27.0000009 C4.69565226,27.0000009 4.42264923,26.8920009 4.2588474,26.7300009 C4.04044496,26.5140009 3.87664315,26.2980009 3.87664315,25.9740009 L3.87664315,18.4140006 L1.03741154,18.4140006 L4.09504557,7.93800026 L3.5490395,7.93800026 C3.22143586,9.28800031 2.94843282,10.0980003 2.73003038,10.8000004 C2.56622856,11.5560004 2.29322553,12.3120004 2.1294237,12.9600004 C1.91102127,13.6080005 1.74721945,13.9860005 1.74721945,14.1480005 C1.63801823,14.5800005 1.31041458,14.7960005 0.873609723,14.7960005 L0.655207293,14.7420005 C0.21840243,14.5800005 0,14.3100005 0,13.9320005 C0,13.8240005 0,13.7160005 0.0546006077,13.6080005 C0.109201216,13.5540005 0.163801823,13.2840004 0.273003038,12.8520004 C0.382204254,12.4200004 0.546006077,11.8800004 0.764408507,11.2860004 C0.928210331,10.6380004 1.14661276,9.99000033 1.36501519,9.23400031 C1.58341762,8.47800028 1.74721945,7.77600026 2.02022249,7.07400024 C2.1840243,6.53400022 2.51162795,6.0480002 3.00303342,5.61600019 C3.49443889,5.18400017 3.98584436,4.91400016 4.53185044,4.91400016 L8.13549055,4.91400016 C8.68149662,4.91400016 9.22750269,5.18400017 9.71890817,5.61600019 C10.155713,6.0480002 10.5379172,6.58800022 10.7017192,7.12800024 C10.9201216,7.77600026 11.0839234,8.47800028 11.3023258,9.23400031 C11.5207282,9.99000033 11.7391307,10.6380004 11.9029325,11.2860004 C12.0667343,11.8800004 12.2305361,12.4200004 12.3397373,12.8520004 Z M20.7072799,4.42800015 C20.0520726,4.42800015 19.5060665,4.21200014 19.0692616,3.78000013 C18.6324568,3.40200011 18.4140543,2.8620001 18.4140543,2.21400007 C18.4140543,1.62000005 18.6324568,1.08000004 19.0692616,0.648000022 C19.5060665,0.216000007 20.0520726,0 20.7072799,0 C21.3078865,0 21.8538926,0.216000007 22.2360969,0.648000022 C22.6729017,1.08000004 22.8913042,1.62000005 22.8913042,2.26800008 C22.8913042,2.8620001 22.6729017,3.40200011 22.2360969,3.83400013 C21.8538926,4.21200014 21.3078865,4.42800015 20.7072799,4.42800015 Z M26.6723964,12.8520004 C26.7815976,13.2840004 26.8907988,13.5540005 26.9453994,13.6620005 L27,13.8780005 C27,14.3640005 26.7815976,14.6340005 26.3447927,14.7420005 L26.1263903,14.7960005 C25.6349849,14.7960005 25.3619818,14.5800005 25.2527806,14.1480005 C25.2527806,13.9860005 25.0889788,13.5540005 24.9251769,12.9060004 C24.7067745,12.2580004 24.488372,11.5020004 24.2699696,10.8000004 C24.0515672,10.0440003 23.7785642,9.28800031 23.4509605,7.93800026 L22.9049544,7.93800026 L25.9625885,18.4140006 L22.959555,18.4140006 L22.959555,25.9740009 C22.959555,26.2980009 22.9049544,26.5680009 22.686552,26.7300009 C22.4681496,26.8920009 22.3043478,27.0000009 21.9767441,27.0000009 C21.6491405,27.0000009 21.430738,26.8920009 21.157735,26.7300009 C20.9939332,26.5140009 20.884732,26.2980009 20.884732,25.9740009 L20.884732,18.4140006 L20.5571283,18.4140006 L20.5571283,25.9740009 C20.5571283,26.2980009 20.3387259,26.5680009 20.1749241,26.7300009 C20.0111222,26.8920009 19.6835186,27.0000009 19.3559149,27.0000009 C19.0283113,27.0000009 18.7553083,26.8920009 18.5915064,26.7300009 C18.373104,26.5140009 18.2093022,26.2980009 18.2093022,25.9740009 L18.2093022,18.4140006 L15.3700706,18.4140006 L18.4277046,7.93800026 L17.8816985,7.93800026 C17.5540949,9.28800031 17.2810919,10.0980003 17.0626894,10.8000004 C16.8988876,11.5560004 16.6258846,12.3120004 16.4620827,12.9600004 C16.2436803,13.6080005 16.0798785,13.9860005 16.0798785,14.1480005 C15.9706773,14.5800005 15.6430736,14.7960005 15.2062688,14.7960005 L14.9878663,14.7420005 C14.5510615,14.5800005 14.332659,14.3100005 14.332659,13.9320005 C14.332659,13.8240005 14.332659,13.7160005 14.3872596,13.6080005 C14.4418603,13.5540005 14.4964609,13.2840004 14.6056621,12.8520004 C14.7148633,12.4200004 14.8786651,11.8800004 15.0970675,11.2860004 C15.2608694,10.6380004 15.4792718,9.99000033 15.6976742,9.23400031 C15.9160767,8.47800028 16.0798785,7.77600026 16.3528815,7.07400024 C16.5166833,6.53400022 16.844287,6.0480002 17.3356925,5.61600019 C17.8270979,5.18400017 18.3185034,4.91400016 18.8645095,4.91400016 L22.4681496,4.91400016 C23.0141557,4.91400016 23.5601617,5.18400017 24.0515672,5.61600019 C24.488372,6.0480002 24.8705763,6.58800022 25.0343782,7.12800024 C25.2527806,7.77600026 25.4165824,8.47800028 25.6349849,9.23400031 C25.8533873,9.99000033 26.0717897,10.6380004 26.2355915,11.2860004 C26.3993933,11.8800004 26.5631952,12.4200004 26.6723964,12.8520004 Z" id="Combined-Shape"></path>
        </g>
    </g>
</svg>