<?xml version="1.0" encoding="UTF-8"?>
<svg width="24px" height="27px" viewBox="0 0 24 27" version="1.1" xmlns="http://www.w3.org/2000/svg" xmlns:xlink="http://www.w3.org/1999/xlink">
    <!-- Generator: Sketch 50.2 (55047) - http://www.bohemiancoding.com/sketch -->
    <title>icCouple</title>
    <desc>Created with Sketch.</desc>
    <defs>
        <polygon id="path-1" points="0.324945 0 4.762395 0 4.762395 4.42688625 0.324945 4.42688625 0.324945 4.79616347e-15"></polygon>
    </defs>
    <g id="Page-1" stroke="none" stroke-width="1" fill="none" fill-rule="evenodd">
        <g id="icCouple">
            <g id="Group-3" transform="translate(3.712500, 0.000000)">
                <g id="Fill-1-Clipped">
                    <mask id="mask-2" fill="white">
                        <use xlink:href="#path-1"></use>
                    </mask>
                    <g id="path-1"></g>
                    <path d="M2.59767,4.42688625 C3.2048325,4.42688625 3.72492,4.22742375 4.1289075,3.81162375 C4.5447075,3.38603625 4.762395,2.85717375 4.762395,2.21896125 C4.762395,1.61213625 4.5447075,1.09171125 4.1289075,0.66207375 C3.7272825,0.22028625 3.2048325,-0.00010125 2.59767,-0.00010125 C1.95102,-0.00010125 1.41507,0.22028625 0.9692325,0.66207375 C0.5372325,1.08968625 0.324945,1.61213625 0.324945,2.21896125 C0.324945,2.85717375 0.5372325,3.38536125 0.9712575,3.81162375 C1.4174325,4.22742375 1.953045,4.42688625 2.59767,4.42688625" id="Fill-1" fill="#FFFFFF" fill-rule="nonzero" mask="url(#mask-2)"></path>
                </g>
            </g>
            <path d="M12.2202,12.8742413 C12.1071375,12.4442662 11.9458125,11.9093288 11.7622125,11.2866412 C11.5884,10.6545037 11.3727375,9.97039125 11.1672,9.23565375 C10.966725,8.49754125 10.7638875,7.78744125 10.5651,7.10265375 C10.379475,6.57750375 10.0470375,6.01826625 9.584325,5.60280375 C9.10845,5.17485375 8.575875,4.89574125 8.0274375,4.89574125 L4.4816625,4.89574125 C3.9511125,4.89574125 3.443175,5.17485375 2.954475,5.60280375 C2.4640875,6.01624125 2.1468375,6.53632875 2.0023875,7.06080375 C1.7577,7.74559125 1.5582375,8.47661625 1.3402125,9.21472875 C1.1275875,9.94946625 0.924075,10.6440413 0.736425,11.2761787 C0.5477625,11.8981912 0.3911625,12.4388663 0.274725,12.8688412 C0.173475,13.3032038 0.087075,13.5613912 0.0570375,13.6356412 C0.01485,13.7227163 0,13.8108038 0,13.9161038 C0,14.3011912 0.20385,14.5722038 0.621675,14.7271163 L0.849825,14.7824663 C1.298025,14.7824663 1.584225,14.5735538 1.715175,14.1412162 C1.7296875,14.0001413 1.8741375,13.5860288 2.089125,12.9322913 C2.2777875,12.2704538 2.49615,11.5137788 2.6922375,10.7888288 C2.9102625,10.0608412 3.1887,9.28324125 3.5191125,7.93324125 L4.0375125,7.93324125 L1.0233,18.3957413 L3.8140875,18.3957413 L3.8140875,25.9817288 C3.8140875,26.2854788 3.9663,26.5372538 4.1823,26.7195038 C4.38345,26.9088413 4.670325,26.9996288 4.9750875,26.9996288 C5.276475,26.9996288 5.611275,26.9088413 5.7992625,26.7195038 C5.98725,26.5372538 6.1765875,26.2854788 6.1765875,25.9817288 L6.1765875,18.3957413 L6.5140875,18.3957413 L6.5140875,25.9820663 C6.5140875,26.2858163 6.615675,26.5382663 6.803325,26.7195038 C7.001775,26.9088413 7.243425,26.9999663 7.560675,26.9999663 C7.8607125,26.9999663 8.0622,26.9098538 8.265375,26.7195038 C8.4958875,26.5382663 8.5390875,26.2858163 8.5390875,25.9820663 L8.5390875,18.3957413 L11.485125,18.3957413 L8.4753,7.93324125 L8.995725,7.93324125 C9.3261375,9.28324125 9.596475,10.0642163 9.8269875,10.7898413 C10.0571625,11.5151287 10.2623625,12.2367038 10.46385,12.8985413 C10.6342875,13.5519413 10.76355,13.9832662 10.795275,14.1243413 C10.910025,14.5560038 11.1992625,14.7743662 11.6586,14.7743662 L11.871225,14.7203663 C12.288375,14.6005537 12.5060625,14.3305538 12.5060625,13.8644663 L12.4497,13.6373288 C12.4095375,13.5627412 12.3352875,13.3082662 12.2202,12.8742413" id="Fill-6" fill="#FFFFFF" fill-rule="nonzero"></path>
            <path d="M20.9447775,4.89587625 L15.9639525,4.89587625 L15.9639525,4.99746375 C15.2889525,4.99746375 14.6004525,5.28467625 14.0388525,5.83885125 C13.475565,6.41867625 13.2639525,7.09232625 13.2639525,7.84326375 L13.2639525,14.7826013 C13.2639525,15.0424763 13.3004025,15.2777138 13.501215,15.4677263 C13.6871775,15.6553762 13.89204,15.7404263 14.1542775,15.7404263 C14.455665,15.7404263 14.60349,15.6553762 14.7887775,15.4677263 C14.95044,15.2777138 14.9514525,15.0424763 14.9514525,14.7826013 L14.9514525,8.60837625 L15.6264525,8.60837625 L15.6264525,25.7564138 C15.6264525,26.0871638 15.7553775,26.3926013 16.029765,26.6278388 C16.2879525,26.8880513 16.58124,26.9997638 16.92819,26.9997638 C17.3038275,26.9997638 17.6541525,26.8890638 17.8998525,26.6278388 C18.160065,26.3926013 18.3264525,26.0875013 18.3264525,25.7564138 L18.3264525,15.6958763 L18.6639525,15.6958763 L18.6639525,25.7564138 C18.6639525,26.0871638 18.85329,26.3926013 19.09764,26.6278388 C19.34334,26.8880513 19.6906275,26.9997638 20.0794275,26.9997638 C20.409165,26.9997638 20.723715,26.8890638 20.9839275,26.6278388 C21.2276025,26.3926013 21.3639525,26.0875013 21.3639525,25.7564138 L21.3639525,8.60837625 L21.7014525,8.60837625 L21.7014525,14.7826013 C21.7014525,15.0424763 21.8675025,15.2777138 22.0409775,15.4677263 C22.2475275,15.6553762 22.528665,15.7404263 22.7888775,15.7404263 C23.094315,15.7404263 23.31099,15.6553762 23.4848025,15.4677263 C23.6414025,15.2777138 23.7264525,15.0424763 23.7264525,14.7826013 L23.7264525,7.84360125 C23.7264525,7.09502625 23.4888525,6.36636375 22.9252275,5.78923875 C22.3757775,5.23270125 21.7527525,4.89587625 20.9447775,4.89587625" id="Fill-8" fill="#010002" fill-rule="nonzero"></path>
            <path d="M18.405225,4.42665 C19.0107,4.42665 19.5449625,4.2271875 19.9749375,3.8113875 C20.4049125,3.383775 20.6236125,2.85525 20.6236125,2.218725 C20.6236125,1.6119 20.40255,1.091475 19.97325,0.6618375 C19.541925,0.22005 19.0090125,0 18.405225,0 C17.769375,0 17.2344375,0.22005 16.8318,0.6618375 C16.4025,1.091475 16.2,1.6119 16.2,2.218725 C16.2,2.8569375 16.4025,3.3854625 16.8318,3.8113875 C17.2368,4.2271875 17.7717375,4.42665 18.405225,4.42665" id="Fill-10" fill="#FFFFFF" fill-rule="nonzero"></path>
            <path d="M20.9447775,4.89587625 L15.9639525,4.89587625 L15.9639525,4.99746375 C15.2889525,4.99746375 14.6004525,5.28467625 14.0388525,5.83885125 C13.475565,6.41867625 13.2639525,7.09232625 13.2639525,7.84326375 L13.2639525,14.7826013 C13.2639525,15.0424763 13.3004025,15.2777138 13.501215,15.4677263 C13.6871775,15.6553762 13.89204,15.7404263 14.1542775,15.7404263 C14.455665,15.7404263 14.60349,15.6553762 14.7887775,15.4677263 C14.95044,15.2777138 14.9514525,15.0424763 14.9514525,14.7826013 L14.9514525,8.60837625 L15.6264525,8.60837625 L15.6264525,25.7564138 C15.6264525,26.0871638 15.7553775,26.3926013 16.029765,26.6278388 C16.2879525,26.8880513 16.58124,26.9997638 16.92819,26.9997638 C17.3038275,26.9997638 17.6541525,26.8890638 17.8998525,26.6278388 C18.160065,26.3926013 18.3264525,26.0875013 18.3264525,25.7564138 L18.3264525,15.6958763 L18.6639525,15.6958763 L18.6639525,25.7564138 C18.6639525,26.0871638 18.85329,26.3926013 19.09764,26.6278388 C19.34334,26.8880513 19.6906275,26.9997638 20.0794275,26.9997638 C20.409165,26.9997638 20.723715,26.8890638 20.9839275,26.6278388 C21.2276025,26.3926013 21.3639525,26.0875013 21.3639525,25.7564138 L21.3639525,8.60837625 L21.7014525,8.60837625 L21.7014525,14.7826013 C21.7014525,15.0424763 21.8675025,15.2777138 22.0409775,15.4677263 C22.2475275,15.6553762 22.528665,15.7404263 22.7888775,15.7404263 C23.094315,15.7404263 23.31099,15.6553762 23.4848025,15.4677263 C23.6414025,15.2777138 23.7264525,15.0424763 23.7264525,14.7826013 L23.7264525,7.84360125 C23.7264525,7.09502625 23.4888525,6.36636375 22.9252275,5.78923875 C22.3757775,5.23270125 21.7527525,4.89587625 20.9447775,4.89587625" id="Fill-12" fill="#FFFFFF" fill-rule="nonzero"></path>
        </g>
    </g>
</svg>