<?xml version="1.0" encoding="UTF-8"?>
<svg width="24px" height="27px" viewBox="0 0 24 27" version="1.1" xmlns="http://www.w3.org/2000/svg" xmlns:xlink="http://www.w3.org/1999/xlink">
    <!-- Generator: Sketch 50.2 (55047) - http://www.bohemiancoding.com/sketch -->
    <title>icCouple</title>
    <desc>Created with Sketch.</desc>
    <defs></defs>
    <g id="Page-1" stroke="none" stroke-width="1" fill="none" fill-rule="evenodd">
        <g id="icCouple" fill="#666666" fill-rule="nonzero">
            <g id="Group-3" transform="translate(3.622143, 0.000000)">
                <path d="M2.50257135,4.34657128 C3.09528561,4.34657128 3.62214274,4.14899986 4.01728558,3.75385702 C4.41242843,3.29285703 4.67585699,2.76599991 4.67585699,2.17328564 C4.67585699,1.58057138 4.47828557,1.05371425 4.08314272,0.658571407 C3.62214274,0.197571422 3.09528561,0 2.50257135,0 C1.84399994,0 1.31714281,0.197571422 0.921999969,0.658571407 C0.526857125,1.05371425 0.263428563,1.58057138 0.263428563,2.17328564 C0.263428563,2.76599991 0.460999985,3.29285703 0.921999969,3.75385702 C1.38299995,4.14899986 1.90985708,4.34657128 2.50257135,4.34657128" id="Fill-1"></path>
            </g>
            <path d="M11.9201425,12.5787139 C11.7884282,12.183571 11.6567139,11.6567139 11.4591425,10.9981425 C11.2615711,10.4054282 11.0639996,9.74685682 10.8664282,9.02242827 C10.6688568,8.29799973 10.4712854,7.63942832 10.2737139,6.91499977 C10.0761425,6.38814265 9.74685682,5.86128552 9.28585684,5.46614268 C8.82485685,5.07099983 8.29799973,4.80757127 7.7711426,4.80757127 L4.34657128,4.80757127 C3.81971416,4.80757127 3.35871417,5.07099983 2.83185705,5.46614268 C2.43671421,5.86128552 2.1074285,6.38814265 1.97571422,6.91499977 C1.71228566,7.57357118 1.51471424,8.29799973 1.31714281,9.02242827 C1.11957139,9.74685682 0.921999969,10.4054282 0.724428547,11.0639996 C0.526857125,11.6567139 0.395142844,12.183571 0.263428563,12.644571 C0.131714281,13.0397139 0.0658571407,13.3031424 0.0658571407,13.3689996 C0,13.3689996 0,13.5007138 0,13.566571 C0,13.9617138 0.197571422,14.2251424 0.592714266,14.3568567 L0.790285688,14.4227138 C1.25128567,14.4227138 1.51471424,14.2251424 1.64642852,13.7641424 C1.64642852,13.6324281 1.7781428,13.2372853 2.04157136,12.5787139 C2.23914278,11.9201425 2.43671421,11.1957139 2.63428563,10.4712854 C2.83185705,9.74685682 3.09528561,9.02242827 3.42457132,7.70528546 L3.95142844,7.70528546 L0.98785711,17.9789994 L3.68799988,17.9789994 L3.68799988,25.3549992 C3.68799988,25.6184277 3.81971416,25.8818563 4.01728558,26.0794277 C4.28071414,26.2769991 4.54414271,26.3428563 4.87342841,26.3428563 C5.13685697,26.3428563 5.46614268,26.2769991 5.6637141,26.0794277 C5.86128552,25.8818563 6.05885694,25.6842849 6.05885694,25.3549992 L6.05885694,17.9789994 L6.38814265,17.9789994 L6.38814265,25.3549992 C6.38814265,25.6842849 6.51985693,25.8818563 6.65157121,26.0794277 C6.84914263,26.2769991 7.11257119,26.3428563 7.37599976,26.3428563 C7.63942832,26.3428563 7.83699974,26.2769991 8.03457116,26.0794277 C8.23214258,25.8818563 8.29799973,25.6842849 8.29799973,25.3549992 L8.29799973,17.9789994 L11.1957139,17.9789994 L8.23214258,7.7711426 L8.75899971,7.7711426 C9.08828541,9.08828541 9.35171398,9.8785711 9.5492854,10.5371425 C9.74685682,11.2615711 9.94442824,11.9201425 10.1419997,12.5787139 C10.3395711,13.2372853 10.4054282,13.6324281 10.4712854,13.7641424 C10.6029996,14.1592852 10.8664282,14.4227138 11.3274282,14.4227138 L11.5249996,14.3568567 C11.9201425,14.2251424 12.1177139,13.9617138 12.1177139,13.5007138 L12.0518567,13.3031424 C12.1177139,13.2372853 12.0518567,12.9738567 11.9201425,12.5787139" id="Fill-6"></path>
            <path d="M20.4157136,4.80757127 L15.5422852,4.80757127 L15.5422852,4.93928555 C14.8837138,4.93928555 14.2251424,5.20271411 13.6324281,5.72957124 C13.105571,6.32228551 12.9079996,6.98085691 12.9079996,7.70528546 L12.9079996,14.4885709 C12.9079996,14.7519995 12.9738567,14.9495709 13.1714281,15.1471424 C13.3689996,15.3447138 13.566571,15.4105709 13.8299995,15.4105709 C14.0934281,15.4105709 14.2909995,15.3447138 14.4227138,15.1471424 C14.5544281,14.9495709 14.5544281,14.7519995 14.5544281,14.4885709 L14.5544281,8.49557115 L15.2129995,8.49557115 L15.2129995,25.2232849 C15.2129995,25.5525706 15.3447138,25.8159991 15.6081423,26.0794277 C15.8715709,26.3428563 16.1349995,26.4745706 16.4642852,26.4745706 C16.859428,26.4745706 17.1887137,26.3428563 17.3862851,26.0794277 C17.6497137,25.8818563 17.781428,25.5525706 17.781428,25.2232849 L17.781428,15.3447138 L18.1107137,15.3447138 L18.1107137,25.1574277 C18.1107137,25.4867134 18.3082851,25.750142 18.5058565,26.0135706 C18.7692851,26.2769991 19.0985708,26.4087134 19.4937136,26.4087134 C19.8229993,26.4087134 20.152285,26.2769991 20.3498565,26.0135706 C20.613285,25.8159991 20.7449993,25.4867134 20.7449993,25.1574277 L20.7449993,8.42971401 L21.074285,8.42971401 L21.074285,14.4227138 C21.074285,14.6861424 21.2059993,14.8837138 21.4035707,15.0812852 C21.6011421,15.2788566 21.8645707,15.3447138 22.1279993,15.3447138 C22.457285,15.3447138 22.6548564,15.2788566 22.7865707,15.0812852 C22.918285,14.8837138 23.0499992,14.6861424 23.0499992,14.4227138 L23.0499992,7.63942832 C23.0499992,6.91499977 22.7865707,6.19057122 22.2597135,5.6637141 C21.7987136,5.13685697 21.2059993,4.80757127 20.4157136,4.80757127" id="Fill-8"></path>
            <path d="M17.9789994,4.34657128 C18.5717137,4.34657128 19.0985708,4.14899986 19.4937136,3.75385702 C19.8888565,3.35871417 20.152285,2.83185705 20.152285,2.17328564 C20.152285,1.58057138 19.9547136,1.05371425 19.4937136,0.658571407 C19.0985708,0.197571422 18.5717137,-4.4408921e-16 17.9789994,-4.4408921e-16 C17.3862851,-4.4408921e-16 16.859428,0.197571422 16.4642852,0.658571407 C16.0032852,1.05371425 15.8057138,1.58057138 15.8057138,2.17328564 C15.8057138,2.76599991 16.0032852,3.29285703 16.398428,3.75385702 C16.7935709,4.14899986 17.320428,4.34657128 17.9789994,4.34657128" id="Fill-10"></path>
            <path d="M20.4157136,4.80757127 L15.5422852,4.80757127 L15.5422852,4.93928555 C14.8837138,4.93928555 14.2251424,5.20271411 13.6324281,5.72957124 C13.105571,6.32228551 12.9079996,6.98085691 12.9079996,7.70528546 L12.9079996,14.4885709 C12.9079996,14.7519995 12.9738567,14.9495709 13.1714281,15.1471424 C13.3689996,15.3447138 13.566571,15.4105709 13.8299995,15.4105709 C14.0934281,15.4105709 14.2909995,15.3447138 14.4227138,15.1471424 C14.5544281,14.9495709 14.5544281,14.7519995 14.5544281,14.4885709 L14.5544281,8.49557115 L15.2129995,8.49557115 L15.2129995,25.2232849 C15.2129995,25.5525706 15.3447138,25.8159991 15.6081423,26.0794277 C15.8715709,26.3428563 16.1349995,26.4745706 16.4642852,26.4745706 C16.859428,26.4745706 17.1887137,26.3428563 17.3862851,26.0794277 C17.6497137,25.8818563 17.781428,25.5525706 17.781428,25.2232849 L17.781428,15.3447138 L18.1107137,15.3447138 L18.1107137,25.1574277 C18.1107137,25.4867134 18.3082851,25.750142 18.5058565,26.0135706 C18.7692851,26.2769991 19.0985708,26.4087134 19.4937136,26.4087134 C19.8229993,26.4087134 20.152285,26.2769991 20.3498565,26.0135706 C20.613285,25.8159991 20.7449993,25.4867134 20.7449993,25.1574277 L20.7449993,8.42971401 L21.074285,8.42971401 L21.074285,14.4227138 C21.074285,14.6861424 21.2059993,14.8837138 21.4035707,15.0812852 C21.6011421,15.2788566 21.8645707,15.3447138 22.1279993,15.3447138 C22.457285,15.3447138 22.6548564,15.2788566 22.7865707,15.0812852 C22.918285,14.8837138 23.0499992,14.6861424 23.0499992,14.4227138 L23.0499992,7.63942832 C23.0499992,6.91499977 22.7865707,6.19057122 22.2597135,5.6637141 C21.7987136,5.13685697 21.2059993,4.80757127 20.4157136,4.80757127" id="Fill-12"></path>
        </g>
    </g>
</svg>