<?xml version="1.0" encoding="UTF-8"?>
<svg width="27px" height="27px" viewBox="0 0 27 27" version="1.1" xmlns="http://www.w3.org/2000/svg" xmlns:xlink="http://www.w3.org/1999/xlink">
    <!-- Generator: Sketch 50.2 (55047) - http://www.bohemiancoding.com/sketch -->
    <title>icCoupleFF</title>
    <desc>Created with Sketch.</desc>
    <defs></defs>
    <g id="Page-1" stroke="none" stroke-width="1" fill="none" fill-rule="evenodd">
        <g id="icCoupleFF" fill="#666666" fill-rule="nonzero">
            <g id="Page-1">
                <g id="Group-3" transform="translate(3.712500, 0.000000)">
                    <path d="M2.59200009,4.42800015 C3.18600011,4.42800015 3.72600012,4.21200014 4.10400014,3.83400013 C4.53600015,3.40200011 4.75200016,2.8620001 4.75200016,2.26800008 C4.75200016,1.62000005 4.53600015,1.08000004 4.10400014,0.648000022 C3.72600012,0.216000007 3.18600011,0 2.59200009,0 C1.94400006,0 1.40400005,0.216000007 0.972000032,0.648000022 C0.540000018,1.08000004 0.324000011,1.62000005 0.324000011,2.21400007 C0.324000011,2.8620001 0.540000018,3.40200011 0.972000032,3.78000013 C1.40400005,4.21200014 1.94400006,4.42800015 2.59200009,4.42800015" id="Fill-1"></path>
                </g>
                <path d="M12.2040004,12.8520004 C12.0960004,12.4200004 11.9340004,11.8800004 11.7720004,11.2860004 C11.6100004,10.6380004 11.3940004,9.99000033 11.1780004,9.23400031 C10.9620004,8.47800028 10.8000004,7.77600026 10.5840004,7.12800024 C10.4220003,6.58800022 10.0440003,6.0480002 9.61200032,5.61600019 C9.1260003,5.18400017 8.58600029,4.91400016 8.04600027,4.91400016 L4.48200015,4.91400016 C3.94200013,4.91400016 3.45600011,5.18400017 2.9700001,5.61600019 C2.48400008,6.0480002 2.16000007,6.53400022 1.99800007,7.07400024 C1.72800006,7.77600026 1.56600005,8.47800028 1.35000004,9.23400031 C1.13400004,9.99000033 0.918000031,10.6380004 0.756000025,11.2860004 C0.540000018,11.8800004 0.378000013,12.4200004 0.270000009,12.8520004 C0.162000005,13.2840004 0.108000004,13.5540005 0.0540000018,13.6080005 C0,13.7160005 0,13.8240005 0,13.9320005 C0,14.3100005 0.216000007,14.5800005 0.648000022,14.7420005 L0.864000029,14.7960005 C1.29600004,14.7960005 1.62000005,14.5800005 1.72800006,14.1480005 C1.72800006,13.9860005 1.89000006,13.6080005 2.10600007,12.9600004 C2.26800008,12.3120004 2.53800008,11.5560004 2.70000009,10.8000004 C2.9160001,10.0980003 3.18600011,9.28800031 3.51000012,7.93800026 L4.05000013,7.93800026 L1.02600003,18.4140006 L3.83400013,18.4140006 L3.83400013,25.9740009 C3.83400013,26.2980009 3.99600013,26.5140009 4.21200014,26.7300009 C4.37400015,26.8920009 4.64400015,27.0000009 4.96800017,27.0000009 C5.29200018,27.0000009 5.61600019,26.8920009 5.77800019,26.7300009 C5.9400002,26.5680009 6.1560002,26.2980009 6.1560002,25.9740009 L6.1560002,18.4140006 L6.48000022,18.4140006 L6.48000022,25.9740009 C6.48000022,26.2980009 6.58800022,26.5140009 6.75000022,26.7300009 C7.02000023,26.8920009 7.23600024,27.0000009 7.56000025,27.0000009 C7.88400026,27.0000009 8.04600027,26.8920009 8.26200027,26.7300009 C8.47800028,26.5680009 8.53200028,26.2980009 8.53200028,25.9740009 L8.53200028,18.4140006 L11.5020004,18.4140006 L8.47800028,7.93800026 L9.0180003,7.93800026 C9.34200031,9.28800031 9.61200032,10.0440003 9.82800033,10.8000004 C10.0440003,11.5020004 10.2600003,12.2580004 10.4760003,12.9060004 C10.6380004,13.5540005 10.8000004,13.9860005 10.8000004,14.1480005 C10.9080004,14.5800005 11.1780004,14.7960005 11.6640004,14.7960005 L11.8800004,14.7420005 C12.3120004,14.6340005 12.5280004,14.3640005 12.5280004,13.8780005 L12.4740004,13.6620005 C12.4200004,13.5540005 12.3120004,13.2840004 12.2040004,12.8520004" id="Fill-4"></path>
            </g>
            <g id="Page-1_1_" transform="translate(14.175000, 0.000000)">
                <g id="Group-3_1_" transform="translate(3.712500, 0.000000)">
                    <path d="M2.59200009,4.42800015 C3.18600011,4.42800015 3.72600012,4.21200014 4.10400014,3.83400013 C4.53600015,3.40200011 4.75200016,2.8620001 4.75200016,2.26800008 C4.75200016,1.62000005 4.53600015,1.08000004 4.10400014,0.648000022 C3.72600012,0.216000007 3.18600011,0 2.59200009,0 C1.94400006,0 1.40400005,0.216000007 0.972000032,0.648000022 C0.540000018,1.08000004 0.324000011,1.62000005 0.324000011,2.21400007 C0.324000011,2.8620001 0.540000018,3.40200011 0.972000032,3.78000013 C1.40400005,4.21200014 1.94400006,4.42800015 2.59200009,4.42800015" id="Fill-1_1_"></path>
                </g>
                <path d="M12.2040004,12.8520004 C12.0960004,12.4200004 11.9340004,11.8800004 11.7720004,11.2860004 C11.6100004,10.6380004 11.3940004,9.99000033 11.1780004,9.23400031 C10.9620004,8.47800028 10.8000004,7.77600026 10.5840004,7.12800024 C10.4220003,6.58800022 10.0440003,6.0480002 9.61200032,5.61600019 C9.1260003,5.18400017 8.58600029,4.91400016 8.04600027,4.91400016 L4.48200015,4.91400016 C3.94200013,4.91400016 3.45600011,5.18400017 2.9700001,5.61600019 C2.48400008,6.0480002 2.16000007,6.53400022 1.99800007,7.07400024 C1.72800006,7.77600026 1.56600005,8.47800028 1.35000004,9.23400031 C1.13400004,9.99000033 0.918000031,10.6380004 0.756000025,11.2860004 C0.540000018,11.8800004 0.378000013,12.4200004 0.270000009,12.8520004 C0.162000005,13.2840004 0.108000004,13.5540005 0.0540000018,13.6080005 C0,13.7160005 0,13.8240005 0,13.9320005 C0,14.3100005 0.216000007,14.5800005 0.648000022,14.7420005 L0.864000029,14.7960005 C1.29600004,14.7960005 1.62000005,14.5800005 1.72800006,14.1480005 C1.72800006,13.9860005 1.89000006,13.6080005 2.10600007,12.9600004 C2.26800008,12.3120004 2.53800008,11.5560004 2.70000009,10.8000004 C2.9160001,10.0980003 3.18600011,9.28800031 3.51000012,7.93800026 L4.05000013,7.93800026 L1.02600003,18.4140006 L3.83400013,18.4140006 L3.83400013,25.9740009 C3.83400013,26.2980009 3.99600013,26.5140009 4.21200014,26.7300009 C4.37400015,26.8920009 4.64400015,27.0000009 4.96800017,27.0000009 C5.29200018,27.0000009 5.61600019,26.8920009 5.77800019,26.7300009 C5.9400002,26.5680009 6.1560002,26.2980009 6.1560002,25.9740009 L6.1560002,18.4140006 L6.48000022,18.4140006 L6.48000022,25.9740009 C6.48000022,26.2980009 6.58800022,26.5140009 6.75000022,26.7300009 C7.02000023,26.8920009 7.23600024,27.0000009 7.56000025,27.0000009 C7.88400026,27.0000009 8.04600027,26.8920009 8.26200027,26.7300009 C8.47800028,26.5680009 8.53200028,26.2980009 8.53200028,25.9740009 L8.53200028,18.4140006 L11.5020004,18.4140006 L8.47800028,7.93800026 L9.0180003,7.93800026 C9.34200031,9.28800031 9.61200032,10.0440003 9.82800033,10.8000004 C10.0440003,11.5020004 10.2600003,12.2580004 10.4760003,12.9060004 C10.6380004,13.5540005 10.8000004,13.9860005 10.8000004,14.1480005 C10.9080004,14.5800005 11.1780004,14.7960005 11.6640004,14.7960005 L11.8800004,14.7420005 C12.3120004,14.6340005 12.5280004,14.3640005 12.5280004,13.8780005 L12.4740004,13.6620005 C12.4200004,13.5540005 12.3120004,13.2840004 12.2040004,12.8520004" id="Fill-4_1_"></path>
            </g>
        </g>
    </g>
</svg>