<?xml version="1.0" encoding="UTF-8"?>
<svg width="36px" height="27px" viewBox="0 0 36 27" version="1.1" xmlns="http://www.w3.org/2000/svg" xmlns:xlink="http://www.w3.org/1999/xlink">
    <!-- Generator: Sketch 50.2 (55047) - http://www.bohemiancoding.com/sketch -->
    <title>icGroup</title>
    <desc>Created with Sketch.</desc>
    <defs>
        <polygon id="path-1" points="0.317724 0 4.656564 0 4.656564 4.31891341 0.317724 4.31891341 0.317724 4.67918387e-15"></polygon>
        <polygon id="path-3" points="0.317724 0 4.656564 0 4.656564 4.31891341 0.317724 4.31891341 0.317724 4.67918387e-15"></polygon>
        <polygon id="path-5" points="0.313084444 0.000325203252 4.58499556 0.000325203252 4.58499556 4.26559349 0.313084444 4.26559349"></polygon>
        <polygon id="path-7" points="0 21.4633496 0 0.164813008 10.1036385 0.164813008 10.1036385 21.4633496 3.6184605e-16 21.4633496"></polygon>
        <polygon id="path-9" points="0.313084444 0.000325203252 4.58499556 0.000325203252 4.58499556 4.26559349 0.313084444 4.26559349"></polygon>
        <polygon id="path-11" points="0 21.4633496 0 0.164813008 10.1036385 0.164813008 10.1036385 21.4633496 3.6184605e-16 21.4633496"></polygon>
        <polygon id="path-13" points="0.313084444 0.000325203252 4.58499556 0.000325203252 4.58499556 4.26559349 0.313084444 4.26559349"></polygon>
        <polygon id="path-15" points="0 21.4633496 0 0.164813008 10.1036385 0.164813008 10.1036385 21.4633496 3.6184605e-16 21.4633496"></polygon>
        <polygon id="path-17" points="0.313084444 0.000325203252 4.58499556 0.000325203252 4.58499556 4.26559349 0.313084444 4.26559349"></polygon>
        <polygon id="path-19" points="0 21.4633496 0 0.164813008 10.1036385 0.164813008 10.1036385 21.4633496 3.6184605e-16 21.4633496"></polygon>
    </defs>
    <g id="Page-1" stroke="none" stroke-width="1" fill="none" fill-rule="evenodd">
        <g id="icGroup">
            <g id="Page-1" transform="translate(7.920000, 0.000000)">
                <g id="Group-3" transform="translate(3.630000, 0.000000)">
                    <g id="Fill-1-Clipped">
                        <mask id="mask-2" fill="white">
                            <use xlink:href="#path-1"></use>
                        </mask>
                        <g id="path-1"></g>
                        <path d="M2.539944,4.31891341 C3.133614,4.31891341 3.642144,4.12431585 4.037154,3.71865732 C4.443714,3.30345 4.656564,2.78748659 4.656564,2.16484024 C4.656564,1.57281585 4.443714,1.06508415 4.037154,0.645925612 C3.644454,0.214913415 3.133614,-9.87804877e-05 2.539944,-9.87804877e-05 C1.907664,-9.87804877e-05 1.383624,0.214913415 0.947694001,0.645925612 C0.525294,1.06310854 0.317724,1.57281585 0.317724,2.16484024 C0.317724,2.78748659 0.525294,3.30279146 0.949674002,3.71865732 C1.385934,4.12431585 1.909644,4.31891341 2.539944,4.31891341" id="Fill-1" fill="#FFFFFF" fill-rule="nonzero" mask="url(#mask-2)"></path>
                    </g>
                </g>
                <path d="M11.94864,12.5602354 C11.83809,12.1407476 11.68035,11.6188573 11.50083,11.0113573 C11.33088,10.3946378 11.12001,9.727211 10.91904,9.01039388 C10.72302,8.29028412 10.52469,7.59750365 10.33032,6.92941829 C10.14882,6.41707682 9.82377002,5.87147929 9.37133998,5.46615 C8.90604002,5.04863781 8.38529998,4.77633293 7.84905001,4.77633293 L4.38207,4.77633293 C3.86331,4.77633293 3.36666,5.04863781 2.88882,5.46615 C2.40933,5.86950365 2.09913,6.37690612 1.95789,6.888589 C1.71864,7.55667441 1.52361,8.26986953 1.31043,8.98997929 C1.10253,9.70679635 0.903539999,10.3844305 0.720059998,11.00115 C0.53559,11.6079915 0.38247,12.1354793 0.26862,12.5549671 C0.16962,12.9787354 0.0851400002,13.2306256 0.0557700001,13.3030646 C0.01452,13.3880159 0,13.4739549 0,13.5766866 C0,13.9523817 0.19932,14.2167841 0.607860002,14.3679183 L0.830940001,14.4219183 C1.26918,14.4219183 1.54902,14.2181012 1.67706,13.7963085 C1.69125,13.6586744 1.83249,13.2546622 2.0427,12.6168695 C2.22717,11.9711744 2.44068,11.2329549 2.63241,10.5256866 C2.84559,9.81545488 3.11784,9.05682071 3.44091,7.73974759 L3.94779,7.73974759 L1.00056,17.9470646 L3.72933,17.9470646 L3.72933,25.3480281 C3.72933,25.6443695 3.87816,25.8900036 4.08936,26.0678085 C4.28604,26.2525281 4.56654,26.3411012 4.86453,26.3411012 C5.15922,26.3411012 5.48657998,26.2525281 5.67038999,26.0678085 C5.85419999,25.8900036 6.03932998,25.6443695 6.03932998,25.3480281 L6.03932998,17.9470646 L6.36933002,17.9470646 L6.36933002,25.3483573 C6.36933002,25.6446988 6.46866,25.8909915 6.65214001,26.0678085 C6.84617999,26.2525281 7.08246002,26.3414305 7.39265999,26.3414305 C7.68603001,26.3414305 7.88303999,26.2535159 8.08169999,26.0678085 C8.30709,25.8909915 8.34932999,25.6446988 8.34932999,25.3483573 L8.34932999,17.9470646 L11.2299,17.9470646 L8.28695999,7.73974759 L8.79582002,7.73974759 C9.11888998,9.05682071 9.38321998,9.81874759 9.60860999,10.5266744 C9.83367,11.2342719 10.03431,11.9382476 10.23132,12.5839427 C10.39797,13.2214061 10.52436,13.642211 10.55538,13.7798451 C10.66758,14.2009793 10.95039,14.4140159 11.39952,14.4140159 L11.60742,14.3613329 C12.0153,14.2444427 12.22815,13.9810281 12.22815,13.5263085 L12.17304,13.304711 C12.13377,13.2319427 12.06117,12.9836744 11.94864,12.5602354" id="Fill-4" fill="#FFFFFF" fill-rule="nonzero"></path>
            </g>
            <g id="Page-1" transform="translate(14.520000, 0.000000)">
                <g id="Group-3" transform="translate(3.630000, 0.000000)">
                    <g id="Fill-1-Clipped">
                        <mask id="mask-4" fill="white">
                            <use xlink:href="#path-3"></use>
                        </mask>
                        <g id="path-3"></g>
                        <path d="M2.539944,4.31891341 C3.133614,4.31891341 3.642144,4.12431585 4.037154,3.71865732 C4.443714,3.30345 4.656564,2.78748659 4.656564,2.16484024 C4.656564,1.57281585 4.443714,1.06508415 4.037154,0.645925612 C3.644454,0.214913415 3.133614,-9.87804877e-05 2.539944,-9.87804877e-05 C1.907664,-9.87804877e-05 1.383624,0.214913415 0.947694001,0.645925612 C0.525294,1.06310854 0.317724,1.57281585 0.317724,2.16484024 C0.317724,2.78748659 0.525294,3.30279146 0.949674002,3.71865732 C1.385934,4.12431585 1.909644,4.31891341 2.539944,4.31891341" id="Fill-1" fill="#FFFFFF" fill-rule="nonzero" mask="url(#mask-4)"></path>
                    </g>
                </g>
                <path d="M11.94864,12.5602354 C11.83809,12.1407476 11.68035,11.6188573 11.50083,11.0113573 C11.33088,10.3946378 11.12001,9.727211 10.91904,9.01039388 C10.72302,8.29028412 10.52469,7.59750365 10.33032,6.92941829 C10.14882,6.41707682 9.82377002,5.87147929 9.37133998,5.46615 C8.90604002,5.04863781 8.38529998,4.77633293 7.84905001,4.77633293 L4.38207,4.77633293 C3.86331,4.77633293 3.36666,5.04863781 2.88882,5.46615 C2.40933,5.86950365 2.09913,6.37690612 1.95789,6.888589 C1.71864,7.55667441 1.52361,8.26986953 1.31043,8.98997929 C1.10253,9.70679635 0.903539999,10.3844305 0.720059998,11.00115 C0.53559,11.6079915 0.38247,12.1354793 0.26862,12.5549671 C0.16962,12.9787354 0.0851400002,13.2306256 0.0557700001,13.3030646 C0.01452,13.3880159 0,13.4739549 0,13.5766866 C0,13.9523817 0.19932,14.2167841 0.607860002,14.3679183 L0.830940001,14.4219183 C1.26918,14.4219183 1.54902,14.2181012 1.67706,13.7963085 C1.69125,13.6586744 1.83249,13.2546622 2.0427,12.6168695 C2.22717,11.9711744 2.44068,11.2329549 2.63241,10.5256866 C2.84559,9.81545488 3.11784,9.05682071 3.44091,7.73974759 L3.94779,7.73974759 L1.00056,17.9470646 L3.72933,17.9470646 L3.72933,25.3480281 C3.72933,25.6443695 3.87816,25.8900036 4.08936,26.0678085 C4.28604,26.2525281 4.56654,26.3411012 4.86453,26.3411012 C5.15922,26.3411012 5.48657998,26.2525281 5.67038999,26.0678085 C5.85419999,25.8900036 6.03932998,25.6443695 6.03932998,25.3480281 L6.03932998,17.9470646 L6.36933002,17.9470646 L6.36933002,25.3483573 C6.36933002,25.6446988 6.46866,25.8909915 6.65214001,26.0678085 C6.84617999,26.2525281 7.08246002,26.3414305 7.39265999,26.3414305 C7.68603001,26.3414305 7.88303999,26.2535159 8.08169999,26.0678085 C8.30709,25.8909915 8.34932999,25.6446988 8.34932999,25.3483573 L8.34932999,17.9470646 L11.2299,17.9470646 L8.28695999,7.73974759 L8.79582002,7.73974759 C9.11888998,9.05682071 9.38321998,9.81874759 9.60860999,10.5266744 C9.83367,11.2342719 10.03431,11.9382476 10.23132,12.5839427 C10.39797,13.2214061 10.52436,13.642211 10.55538,13.7798451 C10.66758,14.2009793 10.95039,14.4140159 11.39952,14.4140159 L11.60742,14.3613329 C12.0153,14.2444427 12.22815,13.9810281 12.22815,13.5263085 L12.17304,13.304711 C12.13377,13.2319427 12.06117,12.9836744 11.94864,12.5602354" id="Fill-4" fill="#FFFFFF" fill-rule="nonzero"></path>
            </g>
            <g id="Page-1">
                <g id="Group-3" transform="translate(2.607407, 0.325041)">
                    <g id="Fill-1-Clipped">
                        <mask id="mask-6" fill="white">
                            <use xlink:href="#path-5"></use>
                        </mask>
                        <g id="path-5"></g>
                        <path d="M2.44268444,4.26559349 C3.02739556,4.26559349 3.5433363,4.07339837 3.95856593,3.67274796 C4.37379556,3.26071545 4.58499556,2.75144716 4.58499556,2.13811382 C4.58499556,1.55339838 4.37151407,1.05193496 3.9569363,0.637951221 C3.54040296,0.212260162 3.02576592,0.000227642276 2.44268444,0.000227642276 C1.82864,0.000227642276 1.31204741,0.212260162 0.923217777,0.637951221 C0.50864,1.05193496 0.313084444,1.55339838 0.313084444,2.13811382 C0.313084444,2.75307317 0.50864,3.26201626 0.923217777,3.67274796 C1.31432889,4.07339837 1.83092148,4.26559349 2.44268444,4.26559349" id="Fill-1" fill="#010002" fill-rule="nonzero" mask="url(#mask-6)"></path>
                    </g>
                </g>
                <g id="Group-6" transform="translate(0.000000, 4.877886)">
                    <g id="Fill-4-Clipped">
                        <mask id="mask-8" fill="white">
                            <use xlink:href="#path-7"></use>
                        </mask>
                        <g id="path-7"></g>
                        <path d="M7.41735706,0.164813008 L2.60734222,0.164813008 L2.60734222,0.262699187 C1.95549037,0.262699187 1.29060148,0.539447154 0.748260742,1.07343089 C0.204290371,1.63213008 -6.51851852e-05,2.28123577 -6.51851852e-05,3.00481301 L-6.51851852e-05,9.69131709 C-6.51851852e-05,9.94172357 0.0351348148,10.1683902 0.229060741,10.3514797 C0.408645926,10.5322927 0.606482964,10.6142439 0.859727407,10.6142439 C1.15077926,10.6142439 1.29353481,10.5322927 1.47279407,10.3514797 C1.62858666,10.1683902 1.62956444,9.94172357 1.62956444,9.69131709 L1.62956444,3.74204878 L2.28141629,3.74204878 L2.28141629,20.2653008 C2.28141629,20.584 2.40592,20.878309 2.67089778,21.1049756 C2.92023111,21.3557073 3.20346074,21.4633496 3.53851259,21.4633496 C3.90126815,21.4633496 4.23957926,21.3566829 4.47685334,21.1049756 C4.72814222,20.878309 4.8888237,20.5843252 4.8888237,20.2653008 L4.8888237,10.5713171 L5.21474963,10.5713171 L5.21474963,20.2653008 C5.21474963,20.584 5.39759407,20.878309 5.63356442,21.1049756 C5.87083853,21.3557073 6.20621627,21.4633496 6.58168297,21.4633496 C6.9001126,21.4633496 7.20387556,21.3566829 7.45516445,21.1049756 C7.69048295,20.878309 7.82215704,20.5843252 7.82215704,20.2653008 L7.82215704,3.74204878 L8.14808295,3.74204878 L8.14808295,9.69131709 C8.14808295,9.94172357 8.30843854,10.1683902 8.47596447,10.3514797 C8.67543113,10.5322927 8.94692741,10.6142439 9.19821631,10.6142439 C9.49317926,10.6142439 9.7024237,10.5322927 9.87027557,10.3514797 C10.0215052,10.1683902 10.1036385,9.94172357 10.1036385,9.69131709 L10.1036385,3.00513821 C10.1036385,2.2838374 9.87418669,1.58172358 9.32989039,1.02595122 C8.79928294,0.489365853 8.19762368,0.164813008 7.41735706,0.164813008" id="Fill-4" fill="#010002" fill-rule="nonzero" mask="url(#mask-8)"></path>
                    </g>
                </g>
                <g id="Group-9" transform="translate(2.607407, 0.325041)">
                    <g id="Fill-7-Clipped">
                        <mask id="mask-10" fill="white">
                            <use xlink:href="#path-9"></use>
                        </mask>
                        <g id="path-9"></g>
                        <path d="M2.44268444,4.26559349 C3.02739556,4.26559349 3.5433363,4.07339837 3.95856593,3.67274796 C4.37379556,3.26071545 4.58499556,2.75144716 4.58499556,2.13811382 C4.58499556,1.55339838 4.37151407,1.05193496 3.9569363,0.637951221 C3.54040296,0.212260162 3.02576592,0.000227642276 2.44268444,0.000227642276 C1.82864,0.000227642276 1.31204741,0.212260162 0.923217777,0.637951221 C0.50864,1.05193496 0.313084444,1.55339838 0.313084444,2.13811382 C0.313084444,2.75307317 0.50864,3.26201626 0.923217777,3.67274796 C1.31432889,4.07339837 1.83092148,4.26559349 2.44268444,4.26559349" id="Fill-7" fill="#FFFFFF" fill-rule="nonzero" mask="url(#mask-10)"></path>
                    </g>
                </g>
                <g id="Group-12" transform="translate(0.000000, 4.877886)">
                    <g id="Fill-10-Clipped">
                        <mask id="mask-12" fill="white">
                            <use xlink:href="#path-11"></use>
                        </mask>
                        <g id="path-11"></g>
                        <path d="M7.41735706,0.164813008 L2.60734222,0.164813008 L2.60734222,0.262699187 C1.95549037,0.262699187 1.29060148,0.539447154 0.748260742,1.07343089 C0.204290371,1.63213008 -6.51851852e-05,2.28123577 -6.51851852e-05,3.00481301 L-6.51851852e-05,9.69131709 C-6.51851852e-05,9.94172357 0.0351348148,10.1683902 0.229060741,10.3514797 C0.408645926,10.5322927 0.606482964,10.6142439 0.859727407,10.6142439 C1.15077926,10.6142439 1.29353481,10.5322927 1.47279407,10.3514797 C1.62858666,10.1683902 1.62956444,9.94172357 1.62956444,9.69131709 L1.62956444,3.74204878 L2.28141629,3.74204878 L2.28141629,20.2653008 C2.28141629,20.584 2.40592,20.878309 2.67089778,21.1049756 C2.92023111,21.3557073 3.20346074,21.4633496 3.53851259,21.4633496 C3.90126815,21.4633496 4.23957926,21.3566829 4.47685334,21.1049756 C4.72814222,20.878309 4.8888237,20.5843252 4.8888237,20.2653008 L4.8888237,10.5713171 L5.21474963,10.5713171 L5.21474963,20.2653008 C5.21474963,20.584 5.39759407,20.878309 5.63356442,21.1049756 C5.87083853,21.3557073 6.20621627,21.4633496 6.58168297,21.4633496 C6.9001126,21.4633496 7.20387556,21.3566829 7.45516445,21.1049756 C7.69048295,20.878309 7.82215704,20.5843252 7.82215704,20.2653008 L7.82215704,3.74204878 L8.14808295,3.74204878 L8.14808295,9.69131709 C8.14808295,9.94172357 8.30843854,10.1683902 8.47596447,10.3514797 C8.67543113,10.5322927 8.94692741,10.6142439 9.19821631,10.6142439 C9.49317926,10.6142439 9.7024237,10.5322927 9.87027557,10.3514797 C10.0215052,10.1683902 10.1036385,9.94172357 10.1036385,9.69131709 L10.1036385,3.00513821 C10.1036385,2.2838374 9.87418669,1.58172358 9.32989039,1.02595122 C8.79928294,0.489365853 8.19762368,0.164813008 7.41735706,0.164813008" id="Fill-10" fill="#FFFFFF" fill-rule="nonzero" mask="url(#mask-12)"></path>
                    </g>
                </g>
            </g>
            <g id="Page-1" transform="translate(25.080000, 0.000000)">
                <g id="Group-3" transform="translate(2.607407, 0.325041)">
                    <g id="Fill-1-Clipped">
                        <mask id="mask-14" fill="white">
                            <use xlink:href="#path-13"></use>
                        </mask>
                        <g id="path-13"></g>
                        <path d="M2.44268444,4.26559349 C3.02739556,4.26559349 3.5433363,4.07339837 3.95856593,3.67274796 C4.37379556,3.26071545 4.58499556,2.75144716 4.58499556,2.13811382 C4.58499556,1.55339838 4.37151407,1.05193496 3.9569363,0.637951221 C3.54040296,0.212260162 3.02576592,0.000227642276 2.44268444,0.000227642276 C1.82864,0.000227642276 1.31204741,0.212260162 0.923217777,0.637951221 C0.50864,1.05193496 0.313084444,1.55339838 0.313084444,2.13811382 C0.313084444,2.75307317 0.50864,3.26201626 0.923217777,3.67274796 C1.31432889,4.07339837 1.83092148,4.26559349 2.44268444,4.26559349" id="Fill-1" fill="#010002" fill-rule="nonzero" mask="url(#mask-14)"></path>
                    </g>
                </g>
                <g id="Group-6" transform="translate(0.000000, 4.877886)">
                    <g id="Fill-4-Clipped">
                        <mask id="mask-16" fill="white">
                            <use xlink:href="#path-15"></use>
                        </mask>
                        <g id="path-15"></g>
                        <path d="M7.41735706,0.164813008 L2.60734222,0.164813008 L2.60734222,0.262699187 C1.95549037,0.262699187 1.29060148,0.539447154 0.748260742,1.07343089 C0.204290371,1.63213008 -6.51851852e-05,2.28123577 -6.51851852e-05,3.00481301 L-6.51851852e-05,9.69131709 C-6.51851852e-05,9.94172357 0.0351348148,10.1683902 0.229060741,10.3514797 C0.408645926,10.5322927 0.606482964,10.6142439 0.859727407,10.6142439 C1.15077926,10.6142439 1.29353481,10.5322927 1.47279407,10.3514797 C1.62858666,10.1683902 1.62956444,9.94172357 1.62956444,9.69131709 L1.62956444,3.74204878 L2.28141629,3.74204878 L2.28141629,20.2653008 C2.28141629,20.584 2.40592,20.878309 2.67089778,21.1049756 C2.92023111,21.3557073 3.20346074,21.4633496 3.53851259,21.4633496 C3.90126815,21.4633496 4.23957926,21.3566829 4.47685334,21.1049756 C4.72814222,20.878309 4.8888237,20.5843252 4.8888237,20.2653008 L4.8888237,10.5713171 L5.21474963,10.5713171 L5.21474963,20.2653008 C5.21474963,20.584 5.39759407,20.878309 5.63356442,21.1049756 C5.87083853,21.3557073 6.20621627,21.4633496 6.58168297,21.4633496 C6.9001126,21.4633496 7.20387556,21.3566829 7.45516445,21.1049756 C7.69048295,20.878309 7.82215704,20.5843252 7.82215704,20.2653008 L7.82215704,3.74204878 L8.14808295,3.74204878 L8.14808295,9.69131709 C8.14808295,9.94172357 8.30843854,10.1683902 8.47596447,10.3514797 C8.67543113,10.5322927 8.94692741,10.6142439 9.19821631,10.6142439 C9.49317926,10.6142439 9.7024237,10.5322927 9.87027557,10.3514797 C10.0215052,10.1683902 10.1036385,9.94172357 10.1036385,9.69131709 L10.1036385,3.00513821 C10.1036385,2.2838374 9.87418669,1.58172358 9.32989039,1.02595122 C8.79928294,0.489365853 8.19762368,0.164813008 7.41735706,0.164813008" id="Fill-4" fill="#010002" fill-rule="nonzero" mask="url(#mask-16)"></path>
                    </g>
                </g>
                <g id="Group-9" transform="translate(2.607407, 0.325041)">
                    <g id="Fill-7-Clipped">
                        <mask id="mask-18" fill="white">
                            <use xlink:href="#path-17"></use>
                        </mask>
                        <g id="path-17"></g>
                        <path d="M2.44268444,4.26559349 C3.02739556,4.26559349 3.5433363,4.07339837 3.95856593,3.67274796 C4.37379556,3.26071545 4.58499556,2.75144716 4.58499556,2.13811382 C4.58499556,1.55339838 4.37151407,1.05193496 3.9569363,0.637951221 C3.54040296,0.212260162 3.02576592,0.000227642276 2.44268444,0.000227642276 C1.82864,0.000227642276 1.31204741,0.212260162 0.923217777,0.637951221 C0.50864,1.05193496 0.313084444,1.55339838 0.313084444,2.13811382 C0.313084444,2.75307317 0.50864,3.26201626 0.923217777,3.67274796 C1.31432889,4.07339837 1.83092148,4.26559349 2.44268444,4.26559349" id="Fill-7" fill="#FFFFFF" fill-rule="nonzero" mask="url(#mask-18)"></path>
                    </g>
                </g>
                <g id="Group-12" transform="translate(0.000000, 4.877886)">
                    <g id="Fill-10-Clipped">
                        <mask id="mask-20" fill="white">
                            <use xlink:href="#path-19"></use>
                        </mask>
                        <g id="path-19"></g>
                        <path d="M7.41735706,0.164813008 L2.60734222,0.164813008 L2.60734222,0.262699187 C1.95549037,0.262699187 1.29060148,0.539447154 0.748260742,1.07343089 C0.204290371,1.63213008 -6.51851852e-05,2.28123577 -6.51851852e-05,3.00481301 L-6.51851852e-05,9.69131709 C-6.51851852e-05,9.94172357 0.0351348148,10.1683902 0.229060741,10.3514797 C0.408645926,10.5322927 0.606482964,10.6142439 0.859727407,10.6142439 C1.15077926,10.6142439 1.29353481,10.5322927 1.47279407,10.3514797 C1.62858666,10.1683902 1.62956444,9.94172357 1.62956444,9.69131709 L1.62956444,3.74204878 L2.28141629,3.74204878 L2.28141629,20.2653008 C2.28141629,20.584 2.40592,20.878309 2.67089778,21.1049756 C2.92023111,21.3557073 3.20346074,21.4633496 3.53851259,21.4633496 C3.90126815,21.4633496 4.23957926,21.3566829 4.47685334,21.1049756 C4.72814222,20.878309 4.8888237,20.5843252 4.8888237,20.2653008 L4.8888237,10.5713171 L5.21474963,10.5713171 L5.21474963,20.2653008 C5.21474963,20.584 5.39759407,20.878309 5.63356442,21.1049756 C5.87083853,21.3557073 6.20621627,21.4633496 6.58168297,21.4633496 C6.9001126,21.4633496 7.20387556,21.3566829 7.45516445,21.1049756 C7.69048295,20.878309 7.82215704,20.5843252 7.82215704,20.2653008 L7.82215704,3.74204878 L8.14808295,3.74204878 L8.14808295,9.69131709 C8.14808295,9.94172357 8.30843854,10.1683902 8.47596447,10.3514797 C8.67543113,10.5322927 8.94692741,10.6142439 9.19821631,10.6142439 C9.49317926,10.6142439 9.7024237,10.5322927 9.87027557,10.3514797 C10.0215052,10.1683902 10.1036385,9.94172357 10.1036385,9.69131709 L10.1036385,3.00513821 C10.1036385,2.2838374 9.87418669,1.58172358 9.32989039,1.02595122 C8.79928294,0.489365853 8.19762368,0.164813008 7.41735706,0.164813008" id="Fill-10" fill="#FFFFFF" fill-rule="nonzero" mask="url(#mask-20)"></path>
                    </g>
                </g>
            </g>
        </g>
    </g>
</svg>