<?xml version="1.0" encoding="UTF-8"?>
<svg width="36px" height="27px" viewBox="0 0 36 27" version="1.1" xmlns="http://www.w3.org/2000/svg" xmlns:xlink="http://www.w3.org/1999/xlink">
    <!-- Generator: Sketch 50.2 (55047) - http://www.bohemiancoding.com/sketch -->
    <title>icGroup</title>
    <desc>Created with Sketch.</desc>
    <defs></defs>
    <g id="Page-1" stroke="none" stroke-width="1" fill="none" fill-rule="evenodd">
        <g id="icGroup" fill="#666666" fill-rule="nonzero">
            <g id="Page-1" transform="translate(7.920000, 0.000000)">
                <g id="Group-3" transform="translate(3.630000, 0.000000)">
                    <path d="M2.53799996,4.31999993 C3.13199995,4.31999993 3.61799994,4.10399993 4.04999993,3.72599994 C4.42799992,3.29399994 4.64399992,2.80799995 4.64399992,2.15999996 C4.64399992,1.56599997 4.42799992,1.07999998 4.04999993,0.647999989 C3.61799994,0.215999996 3.13199995,0 2.53799996,0 C1.88999997,0 1.40399998,0.215999996 0.971999983,0.647999989 C0.539999991,1.07999998 0.323999994,1.56599997 0.323999994,2.15999996 C0.323999994,2.80799995 0.539999991,3.29399994 0.971999983,3.72599994 C1.40399998,4.10399993 1.88999997,4.31999993 2.53799996,4.31999993" id="Fill-1"></path>
                </g>
                <path d="M11.9339998,12.5819998 C11.8259998,12.1499998 11.6639998,11.6639998 11.5019998,11.0159998 C11.3399998,10.4219998 11.1239998,9.71999983 10.9079998,9.01799985 C10.6919998,8.31599986 10.5299998,7.61399987 10.3139998,6.91199988 C10.1519998,6.42599989 9.82799983,5.8319999 9.34199984,5.45399991 C8.85599985,5.02199991 8.36999986,4.75199992 7.82999987,4.75199992 L4.37399993,4.75199992 C3.83399993,4.75199992 3.34799994,5.02199991 2.86199995,5.45399991 C2.37599996,5.8319999 2.05199996,6.37199989 1.94399997,6.85799988 C1.72799997,7.50599987 1.51199997,8.26199986 1.29599998,8.96399985 C1.07999998,9.71999983 0.917999984,10.3679998 0.701999988,11.0159998 C0.539999991,11.6099998 0.377999994,12.1499998 0.269999995,12.5819998 C0.161999997,13.0139998 0.107999998,13.2839998 0.0539999991,13.3379998 C0,13.3919998 0,13.4999998 0,13.5539998 C0,13.9319998 0.215999996,14.2019998 0.59399999,14.3639998 L0.809999986,14.4179998 C1.24199998,14.4179998 1.51199997,14.2019998 1.67399997,13.7699998 C1.67399997,13.6079998 1.83599997,13.2299998 2.05199996,12.5819998 C2.21399996,11.9339998 2.42999996,11.1779998 2.64599995,10.4759998 C2.86199995,9.77399983 3.13199995,9.01799985 3.45599994,7.66799987 L3.94199993,7.66799987 L1.02599998,17.9279997 L3.77999994,17.9279997 L3.77999994,25.3259996 C3.77999994,25.5959996 3.94199993,25.8659996 4.15799993,26.0279996 C4.37399993,26.1899996 4.64399992,26.2979995 4.91399992,26.2979995 C5.18399991,26.2979995 5.5619999,26.1899996 5.7239999,26.0279996 C5.8859999,25.8659996 6.1019999,25.5959996 6.1019999,25.3259996 L6.1019999,17.9279997 L6.42599989,17.9279997 L6.42599989,25.3259996 C6.42599989,25.5959996 6.53399989,25.8659996 6.69599989,26.0279996 C6.91199988,26.1899996 7.12799988,26.2979995 7.45199987,26.2979995 C7.72199987,26.2979995 7.93799986,26.1899996 8.15399986,26.0279996 C8.36999986,25.8659996 8.42399986,25.5959996 8.42399986,25.3259996 L8.42399986,17.9279997 L11.2859998,17.9279997 L8.36999986,7.72199987 L8.85599985,7.72199987 C9.17999984,9.01799985 9.44999984,9.77399983 9.66599983,10.5299998 C9.88199983,11.2319998 10.0979998,11.9339998 10.3139998,12.5819998 C10.4759998,13.2299998 10.5839998,13.6619998 10.6379998,13.7699998 C10.7459998,14.2019998 11.0159998,14.4179998 11.5019998,14.4179998 L11.7179998,14.3639998 C12.1499998,14.2559998 12.3119998,13.9859998 12.3119998,13.5539998 L12.2579998,13.3379998 C12.1499998,13.2299998 12.0419998,12.9599998 11.9339998,12.5819998" id="Fill-4"></path>
            </g>
            <g id="Page-1_1_" transform="translate(14.520000, 0.000000)">
                <g id="Group-3_1_" transform="translate(3.630000, 0.000000)">
                    <path d="M2.53799996,4.31999993 C3.13199995,4.31999993 3.61799994,4.10399993 4.04999993,3.72599994 C4.42799992,3.29399994 4.64399992,2.80799995 4.64399992,2.15999996 C4.64399992,1.56599997 4.42799992,1.07999998 4.04999993,0.647999989 C3.61799994,0.215999996 3.13199995,0 2.53799996,0 C1.88999997,0 1.40399998,0.215999996 0.971999983,0.647999989 C0.539999991,1.07999998 0.323999994,1.56599997 0.323999994,2.15999996 C0.323999994,2.80799995 0.539999991,3.29399994 0.971999983,3.72599994 C1.40399998,4.10399993 1.88999997,4.31999993 2.53799996,4.31999993" id="Fill-1_1_"></path>
                </g>
                <path d="M11.9339998,12.5819998 C11.8259998,12.1499998 11.6639998,11.6639998 11.5019998,11.0159998 C11.3399998,10.4219998 11.1239998,9.71999983 10.9079998,9.01799985 C10.6919998,8.31599986 10.5299998,7.61399987 10.3139998,6.91199988 C10.1519998,6.42599989 9.82799983,5.8319999 9.34199984,5.45399991 C8.85599985,5.02199991 8.36999986,4.75199992 7.82999987,4.75199992 L4.37399993,4.75199992 C3.83399993,4.75199992 3.34799994,5.02199991 2.86199995,5.45399991 C2.37599996,5.8319999 2.05199996,6.37199989 1.94399997,6.85799988 C1.72799997,7.50599987 1.51199997,8.26199986 1.29599998,8.96399985 C1.07999998,9.71999983 0.917999984,10.3679998 0.701999988,11.0159998 C0.539999991,11.6099998 0.377999994,12.1499998 0.269999995,12.5819998 C0.161999997,13.0139998 0.107999998,13.2839998 0.0539999991,13.3379998 C0,13.3919998 0,13.4999998 0,13.5539998 C0,13.9319998 0.215999996,14.2019998 0.59399999,14.3639998 L0.809999986,14.4179998 C1.24199998,14.4179998 1.51199997,14.2019998 1.67399997,13.7699998 C1.67399997,13.6079998 1.83599997,13.2299998 2.05199996,12.5819998 C2.21399996,11.9339998 2.42999996,11.1779998 2.64599995,10.4759998 C2.86199995,9.77399983 3.13199995,9.01799985 3.45599994,7.66799987 L3.94199993,7.66799987 L1.02599998,17.9279997 L3.77999994,17.9279997 L3.77999994,25.3259996 C3.77999994,25.5959996 3.94199993,25.8659996 4.15799993,26.0279996 C4.37399993,26.1899996 4.64399992,26.2979995 4.91399992,26.2979995 C5.18399991,26.2979995 5.5619999,26.1899996 5.7239999,26.0279996 C5.8859999,25.8659996 6.1019999,25.5959996 6.1019999,25.3259996 L6.1019999,17.9279997 L6.42599989,17.9279997 L6.42599989,25.3259996 C6.42599989,25.5959996 6.53399989,25.8659996 6.69599989,26.0279996 C6.91199988,26.1899996 7.12799988,26.2979995 7.45199987,26.2979995 C7.72199987,26.2979995 7.93799986,26.1899996 8.15399986,26.0279996 C8.36999986,25.8659996 8.42399986,25.5959996 8.42399986,25.3259996 L8.42399986,17.9279997 L11.2859998,17.9279997 L8.36999986,7.72199987 L8.85599985,7.72199987 C9.17999984,9.01799985 9.44999984,9.77399983 9.66599983,10.5299998 C9.88199983,11.2319998 10.0979998,11.9339998 10.3139998,12.5819998 C10.4759998,13.2299998 10.5839998,13.6619998 10.6379998,13.7699998 C10.7459998,14.2019998 11.0159998,14.4179998 11.5019998,14.4179998 L11.7179998,14.3639998 C12.1499998,14.2559998 12.3119998,13.9859998 12.3119998,13.5539998 L12.2579998,13.3379998 C12.1499998,13.2299998 12.0419998,12.9599998 11.9339998,12.5819998" id="Fill-4_1_"></path>
            </g>
            <g id="Page-1_2_">
                <g id="Group-3_2_" transform="translate(2.607407, 0.325041)">
                    <path d="M2.42999996,4.26599993 C3.02399995,4.26599993 3.50999994,4.04999993 3.94199993,3.67199994 C4.37399993,3.23999994 4.58999992,2.75399995 4.58999992,2.15999996 C4.58999992,1.56599997 4.37399993,1.07999998 3.94199993,0.647999989 C3.56399994,0.215999996 3.02399995,0 2.42999996,0 C1.83599997,0 1.29599998,0.215999996 0.917999984,0.647999989 C0.485999992,1.02599998 0.323999994,1.56599997 0.323999994,2.15999996 C0.323999994,2.75399995 0.539999991,3.29399994 0.917999984,3.67199994 C1.29599998,4.04999993 1.83599997,4.26599993 2.42999996,4.26599993" id="Fill-1_2_"></path>
                </g>
                <g id="Group-6" transform="translate(0.000000, 4.877886)">
                    <path d="M7.39799987,0.161999997 L2.59199996,0.161999997 L2.59199996,0.269999995 C1.94399997,0.269999995 1.29599998,0.539999991 0.755999987,1.07999998 C0.215999996,1.61999997 0,2.26799996 0,3.02399995 L0,9.71999983 C0,9.98999983 0.0539999991,10.2059998 0.215999996,10.3679998 C0.377999994,10.5299998 0.59399999,10.6379998 0.863999985,10.6379998 C1.13399998,10.6379998 1.29599998,10.5299998 1.45799998,10.3679998 C1.61999997,10.1519998 1.61999997,9.93599983 1.61999997,9.66599983 L1.61999997,3.72599994 L2.26799996,3.72599994 L2.26799996,20.2499997 C2.26799996,20.5739996 2.37599996,20.8439996 2.64599995,21.1139996 C2.91599995,21.3839996 3.18599995,21.4919996 3.50999994,21.4919996 C3.88799993,21.4919996 4.21199993,21.3839996 4.42799992,21.1139996 C4.69799992,20.8979996 4.85999992,20.5739996 4.85999992,20.2499997 L4.85999992,10.5299998 L5.18399991,10.5299998 L5.18399991,20.2499997 C5.18399991,20.5739996 5.34599991,20.8439996 5.6159999,21.1139996 C5.8319999,21.3839996 6.20999989,21.4919996 6.58799989,21.4919996 C6.91199988,21.4919996 7.23599988,21.3839996 7.45199987,21.1139996 C7.66799987,20.8979996 7.82999987,20.5739996 7.82999987,20.2499997 L7.82999987,3.72599994 L8.15399986,3.72599994 L8.15399986,9.66599983 C8.15399986,9.93599983 8.31599986,10.1519998 8.47799985,10.3139998 C8.69399985,10.4759998 8.96399985,10.5839998 9.17999984,10.5839998 C9.44999984,10.5839998 9.66599983,10.4759998 9.82799983,10.3139998 C9.98999983,10.1519998 10.0439998,9.88199983 10.0439998,9.66599983 L10.0439998,3.02399995 C10.0439998,2.32199996 9.82799983,1.61999997 9.28799984,1.02599998 C8.80199985,0.485999992 8.20799986,0.161999997 7.39799987,0.161999997" id="Fill-4_2_"></path>
                </g>
                <g id="Group-9" transform="translate(2.607407, 0.325041)">
                    <path d="M2.42999996,4.26599993 C3.02399995,4.26599993 3.50999994,4.04999993 3.94199993,3.67199994 C4.37399993,3.23999994 4.58999992,2.75399995 4.58999992,2.15999996 C4.58999992,1.56599997 4.37399993,1.07999998 3.94199993,0.647999989 C3.56399994,0.215999996 3.02399995,0 2.42999996,0 C1.83599997,0 1.29599998,0.215999996 0.917999984,0.647999989 C0.485999992,1.02599998 0.323999994,1.56599997 0.323999994,2.15999996 C0.323999994,2.75399995 0.539999991,3.29399994 0.917999984,3.67199994 C1.29599998,4.04999993 1.83599997,4.26599993 2.42999996,4.26599993" id="Fill-7"></path>
                </g>
                <g id="Group-12" transform="translate(0.000000, 4.877886)">
                    <path d="M7.39799987,0.161999997 L2.59199996,0.161999997 L2.59199996,0.269999995 C1.94399997,0.269999995 1.29599998,0.539999991 0.755999987,1.07999998 C0.215999996,1.61999997 0,2.26799996 0,3.02399995 L0,9.71999983 C0,9.98999983 0.0539999991,10.2059998 0.215999996,10.3679998 C0.377999994,10.5299998 0.59399999,10.6379998 0.863999985,10.6379998 C1.13399998,10.6379998 1.29599998,10.5299998 1.45799998,10.3679998 C1.61999997,10.1519998 1.61999997,9.93599983 1.61999997,9.66599983 L1.61999997,3.72599994 L2.26799996,3.72599994 L2.26799996,20.2499997 C2.26799996,20.5739996 2.37599996,20.8439996 2.64599995,21.1139996 C2.91599995,21.3839996 3.18599995,21.4919996 3.50999994,21.4919996 C3.88799993,21.4919996 4.21199993,21.3839996 4.42799992,21.1139996 C4.69799992,20.8979996 4.85999992,20.5739996 4.85999992,20.2499997 L4.85999992,10.5299998 L5.18399991,10.5299998 L5.18399991,20.2499997 C5.18399991,20.5739996 5.34599991,20.8439996 5.6159999,21.1139996 C5.8319999,21.3839996 6.20999989,21.4919996 6.58799989,21.4919996 C6.91199988,21.4919996 7.23599988,21.3839996 7.45199987,21.1139996 C7.66799987,20.8979996 7.82999987,20.5739996 7.82999987,20.2499997 L7.82999987,3.72599994 L8.15399986,3.72599994 L8.15399986,9.66599983 C8.15399986,9.93599983 8.31599986,10.1519998 8.47799985,10.3139998 C8.69399985,10.4759998 8.96399985,10.5839998 9.17999984,10.5839998 C9.44999984,10.5839998 9.66599983,10.4759998 9.82799983,10.3139998 C9.98999983,10.1519998 10.0439998,9.88199983 10.0439998,9.66599983 L10.0439998,3.02399995 C10.0439998,2.32199996 9.82799983,1.61999997 9.28799984,1.02599998 C8.80199985,0.485999992 8.20799986,0.161999997 7.39799987,0.161999997" id="Fill-10"></path>
                </g>
            </g>
            <g id="Page-1_3_" transform="translate(25.079999, 0.000000)">
                <g id="Group-3_3_" transform="translate(2.607407, 0.325041)">
                    <path d="M2.42999996,4.26599993 C3.02399995,4.26599993 3.50999994,4.04999993 3.94199993,3.67199994 C4.37399993,3.23999994 4.58999992,2.75399995 4.58999992,2.15999996 C4.58999992,1.56599997 4.37399993,1.07999998 3.94199993,0.647999989 C3.56399994,0.215999996 3.02399995,0 2.42999996,0 C1.83599997,0 1.29599998,0.215999996 0.917999984,0.647999989 C0.485999992,1.02599998 0.323999994,1.56599997 0.323999994,2.15999996 C0.323999994,2.75399995 0.539999991,3.29399994 0.917999984,3.67199994 C1.29599998,4.04999993 1.83599997,4.26599993 2.42999996,4.26599993" id="Fill-1_3_"></path>
                </g>
                <g id="Group-6_1_" transform="translate(0.000000, 4.877886)">
                    <path d="M7.39799987,0.161999997 L2.59199996,0.161999997 L2.59199996,0.269999995 C1.94399997,0.269999995 1.29599998,0.539999991 0.755999987,1.07999998 C0.215999996,1.61999997 0,2.26799996 0,3.02399995 L0,9.71999983 C0,9.98999983 0.0539999991,10.2059998 0.215999996,10.3679998 C0.377999994,10.5299998 0.59399999,10.6379998 0.863999985,10.6379998 C1.13399998,10.6379998 1.29599998,10.5299998 1.45799998,10.3679998 C1.61999997,10.1519998 1.61999997,9.93599983 1.61999997,9.66599983 L1.61999997,3.72599994 L2.26799996,3.72599994 L2.26799996,20.2499997 C2.26799996,20.5739996 2.37599996,20.8439996 2.64599995,21.1139996 C2.91599995,21.3839996 3.18599995,21.4919996 3.50999994,21.4919996 C3.88799993,21.4919996 4.21199993,21.3839996 4.42799992,21.1139996 C4.69799992,20.8979996 4.85999992,20.5739996 4.85999992,20.2499997 L4.85999992,10.5299998 L5.18399991,10.5299998 L5.18399991,20.2499997 C5.18399991,20.5739996 5.34599991,20.8439996 5.6159999,21.1139996 C5.8319999,21.3839996 6.20999989,21.4919996 6.58799989,21.4919996 C6.91199988,21.4919996 7.23599988,21.3839996 7.45199987,21.1139996 C7.66799987,20.8979996 7.82999987,20.5739996 7.82999987,20.2499997 L7.82999987,3.72599994 L8.15399986,3.72599994 L8.15399986,9.66599983 C8.15399986,9.93599983 8.31599986,10.1519998 8.47799985,10.3139998 C8.69399985,10.4759998 8.96399985,10.5839998 9.17999984,10.5839998 C9.44999984,10.5839998 9.66599983,10.4759998 9.82799983,10.3139998 C9.98999983,10.1519998 10.0439998,9.88199983 10.0439998,9.66599983 L10.0439998,3.02399995 C10.0439998,2.32199996 9.82799983,1.61999997 9.28799984,1.02599998 C8.80199985,0.485999992 8.20799986,0.161999997 7.39799987,0.161999997" id="Fill-4_3_"></path>
                </g>
                <g id="Group-9_1_" transform="translate(2.607407, 0.325041)">
                    <path d="M2.42999996,4.26599993 C3.02399995,4.26599993 3.50999994,4.04999993 3.94199993,3.67199994 C4.37399993,3.23999994 4.58999992,2.75399995 4.58999992,2.15999996 C4.58999992,1.56599997 4.37399993,1.07999998 3.94199993,0.647999989 C3.56399994,0.215999996 3.02399995,0 2.42999996,0 C1.83599997,0 1.29599998,0.215999996 0.917999984,0.647999989 C0.485999992,1.02599998 0.323999994,1.56599997 0.323999994,2.15999996 C0.323999994,2.75399995 0.539999991,3.29399994 0.917999984,3.67199994 C1.29599998,4.04999993 1.83599997,4.26599993 2.42999996,4.26599993" id="Fill-7_1_"></path>
                </g>
                <g id="Group-12_1_" transform="translate(0.000000, 4.877886)">
                    <path d="M7.39799987,0.161999997 L2.59199996,0.161999997 L2.59199996,0.269999995 C1.94399997,0.269999995 1.29599998,0.539999991 0.755999987,1.07999998 C0.215999996,1.61999997 0,2.26799996 0,3.02399995 L0,9.71999983 C0,9.98999983 0.0539999991,10.2059998 0.215999996,10.3679998 C0.377999994,10.5299998 0.59399999,10.6379998 0.863999985,10.6379998 C1.13399998,10.6379998 1.29599998,10.5299998 1.45799998,10.3679998 C1.61999997,10.1519998 1.61999997,9.93599983 1.61999997,9.66599983 L1.61999997,3.72599994 L2.26799996,3.72599994 L2.26799996,20.2499997 C2.26799996,20.5739996 2.37599996,20.8439996 2.64599995,21.1139996 C2.91599995,21.3839996 3.18599995,21.4919996 3.50999994,21.4919996 C3.88799993,21.4919996 4.21199993,21.3839996 4.42799992,21.1139996 C4.69799992,20.8979996 4.85999992,20.5739996 4.85999992,20.2499997 L4.85999992,10.5299998 L5.18399991,10.5299998 L5.18399991,20.2499997 C5.18399991,20.5739996 5.34599991,20.8439996 5.6159999,21.1139996 C5.8319999,21.3839996 6.20999989,21.4919996 6.58799989,21.4919996 C6.91199988,21.4919996 7.23599988,21.3839996 7.45199987,21.1139996 C7.66799987,20.8979996 7.82999987,20.5739996 7.82999987,20.2499997 L7.82999987,3.72599994 L8.15399986,3.72599994 L8.15399986,9.66599983 C8.15399986,9.93599983 8.31599986,10.1519998 8.47799985,10.3139998 C8.69399985,10.4759998 8.96399985,10.5839998 9.17999984,10.5839998 C9.44999984,10.5839998 9.66599983,10.4759998 9.82799983,10.3139998 C9.98999983,10.1519998 10.0439998,9.88199983 10.0439998,9.66599983 L10.0439998,3.02399995 C10.0439998,2.32199996 9.82799983,1.61999997 9.28799984,1.02599998 C8.80199985,0.485999992 8.20799986,0.161999997 7.39799987,0.161999997" id="Fill-10_1_"></path>
                </g>
            </g>
        </g>
    </g>
</svg>