<?xml version="1.0" encoding="UTF-8"?>
<svg width="11px" height="27px" viewBox="0 0 11 27" version="1.1" xmlns="http://www.w3.org/2000/svg" xmlns:xlink="http://www.w3.org/1999/xlink">
    <!-- Generator: Sketch 50.2 (55047) - http://www.bohemiancoding.com/sketch -->
    <title>icMen</title>
    <desc>Created with Sketch.</desc>
    <defs></defs>
    <g id="Page-1" stroke="none" stroke-width="1" fill="none" fill-rule="evenodd">
        <g id="icMen" fill="#666666" fill-rule="nonzero">
            <g id="Group-9" transform="translate(2.666667, 0.325041)">
                <path d="M2.48400004,4.26600008 C3.07800005,4.26600008 3.61800006,4.05000007 4.05000007,3.67200006 C4.48200008,3.24000006 4.69800008,2.75400005 4.69800008,2.16000004 C4.69800008,1.56600003 4.48200008,1.08000002 4.05000007,0.648000011 C3.61800006,0.216000004 3.07800005,0 2.48400004,0 C1.89000003,0 1.35000002,0.216000004 0.918000016,0.648000011 C0.54000001,1.02600002 0.324000006,1.56600003 0.324000006,2.16000004 C0.324000006,2.75400005 0.54000001,3.24000006 0.918000016,3.67200006 C1.35000002,4.05000007 1.89000003,4.26600008 2.48400004,4.26600008" id="Fill-7"></path>
            </g>
            <g id="Group-12" transform="translate(0.000000, 4.877887)">
                <path d="M2.64600005,0.162000003 L2.64600005,0.270000005 C1.99800004,0.270000005 1.29600002,0.54000001 0.756000013,1.08000002 C0.216000004,1.62000003 0,2.26800004 0,3.02400005 L0,9.72000017 C0,9.99000018 0.054000001,10.2060002 0.216000004,10.3680002 C0.378000007,10.5300002 0.59400001,10.6380002 0.864000015,10.6380002 C1.18800002,10.6380002 1.29600002,10.5300002 1.51200003,10.3680002 C1.67400003,10.2060002 1.67400003,9.93600018 1.67400003,9.72000017 L1.67400003,3.78000007 L2.32200004,3.78000007 L2.32200004,20.3040004 C2.32200004,20.6280004 2.43000004,20.8980004 2.70000005,21.1680004 C2.97000005,21.4380004 3.24000006,21.5460004 3.56400006,21.5460004 C3.94200007,21.5460004 4.26600008,21.4380004 4.53600008,21.1680004 C4.80600008,20.9520004 4.96800009,20.6280004 4.96800009,20.3040004 L4.96800009,10.5840002 L5.29200009,10.5840002 L5.29200009,20.3040004 C5.29200009,20.6280004 5.4540001,20.8980004 5.7240001,21.1680004 C5.9400001,21.4380004 6.31800011,21.5460004 6.69600012,21.5460004 C7.02000012,21.5460004 7.34400013,21.4380004 7.61400013,21.1680004 C7.83000014,20.9520004 7.99200014,20.6280004 7.99200014,20.3040004 L7.99200014,3.72600007 L8.31600015,3.72600007 L8.31600015,9.66600017 C8.31600015,9.93600018 8.47800015,10.1520002 8.64000015,10.3140002 C8.85600016,10.4760002 9.12600016,10.5840002 9.39600017,10.5840002 C9.72000017,10.5840002 9.93600018,10.4760002 10.0980002,10.3140002 C10.2600002,10.1520002 10.3140002,9.88200017 10.3140002,9.66600017 L10.3140002,3.02400005 C10.3140002,2.32200004 10.0980002,1.62000003 9.50400017,1.02600002 C8.96400016,0.486000009 8.37000015,0.162000003 7.56000013,0.162000003 L2.64600005,0.162000003 Z" id="Fill-10"></path>
            </g>
        </g>
    </g>
</svg>