<?xml version="1.0" encoding="UTF-8"?>
<svg width="11px" height="27px" viewBox="0 0 11 27" version="1.1" xmlns="http://www.w3.org/2000/svg" xmlns:xlink="http://www.w3.org/1999/xlink">
    <!-- Generator: Sketch 50.2 (55047) - http://www.bohemiancoding.com/sketch -->
    <title>icMen</title>
    <desc>Created with Sketch.</desc>
    <defs>
        <polygon id="path-1" points="0.3202 0.000325203252 4.6892 0.000325203252 4.6892 4.26559349 0.3202 4.26559349"></polygon>
        <polygon id="path-3" points="0 21.4633496 0 0.164813008 10.3332667 0.164813008 10.3332667 21.4633496 3.70069824e-16 21.4633496"></polygon>
    </defs>
    <g id="Page-1" stroke="none" stroke-width="1" fill="none" fill-rule="evenodd">
        <g id="icMen">
            <g id="Group-9" transform="translate(2.666667, 0.325041)">
                <g id="Fill-7-Clipped">
                    <mask id="mask-2" fill="white">
                        <use xlink:href="#path-1"></use>
                    </mask>
                    <g id="path-1"></g>
                    <path d="M2.4982,4.26559349 C3.0962,4.26559349 3.62386667,4.07339837 4.04853333,3.67274796 C4.4732,3.26071545 4.6892,2.75144716 4.6892,2.13811382 C4.6892,1.55339838 4.47086667,1.05193496 4.04686667,0.637951221 C3.62086667,0.212260162 3.09453333,0.000227642276 2.4982,0.000227642276 C1.8702,0.000227642276 1.34186667,0.212260162 0.944200001,0.637951221 C0.5202,1.05193496 0.3202,1.55339838 0.3202,2.13811382 C0.3202,2.75307317 0.5202,3.26201626 0.944200001,3.67274796 C1.3442,4.07339837 1.87253333,4.26559349 2.4982,4.26559349" id="Fill-7" fill="#FFFFFF" fill-rule="nonzero" mask="url(#mask-2)"></path>
                </g>
            </g>
            <g id="Group-12" transform="translate(0.000000, 4.877886)">
                <g id="Fill-10-Clipped">
                    <mask id="mask-4" fill="white">
                        <use xlink:href="#path-3"></use>
                    </mask>
                    <g id="path-3"></g>
                    <path d="M2.6666,0.164813008 L2.6666,0.262699187 C1.99993334,0.262699187 1.31993333,0.539447154 0.765266665,1.07343089 C0.208933333,1.63213008 -6.66666666e-05,2.28123577 -6.66666666e-05,3.00481301 L-6.66666666e-05,9.69131709 C-6.66666666e-05,9.94172357 0.0359333333,10.1683902 0.234266666,10.3514797 C0.417933333,10.5322927 0.620266669,10.6142439 0.879266664,10.6142439 C1.17693333,10.6142439 1.32293333,10.5322927 1.50626667,10.3514797 C1.6656,10.1683902 1.6666,9.94172357 1.6666,9.69131709 L1.6666,3.74204878 L2.33326667,3.74204878 L2.33326667,20.2653008 C2.33326667,20.584 2.4606,20.878309 2.7316,21.1049756 C2.9866,21.3557073 3.27626666,21.4633496 3.61893334,21.4633496 C3.98993333,21.4633496 4.33593333,21.3566829 4.5786,21.1049756 C4.8356,20.878309 4.99993333,20.5843252 4.99993333,20.2653008 L4.99993333,10.5713171 L5.33326667,10.5713171 L5.33326667,20.2653008 C5.33326667,20.584 5.52026664,20.878309 5.76159998,21.1049756 C6.00426664,21.3557073 6.34726665,21.4633496 6.73126664,21.4633496 C7.05693335,21.4633496 7.3676,21.3566829 7.62459998,21.1049756 C7.86526664,20.878309 7.99993336,20.5843252 7.99993336,20.2653008 L7.99993336,3.74204878 L8.33326666,3.74204878 L8.33326666,9.69131709 C8.33326666,9.94172357 8.49726666,10.1683902 8.66860002,10.3514797 C8.87259998,10.5322927 9.15026668,10.6142439 9.40726667,10.6142439 C9.70893335,10.6142439 9.92293335,10.5322927 10.0946,10.3514797 C10.2492667,10.1683902 10.3332667,9.94172357 10.3332667,9.69131709 L10.3332667,3.00513821 C10.3332667,2.2838374 10.0986,1.58172358 9.54193333,1.02595122 C8.99926664,0.489365853 8.38393335,0.164813008 7.58593334,0.164813008 L2.6666,0.164813008 Z" id="Fill-10" fill="#FFFFFF" fill-rule="nonzero" mask="url(#mask-4)"></path>
                </g>
            </g>
        </g>
    </g>
</svg>