<?xml version="1.0" encoding="UTF-8"?>
<svg width="41px" height="27px" viewBox="0 0 41 27" version="1.1" xmlns="http://www.w3.org/2000/svg" xmlns:xlink="http://www.w3.org/1999/xlink">
    <!-- Generator: Sketch 50.2 (55047) - http://www.bohemiancoding.com/sketch -->
    <title>icTransMan</title>
    <desc>Created with Sketch.</desc>
    <defs>
        <polygon id="path-1" points="0.324945 0 4.762395 0 4.762395 4.42688625 0.324945 4.42688625 0.324945 4.79616347e-15"></polygon>
    </defs>
    <g id="Page-1" stroke="none" stroke-width="1" fill="none" fill-rule="evenodd">
        <g id="icTransMan">
            <g id="Page-1">
                <g id="Group-3" transform="translate(3.712500, 0.000000)">
                    <g id="Fill-1-Clipped">
                        <mask id="mask-2" fill="white">
                            <use xlink:href="#path-1"></use>
                        </mask>
                        <g id="path-1"></g>
                        <path d="M2.59767,4.42688625 C3.2048325,4.42688625 3.72492,4.22742375 4.1289075,3.81162375 C4.5447075,3.38603625 4.762395,2.85717375 4.762395,2.21896125 C4.762395,1.61213625 4.5447075,1.09171125 4.1289075,0.66207375 C3.7272825,0.22028625 3.2048325,-0.00010125 2.59767,-0.00010125 C1.95102,-0.00010125 1.41507,0.22028625 0.9692325,0.66207375 C0.5372325,1.08968625 0.324945,1.61213625 0.324945,2.21896125 C0.324945,2.85717375 0.5372325,3.38536125 0.9712575,3.81162375 C1.4174325,4.22742375 1.953045,4.42688625 2.59767,4.42688625" id="Fill-1" fill="#FFFFFF" fill-rule="nonzero" mask="url(#mask-2)"></path>
                    </g>
                </g>
                <path d="M12.2202,12.8742413 C12.1071375,12.4442663 11.9458125,11.9093288 11.7622125,11.2866413 C11.5884,10.6545037 11.3727375,9.97039125 11.1672,9.23565375 C10.966725,8.49754125 10.7638875,7.78744125 10.5651,7.10265375 C10.379475,6.57750375 10.0470375,6.01826625 9.584325,5.60280375 C9.10845,5.17485375 8.575875,4.89574125 8.0274375,4.89574125 L4.4816625,4.89574125 C3.9511125,4.89574125 3.443175,5.17485375 2.954475,5.60280375 C2.4640875,6.01624125 2.1468375,6.53632875 2.0023875,7.06080375 C1.7577,7.74559125 1.5582375,8.47661625 1.3402125,9.21472875 C1.1275875,9.94946625 0.924075,10.6440413 0.736425,11.2761787 C0.5477625,11.8981913 0.3911625,12.4388663 0.274725,12.8688413 C0.173475,13.3032038 0.087075,13.5613913 0.0570375,13.6356413 C0.01485,13.7227163 0,13.8108038 0,13.9161038 C0,14.3011913 0.20385,14.5722038 0.621675,14.7271163 L0.849825,14.7824663 C1.298025,14.7824663 1.584225,14.5735538 1.715175,14.1412163 C1.7296875,14.0001413 1.8741375,13.5860288 2.089125,12.9322913 C2.2777875,12.2704538 2.49615,11.5137788 2.6922375,10.7888288 C2.9102625,10.0608413 3.1887,9.28324125 3.5191125,7.93324125 L4.0375125,7.93324125 L1.0233,18.3957413 L3.8140875,18.3957413 L3.8140875,25.9817288 C3.8140875,26.2854788 3.9663,26.5372538 4.1823,26.7195038 C4.38345,26.9088413 4.670325,26.9996288 4.9750875,26.9996288 C5.276475,26.9996288 5.611275,26.9088413 5.7992625,26.7195038 C5.98725,26.5372538 6.1765875,26.2854788 6.1765875,25.9817288 L6.1765875,18.3957413 L6.5140875,18.3957413 L6.5140875,25.9820663 C6.5140875,26.2858163 6.615675,26.5382663 6.803325,26.7195038 C7.001775,26.9088413 7.243425,26.9999663 7.560675,26.9999663 C7.8607125,26.9999663 8.0622,26.9098538 8.265375,26.7195038 C8.4958875,26.5382663 8.5390875,26.2858163 8.5390875,25.9820663 L8.5390875,18.3957413 L11.485125,18.3957413 L8.4753,7.93324125 L8.995725,7.93324125 C9.3261375,9.28324125 9.596475,10.0642163 9.8269875,10.7898413 C10.0571625,11.5151287 10.2623625,12.2367038 10.46385,12.8985413 C10.6342875,13.5519413 10.76355,13.9832663 10.795275,14.1243413 C10.910025,14.5560038 11.1992625,14.7743663 11.6586,14.7743663 L11.871225,14.7203663 C12.288375,14.6005538 12.5060625,14.3305538 12.5060625,13.8644663 L12.4497,13.6373288 C12.4095375,13.5627413 12.3352875,13.3082663 12.2202,12.8742413" id="Fill-4" fill="#FFFFFF" fill-rule="nonzero"></path>
            </g>
            <path d="M37.5249375,3.8113875 C37.9549125,3.383775 38.1736125,2.85525 38.1736125,2.218725 C38.1736125,1.6119 37.95255,1.091475 37.52325,0.6618375 C37.091925,0.22005 36.5590125,0 35.955225,0 C35.319375,0 34.7844375,0.22005 34.3818,0.6618375 C33.9525,1.091475 33.75,1.6119 33.75,2.218725 C33.75,2.8569375 33.9525,3.3854625 34.3818,3.8113875 C34.7868,4.2271875 35.3217375,4.42665 35.955225,4.42665 C36.5607,4.42665 37.0949625,4.2271875 37.5249375,3.8113875 Z" id="Fill-10" fill="#FFFFFF" fill-rule="nonzero"></path>
            <path d="M33.075,4.725 L33.075,4.8265875 C32.4,4.8265875 31.7115,5.1138 31.1499,5.667975 C30.5866125,6.2478 30.375,6.92145 30.375,7.6723875 L30.375,14.611725 C30.375,14.8716 30.41145,15.1068375 30.6122625,15.29685 C30.798225,15.4845 31.0030875,15.56955 31.265325,15.56955 C31.5667125,15.56955 31.7145375,15.4845 31.899825,15.29685 C32.0614875,15.1068375 32.0625,14.8716 32.0625,14.611725 L32.0625,8.4375 L32.7375,8.4375 L32.7375,25.5855375 C32.7375,25.9162875 32.866425,26.221725 33.1408125,26.4569625 C33.399,26.717175 33.6922875,26.8288875 34.0392375,26.8288875 C34.414875,26.8288875 34.7652,26.7181875 35.0109,26.4569625 C35.2711125,26.221725 35.4375,25.916625 35.4375,25.5855375 L35.4375,15.525 L35.775,15.525 L35.775,25.5855375 C35.775,25.9162875 35.9643375,26.221725 36.2086875,26.4569625 C36.4543875,26.717175 36.801675,26.8288875 37.190475,26.8288875 C37.5202125,26.8288875 37.8347625,26.7181875 38.094975,26.4569625 C38.33865,26.221725 38.475,25.916625 38.475,25.5855375 L38.475,8.4375 L38.8125,8.4375 L38.8125,14.611725 C38.8125,14.8716 38.97855,15.1068375 39.152025,15.29685 C39.358575,15.4845 39.6397125,15.56955 39.899925,15.56955 C40.2053625,15.56955 40.4220375,15.4845 40.59585,15.29685 C40.75245,15.1068375 40.8375,14.8716 40.8375,14.611725 L40.8375,7.672725 C40.8375,6.92415 40.5999,6.1954875 40.036275,5.6183625 C39.486825,5.061825 38.8638,4.725 38.055825,4.725 L33.075,4.725 Z" id="Fill-12" fill="#FFFFFF" fill-rule="nonzero"></path>
            <g id="Group-4" transform="translate(16.200000, 13.500000)" stroke="#FFFFFF" stroke-width="2">
                <polyline id="Path-3" points="6.75 0 10.125 2.70450831 6.9218062 5.27134217"></polyline>
                <path d="M9.78338061,2.7 L0.0672363281,2.7" id="Path-4"></path>
            </g>
        </g>
    </g>
</svg>