<?xml version="1.0" encoding="UTF-8"?>
<svg width="42px" height="28px" viewBox="0 0 42 28" version="1.1" xmlns="http://www.w3.org/2000/svg" xmlns:xlink="http://www.w3.org/1999/xlink">
    <!-- Generator: Sketch 50.2 (55047) - http://www.bohemiancoding.com/sketch -->
    <title>icTransMan</title>
    <desc>Created with Sketch.</desc>
    <defs></defs>
    <g id="Page-1" stroke="none" stroke-width="1" fill="none" fill-rule="evenodd">
        <g id="icTransMan" transform="translate(1.000000, 0.000000)" fill="#666666" fill-rule="nonzero" stroke="#666666">
            <g id="Page-1" transform="translate(0.000000, 0.658537)">
                <g id="Group-3" transform="translate(3.621951, 0.000000)">
                    <path d="M2.50243902,4.34634146 C3.09512195,4.34634146 3.62195122,4.14878049 4.01707317,3.75365854 C4.41219512,3.29268293 4.67560976,2.76585366 4.67560976,2.17317073 C4.67560976,1.5804878 4.47804878,1.05365854 4.08292683,0.658536585 C3.62195122,0.197560976 3.09512195,0 2.50243902,0 C1.84390244,0 1.31707317,0.197560976 0.92195122,0.658536585 C0.526829268,1.05365854 0.263414634,1.5804878 0.263414634,2.17317073 C0.263414634,2.76585366 0.46097561,3.29268293 0.92195122,3.75365854 C1.38292683,4.14878049 1.9097561,4.34634146 2.50243902,4.34634146" id="Fill-1"></path>
                </g>
                <path d="M11.9195122,12.5780488 C11.7878049,12.1829268 11.6560976,11.6560976 11.4585366,10.997561 C11.2609756,10.404878 11.0634146,9.74634146 10.8658537,9.02195122 C10.6682927,8.29756098 10.4707317,7.63902439 10.2731707,6.91463415 C10.0756098,6.38780488 9.74634146,5.86097561 9.28536585,5.46585366 C8.82439024,5.07073171 8.29756098,4.80731707 7.77073171,4.80731707 L4.34634146,4.80731707 C3.8195122,4.80731707 3.35853659,5.07073171 2.83170732,5.46585366 C2.43658537,5.86097561 2.10731707,6.38780488 1.97560976,6.91463415 C1.71219512,7.57317073 1.51463415,8.29756098 1.31707317,9.02195122 C1.1195122,9.74634146 0.92195122,10.404878 0.724390244,11.0634146 C0.526829268,11.6560976 0.395121951,12.1829268 0.263414634,12.6439024 C0.131707317,13.0390244 0.0658536585,13.302439 0.0658536585,13.3682927 C0,13.3682927 0,13.5 0,13.5658537 C0,13.9609756 0.197560976,14.2243902 0.592682927,14.3560976 L0.790243902,14.4219512 C1.25121951,14.4219512 1.51463415,14.2243902 1.64634146,13.7634146 C1.64634146,13.6317073 1.77804878,13.2365854 2.04146341,12.5780488 C2.23902439,11.9195122 2.43658537,11.195122 2.63414634,10.4707317 C2.83170732,9.74634146 3.09512195,9.02195122 3.42439024,7.70487805 L3.95121951,7.70487805 L0.987804878,17.9780488 L3.68780488,17.9780488 L3.68780488,25.3536585 C3.68780488,25.6170732 3.8195122,25.8804878 4.01707317,26.0780488 C4.2804878,26.2756098 4.54390244,26.3414634 4.87317073,26.3414634 C5.13658537,26.3414634 5.46585366,26.2756098 5.66341463,26.0780488 C5.86097561,25.8804878 6.05853659,25.6829268 6.05853659,25.3536585 L6.05853659,17.9780488 L6.38780488,17.9780488 L6.38780488,25.3536585 C6.38780488,25.6829268 6.5195122,25.8804878 6.65121951,26.0780488 C6.84878049,26.2756098 7.11219512,26.3414634 7.37560976,26.3414634 C7.63902439,26.3414634 7.83658537,26.2756098 8.03414634,26.0780488 C8.23170732,25.8804878 8.29756098,25.6829268 8.29756098,25.3536585 L8.29756098,17.9780488 L11.195122,17.9780488 L8.23170732,7.77073171 L8.75853659,7.77073171 C9.08780488,9.08780488 9.35121951,9.87804878 9.54878049,10.5365854 C9.74634146,11.2609756 9.94390244,11.9195122 10.1414634,12.5780488 C10.3390244,13.2365854 10.404878,13.6317073 10.4707317,13.7634146 C10.602439,14.1585366 10.8658537,14.4219512 11.3268293,14.4219512 L11.5243902,14.3560976 C11.9195122,14.2243902 12.1170732,13.9609756 12.1170732,13.5 L12.0512195,13.302439 C12.1170732,13.2365854 12.0512195,12.9731707 11.9195122,12.5780488" id="Fill-4"></path>
            </g>
            <path d="M36.6146341,4.34634146 C37.0097561,3.95121951 37.2731707,3.42439024 37.2731707,2.76585366 C37.2731707,2.17317073 37.0756098,1.64634146 36.6146341,1.25121951 C36.2195122,0.790243902 35.6926829,0.592682927 35.1,0.592682927 C34.5073171,0.592682927 33.9804878,0.790243902 33.5853659,1.25121951 C33.1243902,1.71219512 32.9268293,2.23902439 32.9268293,2.83170732 C32.9268293,3.42439024 33.1243902,3.95121951 33.5195122,4.41219512 C33.9146341,4.80731707 34.4414634,5.00487805 35.0341463,5.00487805 C35.6926829,5.00487805 36.2195122,4.80731707 36.6146341,4.34634146 Z" id="Fill-10"></path>
            <path d="M32.2682927,5.26829268 L32.2682927,5.4 C31.6097561,5.4 30.9512195,5.66341463 30.3585366,6.1902439 C29.8317073,6.78292683 29.6341463,7.44146341 29.6341463,8.16585366 L29.6341463,14.9487805 C29.6341463,15.2121951 29.7,15.4097561 29.897561,15.6073171 C30.095122,15.804878 30.2926829,15.8707317 30.5560976,15.8707317 C30.8195122,15.8707317 31.0170732,15.804878 31.1487805,15.6073171 C31.2804878,15.4097561 31.2804878,15.2121951 31.2804878,14.9487805 L31.2804878,8.95609756 L31.9390244,8.95609756 L31.9390244,25.6829268 C31.9390244,26.0121951 32.0707317,26.2756098 32.3341463,26.5390244 C32.597561,26.802439 32.8609756,26.9341463 33.1902439,26.9341463 C33.5853659,26.9341463 33.9146341,26.802439 34.1121951,26.5390244 C34.3756098,26.3414634 34.5073171,26.0121951 34.5073171,25.6829268 L34.5073171,15.804878 L34.902439,15.804878 L34.902439,25.6170732 C34.902439,25.9463415 35.1,26.2097561 35.297561,26.4731707 C35.5609756,26.7365854 35.8902439,26.8682927 36.2853659,26.8682927 C36.6146341,26.8682927 36.9439024,26.7365854 37.1414634,26.4731707 C37.404878,26.2756098 37.5365854,25.9463415 37.5365854,25.6170732 L37.5365854,8.8902439 L37.8658537,8.8902439 L37.8658537,14.8829268 C37.8658537,15.1463415 37.997561,15.3439024 38.195122,15.5414634 C38.3926829,15.7390244 38.6560976,15.804878 38.9195122,15.804878 C39.2487805,15.804878 39.4463415,15.7390244 39.5780488,15.5414634 C39.7097561,15.3439024 39.8414634,15.1463415 39.8414634,14.8829268 L39.8414634,8.16585366 C39.8414634,7.44146341 39.5780488,6.71707317 39.0512195,6.1902439 C38.5243902,5.59756098 37.9317073,5.26829268 37.1414634,5.26829268 L32.2682927,5.26829268 Z" id="Fill-12"></path>
            <g id="Group-4" transform="translate(15.804878, 13.829268)" stroke-width="2">
                <polyline id="Path-3" points="6.58536585 0 9.87804878 2.63414634 6.78292683 5.13658537"></polyline>
                <path d="M9.54878049,2.63414634 L0.0658536585,2.63414634" id="Path-4"></path>
            </g>
        </g>
    </g>
</svg>