<?xml version="1.0" encoding="UTF-8"?>
<svg width="42px" height="28px" viewBox="0 0 42 28" version="1.1" xmlns="http://www.w3.org/2000/svg" xmlns:xlink="http://www.w3.org/1999/xlink">
    <!-- Generator: Sketch 52.1 (67048) - http://www.bohemiancoding.com/sketch -->
    <title>icTransWoman</title>
    <desc>Created with Sketch.</desc>
    <g id="Page-1" stroke="none" stroke-width="1" fill="none" fill-rule="evenodd">
        <g id="icTransWoman" fill="#FFFFFF" stroke="#FFFFFF">
            <path d="M35.12439,5.00487846 C34.5317071,5.00487846 34.0048778,4.80731749 33.5439022,4.41219554 C33.0829266,3.95121993 32.8853656,3.42439066 32.8853656,2.83170773 C32.8853656,2.2390248 33.1487803,1.71219554 33.5439022,1.31707359 C33.9390242,0.856097976 34.4658534,0.658537 35.12439,0.658537 C35.717073,0.658537 36.2439022,0.856097976 36.7048778,1.31707359 C37.0999998,1.71219554 37.2975608,2.2390248 37.2975608,2.83170773 C37.2975608,3.42439066 37.0341461,3.95121993 36.6390242,4.41219554 C36.2439022,4.80731749 35.717073,5.00487846 35.12439,5.00487846 Z M40.9195122,13.2365858 C41.0512195,13.6317077 41.1170732,13.8951224 41.0512195,13.960976 L41.1170732,14.158537 C41.1170732,14.6195126 40.9195122,14.8829272 40.5243902,15.0146346 L40.3268293,15.0804882 C39.8658537,15.0804882 39.602439,14.8170736 39.4707317,14.4219516 C39.404878,14.2902443 39.3390244,13.8951224 39.1414634,13.2365858 C38.9439024,12.5780492 38.7463415,11.9195126 38.5487805,11.1951224 C38.3512195,10.5365858 38.0878049,9.74634188 37.7585366,8.42926871 L37.2317073,8.42926871 L40.195122,18.6365858 L37.297561,18.6365858 L37.297561,26.0121955 C37.297561,26.3414638 37.2317073,26.5390248 37.0341463,26.7365858 C36.8365854,26.9341468 36.6390244,27.0000004 36.3756098,27.0000004 C36.1121951,27.0000004 35.8487805,26.9341468 35.6512195,26.7365858 C35.5195122,26.5390248 35.3878049,26.3414638 35.3878049,26.0121955 L35.3878049,18.6365858 L35.0585366,18.6365858 L35.0585366,26.0121955 C35.0585366,26.3414638 34.8609756,26.5390248 34.6634146,26.7365858 C34.4658537,26.9341468 34.1365854,27.0000004 33.8731707,27.0000004 C33.5439024,27.0000004 33.2804878,26.9341468 33.0170732,26.7365858 C32.8195122,26.5390248 32.6878049,26.2756102 32.6878049,26.0121955 L32.6878049,18.6365858 L29.9878049,18.6365858 L32.9512195,8.36341505 L32.4243902,8.36341505 C32.0951219,9.68048822 31.8317073,10.4048785 31.6341463,11.1292687 C31.4365854,11.853659 31.2390244,12.5780492 31.0414634,13.2365858 C30.7780488,13.8951224 30.6463415,14.2902443 30.6463415,14.4219516 C30.5146341,14.8829272 30.2512195,15.0804882 29.7902439,15.0804882 L29.5926829,15.0146346 C29.197561,14.8829272 29,14.6195126 29,14.2243907 C29,14.158537 29,14.0268297 29.0658537,14.0268297 C29.0658537,13.960976 29.1317073,13.6975614 29.2634146,13.3024394 C29.395122,12.8414638 29.5268293,12.3146346 29.7243902,11.7219516 C29.9219512,11.063415 30.1195122,10.4048785 30.3170732,9.68048822 C30.5146341,8.95609798 30.7121951,8.23170773 30.9756098,7.57317115 C31.1073171,7.04634188 31.4365854,6.51951261 31.8317073,6.12439066 C32.3585366,5.72926871 32.8195122,5.46585407 33.3463415,5.46585407 L36.7707317,5.46585407 C37.297561,5.46585407 37.8243902,5.72926871 38.2853658,6.12439066 C38.7463415,6.51951261 39.0756098,7.04634188 39.2731707,7.57317115 C39.4707317,8.29756139 39.6682927,8.95609798 39.8658537,9.68048822 C40.0634146,10.4048785 40.2609756,11.063415 40.4585366,11.656098 C40.6560976,12.3146346 40.7878049,12.8414638 40.9195122,13.2365858 Z" id="Combined-Shape-Copy-2"></path>
            <path d="M7.6146341,4.34634146 C7.2195122,4.80731707 6.6926829,5.00487805 6.0341463,5.00487805 C5.4414634,5.00487805 4.9146341,4.80731707 4.5195122,4.41219512 C4.1243902,3.95121951 3.9268293,3.42439024 3.9268293,2.83170732 C3.9268293,2.23902439 4.1243902,1.71219512 4.5853659,1.25121951 C4.9804878,0.790243902 5.5073171,0.592682927 6.1,0.592682927 C6.6926829,0.592682927 7.2195122,0.790243902 7.6146341,1.25121951 C8.0756098,1.64634146 8.2731707,2.17317073 8.2731707,2.76585366 C8.2731707,3.42439024 8.0097561,3.95121951 7.6146341,4.34634146 Z M3.2682927,5.26829268 L8.1414634,5.26829268 C8.9317073,5.26829268 9.5243902,5.59756098 10.0512195,6.1902439 C10.5780488,6.71707317 10.8414634,7.44146341 10.8414634,8.16585366 L10.8414634,14.8829268 C10.8414634,15.1463415 10.7097561,15.3439024 10.5780488,15.5414634 C10.4463415,15.7390244 10.2487805,15.804878 9.9195122,15.804878 C9.6560976,15.804878 9.3926829,15.7390244 9.195122,15.5414634 C8.997561,15.3439024 8.8658537,15.1463415 8.8658537,14.8829268 L8.8658537,8.8902439 L8.5365854,8.8902439 L8.5365854,25.6170732 C8.5365854,25.9463415 8.404878,26.2756098 8.1414634,26.4731707 C7.9439024,26.7365854 7.6146341,26.8682927 7.2853659,26.8682927 C6.8902439,26.8682927 6.5609756,26.7365854 6.297561,26.4731707 C6.1,26.2097561 5.902439,25.9463415 5.902439,25.6170732 L5.902439,15.804878 L5.5073171,15.804878 L5.5073171,25.6829268 C5.5073171,26.0121951 5.3756098,26.3414634 5.1121951,26.5390244 C4.9146341,26.802439 4.5853659,26.9341463 4.1902439,26.9341463 C3.8609756,26.9341463 3.597561,26.802439 3.3341463,26.5390244 C3.0707317,26.2756098 2.9390244,26.0121951 2.9390244,25.6829268 L2.9390244,8.95609756 L2.2804878,8.95609756 L2.2804878,14.9487805 C2.2804878,15.2121951 2.2804878,15.4097561 2.1487805,15.6073171 C2.0170732,15.804878 1.8195122,15.8707317 1.5560976,15.8707317 C1.2926829,15.8707317 1.095122,15.804878 0.897561,15.6073171 C0.7,15.4097561 0.6341463,15.2121951 0.6341463,14.9487805 L0.6341463,8.16585366 C0.6341463,7.44146341 0.8317073,6.78292683 1.3585366,6.1902439 C1.9512195,5.66341463 2.6097561,5.4 3.2682927,5.4 L3.2682927,5.26829268 Z" id="Combined-Shape-Copy"></path>
            <polyline id="Path-3" stroke-width="2" points="21.3902439 13.829268 24.6829268 16.4634143 21.5878048 18.9658534"></polyline>
            <path d="M24.3536585,16.4634143 L14.8707317,16.4634143" id="Path-4" stroke-width="2"></path>
        </g>
    </g>
</svg>