<?xml version="1.0" encoding="UTF-8"?>
<svg width="12px" height="27px" viewBox="0 0 12 27" version="1.1" xmlns="http://www.w3.org/2000/svg" xmlns:xlink="http://www.w3.org/1999/xlink">
    <!-- Generator: Sketch 52.1 (67048) - http://www.bohemiancoding.com/sketch -->
    <title>icTVCD</title>
    <desc>Created with Sketch.</desc>
    <g id="Page-1" stroke="none" stroke-width="1" fill="none" fill-rule="evenodd">
        <g id="icTVCD" fill="#FFFFFF">
            <path d="M5.68638079,26.4274573 C5.53066521,26.1849715 5.4,25.9424858 5.4,25.7 L5.4,18.5 C5.37925926,17.5666667 5.35421674,16.6333333 5.32844131,15.7 L5.1,15.7 L5.1,25.7 C5.1,26.1 5,26.4 4.7,26.6 C4.5,26.9 4.1,27 3.7,27 C3.3,27 3.1,26.9 2.7,26.6 C2.4,26.3 2.3,26 2.3,25.7 L2.3,8.6 L1.6,8.6 L1.6,14.8 C1.6,15.1 1.6,15.3 1.4,15.5 C1.3,15.7 1.1,15.8 0.8,15.8 C0.6,15.8 0.4,15.7 0.2,15.5 C0.1,15.3 0,15.1 0,14.8 L0,7.8 C0,7.1 0.2,6.4 0.8,5.8 C1.3,5.3 2,5 2.7,4.9 L7.9,4.9 C7.84987288,4.95012712 7.79974575,5.01281789 7.75276753,5.0849234 C8.07860456,5.18613023 8.41915772,5.38263143 8.8,5.7 C9.3,6.1 9.6,6.7 9.8,7.2 C9.9,7.8 10.1,8.5 10.3,9.2 C10.5,9.9 10.7,10.6 10.9,11.2 C11.1,11.8 11.3,12.4 11.4,12.8 C11.5,13.3 11.5,13.5 11.6,13.6 L11.5,13.8 C11.5,14.3 11.3,14.6 10.9,14.7 L10.7,14.8 C10.2,14.8 9.9,14.6 9.8,14.2 C9.8,14.1 9.7,13.6 9.5,13 C9.3,12.4 9.1,11.6 8.9,10.9 C8.6,10.1 8.3,9.3 8,8 L7.5,8 L10.6,18.4 L7.6,18.4 L7.6,25.9 C7.6,26.3 7.5,26.5 7.3,26.7 C7.1,26.9 6.9,27 6.6,27 C6.3,27 6,26.9 5.9,26.8 C5.80731933,26.660979 5.73611292,26.5434323 5.68638079,26.4274573 Z M5.3,4.4 C4.7,4.4 4.1,4.2 3.7,3.8 C3.3,3.4 3.1,2.8 3.1,2.2 C3.1,1.6 3.3,1 3.7,0.6 C4.1,0.2 4.7,0 5.3,0 C5.9,0 6.5,0.2 7,0.7 C7.4,1.1 7.5,1.6 7.5,2.2 C7.5,2.8 7.3,3.4 6.9,3.8 C6.5,4.2 5.9,4.4 5.3,4.4 Z" id="Combined-Shape"></path>
        </g>
    </g>
</svg>