<?xml version="1.0" encoding="utf-8"?>
<!-- Generator: Adobe Illustrator 20.1.0, SVG Export Plug-In . SVG Version: 6.00 Build 0)  -->
<svg version="1.1" id="Layer_1" xmlns="http://www.w3.org/2000/svg" xmlns:xlink="http://www.w3.org/1999/xlink" x="0px" y="0px"
	 viewBox="0 0 11.6 27" style="enable-background:new 0 0 11.6 27;" xml:space="preserve">
<style type="text/css">
	.st0{fill:#FFFFFF;}
	.st1{fill:#666666;}
</style>
<title>icWhoTVCD</title>
<desc>Created with Sketch.</desc>
<g id="Clip-11">
</g>
<g>
	<g>
		<polygon id="path-1" class="st0" points="0,26.9 0,4.9 7.8,4.9 7.8,26.9 		"/>
	</g>
	<path id="Fill-1" class="st1" d="M5.3,4.4c0.6,0,1.2-0.2,1.6-0.6c0.4-0.4,0.6-1,0.6-1.6S7.4,1.1,7,0.7C6.5,0.2,5.9,0,5.3,0
		C4.7,0,4.1,0.2,3.7,0.6s-0.6,1-0.6,1.6c0,0.6,0.2,1.2,0.6,1.6C4.1,4.2,4.7,4.4,5.3,4.4"/>
	<path id="Fill-3" class="st1" d="M11.6,13.6c-0.1-0.1-0.1-0.3-0.2-0.8c-0.1-0.4-0.3-1-0.5-1.6c-0.2-0.6-0.4-1.3-0.6-2
		S9.9,7.8,9.8,7.2c-0.2-0.5-0.5-1.1-1-1.5C8.2,5.2,7.7,5,7.2,5h-2c-0.1,4.5,0.1,9,0.2,13.5h0.2V26c0,0.3,0.1,0.5,0.3,0.8
		C6,26.9,6.3,27,6.6,27s0.5-0.1,0.7-0.3c0.2-0.2,0.3-0.4,0.3-0.8v-7.5h3L7.5,8H8c0.3,1.3,0.6,2.1,0.9,2.9c0.2,0.7,0.4,1.5,0.6,2.1
		c0.2,0.6,0.3,1.1,0.3,1.2c0.1,0.4,0.4,0.6,0.9,0.6l0.2-0.1c0.4-0.1,0.6-0.4,0.6-0.9L11.6,13.6z"/>
	<path id="Fill-8" class="st1" d="M5.3,4.4c0.6,0,1.2-0.2,1.6-0.6c0.4-0.4,0.6-1,0.6-1.6S7.4,1.1,7,0.7C6.5,0.2,5.9,0,5.3,0
		C4.7,0,4.1,0.2,3.7,0.6s-0.6,1-0.6,1.6c0,0.6,0.2,1.2,0.6,1.6C4.1,4.2,4.7,4.4,5.3,4.4"/>
	<path id="Fill-10" class="st1" d="M7.4,8.6C7.3,8.5,7.3,8.4,7.3,8.3C7,7.6,7.1,7,7.5,6.5c0-0.2,0-0.4,0-0.6c0-0.4,0.2-0.8,0.4-1
		H2.7C2,5,1.3,5.3,0.8,5.8C0.2,6.4,0,7.1,0,7.8v7c0,0.3,0.1,0.5,0.2,0.7c0.2,0.2,0.4,0.3,0.6,0.3c0.3,0,0.5-0.1,0.6-0.3
		c0.2-0.2,0.2-0.4,0.2-0.7V8.6h0.7v17.1c0,0.3,0.1,0.6,0.4,0.9C3.1,26.9,3.3,27,3.7,27s0.8-0.1,1-0.4c0.3-0.2,0.4-0.5,0.4-0.9V15.7
		h0.3v10c0,0.3,0.2,0.6,0.4,0.9c0.2,0.2,0.4,0.3,0.6,0.3C6.8,20.8,7.2,14.7,7.4,8.6L7.4,8.6z"/>
</g>
</svg>
