<?xml version="1.0" encoding="UTF-8"?>
<svg width="13px" height="27px" viewBox="0 0 13 27" version="1.1" xmlns="http://www.w3.org/2000/svg" xmlns:xlink="http://www.w3.org/1999/xlink">
    <!-- Generator: Sketch 50.2 (55047) - http://www.bohemiancoding.com/sketch -->
    <title>icWoman</title>
    <desc>Created with Sketch.</desc>
    <defs>
        <polygon id="path-1" points="0.328365474 0 4.81252547 0 4.81252547 4.42688625 0.328365474 4.42688625 0.328365474 4.79616347e-15"></polygon>
    </defs>
    <g id="Page-1" stroke="none" stroke-width="1" fill="none" fill-rule="evenodd">
        <g id="icWoman">
            <g id="Group-3" transform="translate(3.751579, 0.000000)">
                <g id="Fill-1-Clipped">
                    <mask id="mask-2" fill="white">
                        <use xlink:href="#path-1"></use>
                    </mask>
                    <g id="path-1"></g>
                    <path d="M2.62501389,4.42688625 C3.23856758,4.42688625 3.76412969,4.22742375 4.17236969,3.81162375 C4.59254653,3.38603625 4.81252547,2.85717375 4.81252547,2.21896125 C4.81252547,1.61213625 4.59254653,1.09171125 4.17236969,0.66207375 C3.76651705,0.22028625 3.23856758,-0.00010125 2.62501389,-0.00010125 C1.97155705,-0.00010125 1.42996547,0.22028625 0.979434947,0.66207375 C0.54288758,1.08968625 0.328365474,1.61213625 0.328365474,2.21896125 C0.328365474,2.85717375 0.54288758,3.38536125 0.981481261,3.81162375 C1.43235284,4.22742375 1.97360337,4.42688625 2.62501389,4.42688625" id="Fill-1" fill="#FFFFFF" fill-rule="nonzero" mask="url(#mask-2)"></path>
                </g>
            </g>
            <path d="M11.8860253,11.2866412 C11.7103831,10.6545037 11.4924505,9.97039125 11.2847495,9.23565375 C11.0821642,8.49754125 10.8771916,7.78744125 10.6763116,7.10265375 C10.4887326,6.57750375 10.1527958,6.01826625 9.68521261,5.60280375 C9.2043284,5.17485375 8.66614739,4.89574125 8.11193686,4.89574125 L4.52883789,4.89574125 C3.99270316,4.89574125 3.47941895,5.17485375 2.98557474,5.60280375 C2.49002526,6.01624125 2.16943579,6.53632875 2.02346526,7.06080375 C1.77620211,7.74559125 1.57464,8.47661625 1.35432,9.21472875 C1.13945684,9.94946625 0.933802106,10.6440413 0.74417684,11.2761787 C0.55352842,11.8981912 0.39528,12.4388663 0.277616842,12.8688412 C0.175301053,13.3032038 0.0879915787,13.5613912 0.0576378947,13.6356413 C0.0150063158,13.7227162 0,13.8108037 0,13.9161037 C0,14.3011912 0.205995789,14.5722037 0.628218947,14.7271162 L0.858770527,14.7824663 C1.31168842,14.7824663 1.60090105,14.5735537 1.73322947,14.1412163 C1.74789474,14.0001412 1.89386526,13.5860288 2.11111579,12.9322912 C2.30176421,12.2704538 2.52242526,11.5137788 2.72057684,10.7888288 C2.94089684,10.0608412 3.22226526,9.28324125 3.55615579,7.93324125 L4.08001263,7.93324125 L1.03407158,18.3957413 L3.85423579,18.3957413 L3.85423579,25.9817288 C3.85423579,26.2854788 4.00805053,26.5372538 4.22632421,26.7195038 C4.42959158,26.9088413 4.71948631,26.9996288 5.02745684,26.9996288 C5.33201684,26.9996288 5.67034106,26.9088413 5.86030739,26.7195038 C6.05027367,26.5372538 6.2416042,26.2854788 6.2416042,25.9817288 L6.2416042,18.3957413 L6.58265686,18.3957413 L6.58265686,25.9820663 C6.58265686,26.2858163 6.68531367,26.5382663 6.87493894,26.7195038 C7.07547787,26.9088413 7.3196716,26.9999663 7.64026106,26.9999663 C7.94345686,26.9999663 8.14706527,26.9098537 8.35237894,26.7195038 C8.58531787,26.5382663 8.62897261,26.2858163 8.62897261,25.9820663 L8.62897261,18.3957413 L11.6060211,18.3957413 L8.56451367,7.93324125 L9.09041686,7.93324125 C9.42430739,9.28324125 9.69749053,10.0642163 9.93042947,10.7898413 C10.1630274,11.5151288 10.3703874,12.2367038 10.5739958,12.8985412 C10.7462274,13.5519413 10.8768505,13.9832662 10.9089095,14.1243413 C11.0248674,14.5560038 11.3171495,14.7743663 11.7813221,14.7743663 L11.9961853,14.7203663 C12.4177263,14.6005537 12.6377053,14.3305537 12.6377053,13.8644662 L12.5807495,13.6373288 C12.5401642,13.5627412 12.4651326,13.3082663 12.3488337,12.8742413 C12.2345811,12.4442662 12.0715579,11.9093288 11.8860253,11.2866412 Z" id="Fill-4" fill="#FFFFFF" fill-rule="nonzero"></path>
        </g>
    </g>
</svg>