<?xml version="1.0" encoding="utf-8"?>
<!-- Generator: Adobe Illustrator 20.1.0, SVG Export Plug-In . SVG Version: 6.00 Build 0)  -->
<svg version="1.1" id="Layer_1" xmlns="http://www.w3.org/2000/svg" xmlns:xlink="http://www.w3.org/1999/xlink" x="0px" y="0px"
	 viewBox="0 0 12.6 27" style="enable-background:new 0 0 12.6 27;" xml:space="preserve">
<style type="text/css">
	.st0{fill:#666666;}
</style>
<title>icWhoWoman</title>
<desc>Created with Sketch.</desc>
<g id="Layout--1" transform="translate(-709.000000, -451.000000)">
	<g id="Woman" transform="translate(709.000000, 451.000000)">
		<g id="Page-1">
			<g id="Group-3" transform="translate(6.947368, 0.000000)">
				<g id="Clip-2">
				</g>
				<path id="Fill-1" class="st0" d="M-0.5,4.4C0,4.4,0.6,4.2,1,3.8c0.4-0.4,0.6-1,0.6-1.6c0-0.6-0.2-1.2-0.6-1.6C0.6,0.2,0,0-0.5,0
					c-0.6,0-1.2,0.2-1.6,0.6c-0.5,0.4-0.7,1-0.7,1.6c0,0.6,0.2,1.2,0.6,1.6C-1.7,4.2-1.2,4.4-0.5,4.4"/>
			</g>
			<path id="Fill-4" class="st0" d="M11.9,11.3c-0.2-0.6-0.4-1.3-0.6-2.1c-0.2-0.8-0.4-1.5-0.6-2.1c-0.2-0.5-0.5-1.1-1-1.5
				C9.2,5.2,8.6,4.9,8.1,4.9H4.5C4,4.9,3.5,5.2,3,5.6C2.5,6,2.2,6.5,2,7.1C1.7,7.8,1.6,8.5,1.3,9.2s-0.4,1.4-0.6,2.1
				c-0.2,0.6-0.4,1.1-0.5,1.6c-0.1,0.4-0.2,0.7-0.2,0.8C0,13.7,0,13.8,0,13.9c0,0.4,0.2,0.6,0.6,0.8l0.2,0.1c0.4,0,0.8-0.2,0.9-0.6
				c0-0.2,0.2-0.5,0.4-1.2s0.4-1.4,0.6-2.2c0.2-0.7,0.5-1.5,0.8-2.9h0.5L1,18.4h2.8V26c0,0.3,0.2,0.5,0.4,0.8C4.4,26.9,4.7,27,5,27
				c0.3,0,0.6-0.1,0.8-0.3C6,26.6,6.2,26.3,6.2,26v-7.6h0.3V26c0,0.3,0.1,0.5,0.3,0.8C7,26.9,7.2,27,7.6,27c0.3,0,0.5-0.1,0.7-0.3
				c0.2-0.2,0.3-0.4,0.3-0.8v-7.6h3l-3-10.5H9c0.3,1.3,0.6,2.1,0.9,2.9c0.2,0.7,0.4,1.5,0.6,2.1c0.2,0.6,0.3,1.1,0.3,1.2
				c0.1,0.4,0.4,0.6,0.9,0.6l0.2-0.1c0.4-0.1,0.6-0.4,0.6-0.9l-0.1-0.2c-0.1-0.1-0.1-0.3-0.2-0.8C12.3,12.4,12.1,11.9,11.9,11.3z"/>
		</g>
	</g>
</g>
</svg>
