<?xml version="1.0" encoding="UTF-8"?>
<svg width="29px" height="25px" viewBox="0 0 29 25" version="1.1" xmlns="http://www.w3.org/2000/svg" xmlns:xlink="http://www.w3.org/1999/xlink">
    <!-- Generator: Sketch 54 (76480) - https://sketchapp.com -->
    <title>icAddFolder</title>
    <desc>Created with Sketch.</desc>
    <defs>
        <path d="M24.4875623,13.5925279 C26.5658373,14.4466355 28.0291298,16.4564299 28.0294113,18.7950447 C28.0294113,21.9054932 25.441137,24.435897 22.2595524,24.435897 C19.9006653,24.435897 17.8705193,23.0432944 16.9768949,21.0560634 L2.66257876,21.0555131 C1.19450151,21.0555131 2.84217094e-14,19.8877191 2.84217094e-14,18.4521909 L2.84217094e-14,2.60332213 C2.84217094e-14,1.16779401 1.19450151,2.20268248e-13 2.66286021,2.20268248e-13 L8.19488827,2.20268248e-13 L10.9874999,2.47867305 L20.8162434,2.47867305 C22.2843206,2.47867305 23.4785407,3.64646706 23.4785407,5.08199518 L23.4785407,6.15568326 L26.0721626,6.15568326 L24.4875623,13.5925279 Z M1.43740571,17.9675713 C1.43740571,18.4989206 1.79066643,19.404977 2.7835933,19.404977 L3.55819675,19.404977 L6.24234117,5.99648303 L22.2797884,5.99648303 L22.2797884,4.90983471 C22.2797884,4.3784854 21.8345349,3.94599825 21.2874354,3.94599825 C12.1212219,3.94599825 8.68389191,3.94599825 10.9754453,3.94599825 C10.9754453,3.94599825 10.8516076,3.94599825 10.6039324,3.94599825 L10.2214003,3.60887937 L7.75740814,1.43740571 L2.49718788,1.43740571 C1.79066643,1.43740571 1.43740571,1.86989285 1.43740571,2.40124216 L1.43740571,17.9675713 Z M5.03091997,19.404977 L16.7461595,19.404977 C16.7232725,19.193658 16.7099459,18.98002 16.7099459,18.7629035 C16.7099459,15.4861546 19.374107,12.8204626 22.6489739,12.8204626 C22.8540876,12.8204626 23.0571734,12.8308981 23.2570724,12.8511893 L24.435897,7.18702853 L23.1768231,7.18702853 L22.1657398,7.18702853 L7.18702853,7.18702853 L5.03091997,19.404977 Z M22.4594642,23.3578427 C24.9365107,23.3578427 26.951357,21.3426867 26.951357,18.8659499 C26.951357,16.3892131 24.9362009,14.3740571 22.4594642,14.3740571 C19.9827274,14.3740571 17.9675713,16.3892131 17.9675713,18.8659499 C17.9675713,21.3426867 19.9827274,23.3578427 22.4594642,23.3578427 Z M22.8223797,18.5041908 L24.9963521,18.5421389 C25.1964689,18.545632 25.3558495,18.7106755 25.3523566,18.9107923 C25.3488636,19.1109091 25.1838058,19.2703036 24.9837036,19.2667963 L22.8097026,19.2288477 L22.7717565,21.4028488 C22.7682636,21.6029656 22.6032203,21.762346 22.4031035,21.7588528 C22.2030154,21.7553602 22.0436207,21.5903021 22.0470991,21.3901994 L22.0850451,19.2161984 L19.9110582,19.1782643 C19.71097,19.1747717 19.5515753,19.0097136 19.5550537,18.8096109 C19.5585466,18.6094941 19.7235899,18.4501137 19.9237067,18.4536069 L22.0977218,18.49157 L22.1356678,16.317569 C22.1391607,16.1174522 22.304204,15.9580717 22.5043208,15.9615649 C22.7044235,15.9650435 22.8638182,16.1301016 22.8603253,16.3302183 L22.8223797,18.5041908 Z" id="path-1"></path>
    </defs>
    <g id="Page-1" stroke="none" stroke-width="1" fill="none" fill-rule="evenodd">
        <mask id="mask-2" fill="white">
            <use xlink:href="#path-1"></use>
        </mask>
        <use id="icAddFolder" fill="#FFFFFF" fill-rule="nonzero" xlink:href="#path-1"></use>
    </g>
</svg>