<?xml version="1.0" encoding="UTF-8"?>
<svg width="24px" height="5px" viewBox="0 0 24 5" version="1.1" xmlns="http://www.w3.org/2000/svg" xmlns:xlink="http://www.w3.org/1999/xlink">
    <!-- Generator: Sketch 55 (78076) - https://sketchapp.com -->
    <title>icDotMoreFolder</title>
    <desc>Created with Sketch.</desc>
    <g id="Page-1" stroke="none" stroke-width="1" fill="none" fill-rule="evenodd">
        <path d="M2.533333,4.25 C1.296215,4.25 0.293333,3.309798 0.293333,2.15 C0.293333,0.990202 1.296215,0.05 2.533333,0.05 C3.770451,0.05 4.773333,0.990202 4.773333,2.15 C4.773333,3.309798 3.770451,4.25 2.533333,4.25 Z M11.69697,4.25 C10.459852,4.25 9.45697,3.309798 9.45697,2.15 C9.45697,0.990202 10.459852,0.05 11.69697,0.05 C12.934088,0.05 13.93697,0.990202 13.93697,2.15 C13.93697,3.309798 12.934088,4.25 11.69697,4.25 Z M20.860606,4.25 C19.623488,4.25 18.620606,3.309798 18.620606,2.15 C18.620606,0.990202 19.623488,0.05 20.860606,0.05 C22.097724,0.05 23.100606,0.990202 23.100606,2.15 C23.100606,3.309798 22.097724,4.25 20.860606,4.25 Z" id="icDotMoreFolder" fill="#333333" fill-rule="nonzero"></path>
    </g>
</svg>