<?xml version="1.0" encoding="UTF-8"?>
<svg width="26px" height="22px" viewBox="0 0 26 22" version="1.1" xmlns="http://www.w3.org/2000/svg" xmlns:xlink="http://www.w3.org/1999/xlink">
    <!-- Generator: Sketch 53.2 (72643) - https://sketchapp.com -->
    <title>icFolderAddDesktop</title>
    <desc>Created with Sketch.</desc>
    <defs>
        <path d="M957.286008,383.224054 C959.136697,383.984631 960.439749,385.774339 960.44,387.856859 C960.44,390.626693 958.135159,392.88 955.30198,392.88 C953.201407,392.88 951.393576,391.639897 950.597809,389.870281 L937.851008,389.869791 C936.543695,389.869791 935.48,388.829878 935.48,387.55155 L935.48,373.438241 C935.48,372.159913 936.543695,371.12 937.851259,371.12 L942.777492,371.12 L945.264294,373.327241 L954.016723,373.327241 C955.324036,373.327241 956.387481,374.367154 956.387481,375.645482 L956.387481,376.601594 L958.697083,376.601594 L957.286008,383.224054 Z M936.76,387.12 C936.76,387.593163 937.074576,388.4 937.958771,388.4 L938.64855,388.4 L941.038762,376.459827 L955.32,376.459827 L955.32,375.492174 C955.32,375.019011 954.923505,374.633885 954.436316,374.633885 C946.273866,374.633885 943.212947,374.633885 945.253559,374.633885 C945.253559,374.633885 945.143283,374.633885 944.92273,374.633885 L944.582087,374.333683 L942.387919,372.4 L937.703729,372.4 C937.074576,372.4 936.76,372.785127 936.76,373.25829 L936.76,387.12 Z M939.96,388.4 L950.392341,388.4 C950.37196,388.211822 950.360093,388.021579 950.360093,387.828238 C950.360093,384.910315 952.73251,382.536535 955.648757,382.536535 C955.83141,382.536535 956.012256,382.545827 956.190265,382.563897 L957.24,377.52 L956.118803,377.52 L955.21844,377.52 L941.88,377.52 L939.96,388.4 Z M955.48,391.92 C957.685793,391.92 959.48,390.125517 959.48,387.92 C959.48,385.714483 957.685517,383.92 955.48,383.92 C953.274483,383.92 951.48,385.714483 951.48,387.92 C951.48,390.125517 953.274483,391.92 955.48,391.92 Z M955.803174,387.597856 L957.739081,387.631648 C957.917284,387.634759 958.059211,387.781729 958.056101,387.959932 C958.052991,388.138134 957.906008,388.280074 957.727818,388.276951 L955.791885,388.243158 L955.758094,390.179091 C955.754984,390.357294 955.608014,390.499221 955.429811,390.49611 C955.251634,390.493 955.109694,390.346017 955.112792,390.167827 L955.146582,388.231894 L953.210662,388.198114 C953.032485,388.195004 952.890545,388.048021 952.893642,387.869831 C952.896753,387.691628 953.043723,387.549701 953.221925,387.552811 L955.157871,387.586617 L955.191662,385.650684 C955.194772,385.472482 955.341742,385.330554 955.519945,385.333665 C955.698135,385.336763 955.840075,385.483746 955.836964,385.661948 L955.803174,387.597856 Z" id="path-1"></path>
    </defs>
    <g id="Page-1" stroke="none" stroke-width="1" fill="none" fill-rule="evenodd">
        <g id="Chat-options" transform="translate(-935.000000, -371.000000)">
            <mask id="mask-2" fill="white">
                <use xlink:href="#path-1"></use>
            </mask>
            <use id="icFolderAddDesktop" fill="#646464" fill-rule="nonzero" xlink:href="#path-1"></use>
        </g>
    </g>
</svg>