<?xml version="1.0" encoding="UTF-8"?>
<svg width="28px" height="24px" viewBox="0 0 28 24" version="1.1" xmlns="http://www.w3.org/2000/svg" xmlns:xlink="http://www.w3.org/1999/xlink">
    <!-- Generator: Sketch 52.3 (67297) - http://www.bohemiancoding.com/sketch -->
    <title>icFolderAdd</title>
    <desc>Created with Sketch.</desc>
    <defs>
        <path d="M23.9288831,13.300557 C25.8952409,14.10867 27.2797337,16.010235 27.28,18.2229131 C27.28,21.1658609 24.8311069,23.56 21.8208537,23.56 C19.5889949,23.56 17.6681744,22.2423904 16.8226724,20.3621738 L3.27919628,20.3616531 C1.89017643,20.3616531 0.76,19.2567459 0.76,17.8985224 L0.76,2.90313068 C0.76,1.54490716 1.89017643,0.44 3.27946258,0.44 L8.51358551,0.44 L11.1558123,2.78519408 L20.4552683,2.78519408 C21.8442881,2.78519408 22.9741982,3.89010123 22.9741982,5.24832476 L22.9741982,6.26419368 L25.4281511,6.26419368 L23.9288831,13.300557 Z M2.12,17.44 C2.12,17.9427356 2.45423729,18.8 3.39369407,18.8 L4.12658437,18.8 L6.66618498,6.11356655 L21.84,6.11356655 L21.84,5.0854353 C21.84,4.58269967 21.4187238,4.17350238 20.9010861,4.17350238 C12.2284823,4.17350238 8.97625582,4.17350238 11.1444068,4.17350238 C11.1444068,4.17350238 11.0272379,4.17350238 10.7929002,4.17350238 L10.4309679,3.85453768 L8.09966411,1.8 L3.12271186,1.8 C2.45423729,1.8 2.12,2.20919729 2.12,2.71193292 L2.12,17.44 Z M5.52,18.8 L16.6043624,18.8 C16.5827079,18.6000607 16.570099,18.3979274 16.570099,18.1925028 C16.570099,15.09221 19.0907923,12.5700681 22.1893044,12.5700681 C22.3833726,12.5700681 22.575522,12.5799416 22.7646562,12.5991402 L23.88,7.24 L22.6887284,7.24 L21.732093,7.24 L7.56,7.24 L5.52,18.8 Z M22.01,22.54 C24.3536552,22.54 26.26,20.6333621 26.26,18.29 C26.26,15.9466379 24.3533621,14.04 22.01,14.04 C19.6666379,14.04 17.76,15.9466379 17.76,18.29 C17.76,20.6333621 19.6666379,22.54 22.01,22.54 Z M22.3533722,17.947722 L24.410274,17.9836265 C24.5996143,17.9869316 24.7504122,18.1430873 24.7471073,18.3324276 C24.7438025,18.5217679 24.5876332,18.6725788 24.3983067,18.6692605 L22.3413777,18.6333554 L22.3054751,20.6902844 C22.3021703,20.8796247 22.1460147,21.0304224 21.9566744,21.0271173 C21.7673612,21.0238127 21.6165501,20.8676432 21.6198412,20.6783162 L21.6557438,18.6213873 L19.5988282,18.585496 C19.409515,18.5821914 19.2587038,18.4260219 19.2619949,18.2366949 C19.2652997,18.0473546 19.4214553,17.896557 19.6107955,17.899862 L21.6677378,17.9357809 L21.7036404,15.8788519 C21.7069452,15.6895116 21.8631008,15.5387139 22.0524411,15.542019 C22.241768,15.5453103 22.3925792,15.7014798 22.3892743,15.8908201 L22.3533722,17.947722 Z" id="path-1"></path>
    </defs>
    <g id="Page-1" stroke="none" stroke-width="1" fill="none" fill-rule="evenodd">
        <mask id="mask-2" fill="white">
            <use xlink:href="#path-1"></use>
        </mask>
        <use id="icFolderAdd" fill="#333333" fill-rule="nonzero" xlink:href="#path-1"></use>
    </g>
</svg>