<?xml version="1.0" encoding="UTF-8"?>
<svg width="90px" height="78px" viewBox="0 0 90 78" version="1.1" xmlns="http://www.w3.org/2000/svg" xmlns:xlink="http://www.w3.org/1999/xlink">
    <!-- Generator: Sketch 55.2 (78181) - https://sketchapp.com -->
    <title>icFolderEmpty</title>
    <desc>Created with Sketch.</desc>
    <defs>
        <path d="M77.6839021,43.120691 C84.2769843,45.8302465 88.9191071,52.2060821 88.92,59.6250617 C88.92,69.4925925 80.7090054,77.52 70.6158037,77.52 C63.1325125,77.52 56.692114,73.1021325 53.8571958,66.7978767 L8.44671694,66.7961308 C3.78941508,66.7961308 2.84217094e-14,63.0914421 2.84217094e-14,58.5373986 L2.84217094e-14,8.25873228 C2.84217094e-14,3.7046887 3.78941508,2.20268248e-13 8.44760983,2.20268248e-13 L25.9973161,2.20268248e-13 L34.8565471,7.86329779 L66.0370759,7.86329779 C70.6943778,7.86329779 74.4829,11.5679865 74.4829,16.1220301 L74.4829,19.5281788 L82.7108594,19.5281788 L77.6839021,43.120691 Z M4.56,57 C4.56,58.685643 5.68067797,61.56 8.83062131,61.56 L11.2879594,61.56 L19.8030908,19.0231349 L70.68,19.0231349 L70.68,15.5758713 C70.68,13.8902283 69.2674857,12.5182139 67.5318769,12.5182139 C38.4531464,12.5182139 27.5486225,12.5182139 34.8183051,12.5182139 C34.8183051,12.5182139 34.4254448,12.5182139 33.6397243,12.5182139 L32.4261865,11.448744 L24.609462,4.56 L7.9220339,4.56 C5.68067797,4.56 4.56,5.93201445 4.56,7.61765743 L4.56,57 Z M22.8,22.8 L15.96,61.56 L53.1252152,61.56 C53.0526089,60.8896154 53.0103319,60.2118741 53.0103319,59.5230976 C53.0103319,49.1279983 61.4620683,41.6714048 71.8511972,41.6714048 C72.5018964,41.6714048 73.146162,41.7045102 73.780318,41.7688818 L77.52,22.8 L73.5257366,22.8 L70.3181941,22.8 L22.8,22.8 Z M71.25,74.1 C79.1081379,74.1 85.5,67.7071552 85.5,59.85 C85.5,51.9928448 79.1071552,45.6 71.25,45.6 C63.3928448,45.6 57,51.9928448 57,59.85 C57,67.7071552 63.3928448,74.1 71.25,74.1 Z M72.4013068,58.7023618 L79.2979777,58.8227477 C79.9328245,58.8338294 80.4384408,59.3574104 80.4273598,59.9922572 C80.4162789,60.6271041 79.8926524,61.1327644 79.2578517,61.1216381 L72.36109,61.0012506 L72.2407107,67.8980124 C72.2296297,68.5328593 71.7060494,69.038475 71.0712025,69.0273933 C70.4364465,69.0163132 69.9307856,68.492686 69.9418204,67.8578838 L70.0621997,60.961122 L63.1654827,60.8407807 C62.5307266,60.8297006 62.0250658,60.3060735 62.0361005,59.6712712 C62.0471814,59.0364244 62.5707617,58.5308087 63.2056086,58.5418904 L70.1024149,58.662324 L70.2227943,51.7655622 C70.2338752,51.1307153 70.7574556,50.6250997 71.3923024,50.6361813 C72.0271046,50.6472168 72.5327655,51.170844 72.5216846,51.8056908 L72.4013068,58.7023618 Z" id="path-1"></path>
    </defs>
    <g id="Main-screens-Stage-1" stroke="none" stroke-width="1" fill="none" fill-rule="evenodd">
        <g id="Filter_Inbox-empty-folder-" transform="translate(-145.000000, -237.000000)">
            <g id="AddToFolder" transform="translate(145.960000, 237.240000)">
                <mask id="mask-2" fill="white">
                    <use xlink:href="#path-1"></use>
                </mask>
                <use id="icFolderEmpty" fill-opacity="0.6" fill="#666666" fill-rule="nonzero" xlink:href="#path-1"></use>
            </g>
        </g>
    </g>
</svg>