<?xml version="1.0" encoding="UTF-8"?>
<svg width="16px" height="12px" viewBox="0 0 16 12" version="1.1" xmlns="http://www.w3.org/2000/svg" xmlns:xlink="http://www.w3.org/1999/xlink">
    <!-- Generator: Sketch 52.3 (67297) - http://www.bohemiancoding.com/sketch -->
    <title>icMsgFolder@1.5x</title>
    <desc>Created with Sketch.</desc>
    <defs>
        <path d="M2.98439024,11.6 L12.1970732,11.6 C13.8653659,11.6 15.2,10.3150769 15.2,8.72676923 L15.2,2.87323077 C15.2,1.28492308 13.8653659,0 12.2156098,0 L2.98439024,0 C1.33463415,0 0,1.28492308 0,2.87323077 L0,8.70892308 C0,10.3150769 1.33463415,11.6 2.98439024,11.6 Z M12.2156098,10.8861538 L2.98439024,10.8861538 C2.00195122,10.8861538 1.16780488,10.2793846 0.871219512,9.44061538 L5.13463415,5.71076923 L5.39414634,5.94276923 C6.04292683,6.496 6.82146341,6.78153846 7.6,6.78153846 C8.37853659,6.78153846 9.15707317,6.51384615 9.78731707,5.96061538 L10.0468293,5.72861538 L14.3102439,9.45846154 C14.0136585,10.2793846 13.1795122,10.8861538 12.2156098,10.8861538 Z M0.926829268,2.01661538 L4.59707317,5.22892308 L0.741463415,8.584 L0.741463415,2.87323077 C0.741463415,2.56984615 0.815609756,2.28430769 0.926829268,2.01661538 Z M14.4585366,2.87323077 L14.4585366,8.584 L10.6214634,5.22892308 L14.2731707,2.03446154 C14.4029268,2.28430769 14.4585366,2.58769231 14.4585366,2.87323077 Z M2.98439024,0.713846154 L12.1970732,0.713846154 C12.8643902,0.713846154 13.4390244,0.981538462 13.8653659,1.42769231 L9.30536585,5.40738462 C8.32292683,6.264 6.89560976,6.264 5.91317073,5.40738462 L1.33463415,1.42769231 C1.74243902,0.981538462 2.33560976,0.713846154 2.98439024,0.713846154 Z" id="path-1"></path>
    </defs>
    <g id="Page-1" stroke="none" stroke-width="1" fill="none" fill-rule="evenodd">
        <g id="Filter_Inbox-folder" transform="translate(-19.000000, -381.000000)">
            <g id="Accept-video-chat-from-Copy-5" transform="translate(0.000000, 342.000000)">
                <g id="colour/dark-grey" transform="translate(19.400000, 39.400000)">
                    <mask id="mask-2" fill="white">
                        <use xlink:href="#path-1"></use>
                    </mask>
                    <use id="icMsgFolder" fill="#646464" fill-rule="nonzero" xlink:href="#path-1"></use>
                </g>
            </g>
        </g>
    </g>
</svg>