<?xml version="1.0" encoding="UTF-8"?>
<svg width="11px" height="15px" viewBox="0 0 11 15" version="1.1" xmlns="http://www.w3.org/2000/svg" xmlns:xlink="http://www.w3.org/1999/xlink">
    <!-- Generator: Sketch 53.2 (72643) - https://sketchapp.com -->
    <title>btnToggleSwipeProspect</title>
    <desc>Created with Sketch.</desc>
    <defs>
        <path d="M5.43278443,0.44749658 C6.50899889,0.447499218 7.47913465,1.14996031 7.89045346,2.22705872 C8.30177228,3.30415714 8.07319076,4.54356416 7.31138221,5.36687934 C6.54957367,6.19019452 5.40471364,6.43511751 4.41107984,5.98734883 C3.41744603,5.53958015 2.77091377,4.48738857 2.77320359,3.32180575 C2.77320199,2.55842852 3.05358748,1.82640644 3.55251897,1.28719239 C4.05145046,0.747978337 4.72794059,0.44586891 5.43278443,0.44749658 L5.43278443,0.44749658 Z M0.107964072,13.5381669 C0.107964072,13.5381669 -0.457904192,7.32990424 5.71571856,7.53827633 C5.71571856,7.53827633 10.7745808,7.0173461 10.7689222,13.5381669 C8.36828502,14.1127223 6.5891968,14.4 5.43165749,14.4 C4.22009395,14.4 2.44552948,14.1127223 0.107964072,13.5381669 Z" id="path-1"></path>
    </defs>
    <g id="Page-1" stroke="none" stroke-width="1" fill="none" fill-rule="evenodd">
        <mask id="mask-2" fill="white">
            <use xlink:href="#path-1"></use>
        </mask>
        <use id="btnToggleSwipeProspect" fill="#FFFFFF" fill-rule="nonzero" xlink:href="#path-1"></use>
    </g>
</svg>