<?xml version="1.0" encoding="UTF-8"?>
<svg width="13px" height="16px" viewBox="0 0 13 16" version="1.1" xmlns="http://www.w3.org/2000/svg" xmlns:xlink="http://www.w3.org/1999/xlink">
    <!-- Generator: Sketch 53.2 (72643) - https://sketchapp.com -->
    <title>btnToggleListProspect</title>
    <desc>Created with Sketch.</desc>
    <g id="Page-1" stroke="none" stroke-width="1" fill="none" fill-rule="evenodd">
        <path d="M0,1.0093689 C0,0.451909848 0.447489426,0 0.998502329,0 L12.0014977,0 C12.5529553,0 13,0.443353176 13,1.0093689 L13,2.9906311 C13,3.54809015 12.5525106,4 12.0014977,4 L0.998502329,4 C0.44704472,4 0,3.55664682 0,2.9906311 L0,1.0093689 Z M0,7.0093689 C0,6.45190985 0.447489426,6 0.998502329,6 L12.0014977,6 C12.5529553,6 13,6.44335318 13,7.0093689 L13,8.9906311 C13,9.54809015 12.5525106,10 12.0014977,10 L0.998502329,10 C0.44704472,10 0,9.55664682 0,8.9906311 L0,7.0093689 Z M0,13.0093689 C0,12.4519098 0.447489426,12 0.998502329,12 L12.0014977,12 C12.5529553,12 13,12.4433532 13,13.0093689 L13,14.9906311 C13,15.5480902 12.5525106,16 12.0014977,16 L0.998502329,16 C0.44704472,16 0,15.5566468 0,14.9906311 L0,13.0093689 Z" id="btnToggleListProspect" fill="#FFFFFF" fill-rule="nonzero"></path>
    </g>
</svg>