<?xml version="1.0" encoding="UTF-8"?>
<svg width="25px" height="25px" viewBox="0 0 25 25" version="1.1" xmlns="http://www.w3.org/2000/svg" xmlns:xlink="http://www.w3.org/1999/xlink">
    <!-- Generator: Sketch 52.1 (67048) - http://www.bohemiancoding.com/sketch -->
    <title>icBlockSwipeCard</title>
    <desc>Created with Sketch.</desc>
    <defs>
        <path d="M21.0614289,3.89205145 C21.0606143,3.89123681 21.0600712,3.89015063 21.0592566,3.88906446 C21.0578989,3.88770673 21.0562697,3.88662055 21.054912,3.88526283 C19.8446566,2.57804622 18.3332629,1.52092236 16.5801983,0.837715671 C16.1120628,0.654694484 15.6273632,0.499370865 15.1399483,0.376089532 C14.1567006,0.126539871 13.1484713,0 12.1432288,0 C6.5853407,0 1.74757761,3.76741239 0.378471109,9.16137806 C-0.419857555,12.3069529 0.0539803768,15.5747229 1.71282045,18.3626732 C3.37193206,21.1508951 6.01782135,23.1258403 9.1633449,23.9239105 C10.1468641,24.1734601 11.155365,24.3 12.160879,24.3 C16.0189244,24.3 19.6836331,22.4369312 21.9643006,19.316067 C22.8804778,18.0620731 23.540864,16.6565573 23.9261798,15.1378073 C24.9672655,11.0353086 23.7771041,6.83016606 21.0614289,3.89205145 Z M1.69408416,9.4956497 C2.91031344,4.70424191 7.20716813,1.35799549 12.1429573,1.35799549 C13.0355105,1.35799549 13.9315937,1.47041503 14.8064967,1.69253866 C15.2398751,1.80197121 15.6699951,1.93991597 16.0859949,2.10257129 C17.418715,2.62230802 18.5928555,3.38589196 19.5782755,4.32272148 L3.68881966,18.8422213 C3.39691377,18.4712911 3.12483033,18.0810813 2.87962938,17.6686047 C1.40597984,15.1921163 0.985092278,12.289574 1.69408416,9.4956497 Z M22.6102952,14.8040788 C22.2676112,16.1533848 21.6813556,17.4019477 20.8680922,18.5152814 C18.8424011,21.2874821 15.5874468,22.9425476 12.1611505,22.9425476 C11.2680542,22.9425476 10.3719711,22.8298565 9.49761109,22.6080044 C7.61773716,22.1311718 5.94043234,21.1791358 4.59413523,19.8542687 L20.5017843,5.31820468 C22.6013343,7.89217772 23.477052,11.3875022 22.6102952,14.8040788 Z" id="path-1"></path>
    </defs>
    <g id="Page-1" stroke="none" stroke-width="1" fill="none" fill-rule="evenodd">
        <g id="DeleteLikes" transform="translate(-242.000000, -277.000000)">
            <g id="colour/dark-grey-copy" transform="translate(242.080000, 277.080000)">
                <mask id="mask-2" fill="white">
                    <use xlink:href="#path-1"></use>
                </mask>
                <use id="icBlockSwipeCard" fill="#646464" fill-rule="nonzero" xlink:href="#path-1"></use>
            </g>
        </g>
    </g>
</svg>