<?xml version="1.0" encoding="UTF-8"?>
<svg width="23px" height="27px" viewBox="0 0 23 27" version="1.1" xmlns="http://www.w3.org/2000/svg" xmlns:xlink="http://www.w3.org/1999/xlink">
    <!-- Generator: Sketch 52.1 (67048) - http://www.bohemiancoding.com/sketch -->
    <title>icDeleteSwipeCard</title>
    <desc>Created with Sketch.</desc>
    <g id="Page-1" stroke="none" stroke-width="1" fill="none" fill-rule="evenodd">
        <g id="DeleteLikes" transform="translate(-324.000000, -276.000000)" fill="#FFFFFF" fill-rule="nonzero">
            <g id="icDeleteSwipeCard" transform="translate(324.000000, 276.000000)">
                <path d="M19.7239485,5.62013169 L18.9436189,24.6051029 C18.9188488,25.2077462 18.4051965,25.705883 17.8084927,25.705883 L4.19150731,25.705883 C3.59474185,25.705883 3.08110596,25.2066443 3.05638109,24.6051029 L2.27605148,5.62013169 C2.26137579,5.26308092 1.96395116,4.9856944 1.61173498,5.00057152 C1.25951875,5.01544865 0.985888098,5.31695574 1.00056379,5.67400647 L1.7808934,24.6589777 C1.83411381,25.9537993 2.91048528,27 4.19150731,27 L17.8084927,27 C19.0888238,27 20.1658146,25.9555409 20.2191066,24.6589777 L20.9994362,5.67400647 C21.0141119,5.31695574 20.7404813,5.01544865 20.388265,5.00057152 C20.0360488,4.9856944 19.7386242,5.26308092 19.7239485,5.62013169 Z" id="Shape"></path>
                <path d="M11,8.64864865 L11,23.3513514 C11,23.7095901 11.2238576,24 11.5,24 C11.7761424,24 12,23.7095901 12,23.3513514 L12,8.64864865 C12,8.2904099 11.7761424,8 11.5,8 C11.2238576,8 11,8.2904099 11,8.64864865 Z" id="Shape"></path>
                <path d="M6.00033057,8.66772337 L6.50032739,23.3704159 C6.51250476,23.7284996 6.85801566,24.010246 7.27204757,23.9997141 C7.68607943,23.9891823 8.01184685,23.6903603 7.99966943,23.3322766 L7.49967261,8.62958406 C7.48749524,8.27150042 7.14198434,7.98975402 6.72795243,8.0002859 C6.31392057,8.01081774 5.98815315,8.30963968 6.00033057,8.66772337 Z" id="Shape"></path>
                <path d="M15.5003274,8.62958406 L15.0003306,23.3322766 C14.9881532,23.6903603 15.3139206,23.9891823 15.7279524,23.9997141 C16.1419843,24.010246 16.4874952,23.7284996 16.4996726,23.3704159 L16.9996694,8.66772337 C17.0118468,8.30963968 16.6860794,8.01081774 16.2720476,8.0002859 C15.8580157,7.98975402 15.5125048,8.27150042 15.5003274,8.62958406 Z" id="Shape"></path>
                <path d="M0.650943396,4 L22.3490566,4 C22.7085627,4 23,3.77614237 23,3.5 C23,3.22385763 22.7085627,3 22.3490566,3 L0.650943396,3 C0.291437296,3 0,3.22385763 0,3.5 C0,3.77614237 0.291437296,4 0.650943396,4 Z" id="Shape"></path>
                <path d="M8.22246102,3 L8.6921739,1.86256771 C8.81722035,1.55976181 9.25104753,1.27531392 9.58617678,1.27531392 L14.4138232,1.27531392 C14.7513575,1.27531392 15.1819124,1.55766175 15.3078261,1.86256771 L15.777539,3 L17,2.52636031 L16.5302871,1.38892802 C16.2044241,0.599834974 15.28973,0 14.4138232,0 L9.58617678,0 C8.71271396,0 7.79472316,0.601899963 7.46971288,1.38892802 L7,2.52636031 L8.22246102,3 Z" id="Shape"></path>
            </g>
        </g>
    </g>
</svg>