<?xml version="1.0" encoding="UTF-8"?>
<svg width="60px" height="60px" viewBox="0 0 60 60" version="1.1" xmlns="http://www.w3.org/2000/svg" xmlns:xlink="http://www.w3.org/1999/xlink">
    <!-- Generator: Sketch 52.1 (67048) - http://www.bohemiancoding.com/sketch -->
    <title>icDeleteCarouselProspects</title>
    <desc>Created with Sketch.</desc>
    <defs>
        <path d="M26.3550055,23.5000564 L34.9198107,14.9352412 C35.7082113,14.1468397 35.7082113,12.8685916 34.9198107,12.0803028 C34.1314101,11.2919013 32.8532762,11.2919013 32.0648756,12.0803028 L23.4999577,20.6452308 L14.9350398,12.08019 C14.1466392,11.2917885 12.8685053,11.2917885 12.0801047,12.08019 C11.2918169,12.8685916 11.2918169,14.1468397 12.0801047,14.9351284 L20.6450227,23.4999436 L12.0801047,32.0648716 C11.2918169,32.8532731 11.2918169,34.1315212 12.0801047,34.91981 C12.8685053,35.7082115 14.1466392,35.7082115 14.9350398,34.91981 L23.4999577,26.354882 L32.0648756,34.91981 C32.8531634,35.7082115 34.1314101,35.7082115 34.9198107,34.91981 C35.7082113,34.1314084 35.7082113,32.8532731 34.9198107,32.0648716 L26.3550055,23.5000564 Z" id="path-1"></path>
    </defs>
    <g id="Page-1" stroke="none" stroke-width="1" fill="none" fill-rule="evenodd">
        <g id="Prospects-Likes-Swipe-Copy" transform="translate(-63.000000, -1427.000000)">
            <g id="icDeleteCarouselProspects" transform="translate(63.000000, 1427.000000)">
                <path d="M30,0.5 C13.7764153,0.5 0.5,13.7764153 0.5,30 C0.5,46.2235847 13.7764153,59.5 30,59.5 C46.2235847,59.5 59.5,46.2235847 59.5,30 C59.5,13.7764153 46.2235847,0.5 30,0.5 Z" id="Stroke-1" stroke="#FFFFFF"></path>
                <g id="UI/icon/close-x-Profile" transform="translate(6.562500, 6.562500)">
                    <mask id="mask-2" fill="white">
                        <use xlink:href="#path-1"></use>
                    </mask>
                    <use id="Shape" fill="#FFFFFF" fill-rule="nonzero" xlink:href="#path-1"></use>
                    <g id="colour/white" mask="url(#mask-2)" fill="#FFFFFF" fill-rule="evenodd">
                        <polygon id="colour/light-grey" points="0 0 47 0 47 47 0 47"></polygon>
                    </g>
                </g>
            </g>
        </g>
    </g>
</svg>