<?xml version="1.0" encoding="UTF-8"?>
<svg width="60px" height="60px" viewBox="0 0 60 60" version="1.1" xmlns="http://www.w3.org/2000/svg" xmlns:xlink="http://www.w3.org/1999/xlink">
    <!-- Generator: Sketch 52.1 (67048) - http://www.bohemiancoding.com/sketch -->
    <title>icSuperLikeCarouselProspects</title>
    <desc>Created with Sketch.</desc>
    <defs>
        <path d="M35.0659139,16.0064075 C35.7576444,15.3370815 36.001826,14.3547513 35.70346,13.4415894 C35.4043904,12.5284275 34.6254018,11.8765683 33.6683789,11.7382316 L25.159319,10.5106682 C24.7969169,10.4582679 24.4837734,10.2325974 24.3219239,9.90631849 L20.5177577,2.25168845 C20.0906159,1.39162551 19.2236657,0.857142857 18.2574947,0.857142857 C17.2920274,0.857142857 16.4250772,1.39162551 15.9979354,2.25168845 L12.1930655,9.90701716 C12.031216,10.2332961 11.7173688,10.4589666 11.3549667,10.5113668 L2.84590682,11.7389303 C1.88958756,11.8765683 1.10989534,12.5291262 0.810825669,13.4422881 C0.512459692,14.3554499 0.756641282,15.3377801 1.44837184,16.0071061 L7.60498489,21.9653651 C7.86746251,22.219681 7.98779407,22.5857842 7.92586905,22.9435033 L6.47344599,31.3568891 C6.34467011,32.0974794 6.54029686,32.8178083 7.02303049,33.3858271 C7.7731676,34.2710422 9.08274091,34.5407289 10.1298366,33.9943688 L17.7395764,30.0217304 C18.0576458,29.8561456 18.4580473,29.857543 18.775413,30.0217304 L26.3858565,33.9943688 C26.7559992,34.1879005 27.1507712,34.2857143 27.5582096,34.2857143 C28.3020135,34.2857143 29.0071142,33.9573393 29.4919589,33.3858271 C29.9753962,32.8178083 30.1703193,32.0960821 30.0415434,31.3568891 L28.5884167,22.9435033 C28.5264916,22.5850855 28.6468232,22.219681 28.9093008,21.9653651 L35.0659139,16.0064075 Z" id="path-1"></path>
    </defs>
    <g id="Page-1" stroke="none" stroke-width="1" fill="none" fill-rule="evenodd">
        <g id="Prospects-Likes-Swipe-Copy" transform="translate(-158.000000, -1427.000000)">
            <g id="icSuperLikeCarouselProspects" transform="translate(158.000000, 1427.000000)">
                <path d="M30,1 C14.0525577,1 1,14.0525577 1,30 C1,45.9474423 14.0525577,59 30,59 C45.9474423,59 59,45.9474423 59,30 C59,14.0525577 45.9474423,1 30,1 Z" id="Stroke-1" stroke="#FFFFFF" stroke-width="2" fill="#FFFFFF" transform="translate(30.000000, 30.000000) rotate(-360.000000) translate(-30.000000, -30.000000) "></path>
                <g id="Group-4" transform="translate(12.171429, 12.000000)">
                    <mask id="mask-2" fill="white">
                        <use xlink:href="#path-1"></use>
                    </mask>
                    <use id="Mask" stroke="#10C2E1" stroke-width="2" fill-rule="nonzero" xlink:href="#path-1"></use>
                </g>
            </g>
        </g>
    </g>
</svg>