<?xml version="1.0" encoding="UTF-8"?>
<svg width="23px" height="5px" viewBox="0 0 23 5" version="1.1" xmlns="http://www.w3.org/2000/svg" xmlns:xlink="http://www.w3.org/1999/xlink">
    <!-- Generator: Sketch 52.1 (67048) - http://www.bohemiancoding.com/sketch -->
    <title>icThreeDotVertical</title>
    <desc>Created with Sketch.</desc>
    <defs>
        <path d="M333.125,42.5833333 C331.974407,42.5833333 331.041667,41.6505932 331.041667,40.5 C331.041667,39.3494068 331.974407,38.4166667 333.125,38.4166667 C334.275593,38.4166667 335.208333,39.3494068 335.208333,40.5 C335.208333,41.6505932 334.275593,42.5833333 333.125,42.5833333 Z M342.5,42.5833333 C341.349407,42.5833333 340.416667,41.6505932 340.416667,40.5 C340.416667,39.3494068 341.349407,38.4166667 342.5,38.4166667 C343.650593,38.4166667 344.583333,39.3494068 344.583333,40.5 C344.583333,41.6505932 343.650593,42.5833333 342.5,42.5833333 Z M351.875,42.5833333 C350.724407,42.5833333 349.791667,41.6505932 349.791667,40.5 C349.791667,39.3494068 350.724407,38.4166667 351.875,38.4166667 C353.025593,38.4166667 353.958333,39.3494068 353.958333,40.5 C353.958333,41.6505932 353.025593,42.5833333 351.875,42.5833333 Z" id="path-1"></path>
    </defs>
    <g id="Page-1" stroke="none" stroke-width="1" fill="none" fill-rule="evenodd">
        <g id="Views" transform="translate(-331.000000, -207.000000)">
            <g id="UI/User-ShortDesc" transform="translate(0.000000, 169.000000)">
                <mask id="mask-2" fill="white">
                    <use xlink:href="#path-1"></use>
                </mask>
                <use id="icThreeDotVertical" fill="#333333" xlink:href="#path-1"></use>
            </g>
        </g>
    </g>
</svg>