<?xml version="1.0" encoding="UTF-8"?>
<svg width="25px" height="25px" viewBox="0 0 25 25" version="1.1" xmlns="http://www.w3.org/2000/svg" xmlns:xlink="http://www.w3.org/1999/xlink">
    <!-- Generator: Sketch 52.1 (67048) - http://www.bohemiancoding.com/sketch -->
    <title>icViewFavourite</title>
    <desc>Created with Sketch.</desc>
    <defs>
        <path d="M57.4574591,648.376395 C57.9495438,647.895853 58.1232502,647.190591 57.910998,646.534987 C57.6982452,645.879384 57.1440867,645.411382 56.4632777,645.312064 L50.4100847,644.430736 C50.1522783,644.393115 49.9295136,644.231096 49.8143768,643.996844 L47.108161,638.501212 C46.8042999,637.883731 46.187567,637.5 45.5002503,637.5 C44.8134342,637.5 44.1967013,637.883731 43.8928402,638.501212 L41.1861238,643.997346 C41.070987,644.231597 40.8477217,644.393617 40.5899153,644.431238 L34.5367223,645.312565 C33.8564139,645.411382 33.3017548,645.879885 33.089002,646.535489 C32.8767498,647.191092 33.0504562,647.896355 33.5425409,648.376897 L37.9222453,652.654621 C38.1089672,652.837207 38.194569,653.10005 38.1505166,653.356874 L37.1172888,659.397254 C37.02568,659.92896 37.1648453,660.446119 37.5082534,660.853927 C38.0418875,661.489466 38.9734945,661.683087 39.7183797,661.290829 L45.1318125,658.438678 C45.3580814,658.319797 45.6429198,658.3208 45.8686881,658.438678 L51.2826215,661.290829 C51.5459344,661.429775 51.8267681,661.5 52.1166125,661.5 C52.6457413,661.5 53.1473373,661.264244 53.4922472,660.853927 C53.8361559,660.446119 53.9748206,659.927956 53.8832118,659.397254 L52.8494834,653.356874 C52.805431,653.099549 52.8910328,652.837207 53.0777547,652.654621 L57.4574591,648.376395 Z" id="path-1"></path>
    </defs>
    <g id="Page-1" stroke="none" stroke-width="1" fill="none" fill-rule="evenodd">
        <g id="Prospects-Likes-Swipe-Copy" transform="translate(-33.000000, -637.000000)">
            <mask id="mask-2" fill="white">
                <use xlink:href="#path-1"></use>
            </mask>
            <use id="icViewFavourite" fill="#FFFFFF" fill-rule="nonzero" xlink:href="#path-1"></use>
        </g>
    </g>
</svg>