<?xml version="1.0" encoding="UTF-8"?>
<svg width="23px" height="23px" viewBox="0 0 23 23" version="1.1" xmlns="http://www.w3.org/2000/svg" xmlns:xlink="http://www.w3.org/1999/xlink">
    <!-- Generator: Sketch 53.2 (72643) - https://sketchapp.com -->
    <title>icViewFavouriteMatch</title>
    <desc>Created with Sketch.</desc>
    <defs>
        <path d="M35.3535108,152.955329 C36.2563586,151.985548 37.4434356,151.5 38.6321208,151.5 C39.8208059,151.5 41.0138562,151.98555 41.9167232,152.955329 L42.9996122,154.122048 L44.0825203,152.96147 C45.8882351,151.02187 48.8400183,151.021913 50.6457139,152.96147 C52.4514287,154.901028 52.4514287,158.016083 50.6457139,159.955643 C48.1883742,162.59515 45.7321445,165.237605 43.2748239,167.877053 C43.2024941,167.955535 43.1018799,168 42.9966255,168 C42.8913711,168 42.7907569,167.955535 42.7184271,167.877053 L35.3535108,159.949493 C33.5498637,158.008431 33.547796,154.894856 35.3535108,152.955329 Z M49.1391579,145.661513 C49.5655027,145.220704 50.1260668,145 50.6873904,145 C51.2487139,145 51.8120988,145.220704 52.2384526,145.661513 L52.7498169,146.19184 L53.2611901,145.664304 C54.1138888,144.782668 55.5077864,144.782688 56.360476,145.664304 C57.2131747,146.545922 57.2131747,147.961856 56.360476,148.843474 C55.2000656,150.04325 54.0401794,151.244366 52.879778,152.444115 C52.8456222,152.479789 52.79811,152.5 52.7484065,152.5 C52.698703,152.5 52.6511908,152.479789 52.617035,152.444115 L49.1391579,148.840678 C48.2874356,147.958378 48.2864592,146.543116 49.1391579,145.661513 Z" id="path-1"></path>
    </defs>
    <g id="Page-1" stroke="none" stroke-width="1" fill="none" fill-rule="evenodd">
        <g id="Prospects-Favourite-Swipe-I-have-fav-Copy" transform="translate(-34.000000, -145.000000)">
            <mask id="mask-2" fill="white">
                <use xlink:href="#path-1"></use>
            </mask>
            <use id="icViewFavouriteMatch" fill="#FFFFFF" xlink:href="#path-1"></use>
        </g>
    </g>
</svg>