<?xml version="1.0" encoding="UTF-8"?>
<svg width="25px" height="15px" viewBox="0 0 25 15" version="1.1" xmlns="http://www.w3.org/2000/svg" xmlns:xlink="http://www.w3.org/1999/xlink">
    <!-- Generator: Sketch 52.1 (67048) - http://www.bohemiancoding.com/sketch -->
    <title>icView</title>
    <desc>Created with Sketch.</desc>
    <defs>
        <path d="M51.4405866,179.085736 C51.8013522,179.461716 51.9999997,179.963987 51.9999997,180.499679 C52.0003016,181.035691 51.8016541,181.537962 51.4408885,181.914264 C49.6853638,183.744034 45.0077888,188 39.5,188 C33.9919093,188 29.3146362,183.744355 27.5594134,181.914585 C27.1983459,181.538284 26.9996984,181.036013 27.0000003,180.5 C27.0000003,179.963987 27.1986478,179.462038 27.5594134,179.086058 C29.3146362,177.256288 33.9922112,173 39.5,173 C45.0074869,173 49.6850619,177.255966 51.4405866,179.085736 Z M39.5,176.004627 C37.171175,176.004627 35.2767783,178.021102 35.2767783,180.5 C35.2767783,182.978898 37.171175,184.995373 39.5,184.995373 C41.828825,184.995373 43.7232217,182.978898 43.7232217,180.5 C43.7232217,178.021102 41.8285231,176.004627 39.5,176.004627 Z M39.5,183.592035 C37.8984423,183.592035 36.5951577,182.204765 36.5951577,180.5 C36.5951577,178.795235 37.8981404,177.407965 39.5,177.407965 C41.1018596,177.407965 42.4048423,178.794914 42.4048423,180.5 C42.4048423,182.205086 41.1015577,183.592035 39.5,183.592035 Z" id="path-1"></path>
    </defs>
    <g id="Page-1" stroke="none" stroke-width="1" fill="none" fill-rule="evenodd">
        <g id="Prospects-Views-Swipe-Copy-2" transform="translate(-27.000000, -173.000000)">
            <mask id="mask-2" fill="white">
                <use xlink:href="#path-1"></use>
            </mask>
            <use id="icView" fill="#FFFFFF" fill-rule="nonzero" xlink:href="#path-1"></use>
        </g>
    </g>
</svg>