<?xml version="1.0" encoding="UTF-8"?>
<svg width="17px" height="13px" viewBox="0 0 17 13" version="1.1" xmlns="http://www.w3.org/2000/svg" xmlns:xlink="http://www.w3.org/1999/xlink">
    <!-- Generator: Sketch 55.2 (78181) - https://sketchapp.com -->
    <title>icDiamondMsg</title>
    <desc>Created with Sketch.</desc>
    <g id="Main-screens-Stage-1" stroke="none" stroke-width="1" fill="none" fill-rule="evenodd">
        <path d="M7.9213311,12.2359587 L0.0769947661,3.91658323 C-0.00769675651,3.83428592 -0.0311525047,3.6947135 0.0506048741,3.58593098 L2.67066703,0.0997996183 C2.72067111,0.0332665412 2.79559385,1.7304523e-09 2.87051658,2.41547732e-12 L8.11026589,1.8189894e-12 C8.11026603,5.84289059e-13 8.11026608,5.82716053e-13 8.11026613,5.95975225e-13 L13.3503903,1.8189894e-12 C13.425313,2.37286926e-12 13.5002357,0.0332665394 13.5502398,0.0997996183 L16.170302,3.58593098 C16.2466513,3.68751778 16.2312463,3.81595584 16.159902,3.89952555 L16.1681063,3.90722632 L16.1609691,3.91482915 L8.31497928,12.2359257 C8.2663244,12.2988041 8.19224827,12.3302592 8.11816665,12.3302696 C8.18443394,12.3302625 8.25069902,12.3040984 8.3000328,12.2517773 L8.31497928,12.2359257 Z M8.6810955,11.1188094 L15.4065223,3.98613136 L10.9140282,3.98613136 L8.6810955,11.1188094 Z M7.55231565,11.1157644 L5.30720125,3.98613136 L0.829787026,3.98613136 L7.55231565,11.1157644 Z M5.83140574,3.98613136 L8.11743987,11.24571 L10.3900997,3.98613136 L5.83140574,3.98613136 Z M3.37114364,0.5 C4.2967178,1.7315254 5.0031914,2.67152592 5.49056444,3.32000154 L7.60968194,0.5 L3.37114364,0.5 Z M8.61089302,0.5 L10.7303281,3.32002056 L12.8497632,0.5 L8.61089302,0.5 Z M0.751081488,3.48613136 L4.98995168,3.48613136 L2.87051659,0.666110794 L0.751081488,3.48613136 Z M10.2297011,3.48613136 L8.11028026,0.666129822 L5.99116276,3.48613136 L10.2297011,3.48613136 Z M15.4698254,3.48613136 L13.3503903,0.666110794 L11.2309552,3.48613136 L15.4698254,3.48613136 Z" id="icDiamondMsg" fill="#333333" fill-rule="nonzero"></path>
    </g>
</svg>