<?xml version="1.0" encoding="UTF-8"?>
<svg width="29px" height="26px" viewBox="0 0 29 26" version="1.1" xmlns="http://www.w3.org/2000/svg" xmlns:xlink="http://www.w3.org/1999/xlink">
    <!-- Generator: Sketch 55.2 (78181) - https://sketchapp.com -->
    <title>icFolderDsk</title>
    <desc>Created with Sketch.</desc>
    <g id="Page-1" stroke="none" stroke-width="1" fill="none" fill-rule="evenodd">
        <path d="M17.4568873,22 L1.15163265,22 C0.790204082,22 0.457061224,21.8356735 0.237061224,21.5483265 C0.0790204082,21.3413469 0.000448979592,21.0939592 0.00269387755,20.8411837 L-3.33955086e-13,20.8411837 L-3.33955086e-13,1.22661224 C-3.33955086e-13,0.55044898 0.55044898,0 1.22661224,0 L9.65979592,0 L11.9046939,3.14285714 L23.0182857,3.14285714 C23.694449,3.14285714 24.244898,3.69285714 24.244898,4.36946939 L24.244898,7.18367347 L25.8118367,7.18367347 C26.4646531,7.18367347 26.9387755,7.74489796 26.9387755,8.51804082 L26.9387755,8.5975102 L24.8273442,14.3867055 C26.9763,15.2196284 28.5,17.3068746 28.5,19.75 C28.5,22.9256373 25.9256373,25.5 22.75,25.5 C20.3728296,25.5 18.3325829,24.0574576 17.4568873,22 Z M17.159856,21.1020408 C17.0553593,20.6684384 17,20.2156841 17,19.75 C17,16.5743627 19.5743627,14 22.75,14 C23.1673462,14 23.5743075,14.0444632 23.9664052,14.128911 L26.0372245,8.44934694 C26.026,8.32677551 25.982449,8.08163265 25.8118367,8.08163265 L24.244898,8.08163265 L5.7155102,8.08163265 C5.60146939,8.08163265 5.50044898,8.15885714 5.47081633,8.26885714 L0.895265306,20.8191837 C0.878653061,20.8874286 0.922204082,20.965551 0.950489796,21.0023673 C0.97877551,21.0396327 1.04253061,21.1020408 1.15163265,21.1020408 L17.159856,21.1020408 Z M0.897959184,1.22661224 L0.897959184,18.1383265 L4.61640816,7.99722449 C4.72461224,7.59179592 5.08783673,7.27302041 5.52469388,7.19983673 C5.58710204,7.18906122 5.65130612,7.18367347 5.71595918,7.18367347 L23.3464898,7.18367347 L23.3464898,4.36946939 C23.3464898,4.18808163 23.1992245,4.04081633 23.0178367,4.04081633 L11.4422449,4.04081633 L9.19734694,0.897959184 L1.22661224,0.897959184 C1.04567347,0.897959184 0.897959184,1.04522449 0.897959184,1.22661224 Z M22.75,15 C20.1266474,15 18,17.1266474 18,19.75 C18,22.3733526 20.1266474,24.5 22.75,24.5 C25.3733526,24.5 27.5,22.3733526 27.5,19.75 C27.5,17.1266474 25.3733526,15 22.75,15 Z M25.0790808,19.6139224 C25.1762933,19.7201199 25.2255843,19.8588995 25.2193328,20 C25.2255843,20.1411005 25.1762933,20.2798801 25.0790808,20.3860776 L22.6899003,22.996081 C22.675548,23.0113038 22.675548,23.0113038 22.6603252,23.0256561 C22.4672678,23.2023796 22.1675011,23.1891384 21.9907776,22.996081 C21.8030741,22.7910288 21.8030741,22.4765683 21.9907776,22.271516 L24.070109,20 L21.9907776,17.728484 C21.8030741,17.5234317 21.8030741,17.2089712 21.9907776,17.003919 C22.0051299,16.9886962 22.0051299,16.9886962 22.0203527,16.9743439 C22.2134101,16.7976204 22.5131768,16.8108616 22.6899003,17.003919 L25.0790808,19.6139224 Z" id="icFolderDsk" fill="#535353" fill-rule="nonzero"></path>
    </g>
</svg>