<?xml version="1.0" encoding="UTF-8"?>
<svg width="53px" height="62px" viewBox="0 0 53 62" version="1.1" xmlns="http://www.w3.org/2000/svg" xmlns:xlink="http://www.w3.org/1999/xlink">
    <!-- Generator: Sketch 55.2 (78181) - https://sketchapp.com -->
    <title>icFriendFavEmptyState</title>
    <desc>Created with Sketch.</desc>
    <defs>
        <path d="M14.0900544,33.6666667 C10.0075959,33.6666667 6.66728928,30.66268 6.66666667,26.9907053 L6.66666667,23.6754015 C6.66666667,20.0039867 10.0075959,17 14.0900544,17 L15.9099456,17 C19.9930268,17 23.3333333,20.0039867 23.3333333,23.6754015 L23.3333333,26.9907053 C23.3333333,30.66268 19.9924041,33.6666667 15.9099456,33.6666667 L14.0900544,33.6666667 Z M23.0751265,40.3333333 C26.893733,40.3333333 30,43.8683616 30,48.2133898 L30,59.5939216 C30,60.9228795 29.0535228,62 27.8857532,62 L2.11424679,62 C0.946477228,62 0,60.9228795 0,59.5939216 L0,48.2133898 C0,43.8683616 3.10626703,40.3333333 6.92370572,40.3333333 L23.0751265,40.3333333 Z M52.4140558,12.2359445 L47.683975,17.0489487 C47.4823154,17.2543577 47.3898655,17.5494921 47.4374421,17.8389834 L48.5538687,24.6344104 C48.6528063,25.2314509 48.5030483,25.8143836 48.131627,26.2731681 C47.7591243,26.7347741 47.2174006,27 46.6459415,27 C46.3329096,27 46.0296091,26.9209965 45.7452312,26.7646825 L39.8981832,23.556013 C39.6543534,23.4234001 39.3467279,23.4222715 39.1023575,23.556013 L33.2558501,26.7646825 C32.4513741,27.2059733 31.4452385,26.9881495 30.8689137,26.2731681 C30.498033,25.8143836 30.3477344,25.2325795 30.4466719,24.6344104 L31.5625579,17.8389834 C31.6101345,17.5500564 31.5176846,17.2543577 31.316025,17.0489487 L26.5859442,12.2365088 C26.0544927,11.6958993 25.8668898,10.9024788 26.0961222,10.164925 C26.3258952,9.42737115 26.924927,8.90030515 27.6596601,8.78913598 L34.1971086,7.79764244 C34.4755394,7.75531915 34.716666,7.57304686 34.8410137,7.30951386 L37.7642674,1.12636375 C38.0924374,0.43169753 38.7585089,0 39.5002703,0 C40.2425724,0 40.9086439,0.43169753 41.2368139,1.12636375 L44.1595269,7.30894955 C44.2838747,7.57248255 44.5244606,7.75475484 44.8028914,7.79707813 L51.3403399,8.78857167 C52.0756136,8.90030515 52.6741048,9.42680684 52.9038778,10.1643607 C53.1331102,10.9019145 52.9455073,11.695335 52.4140558,12.2359445 Z" id="path-1"></path>
    </defs>
    <g id="Main-screens-Stage-1" stroke="none" stroke-width="1" fill="none" fill-rule="evenodd">
        <g id="PopuP---No-friends-and-favourites" transform="translate(-169.000000, -128.000000)">
            <g id="Icons/General/Friends&amp;Favourites" transform="translate(169.000000, 128.000000)">
                <mask id="mask-2" fill="white">
                    <use xlink:href="#path-1"></use>
                </mask>
                <use id="icFriendFavEmptyState" fill-opacity="0.6" fill="#666666" fill-rule="nonzero" xlink:href="#path-1"></use>
            </g>
        </g>
    </g>
</svg>