<?xml version="1.0" encoding="UTF-8"?>
<svg width="118px" height="66px" viewBox="0 0 118 66" version="1.1" xmlns="http://www.w3.org/2000/svg" xmlns:xlink="http://www.w3.org/1999/xlink">
    <!-- Generator: Sketch 55.2 (78181) - https://sketchapp.com -->
    <title>icMssEmpty</title>
    <desc>Created with Sketch.</desc>
    <g id="Main-screens-Stage-1" stroke="none" stroke-width="1" fill="none" fill-rule="evenodd">
        <g id="Messenger-Inbox---no-chats" transform="translate(-129.000000, -334.000000)" fill-rule="nonzero">
            <g id="icMssEmpty" transform="translate(129.000000, 334.000000)">
                <path d="M69.7856006,9 C69.7856006,9 69.7856006,37.2987352 69.7856006,39.1000731 C69.7856006,43.8301681 65.8641135,47.7000244 61.0714591,47.7000244 L48,47.7000244 C48,49.2714456 48.4639645,50.7288829 49.2179068,52 L61.0714591,52 C68.27895,52 74.1429182,46.2128733 74.1429182,39.0998295 L82.7896862,39.0998295 C83.8814834,39.0998295 84.8570428,38.3355518 85.0125203,37.2687779 C85.2057566,35.9396945 84.1677594,34.7998539 82.8570597,34.7998539 L74.1429182,34.7998539 L74.1429182,30.4998782 L106.821319,30.4998782 C108.073776,30.4998782 109.07747,29.4586777 108.995289,28.2063143 C108.919771,27.0642817 107.906947,26.2001461 106.746542,26.2001461 L74.1426714,26.2001461 L74.1426714,21.9001705 L91.4971644,21.9001705 C92.6573224,21.9001705 93.6699002,21.0360349 93.745171,19.8937587 C93.827352,18.641639 92.8236586,17.6001948 91.5712013,17.6001948 L74.1426714,17.6001948 L74.1426714,9 L109.250093,9 C114.062666,9 118,12.9021493 118,17.6711701 L118,48.0205112 C118,52.7897776 114.062418,56.6916813 109.250093,56.6916813 L80.8125232,56.6916813 L80.8125232,64.9139447 C80.8125232,65.8797819 79.6342222,66.3630689 78.945579,65.6803769 L69.8750155,56.6919269 L56.7499071,56.6919269 C51.9373343,56.6919269 48,52.7897776 48,48.0207568 L48,17.6714157 C48,12.9021493 51.9375821,9 56.7501549,9 L69.7856006,9 Z" id="Combined-Shape" fill-opacity="0.4" fill="#666666"></path>
                <path d="M106.581975,21.5176629 L100.042963,21.5176629 C98.8382716,21.5176629 97.8632099,20.5405169 97.8632099,19.3354607 C97.8632099,18.1304045 98.8380247,17.1532584 100.042963,17.1532584 L106.581975,17.1532584 C107.786667,17.1532584 108.761728,18.1304045 108.761728,19.3354607 C108.761728,20.5405169 107.786914,21.5176629 106.581975,21.5176629 Z M106.581975,38.9745393 L91.3244444,38.9745393 C90.1197531,38.9745393 89.1446914,37.9973933 89.1446914,36.7923371 C89.1446914,35.5872809 90.1195062,34.6101348 91.3244444,34.6101348 L106.581975,34.6101348 C107.786667,34.6101348 108.761728,35.5872809 108.761728,36.7923371 C108.761728,37.9973933 107.786914,38.9745393 106.581975,38.9745393 Z M106.812407,47 L76.1875929,47 C74.9785687,47 74,46.1044404 74,45 C74,43.8955596 74.9783209,43 76.1875929,43 L106.812407,43 C108.021431,43 109,43.8955596 109,45 C109,46.1044404 108.021679,47 106.812407,47 Z" id="Combined-Shape" fill="#F0F0F0"></path>
                <path d="M61.2498451,0 L8.74990707,0 C3.93733428,0 0,3.90214935 0,8.67117014 L0,39.0205112 C0,43.7897776 3.93758208,47.6916813 8.74990707,47.6916813 L37.1874768,47.6916813 L37.1874768,55.9139447 C37.1874768,56.8797819 38.3657778,57.3630689 39.054421,56.6803769 L48.1249845,47.6919269 L61.2500929,47.6919269 C66.0626657,47.6919269 70,43.7897776 70,39.0207568 L70,8.67117014 C70,3.90214935 66.0624179,0 61.2498451,0 Z" id="Shape" fill-opacity="0.6" fill="#666666"></path>
                <path d="M17.7997009,13 L11.2000498,13 C9.98414101,13 9,12.1044404 9,11 C9,9.89555958 9.9838918,9 11.2000498,9 L17.7999502,9 C19.015859,9 20,9.89555958 20,11 C20,12.1044404 19.015859,13 17.7997009,13 Z M58.803061,13.3251481 L26.4766385,13.3251481 C25.2855211,13.3251481 24.321446,12.3735 24.321446,11.1998889 C24.321446,10.0262778 25.285277,9.07462963 26.4766385,9.07462963 L58.803061,9.07462963 C59.9941784,9.07462963 60.9582535,10.0262778 60.9582535,11.1998889 C60.9582535,12.3735 59.9941784,13.3251481 58.803061,13.3251481 Z M58.803061,21.8257037 L11.3910235,21.8257037 C10.1999061,21.8257037 9.23583099,20.8740556 9.23583099,19.7004444 C9.23583099,18.5268333 10.199662,17.5751852 11.3910235,17.5751852 L58.803061,17.5751852 C59.9941784,17.5751852 60.9582535,18.5268333 60.9582535,19.7004444 C60.9582535,20.8740556 59.9941784,21.8257037 58.803061,21.8257037 Z M58.7999502,30 L52.2000498,30 C50.984141,30 50,29.1044404 50,28 C50,26.8955596 50.9838918,26 52.2000498,26 L58.7999502,26 C60.015859,26 61,26.8955596 61,28 C60.9997508,29.104667 60.015859,30 58.7999502,30 Z M58.803061,38.9752037 L11.3910235,38.9752037 C10.1999061,38.9752037 9.23583099,38.0235556 9.23583099,36.8499444 C9.23583099,35.6763333 10.199662,34.7246852 11.3910235,34.7246852 L58.803061,34.7246852 C59.9941784,34.7246852 60.9582535,35.6763333 60.9582535,36.8499444 C60.9582535,38.0235556 59.9941784,38.9752037 58.803061,38.9752037 Z M43.7172019,30.4744074 L11.3910235,30.4744074 C10.1999061,30.4744074 9.23583099,29.5227593 9.23583099,28.3491481 C9.23583099,27.175537 10.199662,26.2238889 11.3910235,26.2238889 L43.717446,26.2238889 C44.9085634,26.2238889 45.8726385,27.175537 45.8726385,28.3491481 C45.8726385,29.523 44.9085634,30.4744074 43.7172019,30.4744074 Z" id="Combined-Shape" fill="#FFFFFF"></path>
            </g>
        </g>
    </g>
</svg>