<?xml version="1.0" encoding="UTF-8"?>
<svg width="60px" height="56px" viewBox="0 0 60 56" version="1.1" xmlns="http://www.w3.org/2000/svg" xmlns:xlink="http://www.w3.org/1999/xlink">
    <!-- Generator: Sketch 55.2 (78181) - https://sketchapp.com -->
    <title>icMutualEmptyState</title>
    <desc>Created with Sketch.</desc>
    <defs>
        <path d="M3.80858191,20.2442161 C6.01554325,17.9520063 8.91728698,16.8043478 11.8229619,16.8043478 C14.7286367,16.8043478 17.6449818,17.952011 19.85199,20.2442161 L22.4990519,23.0019164 L25.1461607,20.2587303 C29.5601302,15.6742225 36.7756002,15.6743247 41.1895229,20.2587303 C45.6034924,24.8431406 45.6034924,32.2059984 41.1895229,36.7904133 C35.1826925,43.0292487 29.1785755,49.2750509 23.1717919,55.5137469 C22.9949856,55.6992481 22.7490398,55.8043478 22.4917512,55.8043478 C22.2344626,55.8043478 21.9885169,55.6992481 21.8117106,55.5137469 L3.80858191,36.7758759 C-0.600333112,32.1879125 -0.605387436,24.8285521 3.80858191,20.2442161 Z M41.9287058,2.30377759 C42.8817119,1.30460922 44.1347376,0.804347826 45.3894608,0.804347826 C46.644184,0.804347826 47.9035149,1.30461124 48.8565411,2.30377759 L49.9995906,3.50585208 L51.1426603,2.3101043 C53.0486926,0.311729095 56.1644637,0.311773635 58.0704758,2.3101043 C59.9765081,4.30843698 59.9765081,7.51788781 58.0704758,9.51622252 C55.4766172,12.2357149 52.8839303,14.958244 50.2900919,17.6776756 C50.2137438,17.7585351 50.1075399,17.8043478 49.996438,17.8043478 C49.8853361,17.8043478 49.7791323,17.7585351 49.7027841,17.6776756 L41.9287058,9.50988568 C40.0248562,7.51000422 40.0226736,4.30207788 41.9287058,2.30377759 Z" id="path-1"></path>
    </defs>
    <g id="Main-screens-Stage-1" stroke="none" stroke-width="1" fill="none" fill-rule="evenodd">
        <g id="PopuP---No-mutual-matches" transform="translate(-158.000000, -132.000000)">
            <g id="Group-2" transform="translate(10.000000, 112.000000)">
                <g id="Icons/MutualMatch_New-Copy" transform="translate(148.000000, 20.000000)">
                    <mask id="mask-2" fill="white">
                        <use xlink:href="#path-1"></use>
                    </mask>
                    <use id="icMutualEmptyState" fill-opacity="0.6" fill="#666666" xlink:href="#path-1"></use>
                </g>
            </g>
        </g>
    </g>
</svg>