<?xml version="1.0" encoding="UTF-8"?>
<svg width="95px" height="78px" viewBox="0 0 95 78" version="1.1" xmlns="http://www.w3.org/2000/svg" xmlns:xlink="http://www.w3.org/1999/xlink">
    <!-- Generator: Sketch 55 (78076) - https://sketchapp.com -->
    <title>icPrivateAlbumDsk</title>
    <desc>Created with Sketch.</desc>
    <g id="Page-1" stroke="none" stroke-width="1" fill="none" fill-rule="evenodd">
        <g id="Private-album-access-empty-state" transform="translate(-640.000000, -518.000000)" fill="#C2C2C2" fill-rule="nonzero">
            <path d="M640,518 L735,518 L735,596 L640,596 L640,518 Z M643,521 L643,593 L732,593 L732,521 L643,521 Z M708.567195,553.914214 L723.875508,569.763282 L725,570.927495 L722.751017,573.255922 L721.626525,572.091709 L706.318212,556.242641 L697.901075,564.957107 L697.435295,565.43934 L704.262161,572.507359 L705.386652,573.671573 L703.137669,576 L702.013177,574.835786 L677.693326,549.656854 L653.373475,574.835786 L652.248983,576 L650,573.671573 L651.124492,572.507359 L676.568835,546.164214 L677.693326,545 L679.94231,547.328427 L695.186312,563.110913 L695.652092,562.62868 L705.19372,552.75 L706.318212,551.585786 L708.567195,553.914214 Z M711,542.5 C706.857864,542.5 703.5,539.142136 703.5,535 C703.5,530.857864 706.857864,527.5 711,527.5 C715.142136,527.5 718.5,530.857864 718.5,535 C718.5,539.142136 715.142136,542.5 711,542.5 Z M711,541.5 C714.589851,541.5 717.5,538.589851 717.5,535 C717.5,531.410149 714.589851,528.5 711,528.5 C707.410149,528.5 704.5,531.410149 704.5,535 C704.5,538.589851 707.410149,541.5 711,541.5 Z" id="icPrivateAlbumDsk"></path>
        </g>
    </g>
</svg>