<?xml version="1.0" encoding="UTF-8"?>
<svg width="140px" height="99px" viewBox="0 0 140 99" version="1.1" xmlns="http://www.w3.org/2000/svg" xmlns:xlink="http://www.w3.org/1999/xlink">
    <!-- Generator: Sketch 55.2 (78181) - https://sketchapp.com -->
    <title>icQuickMessageEmptyState</title>
    <desc>Created with Sketch.</desc>
    <g id="Main-screens-Stage-1" stroke="none" stroke-width="1" fill="none" fill-rule="evenodd" fill-opacity="0.6">
        <g id="Quick-messages-Empty-state" transform="translate(-117.000000, -247.000000)" fill="#666666">
            <path d="M151.162087,298.584211 L167.24313,298.584211 L188.855428,258.769228 L165.814994,258.769228 C175.308245,251.419234 188.585753,247 203.725132,247 C234.005653,247 256.837515,264.677515 256.837515,288.121281 C256.837515,311.562161 234.005653,329.239676 203.725132,329.239676 C202.731038,329.239676 201.755156,329.187712 200.712297,329.136326 L174.939278,345.227212 C174.671954,345.394073 174.362915,345.478947 174.054464,345.478947 C173.793015,345.478947 173.529803,345.4189 173.291267,345.297074 C172.769544,345.032636 172.444642,344.516462 172.444642,343.960449 L172.444642,322.315208 C160.529607,316.466969 153.154389,310.572264 151.162087,298.584211 Z M190.162087,293 C192.923511,293 195.162087,290.761424 195.162087,288 C195.162087,285.238576 192.923511,283 190.162087,283 C187.400663,283 185.162087,285.238576 185.162087,288 C185.162087,290.761424 187.400663,293 190.162087,293 Z M212.162087,293 C214.923511,293 217.162087,290.761424 217.162087,288 C217.162087,285.238576 214.923511,283 212.162087,283 C209.400663,283 207.162087,285.238576 207.162087,288 C207.162087,290.761424 209.400663,293 212.162087,293 Z M233.162087,293 C235.923511,293 238.162087,290.761424 238.162087,288 C238.162087,285.238576 235.923511,283 233.162087,283 C230.400663,283 228.162087,285.238576 228.162087,288 C228.162087,290.761424 230.400663,293 233.162087,293 Z M132.783751,272.447368 C131.679182,272.447368 130.783751,271.551938 130.783751,270.447368 C130.783751,269.342799 131.679182,268.447368 132.783751,268.447368 L174.135006,268.447368 C175.239575,268.447368 176.135006,269.342799 176.135006,270.447368 C176.135006,271.551938 175.239575,272.447368 174.135006,272.447368 L132.783751,272.447368 Z M119,281.826316 C117.895431,281.826316 117,280.930885 117,279.826316 C117,278.721746 117.895431,277.826316 119,277.826316 L160.351254,277.826316 C161.455824,277.826316 162.351254,278.721746 162.351254,279.826316 C162.351254,280.930885 161.455824,281.826316 160.351254,281.826316 L119,281.826316 Z M132.783751,291.205263 C131.679182,291.205263 130.783751,290.309833 130.783751,289.205263 C130.783751,288.100694 131.679182,287.205263 132.783751,287.205263 L155.756671,287.205263 C156.86124,287.205263 157.756671,288.100694 157.756671,289.205263 C157.756671,290.309833 156.86124,291.205263 155.756671,291.205263 L132.783751,291.205263 Z" id="icQuickMessageEmptyState"></path>
        </g>
    </g>
</svg>