<?xml version="1.0" encoding="UTF-8"?>
<svg width="25px" height="26px" viewBox="0 0 25 26" version="1.1" xmlns="http://www.w3.org/2000/svg" xmlns:xlink="http://www.w3.org/1999/xlink">
    <!-- Generator: Sketch 52.2 (67145) - http://www.bohemiancoding.com/sketch -->
    <title>icSearchFilterMsgWhite</title>
    <desc>Created with Sketch.</desc>
    <defs>
        <path d="M17.2,16.75 C17.2,16.3328987 17.5103703,16 17.8932318,16 L23.7067682,16 C24.0915038,16 24.4,16.3357866 24.4,16.75 C24.4,17.1671012 24.0896297,17.5 23.7067682,17.5 L17.8932318,17.5 C17.5084962,17.5 17.2,17.1642134 17.2,16.75 Z M11.2,21.1 C11.2,20.6828987 11.5282763,20.35 11.9332259,20.35 L23.6667741,20.35 C24.0737059,20.35 24.4,20.6857866 24.4,21.1 C24.4,21.5171012 24.0717237,21.85 23.6667741,21.85 L11.9332259,21.85 C11.5262941,21.85 11.2,21.5142134 11.2,21.1 Z M7.15849609,25.45 C7.15849609,25.0328987 7.4476495,24.7 7.9998535,24.7 L23.5739746,24.7 C24.1288816,24.7 24.4300293,25.0357866 24.4300293,25.45 C24.4300293,25.8671012 24.1261786,26.2 23.5739746,26.2 L7.9998535,26.2 C7.4449465,26.2 7.15849609,25.8642134 7.15849609,25.45 Z M16.1404597,11.8495721 C14.4464235,15.828461 9.94545977,17.7981766 5.87325127,16.3427166 L1.96588236,25.5484824 C1.86490161,25.7851347 1.45990308,26.2288714 0.748441432,26.0403605 C0.036979785,25.8518496 0.108928426,24.9422468 0.209006087,24.7052112 L4.11637159,15.4994618 C1.09563802,13.6618221 -0.635185698,9.04774553 1.24253874,5.18672345 C3.12026318,1.32570137 7.9004247,-0.60560924 11.9597275,1.20984678 C16.0190304,3.02530281 17.8780193,7.75632373 16.1404597,11.8495721 Z M3.88789275,3.83691439 C1.93713261,5.75395511 1.33325765,8.65739727 2.35785499,11.1933647 C3.38245233,13.7293321 5.83374403,15.3984068 8.56869182,15.4222986 C11.3036396,15.4461905 13.7836395,13.8201943 14.8522667,11.3025128 C15.5588511,9.65223614 15.578018,7.7882672 14.9055187,6.1237775 C14.2330195,4.45928779 12.9244079,3.13177756 11.2697539,2.43550568 C8.75212739,1.36676471 5.83865288,1.91987367 3.88789275,3.83691439 Z" id="path-1"></path>
    </defs>
    <g id="Page-1" stroke="none" stroke-width="1" fill="none" fill-rule="evenodd">
        <g id="Chatrooms_Livestream-Copy-3" transform="translate(-330.000000, -456.000000)">
            <g id="colour/mid-grey" transform="translate(330.400000, 455.800000)">
                <mask id="mask-2" fill="white">
                    <use xlink:href="#path-1"></use>
                </mask>
                <use id="icSearchFilterMsgWhite" fill="#FFFFFF" fill-rule="nonzero" xlink:href="#path-1"></use>
            </g>
        </g>
    </g>
</svg>