<?xml version="1.0" encoding="UTF-8"?>
<svg width="34px" height="34px" viewBox="0 0 34 34" version="1.1" xmlns="http://www.w3.org/2000/svg" xmlns:xlink="http://www.w3.org/1999/xlink">
    <!-- Generator: Sketch 55.2 (78181) - https://sketchapp.com -->
    <title>icSettingFilterApply</title>
    <desc>Created with Sketch.</desc>
    <g id="Page-1" stroke="none" stroke-width="1" fill="none" fill-rule="evenodd">
        <g id="Filter-selected" transform="translate(-8.000000, -8.000000)">
            <g id="icSettingFilterApply" transform="translate(8.000000, 8.000000)">
                <rect id="Rectangle" fill="#7EC34D" x="0" y="0" width="34" height="34" rx="17"></rect>
                <path d="M8.74216524,11.4843305 C7.23005698,11.4843305 6,10.2538818 6,8.74216524 C6,7.23044872 7.23005698,6 8.74216524,6 C10.1206909,6 11.2618234,7.02400285 11.4529915,8.35042735 L26.7621083,8.35042735 C26.9787393,8.35042735 27.1538462,8.52553419 27.1538462,8.74216524 C27.1538462,8.9587963 26.9787393,9.13390313 26.7621083,9.13390313 L11.4529915,9.13390313 C11.2618234,10.4603276 10.1206909,11.4843305 8.74216524,11.4843305 Z M8.74216524,6.78347578 C7.66214387,6.78347578 6.78347578,7.66214387 6.78347578,8.74216524 C6.78347578,9.82218661 7.66214387,10.7008547 8.74216524,10.7008547 C9.82218661,10.7008547 10.7008547,9.82218661 10.7008547,8.74216524 C10.7008547,7.66214387 9.82218661,6.78347578 8.74216524,6.78347578 Z M24.4116809,22.4529915 C25.9233974,22.4529915 27.1538462,23.6834402 27.1538462,25.1951567 C27.1538462,26.7068732 25.9233974,27.9373219 24.4116809,27.9373219 C23.0331553,27.9373219 21.8920228,26.9133191 21.7008547,25.5868946 L6.39173789,25.5868946 C6.17549858,25.5868946 6,25.4117877 6,25.1951567 C6,24.9785256 6.17549858,24.8034188 6.39173789,24.8034188 L21.7008547,24.8034188 C21.8920228,23.4769943 23.0331553,22.4529915 24.4116809,22.4529915 Z M24.4116809,27.1538462 C25.4917023,27.1538462 26.3703704,26.2751781 26.3703704,25.1951567 C26.3703704,24.1151353 25.4917023,23.2364672 24.4116809,23.2364672 C23.3316595,23.2364672 22.4529915,24.1151353 22.4529915,25.1951567 C22.4529915,26.2751781 23.3316595,27.1538462 24.4116809,27.1538462 Z M26.7621083,16.5769231 C26.9787393,16.5769231 27.1538462,16.7520299 27.1538462,16.968661 C27.1538462,17.185292 26.9787393,17.3603989 26.7621083,17.3603989 L19.4381766,17.3603989 C19.2121439,18.6923077 18.0533832,19.7108262 16.6580128,19.7108262 C15.2626425,19.7108262 14.10349,18.6923077 13.8774573,17.3603989 L6.39173789,17.3603989 C6.17549858,17.3603989 6,17.185292 6,16.968661 C6,16.7520299 6.17549858,16.5769231 6.39173789,16.5769231 L13.8527778,16.5769231 C14.007906,15.1662749 15.2062322,14.0643162 16.6580128,14.0643162 C18.1097934,14.0643162 19.3081197,15.1658832 19.4632479,16.5769231 L26.7621083,16.5769231 Z M16.6580128,18.9273504 C17.7826923,18.9273504 18.697792,18.0122507 18.697792,16.8875712 C18.697792,15.7628917 17.7826923,14.847792 16.6580128,14.847792 C15.5333333,14.847792 14.6182336,15.7628917 14.6182336,16.8875712 C14.6182336,18.0122507 15.5333333,18.9273504 16.6580128,18.9273504 Z" id="Combined-Shape" fill="#FFFFFF" fill-rule="nonzero"></path>
            </g>
        </g>
    </g>
</svg>