<?xml version="1.0" encoding="UTF-8"?>
<svg width="34px" height="34px" viewBox="0 0 34 34" version="1.1" xmlns="http://www.w3.org/2000/svg" xmlns:xlink="http://www.w3.org/1999/xlink">
    <!-- Generator: Sketch 55.2 (78181) - https://sketchapp.com -->
    <title>icSettingFilter</title>
    <desc>Created with Sketch.</desc>
    <g id="Page-1" stroke="none" stroke-width="1" fill="none" fill-rule="evenodd">
        <g id="Filter-icon" transform="translate(-8.000000, -8.000000)">
            <g id="icSettingFilter" transform="translate(8.000000, 8.000000)">
                <rect id="Rectangle" fill="#F4F4F4" x="0" y="0" width="34" height="34" rx="17"></rect>
                <path d="M7.99145299,10.982906 C6.34188034,10.982906 5,9.64059829 5,7.99145299 C5,6.34230769 6.34188034,5 7.99145299,5 C9.49529915,5 10.7401709,6.11709402 10.9487179,7.56410256 L27.6495726,7.56410256 C27.8858974,7.56410256 28.0769231,7.75512821 28.0769231,7.99145299 C28.0769231,8.22777778 27.8858974,8.41880342 27.6495726,8.41880342 L10.9487179,8.41880342 C10.7401709,9.86581197 9.49529915,10.982906 7.99145299,10.982906 Z M7.99145299,5.85470085 C6.81324786,5.85470085 5.85470085,6.81324786 5.85470085,7.99145299 C5.85470085,9.16965812 6.81324786,10.1282051 7.99145299,10.1282051 C9.16965812,10.1282051 10.1282051,9.16965812 10.1282051,7.99145299 C10.1282051,6.81324786 9.16965812,5.85470085 7.99145299,5.85470085 Z M25.0854701,22.9487179 C26.7346154,22.9487179 28.0769231,24.2910256 28.0769231,25.9401709 C28.0769231,27.5893162 26.7346154,28.9316239 25.0854701,28.9316239 C23.5816239,28.9316239 22.3367521,27.8145299 22.1282051,26.3675214 L5.42735043,26.3675214 C5.19145299,26.3675214 5,26.1764957 5,25.9401709 C5,25.7038462 5.19145299,25.5128205 5.42735043,25.5128205 L22.1282051,25.5128205 C22.3367521,24.065812 23.5816239,22.9487179 25.0854701,22.9487179 Z M25.0854701,28.0769231 C26.2636752,28.0769231 27.2222222,27.1183761 27.2222222,25.9401709 C27.2222222,24.7619658 26.2636752,23.8034188 25.0854701,23.8034188 C23.907265,23.8034188 22.9487179,24.7619658 22.9487179,25.9401709 C22.9487179,27.1183761 23.907265,28.0769231 25.0854701,28.0769231 Z M27.6495726,16.5384615 C27.8858974,16.5384615 28.0769231,16.7294872 28.0769231,16.965812 C28.0769231,17.2021368 27.8858974,17.3931624 27.6495726,17.3931624 L19.6598291,17.3931624 C19.4132479,18.8461538 18.1491453,19.957265 16.6269231,19.957265 C15.1047009,19.957265 13.8401709,18.8461538 13.5935897,17.3931624 L5.42735043,17.3931624 C5.19145299,17.3931624 5,17.2021368 5,16.965812 C5,16.7294872 5.19145299,16.5384615 5.42735043,16.5384615 L13.5666667,16.5384615 C13.7358974,14.9995726 15.0431624,13.7974359 16.6269231,13.7974359 C18.2106838,13.7974359 19.5179487,14.9991453 19.6871795,16.5384615 L27.6495726,16.5384615 Z M16.6269231,19.1025641 C17.8538462,19.1025641 18.8521368,18.1042735 18.8521368,16.8773504 C18.8521368,15.6504274 17.8538462,14.6521368 16.6269231,14.6521368 C15.4,14.6521368 14.4017094,15.6504274 14.4017094,16.8773504 C14.4017094,18.1042735 15.4,19.1025641 16.6269231,19.1025641 Z" id="Combined-Shape" fill="#333333" fill-rule="nonzero"></path>
            </g>
        </g>
    </g>
</svg>