<?xml version="1.0" encoding="UTF-8"?>
<svg width="77px" height="83px" viewBox="0 0 77 83" version="1.1" xmlns="http://www.w3.org/2000/svg" xmlns:xlink="http://www.w3.org/1999/xlink">
    <!-- Generator: Sketch 50.2 (55047) - http://www.bohemiancoding.com/sketch -->
    <title>icBlockUser</title>
    <desc>Created with Sketch.</desc>
    <defs></defs>
    <g id="Page-1" stroke="none" stroke-width="1" fill="none" fill-rule="evenodd">
        <g id="Profile-not-found" transform="translate(-150.000000, -144.000000)" fill="#666666" fill-rule="nonzero">
            <g id="Block-User" transform="translate(150.000000, 144.000000)">
                <g id="icBlockUser">
                    <path d="M3.74255007,78.2840909 C1.68453351,78.2840909 0,76.5890941 0,74.5113636 C0,56.800596 14.2941284,42.4431818 31.9268293,42.4431818 C40.8073741,42.4431818 48.8410771,46.0849958 54.6283612,51.9628508 C53.3957529,52.4469458 52.2423748,53.0898489 51.1931664,53.8665103 C46.1536725,49.1216425 39.3780903,46.2159091 31.9268293,46.2159091 C16.3685638,46.2159091 3.75609756,58.8842157 3.75609756,74.5113636 C3.75609756,74.5083057 31.0770548,74.5095061 47.6730926,74.5105174 C48.6655105,75.9732779 49.9072833,77.2517031 51.3369803,78.2840909 L3.74255007,78.2840909 Z M31.9268293,38.6704545 C21.5546523,38.6704545 13.1463415,30.2249169 13.1463415,19.8068182 C13.1463415,9.38871949 21.5546523,0.943181818 31.9268293,0.943181818 C42.2990063,0.943181818 50.7073171,9.38871949 50.7073171,19.8068182 C50.7073171,30.2249169 42.2990063,38.6704545 31.9268293,38.6704545 Z M31.9268293,34.8977273 C40.2245709,34.8977273 46.9512195,28.1412971 46.9512195,19.8068182 C46.9512195,11.4723392 40.2245709,4.71590909 31.9268293,4.71590909 C23.6290877,4.71590909 16.902439,11.4723392 16.902439,19.8068182 C16.902439,28.1412971 23.6290877,34.8977273 31.9268293,34.8977273 Z" id="Shape"></path>
                    <path d="M52.2244592,76.5984075 C54.4191103,78.2493752 57.144639,79.2272727 60.097561,79.2272727 C67.3580848,79.2272727 73.2439024,73.3153963 73.2439024,66.0227273 C73.2439024,63.0567315 72.2703154,60.3191359 70.6266249,58.1147682 L52.2244592,76.5984075 Z M49.568497,73.9306864 L67.9706628,55.447047 C65.7760116,53.7960793 63.050483,52.8181818 60.097561,52.8181818 C52.8370372,52.8181818 46.9512195,58.7300583 46.9512195,66.0227273 C46.9512195,68.988723 47.9248066,71.7263186 49.568497,73.9306864 Z M60.097561,83 C50.7626018,83 43.195122,75.399016 43.195122,66.0227273 C43.195122,56.6464385 50.7626018,49.0454545 60.097561,49.0454545 C69.4325202,49.0454545 77,56.6464385 77,66.0227273 C77,75.399016 69.4325202,83 60.097561,83 Z" id="Shape"></path>
                </g>
            </g>
        </g>
    </g>
</svg>