<?xml version="1.0" encoding="UTF-8"?>
<svg width="73px" height="77px" viewBox="0 0 73 77" version="1.1" xmlns="http://www.w3.org/2000/svg" xmlns:xlink="http://www.w3.org/1999/xlink">
    <!-- Generator: Sketch 51.3 (57544) - http://www.bohemiancoding.com/sketch -->
    <title>icBlockUserWhite</title>
    <desc>Created with Sketch.</desc>
    <defs></defs>
    <g id="Page-1" stroke="none" stroke-width="1" fill="none" fill-rule="evenodd">
        <g id="Profile-not-found" transform="translate(-152.000000, -136.000000)" fill="#FFFFFF" fill-rule="nonzero">
            <g id="Block-User" transform="translate(45.000000, 136.000000)">
                <g id="icBlockUserWhite" transform="translate(107.000000, 0.000000)">
                    <path d="M4.08989459,72.3855723 C2.17086619,72.3855723 0.600097656,70.806512 0.600097656,68.8708966 C0.600097656,52.3715312 13.9288721,38.9961527 30.3707484,38.9961527 C38.6515456,38.9961527 46.1426924,42.3888695 51.5391323,47.8646839 C50.3897682,48.3156672 49.3142835,48.9145963 48.3359334,49.6381346 C43.6367817,45.217812 37.3187885,42.5108284 30.3707484,42.5108284 C15.8632105,42.5108284 4.10252715,54.312633 4.10252715,68.8708966 C4.10252715,68.8680477 29.5783635,68.8691661 45.0535878,68.8701082 C45.9789827,70.2328171 47.1368924,71.423799 48.4700347,72.3855723 L4.08989459,72.3855723 Z M30.3707484,35.4814769 C20.6990564,35.4814769 12.8586009,27.6136072 12.8586009,17.9080981 C12.8586009,8.20258903 20.6990564,0.334719358 30.3707484,0.334719358 C40.0424404,0.334719358 47.8828959,8.20258903 47.8828959,17.9080981 C47.8828959,27.6136072 40.0424404,35.4814769 30.3707484,35.4814769 Z M30.3707484,31.9668011 C38.108102,31.9668011 44.3804664,25.6725054 44.3804664,17.9080981 C44.3804664,10.1436908 38.108102,3.84939511 30.3707484,3.84939511 C22.6333948,3.84939511 16.3610304,10.1436908 16.3610304,17.9080981 C16.3610304,25.6725054 22.6333948,31.9668011 30.3707484,31.9668011 Z" id="Shape"></path>
                    <path d="M49.2975777,70.8151883 C51.3440132,72.3532311 53.8854732,73.2642413 56.6389696,73.2642413 C63.4091539,73.2642413 68.8974728,67.7567324 68.8974728,60.9628761 C68.8974728,58.1997521 67.989637,55.6494058 66.4569532,53.5958151 L49.2975777,70.8151883 Z M46.820986,68.3299372 L63.9803615,51.1105639 C61.9339261,49.5725211 59.392466,48.661511 56.6389696,48.661511 C49.8687853,48.661511 44.3804664,54.1690198 44.3804664,60.9628761 C44.3804664,63.7260001 45.2883022,66.2763464 46.820986,68.3299372 Z M56.6389696,76.778917 C47.9344469,76.778917 40.8780369,69.6978342 40.8780369,60.9628761 C40.8780369,52.227918 47.9344469,45.1468352 56.6389696,45.1468352 C65.3434923,45.1468352 72.3999023,52.227918 72.3999023,60.9628761 C72.3999023,69.6978342 65.3434923,76.778917 56.6389696,76.778917 Z" id="Shape"></path>
                </g>
            </g>
        </g>
    </g>
</svg>