<?xml version="1.0" encoding="UTF-8"?>
<svg width="15px" height="15px" viewBox="0 0 15 15" version="1.1" xmlns="http://www.w3.org/2000/svg" xmlns:xlink="http://www.w3.org/1999/xlink">
    <!-- Generator: Sketch 53.2 (72643) - https://sketchapp.com -->
    <title>icCurrentLocation</title>
    <desc>Created with Sketch.</desc>
    <defs>
        <path d="M26.9845191,164.269224 C28.181656,164.365942 29.3320803,164.878009 30.2009078,165.71629 C31.118152,166.601311 31.6805962,167.804946 31.7838842,169.068886 C32.1226888,169.068886 32.4614932,169.068886 32.8002944,169.068886 C33.0249853,169.068886 33.2124632,169.256379 33.2124632,169.481055 C33.2124632,169.705746 33.0249853,169.893224 32.8002944,169.893224 C32.6226644,169.893224 32.4450343,169.893224 32.2674043,169.893224 C32.1063111,169.893224 31.9452172,169.893224 31.7841229,169.893224 C31.705811,170.867111 31.35846,171.824168 30.7647399,172.601762 C30.3379686,173.160721 29.8210795,173.6405 29.211423,173.995981 C28.587208,174.359941 27.9011825,174.581762 27.1858194,174.671158 C27.1187543,174.67954 27.0516414,174.686531 26.9845191,174.692148 C26.9845191,175.040654 26.9845191,175.389157 26.9845191,175.737659 C26.9845191,175.962336 26.7970265,176.149828 26.5723503,176.149828 C26.3476742,176.149828 26.1601816,175.96235 26.1601816,175.737659 C26.1601816,175.560044 26.1601816,175.382399 26.1601816,175.204784 C26.1601816,175.034214 26.1601816,174.863644 26.1601816,174.693074 C25.0936839,174.607013 24.065105,174.186288 23.2319431,173.501497 C22.1477815,172.610396 21.4761032,171.287713 21.3609009,169.893224 C21.0137685,169.893224 20.6666397,169.893224 20.3195142,169.893224 C20.0948381,169.893224 19.9073454,169.705746 19.9073454,169.481055 C19.9073454,169.256379 20.0948381,169.068886 20.3195142,169.068886 C20.4971443,169.068886 20.6747743,169.068886 20.8524043,169.068886 C21.0217025,169.068886 21.1910008,169.068886 21.3602988,169.068886 C21.4513671,167.936892 21.9167779,166.847204 22.6768989,165.993989 C23.5657809,164.996241 24.8317737,164.375669 26.1601816,164.268936 C26.1601816,163.931584 26.1601816,163.594232 26.1601816,163.256879 C26.1601816,163.032203 26.3476742,162.844711 26.5723503,162.844711 C26.7970412,162.844711 26.9845191,163.032203 26.9845191,163.256879 C26.9845191,163.434509 26.9845191,163.612139 26.9845191,163.789769 C26.9845191,163.949588 26.9845191,164.109406 26.9845191,164.269224 Z M26.9845191,165.094315 C26.9845191,165.392185 26.9845191,165.690055 26.9845191,165.987924 C26.9845191,166.212601 26.7970265,166.400093 26.5723503,166.400093 C26.3476742,166.400093 26.1601816,166.212601 26.1601816,165.987924 C26.1601816,165.810294 26.1601816,165.632664 26.1601816,165.455034 C26.1601816,165.334796 26.1601816,165.214557 26.1601816,165.094319 C26.0795646,165.101071 25.9990738,165.109808 25.9187831,165.12053 C25.9553042,165.115628 25.9918253,165.110711 26.0283464,165.10581 C25.6477969,165.158243 25.2730324,165.25422 24.9157851,165.395932 C24.891526,165.405559 24.8672669,165.415231 24.8431698,165.425255 C24.7777527,165.452458 24.9484642,165.379387 24.8516781,165.421973 C24.8100049,165.440299 24.7684789,165.458965 24.7273503,165.478484 C24.6453435,165.517375 24.5641757,165.558121 24.4844946,165.601619 C24.3202306,165.691281 24.1606035,165.789598 24.0078508,165.897763 C23.9710942,165.923803 23.9345289,165.950137 23.8985083,165.977179 C23.8830815,165.988763 23.8676546,166.000348 23.8523602,166.012125 C23.958685,165.930265 23.8979342,165.976811 23.8749264,165.995108 C23.8145878,166.043111 23.7550883,166.092203 23.6971197,166.143032 C23.5764279,166.248842 23.4603288,166.35998 23.3507066,166.477272 C23.2937095,166.538273 23.2378901,166.600407 23.1841168,166.664279 C23.1592836,166.693763 23.1346271,166.72341 23.1105005,166.753484 C23.0984298,166.768513 23.0863739,166.783557 23.0744799,166.798749 C23.0272718,166.859058 23.1379833,166.715314 23.0917321,166.776374 C22.9945191,166.90475 22.9029146,167.037453 22.8190088,167.174926 C22.7347203,167.313018 22.6565113,167.454921 22.5865751,167.600844 C22.5669087,167.641869 22.5475662,167.683057 22.5290775,167.724627 C22.5211286,167.742483 22.5131943,167.760324 22.5054809,167.778268 C22.4748037,167.849573 22.5460795,167.68001 22.5165653,167.751845 C22.4867566,167.824401 22.4582728,167.897517 22.4320559,167.971443 C22.3210353,168.284617 22.2424877,168.607875 22.1971197,168.937022 C22.2020216,168.9005 22.2069382,168.863979 22.21184,168.827458 C22.2011172,168.907758 22.1923794,168.988259 22.1856265,169.068886 C22.4739357,169.068886 22.7622413,169.068886 23.0505447,169.068886 C23.2752208,169.068886 23.4627134,169.256379 23.4627134,169.481055 C23.4627134,169.705746 23.2752208,169.893224 23.0505447,169.893224 C22.8729146,169.893224 22.6952846,169.893224 22.5176546,169.893224 C22.4069787,169.893224 22.2963028,169.893224 22.1856269,169.893224 C22.1923799,169.973846 22.2011176,170.054342 22.21184,170.134637 C22.2069382,170.098131 22.2020216,170.061595 22.1971197,170.025074 C22.2495535,170.405623 22.3455299,170.780388 22.4872424,171.137635 C22.4968695,171.161909 22.5065407,171.186153 22.5165653,171.210265 C22.5437537,171.275682 22.4706968,171.104971 22.5132679,171.201757 C22.5315947,171.243415 22.5502748,171.284941 22.5697792,171.32607 C22.608685,171.408091 22.6494308,171.489259 22.6929293,171.56894 C22.7825908,171.733189 22.8809078,171.892816 22.9890726,172.045569 C23.0151129,172.082326 23.0414328,172.118906 23.0684887,172.154912 C23.0800883,172.170353 23.0916732,172.18578 23.1034347,172.201075 C23.0215898,172.09475 23.0681207,172.1555 23.0864181,172.178508 C23.134421,172.238847 23.1835132,172.298332 23.2343425,172.3563 C23.3401521,172.476992 23.4512905,172.593106 23.5685819,172.702713 C23.6295829,172.759725 23.6917174,172.81553 23.7555888,172.869303 C23.7850736,172.894151 23.8147203,172.918793 23.8447939,172.94292 C23.8598381,172.95499 23.8748822,172.967046 23.8900589,172.97894 C23.950368,173.026133 23.8066241,172.915422 23.867684,172.961673 C23.9960599,173.058886 24.1287635,173.150491 24.2662365,173.234396 C24.4043278,173.318685 24.5462316,173.396879 24.6921541,173.46683 C24.7331796,173.486497 24.7743817,173.505824 24.8159519,173.524313 C24.8337929,173.532262 24.851634,173.540196 24.869578,173.54791 C24.9408832,173.578587 24.7713199,173.507311 24.8431551,173.536825 C24.9156968,173.566634 24.9888126,173.595132 25.0627527,173.621335 C25.3759274,173.73237 25.6991708,173.810918 26.0283317,173.856286 C25.9918106,173.851369 25.9552895,173.846467 25.9187684,173.841551 C25.9990639,173.852273 26.0795597,173.86101 26.1601815,173.867763 C26.1601816,173.580733 26.1601816,173.293703 26.1601816,173.006673 C26.1601816,172.781982 26.3476742,172.594504 26.5723503,172.594504 C26.7970412,172.594504 26.9845191,172.781982 26.9845191,173.006673 C26.9845191,173.184289 26.9845191,173.361933 26.9845191,173.539549 C26.9845191,173.648954 26.9845191,173.758359 26.9845191,173.867764 C27.0651459,173.861011 27.1456466,173.852273 27.225947,173.841551 C27.1894259,173.846467 27.1529048,173.851369 27.1163837,173.856286 C27.4969333,173.803837 27.871683,173.707861 28.2289303,173.566148 C28.2532041,173.556536 28.2774485,173.54685 28.3015604,173.536825 C28.3669774,173.509637 28.1962659,173.582709 28.293052,173.540123 C28.3347105,173.521796 28.3762365,173.503116 28.4173651,173.483611 C28.4993867,173.444706 28.5805545,173.40396 28.6602355,173.360461 C28.8244848,173.2708 28.9841119,173.172498 29.1368646,173.064333 C29.1736212,173.038292 29.2101865,173.011958 29.2462071,172.984917 C29.261634,172.973332 29.2770756,172.961747 29.2923553,172.949971 C29.1860451,173.031816 29.2467959,172.985285 29.2698037,172.966987 C29.3301423,172.918984 29.3896271,172.869877 29.4475957,172.819048 C29.5682875,172.713253 29.6843867,172.6021 29.7940088,172.484823 C29.8510206,172.423837 29.9068253,172.361688 29.9605986,172.297816 C29.9854318,172.268332 30.0100883,172.238685 30.0342149,172.208611 C30.0462709,172.193567 30.0583415,172.178523 30.0702355,172.163346 C30.1174289,172.103037 30.0067174,172.246781 30.0529686,172.185721 C30.1501668,172.057345 30.2417713,171.924642 30.3256771,171.787169 C30.4099804,171.649063 30.4881747,171.507159 30.5581256,171.361237 C30.577792,171.320211 30.5971197,171.279024 30.6156084,171.237453 C30.6235574,171.219612 30.6314917,171.201757 30.6392051,171.183813 C30.6698822,171.112522 30.5985918,171.282085 30.6281207,171.21025 C30.6579293,171.137694 30.6864132,171.064578 30.71263,170.990653 C30.8236654,170.677463 30.902213,170.35422 30.9475662,170.025059 C30.9426644,170.06158 30.9377625,170.098116 30.9328459,170.134622 C30.9435657,170.054327 30.9523143,169.973848 30.9591044,169.893224 C30.6624942,169.893224 30.3658853,169.893224 30.0692787,169.893224 C29.8445878,169.893224 29.6571099,169.705746 29.6571099,169.481055 C29.6571099,169.256379 29.8445878,169.068886 30.0692787,169.068886 C30.2469087,169.068886 30.4245388,169.068886 30.6021688,169.068886 C30.7211483,169.068886 30.8401282,169.068886 30.9591084,169.068886 C30.9523261,168.988252 30.9435856,168.907763 30.9328754,168.827458 C30.937792,168.863979 30.9426938,168.9005 30.9475957,168.937022 C30.8951619,168.556472 30.7991855,168.181722 30.657473,167.824475 C30.6478459,167.800201 30.6381747,167.775957 30.6281501,167.751845 C30.6009617,167.686428 30.6740334,167.857139 30.6314475,167.760353 C30.6131207,167.718695 30.5944406,167.677154 30.5749215,167.636026 C30.5360304,167.554019 30.4952846,167.472851 30.4517861,167.39317 C30.3621246,167.228921 30.2638224,167.069293 30.1556575,166.916541 C30.1296173,166.879769 30.1032826,166.843219 30.0762267,166.807198 C30.0646418,166.791771 30.0530569,166.776344 30.0412954,166.76105 C30.1231403,166.867375 30.0766094,166.806624 30.0582974,166.783616 C30.0102944,166.723263 29.9612022,166.663778 29.9103729,166.60581 C29.8045633,166.485118 29.6934249,166.369019 29.5761335,166.259396 C29.5151472,166.202385 29.4530128,166.14658 29.3891413,166.092807 C29.3596565,166.067974 29.3300098,166.043317 29.2999362,166.01919 C29.2848921,166.00712 29.2698479,165.995064 29.2546565,165.98317 C29.1943621,165.935962 29.338106,166.046673 29.2770461,166.000422 C29.1486703,165.903209 29.0159666,165.811605 28.8784936,165.727699 C28.7403876,165.643395 28.5984838,165.565201 28.4525613,165.49525 C28.4115358,165.475584 28.3703484,165.456256 28.3287782,165.437767 C28.3109372,165.429818 28.2930815,165.421884 28.2751374,165.414171 C28.2038469,165.383508 28.3734102,165.454784 28.3015751,165.425255 C28.2290186,165.395447 28.1559028,165.366963 28.0819774,165.340746 C27.7688027,165.229725 27.4455447,165.151178 27.1163984,165.10581 C27.1529195,165.110711 27.1894406,165.115628 27.2259617,165.12053 C27.1456564,165.109806 27.0651509,165.101068 26.9845191,165.094315 Z M31.3924119,169.068886 C31.3912654,169.068876 31.390118,169.068871 31.3889696,169.068871 C31.3878175,169.068871 31.3866664,169.068876 31.3855163,169.068886 C31.3878149,169.068886 31.3901134,169.068886 31.3924119,169.068886 Z M27.7473258,169.481055 C27.7487684,169.256394 27.9337291,169.068886 28.1594946,169.068886 C28.3830815,169.068886 28.573106,169.256364 28.5716634,169.481055 C28.5683513,170.002699 28.3631207,170.517689 27.9928312,170.887978 C27.6243229,171.256487 27.1157949,171.476894 26.5930177,171.480236 C25.8209372,171.485167 25.0664328,171.026968 24.7559078,170.311354 C24.5839598,169.915098 24.5315702,169.494347 24.6165653,169.068724 C24.6906673,168.697625 24.8843131,168.3416 25.1518253,168.074102 C25.703528,167.522414 26.5759127,167.317684 27.3041708,167.623057 C27.6871933,167.78367 28.0069774,168.033209 28.240265,168.379637 C28.4575957,168.70238 28.5691904,169.093116 28.5716634,169.481055 C28.573106,169.705746 28.3830815,169.893224 28.1594946,169.893224 C27.9337291,169.893224 27.7487684,169.705716 27.7473258,169.481055 C27.7468989,169.412826 27.7426153,169.345083 27.7343867,169.27737 C27.7392885,169.313891 27.7442051,169.350412 27.749107,169.386933 C27.7376104,169.301438 27.7207115,169.216501 27.6953778,169.133965 C27.6819529,169.090245 27.6674534,169.046806 27.6502895,169.004411 C27.6212022,168.932591 27.693788,169.101389 27.6612709,169.031217 C27.6531011,169.013611 27.644946,168.995991 27.6361286,168.978695 C27.5981796,168.904181 27.5556379,168.83186 27.5063984,168.76419 C27.4451766,168.68002 27.5567125,168.824985 27.5124632,168.771286 C27.5002601,168.756462 27.4880422,168.741639 27.4753091,168.727272 C27.4498577,168.698553 27.4238469,168.670275 27.3963788,168.643454 C27.3643327,168.612174 27.3315211,168.581629 27.2969431,168.553145 C27.2738469,168.534112 27.213317,168.490069 27.3201717,168.569794 C27.3047596,168.558283 27.2893327,168.546786 27.2735083,168.535849 C27.2046909,168.488288 27.132841,168.444818 27.0573111,168.40868 C27.028209,168.394755 26.9351619,168.357026 27.0670707,168.410432 C27.0489794,168.403101 27.0308587,168.39577 27.0125025,168.389117 C26.9755839,168.375751 26.938371,168.363062 26.9005397,168.352478 C26.8235672,168.330972 26.7457115,168.314956 26.6664868,168.304298 C26.7030079,168.3092 26.7395437,168.314117 26.77605,168.319019 C26.6403288,168.302502 26.5043572,168.302502 26.3686359,168.319019 C26.405157,168.314117 26.4416781,168.3092 26.4781992,168.304298 C26.3927036,168.315795 26.3077821,168.332709 26.2252306,168.358027 C26.181526,168.371438 26.1380864,168.385937 26.0956919,168.403116 C26.0238714,168.432188 26.1926693,168.359603 26.1224975,168.39212 C26.1048921,168.400289 26.0872718,168.408459 26.0699755,168.417262 C25.9954612,168.455196 25.9231403,168.497767 25.8554711,168.546992 C25.7713003,168.608214 25.9162659,168.496678 25.8625662,168.540927 C25.8477429,168.553131 25.8329195,168.565348 25.8185525,168.578081 C25.7898332,168.603548 25.7615554,168.629544 25.734735,168.657012 C25.7034544,168.689043 25.6729244,168.721869 25.6444259,168.756447 C25.6253925,168.779544 25.5813641,168.840059 25.6610893,168.733204 C25.6495927,168.748616 25.6380815,168.764043 25.6271443,168.779868 C25.5795829,168.848685 25.5361138,168.920535 25.4999755,168.996065 C25.48605,169.025152 25.4483219,169.118214 25.5017272,168.986305 C25.4943965,169.004411 25.4870658,169.022517 25.4804122,169.040888 C25.4670461,169.077807 25.4543572,169.11502 25.4437733,169.152851 C25.4222522,169.229838 25.4062512,169.307679 25.395579,169.386904 C25.4004809,169.350383 25.4053974,169.313862 25.4102993,169.277341 C25.3937831,169.413062 25.3937831,169.549033 25.4102993,169.684769 C25.4053974,169.648248 25.4004809,169.611712 25.395579,169.575191 C25.4070756,169.660702 25.4239892,169.745638 25.4493081,169.828175 C25.4627184,169.871894 25.4772179,169.915319 25.4943965,169.957713 C25.5234691,170.029534 25.4508832,169.860736 25.4834004,169.930908 C25.4915702,169.948513 25.4997399,169.966133 25.5085427,169.98343 C25.5464917,170.057944 25.5890481,170.13025 25.6382728,170.197934 C25.6994946,170.282105 25.5879588,170.137139 25.632208,170.190839 C25.6444259,170.205662 25.656629,170.220471 25.6693768,170.234853 C25.6948283,170.263557 25.7208243,170.29185 25.7482924,170.318656 C25.7803238,170.349936 25.8131501,170.380481 25.8477282,170.408979 C25.8708243,170.428013 25.9313395,170.472041 25.8244848,170.392316 C25.839897,170.403827 25.8553238,170.415324 25.8711482,170.426261 C25.9399657,170.473837 26.0118155,170.517291 26.0873454,170.553445 C26.1164328,170.567355 26.2094946,170.605083 26.0775859,170.551678 C26.0956771,170.559009 26.1137978,170.56634 26.1321541,170.572993 C26.1690873,170.586359 26.2063003,170.599048 26.2441315,170.609632 C26.3211187,170.631138 26.3989745,170.647154 26.4781845,170.657812 C26.4416634,170.65291 26.4051423,170.647993 26.3686212,170.643091 C26.5043425,170.659607 26.640314,170.659607 26.7760353,170.643091 C26.7395289,170.647993 26.7029931,170.65291 26.666472,170.657812 C26.7519676,170.646315 26.8369038,170.629416 26.9194406,170.604082 C26.96316,170.590672 27.0065849,170.576158 27.0489941,170.558994 C27.1208145,170.529907 26.9520167,170.602507 27.0221884,170.569975 C27.0397939,170.561806 27.0573994,170.553651 27.0747105,170.544833 C27.14921,170.506899 27.2215309,170.464342 27.2892002,170.415118 C27.373371,170.353881 27.22842,170.465432 27.2821197,170.421168 C27.2969284,170.408965 27.3117517,170.396747 27.3261187,170.384014 C27.3548381,170.358562 27.3831158,170.332552 27.4099362,170.305083 C27.4412169,170.273052 27.4717615,170.240226 27.5002453,170.205648 C27.5192787,170.182552 27.5633219,170.122022 27.4835819,170.228891 C27.4950932,170.213464 27.5066045,170.198037 27.5175417,170.182228 C27.565103,170.113395 27.6085721,170.041546 27.6447105,169.96603 C27.6586359,169.936914 27.6963641,169.843867 27.6429588,169.975775 C27.6502895,169.957684 27.6576202,169.939563 27.6642738,169.921207 C27.6776398,169.884289 27.6903288,169.847076 27.7009127,169.809244 C27.722419,169.732272 27.7384347,169.654416 27.7490922,169.575191 C27.7441904,169.611712 27.7392738,169.648248 27.7343719,169.684769 C27.7426153,169.617026 27.7468989,169.549284 27.7473258,169.481055 Z" id="path-1"></path>
    </defs>
    <g id="Page-1" stroke="none" stroke-width="1" fill="none" fill-rule="evenodd">
        <g id="Edit-Location" transform="translate(-19.000000, -162.000000)">
            <mask id="mask-2" fill="white">
                <use xlink:href="#path-1"></use>
            </mask>
            <use id="icCurrentLocation" fill="#646464" fill-rule="nonzero" xlink:href="#path-1"></use>
        </g>
    </g>
</svg>