<?xml version="1.0" encoding="UTF-8"?>
<svg width="120px" height="120px" viewBox="0 0 120 120" version="1.1" xmlns="http://www.w3.org/2000/svg" xmlns:xlink="http://www.w3.org/1999/xlink">
    <!-- Generator: Sketch 58 (84663) - https://sketch.com -->
    <title>icExpandSearch</title>
    <desc>Created with Sketch.</desc>
    <g id="Page-1" stroke="none" stroke-width="1" fill="none" fill-rule="evenodd">
        <g id="icExpandSearch" fill="#A5A5A5" fill-rule="nonzero">
            <path d="M60,0 C93.137085,0 120,26.862915 120,60 C120,93.137085 93.137085,120 60,120 C26.862915,120 0,93.137085 0,60 C0,26.862915 26.862915,0 60,0 Z M60,3.870968 C29.000791,3.870968 3.870968,29.000791 3.870968,60 C3.870968,90.999209 29.000791,116.129032 60,116.129032 C90.999209,116.129032 116.129032,90.999209 116.129032,60 C116.129032,29.000791 90.999209,3.870968 60,3.870968 Z M61.238504,29.483131 C70.752692,33.117047 75.366413,43.986293 72.154458,53.280208 C68.98316,62.456479 58.925929,67.124604 51.098699,65.397134 L50.798771,65.327536 L42.218024,86.564259 C41.996221,87.110215 40.639637,88.69984 39.18213,87.85292 C37.785351,87.041289 37.784769,85.745099 37.98053,85.157236 L38.007079,85.084674 L46.587846,63.847918 C37.635773,59.610087 33.53641,49.130804 37.236735,39.943487 C41.051779,30.500478 51.724317,25.849215 61.238504,29.483131 Z M54.528697,84.532258 L90.198458,84.532258 C91.469374,84.532258 92.159099,85.301318 92.159099,86.25 C92.159099,87.157532 91.531035,87.891015 90.383885,87.962095 L90.198458,87.967742 L54.528697,87.967742 C53.257781,87.967742 52.601717,87.198682 52.601717,86.25 C52.601717,85.342468 53.199402,84.608985 54.343514,84.537905 L54.528697,84.532258 L90.198458,84.532258 L54.528697,84.532258 Z M63.537388,74.569355 L90.410999,74.569355 C91.343004,74.569355 92.090323,75.338415 92.090323,76.287097 C92.090323,77.192114 91.415524,77.924047 90.555897,77.998586 L90.410999,78.004839 L63.537388,78.004839 C62.605383,78.004839 61.858065,77.235779 61.858065,76.287097 C61.858065,75.382079 62.532863,74.650146 63.39249,74.575608 L63.537388,74.569355 L90.410999,74.569355 L63.537388,74.569355 Z M77.187724,64.606452 L90.502598,64.606452 C91.383767,64.606452 92.090323,65.375511 92.090323,66.324194 C92.090323,67.229211 91.452331,67.961144 90.639593,68.035682 L90.502598,68.041935 L77.187724,68.041935 C76.306556,68.041935 75.6,67.272876 75.6,66.324194 C75.6,65.419176 76.237991,64.687243 77.050729,64.612705 L77.187724,64.606452 L90.502598,64.606452 L77.187724,64.606452 Z M48.509664,32.670538 C44.724906,34.277073 41.737243,37.326812 40.208931,41.143755 C37.862183,46.951791 39.245245,53.601463 43.713193,57.992025 C48.181141,62.382587 54.854085,63.64939 60.620429,61.201722 C66.386773,58.754054 70.110928,53.073945 70.056319,46.810031 C70.001711,40.546118 66.179092,34.931977 60.370961,32.585503 C56.56363,31.0334 52.294422,31.064003 48.509664,32.670538 Z" id="icExpandSearchDsk"></path>
        </g>
    </g>
</svg>