<?xml version="1.0" encoding="UTF-8"?>
<svg width="25px" height="27px" viewBox="0 0 25 27" version="1.1" xmlns="http://www.w3.org/2000/svg" xmlns:xlink="http://www.w3.org/1999/xlink">
    <!-- Generator: Sketch 53.2 (72643) - https://sketchapp.com -->
    <title>icFilterMember</title>
    <desc>Created with Sketch.</desc>
    <defs>
        <path d="M17.2,16.75 C17.2,16.3328987 17.5103703,16 17.8932318,16 L23.7067682,16 C24.0915038,16 24.4,16.3357866 24.4,16.75 C24.4,17.1671013 24.0896297,17.5 23.7067682,17.5 L17.8932318,17.5 C17.5084962,17.5 17.2,17.1642134 17.2,16.75 Z M11.2,21.1 C11.2,20.6828987 11.5282763,20.35 11.9332259,20.35 L23.6667741,20.35 C24.0737059,20.35 24.4,20.6857866 24.4,21.1 C24.4,21.5171013 24.0717237,21.85 23.6667741,21.85 L11.9332259,21.85 C11.5262941,21.85 11.2,21.5142134 11.2,21.1 Z M7.15849609,25.45 C7.15849609,25.0328987 7.4476495,24.7 7.9998535,24.7 L23.5739746,24.7 C24.1288816,24.7 24.4300293,25.0357866 24.4300293,25.45 C24.4300293,25.8671013 24.1261786,26.2 23.5739746,26.2 L7.9998535,26.2 C7.4449465,26.2 7.15849609,25.8642134 7.15849609,25.45 Z M16.1619083,11.1524228 C14.6077653,15.1880089 10.1782854,17.313606 6.0577628,16.0011506 L2.47405075,25.3376737 C2.38139056,25.577706 1.99212493,26.0353067 1.27451775,25.8717402 C0.556910568,25.7081738 0.5970707,24.7966142 0.688814972,24.5562302 L4.27252419,15.2197237 C1.18949807,13.4886255 -0.701300224,8.9377646 1.04053263,5.01356291 C2.78236549,1.08936123 7.49221328,-1.00759812 11.6124018,0.665084355 C15.7325904,2.33776683 17.7555571,7.00102796 16.1619083,11.1524228 Z M3.6371675,3.5722546 C1.75449947,5.55620805 1.25232104,8.47895644 2.36479822,10.9776211 C3.47727539,13.4762857 5.98532369,15.0587948 8.71943923,14.9872238 C11.4535548,14.9156528 13.8752975,13.2040964 14.8554079,10.650654 C15.5039681,8.97672323 15.4580717,7.11322086 14.7278922,5.473215 C13.9977128,3.83320915 12.643569,2.55217748 10.9656234,1.91407635 C8.412232,0.933850319 5.51983553,1.58830114 3.6371675,3.5722546 Z" id="path-1"></path>
    </defs>
    <g id="Page-1" stroke="none" stroke-width="1" fill="none" fill-rule="evenodd">
        <g id="New-Members" transform="translate(-334.000000, -74.000000)">
            <g id="colour/mid-grey" transform="translate(334.400000, 74.800000)">
                <mask id="mask-2" fill="white">
                    <use xlink:href="#path-1"></use>
                </mask>
                <use id="icFilterMember" fill="#333333" fill-rule="nonzero" xlink:href="#path-1"></use>
            </g>
        </g>
    </g>
</svg>