<?xml version="1.0" encoding="UTF-8"?>
<svg width="50px" height="49px" viewBox="0 0 50 49" version="1.1" xmlns="http://www.w3.org/2000/svg" xmlns:xlink="http://www.w3.org/1999/xlink">
    <!-- Generator: Sketch 55 (78076) - https://sketchapp.com -->
    <title>icSearchNotFound</title>
    <desc>Created with Sketch.</desc>
    <defs>
        <path d="M206.51378,267.915981 L195.784236,257.492069 C195.727213,257.43667 195.660325,257.397948 195.600737,257.346382 C197.711959,254.235004 198.944162,250.51059 198.944162,246.505345 C198.944162,235.610058 189.853084,226.777778 178.638748,226.777778 C167.424412,226.777778 158.333333,235.610058 158.333333,246.505153 C158.333333,257.400056 167.424214,266.232528 178.63855,266.232528 C182.761352,266.232528 186.594699,265.035402 189.797245,262.984281 C189.850322,263.041981 189.889981,263.106965 189.947004,263.162364 L200.676745,273.58666 C202.288574,275.152413 204.901754,275.152413 206.51378,273.58666 C208.125412,272.020715 208.125412,269.481926 206.51378,267.915981 Z M178.638748,259.393669 C171.311822,259.393669 165.372383,253.62331 165.372383,246.505153 C165.372383,239.386805 171.312019,233.616445 178.638748,233.616445 C185.965279,233.616445 191.904915,239.386996 191.904915,246.505153 C191.904915,253.62331 185.965279,259.393669 178.638748,259.393669 Z" id="path-1"></path>
    </defs>
    <g id="Page-1" stroke="none" stroke-width="1" fill="none" fill-rule="evenodd">
        <g id="Filter-Search-Username--not-find" transform="translate(-158.000000, -226.000000)">
            <mask id="mask-2" fill="white">
                <use xlink:href="#path-1"></use>
            </mask>
            <use id="icSearchNotFound" fill-opacity="0.5" fill="#646464" fill-rule="nonzero" xlink:href="#path-1"></use>
        </g>
    </g>
</svg>