<?xml version="1.0" encoding="UTF-8"?>
<svg width="6px" height="13px" viewBox="0 0 6 13" version="1.1" xmlns="http://www.w3.org/2000/svg" xmlns:xlink="http://www.w3.org/1999/xlink">
    <!-- Generator: Sketch 55.2 (78181) - https://sketchapp.com -->
    <title>icInformationUg</title>
    <desc>Created with Sketch.</desc>
    <g id="Web-upgrade" stroke="none" stroke-width="1" fill="none" fill-rule="evenodd" opacity="0.699999988">
        <g id="iPhone-Premium-(1)-Copy" transform="translate(-343.000000, -140.000000)" fill="#000000" fill-rule="nonzero">
            <g id="Group-5" transform="translate(336.000000, 137.000000)">
                <path d="M11.6474711,13.4693019 C11.6474711,13.549277 11.6134545,13.623824 11.5544683,13.6788295 C10.6892168,14.4937799 10.0704046,15.0014954 9.66510068,15.2323739 C9.232294,15.4806225 8.87656744,15.6004043 8.57584641,15.6004043 C8.27874417,15.6004043 8.03411431,15.5023352 7.85208942,15.3051115 C7.67657835,15.1172965 7.58647061,14.8621722 7.58647061,14.5487854 C7.58647061,13.7472245 8.04026624,11.8849978 8.97680779,8.85752231 C8.99164481,8.80468805 9.00394867,8.75692009 9.01227188,8.71059965 C8.97680779,8.72760793 8.93700115,8.74859689 8.89104258,8.77754717 C8.81360059,8.82567701 8.58163647,9.00734001 7.89768611,9.67464396 C7.79563638,9.77669369 7.63242918,9.7850169 7.51735182,9.6974423 L7.11168602,9.38333177 C7.04908104,9.33592568 7.00710314,9.26029308 7.0009512,9.17887042 C6.99443739,9.09889527 7.02157828,9.01783449 7.07622193,8.95776266 C7.70335736,8.26512722 8.29104804,7.76320175 8.8201144,7.46465199 C9.37451225,7.1530746 9.84242115,7 10.2506201,7 C10.515877,7 10.7290235,7.06513813 10.8860787,7.19722378 C11.0572473,7.33871827 11.147355,7.53521829 11.147355,7.77007744 C11.147355,7.92242828 11.0742555,8.3175996 10.5412085,10.1088981 C9.77800677,12.6684647 9.59634377,13.5966831 9.58367802,13.9187549 C9.72770566,13.8326279 10.0689571,13.590893 10.7981423,12.9051333 C10.9110483,12.7980172 11.0887307,12.7994648 11.2012749,12.9083902 L11.5591727,13.2583267 C11.6152639,13.3129703 11.6474711,13.3900505 11.6474711,13.4693019 Z M12.1347212,3.96223492 C12.1347212,4.30457197 12.0131301,4.6103593 11.7771853,4.8694643 C11.5347267,5.13508312 11.251014,5.27078756 10.9347322,5.27078756 C10.6738178,5.27078756 10.4418536,5.174166 10.2641713,4.98816045 C10.0904696,4.80685933 10,4.56801952 10,4.28358302 C10,3.93292276 10.1150774,3.63147797 10.3430608,3.38286745 C10.5768343,3.12991438 10.8634421,3 11.1920278,3 C11.4576466,3 11.691782,3.09625968 11.867293,3.27828456 C12.0449754,3.4577763 12.1347212,3.68793102 12.1347212,3.96223492 Z" id="icInformationUg"></path>
            </g>
        </g>
    </g>
</svg>