<?xml version="1.0" encoding="UTF-8"?>
<svg width="16px" height="16px" viewBox="0 0 16 16" version="1.1" xmlns="http://www.w3.org/2000/svg" xmlns:xlink="http://www.w3.org/1999/xlink">
    <!-- Generator: Sketch 55.2 (78181) - https://sketchapp.com -->
    <title>icCloseToolTipModal</title>
    <desc>Created with Sketch.</desc>
    <defs>
        <path d="M9.48901063,7.66670266 L14.9559075,2.19979936 C15.4591419,1.69656434 15.4591419,0.880661277 14.9559075,0.377498255 C14.4526731,-0.12573676 13.636843,-0.12573676 13.1336086,0.377498255 L7.66663967,5.84447355 L2.19967079,0.377426261 C1.69643636,-0.125808754 0.880606248,-0.125808754 0.377371823,0.377426261 C-0.125790608,0.880661277 -0.125790608,1.69656434 0.377371823,2.19972736 L5.84434071,7.66663067 L0.377371823,13.133606 C-0.125790608,13.636841 -0.125790608,14.4527441 0.377371823,14.9559071 C0.880606248,15.4591421 1.69643636,15.4591421 2.19967079,14.9559071 L7.66663967,9.48893177 L13.1336086,14.9559071 C13.636771,15.4591421 14.4526731,15.4591421 14.9559075,14.9559071 C15.4591419,14.4526721 15.4591419,13.636841 14.9559075,13.133606 L9.48901063,7.66670266 Z" id="path-1"></path>
    </defs>
    <g id="Edit-Profile" stroke="none" stroke-width="1" fill="none" fill-rule="evenodd">
        <mask id="mask-2" fill="white">
            <use xlink:href="#path-1"></use>
        </mask>
        <use id="icCloseToolTipModal" fill="#FFFFFF" fill-rule="nonzero" xlink:href="#path-1"></use>
    </g>
</svg>