<?xml version="1.0" encoding="UTF-8"?>
<svg width="19px" height="30px" viewBox="0 0 19 30" version="1.1" xmlns="http://www.w3.org/2000/svg" xmlns:xlink="http://www.w3.org/1999/xlink">
    <!-- Generator: Sketch 55.2 (78181) - https://sketchapp.com -->
    <title>icFacebookEditProfile</title>
    <desc>Created with Sketch.</desc>
    <g id="Edit-Profile" stroke="none" stroke-width="1" fill="none" fill-rule="evenodd">
        <path d="M11.75,9.875 L11.75,7.125 C11.75,6.59714323 12.2895923,6.125 13,6.125 L15.75,6.125 L15.75,0.25 L11,0.25 C7.29240774,0.25 4.25,2.91210677 4.25,6.25 L4.25,9.875 L0.25,9.875 L0.25,15.75 L4.25,15.75 L4.25,29.75 L11.75,29.75 L11.75,15.75 L15.4817949,15.75 L18.1675092,9.875 L11.75,9.875 Z M14.5182051,14.25 L10.25,14.25 L10.25,28.25 L5.75,28.25 L5.75,14.25 L1.75,14.25 L1.75,11.375 L5.75,11.375 L5.75,6.25 C5.75,3.78839323 8.07959226,1.75 11,1.75 L14.25,1.75 L14.25,4.625 L13,4.625 C11.5024077,4.625 10.25,5.72085677 10.25,7.125 L10.25,11.375 L15.8324908,11.375 L14.5182051,14.25 Z M14.3178941,14.6881802 L15,14.25 L14.5182051,14.25 L14.3178941,14.6881802 Z" id="icFacebookEditProfile" fill="#333333" fill-rule="nonzero"></path>
    </g>
</svg>