<?xml version="1.0" encoding="UTF-8"?>
<svg width="26px" height="22px" viewBox="0 0 26 22" version="1.1" xmlns="http://www.w3.org/2000/svg" xmlns:xlink="http://www.w3.org/1999/xlink">
    <!-- Generator: Sketch 55.2 (78181) - https://sketchapp.com -->
    <title>icFolderEditProfile</title>
    <desc>Created with Sketch.</desc>
    <defs>
        <path d="M2.49125348,21.88 L23.5087465,21.88 C24.8403343,21.88 25.92,20.792 25.92,19.4501333 L25.92,6.5392 C25.92,5.19733333 24.8403343,4.10933333 23.5087465,4.10933333 L14.007688,4.10933333 C13.6837883,4.10933333 13.3958774,4.00053333 13.1799443,3.78293333 L9.68902507,0.736533333 C9.22116992,0.301333333 8.68133705,0.12 8.10551532,0.12 L2.49125348,0.12 C1.15966574,0.12 0.08,1.208 0.08,2.54986667 L0.08,19.4501333 C0.08,20.792 1.15966574,21.88 2.49125348,21.88 Z M1.44,2.73829125 C1.44,2.02916648 2.00390244,1.46186667 2.70878049,1.46186667 L8.20682927,1.46186667 C8.52402439,1.46186667 8.80597561,1.56823538 9.01743902,1.78097281 L12.4360976,4.75929683 C12.8590244,5.14931546 13.4229268,5.32659665 13.9868293,5.32659665 L23.2912195,5.32659665 C23.9960976,5.32659665 24.56,5.89389646 24.56,6.60302123 L24.56,19.2254421 C24.56,19.9345669 23.9960976,20.5018667 23.2912195,20.5018667 L2.70878049,20.5018667 C2.00390244,20.5018667 1.44,19.9345669 1.44,19.2254421 C1.44,19.2608983 1.44,2.73829125 1.44,2.73829125 Z" id="path-1"></path>
    </defs>
    <g id="Edit-Profile" stroke="none" stroke-width="1" fill="none" fill-rule="evenodd">
        <mask id="mask-2" fill="white">
            <use xlink:href="#path-1"></use>
        </mask>
        <use id="icFolderEditProfile" fill="#333333" fill-rule="nonzero" xlink:href="#path-1"></use>
    </g>
</svg>