<?xml version="1.0" encoding="UTF-8"?>
<svg width="28px" height="28px" viewBox="0 0 28 28" version="1.1" xmlns="http://www.w3.org/2000/svg" xmlns:xlink="http://www.w3.org/1999/xlink">
    <!-- Generator: Sketch 55.2 (78181) - https://sketchapp.com -->
    <title>icMainPhoto</title>
    <desc>Created with Sketch.</desc>
    <g id="Edit-Profile" stroke="none" stroke-width="1" fill="none" fill-rule="evenodd">
        <g id="icMainPhoto">
            <rect id="Rectangle" stroke="#333333" x="0.5" y="0.5" width="27" height="27" rx="5"></rect>
            <path d="M14.019248,14.8355455 C11.9483383,14.8355455 10.2764112,13.0009855 10.2954104,10.7703273 L10.2954104,8.18526545 C10.2954104,5.93376 11.9673375,4.0992 14.019248,4.0992 C16.0711585,4.0992 17.7430856,5.93376 17.7430856,8.18526545 L17.7430856,10.74948 C17.7430856,13.0009855 16.0711585,14.8355455 14.019248,14.8355455 Z M11.5061083,8.17579636 L11.5061083,10.7587964 C11.5061083,12.3547964 12.7219947,13.6777964 14.011539,13.6777964 C15.3010834,13.6777964 16.5970174,12.3547964 16.5970174,10.7587964 L16.5970174,8.15479636 C16.5970174,6.55879636 15.3010834,5.27779636 14.011539,5.27779636 C12.7219947,5.27779636 11.5061083,6.57979636 11.5061083,8.17579636 Z M20.6879572,21.7776873 C20.6879572,22.1112436 20.440968,22.3822582 20.1559804,22.3822582 L7.80651894,22.3822582 C7.5025322,22.3822582 7.25554297,22.1112436 7.25554297,21.7776873 L7.25554297,20.38092 C7.25554297,19.2134727 7.78751977,18.1502618 8.69948,17.5248436 L11.3023665,15.7528255 C11.796345,15.3984218 12.3663201,15.2316436 12.9362952,15.2316436 L14.9312083,15.2316436 C15.5011834,15.2316436 16.0521594,15.3984218 16.5461378,15.7319782 L19.225021,17.5248436 C20.1179821,18.1294145 20.6879572,19.23432 20.6879572,20.4017673 L20.6879572,21.7776873 Z M8.26164653,21.6794102 L19.716192,21.5985888 L19.716192,20.5029706 C19.716192,19.7342978 19.4278551,18.7500231 18.7133465,18.273813 L16.0685559,16.4091913 C15.7382058,16.1895705 15.2986311,16.0794102 14.9294163,16.0794102 L12.8890186,16.0794102 C12.5198038,16.0794102 12.1389871,16.1895705 11.808637,16.4091913 L9.23228102,18.273813 C8.6298779,18.6910925 8.26164653,19.3421314 8.26164653,20.1327662 L8.26164653,21.6794102 Z" id="Combined-Shape" fill="#333333" fill-rule="nonzero"></path>
        </g>
    </g>
</svg>