<?xml version="1.0" encoding="UTF-8"?>
<svg width="24px" height="29px" viewBox="0 0 24 29" version="1.1" xmlns="http://www.w3.org/2000/svg" xmlns:xlink="http://www.w3.org/1999/xlink">
    <!-- Generator: Sketch 55.2 (78181) - https://sketchapp.com -->
    <title>icPrivateAlbum</title>
    <desc>Created with Sketch.</desc>
    <g id="Edit-Profile" stroke="none" stroke-width="1" fill="none" fill-rule="evenodd">
        <path d="M22.2429147,25.0585998 L22.2429147,14.8727549 C22.2429147,13.3700534 21.0339176,12.1472517 19.5481807,12.1472517 L4.32388711,12.1472517 C2.83815024,12.1472517 1.62915313,13.3700534 1.62915313,14.8727549 L1.62915313,25.0585998 C1.62915313,26.5613012 2.83815024,27.784103 4.32388711,27.784103 L19.5481807,27.784103 C21.0339176,27.784103 22.2429147,26.5613012 22.2429147,25.0585998 Z M4.72121736,8.23803883 L4.72121736,11.1047949 L19.1508505,11.1047949 L19.1508505,8.23803883 C19.1508505,4.64521162 15.9144899,1.7226841 11.9360339,1.7226841 C7.95757793,1.7226841 4.72121736,4.64521162 4.72121736,8.23803883 Z M20.1815385,11.1636937 C21.9342236,11.4691335 23.2736028,13.0140545 23.2736028,14.8727549 L23.2736028,25.0585998 C23.2736028,27.1362161 21.6023421,28.8265598 19.5481807,28.8265598 L4.32388711,28.8265598 C2.26972577,28.8265598 0.598465049,27.1362161 0.598465049,25.059121 L0.598465049,14.8732761 C0.598465049,13.0140545 1.93784421,11.4691335 3.69052928,11.1636937 L3.69052928,8.23803883 C3.69052928,4.07081795 7.3896688,0.680227347 11.9360339,0.680227347 C16.482399,0.680227347 20.1815385,4.07081795 20.1815385,8.23803883 L20.1815385,11.1636937 Z M12.9445804,21.3270866 L12.9445804,18.8683622 C12.9445804,18.4163667 12.5858064,18.0487874 12.1446384,18.0487874 C11.7034704,18.0487874 11.3446964,18.4163667 11.3446964,18.8683622 L11.3446964,21.3270866 C11.3446964,21.7790821 11.7034704,22.1466614 12.1446384,22.1466614 C12.5858064,22.1466614 12.9445804,21.7790821 12.9445804,21.3270866 Z M12.1446384,17.2292126 C13.0269744,17.2292126 13.7445223,17.9643712 13.7445223,18.8683622 L13.7445223,21.3270866 C13.7445223,22.2310776 13.0269744,22.9662362 12.1446384,22.9662362 C11.2623024,22.9662362 10.5447544,22.2310776 10.5447544,21.3270866 L10.5447544,18.8683622 C10.5447544,17.9643712 11.2623024,17.2292126 12.1446384,17.2292126 Z" id="icPrivateAlbum" fill="#333333"></path>
    </g>
</svg>