<?xml version="1.0" encoding="UTF-8"?>
<svg width="28px" height="26px" viewBox="0 0 28 26" version="1.1" xmlns="http://www.w3.org/2000/svg" xmlns:xlink="http://www.w3.org/1999/xlink">
    <!-- Generator: Sketch 55.2 (78181) - https://sketchapp.com -->
    <title>icPublicAlbum</title>
    <desc>Created with Sketch.</desc>
    <g id="Edit-Profile" stroke="none" stroke-width="1" fill="none" fill-rule="evenodd">
        <path d="M5,0 L23,0 C25.7614237,0 28,2.23857625 28,5 L28,21 C28,23.7614237 25.7614237,26 23,26 L5,26 C2.23857625,26 0,23.7614237 0,21 L0,5 C0,2.23857625 2.23857625,0 5,0 Z M5,1.5 C3.06700338,1.5 1.5,3.06700338 1.5,5 L1.5,21 C1.5,22.9329966 3.06700338,24.5 5,24.5 L23,24.5 C24.9329966,24.5 26.5,22.9329966 26.5,21 L26.5,5 C26.5,3.06700338 24.9329966,1.5 23,1.5 L5,1.5 Z M9.49565217,9.6 C8.18718525,9.6 7.13636364,8.49791063 7.13636364,7.15 C7.13636364,5.80208937 8.18718525,4.7 9.49565217,4.7 C10.8041191,4.7 11.8549407,5.80208937 11.8549407,7.15 C11.8549407,8.49791063 10.8041191,9.6 9.49565217,9.6 Z M9.49565217,8.6 C10.2408987,8.6 10.8549407,7.9559999 10.8549407,7.15 C10.8549407,6.3440001 10.2408987,5.7 9.49565217,5.7 C8.75040569,5.7 8.13636364,6.3440001 8.13636364,7.15 C8.13636364,7.9559999 8.75040569,8.6 9.49565217,8.6 Z M19.0921818,10.399974 L19.0921818,10.999974 C18.2482838,10.999974 17.5664502,11.4915817 16.4364545,12.7507198 C16.3925779,12.7996109 16.0915715,13.137164 16.0034445,13.2348551 C15.8345372,13.4220934 15.6960682,13.5709737 15.5613233,13.7086059 C14.7890924,14.4973846 14.1387557,14.899974 13.3649091,14.899974 C12.5449149,14.899974 12.0253421,14.7243866 11.309806,14.3066178 L11.0742314,14.168127 C10.3715603,13.7578793 9.86905709,13.599974 8.91036364,13.599974 C8.09806493,13.599974 7.2891238,14.4260431 6.58493719,15.8638768 C6.31990954,16.4050198 6.09102543,16.9891267 5.90009842,17.5737431 C5.89722632,17.5825375 5.89437865,17.5912813 5.89155449,17.599974 L22.1882386,17.599974 C22.1568789,17.4437695 22.1226114,17.2796226 22.085442,17.1087763 C21.8905727,16.2130735 21.6568698,15.3179078 21.3854229,14.486117 C20.6728178,12.3024914 19.8226899,10.999974 19.0921818,10.999974 L19.0921818,10.399974 Z M19.0921818,10.399974 L19.0921818,9.799974 C20.5889465,9.799974 21.6479095,11.4224566 22.5262135,14.113831 C22.8115848,14.9882902 23.0551546,15.9212495 23.2580125,16.8536717 C23.3289345,17.1796596 23.3897631,17.4825531 23.4405365,17.7548258 C23.4712238,17.9193863 23.4918826,18.0380821 23.5025323,18.1033497 L23.6162006,18.799974 L4.326164,18.799974 L4.50814445,18.0571967 C4.55134431,17.8808707 4.63495431,17.5822263 4.75939021,17.2012049 C4.96648878,16.5670713 5.21517569,15.9324282 5.50724463,15.3360712 C6.39476256,13.5239049 7.49538962,12.399974 8.91036364,12.399974 C10.1005111,12.399974 10.8048625,12.6213075 11.6792686,13.131821 L11.9148539,13.2703182 C12.4623285,13.5899635 12.7878556,13.699974 13.3649091,13.699974 C13.7294463,13.699974 14.138084,13.4470079 14.7038484,12.8691199 C14.8254167,12.7449466 14.9535354,12.6071948 15.1124216,12.4310652 C15.1977376,12.3364901 15.4973098,12.0005454 15.5433637,11.9492282 C16.8925346,10.4458663 17.7883526,9.799974 19.0921818,9.799974 L19.0921818,10.399974 Z" id="icPublicAlbum" fill="#333333" fill-rule="nonzero"></path>
    </g>
</svg>