<?xml version="1.0" encoding="UTF-8"?>
<svg width="22px" height="22px" viewBox="0 0 22 22" version="1.1" xmlns="http://www.w3.org/2000/svg" xmlns:xlink="http://www.w3.org/1999/xlink">
    <!-- Generator: Sketch 55.2 (78181) - https://sketchapp.com -->
    <title>icRejectedEditPhoto</title>
    <desc>Created with Sketch.</desc>
    <defs>
        <path d="M12.0934064,11.0000216 L15.3735445,7.71987961 C15.6754852,7.41793861 15.6754852,6.92839677 15.3735445,6.62649895 C15.0716039,6.32455794 14.5821058,6.32455794 14.2801651,6.62649895 L10.9999838,9.90668413 L7.71980247,6.62645576 C7.41786182,6.32451475 6.92836375,6.32451475 6.62642309,6.62645576 C6.32452564,6.92839677 6.32452564,7.41793861 6.62642309,7.71983642 L9.90660442,10.9999784 L6.62642309,14.2801636 C6.32452564,14.5821046 6.32452564,15.0716464 6.62642309,15.3735442 C6.92836375,15.6754853 7.41786182,15.6754853 7.71980247,15.3735442 L10.9999838,12.0933591 L14.2801651,15.3735442 C14.5820626,15.6754853 15.0716039,15.6754853 15.3735445,15.3735442 C15.6754852,15.0716032 15.6754852,14.5821046 15.3735445,14.2801636 L12.0934064,11.0000216 Z" id="path-1"></path>
    </defs>
    <g id="Edit-Profile" stroke="none" stroke-width="1" fill="none" fill-rule="evenodd">
        <g id="icRejectedEditPhoto">
            <path d="M11,0.4 C5.14371525,0.4 0.4,5.14371525 0.4,11 C0.4,16.8562847 5.14371525,21.6 11,21.6 C16.8562847,21.6 21.6,16.8562847 21.6,11 C21.6,5.14371525 16.8562847,0.4 11,0.4 Z" id="Path" fill="#FFFFFF" fill-rule="nonzero"></path>
            <path d="M11,1.4 C16.304,1.4 20.6,5.696 20.6,11 C20.6,16.304 16.304,20.6 11,20.6 C5.696,20.6 1.4,16.304 1.4,11 C1.4,5.696 5.696,1.4 11,1.4 Z" id="Path" fill="#FF0400" fill-rule="nonzero"></path>
            <mask id="mask-2" fill="white">
                <use xlink:href="#path-1"></use>
            </mask>
            <use id="Shape" fill="#FFFFFF" fill-rule="nonzero" xlink:href="#path-1"></use>
        </g>
    </g>
</svg>