<?xml version="1.0" encoding="UTF-8"?>
<svg width="17px" height="16px" viewBox="0 0 17 16" version="1.1" xmlns="http://www.w3.org/2000/svg" xmlns:xlink="http://www.w3.org/1999/xlink">
    <!-- Generator: Sketch 55.2 (78181) - https://sketchapp.com -->
    <title>icRotateRight</title>
    <desc>Created with Sketch.</desc>
    <g id="Edit-Profile" stroke="none" stroke-width="1" fill="none" fill-rule="evenodd">
        <path d="M2.10535348,3.03458876 L0.667270042,3.73266154 L2.50933977,7.58615157 L6.33520319,5.72857479 L5.64343788,4.28174522 L4.3689573,4.90037813 C5.38731252,3.32945486 7.13449313,2.35543477 9.05448394,2.35543477 C12.1411053,2.35543477 14.6533882,4.88735491 14.6533882,8 C14.6533882,11.112664 12.1410865,13.6446584 9.05448394,13.6446584 C7.23717158,13.6446584 5.52541344,12.7496091 4.47623788,11.2503223 L4.33184551,11.0439835 L3.02770993,11.9709379 L3.17006828,12.1742806 C4.51836719,14.1001713 6.71785277,15.25 9.05448394,15.25 C13.0226923,15.25 16.25,11.9974195 16.25,8 C16.25,4.00256998 13.0227127,0.75 9.05448394,0.75 C6.41951941,0.75 4.03683767,2.17894356 2.77875881,4.44374697 L2.10535348,3.03458876 Z" id="icRotateRight" fill="#333333" fill-rule="nonzero" transform="translate(8.458635, 8.000000) scale(-1, 1) translate(-8.458635, -8.000000) "></path>
    </g>
</svg>