<?xml version="1.0" encoding="UTF-8"?>
<svg width="38px" height="38px" viewBox="0 0 38 38" version="1.1" xmlns="http://www.w3.org/2000/svg" xmlns:xlink="http://www.w3.org/1999/xlink">
    <!-- Generator: Sketch 53.2 (72643) - https://sketchapp.com -->
    <title>icValidation</title>
    <desc>Created with Sketch.</desc>
    <defs>
        <path d="M4.04465162,25.689626 L4.37634936,29.8503263 C4.53827282,31.8747426 6.12512267,33.4615002 8.14965653,33.6234143 L12.3105986,33.9550927 C12.6236506,33.9796252 12.9151129,34.101306 13.1545633,34.3044346 L16.3321884,37.0118337 C17.1054956,37.6702841 18.0525025,38 19.0004907,38 C19.9484789,38 20.8954858,37.6702841 21.6687929,37.0118337 L24.8454367,34.3044346 C25.0848871,34.1003247 25.3763494,33.9796252 25.6894014,33.9550927 L29.8503435,33.6234143 C31.8748773,33.4615002 33.4617272,31.8747426 33.6236506,29.8503263 L33.9553484,25.689626 C33.9798822,25.3765922 34.1015702,25.0851469 34.3047105,24.8457104 L37.0122669,21.6682699 C38.3292444,20.1227267 38.3292444,17.8784999 37.0122669,16.3319754 L34.3047105,13.1545349 C34.1005888,12.9150984 33.9798822,12.6236531 33.9553484,12.3106193 L33.6236506,8.14991898 C33.4617272,6.12550275 31.8748773,4.5377638 29.8503435,4.37683106 L25.6894014,4.04515259 C25.3763494,4.02062015 25.0839058,3.8989393 24.8454367,3.69581076 L21.6678116,0.988411654 C20.1211973,-0.329470551 17.8778214,-0.329470551 16.3312071,0.988411654 L13.1545633,3.69581076 C12.9151129,3.89992059 12.6236506,4.02062015 12.3105986,4.04515259 L8.14965653,4.37683106 C6.12512267,4.5387451 4.53827282,6.12550275 4.37634936,8.14991898 L4.04465162,12.3106193 C4.02011776,12.6236531 3.89842983,12.9150984 3.6952895,13.1545349 L0.987733072,16.3319754 C-0.329244357,17.8775186 -0.329244357,20.1217454 0.987733072,21.6682699 L3.6952895,24.8457104 C3.89842983,25.0851469 4.01913641,25.3765922 4.04465162,25.689626 Z M1.69927855,17.961982 L4.62489498,14.5286382 C5.23567971,13.8118561 5.59727275,12.9381454 5.67256045,11.9997546 L6.03097232,7.50396158 C6.09353534,6.71507715 6.7117428,6.09690561 7.50067308,6.03434622 L11.9967273,5.67595517 C12.9351726,5.60067185 13.8099945,5.23909982 14.5257578,4.62835058 L17.9593012,1.70290413 L17.9593012,1.70290413 C18.5616028,1.18970511 19.4353643,1.18970511 20.0387263,1.70290413 L23.4722696,4.62835058 C24.1890933,5.23909982 25.0628548,5.60067185 26.0013001,5.67595517 L30.4973543,6.03434622 C31.2862846,6.09690561 31.9044921,6.71507715 31.9670551,7.50396158 L32.325467,11.9997546 C32.4007547,12.9381454 32.7623477,13.8129164 33.3731324,14.5286382 L36.2987489,17.961982 C36.8119777,18.5642486 36.8119777,19.4379593 36.2987489,20.0402259 L33.3731324,23.4735697 C32.7623477,24.1903518 32.4007547,25.0651229 32.325467,26.0024533 L31.9670551,30.4982463 C31.9044921,31.2871308 31.2862846,31.9053023 30.4973543,31.9678617 L26.0013001,32.3262527 C25.0628548,32.4015361 24.1880329,32.7631081 23.4722696,33.3738573 L20.0397866,36.2993038 C19.437485,36.8125028 18.5626632,36.8125028 17.9603616,36.2993038 L14.5268182,33.3738573 C13.8099945,32.7631081 12.9351726,32.4015361 11.9977877,32.3262527 L7.50173347,31.9678617 C6.71280319,31.9053023 6.09459573,31.2871308 6.03203271,30.4982463 L5.67362084,26.0024533 C5.59833314,25.0640626 5.2367401,24.1892915 4.62595537,23.4735697 L1.70033894,20.0402259 C1.18604971,19.4379593 1.18604971,18.5631883 1.69927855,17.961982 Z" id="path-1"></path>
        <path d="M15.8098462,23.552 C15.6966154,23.4416 15.64,23.276 15.64,23.1656 C15.64,23.0552 15.6966154,22.8896 15.8098462,22.7792 L16.6024615,22.0064 C16.8289231,21.7856 17.1686154,21.7856 17.3950769,22.0064 L17.4516923,22.0616 L20.5655385,25.3184 C20.6787692,25.4288 20.8486154,25.4288 20.9618462,25.3184 L28.5483077,17.6456 L28.6049231,17.6456 L28.6049231,17.6456 C28.8313846,17.4248 29.1710769,17.4248 29.3975385,17.6456 L30.1901538,18.4184 C30.4166154,18.6392 30.4166154,18.9704 30.1901538,19.1912 L30.1901538,19.1912 L21.1316923,28.3544 C21.0184615,28.4648 20.9052308,28.52 20.7353846,28.52 C20.5655385,28.52 20.4523077,28.4648 20.3390769,28.3544 L15.9230769,23.7176 L15.8098462,23.552 Z" id="path-3"></path>
    </defs>
    <g id="Page-1" stroke="none" stroke-width="1" fill="none" fill-rule="evenodd">
        <g id="My-validations-----Options" transform="translate(-222.000000, -152.000000)">
            <g id="Icons/Menu/Validation" transform="translate(216.000000, 146.000000)">
                <g id="colour/black" stroke-width="1" fill-rule="evenodd" transform="translate(6.000000, 6.000000)">
                    <mask id="mask-2" fill="white">
                        <use xlink:href="#path-1"></use>
                    </mask>
                    <use id="Mask" fill="#000000" fill-rule="nonzero" xlink:href="#path-1"></use>
                    <g id="colour/dark-grey" mask="url(#mask-2)" fill="#646464">
                        <g transform="translate(-6.000000, -6.000000)">
                            <polygon points="0 0 49 0 49 49 0 49"></polygon>
                        </g>
                    </g>
                </g>
                <g id="Icons/General/Tick" transform="translate(2.000000, 2.000000)">
                    <mask id="mask-4" fill="white">
                        <use xlink:href="#path-3"></use>
                    </mask>
                    <use id="Shape" fill="#000000" fill-rule="nonzero" xlink:href="#path-3"></use>
                    <g id="colour/dark-grey" mask="url(#mask-4)" fill="#646464" fill-rule="evenodd">
                        <polygon points="0 0 46 0 46 46 0 46"></polygon>
                    </g>
                </g>
            </g>
        </g>
    </g>
</svg>