<?xml version="1.0" encoding="UTF-8"?>
<svg width="111px" height="122px" viewBox="0 0 111 122" version="1.1" xmlns="http://www.w3.org/2000/svg" xmlns:xlink="http://www.w3.org/1999/xlink">
    <!-- Generator: Sketch 55 (78076) - https://sketchapp.com -->
    <title>icVerifyBig</title>
    <desc>Created with Sketch.</desc>
    <defs>
        <path d="M187.247683,273.5 C188.243964,273.5 189.241694,273.846779 190.052621,274.537412 L192.631658,276.739534 C192.677996,276.777577 197.256837,280.618487 204.678266,284.675952 C211.563904,288.440776 222.407154,293.202041 234.963487,294.505756 L238.417167,294.864241 C240.563227,295.088111 242.222731,296.867367 242.31396,299.044615 L242.461665,302.551915 C242.489178,303.21182 243.066964,318.932483 237.142853,337.752212 C233.626906,348.920848 228.536892,358.945258 222.014723,367.545971 C213.78816,378.394165 203.301138,386.942203 190.847619,392.951581 L189.117159,393.787071 C188.524892,394.072395 187.88484,394.215789 187.244787,394.215789 C186.604734,394.215789 185.964681,394.072395 185.372414,393.787071 L183.641954,392.951581 C171.186987,386.940739 160.701413,378.394165 152.47485,367.545971 C145.952681,358.945258 140.862667,348.920848 137.34672,337.752212 C131.413921,318.909072 132.000395,303.208893 132.027908,302.550451 L132.175613,299.044615 C132.266842,296.867367 133.926346,295.086648 136.072406,294.864241 L139.526086,294.505756 C152.083867,293.202041 162.927118,288.440776 169.812755,284.675952 C177.23708,280.617024 181.815921,276.776114 181.852123,276.745386 L184.447089,274.534485 C185.256568,273.843853 186.251401,273.5 187.247683,273.5 Z M162.530302,341.448063 L162.967787,342.089435 L180.029713,360.047835 C180.467198,360.475416 180.904684,360.689206 181.560912,360.689206 C182.21714,360.689206 182.654625,360.475416 183.09211,360.047835 L218.090933,324.558616 C218.965903,323.703454 218.965903,322.420711 218.090933,321.565549 L215.028536,318.572483 C214.153565,317.717321 212.841109,317.717321 211.966139,318.572483 L211.747396,318.572483 L182.435882,348.289359 C181.998397,348.71694 181.342169,348.71694 180.904684,348.289359 L168.873839,335.675721 L168.655096,335.46193 C167.780125,334.606768 166.46767,334.606768 165.592699,335.46193 L162.530302,338.454997 C162.092817,338.882578 161.874074,339.523949 161.874074,339.95153 C161.874074,340.379111 162.092817,341.020483 162.530302,341.448063 Z" id="path-1"></path>
    </defs>
    <g id="RHP-Edit-Profile-Verification" stroke="none" stroke-width="1" fill="none" fill-rule="evenodd">
        <g id="Verification-After-sending-pic" transform="translate(-132.000000, -273.000000)">
            <mask id="mask-2" fill="white">
                <use xlink:href="#path-1"></use>
            </mask>
            <use id="icVerifyBig" fill="#91E359" fill-rule="nonzero" xlink:href="#path-1"></use>
        </g>
    </g>
</svg>