<?xml version="1.0" encoding="UTF-8"?>
<svg width="22px" height="20px" viewBox="0 0 22 20" version="1.1" xmlns="http://www.w3.org/2000/svg" xmlns:xlink="http://www.w3.org/1999/xlink">
    <!-- Generator: Sketch 55.2 (78181) - https://sketchapp.com -->
    <title>icWarningEditProfile</title>
    <desc>Created with Sketch.</desc>
    <defs>
        <path d="M21.5565514,16.9591909 L12.7730907,0.663668252 C12.5167384,0.251828245 12.0564602,2.30926389e-14 11.5599666,2.30926389e-14 C11.063473,2.30926389e-14 10.6031948,0.251784502 10.3468425,0.663668252 L0.203472062,16.9591909 C-0.0603310697,17.3830165 -0.0681431104,17.9116502 0.183106569,18.3425622 C0.434356248,18.7735179 0.9056526,19.04 1.41655103,19.04 L20.3434273,19.04 C20.8543257,19.04 21.3256221,18.7734741 21.5768718,18.3425622 C21.8281215,17.9116065 21.8203546,17.3830165 21.5565514,16.9591909 Z" id="path-1"></path>
    </defs>
    <g id="Edit-Profile" stroke="none" stroke-width="1" fill="none" fill-rule="evenodd">
        <g id="icWarningEditProfile">
            <mask id="mask-2" fill="white">
                <use xlink:href="#path-1"></use>
            </mask>
            <use id="Mask" fill="#FF0000" fill-rule="nonzero" xlink:href="#path-1"></use>
            <path d="M11.2269966,5.44 C11.7757121,5.44 12.24,5.7601868 12.24,6.32770668 C12.24,8.0594342 12.0430307,10.5479869 12.0430307,12.2797144 C12.0430307,12.7308707 11.5646644,12.92 11.2269966,12.92 C10.7768296,12.92 10.3969268,12.7308267 10.3969268,12.2797144 C10.3969268,10.5479869 10.2,8.0594342 10.2,6.32770668 C10.2,5.7601868 10.650167,5.44 11.2269966,5.44 Z M11.2266709,15.64 C10.6400364,15.64 10.2,15.163119 10.2,14.62 C10.2,14.0636254 10.639996,13.6 11.2266709,13.6 C11.7733204,13.6 12.24,14.0636254 12.24,14.62 C12.24,15.163119 11.7733204,15.64 11.2266709,15.64 Z" id="Combined-Shape" fill="#FFFFFF" fill-rule="nonzero"></path>
        </g>
    </g>
</svg>