<?xml version="1.0" encoding="UTF-8"?>
<svg width="55px" height="50px" viewBox="0 0 55 50" version="1.1" xmlns="http://www.w3.org/2000/svg" xmlns:xlink="http://www.w3.org/1999/xlink">
    <!-- Generator: Sketch 49 (51002) - http://www.bohemiancoding.com/sketch -->
    <title>Artboard</title>
    <desc>Created with Sketch.</desc>
    <defs></defs>
    <g id="Artboard" stroke="none" stroke-width="1" fill="none" fill-rule="evenodd">
        <path d="M5,36.2576375 L8.06822811,36.2576375 C9.43449427,36.2576375 10.4943106,36.6206685 11.2477088,37.3467413 C12.001107,38.0728142 12.3778004,39.0955467 12.3778004,40.4149694 C12.3778004,41.7421994 12.001107,42.7707873 11.2477088,43.5007637 C10.4943106,44.2307402 9.43449427,44.595723 8.06822811,44.595723 L5,44.595723 L5,36.2576375 Z M7.97454175,43.3660896 C9.89512162,43.3660896 10.8553971,42.3823927 10.8553971,40.4149694 C10.8553971,38.4631606 9.89512162,37.4872709 7.97454175,37.4872709 L6.51069246,37.4872709 L6.51069246,43.3660896 L7.97454175,43.3660896 Z M13.6894094,44.595723 L13.6894094,38.6817719 L15.1415479,38.6817719 L15.1415479,44.595723 L13.6894094,44.595723 Z M13.595723,36 L15.2235234,36 L15.2235234,37.4404277 L13.595723,37.4404277 L13.595723,36 Z M18.7836049,44.6894094 C17.7140137,44.6894094 16.8630378,44.4395816 16.2306517,43.9399185 L16.6405295,42.9093686 C17.2729156,43.3778027 17.995074,43.6120163 18.8070265,43.6120163 C19.1583521,43.6120163 19.4296494,43.5534629 19.6209267,43.4363544 C19.8122039,43.3192458 19.9078411,43.1552964 19.9078411,42.944501 C19.9078411,42.7649346 19.8414806,42.6224547 19.7087576,42.517057 C19.5760346,42.4116594 19.3496282,42.3199257 19.0295316,42.2418534 L18.0458248,42.0193483 C16.9684264,41.7851312 16.4297352,41.2347294 16.4297352,40.3681263 C16.4297352,40.0089935 16.5312278,39.6908534 16.7342159,39.4136965 C16.937204,39.1365397 17.2221638,38.9198922 17.5891039,38.7637475 C17.9560439,38.6076027 18.3815319,38.5295316 18.8655804,38.5295316 C19.2871712,38.5295316 19.6931413,38.5939403 20.0835031,38.7227597 C20.4738648,38.8515791 20.817378,39.0369981 21.114053,39.2790224 L20.6807536,40.2744399 C20.0874037,39.8372347 19.4784485,39.6186354 18.8538697,39.6186354 C18.5181585,39.6186354 18.2566201,39.6810924 18.0692464,39.8060081 C17.8818728,39.9309239 17.7881874,40.1026805 17.7881874,40.3212831 C17.7881874,40.4930423 17.844789,40.6296668 17.9579939,40.7311609 C18.0711988,40.832655 18.264425,40.9185333 18.5376782,40.9887984 L19.5448065,41.2113035 C20.1303492,41.3440265 20.5577889,41.5489633 20.8271385,41.8261202 C21.0964881,42.103277 21.2311609,42.4643562 21.2311609,42.9093686 C21.2311609,43.4558751 21.0125616,43.8891702 20.5753564,44.2092668 C20.1381512,44.5293634 19.5409067,44.6894094 18.7836049,44.6894094 Z M25.037169,44.6894094 C24.4203975,44.6894094 23.8856099,44.5644955 23.4327902,44.314664 C22.9799706,44.0648324 22.6325538,43.7115603 22.3905295,43.2548371 C22.1485052,42.7981138 22.0274949,42.2613744 22.0274949,41.6446029 C22.0274949,41.0278313 22.1543606,40.4852366 22.4080957,40.0168024 C22.6618309,39.5483683 23.0209583,39.1833856 23.4854888,38.9218432 C23.9500193,38.6603008 24.4867587,38.5295316 25.095723,38.5295316 C25.5173137,38.5295316 25.9252356,38.5958921 26.319501,38.7286151 C26.7137664,38.8613381 27.0280029,39.0448053 27.26222,39.2790224 L26.8523422,40.3095723 C26.6025106,40.1065842 26.3370686,39.9523936 26.0560081,39.8469959 C25.7749477,39.7415983 25.497795,39.6889002 25.2245418,39.6889002 C24.6936498,39.6889002 24.2798725,39.8548015 23.9831976,40.186609 C23.6865226,40.5184165 23.5381874,40.9966024 23.5381874,41.6211813 C23.5381874,42.2457601 23.6845708,42.7219943 23.9773422,43.0498982 C24.2701135,43.377802 24.6858425,43.5417515 25.2245418,43.5417515 C25.497795,43.5417515 25.7749477,43.4871017 26.0560081,43.3778004 C26.3370686,43.2684991 26.6025106,43.1123568 26.8523422,42.9093686 L27.26222,43.9399185 C27.0123884,44.1741356 26.688393,44.3576029 26.290224,44.4903259 C25.892055,44.6230489 25.4743742,44.6894094 25.037169,44.6894094 Z M30.7988798,44.6894094 C30.1977227,44.6894094 29.6687905,44.5644955 29.2120672,44.314664 C28.7553439,44.0648324 28.4040236,43.7076568 28.1580957,43.2431263 C27.9121678,42.7785958 27.7892057,42.2340493 27.7892057,41.6094705 C27.7892057,40.9848916 27.9121678,40.4403452 28.1580957,39.9758147 C28.4040236,39.5112842 28.7553439,39.1541085 29.2120672,38.904277 C29.6687905,38.6544455 30.1977227,38.5295316 30.7988798,38.5295316 C31.3922297,38.5295316 31.9153066,38.6544455 32.3681263,38.904277 C32.8209459,39.1541085 33.1703145,39.5112842 33.4162424,39.9758147 C33.6621703,40.4403452 33.7851324,40.9848916 33.7851324,41.6094705 C33.7851324,42.2340493 33.6621703,42.7785958 33.4162424,43.2431263 C33.1703145,43.7076568 32.8209459,44.0648324 32.3681263,44.314664 C31.9153066,44.5644955 31.3922297,44.6894094 30.7988798,44.6894094 Z M30.787169,43.5417515 C31.2868321,43.5417515 31.6674291,43.3797538 31.9289715,43.0557536 C32.1905139,42.7317533 32.3212831,42.2496638 32.3212831,41.6094705 C32.3212831,40.9770844 32.1885621,40.4949949 31.9231161,40.1631874 C31.6576701,39.8313799 31.2829284,39.6654786 30.7988798,39.6654786 C30.307024,39.6654786 29.9283788,39.8313799 29.6629328,40.1631874 C29.3974868,40.4949949 29.2647658,40.9770844 29.2647658,41.6094705 C29.2647658,42.2496638 29.395535,42.7317533 29.6570774,43.0557536 C29.9186198,43.3797538 30.2953132,43.5417515 30.787169,43.5417515 Z M38.9613035,38.6934827 L40.413442,38.6934827 L37.8253564,44.595723 L36.5488798,44.595723 L33.9959267,38.6934827 L35.5300407,38.6934827 L37.2281059,42.9327902 L38.9613035,38.6934827 Z M46.1165988,41.7148676 L42.0412424,41.7148676 C42.0724713,42.3472537 42.2305654,42.813729 42.5155295,43.1143075 C42.8004936,43.4148861 43.2240298,43.5651731 43.7861507,43.5651731 C44.4341512,43.5651731 45.0352993,43.3543809 45.589613,42.9327902 L46.0112016,43.9399185 C45.7301412,44.1663284 45.3846762,44.3478439 44.9747963,44.4844705 C44.5649165,44.6210971 44.1491874,44.6894094 43.7275967,44.6894094 C42.7594996,44.6894094 41.9983056,44.4161602 41.4439919,43.8696538 C40.8896782,43.3231473 40.6125255,42.573664 40.6125255,41.6211813 C40.6125255,41.0200241 40.7335358,40.4852366 40.9755601,40.0168024 C41.2175844,39.5483683 41.557194,39.1833856 41.9943992,38.9218432 C42.4316044,38.6603008 42.9273564,38.5295316 43.4816701,38.5295316 C44.2936225,38.5295316 44.935758,38.7930218 45.4080957,39.3200102 C45.8804335,39.8469986 46.1165988,40.5711088 46.1165988,41.4923625 L46.1165988,41.7148676 Z M43.5168024,39.5835031 C43.1264407,39.5835031 42.8083006,39.698658 42.5623727,39.9289715 C42.3164448,40.1592849 42.1583507,40.4930392 42.0880855,40.9302444 L44.8401222,40.9302444 C44.7932788,40.485232 44.658606,40.1495259 44.4360998,39.9231161 C44.2135936,39.6967063 43.9071642,39.5835031 43.5168024,39.5835031 Z M50.4144603,38.5412424 C50.6408701,38.5412424 50.8360481,38.5724708 51,38.6349287 L50.9882892,39.9699593 C50.7384577,39.8684652 50.4808228,39.8177189 50.2153768,39.8177189 C49.7157137,39.8177189 49.3351167,39.9621506 49.0735743,40.2510183 C48.812032,40.539886 48.6812627,40.9224348 48.6812627,41.3986762 L48.6812627,44.595723 L47.2291242,44.595723 L47.2291242,40.3564155 C47.2291242,39.7318367 47.1978958,39.1736277 47.1354379,38.6817719 L48.5056008,38.6817719 L48.6227088,39.7240326 C48.7710462,39.3414781 49.0052598,39.0487111 49.3253564,38.845723 C49.6454531,38.6427349 50.0084841,38.5412424 50.4144603,38.5412424 Z" id="Discover" fill="#B9BCC1"></path>
        <g id="compass" transform="translate(18.000000, 13.000000)" fill="#B9BCC1" fill-rule="nonzero">
            <path d="M10,8.9 C9.4,8.9 8.9,9.4 8.9,10 C8.9,10.6 9.4,11.1 10,11.1 C10.6,11.1 11.1,10.6 11.1,10 C11.1,9.4 10.6,8.9 10,8.9 Z M10,0 C4.5,0 0,4.5 0,10 C0,15.5 4.5,20 10,20 C15.5,20 20,15.5 20,10 C20,4.5 15.5,0 10,0 Z M12.2,12.2 L4,16 L7.8,7.8 L16,4 L12.2,12.2 Z" id="Shape"></path>
        </g>
    </g>
</svg>