<?xml version="1.0" encoding="UTF-8"?>
<svg width="55px" height="50px" viewBox="0 0 55 50" version="1.1" xmlns="http://www.w3.org/2000/svg" xmlns:xlink="http://www.w3.org/1999/xlink">
    <!-- Generator: Sketch 49 (51002) - http://www.bohemiancoding.com/sketch -->
    <title>Artboard Copy</title>
    <desc>Created with Sketch.</desc>
    <defs></defs>
    <g id="Artboard-Copy" stroke="none" stroke-width="1" fill="none" fill-rule="evenodd">
        <g id="heart" transform="translate(19.000000, 17.000000)" fill="#B9BCC1" fill-rule="nonzero">
            <path d="M18,4.67611336 C18,2.09352508 15.8236804,0 13.1390914,0 C11.3861045,0 9.85519535,0.895608412 8.9999452,2.23406573 C8.14480465,0.895608412 6.61323797,0 4.86028751,0 C2.17569852,0 0,2.09352508 0,4.67611336 C0,6.08218764 0.64767545,7.34013017 1.668452,8.19676395 L8.55637392,14.8232611 C8.67400689,14.9364246 8.83354204,15 8.9999452,15 C9.16634836,15 9.32588352,14.9364246 9.44351649,14.8232611 L16.3314384,8.19676395 C17.3522515,7.34013017 18,6.08218764 18,4.67611336 Z" id="Shape"></path>
        </g>
        <path d="M15,44.5390451 L15,36.2784471 L20.394913,36.2784471 L20.394913,37.4734494 L16.4850513,37.4734494 L16.4850513,39.7358322 L20.1628737,39.7358322 L20.1628737,40.9424364 L16.4850513,40.9424364 L16.4850513,44.5390451 L15,44.5390451 Z M21.4042838,44.5390451 L21.4042838,36 L22.8429273,36 L22.8429273,44.5390451 L21.4042838,44.5390451 Z M24.3047747,44.5390451 L24.3047747,38.6800535 L25.7434181,38.6800535 L25.7434181,44.5390451 L24.3047747,44.5390451 Z M24.2119589,36.0232039 L25.8246319,36.0232039 L25.8246319,37.4502454 L24.2119589,37.4502454 L24.2119589,36.0232039 Z M30.3609996,38.54083 C30.5853053,38.54083 30.7786694,38.5717682 30.9410977,38.6336457 L30.9294958,39.9562695 C30.681986,39.8557187 30.4267453,39.805444 30.1637662,39.805444 C29.6687466,39.805444 29.2916866,39.9485334 29.0325747,40.2347166 C28.7734629,40.5208998 28.643909,40.8998935 28.643909,41.3717091 L28.643909,44.5390451 L27.2052655,44.5390451 L27.2052655,40.3391343 C27.2052655,39.7203598 27.1743272,39.1673384 27.1124498,38.6800535 L28.4698795,38.6800535 L28.5858992,39.7126283 C28.7328581,39.3336289 28.964895,39.0435827 29.282017,38.842481 C29.5991389,38.6413793 29.9587961,38.54083 30.3609996,38.54083 Z M34.0040161,39.7706381 L34.0040161,42.3926818 C34.0040161,43.0810684 34.3250005,43.4252566 34.966979,43.4252566 C35.1448767,43.4252566 35.3382408,43.3943183 35.5470772,43.3324409 L35.5470772,44.4810353 C35.2918327,44.5738514 34.9824501,44.6202588 34.6189201,44.6202588 C33.9537376,44.6202588 33.4432563,44.4346293 33.087461,44.0633646 C32.7316656,43.6920999 32.5537706,43.1584149 32.5537706,42.4622936 L32.5537706,39.7706381 L31.4283802,39.7706381 L31.4283802,38.6800535 L32.5537706,38.6800535 L32.5537706,37.253012 L34.0040161,36.7657296 L34.0040161,38.6800535 L35.5586792,38.6800535 L35.5586792,39.7706381 L34.0040161,39.7706381 Z M38.5751896,44.6318608 C37.5155384,44.6318608 36.6724708,44.3843547 36.0459616,43.8893351 L36.4520303,42.8683623 C37.0785395,43.3324432 37.7939868,43.5644801 38.5983936,43.5644801 C38.9464542,43.5644801 39.2152303,43.5064709 39.40473,43.3904507 C39.5942297,43.2744305 39.6889781,43.1120046 39.6889781,42.9031682 C39.6889781,42.7252706 39.6232343,42.5841148 39.4917448,42.4796966 C39.3602552,42.3752784 39.1359528,42.2843972 38.8188309,42.2070504 L37.844266,41.9866131 C36.77688,41.7545727 36.243195,41.2092859 36.243195,40.3507363 C36.243195,39.994941 36.3437443,39.6797574 36.5448461,39.4051763 C36.7459478,39.1305951 37.0282594,38.9159609 37.3917894,38.7612673 C37.7553194,38.6065737 38.1768532,38.529228 38.6564034,38.529228 C39.0740762,38.529228 39.4762735,38.5930382 39.8630076,38.7206604 C40.2497416,38.8482827 40.5900625,39.0319786 40.8839804,39.2717537 L40.4547077,40.2579206 C39.866872,39.8247784 39.2635759,39.6082106 38.6448014,39.6082106 C38.3122101,39.6082106 38.0531022,39.6700871 37.8674699,39.793842 C37.6818375,39.9175969 37.5890228,40.0877574 37.5890228,40.3043284 C37.5890228,40.4744914 37.6450984,40.6098463 37.7572512,40.7103971 C37.8694041,40.810948 38.0608346,40.8960282 38.3315484,40.9656403 L39.3293173,41.1860776 C39.9094183,41.3175672 40.3328858,41.5205995 40.5997323,41.7951807 C40.8665788,42.0697619 41,42.4274855 41,42.8683623 C41,43.40979 40.7834322,43.8390584 40.35029,44.1561803 C39.9171479,44.4733022 39.3254537,44.6318608 38.5751896,44.6318608 Z" id="Flirts" fill="#B9BCC1"></path>
    </g>
</svg>