<?xml version="1.0" encoding="UTF-8"?>
<svg width="55px" height="50px" viewBox="0 0 55 50" version="1.1" xmlns="http://www.w3.org/2000/svg" xmlns:xlink="http://www.w3.org/1999/xlink">
    <!-- Generator: Sketch 49 (51002) - http://www.bohemiancoding.com/sketch -->
    <title>Artboard Copy 2</title>
    <desc>Created with Sketch.</desc>
    <defs></defs>
    <g id="Artboard-Copy-2" stroke="none" stroke-width="1" fill="none" fill-rule="evenodd">
        <path d="M8.08629893,37 L9.3113879,37 L9.3113879,45.5516014 L7.94217082,45.5516014 L7.94217082,40.2428826 L5.67215302,45.5516014 L4.65124555,45.5516014 L2.36921708,40.3029359 L2.36921708,45.5516014 L1,45.5516014 L1,37 L2.22508897,37 L5.16770463,43.6899466 L8.08629893,37 Z M16.2535587,42.5969751 L12.0738434,42.5969751 C12.105872,43.2455548 12.2680146,43.7239753 12.5602758,44.0322509 C12.852537,44.3405265 13.2869188,44.4946619 13.8634342,44.4946619 C14.5280282,44.4946619 15.1445701,44.2784719 15.7130783,43.8460854 L16.1454626,44.8790036 C15.857205,45.1112111 15.5028936,45.2973747 15.0825178,45.4375 C14.662142,45.5776253 14.2357673,45.6476868 13.8033808,45.6476868 C12.8104933,45.6476868 12.0298071,45.3674405 11.4612989,44.8069395 C10.8927908,44.2464385 10.6085409,43.4777629 10.6085409,42.5008897 C10.6085409,41.8843386 10.73265,41.3358565 10.9808719,40.855427 C11.2290938,40.3749976 11.5773999,40.0006686 12.0258007,39.7324288 C12.4742015,39.4641891 12.9826484,39.3300712 13.5511566,39.3300712 C14.383901,39.3300712 15.0424798,39.6003087 15.5269128,40.1407918 C16.0113458,40.6812749 16.2535587,41.4239277 16.2535587,42.3687722 L16.2535587,42.5969751 Z M13.5871886,40.411032 C13.1868307,40.411032 12.860544,40.5291358 12.6083185,40.765347 C12.356093,41.0015581 12.1939505,41.343859 12.1218861,41.7922598 L14.944395,41.7922598 C14.8963521,41.3358518 14.7582307,40.9915492 14.5300267,40.7593416 C14.3018227,40.5271341 13.9875465,40.411032 13.5871886,40.411032 Z M19.616548,45.6476868 C18.5195675,45.6476868 17.6468004,45.3914616 16.9982206,44.8790036 L17.4185943,43.8220641 C18.0671741,44.3024935 18.807825,44.5427046 19.6405694,44.5427046 C20.0008915,44.5427046 20.279136,44.4826518 20.4753114,44.3625445 C20.6714867,44.2424371 20.769573,44.0742893 20.769573,43.8580961 C20.769573,43.6739315 20.7015131,43.527803 20.5653915,43.4197064 C20.4292698,43.3116098 20.1970657,43.2175271 19.8687722,43.1374555 L18.8598754,42.9092527 C17.7548877,42.6690379 17.2024021,42.1045418 17.2024021,41.2157473 C17.2024021,40.8474181 17.3064936,40.5211313 17.5146797,40.2368772 C17.7228658,39.9526231 18.0151227,39.7304278 18.3914591,39.5702847 C18.7677955,39.4101415 19.204179,39.3300712 19.7006228,39.3300712 C20.1330093,39.3300712 20.5493752,39.3961292 20.9497331,39.5282473 C21.350091,39.6603654 21.7024006,39.8505326 22.0066726,40.0987544 L21.5622776,41.1196619 C20.9537336,40.6712611 20.3291847,40.4470641 19.6886121,40.4470641 C19.3443043,40.4470641 19.0760686,40.5111204 18.8838968,40.6392349 C18.691725,40.7673494 18.5956406,40.9435042 18.5956406,41.1677046 C18.5956406,41.3438621 18.6536916,41.4839852 18.7697954,41.5880783 C18.8858992,41.6921713 19.0840733,41.7802487 19.3643238,41.8523132 L20.397242,42.080516 C20.9977788,42.2166377 21.4361641,42.4268224 21.712411,42.7110765 C21.988658,42.9953306 22.1267794,43.3656561 22.1267794,43.8220641 C22.1267794,44.3825651 21.9025823,44.8269557 21.4541815,45.1552491 C21.0057807,45.4835426 20.3932423,45.6476868 19.616548,45.6476868 Z M25.5017794,45.6476868 C24.4047988,45.6476868 23.5320317,45.3914616 22.883452,44.8790036 L23.3038256,43.8220641 C23.9524054,44.3024935 24.6930563,44.5427046 25.5258007,44.5427046 C25.8861228,44.5427046 26.1643673,44.4826518 26.3605427,44.3625445 C26.5567181,44.2424371 26.6548043,44.0742893 26.6548043,43.8580961 C26.6548043,43.6739315 26.5867445,43.527803 26.4506228,43.4197064 C26.3145011,43.3116098 26.082297,43.2175271 25.7540036,43.1374555 L24.7451068,42.9092527 C23.640119,42.6690379 23.0876335,42.1045418 23.0876335,41.2157473 C23.0876335,40.8474181 23.1917249,40.5211313 23.399911,40.2368772 C23.6080971,39.9526231 23.900354,39.7304278 24.2766904,39.5702847 C24.6530268,39.4101415 25.0894103,39.3300712 25.5858541,39.3300712 C26.0182406,39.3300712 26.4346065,39.3961292 26.8349644,39.5282473 C27.2353223,39.6603654 27.5876319,39.8505326 27.8919039,40.0987544 L27.4475089,41.1196619 C26.8389649,40.6712611 26.214416,40.4470641 25.5738434,40.4470641 C25.2295356,40.4470641 24.9612999,40.5111204 24.7691281,40.6392349 C24.5769563,40.7673494 24.4808719,40.9435042 24.4808719,41.1677046 C24.4808719,41.3438621 24.5389229,41.4839852 24.6550267,41.5880783 C24.7711305,41.6921713 24.9693046,41.7802487 25.2495552,41.8523132 L26.2824733,42.080516 C26.8830101,42.2166377 27.3213954,42.4268224 27.5976423,42.7110765 C27.8738893,42.9953306 28.0120107,43.3656561 28.0120107,43.8220641 C28.0120107,44.3825651 27.7878136,44.8269557 27.3394128,45.1552491 C26.891012,45.4835426 26.2784736,45.6476868 25.5017794,45.6476868 Z M34.9661922,39.48621 L34.9661922,45.5516014 L33.488879,45.5516014 L33.488879,44.5787367 C33.3047144,44.9150373 33.0404821,45.1772677 32.6961744,45.3654359 C32.3518666,45.5536041 31.9595218,45.6476868 31.5191281,45.6476868 C30.9906557,45.6476868 30.522244,45.5195742 30.113879,45.2633452 C29.705514,45.0071162 29.389236,44.642796 29.1650356,44.1703737 C28.9408352,43.6979514 28.8287367,43.1494693 28.8287367,42.524911 C28.8287367,41.9003527 28.9428369,41.3458654 29.1710409,40.8614324 C29.3992449,40.3769994 29.7175246,40.0006686 30.1258897,39.7324288 C30.5342547,39.4641891 30.9986629,39.3300712 31.5191281,39.3300712 C31.9595218,39.3300712 32.3518666,39.4241539 32.6961744,39.6123221 C33.0404821,39.8004903 33.3047144,40.0627207 33.488879,40.3990214 L33.488879,39.48621 L34.9661922,39.48621 Z M31.9274911,44.4706406 C32.4239349,44.4706406 32.8082727,44.2984893 33.080516,43.9541815 C33.3527594,43.6098737 33.488879,43.125448 33.488879,42.5008897 C33.488879,41.8603171 33.3527594,41.3678843 33.080516,41.0235765 C32.8082727,40.6792687 32.4199313,40.5071174 31.9154804,40.5071174 C31.4190367,40.5071174 31.0326971,40.685274 30.7564502,41.0415925 C30.4802032,41.397911 30.3420819,41.8923456 30.3420819,42.524911 C30.3420819,43.1494693 30.4802032,43.6298916 30.7564502,43.9661922 C31.0326971,44.3024928 31.4230402,44.4706406 31.9274911,44.4706406 Z M42.3287367,39.48621 L42.3287367,45.3594306 C42.3287367,46.3042752 42.0685079,47.020905 41.5480427,47.5093416 C41.0275775,47.9977782 40.2629054,48.2419929 39.2540036,48.2419929 C38.3171661,48.2419929 37.4924413,48.0458205 36.7798043,47.6534697 L37.0200178,46.5124555 C37.7566763,46.8967991 38.4893202,47.088968 39.2179715,47.088968 C40.2989378,47.088968 40.8394128,46.5524965 40.8394128,45.4795374 L40.8394128,44.2784698 C40.6552482,44.6067632 40.3870124,44.8729972 40.0346975,45.0771797 C39.6823826,45.2813622 39.2860342,45.383452 38.8456406,45.383452 C38.3171682,45.383452 37.8467547,45.2573411 37.4343861,45.0051157 C37.0220175,44.7528902 36.701736,44.396577 36.473532,43.9361655 C36.245328,43.4757539 36.1312278,42.9492912 36.1312278,42.3567616 C36.1312278,41.7642319 36.245328,41.2377692 36.473532,40.7773577 C36.701736,40.3169461 37.0220175,39.9606329 37.4343861,39.7084075 C37.8467547,39.456182 38.3171682,39.3300712 38.8456406,39.3300712 C39.2940414,39.3300712 39.6923915,39.4241539 40.0407028,39.6123221 C40.3890142,39.8004903 40.6552482,40.0627207 40.8394128,40.3990214 L40.8394128,39.48621 L42.3287367,39.48621 Z M39.2419929,44.2064057 C39.7384366,44.2064057 40.1287797,44.0422614 40.4130338,43.713968 C40.6972879,43.3856745 40.8394128,42.9332769 40.8394128,42.3567616 C40.8394128,41.7802462 40.6992897,41.3278486 40.4190391,40.9995552 C40.1387886,40.6712617 39.7464438,40.5071174 39.2419929,40.5071174 C38.7455491,40.5071174 38.355206,40.6712617 38.070952,40.9995552 C37.7866979,41.3278486 37.644573,41.7802462 37.644573,42.3567616 C37.644573,42.9332769 37.7866979,43.3856745 38.070952,43.713968 C38.355206,44.0422614 38.7455491,44.2064057 39.2419929,44.2064057 Z M49.1267794,42.5969751 L44.9470641,42.5969751 C44.9790927,43.2455548 45.1412352,43.7239753 45.4334964,44.0322509 C45.7257577,44.3405265 46.1601395,44.4946619 46.7366548,44.4946619 C47.4012489,44.4946619 48.0177908,44.2784719 48.5862989,43.8460854 L49.0186833,44.8790036 C48.7304256,45.1112111 48.3761142,45.2973747 47.9557384,45.4375 C47.5353627,45.5776253 47.1089879,45.6476868 46.6766014,45.6476868 C45.6837139,45.6476868 44.9030278,45.3674405 44.3345196,44.8069395 C43.7660114,44.2464385 43.4817616,43.4777629 43.4817616,42.5008897 C43.4817616,41.8843386 43.6058706,41.3358565 43.8540925,40.855427 C44.1023144,40.3749976 44.4506205,40.0006686 44.8990214,39.7324288 C45.3474222,39.4641891 45.855869,39.3300712 46.4243772,39.3300712 C47.2571216,39.3300712 47.9157004,39.6003087 48.4001335,40.1407918 C48.8845665,40.6812749 49.1267794,41.4239277 49.1267794,42.3687722 L49.1267794,42.5969751 Z M46.4604093,40.411032 C46.0600514,40.411032 45.7337646,40.5291358 45.4815391,40.765347 C45.2293137,41.0015581 45.0671712,41.343859 44.9951068,41.7922598 L47.8176157,41.7922598 C47.7695727,41.3358518 47.6314513,40.9915492 47.4032473,40.7593416 C47.1750433,40.5271341 46.8607671,40.411032 46.4604093,40.411032 Z M52.4897687,45.6476868 C51.3927881,45.6476868 50.520021,45.3914616 49.8714413,44.8790036 L50.2918149,43.8220641 C50.9403947,44.3024935 51.6810457,44.5427046 52.51379,44.5427046 C52.8741121,44.5427046 53.1523567,44.4826518 53.348532,44.3625445 C53.5447074,44.2424371 53.6427936,44.0742893 53.6427936,43.8580961 C53.6427936,43.6739315 53.5747338,43.527803 53.4386121,43.4197064 C53.3024904,43.3116098 53.0702863,43.2175271 52.7419929,43.1374555 L51.7330961,42.9092527 C50.6281084,42.6690379 50.0756228,42.1045418 50.0756228,41.2157473 C50.0756228,40.8474181 50.1797143,40.5211313 50.3879004,40.2368772 C50.5960865,39.9526231 50.8883433,39.7304278 51.2646797,39.5702847 C51.6410161,39.4101415 52.0773997,39.3300712 52.5738434,39.3300712 C53.0062299,39.3300712 53.4225959,39.3961292 53.8229537,39.5282473 C54.2233116,39.6603654 54.5756213,39.8505326 54.8798932,40.0987544 L54.4354982,41.1196619 C53.8269543,40.6712611 53.2024053,40.4470641 52.5618327,40.4470641 C52.217525,40.4470641 51.9492892,40.5111204 51.7571174,40.6392349 C51.5649457,40.7673494 51.4688612,40.9435042 51.4688612,41.1677046 C51.4688612,41.3438621 51.5269122,41.4839852 51.643016,41.5880783 C51.7591198,41.6921713 51.957294,41.7802487 52.2375445,41.8523132 L53.2704626,42.080516 C53.8709994,42.2166377 54.3093847,42.4268224 54.5856317,42.7110765 C54.8618786,42.9953306 55,43.3656561 55,43.8220641 C55,44.3825651 54.775803,44.8269557 54.3274021,45.1552491 C53.8790013,45.4835426 53.266463,45.6476868 52.4897687,45.6476868 Z" id="Messages" fill="#6FC237"></path>
        <g id="envelope" transform="translate(18.000000, 18.000000)" fill="#6FC237" fill-rule="nonzero">
            <path d="M10,9.8 L12.4742857,7.6776 L19.5442857,13.6206 C19.2885714,13.8544 18.9428571,14 18.5614286,14 L1.43857143,14 C1.05571429,14 0.708571429,13.8544 0.451428571,13.6206 L7.52571429,7.6776 L10,9.8 Z M19.5485714,0.3794 L10,8.4 L0.454285714,0.3822 C0.711428571,0.1456 1.05714286,0 1.43857143,0 L18.5614286,0 C18.9457143,0 19.2914286,0.1442 19.5485714,0.3794 Z M0,1.2292 L6.90428571,7.1106 L0,12.8604 L0,1.2292 Z M13.0957143,7.1106 L20,1.225 L20,12.8604 L13.0957143,7.1106 Z" id="Combined-Shape"></path>
        </g>
    </g>
</svg>