<?xml version="1.0" encoding="UTF-8"?>
<svg width="55px" height="50px" viewBox="0 0 55 50" version="1.1" xmlns="http://www.w3.org/2000/svg" xmlns:xlink="http://www.w3.org/1999/xlink">
    <!-- Generator: Sketch 49 (51002) - http://www.bohemiancoding.com/sketch -->
    <title>Artboard Copy 4</title>
    <desc>Created with Sketch.</desc>
    <defs></defs>
    <g id="Artboard-Copy-4" stroke="none" stroke-width="1" fill="none" fill-rule="evenodd">
        <g id="more" transform="translate(19.000000, 23.000000)" fill="#B9BCC1" fill-rule="nonzero">
            <path d="M2,0 C0.89725,0 0,0.89725 0,2 C0,3.10275 0.89725,4 2,4 C3.10275,4 4,3.10275 4,2 C4,0.89725 3.10275,0 2,0 Z" id="Shape"></path>
            <path d="M16,0 C14.89725,0 14,0.89725 14,2 C14,3.10275 14.89725,4 16,4 C17.10275,4 18,3.10275 18,2 C18,0.89725 17.10275,0 16,0 Z" id="Shape"></path>
            <path d="M9,0 C7.89725,0 7,0.89725 7,2 C7,3.10275 7.89725,4 9,4 C10.10275,4 11,3.10275 11,2 C11,0.89725 10.10275,0 9,0 Z" id="Shape"></path>
        </g>
        <path d="M21.005328,37 L22.2164186,37 L22.2164186,45.4538874 L20.8628468,45.4538874 L20.8628468,40.2058281 L18.6187671,45.4538874 L17.609525,45.4538874 L15.3535719,40.2651953 L15.3535719,45.4538874 L14,45.4538874 L14,37 L15.2110906,37 L18.1200828,43.6135046 L21.005328,37 Z M26.5502233,45.5488749 C25.9407171,45.5488749 25.4044389,45.4222262 24.9413725,45.1689249 C24.4783061,44.9156236 24.1221066,44.5534874 23.8727632,44.0825054 C23.6234197,43.6115233 23.4987499,43.059414 23.4987499,42.4261609 C23.4987499,41.7929077 23.6234197,41.2407984 23.8727632,40.7698164 C24.1221066,40.2988343 24.4783061,39.9366981 24.9413725,39.6833968 C25.4044389,39.4300956 25.9407171,39.3034468 26.5502233,39.3034468 C27.1518138,39.3034468 27.6821553,39.4300956 28.1412639,39.6833968 C28.6003724,39.9366981 28.9545931,40.2988343 29.2039365,40.7698164 C29.4532799,41.2407984 29.5779498,41.7929077 29.5779498,42.4261609 C29.5779498,43.059414 29.4532799,43.6115233 29.2039365,44.0825054 C28.9545931,44.5534874 28.6003724,44.9156236 28.1412639,45.1689249 C27.6821553,45.4222262 27.1518138,45.5488749 26.5502233,45.5488749 Z M26.5383498,44.385278 C27.0449524,44.385278 27.4308352,44.2210305 27.69601,43.8925304 C27.9611847,43.5640303 28.0937701,43.0752454 28.0937701,42.4261609 C28.0937701,41.784992 27.9592058,41.2962071 27.6900733,40.9597914 C27.4209407,40.6233756 27.0409945,40.4551703 26.5502233,40.4551703 C26.0515364,40.4551703 25.6676324,40.6233756 25.3984998,40.9597914 C25.1293673,41.2962071 24.994803,41.784992 24.994803,42.4261609 C24.994803,43.0752454 25.1273884,43.5640303 25.3925631,43.8925304 C25.6577379,44.2210305 26.039663,44.385278 26.5383498,44.385278 Z M33.9592482,39.3153203 C34.1888024,39.3153203 34.3866911,39.3469825 34.55292,39.4103078 L34.5410466,40.7638796 C34.2877453,40.660976 34.0265323,40.609525 33.7573997,40.609525 C33.2507972,40.609525 32.8649144,40.7559625 32.5997396,41.0488421 C32.3345648,41.3417217 32.2019794,41.7295835 32.2019794,42.212439 L32.2019794,45.4538874 L30.7296732,45.4538874 L30.7296732,41.1557031 C30.7296732,40.5224499 30.698011,39.9564884 30.6346857,39.4578015 L32.0238779,39.4578015 L32.1426123,40.5145375 C32.2930099,40.1266699 32.5304763,39.8298369 32.8550185,39.6240297 C33.1795607,39.4182224 33.5476336,39.3153203 33.9592482,39.3153203 Z M40.3827778,42.5330218 L36.2508216,42.5330218 C36.2824842,43.1741906 36.442774,43.6471445 36.7316958,43.9518976 C37.0206175,44.2566506 37.4500359,44.4090249 38.0199637,44.4090249 C38.6769639,44.4090249 39.2864609,44.1953052 39.8484731,43.7678593 L40.2759168,44.7889749 C39.9909529,45.0185292 39.64069,45.2025656 39.2251176,45.3410897 C38.8095453,45.4796139 38.3880424,45.5488749 37.9605966,45.5488749 C36.9790542,45.5488749 36.2072885,45.2718308 35.6452763,44.7177343 C35.0832641,44.1636378 34.8022622,43.4037454 34.8022622,42.4380343 C34.8022622,41.8285281 34.9249532,41.2863133 35.1703388,40.8113734 C35.4157244,40.3364335 35.7600506,39.9663818 36.2033278,39.701207 C36.646605,39.4360322 37.1492422,39.3034468 37.7112544,39.3034468 C38.5344835,39.3034468 39.1855371,39.5705965 39.6644348,40.1049039 C40.1433325,40.6392112 40.3827778,41.3733781 40.3827778,42.3074265 L40.3827778,42.5330218 Z M37.7468747,40.3720562 C37.3510915,40.3720562 37.028533,40.4888105 36.7791895,40.7223226 C36.5298461,40.9558347 36.3695563,41.2942243 36.2983153,41.7375015 L39.0885731,41.7375015 C39.0410791,41.2863086 38.904536,40.9459402 38.6789395,40.7163859 C38.4533431,40.4868316 38.1426579,40.3720562 37.7468747,40.3720562 Z" id="More" fill="#B9BCC1"></path>
    </g>
</svg>