<?xml version="1.0" encoding="UTF-8"?>
<svg width="55px" height="50px" viewBox="0 0 55 50" version="1.1" xmlns="http://www.w3.org/2000/svg" xmlns:xlink="http://www.w3.org/1999/xlink">
    <!-- Generator: Sketch 49 (51002) - http://www.bohemiancoding.com/sketch -->
    <title>Artboard Copy 3</title>
    <desc>Created with Sketch.</desc>
    <defs></defs>
    <g id="Artboard-Copy-3" stroke="none" stroke-width="1" fill="none" fill-rule="evenodd">
        <g id="eye" transform="translate(15.000000, 17.000000)" fill="#B9BCC1" fill-rule="nonzero">
            <path d="M12.5,0 C7.72348369,0 3.39188913,2.63040494 0.195612151,6.90288264 C-0.0652040503,7.25291695 -0.0652040503,7.74193548 0.195612151,8.0919698 C3.39188913,12.3695951 7.72348369,15 12.5,15 C17.2765163,15 21.6081109,12.3695951 24.8043878,8.09711736 C25.0652041,7.74708305 25.0652041,7.25806452 24.8043878,6.9080302 C21.6081109,2.63040494 17.2765163,0 12.5,0 Z M12.8426409,12.7814001 C9.67193413,12.9821551 7.05354403,10.3517502 7.25299172,7.15511325 C7.4166411,4.51956074 9.53896901,2.38332189 12.1573591,2.21859986 C15.3280659,2.01784489 17.946456,4.64824983 17.7470083,7.84488675 C17.5782449,10.4752917 15.4559169,12.6115305 12.8426409,12.7814001 Z M12.6841056,10.341455 C10.9760151,10.4495539 9.56453922,9.03397392 9.67704817,7.31468771 C9.76398691,5.89396019 10.9095326,4.74605353 12.3210085,4.65339739 C14.0290989,4.54529856 15.4405748,5.96087852 15.3280659,7.68016472 C15.2360131,9.10603981 14.0904674,10.2539465 12.6841056,10.341455 Z" id="Shape"></path>
        </g>
        <path d="M18.8895184,37.2492918 L20.3739377,37.2492918 L16.7818697,45.3172805 L15.592068,45.3172805 L12,37.2492918 L13.5184136,37.2492918 L16.203966,43.4815864 L18.8895184,37.2492918 Z M20.917847,45.3172805 L20.917847,39.5949008 L22.3229462,39.5949008 L22.3229462,45.3172805 L20.917847,45.3172805 Z M20.8271955,37 L22.4022663,37 L22.4022663,38.3937677 L20.8271955,38.3937677 L20.8271955,37 Z M28.7592068,42.529745 L24.815864,42.529745 C24.8460814,43.1416461 24.9990543,43.5930108 25.2747875,43.8838527 C25.5505207,44.1746946 25.9603372,44.3201133 26.5042493,44.3201133 C27.131259,44.3201133 27.7129341,44.1161493 28.2492918,43.7082153 L28.6572238,44.6827195 C28.3852678,44.9017952 28.0509935,45.0774309 27.6543909,45.2096317 C27.2577884,45.3418326 26.8555261,45.407932 26.4475921,45.407932 C25.5108546,45.407932 24.7743181,45.1435343 24.2379603,44.6147309 C23.7016026,44.0859275 23.4334278,43.3607223 23.4334278,42.4390935 C23.4334278,41.8574097 23.5505182,41.3399456 23.7847025,40.8866856 C24.0188869,40.4334255 24.3474955,40.0802657 24.7705382,39.8271955 C25.193581,39.5741253 25.673274,39.4475921 26.2096317,39.4475921 C26.9952825,39.4475921 27.6166172,39.702547 28.0736544,40.2124646 C28.5306916,40.7223822 28.7592068,41.4230361 28.7592068,42.3144476 L28.7592068,42.529745 Z M26.2436261,40.4674221 C25.8659093,40.4674221 25.5580748,40.5788469 25.3201133,40.8016997 C25.0821518,41.0245526 24.9291788,41.3474955 24.8611898,41.7705382 L27.5240793,41.7705382 C27.4787533,41.3399412 27.348443,41.0151097 27.1331445,40.796034 C26.9178459,40.5769583 26.6213428,40.4674221 26.2436261,40.4674221 Z M37.4617564,39.5949008 L38.8441926,39.5949008 L36.6005666,45.3172805 L35.3654391,45.3172805 L33.9490085,41.5665722 L32.5665722,45.3172805 L31.3201133,45.3172805 L29.0764873,39.5949008 L30.5269122,39.5949008 L32,43.6288952 L33.4844193,39.5949008 L34.5042493,39.5949008 L35.9886686,43.6628895 L37.4617564,39.5949008 Z M41.631728,45.407932 C40.5967842,45.407932 39.7733742,45.1661969 39.1614731,44.6827195 L39.5580737,43.6855524 C40.1699747,44.1388125 40.8687402,44.3654391 41.6543909,44.3654391 C41.994336,44.3654391 42.2568452,44.3087824 42.4419263,44.1954674 C42.6270075,44.0821524 42.7195467,43.9235138 42.7195467,43.7195467 C42.7195467,43.5457971 42.6553359,43.4079325 42.5269122,43.305949 C42.3984885,43.2039655 42.1794161,43.1152034 41.8696884,43.0396601 L40.917847,42.8243626 C39.8753489,42.5977326 39.3541076,42.06516 39.3541076,41.2266289 C39.3541076,40.8791295 39.4523125,40.571295 39.6487252,40.3031161 C39.8451379,40.0349373 40.120867,39.8253076 40.4759207,39.674221 C40.8309744,39.5231343 41.2426794,39.4475921 41.7110482,39.4475921 C42.1189822,39.4475921 42.5118017,39.5099144 42.8895184,39.6345609 C43.2672351,39.7592074 43.5996208,39.9386202 43.8866856,40.1728045 L43.4674221,41.1359773 C42.8932927,40.7129346 42.3040635,40.5014164 41.6997167,40.5014164 C41.3748803,40.5014164 41.1218139,40.5618502 40.9405099,40.6827195 C40.7592059,40.8035889 40.6685552,40.9697818 40.6685552,41.1813031 C40.6685552,41.3474985 40.7233233,41.4796973 40.8328612,41.5779037 C40.942399,41.67611 41.129366,41.7592065 41.3937677,41.8271955 L42.368272,42.0424929 C42.934847,42.1709166 43.3484406,42.3692149 43.6090652,42.6373938 C43.8696897,42.9055726 44,43.2549554 44,43.6855524 C44,44.2143558 43.7884818,44.6336151 43.3654391,44.9433428 C42.9423964,45.2530705 42.3644985,45.407932 41.631728,45.407932 Z" id="Views" fill="#B9BCC1"></path>
    </g>
</svg>