<?xml version="1.0" encoding="UTF-8"?>
<svg width="23px" height="23px" viewBox="0 0 23 23" version="1.1" xmlns="http://www.w3.org/2000/svg" xmlns:xlink="http://www.w3.org/1999/xlink">
    <!-- Generator: Sketch 50.2 (55047) - http://www.bohemiancoding.com/sketch -->
    <title>icFavouritedMutualCarousel</title>
    <desc>Created with Sketch.</desc>
    <defs>
        <path d="M19.1413473,14.0512619 C19.5063517,13.6955404 19.6351986,13.173469 19.4777603,12.688158 C19.3199507,12.202847 18.908903,11.8564084 18.4039122,11.7828877 L13.9139495,11.1304841 C13.7227214,11.1026353 13.5574854,10.9827 13.4720826,10.809295 L11.464744,6.74114831 C11.2393547,6.28405734 10.7818924,6 10.2720745,6 C9.76262784,6 9.30516556,6.28405734 9.07977627,6.74114831 L7.07206639,10.8096664 C6.98666353,10.9830713 6.82105624,11.1030066 6.6298281,11.1308554 L2.13986549,11.783259 C1.63524597,11.8564084 1.22382697,12.2032183 1.06601733,12.6885293 C0.908579014,13.1738404 1.03742594,13.6959118 1.40243034,14.0516332 L4.65108093,17.2182228 C4.78958209,17.3533821 4.85307726,17.5479521 4.82040138,17.7380663 L4.05400353,22.2094631 C3.98605256,22.6030589 4.08927863,22.9858865 4.34400194,23.2877671 C4.73982564,23.7582254 5.43084619,23.9015537 5.98336557,23.611184 L9.99878532,21.4998767 C10.1666205,21.4118746 10.3778998,21.4126173 10.5453636,21.4998767 L14.5611547,23.611184 C14.7564673,23.7140387 14.9647761,23.7660231 15.1797685,23.7660231 C15.5722503,23.7660231 15.9443097,23.5915042 16.200147,23.2877671 C16.4552416,22.9858865 16.5580964,22.6023163 16.4901454,22.2094631 L15.7233763,17.7380663 C15.6907004,17.5475808 15.7541955,17.3533821 15.8926967,17.2182228 L19.1413473,14.0512619 Z" id="path-1"></path>
        <path d="M23.7006966,5.30523973 C23.8958749,5.11502529 23.964773,4.8358588 23.8805862,4.57634912 C23.7962009,4.31683944 23.576402,4.13158885 23.3063689,4.09227522 L20.9054577,3.74341638 C20.8032025,3.72852485 20.7148461,3.66439201 20.6691788,3.57166743 L19.5957975,1.39631317 C19.4752754,1.15189358 19.2306573,1 18.9580431,1 C18.6856274,1 18.4410092,1.15189358 18.3204872,1.39631317 L17.2469073,3.57186599 C17.20124,3.66459056 17.112685,3.7287234 17.0104299,3.74361493 L14.6095186,4.09247377 C14.3396842,4.13158885 14.1196867,4.317038 14.0353014,4.57654767 C13.9511146,4.83605735 14.0200127,5.11522384 14.215191,5.30543828 L15.9523373,6.99870418 C16.0263978,7.07097772 16.0603505,7.17501986 16.0428777,7.27667935 L15.6330629,9.66766292 C15.5967276,9.87812983 15.6519255,10.0828387 15.7881334,10.2442628 C15.9997916,10.4958304 16.3693,10.5724721 16.6647479,10.4172031 L18.8119075,9.28822681 C18.9016538,9.24116959 19.0146309,9.24156669 19.1041786,9.28822681 L21.2515368,10.4172031 C21.355976,10.4722025 21.4673646,10.5 21.5823272,10.5 C21.7921985,10.5 21.9911493,10.4066798 22.1279528,10.2442628 C22.2643592,10.0828387 22.3193585,9.87773273 22.2830232,9.66766292 L21.8730098,7.27667935 C21.8555371,7.1748213 21.8894898,7.07097772 21.9635503,6.99870418 L23.7006966,5.30523973 Z" id="path-3"></path>
    </defs>
    <g id="Page-1" stroke="none" stroke-width="1" fill="none" fill-rule="evenodd">
        <g id="Icons/Star-Favorite-match" transform="translate(-1.000000, -1.000000)">
            <mask id="mask-2" fill="white">
                <use xlink:href="#path-1"></use>
            </mask>
            <use id="Mask" fill="#10C2E1" fill-rule="nonzero" xlink:href="#path-1"></use>
            <mask id="mask-4" fill="white">
                <use xlink:href="#path-3"></use>
            </mask>
            <use id="Mask-Copy" fill="#10C2E1" fill-rule="nonzero" xlink:href="#path-3"></use>
        </g>
    </g>
</svg>