<?xml version="1.0" encoding="UTF-8"?>
<svg width="60px" height="60px" viewBox="0 0 70 70" version="1.1" xmlns="http://www.w3.org/2000/svg" xmlns:xlink="http://www.w3.org/1999/xlink">
    <!-- Generator: Sketch 55 (78076) - https://sketchapp.com -->
    <title>icIgnoreCarousel</title>
    <desc>Created with Sketch.</desc>
    <defs>
        <path d="M37.9061027,34.7919238 L47.2485931,25.4494224 C48.1085806,24.5894339 48.1085806,23.1951207 47.2485931,22.3352552 C46.3886057,21.4752668 44.9944171,21.4752668 44.1344296,22.3352552 L34.7918161,31.6778797 L25.4492027,22.3351322 C24.5892152,21.4751437 23.1950266,21.4751437 22.3350392,22.3351322 C21.4751747,23.1951207 21.4751747,24.5894339 22.3350392,25.4492993 L31.6776527,34.7918008 L22.3350392,44.1344252 C21.4751747,44.9944137 21.4751747,46.3887269 22.3350392,47.2485924 C23.1950266,48.1085808 24.5892152,48.1085808 25.4492027,47.2485924 L34.7918161,37.9059679 L44.1344296,47.2485924 C44.9942941,48.1085808 46.3886057,48.1085808 47.2485931,47.2485924 C48.1085806,46.3886039 48.1085806,44.9944137 47.2485931,44.1344252 L37.9061027,34.7919238 Z" id="path-1"></path>
    </defs>
    <g id="Page-1" stroke="none" stroke-width="1" fill="none" fill-rule="evenodd">
        <g id="New-Members-Grid-OFF-Copy-2" transform="translate(-25.000000, -1182.000000)">
            <g id="icIgnoreCarousel" transform="translate(25.000000, 1182.000000)">
                <path d="M35,0 C15.7491876,0 0,15.7491876 0,35 C0,54.2508124 15.7491876,70 35,70 C54.2508124,70 70,54.2508124 70,35 C70,15.7491876 54.2508124,0 35,0 Z M35,0.985915493 C53.7063063,0.985915493 69.0140845,16.2936937 69.0140845,35 C69.0140845,53.7063063 53.7063063,69.0140845 35,69.0140845 C16.2936937,69.0140845 0.985915493,53.7063063 0.985915493,35 C0.985915493,16.2936937 16.2936937,0.985915493 35,0.985915493 Z" id="Stroke-1" fill="#FFFFFF" fill-rule="nonzero"></path>
                <mask id="mask-2" fill="white">
                    <use xlink:href="#path-1"></use>
                </mask>
                <use id="Shape" fill="#FFFFFF" fill-rule="nonzero" xlink:href="#path-1"></use>
            </g>
        </g>
    </g>
</svg>
