<?xml version="1.0" encoding="UTF-8"?>
<svg width="60px" height="60px" viewBox="0 0 60 60" version="1.1" xmlns="http://www.w3.org/2000/svg" xmlns:xlink="http://www.w3.org/1999/xlink">
    <!-- Generator: Sketch 55 (78076) - https://sketchapp.com -->
    <title>icMsgGroupCarousel</title>
    <desc>Created with Sketch.</desc>
    <defs>
        <path d="M32.7426351,21.8810377 C26.6991902,22.8747737 22.44,26.8533342 22.44,32.1751931 C22.44,33.7451519 22.8107665,35.2325826 23.4887336,36.5778281 L19.3014552,39.3003173 C19.2489671,39.3345731 19.1882234,39.352 19.1274798,39.352 C19.0762083,39.352 19.0243286,39.3395278 18.9775759,39.3146689 C18.875033,39.2605089 18.8111609,39.154837 18.8111609,39.0409643 L18.8111609,34.6099228 C16.0416328,33.1942448 14.52,30.7156123 14.52,27.6100391 C14.52,22.8107266 19.0079043,19.192 24.96,19.192 C28.1161971,19.192 30.8606891,20.2095229 32.7426351,21.8810377 Z M17.76,28.552 C18.3564675,28.552 18.84,28.0684675 18.84,27.472 C18.84,26.8755325 18.3564675,26.392 17.76,26.392 C17.1635325,26.392 16.68,26.8755325 16.68,27.472 C16.68,28.0684675 17.1635325,28.552 17.76,28.552 Z M22.08,28.552 C22.6764675,28.552 23.16,28.0684675 23.16,27.472 C23.16,26.8755325 22.6764675,26.392 22.08,26.392 C21.4835325,26.392 21,26.8755325 21,27.472 C21,28.0684675 21.4835325,28.552 22.08,28.552 Z M40.7136416,43.672 C40.6508033,43.672 40.5879651,43.6539507 40.5336671,43.6184715 L35.2926506,40.2068051 L35.2795255,40.2074245 C35.0805827,40.2177762 34.8822691,40.2286589 34.68,40.2286589 C28.5226596,40.2286589 23.88,36.4806921 23.88,31.5106834 C23.88,26.5399668 28.5226596,22.792 34.68,22.792 C40.8373404,22.792 45.48,26.5399668 45.48,31.5106834 C45.48,34.7271699 43.9058971,37.294325 41.040868,38.7605629 L41.040868,43.3498559 C41.040868,43.4677955 40.9747934,43.5772413 40.8687146,43.6333356 C40.8203498,43.6590824 40.766681,43.672 40.7136416,43.672 Z M29.8791667,33.2916667 C30.6137054,33.2916667 31.2091667,32.6962054 31.2091667,31.9616667 C31.2091667,31.2271279 30.6137054,30.6316667 29.8791667,30.6316667 C29.1446279,30.6316667 28.5491667,31.2271279 28.5491667,31.9616667 C28.5491667,32.6962054 29.1446279,33.2916667 29.8791667,33.2916667 Z M35.3200758,33.2916667 C36.0546145,33.2916667 36.6500758,32.6962054 36.6500758,31.9616667 C36.6500758,31.2271279 36.0546145,30.6316667 35.3200758,30.6316667 C34.585537,30.6316667 33.9900758,31.2271279 33.9900758,31.9616667 C33.9900758,32.6962054 34.585537,33.2916667 35.3200758,33.2916667 Z M40.7609848,33.2916667 C41.4955236,33.2916667 42.0909848,32.6962054 42.0909848,31.9616667 C42.0909848,31.2271279 41.4955236,30.6316667 40.7609848,30.6316667 C40.0264461,30.6316667 39.4309848,31.2271279 39.4309848,31.9616667 C39.4309848,32.6962054 40.0264461,33.2916667 40.7609848,33.2916667 Z" id="path-1"></path>
    </defs>
    <g id="Page-1" stroke="none" stroke-width="1" fill="none" fill-rule="evenodd">
        <g id="icMsgGroupCarousel">
            <path d="M30,0 C13.5002729,0 0,13.5002729 0,30 C0,46.4997271 13.5002729,60 30,60 C46.4997271,60 60,46.4997271 60,30 C60,13.5002729 46.4997271,0 30,0 Z" id="Stroke-1" fill="#7BCB45" transform="translate(30.000000, 30.000000) rotate(-360.000000) translate(-30.000000, -30.000000) "></path>
            <mask id="mask-2" fill="white">
                <use xlink:href="#path-1"></use>
            </mask>
            <use id="Combined-Shape" fill="#FFFFFF" xlink:href="#path-1"></use>
        </g>
    </g>
</svg>